<svg xmlns="http://www.w3.org/2000/svg" width="317.608" height="197.52" viewBox="0 0 317.608 197.52"><g transform="translate(-199.104 -5020.723)"><g transform="translate(199.104 5020.723)"><g transform="translate(0 0)"><rect width="282.991" height="0.141" transform="translate(0 185.302)" fill="#aed3f2"/><rect width="10.623" height="0.141" transform="translate(254.482 190.294)" fill="#aed3f2"/><rect width="4.918" height="0.141" transform="translate(211.15 194.177)" fill="#aed3f2"/><rect width="10.957" height="0.141" transform="translate(158.452 192.224)" fill="#aed3f2"/><rect width="24.445" height="0.141" transform="translate(45.805 192.151)" fill="#aed3f2"/><rect width="3.583" height="0.141" transform="translate(37.185 192.151)" fill="#aed3f2"/><rect width="53.021" height="0.141" transform="translate(107.14 188.8)" fill="#aed3f2"/><path d="M5407.336,3001.328H5298.051a3.233,3.233,0,0,1-3.227-3.232V2844.471a3.233,3.233,0,0,1,3.227-3.2h109.285a3.232,3.232,0,0,1,3.232,3.232h0v153.6A3.232,3.232,0,0,1,5407.336,3001.328Zm-109.285-159.946a3.09,3.09,0,0,0-3.084,3.09V2998.1a3.089,3.089,0,0,0,3.084,3.09h109.285a3.1,3.1,0,0,0,3.091-3.09V2844.471a3.1,3.1,0,0,0-3.091-3.09Z" transform="translate(-5273.198 -2841.268)" fill="#aed3f2"/><path d="M5623.638,3001.328H5514.347a3.236,3.236,0,0,1-3.231-3.232V2844.471a3.237,3.237,0,0,1,3.231-3.2h109.291a3.232,3.232,0,0,1,3.22,3.2V2998.1A3.232,3.232,0,0,1,5623.638,3001.328Zm-109.291-159.946a3.1,3.1,0,0,0-3.091,3.09V2998.1a3.1,3.1,0,0,0,3.091,3.09h109.291a3.1,3.1,0,0,0,3.09-3.09V2844.471a3.1,3.1,0,0,0-3.09-3.09Z" transform="translate(-5367.073 -2841.268)" fill="#aed3f2"/><path d="M5311.394,2857.924v32.329h8.552a48.212,48.212,0,0,0,18.858-30.642,3.429,3.429,0,0,0-2.8-3.963,3.506,3.506,0,0,0-.6-.05H5313.72a2.326,2.326,0,0,0-2.326,2.326Z" transform="translate(-5280.389 -2847.487)" fill="#e0e0e0"/><path d="M5504.19,2978.189v-56.751h-8.569s-17.353,33.421-19.368,56.751Z" transform="translate(-5351.941 -2876.064)" fill="#e0e0e0"/><rect width="18.808" height="72.864" transform="translate(130.855 112.438)" fill="#fafafa"/><path d="M5508.138,3162.214h5.02V3153.8h-10.284Z" transform="translate(-5363.496 -2976.912)" fill="#f4f8ff"/><rect width="18.808" height="72.864" transform="translate(40.875 112.438)" fill="#e0e0e0"/><rect width="94.36" height="69.967" transform="translate(55.302 112.438)" fill="#fafafa"/><path d="M5404.415,3018.068c0,6.792,6.543,12.372,14.546,12.372h7.222c8,0,14.54-5.569,14.54-12.372Z" transform="translate(-5320.763 -2918.003)" fill="#f2e9e4"/><path d="M5396.128,2990.6h13.583s-2.359,6.226-2.359,9.893,10.334,18.026-4.432,18.026-4.431-14.364-4.431-18.026S5396.128,2990.6,5396.128,2990.6Z" transform="translate(-5316.664 -2906.081)" fill="#e0e0e0"/><rect width="86.572" height="17.642" transform="translate(59.196 116.7)" fill="#f2e9e4"/><path d="M5359.344,3162.214h-5.021V3153.8h10.29Z" transform="translate(-5299.021 -2976.912)" fill="#fafafa"/><path d="M5432.984,3061a2.66,2.66,0,1,0,2.66-2.66,2.659,2.659,0,0,0-2.66,2.66Z" transform="translate(-5333.162 -2935.481)" fill="#fafafa"/><rect width="86.572" height="17.642" transform="translate(59.196 138.603)" fill="#f2e9e4"/><path d="M5432.984,3099.7a2.66,2.66,0,1,0,2.66-2.66,2.659,2.659,0,0,0-2.66,2.66Z" transform="translate(-5333.162 -2952.278)" fill="#fafafa"/><rect width="86.572" height="17.642" transform="translate(59.196 160.501)" fill="#f2e9e4"/><circle cx="2.66" cy="2.66" r="2.66" transform="translate(99.822 166.665)" fill="#fafafa"/><path d="M5629.524,2948.119h-79.8v15.6h-12.276v15.6h-12.275v15.6H5512.9v15.6h-12.275v15.6h-12.276v15.6H5476.07v15.6h-12.276v15.6h165.73Z" transform="translate(-5346.534 -2887.644)" fill="#fafafa"/><rect width="69.972" height="4.681" transform="translate(115.998 169.698)" fill="#f2e9e4"/><rect width="69.972" height="4.681" transform="translate(128.274 154.094)" fill="#f2e9e4"/><rect width="69.972" height="4.681" transform="translate(140.55 138.49)" fill="#f2e9e4"/><rect width="69.972" height="4.681" transform="translate(152.826 122.886)" fill="#f2e9e4"/><rect width="69.972" height="4.681" transform="translate(165.102 107.287)" fill="#f2e9e4"/><rect width="69.972" height="4.681" transform="translate(177.378 91.683)" fill="#f2e9e4"/><rect width="69.972" height="4.681" transform="translate(189.655 76.079)" fill="#f2e9e4"/><rect width="69.972" height="4.681" transform="translate(201.931 60.475)" fill="#f2e9e4"/><path d="M5669.027,2948.119v15.6h-12.276v15.6h-12.276v15.6H5632.2v15.6h-12.276v15.6h-12.276v15.6h-12.276v15.6h-12.276v15.6H5681.3V2948.119Z" transform="translate(-5398.313 -2887.644)" fill="#fff" stroke="#5e6178" stroke-miterlimit="10" stroke-width="0"/></g><g transform="translate(49.3 10.075)"><path d="M5418.5,2971.806h0a6.225,6.225,0,0,0-6.067-4.827h-45.279a6.226,6.226,0,0,0-6.226,6.226h0v100.643a6.226,6.226,0,0,0,6.226,6.226h143.759a6.226,6.226,0,0,0,6.226-6.226v-84.541a6.226,6.226,0,0,0-6.226-6.226h-78.246A14.535,14.535,0,0,1,5418.5,2971.806Z" transform="translate(-5351.189 -2905.904)" fill="#d9a171"/><path d="M5418.5,2971.806h0a6.225,6.225,0,0,0-6.067-4.827h-45.279a6.226,6.226,0,0,0-6.226,6.226h0v100.643a6.226,6.226,0,0,0,6.226,6.226h143.759a6.226,6.226,0,0,0,6.226-6.226v-84.541a6.226,6.226,0,0,0-6.226-6.226h-78.246A14.535,14.535,0,0,1,5418.5,2971.806Z" transform="translate(-5351.189 -2905.904)" fill="#344154" opacity="0.6" style="isolation:isolate"/><path d="M5434.409,2920.128l4.035,13.069a6.573,6.573,0,0,0,8.213,4.335l13.063-4.035Z" transform="translate(-5383.081 -2885.57)" fill="#d9a171" opacity="0.22" style="isolation:isolate"/><path d="M5395.049,2920.128l-46.693,14.427a6.56,6.56,0,0,0-4.344,8.2l0,.01,26.658,86.3a6.566,6.566,0,0,0,8.21,4.336h0l59.762-18.463a6.559,6.559,0,0,0,4.337-8.2v-.006l-22.64-73.232Z" transform="translate(-5343.721 -2885.57)" fill="#d9a171"/><path d="M5395.049,2920.128l-46.693,14.427a6.56,6.56,0,0,0-4.344,8.2l0,.01,26.658,86.3a6.566,6.566,0,0,0,8.21,4.336h0l59.762-18.463a6.559,6.559,0,0,0,4.337-8.2v-.006l-22.64-73.232Z" transform="translate(-5343.721 -2885.57)" fill="#fff" stroke="#5e6178" stroke-miterlimit="10" stroke-width="0" opacity="0.8" style="isolation:isolate"/><g transform="translate(33.89 119.991)" opacity="0.28"><path d="M5446.161,3076.68l-38.849,12a2.876,2.876,0,0,1-3.589-1.891h0a2.876,2.876,0,0,1,1.9-3.583l38.849-12a2.874,2.874,0,0,1,3.588,1.9h0A2.875,2.875,0,0,1,5446.161,3076.68Z" transform="translate(-5403.599 -3071.074)" fill="#d9a171"/></g><g transform="translate(10.384 49.569)" opacity="0.28"><path d="M5386.327,2952.259l-20.545,6.345a2.882,2.882,0,0,1-3.588-1.891h0a2.881,2.881,0,0,1,1.9-3.588l20.545-6.344a2.869,2.869,0,0,1,3.587,1.89h0A2.881,2.881,0,0,1,5386.327,2952.259Z" transform="translate(-5362.068 -2946.651)" fill="#d9a171"/></g><g transform="translate(13.75 56.3)" opacity="0.28"><path d="M5405.672,2964.149l-33.959,10.488a2.876,2.876,0,0,1-3.571-1.9h0a2.871,2.871,0,0,1,1.891-3.583l33.959-10.487a2.874,2.874,0,0,1,3.588,1.89h0A2.885,2.885,0,0,1,5405.672,2964.149Z" transform="translate(-5368.015 -2958.543)" fill="#d9a171"/></g><g transform="translate(17.102 62.352)" opacity="0.28"><path d="M5427.2,2974.84l-49.557,15.282a2.871,2.871,0,0,1-3.583-1.891h0a2.881,2.881,0,0,1,1.891-3.588l49.557-15.281a2.875,2.875,0,0,1,3.583,1.89h0A2.875,2.875,0,0,1,5427.2,2974.84Z" transform="translate(-5373.936 -2969.236)" fill="#d9a171"/></g><g transform="translate(41.207 73.221)" opacity="0.28"><path d="M5449.044,2994.041l-28.809,8.9a2.876,2.876,0,0,1-3.582-1.9h0a2.875,2.875,0,0,1,1.89-3.583l28.808-8.9a2.888,2.888,0,0,1,3.589,1.9h0A2.876,2.876,0,0,1,5449.044,2994.041Z" transform="translate(-5416.527 -2988.438)" fill="#d9a171"/></g><g transform="translate(20.457 86.202)" opacity="0.28"><path d="M5391.114,3016.98l-7.533,2.326a2.875,2.875,0,0,1-3.588-1.89h0a2.874,2.874,0,0,1,1.9-3.588l7.533-2.326a2.88,2.88,0,0,1,3.588,1.891h0A2.886,2.886,0,0,1,5391.114,3016.98Z" transform="translate(-5379.866 -3011.375)" fill="#d9a171"/></g><g transform="translate(23.819 84.091)" opacity="0.28"><path d="M5439.072,3013.25l-49.557,15.309a2.874,2.874,0,0,1-3.583-1.9h0a2.869,2.869,0,0,1,1.89-3.583l49.557-15.31a2.875,2.875,0,0,1,3.583,1.89h0A2.876,2.876,0,0,1,5439.072,3013.25Z" transform="translate(-5385.805 -3007.646)" fill="#d9a171"/></g><g transform="translate(27.176 100.868)" opacity="0.28"><path d="M5425.878,3042.89l-30.434,9.4a2.876,2.876,0,0,1-3.582-1.89h0a2.881,2.881,0,0,1,1.89-3.588l30.434-9.4a2.88,2.88,0,0,1,3.588,1.9h0A2.87,2.87,0,0,1,5425.878,3042.89Z" transform="translate(-5391.737 -3037.286)" fill="#d9a171"/></g><g transform="translate(68.607 94.963)" opacity="0.28"><path d="M5476.773,3032.459l-8.122,2.507a2.881,2.881,0,0,1-3.588-1.9h0a2.875,2.875,0,0,1,1.9-3.583l8.121-2.507a2.871,2.871,0,0,1,3.583,1.891h0A2.875,2.875,0,0,1,5476.773,3032.459Z" transform="translate(-5464.938 -3026.853)" fill="#d9a171"/></g><g transform="translate(30.538 105.816)" opacity="0.28"><path d="M5450.936,3051.659l-49.546,15.282a2.875,2.875,0,0,1-3.588-1.9h0a2.869,2.869,0,0,1,1.9-3.582l49.552-15.31a2.885,2.885,0,0,1,3.588,1.9h0a2.875,2.875,0,0,1-1.881,3.6Z" transform="translate(-5397.675 -3046.028)" fill="#d9a171"/></g><path d="M5440.228,2861.174l14.818,33.019a3.572,3.572,0,0,1-1.789,4.709l-62.858,28.214a3.566,3.566,0,0,1-4.709-1.788l-14.823-33.019a3.566,3.566,0,0,1,1.789-4.715l62.857-28.214A3.576,3.576,0,0,1,5440.228,2861.174Z" transform="translate(-5355.365 -2859.07)" fill="#d9a171"/><path d="M5440.228,2861.174l14.818,33.019a3.572,3.572,0,0,1-1.789,4.709l-62.858,28.214a3.566,3.566,0,0,1-4.709-1.788l-14.823-33.019a3.566,3.566,0,0,1,1.789-4.715l62.857-28.214A3.576,3.576,0,0,1,5440.228,2861.174Z" transform="translate(-5355.365 -2859.07)" fill="#344154" opacity="0.3" style="isolation:isolate"/><rect width="2.202" height="0.566" transform="matrix(0.912, -0.409, 0.409, 0.912, 72.948, 1.374)" fill="#d9a171"/><rect width="6.865" height="0.566" transform="matrix(0.912, -0.409, 0.409, 0.912, 63.87, 5.444)" fill="#d9a171"/><rect width="0.566" height="4.188" transform="translate(14.93 36.799) rotate(-24.18)" fill="#d9a171"/><path d="M5438.339,2859.261l-16.21,31.752a14.518,14.518,0,0,1-16.583,7.442l-34.5-8.993a3.617,3.617,0,0,1,1.824-1.868l62.857-28.214A3.56,3.56,0,0,1,5438.339,2859.261Z" transform="translate(-5355.581 -2859.069)" fill="#d9a171" opacity="0.6" style="isolation:isolate"/><path d="M5487.169,2931.209l-48.776,3.011a6.564,6.564,0,0,0-6.164,6.943v.013l5.563,90.149a6.565,6.565,0,0,0,6.948,6.159h.019l62.428-3.854a6.555,6.555,0,0,0,6.147-6.937v-.019l-4.7-76.5Z" transform="translate(-5382.13 -2890.379)" fill="#d9a171"/><path d="M5487.169,2931.209l-48.776,3.011a6.564,6.564,0,0,0-6.164,6.943v.013l5.563,90.149a6.565,6.565,0,0,0,6.948,6.159h.019l62.428-3.854a6.555,6.555,0,0,0,6.147-6.937v-.019l-4.7-76.5Z" transform="translate(-5382.13 -2890.379)" fill="#fff" stroke="#5e6178" stroke-miterlimit="10" stroke-width="0" opacity="0.8" style="isolation:isolate"/><g transform="translate(64.364 129.491)" opacity="0.22"><path d="M5501.066,3093.586l-40.586,2.507a2.876,2.876,0,0,1-3.034-2.688h0a2.88,2.88,0,0,1,2.682-3.039l40.587-2.5a2.875,2.875,0,0,1,3.039,2.683h0A2.874,2.874,0,0,1,5501.066,3093.586Z" transform="translate(-5457.441 -3087.858)" fill="#d9a171"/></g><g transform="translate(59.457 51.193)" opacity="0.22"><path d="M5473.283,2955.257l-21.468,1.313a2.881,2.881,0,0,1-3.04-2.682h0a2.882,2.882,0,0,1,2.688-3.04l21.469-1.324a2.869,2.869,0,0,1,3.033,2.683h0A2.875,2.875,0,0,1,5473.283,2955.257Z" transform="translate(-5448.771 -2949.519)" fill="#d9a171"/></g><g transform="translate(60.158 61.697)" opacity="0.22"><path d="M5488.525,2973.806l-35.47,2.185a2.871,2.871,0,0,1-3.04-2.683h0a2.875,2.875,0,0,1,2.688-3.04l35.464-2.185a2.869,2.869,0,0,1,3.039,2.683h0A2.874,2.874,0,0,1,5488.525,2973.806Z" transform="translate(-5450.011 -2968.078)" fill="#d9a171"/></g><g transform="translate(60.849 72.044)" opacity="0.22"><path d="M5506.051,2992.093l-51.765,3.192a2.881,2.881,0,0,1-3.051-2.688h0a2.87,2.87,0,0,1,2.683-3.033l51.771-3.2a2.874,2.874,0,0,1,3.034,2.688h0A2.875,2.875,0,0,1,5506.051,2992.093Z" transform="translate(-5451.231 -2986.36)" fill="#d9a171"/></g><g transform="translate(83.233 83.403)" opacity="0.22"><path d="M5523.917,3012.156l-30.093,1.856a2.875,2.875,0,0,1-3.039-2.683h0a2.869,2.869,0,0,1,2.682-3.039l30.094-1.856a2.869,2.869,0,0,1,3.039,2.683h0A2.875,2.875,0,0,1,5523.917,3012.156Z" transform="translate(-5490.78 -3006.429)" fill="#d9a171"/></g><g transform="translate(61.562 86.109)" opacity="0.22"><path d="M5463.4,3016.937l-7.873.487a2.869,2.869,0,0,1-3.034-2.683h0a2.876,2.876,0,0,1,2.683-3.04l7.873-.487a2.88,2.88,0,0,1,3.039,2.688h0A2.874,2.874,0,0,1,5463.4,3016.937Z" transform="translate(-5452.49 -3011.21)" fill="#d9a171"/></g><g transform="translate(62.258 94.757)" opacity="0.22"><path d="M5508.536,3032.216l-51.77,3.193a2.876,2.876,0,0,1-3.04-2.683h0a2.88,2.88,0,0,1,2.688-3.039l51.765-3.192a2.875,2.875,0,0,1,3.039,2.688h0A2.869,2.869,0,0,1,5508.536,3032.216Z" transform="translate(-5453.722 -3026.49)" fill="#d9a171"/></g><g transform="translate(62.96 107.344)" opacity="0.22"><path d="M5489.8,3054.457l-31.791,1.964a2.881,2.881,0,0,1-3.04-2.688h0a2.874,2.874,0,0,1,2.688-3.033l31.792-1.964a2.874,2.874,0,0,1,3.034,2.688h0A2.865,2.865,0,0,1,5489.8,3054.457Z" transform="translate(-5454.961 -3048.729)" fill="#d9a171"/></g><g transform="translate(106.24 106.116)" opacity="0.22"><path d="M5542.959,3052.286l-8.49.521a2.871,2.871,0,0,1-3.034-2.683h0a2.869,2.869,0,0,1,2.683-3.039l8.49-.521a2.869,2.869,0,0,1,3.04,2.683h0A2.881,2.881,0,0,1,5542.959,3052.286Z" transform="translate(-5531.43 -3046.559)" fill="#d9a171"/></g><g transform="translate(63.662 117.469)" opacity="0.22"><path d="M5511.009,3072.346l-51.764,3.192a2.875,2.875,0,0,1-3.039-2.682h0a2.875,2.875,0,0,1,2.682-3.04l51.771-3.192a2.868,2.868,0,0,1,3.034,2.683h0A2.87,2.87,0,0,1,5511.009,3072.346Z" transform="translate(-5456.2 -3066.619)" fill="#d9a171"/></g><path d="M5529.31,2931.209l.843,13.651a6.567,6.567,0,0,0,6.955,6.153h0l13.668-.844Z" transform="translate(-5424.27 -2890.379)" fill="#d9a171" opacity="0.22" style="isolation:isolate"/><path d="M5442.905,2987.673h0a4.9,4.9,0,0,0-4.958-4.832c-.045,0-.09,0-.135,0h-45.335a7.914,7.914,0,0,0-7.436,6.226l-17.892,91.66a4.981,4.981,0,0,0,5.009,6.226h143.76a7.934,7.934,0,0,0,7.437-6.226l14.755-75.558a4.979,4.979,0,0,0-5.009-6.226h-78.225C5448.084,2998.948,5443.138,2994.272,5442.905,2987.673Z" transform="translate(-5353.837 -2912.788)" fill="#d9a171" opacity="0.5" style="isolation:isolate"/></g><g transform="translate(167.919 39.854)"><path d="M5647.029,2937.316c.792,2.654,4.878,7.624,5.2,11.24s-6.646,9.4-6.646,9.4-5.206-17.41-1.947-19.442S5647.029,2937.316,5647.029,2937.316Z" transform="translate(-5592.044 -2922.736)" fill="#344154"/><path d="M5599.109,2968.019c-1.234,1.03-2.445,1.9-3.708,2.785s-2.564,1.7-3.888,2.457a43.96,43.96,0,0,1-4.1,2.145c-.712.322-1.42.639-2.157.917-.362.147-.729.289-1.1.413l-1.132.4a7.484,7.484,0,0,1-2.978.215,17.038,17.038,0,0,1-2.468-.475,32.715,32.715,0,0,1-4.419-1.574,58.862,58.862,0,0,1-8.032-4.273l1.058-1.97c1.336.566,2.706,1.132,4.064,1.624s2.729,1.014,4.1,1.438a34.394,34.394,0,0,0,4.075,1.064,13.209,13.209,0,0,0,1.918.232,3.982,3.982,0,0,0,1.426-.147,36.394,36.394,0,0,0,3.782-1.7c.628-.328,1.25-.663,1.862-1.025s1.233-.713,1.839-1.086c1.217-.752,2.405-1.551,3.583-2.371s2.349-1.7,3.4-2.53Z" transform="translate(-5558.432 -2934.632)" fill="#e58a7b"/><path d="M5623.572,2959.868c-1.4-1.1-7.21,2.5-8.971,4l1.285,7.771s8.348-3.5,8.845-5.886C5625.259,2963.253,5624.62,2960.706,5623.572,2959.868Z" transform="translate(-5579.907 -2932.508)" fill="#d9a171"/><path d="M5623.572,2959.868c-1.4-1.1-7.21,2.5-8.971,4l1.285,7.771s8.348-3.5,8.845-5.886C5625.259,2963.253,5624.62,2960.706,5623.572,2959.868Z" transform="translate(-5579.907 -2932.508)" fill="#344154" opacity="0.2" style="isolation:isolate"/><path d="M5645.843,2980.917l-17.625,3.436c-9.106-24.66-7.125-25.47-7.125-25.47a35.521,35.521,0,0,1,3.961-1.868l.238-.09c1.132-.413,1.358-.476,2.864-.917,2.592-.617,5.008-1.133,8-1.557l.565-.079c.566-.068,1.082-.124,1.6-.175.352-.04.7-.062,1.037-.085l1.132-.062c1.935-.1,3.322-.068,3.322-.068C5643.278,2969.383,5644.15,2973.8,5645.843,2980.917Z" transform="translate(-5582.646 -2930.041)" fill="#d9a171"/><path d="M5645.843,2980.917l-17.625,3.436c-9.106-24.66-7.125-25.47-7.125-25.47a35.521,35.521,0,0,1,3.961-1.868l.238-.09c1.132-.413,1.358-.476,2.864-.917,2.592-.617,5.008-1.133,8-1.557l.565-.079c.566-.068,1.082-.124,1.6-.175.352-.04.7-.062,1.037-.085l1.132-.062c1.935-.1,3.322-.068,3.322-.068C5643.278,2969.383,5644.15,2973.8,5645.843,2980.917Z" transform="translate(-5582.646 -2930.041)" fill="#344154" opacity="0.2" style="isolation:isolate"/><path d="M5640.422,2936.6c-1.131,1.873,2.971,2.739,5.4.821,1.941-1.54,1.482-5.094-.182-5.92S5640.422,2936.6,5640.422,2936.6Z" transform="translate(-5591.03 -2920.252)" fill="#d9a171"/><path d="M5640.422,2936.6c-1.131,1.873,2.971,2.739,5.4.821,1.941-1.54,1.482-5.094-.182-5.92S5640.422,2936.6,5640.422,2936.6Z" transform="translate(-5591.03 -2920.252)" fill="#344154" opacity="0.4" style="isolation:isolate"/><path d="M5666.264,3174.134l-4.408.328-1.613-10.148,4.409-.329Z" transform="translate(-5599.716 -3021.188)" fill="#e58a7b"/><path d="M5718,3150.792l-3.741,2.355-6.661-7.9,3.741-2.36Z" transform="translate(-5620.271 -3012.031)" fill="#e58a7b"/><path d="M5660.242,3164.318l.894,5.637,4.347-.73-.827-5.23Z" transform="translate(-5599.716 -3021.192)" fill="#cf6f64"/><path d="M5711.349,3142.9l-3.747,2.354,2.762,3.272,3.825-2.259Z" transform="translate(-5620.271 -3012.035)" fill="#cf6f64"/><path d="M5634.3,3005.718s-.062,34.989,2.8,48.165c2.976,13.708,11.732,44.894,11.732,44.894l6.35-.821s-4.964-31.5-7.08-45.126c-2.3-14.845-.889-49.625-.889-49.625Z" transform="translate(-5588.458 -2951.407)" fill="#d9a171"/><path d="M5634.3,3005.718s-.062,34.989,2.8,48.165c2.976,13.708,11.732,44.894,11.732,44.894l6.35-.821s-4.964-31.5-7.08-45.126c-2.3-14.845-.889-49.625-.889-49.625Z" transform="translate(-5588.458 -2951.407)" fill="#344154" opacity="0.7" style="isolation:isolate"/><path d="M5654.024,3028.227l-3.112-3.1c.118,13.442.871,20.081,3.458,27.314C5653.962,3044.793,5653.929,3035.749,5654.024,3028.227Z" transform="translate(-5595.667 -2960.92)" fill="#344154" opacity="0.5" style="isolation:isolate"/><path d="M5642.042,3004.1s9.491,28.916,14.2,45.573c4.971,17.574,24.021,37.01,24.021,37.01l5.468-3.158s-13.018-18.451-17.806-34.848c-9.736-33.285-5.733-40.338-12.916-47.107Z" transform="translate(-5591.817 -2950.699)" fill="#d9a171"/><path d="M5642.042,3004.1s9.491,28.916,14.2,45.573c4.971,17.574,24.021,37.01,24.021,37.01l5.468-3.158s-13.018-18.451-17.806-34.848c-9.736-33.285-5.733-40.338-12.916-47.107Z" transform="translate(-5591.817 -2950.699)" fill="#344154" opacity="0.7" style="isolation:isolate"/><path d="M5625.091,2922.535c2.526.844,4.817,7.109,4.914,9.576s-7.312,5.869-7.312,5.869-3.266-7.924-2.355-13.018C5620.735,2922.75,5625.091,2922.535,5625.091,2922.535Z" transform="translate(-5582.327 -2916.394)" fill="#344154"/><path d="M5564.6,2970.375l-2.994-3.26-.979,4.086s2.128,1.879,3.849,1.234Z" transform="translate(-5556.482 -2935.743)" fill="#e58a7b"/><path d="M5555.4,2965.466l-2.094,1.664,4.149,3.356.979-4.086Z" transform="translate(-5553.302 -2935.027)" fill="#e58a7b"/><path d="M5715.685,3156.742l3.5-3.526a.356.356,0,0,1,.463-.033l3.187,2.365a.706.706,0,0,1,.12.993.579.579,0,0,1-.057.065c-1.246,1.206-1.9,1.727-3.441,3.277-.945.956-2.23,2.445-3.538,3.764s-2.683.09-2.264-.566a8.709,8.709,0,0,0,1.7-5.615A1.136,1.136,0,0,1,5715.685,3156.742Z" transform="translate(-5622.864 -3016.469)" fill="#344154"/><path d="M5657.214,3181.375h4.97a.373.373,0,0,1,.367.306l.782,3.927a.668.668,0,0,1-.539.776.633.633,0,0,1-.124.011c-1.738-.029-2.576-.131-4.761-.131-1.341,0-4.114.136-5.97.136s-2.055-1.834-1.291-2a11.346,11.346,0,0,0,5.841-2.756A1.134,1.134,0,0,1,5657.214,3181.375Z" transform="translate(-5595.37 -3028.736)" fill="#344154"/><path d="M5660.309,2969.755l-2.717,1.619,3.136,11.789C5660.042,2979.592,5660.349,2975.67,5660.309,2969.755Z" transform="translate(-5598.566 -2936.889)" fill="#d9a171" opacity="0.27" style="isolation:isolate"/><path d="M5635.111,2931.418c1.931,1.613,4.731,3.962,8.031,1.217,2.83-2.366,4.811-8.574-.267-8.8C5640.223,2923.715,5635.111,2931.418,5635.111,2931.418Z" transform="translate(-5588.809 -2916.957)" fill="#344154"/><path d="M5638.806,2939.186c0,2.671.413,7.488,2.547,8.858,0,0-.192,2.75-4.981,3.679-5.258,1.024-3.022-2.123-3.022-2.123,2.739-1.245,2.263-3.362,1.358-5.263Z" transform="translate(-5587.839 -2923.621)" fill="#e58a7b"/><path d="M5638.544,2942.9l-2.422,3.051a8.644,8.644,0,0,1,.521,1.37,3.61,3.61,0,0,0,2.229-3.039A3.841,3.841,0,0,0,5638.544,2942.9Z" transform="translate(-5589.248 -2925.231)" fill="#cf6f64"/><path d="M5634.511,2924.3c.567,4.352.912,6.181-.832,8.812-2.62,3.962-8.088,3.708-9.95-.384-1.7-3.685-2.331-10.187,1.541-12.707a5.981,5.981,0,0,1,9.241,4.279Z" transform="translate(-5583.29 -2914.872)" fill="#e58a7b"/><path d="M5629.812,2913.491c-2.944,2.088,2.959,2.705,2.965,5.733,0,1.251,2.054,5.219,4.976,4.992l2.829-5.026C5643.559,2914.379,5636.523,2908.719,5629.812,2913.491Z" transform="translate(-5586.151 -2911.685)" fill="#344154"/><path d="M5625.123,2914.866c-5.179-.272-7.437,3.849-6.843,7.55a33.748,33.748,0,0,1,11.06-.877C5636.438,2922.263,5625.123,2914.866,5625.123,2914.866Z" transform="translate(-5581.463 -2913.06)" fill="#344154"/><path d="M5644.049,2933.892a3.2,3.2,0,0,1-.741,2.332c-.73.854-1.7.351-2.038-.662-.289-.917-.254-2.462.73-2.948a1.443,1.443,0,0,1,1.916.7A1.422,1.422,0,0,1,5644.049,2933.892Z" transform="translate(-5591.413 -2920.71)" fill="#e58a7b"/><path d="M5632.044,2932.273c.067.351-.062.668-.289.713s-.47-.2-.538-.566.063-.674.289-.719S5631.976,2931.922,5632.044,2932.273Z" transform="translate(-5587.11 -2920.37)" fill="#344154"/><path d="M5625.054,2933.643c.068.351-.062.673-.289.719s-.47-.2-.538-.566.063-.674.288-.713S5624.987,2933.286,5625.054,2933.643Z" transform="translate(-5584.077 -2920.97)" fill="#344154"/><path d="M5624.26,2933.039l-.889-.074S5623.932,2933.537,5624.26,2933.039Z" transform="translate(-5583.713 -2920.921)" fill="#344154"/><path d="M5627.137,2934.785a9.671,9.671,0,0,1-.815,2.473,1.533,1.533,0,0,0,1.3,0Z" transform="translate(-5584.994 -2921.711)" fill="#df5753"/><path d="M5631.142,2939.778a.1.1,0,0,1-.02-.2h0a2.829,2.829,0,0,0,2.049-1.528.1.1,0,0,1,.193.08,2.982,2.982,0,0,1-2.2,1.652Z" transform="translate(-5587.041 -2923.098)" fill="#344154"/><path d="M5632.871,2929.326a.216.216,0,0,1-.141-.051,1.664,1.664,0,0,0-1.449-.43.222.222,0,1,1-.107-.43,2.1,2.1,0,0,1,1.84.526.211.211,0,0,1,0,.295A.2.2,0,0,1,5632.871,2929.326Z" transform="translate(-5587.026 -2918.929)" fill="#344154"/><path d="M5621.671,2930.261a.169.169,0,0,1-.08,0,.21.21,0,0,1-.115-.272l0,0a2.077,2.077,0,0,1,1.431-1.263.2.2,0,0,1,.242.158l0,.012a.2.2,0,0,1-.157.243h-.007a1.7,1.7,0,0,0-1.132,1.013A.212.212,0,0,1,5621.671,2930.261Z" transform="translate(-5582.884 -2919.077)" fill="#344154"/><path d="M5714.543,3161.978a.6.6,0,0,1-.486-.272.357.357,0,0,1-.062-.351c.2-.532,1.759-.871,1.935-.911a.108.108,0,0,1,.108.045.1.1,0,0,1,0,.113c-.306.5-.906,1.347-1.466,1.375Zm1.184-1.274c-.618.159-1.432.441-1.534.724a.142.142,0,0,0,.035.153.383.383,0,0,0,.339.187C5714.866,3161.752,5715.291,3161.361,5715.728,3160.7Z" transform="translate(-5623.037 -3019.651)" fill="#d9a171"/><path d="M5715.437,3160.046a2.067,2.067,0,0,1-1.482-.447.369.369,0,0,1,.04-.458.568.568,0,0,1,.414-.215h.045c.634,0,1.505.854,1.54.888a.1.1,0,0,1,.028.1.11.11,0,0,1-.074.074A2.026,2.026,0,0,1,5715.437,3160.046Zm-.984-.911h-.034a.341.341,0,0,0-.26.136c-.079.108-.056.17-.028.209.169.26,1.036.407,1.567.345a2.5,2.5,0,0,0-1.245-.69Z" transform="translate(-5623.001 -3018.992)" fill="#d9a171"/><path d="M5658.706,3181.886a1.7,1.7,0,0,1-1.082-.272.566.566,0,0,1-.215-.5.328.328,0,0,1,.158-.283c.521-.306,2.343.6,2.547.7a.106.106,0,0,1-.023.2A7.514,7.514,0,0,1,5658.706,3181.886Zm-.838-.917a.376.376,0,0,0-.192.04.108.108,0,0,0-.057.108.4.4,0,0,0,.142.34,2.85,2.85,0,0,0,1.974.125,5.917,5.917,0,0,0-1.867-.611Z" transform="translate(-5598.486 -3028.471)" fill="#d9a171"/><path d="M5660.867,3180.922h-.039c-.566-.244-1.659-1.206-1.58-1.7,0-.113.1-.261.385-.289h.085c.984,0,1.239,1.8,1.25,1.879a.112.112,0,0,1-.04.1A.118.118,0,0,1,5660.867,3180.922Zm-1.132-1.789h-.062c-.182,0-.192.085-.192.108-.045.3.7,1.052,1.268,1.386-.113-.441-.4-1.483-1.037-1.483Z" transform="translate(-5599.283 -3027.677)" fill="#d9a171"/><path d="M5631.25,2931.675l-.889-.079S5630.922,2932.173,5631.25,2931.675Z" transform="translate(-5586.747 -2920.327)" fill="#344154"/><path d="M5633.552,2961.965c-9.468,2.111-6.543-3.617-5.977-4.879l.238-.09c1.132-.413,1.357-.475,2.864-.917a56.928,56.928,0,0,1,8-1.556l.565-.079c.566-.074,1.082-.13,1.6-.176.351-.04.7-.062,1.037-.085l1.131-.068h0C5643.207,2955,5643.677,2959.719,5633.552,2961.965Z" transform="translate(-5585.161 -2930.101)" fill="#e58a7b"/><path d="M5650.935,2999.589l1.1,1.426c.085.108-.034.26-.238.3l-18.485,3.6c-.158.034-.3,0-.333-.119l-.47-1.545a.291.291,0,0,1,.261-.26l17.851-3.475A.323.323,0,0,1,5650.935,2999.589Z" transform="translate(-5587.68 -2949.8)" fill="#26395a"/><path d="M5660.875,3002.23l.481-.091c.1,0,.159-.079.142-.141l-.623-2c0-.062-.113-.091-.209-.073l-.475.09c-.1,0-.16.085-.142.141l.623,2.009C5660.689,3002.219,5660.786,3002.253,5660.875,3002.23Z" transform="translate(-5599.631 -2949.98)" fill="#d9a171"/><path d="M5639.556,3014.755l-3.684-1.37.566,3.5s2.671.962,4.035-.272Z" transform="translate(-5589.139 -2955.825)" fill="#e58a7b"/><path d="M5629,3014.314l-.878,2.3,4.953.277-.566-3.5Z" transform="translate(-5585.775 -2955.825)" fill="#e58a7b"/><path d="M5635.724,3007.131l.481-.091c.091,0,.159-.079.136-.141l-.622-2c0-.062-.108-.091-.2-.073l-.481.09c-.1,0-.158.085-.135.142l.622,2.009C5635.538,3007.12,5635.628,3007.153,5635.724,3007.131Z" transform="translate(-5588.714 -2952.106)" fill="#d9a171"/><path d="M5648.3,3004.671l.476-.091c.1,0,.158-.079.142-.141l-.623-2c0-.062-.113-.091-.209-.074l-.475.091c-.1,0-.159.085-.142.142l.622,2.009A.181.181,0,0,0,5648.3,3004.671Z" transform="translate(-5594.171 -2951.038)" fill="#d9a171"/><path d="M5641.521,2950.857c.4-.153.906,1.262.782,1.443-.29.414-5.575,1.857-5.813,1.047a3.538,3.538,0,0,1,.2-1.29C5636.841,2951.785,5638.013,2952.283,5641.521,2950.857Z" transform="translate(-5589.406 -2928.682)" fill="#d9a171"/><path d="M5643.765,2950.22c.2-.47.787-1.223,1.3-.793s.725,1.358.391,1.511S5643.415,2951.006,5643.765,2950.22Z" transform="translate(-5592.543 -2928.01)" fill="#d9a171"/><path d="M5645.61,2950.917c.351-.373,1.132-.888,1.489-.311s.226,1.523-.136,1.551S5645.016,2951.534,5645.61,2950.917Z" transform="translate(-5593.308 -2928.465)" fill="#d9a171"/><path d="M5646.047,2949.178a1.569,1.569,0,0,1,.787-1.511c.645-.419,1.272-.69,1.523-1.132a3.128,3.128,0,0,1,.062,1.268c-.13.606-2.139,1.07-2,1.6Z" transform="translate(-5593.552 -2926.811)" fill="#d9a171"/><path d="M5645.644,2948.5a1.568,1.568,0,0,1-.159-1.7,5.012,5.012,0,0,0,.667-1.766,3.15,3.15,0,0,1,.742,1.03c.214.566-1.217,2.054-.815,2.428Z" transform="translate(-5593.234 -2926.159)" fill="#d9a171"/><path d="M5693.574,3085.582a.07.07,0,0,1-.056-.034c-.13-.181-13.069-18.644-17.812-34.865a237.594,237.594,0,0,1-7.12-31.74c-.979-6.045-1.573-9.7-3.521-12.689a.07.07,0,0,1,.1-.1c1.969,3.022,2.563,6.684,3.542,12.746a238.523,238.523,0,0,0,7.132,31.7c4.737,16.2,17.664,34.638,17.794,34.825a.079.079,0,0,1,0,.1A.075.075,0,0,1,5693.574,3085.582Z" transform="translate(-5601.801 -2952.678)" fill="#d9a171"/><path d="M5693.574,3085.582a.07.07,0,0,1-.056-.034c-.13-.181-13.069-18.644-17.812-34.865a237.594,237.594,0,0,1-7.12-31.74c-.979-6.045-1.573-9.7-3.521-12.689a.07.07,0,0,1,.1-.1c1.969,3.022,2.563,6.684,3.542,12.746a238.523,238.523,0,0,0,7.132,31.7c4.737,16.2,17.664,34.638,17.794,34.825a.079.079,0,0,1,0,.1A.075.075,0,0,1,5693.574,3085.582Z" transform="translate(-5601.801 -2952.678)" fill="#344154" opacity="0.4" style="isolation:isolate"/><path d="M5666.136,3168.123l-8.648,1.121-.566-2.411,9.005-1.907Z" transform="translate(-5598.275 -3021.596)" fill="#d9a171"/><path d="M5713.5,3143.831l-6.378,3.685-2.152-1.839,6.979-4.721Z" transform="translate(-5619.128 -3011.193)" fill="#d9a171"/><path d="M5655.657,2964.575c.306,1.573.481,3.057.651,4.59s.232,3.051.277,4.584a44.756,44.756,0,0,1-.1,4.635c-.062.776-.129,1.551-.238,2.332-.045.385-.1.775-.169,1.166l-.209,1.2a7.543,7.543,0,0,1-1.25,2.711,16.9,16.9,0,0,1-1.607,1.93,32.039,32.039,0,0,1-3.51,3.113,58.6,58.6,0,0,1-7.619,4.975l-1.211-1.879q1.7-1.351,3.4-2.774c1.132-.945,2.208-1.9,3.244-2.9a35.455,35.455,0,0,0,2.892-3.051,13.3,13.3,0,0,0,1.131-1.573,3.92,3.92,0,0,0,.566-1.319,37.108,37.108,0,0,0,.323-4.143v-2.123c0-.707-.028-1.426-.062-2.139-.069-1.427-.2-2.83-.351-4.279s-.352-2.881-.566-4.222Z" transform="translate(-5591.22 -2934.641)" fill="#e58a7b"/><path d="M5661.1,2955.164c2.417,1.958,1.839,7.777,1.839,7.777l-8.15,2.683s.374-6.707.781-9.118C5656.048,2953.636,5658.72,2953.234,5661.1,2955.164Z" transform="translate(-5597.351 -2930.04)" fill="#d9a171"/><path d="M5661.1,2955.164c2.417,1.958,1.839,7.777,1.839,7.777l-8.15,2.683s.374-6.707.781-9.118C5656.048,2953.636,5658.72,2953.234,5661.1,2955.164Z" transform="translate(-5597.351 -2930.04)" fill="#344154" opacity="0.2" style="isolation:isolate"/></g></g><g transform="translate(219.159 5029.604)"><g transform="translate(218.341)"><g transform="translate(0)"><path d="M143.335,248.281a31.7,31.7,0,0,1,6.883,4.848l7.354-2.618,6.913,10.911-5.508,5.532a31.656,31.656,0,0,1,1.445,8.3l7.05,3.348-2.828,12.6-7.8.017a31.608,31.608,0,0,1-4.85,6.884l2.618,7.355L143.7,312.369l-5.533-5.508a31.606,31.606,0,0,1-8.3,1.443l-3.347,7.051-12.605-2.827-.016-7.8a31.6,31.6,0,0,1-6.883-4.849l-7.356,2.618L92.75,291.581l5.51-5.532a31.679,31.679,0,0,1-1.445-8.3l-7.049-3.348,2.827-12.6,7.8-.017a31.586,31.586,0,0,1,4.85-6.884l-2.618-7.355,10.909-6.913,5.533,5.509a31.679,31.679,0,0,1,8.3-1.444l3.347-7.049,12.6,2.827.019,7.8Zm-11.112,14.83a13.856,13.856,0,1,0,10.487,16.553A13.856,13.856,0,0,0,132.224,263.11Z" transform="translate(-89.766 -237.65)" fill="#839eb6" fill-rule="evenodd"/></g><g transform="translate(8.222 100.685)"><g transform="translate(23.191 22.814)"><path d="M160.227,375.861a9.437,9.437,0,0,1,2.963.927,12.472,12.472,0,0,1,5.905,5.978,12.623,12.623,0,0,1,1.206,5.772,12.832,12.832,0,0,1-1.986,6.473,12.841,12.841,0,0,1-5.669,4.872,12.786,12.786,0,0,1-14.864-3.333,12.841,12.841,0,0,1-3.047-6.827,12.832,12.832,0,0,1,.969-6.7,12.629,12.629,0,0,1,3.557-4.7,12.474,12.474,0,0,1,7.891-2.882,9.462,9.462,0,0,1,3.075.428c-.013.088-1.1-.219-3.067-.148a12.5,12.5,0,0,0-7.572,2.992,12.238,12.238,0,0,0-4.195,10.933,12.236,12.236,0,0,0,2.92,6.449,12.141,12.141,0,0,0,14.049,3.151,12.232,12.232,0,0,0,5.394-4.584,12.245,12.245,0,0,0,.878-11.676,12.491,12.491,0,0,0-5.569-5.94C161.311,376.131,160.2,375.946,160.227,375.861Z" transform="translate(-144.628 -375.433)" fill="#263238"/></g><path d="M167.6,359.806a2.575,2.575,0,0,1-.027-.439c-.008-.328-.018-.767-.031-1.336-.017-1.225-.041-2.991-.073-5.282l.09.111-11.414-2.491.2-.1-3,6.388-.054.115-.129.005a28.558,28.558,0,0,0-7.441,1.321l-.135.043-.1-.1-5.019-4.968.317.034-9.853,6.275.115-.333c.738,2.058,1.55,4.325,2.382,6.648l.061.169-.123.133a28.385,28.385,0,0,0-4.329,6.168l-.086.167h-.189l-7.059.025.312-.25c-.8,3.582-1.66,7.444-2.542,11.4l-.184-.376,6.378,3.023.187.088.008.207a28.487,28.487,0,0,0,1.3,7.413l.064.2-.149.15-4.981,5.007.048-.437,6.256,9.866-.421-.145,6.653-2.37.205-.073.16.148a28.3,28.3,0,0,0,6.143,4.328l0,0h0c.087.143-.192-.317.2.319v.882l0,.887,0,1.77q0,1.767.007,3.519l-.281-.35,11.4,2.56-.4.194,3.031-6.375.092-.194.213-.008a28.285,28.285,0,0,0,7.413-1.285l.2-.064.15.149q2.536,2.53,5,4.986l-.425-.047,9.874-6.242-.135.39q-1.2-3.387-2.36-6.655l-.065-.185.133-.143a28.31,28.31,0,0,0,4.348-6.151l.088-.168h.187l7.059,0-.291.234c.908-4.008,1.766-7.793,2.581-11.4l.151.309-6.369-3.044-.142-.068-.005-.155a28.53,28.53,0,0,0-1.275-7.443l-.043-.138.1-.1,5-4.987-.029.264-6.21-9.9.19.065-6.667,2.325-.067.023-.051-.048a29.7,29.7,0,0,0-4.534-3.492L168,360.054a2.885,2.885,0,0,1-.4-.248,3.736,3.736,0,0,1,.429.195c.279.143.7.36,1.246.683a27.691,27.691,0,0,1,4.63,3.424l-.117-.024,6.637-2.411.12-.044.07.109,6.3,9.842.091.143-.12.121-4.966,5.02.058-.238a28.92,28.92,0,0,1,1.34,7.565l-.148-.223,6.385,3.013.2.093-.048.216c-.8,3.605-1.643,7.393-2.536,11.4l-.051.233h-.24l-7.058.028.275-.168a28.933,28.933,0,0,1-4.427,6.3l.067-.326q1.167,3.266,2.376,6.65l.089.248-.223.142-9.862,6.262-.231.147-.194-.194-5.008-4.978.35.085a28.964,28.964,0,0,1-7.6,1.327l.3-.2q-1.5,3.158-3.024,6.378l-.122.257-.278-.063-11.4-2.554-.281-.063v-.287q0-1.752-.007-3.519l0-1.77,0-.887v-.882c.387.636.107.176.193.317h0l0,0a28.973,28.973,0,0,1-6.3-4.439l.364.075-6.654,2.367-.269.1-.153-.241c-2.149-3.4-4.269-6.747-6.248-9.872l-.151-.238.2-.2,4.986-5-.084.35a29.1,29.1,0,0,1-1.317-7.595l.195.3L119,383.741l-.242-.116.059-.26c.892-3.957,1.762-7.818,2.57-11.4l.056-.25h.256l7.058,0-.274.167a28.952,28.952,0,0,1,4.445-6.286l-.062.3c-.823-2.327-1.627-4.6-2.356-6.657l-.076-.214.192-.12,9.882-6.23.174-.11.144.144c1.751,1.754,3.435,3.44,4.991,5l-.238-.057a28.878,28.878,0,0,1,7.567-1.292l-.182.12,3.053-6.364.064-.133.142.033,11.384,2.623.091.021v.091c-.021,2.271-.037,4.022-.048,5.236-.01.577-.019,1.023-.024,1.354A3.519,3.519,0,0,1,167.6,359.806Z" transform="translate(-118.755 -349.98)" fill="#263238"/></g></g><g transform="translate(0 109.224)"><g transform="translate(6.817)"><g transform="translate(0 17.466)"><rect width="21.274" height="58.204" fill="#6595bf"/><rect width="13.386" height="25.278" transform="translate(3.944 3.825)" fill="#aed3f2"/><path d="M-1370.229,2799.45a5.258,5.258,0,0,1-5.259,5.259,5.258,5.258,0,0,1-5.259-5.259,5.258,5.258,0,0,1,5.259-5.259A5.258,5.258,0,0,1-1370.229,2799.45Z" transform="translate(1386.125 -2753.556)" fill="#aed3f2"/><rect width="8.366" height="2.151" transform="translate(6.454 8.486)" fill="#6595bf"/><rect width="8.366" height="2.151" transform="translate(6.454 13.027)" fill="#6595bf"/></g><g transform="translate(23.058 7.822)"><rect width="21.274" height="67.858" fill="#6595bf"/><rect width="13.386" height="25.278" transform="translate(3.944 3.825)" fill="#aed3f2"/><path d="M-1331.295,2799.467a5.259,5.259,0,0,1-5.259,5.259,5.259,5.259,0,0,1-5.259-5.259,5.259,5.259,0,0,1,5.259-5.259A5.258,5.258,0,0,1-1331.295,2799.467Z" transform="translate(1347.19 -2743.919)" fill="#aed3f2"/><rect width="8.366" height="2.151" transform="translate(6.454 8.486)" fill="#6595bf"/><rect width="8.366" height="2.151" transform="translate(6.454 13.027)" fill="#6595bf"/></g><g transform="translate(46.116)"><rect width="21.274" height="75.68" fill="#6595bf"/><rect width="13.386" height="25.278" transform="translate(3.944 3.825)" fill="#aed3f2"/><path d="M-1292.359,2799.467a5.259,5.259,0,0,1-5.258,5.259,5.259,5.259,0,0,1-5.259-5.259,5.259,5.259,0,0,1,5.259-5.259A5.258,5.258,0,0,1-1292.359,2799.467Z" transform="translate(1308.255 -2736.097)" fill="#aed3f2"/><rect width="8.366" height="2.151" transform="translate(6.454 8.486)" fill="#6595bf"/><rect width="8.366" height="2.151" transform="translate(6.454 13.027)" fill="#6595bf"/></g></g><path d="M-1401.339,2795.83l39.65-25.427,8.907,8.943,24.817-17.461-6.249-3.263h13.9l-3.448,12.777-2.047-7.36-28.013,19.9-8.62-8.8-37.172,23.811Z" transform="translate(1401.339 -2721.586)" fill="#d9a171"/></g></g></g></svg>