<svg xmlns="http://www.w3.org/2000/svg" width="74.195" height="67.141" viewBox="0 0 74.195 67.141"><g transform="translate(-746.375 -5567.325)"><g transform="translate(2711.173 5735.255)"><path d="M-1892.7-125.52a2.976,2.976,0,0,1,.073.468c.005,8.339-.006,16.678.018,25.017a6.561,6.561,0,0,1-1.718,4.82,5.946,5.946,0,0,1-4.457,1.915q-7.915,0-15.829,0h-.641c.338.6.624,1.125.921,1.64q1.976,3.419,3.957,6.836,1.489,2.575,2.974,5.152c.241.418.5.827.715,1.258a1.5,1.5,0,0,1-.874,2.124,1.523,1.523,0,0,1-1.632-.677q-2.016-3.529-4.044-7.051-2.153-3.763-4.3-7.532c-.269-.471-.561-.931-.812-1.411a.565.565,0,0,0-.559-.362c-.586.009-1.172,0-1.824,0v.591q0,8.8,0,17.6a1.486,1.486,0,0,1-.82,1.494,1.432,1.432,0,0,1-2.067-1.181c-.022-.287-.009-.576-.009-.864q0-8.483,0-16.966v-.656c-.679,0-1.322-.011-1.965.012-.1,0-.215.147-.277.253q-2.391,4.123-4.772,8.251c-1.07,1.845-2.157,3.68-3.229,5.524-.432.744-.848,1.5-1.271,2.246a1.473,1.473,0,0,1-1.432.772c-.645-.128-1.352-.806-1.278-1.4a3.886,3.886,0,0,1,.562-1.36q3.176-5.58,6.381-11.144c.5-.879,1.019-1.753,1.527-2.63.081-.139.148-.286.271-.526h-.6c-5.246,0-10.492-.007-15.738.005a6.037,6.037,0,0,1-4.65-2,6.075,6.075,0,0,1-1.629-4.262q0-12.964,0-25.927,0-4.545,0-9.089c0-.105-.011-.21-.02-.371-.164-.01-.323-.025-.483-.028a1.439,1.439,0,0,1-1.51-1.419,1.423,1.423,0,0,1,1.448-1.483c1.561-.02,3.123,0,4.685,0h2.9q6.573,0,13.146,0a4.333,4.333,0,0,1,.575.076l2.718,2.723a3.534,3.534,0,0,1-.6.1q-9.667.009-19.333.006c-.62,0-.62,0-.62.616q0,6.114,0,12.228c0,7.488.016,14.975-.01,22.463a3.41,3.41,0,0,0,3.442,3.475c8.016-.049,16.033-.023,24.05-.022q10.917,0,21.835.005c.318,0,.637,0,.955-.008a3.135,3.135,0,0,0,2.948-2.778c.084-1.282.065-2.571.066-3.858q.009-9.712.009-19.424a2.7,2.7,0,0,1,.1-.522Z" transform="translate(0 -27.313)" fill="#12263f"/><path d="M-1665.384-152.833l-2.721,2.727a2.489,2.489,0,0,1-.1-.5q-.009-5.594,0-11.188c0-.322-.044-.5-.438-.5q-10.073.006-20.146-.01c-3.9,0-7.791.013-11.687.014a2.3,2.3,0,0,1-.477-.1l-2.718-2.723a2.976,2.976,0,0,1,.469-.075q3.183-.008,6.367,0h.533c0-.447,0-.838,0-1.228a1.422,1.422,0,0,1,1.458-1.511,1.423,1.423,0,0,1,1.43,1.5c.006.392,0,.784,0,1.243h.6q11.455,0,22.91,0a4.943,4.943,0,0,1,.622.077l3.895,3.9a2.619,2.619,0,0,1,.076.44q.007,3.749,0,7.5A2.569,2.569,0,0,1-1665.384-152.833Z" transform="translate(-227.319 0)" fill="#12263f"/><path d="M-1321.749-133.906l-3.895-3.9a.819.819,0,0,1,.238-.079c1.435,0,2.871-.02,4.306.006a1.435,1.435,0,0,1,1.255,2.165,1.354,1.354,0,0,1-1.13.724c-.207.018-.418,0-.64,0C-1321.663-134.6-1321.706-134.251-1321.749-133.906Z" transform="translate(-570.953 -27.302)" fill="#12263f"/><path d="M-1690.248,43.983c-3.988,0-7.976-.019-11.964.013a1.463,1.463,0,0,1-1.344-2.115,1.355,1.355,0,0,1,1.24-.784c4.927,0,9.854.007,14.781.006q4.591,0,9.183-.024a1.568,1.568,0,0,1,1.189.459,1.361,1.361,0,0,1,.318,1.546,1.4,1.4,0,0,1-1.349.9q-3.571,0-7.142,0Z" transform="translate(-227.275 -189.992)" fill="#12263f"/><path d="M-1690.169,213.883q5.955,0,11.909,0a1.4,1.4,0,0,1,1.5.946,1.486,1.486,0,0,1-1.311,1.954c-.12.008-.242,0-.364,0H-1700.8c-.454,0-.908.008-1.361,0a1.478,1.478,0,0,1-1.5-1.447,1.41,1.41,0,0,1,1.49-1.453Q-1696.17,213.875-1690.169,213.883Z" transform="translate(-227.331 -347.074)" fill="#12263f"/><path d="M-1690.242,130.866q-6,0-12.008,0a1.52,1.52,0,0,1-1.476-1.178,1.446,1.446,0,0,1,.969-1.648,1.889,1.889,0,0,1,.58-.074q9.916-.005,19.832,0c1.333,0,2.666.053,4,.022a1.47,1.47,0,0,1,1.373,2.136,1.368,1.368,0,0,1-1.307.739c-2.349.008-4.7,0-7.047,0Z" transform="translate(-227.25 -268.971)" fill="#12263f"/><path d="M-1664.31-86.149H-1683.3l-.364,0c-.623-.009-.965-.265-.954-.714s.371-.719.982-.718c3.489,0,6.979.021,10.468.02q9.774,0,19.547-.021c.827,0,1.059.247,1.055,1.088-.013,2.486,0,4.972-.022,7.458a1.145,1.145,0,0,1-.235.732.752.752,0,0,1-.677.148c-.2-.086-.335-.371-.461-.591-.053-.092-.011-.238-.011-.359,0-2.168-.014-4.335.01-6.5,0-.452-.139-.551-.568-.548C-1657.792-86.142-1661.051-86.15-1664.31-86.149Z" transform="translate(-244.638 -73.036)" fill="#12263f"/><path d="M-1803.291,4.645c.515-.781,1-1.512,1.477-2.242.167-.253.325-.513.508-.753a1.387,1.387,0,0,1,1.926-.377,1.4,1.4,0,0,1,.455,1.984c-.626,1-1.291,1.979-1.938,2.967-.34.519-.682,1.037-1.019,1.559-.825,1.277-1.986,1.279-2.806.008-.435-.674-.889-1.337-1.326-2.01a1.424,1.424,0,0,1,.387-2.062,1.451,1.451,0,0,1,2.026.468C-1803.508,4.32-1803.418,4.456-1803.291,4.645Z" transform="translate(-134.037 -153.59)" fill="#12263f"/><path d="M-1803.3,177.445c.568-.868,1.118-1.7,1.66-2.537.344-.531.694-1.033,1.43-1.034a1.367,1.367,0,0,1,1.267.65,1.349,1.349,0,0,1,.027,1.5c-.614.972-1.253,1.928-1.883,2.889-.423.645-.844,1.29-1.274,1.931a1.435,1.435,0,0,1-1.077.672,1.406,1.406,0,0,1-1.363-.645q-.774-1.119-1.512-2.262a1.449,1.449,0,0,1,.313-2.051,1.486,1.486,0,0,1,2.1.449Z" transform="translate(-134.015 -310.706)" fill="#12263f"/><path d="M-1803.218,91.461c.719-1.1,1.391-2.131,2.067-3.158a1.556,1.556,0,0,1,1.486-.451,1.393,1.393,0,0,1,1.012,1.264,2.074,2.074,0,0,1-.276,1.022c-.945,1.5-1.927,2.968-2.905,4.442-.526.793-1.11,1.062-1.816.814a1.474,1.474,0,0,1-.66-.443c-.364-.475-.668-1-1-1.5-.229-.352-.469-.7-.682-1.06a1.336,1.336,0,0,1,.366-1.869,1.4,1.4,0,0,1,1.943.3C-1803.528,91-1803.4,91.207-1803.218,91.461Z" transform="translate(-134.105 -232.474)" fill="#12263f"/></g><g transform="translate(340.692 -4687)"><g transform="translate(417.057 10273.577) rotate(20)"><path d="M33.047,14.014A16.626,16.626,0,1,1,14.015.209,16.626,16.626,0,0,1,33.047,14.014Z" fill="#d9a171"/><g transform="translate(0 0.209)" opacity="0.1"><path d="M14.015,0A16.623,16.623,0,0,0,.209,19.032s11.619-1.321,13.656-6.408S14.015,0,14.015,0Z" fill="#fff"/></g><g transform="translate(3.686 3.768)"><path d="M25.122,10.654A12.639,12.639,0,1,1,10.654.159,12.638,12.638,0,0,1,25.122,10.654Z" fill="#636363"/></g><g transform="translate(4.458 4.375)"><path d="M24.786,10.511A12.47,12.47,0,1,1,10.512.157,12.469,12.469,0,0,1,24.786,10.511Z" fill="#8e8e8e"/></g><g transform="translate(11.488 8.78)"><g transform="translate(0.598 0)"><path d="M5.164,6.922l-.5-3.151.016,0a6.552,6.552,0,0,1,1.744.17,5.293,5.293,0,0,1,.862.37l.028-.1.305-1.211.069-.279-.656-.5-.25.165a6,6,0,0,0-2.387-.3L4.118.349,3.509,0l.069.434-.74.118L3.12,2.317C.722,2.939-.213,4.512.04,6.1.386,8.273,2.334,8.54,4.132,8.685l.5,3.122a6.047,6.047,0,0,1-3.311-.69L.867,12.806a6.92,6.92,0,0,0,4.031.686L5.106,14.8l-.607.108.675.316,1.279-.2-.278-1.749c2.411-.64,3.362-2.2,3.109-3.792C8.94,7.312,6.963,7.067,5.164,6.922ZM3.832,6.8c-.948-.121-1.673-.359-1.793-1.108C1.93,5,2.309,4.367,3.39,4.018Zm.83-3.03Zm1.242,7.8L5.465,8.809c.979.116,1.723.367,1.844,1.131C7.416,10.612,7.017,11.219,5.9,11.573Z" fill="#d9a171"/></g><g transform="translate(0.598 0)" opacity="0.3"><path d="M5.164,6.922l-.5-3.151.016,0a6.552,6.552,0,0,1,1.744.17,5.293,5.293,0,0,1,.862.37l.028-.1.305-1.211.069-.279-.656-.5-.25.165a6,6,0,0,0-2.387-.3L4.118.349,3.509,0l.069.434-.74.118L3.12,2.317C.722,2.939-.213,4.512.04,6.1.386,8.273,2.334,8.54,4.132,8.685l.5,3.122a6.047,6.047,0,0,1-3.311-.69L.867,12.806a6.92,6.92,0,0,0,4.031.686L5.106,14.8l-.607.108.675.316,1.279-.2-.278-1.749c2.411-.64,3.362-2.2,3.109-3.792C8.94,7.312,6.963,7.067,5.164,6.922ZM3.832,6.8c-.948-.121-1.673-.359-1.793-1.108C1.93,5,2.309,4.367,3.39,4.018Zm.83-3.03Zm1.242,7.8L5.465,8.809c.979.116,1.723.367,1.844,1.131C7.416,10.612,7.017,11.219,5.9,11.573Z" fill="#d9a171"/></g><g transform="translate(0 0.003)"><path d="M6.176,12.928l.278,1.747-1.279.205L4.9,13.147a6.928,6.928,0,0,1-4.031-.688l.45-1.688a6.07,6.07,0,0,0,3.312.688l-.5-3.122C2.332,8.193.386,7.926.04,5.756-.213,4.163.72,2.59,3.118,1.969L2.837.205,4.118,0l.276,1.733a6.764,6.764,0,0,1,3.32.449L7.325,3.86a6.556,6.556,0,0,0-2.663-.441l.5,3.154c1.8.145,3.776.393,4.121,2.561C9.539,10.726,8.587,12.286,6.176,12.928ZM3.832,6.448,3.39,3.671c-1.08.347-1.46.983-1.35,1.671C2.159,6.092,2.885,6.327,3.832,6.448ZM7.309,9.593c-.121-.764-.866-1.014-1.844-1.13L5.9,11.225C7.017,10.872,7.418,10.265,7.309,9.593Z" fill="#d9a171"/></g></g><g transform="translate(11.83 12.629)"><path d="M.973,3.046a1.062,1.062,0,0,1-.42-.3A2,2,0,0,1,.014,1.619,1.987,1.987,0,0,1,.266.4,1.049,1.049,0,0,1,.6,0C.616.015.48.159.343.437A2.09,2.09,0,0,0,.136,1.6,2.114,2.114,0,0,0,.618,2.685C.819,2.92.986,3.029.973,3.046Z" fill="#fff"/></g><g transform="translate(14.646 9.424)"><path d="M.183,1.027a1.15,1.15,0,0,1-.142-.5A1.146,1.146,0,0,1,.02,0,1.15,1.15,0,0,1,.164.5,1.134,1.134,0,0,1,.183,1.027Z" fill="#fff"/></g></g><g transform="translate(432.958 10294.889)"><path d="M385.184,2555a.782.782,0,0,1-.782-.781V2544.5a.782.782,0,0,1,.782-.781h1.883l-4.152-4.9-4.154,4.9h1.883a.782.782,0,0,1,.781.781v9.719a.781.781,0,1,1-1.563,0v-8.937h-2.789a.781.781,0,0,1-.6-1.286l5.841-6.892a.78.78,0,0,1,.6-.277h0a.78.78,0,0,1,.6.277L389.35,2544a.782.782,0,0,1-.6,1.286h-2.788v8.937A.782.782,0,0,1,385.184,2555Z" transform="translate(-376.293 -2536.828)" fill="#344154"/></g></g></g></svg>