<svg xmlns="http://www.w3.org/2000/svg" width="344.748" height="203.001" viewBox="0 0 344.748 203.001">
  <g id="Grupo_66528" data-name="Grupo 66528" transform="translate(-1535.421 -7197.59)">
    <g id="Grupo_66162" data-name="Grupo 66162" transform="translate(1535.421 7254.678)">
      <g id="Grupo_66161" data-name="Grupo 66161">
        <g id="Grupo_66155" data-name="Grupo 66155">
          <g id="Grupo_66130" data-name="Grupo 66130">
            <path id="Trazado_105925" data-name="Trazado 105925" d="M1590.631,7316.931,1591.9,7459.5h-56.475V7318.875Z" transform="translate(-1535.421 -7316.931)" fill="#cee5f7"/>
          </g>
          <g id="Grupo_66131" data-name="Grupo 66131" transform="translate(0 1.071)">
            <path id="Trazado_105926" data-name="Trazado 105926" d="M1560.207,7318.689l.5,141.5h-25.286V7319.562Z" transform="translate(-1535.421 -7318.689)" fill="#aed3f2"/>
          </g>
          <g id="Grupo_66136" data-name="Grupo 66136" transform="translate(26.685 1.759)">
            <g id="Grupo_66132" data-name="Grupo 66132">
              <path id="Trazado_105927" data-name="Trazado 105927" d="M1605.963,7319.817V7339.8h-26.751v-19.041Z" transform="translate(-1579.212 -7319.817)" fill="#839eb6"/>
            </g>
            <g id="Grupo_66135" data-name="Grupo 66135" transform="translate(9.076 5.229)">
              <g id="Grupo_66133" data-name="Grupo 66133" transform="translate(0.268)">
                <path id="Trazado_105928" data-name="Trazado 105928" d="M1602.732,7328.667v2.952h-8.184v-3.22Z" transform="translate(-1594.548 -7328.399)" fill="#f5f5f5"/>
              </g>
              <g id="Grupo_66134" data-name="Grupo 66134" transform="translate(0 5.702)">
                <rect id="Rectángulo_6042" data-name="Rectángulo 6042" width="8.453" height="1.207" fill="#f5f5f5"/>
              </g>
            </g>
          </g>
          <g id="Grupo_66141" data-name="Grupo 66141" transform="translate(26.685 71.789)">
            <g id="Grupo_66137" data-name="Grupo 66137">
              <path id="Trazado_105929" data-name="Trazado 105929" d="M1605.963,7434.743v19.984h-26.751v-19.04Z" transform="translate(-1579.212 -7434.743)" fill="#839eb6"/>
            </g>
            <g id="Grupo_66140" data-name="Grupo 66140" transform="translate(9.076 5.23)">
              <g id="Grupo_66138" data-name="Grupo 66138" transform="translate(0.268)">
                <path id="Trazado_105930" data-name="Trazado 105930" d="M1602.732,7443.593v2.953h-8.184v-3.22Z" transform="translate(-1594.548 -7443.326)" fill="#f5f5f5"/>
              </g>
              <g id="Grupo_66139" data-name="Grupo 66139" transform="translate(0 5.702)">
                <rect id="Rectángulo_6043" data-name="Rectángulo 6043" width="8.453" height="1.207" fill="#f5f5f5"/>
              </g>
            </g>
          </g>
          <g id="Grupo_66146" data-name="Grupo 66146" transform="translate(26.685 24.287)">
            <g id="Grupo_66142" data-name="Grupo 66142">
              <path id="Trazado_105931" data-name="Trazado 105931" d="M1605.963,7356.788v19.984h-26.751v-19.04Z" transform="translate(-1579.212 -7356.788)" fill="#839eb6"/>
            </g>
            <g id="Grupo_66145" data-name="Grupo 66145" transform="translate(9.076 5.23)">
              <g id="Grupo_66143" data-name="Grupo 66143" transform="translate(0.268)">
                <path id="Trazado_105932" data-name="Trazado 105932" d="M1602.732,7365.638v2.953h-8.184v-3.22Z" transform="translate(-1594.548 -7365.371)" fill="#f5f5f5"/>
              </g>
              <g id="Grupo_66144" data-name="Grupo 66144" transform="translate(0 5.702)">
                <rect id="Rectángulo_6044" data-name="Rectángulo 6044" width="8.453" height="1.207" fill="#f5f5f5"/>
              </g>
            </g>
          </g>
          <g id="Grupo_66150" data-name="Grupo 66150" transform="translate(26.685 94.314)">
            <g id="Grupo_66147" data-name="Grupo 66147">
              <path id="Trazado_105933" data-name="Trazado 105933" d="M1605.963,7471.707v19.984h-26.751v-19.04Z" transform="translate(-1579.212 -7471.707)" fill="#839eb6"/>
            </g>
            <g id="Grupo_66148" data-name="Grupo 66148" transform="translate(9.345 5.229)">
              <path id="Trazado_105934" data-name="Trazado 105934" d="M1602.732,7480.558v2.951h-8.184v-3.22Z" transform="translate(-1594.548 -7480.289)" fill="#f5f5f5"/>
            </g>
            <g id="Grupo_66149" data-name="Grupo 66149" transform="translate(9.076 10.931)">
              <rect id="Rectángulo_6045" data-name="Rectángulo 6045" width="8.453" height="1.207" fill="#f5f5f5"/>
            </g>
          </g>
          <g id="Grupo_66154" data-name="Grupo 66154" transform="translate(26.973 116.838)">
            <g id="Grupo_66151" data-name="Grupo 66151">
              <path id="Trazado_105935" data-name="Trazado 105935" d="M1606.436,7508.671v19.985h-26.751v-19.041Z" transform="translate(-1579.685 -7508.671)" fill="#839eb6"/>
            </g>
            <g id="Grupo_66152" data-name="Grupo 66152" transform="translate(9.344 5.229)">
              <path id="Trazado_105936" data-name="Trazado 105936" d="M1603.2,7517.521v2.951h-8.185v-3.22Z" transform="translate(-1595.02 -7517.252)" fill="#f5f5f5"/>
            </g>
            <g id="Grupo_66153" data-name="Grupo 66153" transform="translate(9.076 10.931)">
              <rect id="Rectángulo_6046" data-name="Rectángulo 6046" width="8.453" height="1.207" fill="#f5f5f5"/>
            </g>
          </g>
        </g>
        <g id="Grupo_66160" data-name="Grupo 66160" transform="translate(27.033 48.216)">
          <g id="Grupo_66159" data-name="Grupo 66159">
            <g id="Grupo_66156" data-name="Grupo 66156">
              <rect id="Rectángulo_6047" data-name="Rectángulo 6047" width="26.751" height="19.985" fill="#839eb6"/>
            </g>
            <g id="Grupo_66157" data-name="Grupo 66157" transform="translate(9.655 8.755)">
              <path id="Trazado_105937" data-name="Trazado 105937" d="M1603.323,7410.676v2.775h-7.693v-3.026Z" transform="translate(-1595.629 -7410.425)" fill="#f5f5f5"/>
            </g>
            <g id="Grupo_66158" data-name="Grupo 66158" transform="translate(9.403 14.115)">
              <rect id="Rectángulo_6048" data-name="Rectángulo 6048" width="7.946" height="1.135" fill="#f5f5f5"/>
            </g>
          </g>
        </g>
      </g>
    </g>
    <g id="Grupo_66169" data-name="Grupo 66169" transform="translate(1753.263 7374.986)">
      <g id="Grupo_66168" data-name="Grupo 66168">
        <g id="Grupo_66163" data-name="Grupo 66163" transform="translate(2.248 4.87)">
          <path id="Trazado_105938" data-name="Trazado 105938" d="M1896.607,7522.359v17.42h53.572v-17.42Z" transform="translate(-1896.607 -7522.359)" fill="#f5f5f5"/>
        </g>
        <g id="Grupo_66164" data-name="Grupo 66164">
          <path id="Trazado_105939" data-name="Trazado 105939" d="M1892.918,7514.366v4.87h57.692v-4.87h-57.692Z" transform="translate(-1892.918 -7514.366)" fill="#839eb6"/>
        </g>
        <g id="Grupo_66165" data-name="Grupo 66165" transform="translate(27.722)">
          <path id="Trazado_105940" data-name="Trazado 105940" d="M1939.536,7536.656h26.973v-17.42h1.873v-4.87h-29.97v4.419Z" transform="translate(-1938.412 -7514.366)" fill="#839eb6"/>
        </g>
        <g id="Grupo_66166" data-name="Grupo 66166" transform="translate(9.74 7.679)">
          <rect id="Rectángulo_6049" data-name="Rectángulo 6049" width="10.864" height="2.622" fill="#839eb6"/>
        </g>
        <g id="Grupo_66167" data-name="Grupo 66167" transform="translate(8.342 13.58)">
          <rect id="Rectángulo_6050" data-name="Rectángulo 6050" width="13.95" height="5.537" fill="#fff"/>
        </g>
      </g>
    </g>
    <g id="Grupo_66176" data-name="Grupo 66176" transform="translate(1822.476 7352.695)">
      <g id="Grupo_66175" data-name="Grupo 66175">
        <g id="Grupo_66170" data-name="Grupo 66170" transform="translate(2.248 4.87)">
          <path id="Trazado_105941" data-name="Trazado 105941" d="M2010.191,7485.778v17.42h53.572v-17.42Z" transform="translate(-2010.191 -7485.778)" fill="#f5f5f5"/>
        </g>
        <g id="Grupo_66171" data-name="Grupo 66171">
          <path id="Trazado_105942" data-name="Trazado 105942" d="M2006.5,7477.786v4.87H2064.2v-4.87H2006.5Z" transform="translate(-2006.503 -7477.786)" fill="#839eb6"/>
        </g>
        <g id="Grupo_66172" data-name="Grupo 66172" transform="translate(27.722)">
          <path id="Trazado_105943" data-name="Trazado 105943" d="M2053.121,7500.076h26.973v-17.419h1.873v-4.87H2052v4.419Z" transform="translate(-2051.997 -7477.786)" fill="#839eb6"/>
        </g>
        <g id="Grupo_66173" data-name="Grupo 66173" transform="translate(9.74 7.679)">
          <rect id="Rectángulo_6051" data-name="Rectángulo 6051" width="10.864" height="2.622" fill="#839eb6"/>
        </g>
        <g id="Grupo_66174" data-name="Grupo 66174" transform="translate(8.342 13.58)">
          <rect id="Rectángulo_6052" data-name="Rectángulo 6052" width="13.95" height="5.537" fill="#fff"/>
        </g>
      </g>
    </g>
    <g id="Grupo_66183" data-name="Grupo 66183" transform="translate(1819.911 7374.986)">
      <g id="Grupo_66182" data-name="Grupo 66182">
        <g id="Grupo_66177" data-name="Grupo 66177" transform="translate(2.248 4.87)">
          <path id="Trazado_105944" data-name="Trazado 105944" d="M2005.982,7522.359v17.42h53.572v-17.42Z" transform="translate(-2005.982 -7522.359)" fill="#f5f5f5"/>
        </g>
        <g id="Grupo_66178" data-name="Grupo 66178">
          <path id="Trazado_105945" data-name="Trazado 105945" d="M2002.293,7514.366v4.87h57.693v-4.87h-57.693Z" transform="translate(-2002.293 -7514.366)" fill="#839eb6"/>
        </g>
        <g id="Grupo_66179" data-name="Grupo 66179" transform="translate(27.722)">
          <path id="Trazado_105946" data-name="Trazado 105946" d="M2048.911,7536.656h26.973v-17.42h1.874v-4.87h-29.971v4.419Z" transform="translate(-2047.787 -7514.366)" fill="#839eb6"/>
        </g>
        <g id="Grupo_66180" data-name="Grupo 66180" transform="translate(9.74 7.679)">
          <rect id="Rectángulo_6053" data-name="Rectángulo 6053" width="10.864" height="2.622" fill="#839eb6"/>
        </g>
        <g id="Grupo_66181" data-name="Grupo 66181" transform="translate(8.342 13.58)">
          <rect id="Rectángulo_6054" data-name="Rectángulo 6054" width="13.95" height="5.537" fill="#fff"/>
        </g>
      </g>
    </g>
    <g id="Grupo_66209" data-name="Grupo 66209" transform="translate(1644.409 7199.833)">
      <g id="Grupo_66184" data-name="Grupo 66184" transform="translate(2.713 28.356)">
        <path id="Trazado_105947" data-name="Trazado 105947" d="M1718.741,7278.706l4.3,73.36a4.954,4.954,0,0,0,4.931,4.664l132.043.4a4.955,4.955,0,0,0,4.969-4.939l.174-57.119a4.955,4.955,0,0,0-4.971-4.969l-81.207.276a4.956,4.956,0,0,1-3.5-1.436L1761.408,7275a4.955,4.955,0,0,0-3.472-1.436l-34.234-.1A4.954,4.954,0,0,0,1718.741,7278.706Z" transform="translate(-1718.733 -7273.461)" fill="#d9a171"/>
        <path id="Trazado_105948" data-name="Trazado 105948" d="M1718.741,7278.706l4.3,73.36a4.954,4.954,0,0,0,4.931,4.664l132.043.4a4.955,4.955,0,0,0,4.969-4.939l.174-57.119a4.955,4.955,0,0,0-4.971-4.969l-81.207.276a4.956,4.956,0,0,1-3.5-1.436L1761.408,7275a4.955,4.955,0,0,0-3.472-1.436l-34.234-.1A4.954,4.954,0,0,0,1718.741,7278.706Z" transform="translate(-1718.733 -7273.461)" opacity="0.3"/>
      </g>
      <g id="Grupo_66190" data-name="Grupo 66190" transform="translate(4.023 0.774)">
        <g id="Grupo_66187" data-name="Grupo 66187">
          <g id="Grupo_66186" data-name="Grupo 66186">
            <rect id="Rectángulo_6055" data-name="Rectángulo 6055" width="71.657" height="57.287" transform="matrix(0.606, -0.795, 0.795, 0.606, 0.199, 57.003)" fill="#fff"/>
            <g id="Grupo_66185" data-name="Grupo 66185">
              <path id="Trazado_105949" data-name="Trazado 105949" d="M1764.5,7228.2s-.068.1-.2.279l-.6.8c-.535.711-1.321,1.751-2.343,3.1l-8.856,11.688-31.306,41.213-.027-.2,45.577,34.7,0,0-.222.031,43.443-56.986.025.186c-13.711-10.48-25.076-19.169-33.02-25.24l-9.213-7.061-2.425-1.866c-.548-.424-.833-.653-.833-.653s.281.2.828.613l2.423,1.826,9.23,6.989,33.17,25.181.1.081-.08.105-43.4,57.017-.1.126-.127-.095,0,0L1721,7285.311l-.114-.086.086-.113,31.474-41.2c3.821-4.989,6.834-8.926,8.9-11.619,1.026-1.334,1.815-2.36,2.353-3.061l.6-.78C1764.432,7228.278,1764.5,7228.2,1764.5,7228.2Z" transform="translate(-1720.882 -7228.195)" fill="#344154"/>
            </g>
          </g>
        </g>
        <rect id="Rectángulo_6056" data-name="Rectángulo 6056" width="66.622" height="50.075" transform="matrix(0.606, -0.795, 0.795, 0.606, 4.565, 57.223)" fill="#344154"/>
        <path id="Trazado_105950" data-name="Trazado 105950" d="M1786.91,7338.952l-10.66-37.372,24.226.334-2.357-14.086,29.162-1.874Z" transform="translate(-1742.511 -7250.759)" fill="#6595bf"/>
        <g id="Grupo_66189" data-name="Grupo 66189" transform="translate(34.063 29.816)">
          <g id="Grupo_66188" data-name="Grupo 66188" transform="translate(0 0)">
            <circle id="Elipse_4067" data-name="Elipse 4067" cx="5.246" cy="5.246" r="5.246" transform="translate(0 1.418) rotate(-7.768)" fill="#6595bf"/>
          </g>
        </g>
      </g>
      <g id="Grupo_66196" data-name="Grupo 66196" transform="translate(53.828)">
        <g id="Grupo_66193" data-name="Grupo 66193">
          <g id="Grupo_66192" data-name="Grupo 66192">
            <rect id="Rectángulo_6057" data-name="Rectángulo 6057" width="79.736" height="99.735" transform="matrix(0.041, -0.999, 0.999, 0.041, 0.165, 79.816)" fill="#fff"/>
            <g id="Grupo_66191" data-name="Grupo 66191">
              <path id="Trazado_105951" data-name="Trazado 105951" d="M1905.709,7231.173s-.163,0-.477-.012l-1.393-.049-5.4-.206-20.39-.8-71.995-2.891.148-.136c-.971,23.71-2.083,50.895-3.261,79.66v.008l-.152-.165,99.65,4.127-.137.126c1.016-24.008,1.858-43.909,2.446-57.812.3-6.957.537-12.412.7-16.135.083-1.859.147-3.283.19-4.25s.074-1.465.074-1.465-.01.484-.045,1.438-.089,2.377-.158,4.226c-.145,3.716-.358,9.163-.629,16.108-.556,13.925-1.353,33.855-2.314,57.9l0,.131-.132,0-99.652-4.073-.158-.006.006-.159v-.008c1.189-28.765,2.313-55.949,3.294-79.659l.006-.143.142.007,72.081,3.036,20.354.875,5.374.237,1.376.065C1905.557,7231.161,1905.709,7231.173,1905.709,7231.173Z" transform="translate(-1802.616 -7226.925)" fill="#344154"/>
            </g>
          </g>
        </g>
        <rect id="Rectángulo_6058" data-name="Rectángulo 6058" width="69.697" height="92.728" transform="translate(3.807 74.942) rotate(-87.644)" fill="#6595bf"/>
        <path id="Trazado_105952" data-name="Trazado 105952" d="M1808.863,7323.015,1843,7281.061l18.931,27.906,14.192-13.918,25.386,31.778Z" transform="translate(-1805.056 -7248.073)" fill="#344154"/>
        <g id="Grupo_66195" data-name="Grupo 66195" transform="translate(50.704 19.837)">
          <g id="Grupo_66194" data-name="Grupo 66194" transform="translate(0 0)">
            <circle id="Elipse_4068" data-name="Elipse 4068" cx="7.301" cy="7.301" r="7.301" transform="translate(0 14.249) rotate(-77.36)" fill="#344154"/>
          </g>
        </g>
      </g>
      <g id="Grupo_66208" data-name="Grupo 66208" transform="translate(21.762 15.201)">
        <path id="Trazado_105953" data-name="Trazado 105953" d="M1893.18,7290.1,1758.2,7308.682l14.293,98.864,133.88-18.859Z" transform="translate(-1753.198 -7266.804)" fill="#ececec"/>
        <path id="Trazado_105954" data-name="Trazado 105954" d="M1895.029,7269.857l-133.422,27.655,20.935,97.673,132.3-27.854Z" transform="translate(-1754.53 -7258.897)" fill="#839eb6"/>
        <g id="Grupo_66207" data-name="Grupo 66207">
          <g id="Grupo_66198" data-name="Grupo 66198">
            <path id="Trazado_105955" data-name="Trazado 105955" d="M1878.83,7251.871,1750.3,7297.095l33.79,94,127.4-45.271Z" transform="translate(-1750.111 -7251.871)" fill="#fff"/>
            <g id="Grupo_66197" data-name="Grupo 66197" transform="translate(0 0)">
              <path id="Trazado_105956" data-name="Trazado 105956" d="M1878.712,7251.872l32.775,93.914.042.121-.121.043-127.387,45.3-.149.053-.054-.149-.246-.685-33.529-93.323-.049-.137.137-.048,128.582-45.087-128.486,45.359.088-.185,33.557,93.313.246.686-.2-.1,127.407-45.244-.079.165Z" transform="translate(-1749.993 -7251.872)" fill="#344154"/>
            </g>
          </g>
          <g id="Grupo_66199" data-name="Grupo 66199" transform="translate(105.642 18.223)">
            <path id="Trazado_105957" data-name="Trazado 105957" d="M1950.058,7353.716c-.247.092-6.421-15.939-13.79-35.8s-13.146-36.045-12.9-36.137,6.42,15.937,13.791,35.806S1950.3,7353.625,1950.058,7353.716Z" transform="translate(-1923.361 -7281.776)" fill="#344154"/>
          </g>
          <g id="Grupo_66200" data-name="Grupo 66200" transform="translate(94.665 23.24)">
            <path id="Trazado_105958" data-name="Trazado 105958" d="M1932.043,7361.95c-.247.092-6.421-15.939-13.79-35.8s-13.146-36.046-12.9-36.138,6.42,15.937,13.792,35.807S1932.289,7361.859,1932.043,7361.95Z" transform="translate(-1905.346 -7290.01)" fill="#344154"/>
          </g>
          <g id="Grupo_66201" data-name="Grupo 66201" transform="translate(60.583 37.515)">
            <path id="Trazado_105959" data-name="Trazado 105959" d="M1876.112,7385.378c-.247.091-6.421-15.941-13.79-35.8s-13.146-36.046-12.9-36.138,6.419,15.937,13.792,35.807S1876.358,7385.286,1876.112,7385.378Z" transform="translate(-1849.416 -7313.437)" fill="#344154"/>
          </g>
          <g id="Grupo_66202" data-name="Grupo 66202" transform="translate(71.446 33.141)">
            <path id="Trazado_105960" data-name="Trazado 105960" d="M1893.938,7378.2c-.246.092-6.421-15.94-13.79-35.8s-13.145-36.045-12.9-36.137,6.42,15.937,13.791,35.806S1894.185,7378.108,1893.938,7378.2Z" transform="translate(-1867.241 -7306.259)" fill="#344154"/>
          </g>
          <g id="Grupo_66203" data-name="Grupo 66203" transform="translate(82.308 28.767)">
            <path id="Trazado_105961" data-name="Trazado 105961" d="M1911.765,7371.021c-.247.091-6.421-15.94-13.791-35.8s-13.145-36.045-12.9-36.137,6.42,15.937,13.791,35.806S1912.011,7370.93,1911.765,7371.021Z" transform="translate(-1885.068 -7299.081)" fill="#344154"/>
          </g>
          <g id="Grupo_66204" data-name="Grupo 66204" transform="translate(48.001 41.136)">
            <path id="Trazado_105962" data-name="Trazado 105962" d="M1855.463,7391.319c-.246.091-6.421-15.94-13.79-35.8s-13.146-36.046-12.9-36.138,6.42,15.937,13.792,35.806S1855.71,7391.228,1855.463,7391.319Z" transform="translate(-1828.767 -7319.378)" fill="#344154"/>
          </g>
          <g id="Grupo_66205" data-name="Grupo 66205" transform="translate(35.967 45.549)">
            <path id="Trazado_105963" data-name="Trazado 105963" d="M1835.715,7398.561c-.246.091-6.421-15.94-13.79-35.8s-13.146-36.046-12.9-36.138,6.42,15.937,13.792,35.806S1835.962,7398.469,1835.715,7398.561Z" transform="translate(-1809.018 -7326.62)" fill="#344154"/>
          </g>
          <g id="Grupo_66206" data-name="Grupo 66206" transform="translate(23.934 49.961)">
            <path id="Trazado_105964" data-name="Trazado 105964" d="M1815.967,7405.8c-.246.091-6.421-15.94-13.79-35.8s-13.146-36.046-12.9-36.137,6.42,15.937,13.792,35.806S1816.214,7405.71,1815.967,7405.8Z" transform="translate(-1789.27 -7333.862)" fill="#344154"/>
          </g>
        </g>
      </g>
      <path id="Trazado_105965" data-name="Trazado 105965" d="M1714.3,7345.68l10.741,89.936a3.186,3.186,0,0,0,3.153,2.808l140.6.429a3.187,3.187,0,0,0,3.185-2.926l7.352-89.881a3.185,3.185,0,0,0-3.165-3.445l-158.7-.484A3.186,3.186,0,0,0,1714.3,7345.68Z" transform="translate(-1714.28 -7271.925)" fill="#d9a171"/>
    </g>
    <g id="Grupo_66356" data-name="Grupo 66356" transform="translate(1792.694 7207.074)">
      <path id="Trazado_105966" data-name="Trazado 105966" d="M1993.589,7306.807l-4.74,3.394,2.762,13.589,6.23-5.558Z" transform="translate(-1969.824 -7265.372)" fill="#d57b61"/>
      <g id="Grupo_66354" data-name="Grupo 66354" transform="translate(21.193)">
        <path id="Trazado_105967" data-name="Trazado 105967" d="M1998.4,7468.387l19.713-9.578,25.289,3.035a8.24,8.24,0,0,1,3.174,5.247,2.686,2.686,0,0,1-.287,1.991,2.525,2.525,0,0,1-2.674.656,23.336,23.336,0,0,0-2.8-.835c-1.881-.223-3.618.98-5.031,2.241s-2.821,2.7-4.668,3.122a7.153,7.153,0,0,1-4.811-.9c-1.477-.773-2.8-1.814-4.237-2.651a14.276,14.276,0,0,0-8.9-1.979c-2.454.32-4.755,1.4-7.2,1.783s-6.239-.044-7.565-2.134" transform="translate(-1994.746 -7324.751)" fill="#6595bf"/>
        <g id="Grupo_66317" data-name="Grupo 66317" transform="translate(6.595 75.765)">
          <g id="Grupo_66214" data-name="Grupo 66214" transform="translate(4.719)">
            <g id="Grupo_66210" data-name="Grupo 66210">
              <path id="Trazado_105968" data-name="Trazado 105968" d="M2050.308,7470.131s-16.149-55.054-16.454-56.815c-.276-1.59,2.241-40.16,3.367-50.169l-17.786.15-.007.167-8.454.208,3.788,109.5,10.936.844-.073-36.128c6.9,17.421,14.891,36.848,14.891,36.848Z" transform="translate(-2010.974 -7363.146)" fill="#ee9476"/>
            </g>
            <g id="Grupo_66212" data-name="Grupo 66212" transform="translate(7.128 47.646)">
              <g id="Grupo_66211" data-name="Grupo 66211">
                <path id="Trazado_105969" data-name="Trazado 105969" d="M2022.984,7441.338c.034,0-.033.429-.074,1.2a23.82,23.82,0,0,0,.049,3.262,29.967,29.967,0,0,0,.8,4.769,47.437,47.437,0,0,0,1.928,5.611c1.5,3.953,2.838,7.538,3.79,10.14.454,1.263.829,2.3,1.111,3.086a8,8,0,0,1,.363,1.149,7.8,7.8,0,0,1-.491-1.1l-1.216-3.048c-1.012-2.579-2.387-6.15-3.886-10.1l-1.087-2.889a26.53,26.53,0,0,1-.827-2.769,27.978,27.978,0,0,1-.731-4.829,19.8,19.8,0,0,1,.063-3.292,8.784,8.784,0,0,1,.133-.885A1.019,1.019,0,0,1,2022.984,7441.338Z" transform="translate(-2022.672 -7441.338)" fill="#d57b61"/>
              </g>
            </g>
            <g id="Grupo_66213" data-name="Grupo 66213" transform="translate(10.858 64.874)">
              <path id="Trazado_105970" data-name="Trazado 105970" d="M2032.613,7492.593c.019-.334.25-12.251.25-12.251s-3.964-11.061-4.067-10.725S2032.613,7492.593,2032.613,7492.593Z" transform="translate(-2028.794 -7469.609)" fill="#d57b61"/>
            </g>
          </g>
          <g id="Grupo_66265" data-name="Grupo 66265" transform="translate(0 108.731)">
            <g id="Grupo_66264" data-name="Grupo 66264">
              <g id="Grupo_66219" data-name="Grupo 66219" transform="translate(0.035)">
                <g id="Grupo_66216" data-name="Grupo 66216">
                  <g id="Grupo_66215" data-name="Grupo 66215">
                    <path id="Trazado_105971" data-name="Trazado 105971" d="M2011.139,7542.816l.03-1.232,11.6.233-.056,4.061-.717.033c-3.189.12-16.222.385-18.34-.3C2001.292,7544.849,2011.139,7542.816,2011.139,7542.816Z" transform="translate(-2003.287 -7541.584)" fill="#d9a171"/>
                  </g>
                </g>
                <g id="Grupo_66218" data-name="Grupo 66218" transform="translate(15.238 0.884)" opacity="0.3">
                  <g id="Grupo_66217" data-name="Grupo 66217">
                    <path id="Trazado_105972" data-name="Trazado 105972" d="M2028.295,7546.278a4,4,0,0,1,1.517-2.435,3.894,3.894,0,0,1,2.713-.791l-.055,3.227Z" transform="translate(-2028.295 -7543.035)" fill="#fff"/>
                  </g>
                </g>
              </g>
              <g id="Grupo_66221" data-name="Grupo 66221" transform="translate(0 2.396)">
                <g id="Grupo_66220" data-name="Grupo 66220">
                  <path id="Trazado_105973" data-name="Trazado 105973" d="M2006.3,7545.516s-3.456.93-3.037,1.5,13.6.8,19.422.393l-.013-.258-15.377-.135S2006.974,7545.556,2006.3,7545.516Z" transform="translate(-2003.23 -7545.516)" fill="#fff" opacity="0.3"/>
                </g>
              </g>
              <g id="Grupo_66224" data-name="Grupo 66224" transform="translate(0.035 3.703)">
                <g id="Grupo_66223" data-name="Grupo 66223">
                  <g id="Grupo_66222" data-name="Grupo 66222">
                    <path id="Trazado_105974" data-name="Trazado 105974" d="M2022.877,7547.989a1.076,1.076,0,0,1-.2.018l-.571.024-2.1.054c-1.773.034-4.224.046-6.93,0s-5.156-.14-6.927-.231l-2.1-.124-.57-.043a1.029,1.029,0,0,1-.2-.025,1.163,1.163,0,0,1,.2,0l.57.017,2.1.079c1.771.066,4.22.145,6.925.19s5.154.047,6.927.039l2.1-.009h.571A1.146,1.146,0,0,1,2022.877,7547.989Z" transform="translate(-2003.287 -7547.661)" fill="#344154"/>
                  </g>
                </g>
              </g>
              <g id="Grupo_66227" data-name="Grupo 66227" transform="translate(2.99 2.252)">
                <g id="Grupo_66226" data-name="Grupo 66226">
                  <g id="Grupo_66225" data-name="Grupo 66225">
                    <path id="Trazado_105975" data-name="Trazado 105975" d="M2009.213,7547.107a4.751,4.751,0,0,0-.375-1.008,4.677,4.677,0,0,0-.7-.815,1.864,1.864,0,0,1,1.076,1.823Z" transform="translate(-2008.136 -7545.281)" fill="#344154"/>
                  </g>
                </g>
              </g>
              <g id="Grupo_66230" data-name="Grupo 66230" transform="translate(6.904 1.438)">
                <g id="Grupo_66229" data-name="Grupo 66229">
                  <g id="Grupo_66228" data-name="Grupo 66228">
                    <path id="Trazado_105976" data-name="Trazado 105976" d="M2015.159,7544.916c-.033.021-.193-.181-.356-.449s-.27-.5-.237-.522.192.181.356.449S2015.192,7544.9,2015.159,7544.916Z" transform="translate(-2014.56 -7543.943)" fill="#344154"/>
                  </g>
                </g>
              </g>
              <g id="Grupo_66233" data-name="Grupo 66233" transform="translate(7.734 1.269)">
                <g id="Grupo_66232" data-name="Grupo 66232">
                  <g id="Grupo_66231" data-name="Grupo 66231">
                    <path id="Trazado_105977" data-name="Trazado 105977" d="M2016.634,7544.329c-.026.029-.207-.1-.4-.278s-.333-.352-.307-.381.207.1.4.279S2016.66,7544.3,2016.634,7544.329Z" transform="translate(-2015.922 -7543.666)" fill="#344154"/>
                  </g>
                </g>
              </g>
              <g id="Grupo_66236" data-name="Grupo 66236" transform="translate(7.85 0.779)">
                <g id="Grupo_66235" data-name="Grupo 66235">
                  <g id="Grupo_66234" data-name="Grupo 66234">
                    <path id="Trazado_105978" data-name="Trazado 105978" d="M2017.318,7542.937a2.623,2.623,0,1,1-.6-.074A1.356,1.356,0,0,1,2017.318,7542.937Z" transform="translate(-2016.112 -7542.863)" fill="#344154"/>
                  </g>
                </g>
              </g>
              <g id="Grupo_66239" data-name="Grupo 66239" transform="translate(7.904 0.076)">
                <g id="Grupo_66238" data-name="Grupo 66238">
                  <g id="Grupo_66237" data-name="Grupo 66237">
                    <path id="Trazado_105979" data-name="Trazado 105979" d="M2017.57,7541.721a1.7,1.7,0,0,1-1.368.079,3.736,3.736,0,0,1,.684-.035A3.68,3.68,0,0,1,2017.57,7541.721Z" transform="translate(-2016.202 -7541.708)" fill="#344154"/>
                  </g>
                </g>
              </g>
              <g id="Grupo_66242" data-name="Grupo 66242" transform="translate(4.964 0.333)">
                <g id="Grupo_66241" data-name="Grupo 66241">
                  <g id="Grupo_66240" data-name="Grupo 66240">
                    <path id="Trazado_105980" data-name="Trazado 105980" d="M2013.542,7543.194a2.128,2.128,0,0,1-.742-.018,4.311,4.311,0,0,1-.787-.187,2.171,2.171,0,0,1-.449-.194.4.4,0,0,1-.18-.233.293.293,0,0,1,.118-.295,1.361,1.361,0,0,1,1.676.427,1.336,1.336,0,0,1,.233.5.413.413,0,0,1,.016.2,2.1,2.1,0,0,0-.327-.639,1.334,1.334,0,0,0-.626-.423,1.152,1.152,0,0,0-.885.045c-.119.085-.076.225.054.306a2.164,2.164,0,0,0,.414.185,5.068,5.068,0,0,0,.761.212C2013.259,7543.166,2013.542,7543.172,2013.542,7543.194Z" transform="translate(-2011.377 -7542.13)" fill="#344154"/>
                  </g>
                </g>
              </g>
              <g id="Grupo_66245" data-name="Grupo 66245" transform="translate(6.85 0.007)">
                <g id="Grupo_66244" data-name="Grupo 66244">
                  <g id="Grupo_66243" data-name="Grupo 66243">
                    <path id="Trazado_105981" data-name="Trazado 105981" d="M2014.558,7543.019a.73.73,0,0,1-.077-.517,1.211,1.211,0,0,1,.212-.539.747.747,0,0,1,.624-.367.3.3,0,0,1,.222.347.818.818,0,0,1-.132.329,2.262,2.262,0,0,1-.358.443,1.06,1.06,0,0,1-.43.292c-.013-.018.15-.13.359-.361a2.567,2.567,0,0,0,.318-.439c.1-.155.179-.436-.006-.473-.186-.021-.378.16-.494.307a1.222,1.222,0,0,0-.218.479A2.632,2.632,0,0,0,2014.558,7543.019Z" transform="translate(-2014.472 -7541.595)" fill="#344154"/>
                  </g>
                </g>
              </g>
              <g id="Grupo_66248" data-name="Grupo 66248" transform="translate(15.285 0.78)">
                <g id="Grupo_66247" data-name="Grupo 66247">
                  <g id="Grupo_66246" data-name="Grupo 66246">
                    <path id="Trazado_105982" data-name="Trazado 105982" d="M2032.473,7542.952c0,.026-.33-.037-.853.016a3.618,3.618,0,0,0-3.065,2.358c-.185.492-.208.824-.233.82a.655.655,0,0,1,0-.232,2.985,2.985,0,0,1,.136-.621,3.511,3.511,0,0,1,3.15-2.424,3.017,3.017,0,0,1,.635.028A.672.672,0,0,1,2032.473,7542.952Z" transform="translate(-2028.314 -7542.863)" fill="#344154"/>
                  </g>
                </g>
              </g>
              <g id="Grupo_66251" data-name="Grupo 66251" transform="translate(10.466 2.937)">
                <g id="Grupo_66250" data-name="Grupo 66250">
                  <g id="Grupo_66249" data-name="Grupo 66249">
                    <path id="Trazado_105983" data-name="Trazado 105983" d="M2023.78,7546.444a6.571,6.571,0,0,1-1.688.137,6.463,6.463,0,0,1-1.686-.165c0-.04.757.019,1.687.025S2023.776,7546.4,2023.78,7546.444Z" transform="translate(-2020.406 -7546.403)" fill="#344154"/>
                  </g>
                </g>
              </g>
              <g id="Grupo_66254" data-name="Grupo 66254" transform="translate(15.763 3.008)">
                <g id="Grupo_66253" data-name="Grupo 66253">
                  <g id="Grupo_66252" data-name="Grupo 66252">
                    <path id="Trazado_105984" data-name="Trazado 105984" d="M2029.438,7546.525c.027.029-.064.159-.144.33s-.125.325-.165.322-.056-.184.038-.381S2029.414,7546.5,2029.438,7546.525Z" transform="translate(-2029.099 -7546.521)" fill="#344154"/>
                  </g>
                </g>
              </g>
              <g id="Grupo_66257" data-name="Grupo 66257" transform="translate(16.528 1.961)">
                <g id="Grupo_66256" data-name="Grupo 66256">
                  <g id="Grupo_66255" data-name="Grupo 66255">
                    <path id="Trazado_105985" data-name="Trazado 105985" d="M2030.8,7544.808c.027.028-.049.146-.171.266s-.242.193-.269.166.05-.147.171-.266S2030.773,7544.78,2030.8,7544.808Z" transform="translate(-2030.354 -7544.802)" fill="#344154"/>
                  </g>
                </g>
              </g>
              <g id="Grupo_66260" data-name="Grupo 66260" transform="translate(17.54 1.434)">
                <g id="Grupo_66259" data-name="Grupo 66259">
                  <g id="Grupo_66258" data-name="Grupo 66258">
                    <path id="Trazado_105986" data-name="Trazado 105986" d="M2032.676,7544c-.009.04-.162.036-.332.092s-.295.145-.325.118.069-.185.282-.251S2032.689,7543.97,2032.676,7544Z" transform="translate(-2032.014 -7543.936)" fill="#344154"/>
                  </g>
                </g>
              </g>
              <g id="Grupo_66263" data-name="Grupo 66263" transform="translate(18.724 1.262)">
                <g id="Grupo_66262" data-name="Grupo 66262">
                  <g id="Grupo_66261" data-name="Grupo 66261">
                    <path id="Trazado_105987" data-name="Trazado 105987" d="M2034.308,7543.682c.014.036-.054.094-.15.13s-.185.035-.2,0,.054-.095.151-.13S2034.295,7543.646,2034.308,7543.682Z" transform="translate(-2033.957 -7543.654)" fill="#344154"/>
                  </g>
                </g>
              </g>
            </g>
          </g>
          <g id="Grupo_66316" data-name="Grupo 66316" transform="translate(28.329 105.765)">
            <g id="Grupo_66315" data-name="Grupo 66315">
              <g id="Grupo_66270" data-name="Grupo 66270" transform="translate(0.008)">
                <g id="Grupo_66267" data-name="Grupo 66267">
                  <g id="Grupo_66266" data-name="Grupo 66266">
                    <path id="Trazado_105988" data-name="Trazado 105988" d="M2055.659,7542.8l-.523-1.116,10.482-4.964,1.762,3.659-.626.349c-2.8,1.53-14.347,7.581-16.547,7.914C2047.751,7549.01,2055.659,7542.8,2055.659,7542.8Z" transform="translate(-2049.733 -7536.717)" fill="#d9a171"/>
                  </g>
                </g>
                <g id="Grupo_66269" data-name="Grupo 66269" transform="translate(13.681 0.603)" opacity="0.3">
                  <g id="Grupo_66268" data-name="Grupo 66268">
                    <path id="Trazado_105989" data-name="Trazado 105989" d="M2072.332,7542.48a4.009,4.009,0,0,1,.271-2.856,3.894,3.894,0,0,1,2.075-1.918l1.39,2.912Z" transform="translate(-2072.185 -7537.706)" fill="#fff"/>
                  </g>
                </g>
              </g>
              <g id="Grupo_66272" data-name="Grupo 66272" transform="translate(0 3.434)">
                <g id="Grupo_66271" data-name="Grupo 66271">
                  <path id="Trazado_105990" data-name="Trazado 105990" d="M2051.863,7548.188s-2.677,2.374-2.047,2.7,12.529-5.349,17.558-8.312l-.127-.226-13.822,6.74S2052.482,7547.924,2051.863,7548.188Z" transform="translate(-2049.72 -7542.352)" fill="#fff" opacity="0.3"/>
                </g>
              </g>
              <g id="Grupo_66275" data-name="Grupo 66275" transform="translate(0.01 3.349)">
                <g id="Grupo_66274" data-name="Grupo 66274">
                  <g id="Grupo_66273" data-name="Grupo 66273">
                    <path id="Trazado_105991" data-name="Trazado 105991" d="M2067.414,7542.213a1.072,1.072,0,0,1-.17.1c-.15.083-.314.175-.5.276l-1.855.985c-1.572.82-3.76,1.926-6.2,3.094s-4.676,2.175-6.3,2.883l-1.931.825-.53.216a1.268,1.268,0,0,1-.187.066.914.914,0,0,1,.177-.093l.519-.239,1.913-.865c1.615-.731,3.841-1.753,6.282-2.919s4.633-2.257,6.217-3.056l1.875-.945c.189-.095.358-.178.512-.253A.913.913,0,0,1,2067.414,7542.213Z" transform="translate(-2049.737 -7542.212)" fill="#344154"/>
                  </g>
                </g>
              </g>
              <g id="Grupo_66278" data-name="Grupo 66278" transform="translate(2.008 9.164)">
                <g id="Grupo_66277" data-name="Grupo 66277">
                  <g id="Grupo_66276" data-name="Grupo 66276">
                    <path id="Trazado_105992" data-name="Trazado 105992" d="M2054.792,7552.924a3.053,3.053,0,0,0-1.776-1.152,1.867,1.867,0,0,1,1.776,1.152Z" transform="translate(-2053.016 -7551.755)" fill="#344154"/>
                  </g>
                </g>
              </g>
              <g id="Grupo_66281" data-name="Grupo 66281" transform="translate(5.149 6.696)">
                <g id="Grupo_66280" data-name="Grupo 66280">
                  <g id="Grupo_66279" data-name="Grupo 66279">
                    <path id="Trazado_105993" data-name="Trazado 105993" d="M2059.137,7548.316c-.021.032-.253-.076-.52-.243s-.465-.33-.445-.362.253.076.52.243S2059.157,7548.283,2059.137,7548.316Z" transform="translate(-2058.171 -7547.705)" fill="#344154"/>
                  </g>
                </g>
              </g>
              <g id="Grupo_66284" data-name="Grupo 66284" transform="translate(5.817 6.168)">
                <g id="Grupo_66283" data-name="Grupo 66283">
                  <g id="Grupo_66282" data-name="Grupo 66282">
                    <path id="Trazado_105994" data-name="Trazado 105994" d="M2060.2,7547.129c-.011.037-.228.006-.484-.069s-.456-.168-.445-.2.228-.006.485.07S2060.207,7547.092,2060.2,7547.129Z" transform="translate(-2059.266 -7546.839)" fill="#344154"/>
                  </g>
                </g>
              </g>
              <g id="Grupo_66287" data-name="Grupo 66287" transform="translate(5.726 5.213)">
                <g id="Grupo_66286" data-name="Grupo 66286">
                  <g id="Grupo_66285" data-name="Grupo 66285">
                    <path id="Trazado_105995" data-name="Trazado 105995" d="M2060.2,7545.278c.017.035-.212.182-.51.328a1.357,1.357,0,0,1-.573.2c-.017-.035.212-.182.511-.329A1.353,1.353,0,0,1,2060.2,7545.278Z" transform="translate(-2059.117 -7545.271)" fill="#344154"/>
                  </g>
                </g>
              </g>
              <g id="Grupo_66290" data-name="Grupo 66290" transform="translate(5.473 4.436)">
                <g id="Grupo_66289" data-name="Grupo 66289">
                  <g id="Grupo_66288" data-name="Grupo 66288">
                    <path id="Trazado_105996" data-name="Trazado 105996" d="M2059.892,7544c.027.025-.182.271-.522.466a1.171,1.171,0,0,1-.667.215,51.335,51.335,0,0,0,1.189-.681Z" transform="translate(-2058.703 -7543.996)" fill="#344154"/>
                  </g>
                </g>
              </g>
              <g id="Grupo_66293" data-name="Grupo 66293" transform="translate(3.055 6.132)">
                <g id="Grupo_66292" data-name="Grupo 66292">
                  <g id="Grupo_66291" data-name="Grupo 66291">
                    <path id="Trazado_105997" data-name="Trazado 105997" d="M2057.007,7547.214a2.158,2.158,0,0,1-.672.315,4.305,4.305,0,0,1-.788.183,2.147,2.147,0,0,1-.489.027.4.4,0,0,1-.265-.129.293.293,0,0,1-.026-.317,1.359,1.359,0,0,1,1.689-.365,1.319,1.319,0,0,1,.432.342c.082.1.111.168.1.173a2.082,2.082,0,0,0-.577-.426,1.347,1.347,0,0,0-.75-.1,1.15,1.15,0,0,0-.772.435c-.069.129.032.235.184.249a2.238,2.238,0,0,0,.453-.019,5.168,5.168,0,0,0,.776-.149C2056.741,7547.314,2057,7547.193,2057.007,7547.214Z" transform="translate(-2054.733 -7546.78)" fill="#344154"/>
                  </g>
                </g>
              </g>
              <g id="Grupo_66296" data-name="Grupo 66296" transform="translate(4.807 5.059)">
                <g id="Grupo_66295" data-name="Grupo 66295">
                  <g id="Grupo_66294" data-name="Grupo 66294">
                    <path id="Trazado_105998" data-name="Trazado 105998" d="M2057.972,7546.642a.728.728,0,0,1-.3-.428,1.206,1.206,0,0,1-.05-.576.745.745,0,0,1,.394-.608.3.3,0,0,1,.354.21.818.818,0,0,1,.029.354,2.278,2.278,0,0,1-.123.556,1.066,1.066,0,0,1-.254.455c-.019-.011.076-.185.16-.483a2.642,2.642,0,0,0,.089-.536c.024-.186-.034-.47-.217-.42s-.267.312-.305.5a1.208,1.208,0,0,0,.018.525A2.684,2.684,0,0,0,2057.972,7546.642Z" transform="translate(-2057.609 -7545.018)" fill="#344154"/>
                  </g>
                </g>
              </g>
              <g id="Grupo_66299" data-name="Grupo 66299" transform="translate(13.53 0.597)">
                <g id="Grupo_66298" data-name="Grupo 66298">
                  <g id="Grupo_66297" data-name="Grupo 66297">
                    <path id="Trazado_105999" data-name="Trazado 105999" d="M2074.508,7537.7c.009.024-.312.114-.757.394a3.621,3.621,0,0,0-1.692,3.478c.054.522.182.83.157.839a.687.687,0,0,1-.1-.21,3.035,3.035,0,0,1-.155-.616,3.509,3.509,0,0,1,1.738-3.575,3.118,3.118,0,0,1,.58-.259A.656.656,0,0,1,2074.508,7537.7Z" transform="translate(-2071.924 -7537.696)" fill="#344154"/>
                  </g>
                </g>
              </g>
              <g id="Grupo_66302" data-name="Grupo 66302" transform="translate(9.008 4.984)">
                <g id="Grupo_66301" data-name="Grupo 66301">
                  <g id="Grupo_66300" data-name="Grupo 66300">
                    <path id="Trazado_106000" data-name="Trazado 106000" d="M2067.534,7544.9a6.5,6.5,0,0,1-1.449.876,6.571,6.571,0,0,1-1.583.605c-.014-.039.686-.321,1.521-.73S2067.513,7544.864,2067.534,7544.9Z" transform="translate(-2064.503 -7544.896)" fill="#344154"/>
                  </g>
                </g>
              </g>
              <g id="Grupo_66305" data-name="Grupo 66305" transform="translate(13.959 4.008)">
                <g id="Grupo_66304" data-name="Grupo 66304">
                  <g id="Grupo_66303" data-name="Grupo 66303">
                    <path id="Trazado_106001" data-name="Trazado 106001" d="M2072.749,7543.295c.038.013.013.171.018.36s.034.346,0,.361-.132-.139-.136-.358S2072.715,7543.28,2072.749,7543.295Z" transform="translate(-2072.628 -7543.294)" fill="#344154"/>
                  </g>
                </g>
              </g>
              <g id="Grupo_66308" data-name="Grupo 66308" transform="translate(14.172 2.683)">
                <g id="Grupo_66307" data-name="Grupo 66307">
                  <g id="Grupo_66306" data-name="Grupo 66306">
                    <path id="Trazado_106002" data-name="Trazado 106002" d="M2073.2,7541.122c.036.012.021.153-.035.313s-.13.281-.167.269-.021-.154.035-.314S2073.162,7541.108,2073.2,7541.122Z" transform="translate(-2072.977 -7541.121)" fill="#344154"/>
                  </g>
                </g>
              </g>
              <g id="Grupo_66311" data-name="Grupo 66311" transform="translate(14.775 1.703)">
                <g id="Grupo_66310" data-name="Grupo 66310">
                  <g id="Grupo_66309" data-name="Grupo 66309">
                    <path id="Trazado_106003" data-name="Trazado 106003" d="M2074.478,7539.529c.01.039-.129.1-.256.23s-.2.262-.238.25-.02-.2.14-.35S2074.473,7539.492,2074.478,7539.529Z" transform="translate(-2073.967 -7539.511)" fill="#344154"/>
                  </g>
                </g>
              </g>
              <g id="Grupo_66314" data-name="Grupo 66314" transform="translate(15.706 1.132)">
                <g id="Grupo_66313" data-name="Grupo 66313">
                  <g id="Grupo_66312" data-name="Grupo 66312">
                    <path id="Trazado_106004" data-name="Trazado 106004" d="M2075.76,7538.582c.029.027-.006.11-.076.184s-.15.115-.179.088.006-.108.077-.184S2075.732,7538.557,2075.76,7538.582Z" transform="translate(-2075.496 -7538.574)" fill="#344154"/>
                  </g>
                </g>
              </g>
            </g>
          </g>
        </g>
        <g id="Grupo_66326" data-name="Grupo 66326" transform="translate(0 31.298)">
          <g id="Grupo_66319" data-name="Grupo 66319">
            <g id="Grupo_66318" data-name="Grupo 66318">
              <path id="Trazado_106005" data-name="Trazado 106005" d="M2029.492,7331.536h.005c-4.865-8.412-6.1-7.429-4.447-12.329l4.749-15.932-2-10a11.011,11.011,0,0,0-8.421-3.08l-9.92.684s-4.882-1.07-12.073,5.916l-4.981,4.648,6.273,11.9.313,5.4,4.525,14.767-1.207,6.511c-.524,4.955-7.189,61.773-6.285,62.67.944.938,14.832-6.014,18.2-3.174s10.135,4.582,13.955,3.359,9.549-8.826,15.33-3.7C2043.505,7399.177,2041.615,7348.769,2029.492,7331.536Z" transform="translate(-1992.407 -7290.172)" fill="#344154"/>
            </g>
          </g>
          <path id="Trazado_106006" data-name="Trazado 106006" d="M2038.787,7291.335s10.333,2.751,8.808,10.131c-.75,3.63-5.7,11.2-5.7,11.2l-11.712-5.542Z" transform="translate(-2007.162 -7290.627)" fill="#344154"/>
          <g id="Grupo_66320" data-name="Grupo 66320" transform="translate(7.979 43.725)">
            <path id="Trazado_106007" data-name="Trazado 106007" d="M2008.071,7364.57a9.583,9.583,0,0,1,1.748-1.236,9.958,9.958,0,0,1,5.625-1.387,8.1,8.1,0,0,1,3.873,1.152,7.465,7.465,0,0,1,3.024,3.5,5.743,5.743,0,0,1,.427,2.506,6.11,6.11,0,0,1-.764,2.536c-.837,1.6-2.15,2.933-3.021,4.566a9.1,9.1,0,0,0-.822,5.248,17.587,17.587,0,0,1-.013,5.126,7.036,7.036,0,0,1-.89,2.244,4.269,4.269,0,0,1-1.642,1.589,3.519,3.519,0,0,1-2.106.358,4.921,4.921,0,0,1-1.837-.7,14.484,14.484,0,0,1-2.517-2.188,23.55,23.55,0,0,0-1.875-1.649,11.629,11.629,0,0,0-1.3-.889c-.311-.183-.486-.259-.479-.273a.516.516,0,0,1,.134.045,3.837,3.837,0,0,1,.377.171,9.877,9.877,0,0,1,1.346.847,21.687,21.687,0,0,1,1.923,1.62,14.661,14.661,0,0,0,2.51,2.125,4.714,4.714,0,0,0,1.754.648,3.267,3.267,0,0,0,1.95-.349,3.99,3.99,0,0,0,1.527-1.5,6.758,6.758,0,0,0,.841-2.159,17.5,17.5,0,0,0-.011-5.041,14.792,14.792,0,0,1,.011-2.726,7.226,7.226,0,0,1,.841-2.693c.9-1.687,2.217-3.014,3.026-4.562a5.828,5.828,0,0,0,.737-2.411,5.468,5.468,0,0,0-.4-2.378,7.228,7.228,0,0,0-2.893-3.389,7.91,7.91,0,0,0-3.748-1.152,10.029,10.029,0,0,0-5.551,1.272,15.066,15.066,0,0,0-1.346.824l-.339.232A.462.462,0,0,1,2008.071,7364.57Z" transform="translate(-2005.501 -7361.929)" fill="#fafafa"/>
          </g>
          <g id="Grupo_66321" data-name="Grupo 66321" transform="translate(26.287 56.593)">
            <path id="Trazado_106008" data-name="Trazado 106008" d="M2059.142,7420.069a.674.674,0,0,1-.16.039l-.475.081c-.418.067-1.035.163-1.831.271a42.085,42.085,0,0,1-6.8.46,20.9,20.9,0,0,1-4.674-.632,15.546,15.546,0,0,1-4.947-2.2,10.826,10.826,0,0,1-3.873-4.537,9.624,9.624,0,0,1-.52-6.361,7.6,7.6,0,0,1,1.579-2.886,18.864,18.864,0,0,1,2.374-2.109,13.534,13.534,0,0,0,2.187-2.056,6.142,6.142,0,0,0,1.182-2.565,31.874,31.874,0,0,0,.293-5.35,9.084,9.084,0,0,1,3.772-7.452,8.965,8.965,0,0,1,2.614-1.34,7.952,7.952,0,0,1,1.82-.368l.483-.017a.634.634,0,0,1,.164,0,10.633,10.633,0,0,0-2.426.5,9.061,9.061,0,0,0-2.547,1.365,8.93,8.93,0,0,0-3.616,7.319,31.429,31.429,0,0,1-.27,5.4,6.429,6.429,0,0,1-1.23,2.69,13.7,13.7,0,0,1-2.23,2.11,18.779,18.779,0,0,0-2.332,2.077,7.305,7.305,0,0,0-1.51,2.765,9.342,9.342,0,0,0,.5,6.147,10.564,10.564,0,0,0,3.754,4.421,15.359,15.359,0,0,0,4.847,2.186,20.921,20.921,0,0,0,4.614.661,45.481,45.481,0,0,0,6.774-.358l1.838-.211.479-.05A.637.637,0,0,1,2059.142,7420.069Z" transform="translate(-2035.547 -7383.047)" fill="#fafafa"/>
          </g>
          <g id="Grupo_66322" data-name="Grupo 66322" transform="translate(4.694 95.311)">
            <path id="Trazado_106009" data-name="Trazado 106009" d="M2016.252,7460.124c-.006-.008.063-.066.208-.157a2.829,2.829,0,0,0,.588-.409c.216-.216.125-.627-.009-1.045a8.486,8.486,0,0,0-.667-1.373c-.556-1-1.206-2.2-2.012-3.476a19.568,19.568,0,0,0-3.046-3.811,11.277,11.277,0,0,0-4.1-2.549,8.08,8.08,0,0,0-3.9-.368,5.666,5.666,0,0,0-2.433,1.041c-.506.383-.744.65-.767.628-.008-.007.046-.078.157-.207a4.647,4.647,0,0,1,.533-.518,5.487,5.487,0,0,1,2.469-1.165,8.123,8.123,0,0,1,4.037.311,11.33,11.33,0,0,1,4.225,2.6,19.076,19.076,0,0,1,3.076,3.886c.8,1.3,1.431,2.511,1.963,3.525a8.2,8.2,0,0,1,.639,1.427,2.782,2.782,0,0,1,.118.643.693.693,0,0,1-.187.538,2.366,2.366,0,0,1-.649.383A1.022,1.022,0,0,1,2016.252,7460.124Z" transform="translate(-2000.11 -7446.585)" fill="#fafafa"/>
          </g>
          <g id="Grupo_66323" data-name="Grupo 66323" transform="translate(28.457 31.281)">
            <path id="Trazado_106010" data-name="Trazado 106010" d="M2044.822,7347.434c.012.011-.074.142-.293.315a2.606,2.606,0,0,1-1.076.475,3.235,3.235,0,0,1-1.745-.146,3.729,3.729,0,0,1-1.68-1.329,5.456,5.456,0,0,1-.891-3.7,4.4,4.4,0,0,1,.342-1.543c.051.011-.078.6-.117,1.557a5.614,5.614,0,0,0,.924,3.5,3.582,3.582,0,0,0,1.529,1.242,3.174,3.174,0,0,0,1.6.2A3.788,3.788,0,0,0,2044.822,7347.434Z" transform="translate(-2039.108 -7341.507)" fill="#fafafa"/>
          </g>
          <g id="Grupo_66324" data-name="Grupo 66324" transform="translate(30.005 2.66)">
            <path id="Trazado_106011" data-name="Trazado 106011" d="M2046.688,7311.557a.72.72,0,0,1-.236.053,3.613,3.613,0,0,1-.694.021,4.537,4.537,0,0,1-2.381-.893,4.289,4.289,0,0,1-1.177-1.339,4.409,4.409,0,0,1-.548-1.974,4.605,4.605,0,0,1,.456-2.217,8.7,8.7,0,0,1,1.476-1.9,4.4,4.4,0,0,0,.662-.95,1.871,1.871,0,0,0,.175-1.052,6.507,6.507,0,0,0-.891-1.951,3.319,3.319,0,0,1-.4-2.012,3.254,3.254,0,0,1,.688-1.651,3.169,3.169,0,0,1,2.251-1.148,2.755,2.755,0,0,1,.7.041.657.657,0,0,1,.232.071,7.153,7.153,0,0,0-.916.011,3.122,3.122,0,0,0-2.086,1.164,3.073,3.073,0,0,0-.2,3.388,6.543,6.543,0,0,1,.941,2.047,2.17,2.17,0,0,1-.2,1.226,4.617,4.617,0,0,1-.708,1.025,8.629,8.629,0,0,0-1.437,1.829,4.366,4.366,0,0,0-.443,2.069,4.122,4.122,0,0,0,1.57,3.146,4.661,4.661,0,0,0,2.255.948C2046.354,7311.575,2046.684,7311.526,2046.688,7311.557Z" transform="translate(-2041.648 -7294.538)" fill="#fafafa"/>
          </g>
          <g id="Grupo_66325" data-name="Grupo 66325" transform="translate(4.733 7.203)">
            <path id="Trazado_106012" data-name="Trazado 106012" d="M2002.521,7320.336a8.138,8.138,0,0,0,.982.046,3.894,3.894,0,0,0,2.395-1,3.589,3.589,0,0,0,1.006-3.547,3.691,3.691,0,0,0-1.2-1.9,8.358,8.358,0,0,1-1.794-1.855,4.193,4.193,0,0,1-.408-2.567c.091-.833.284-1.607.415-2.345a7.094,7.094,0,0,0,.127-2.092,3.162,3.162,0,0,0-.661-1.65,3.582,3.582,0,0,0-2.228-1.3,6.694,6.694,0,0,0-.981-.036.8.8,0,0,1,.251-.068,2.927,2.927,0,0,1,.745-.019,3.6,3.6,0,0,1,2.387,1.279,3.366,3.366,0,0,1,.748,1.757,7.188,7.188,0,0,1-.1,2.175c-.124.751-.31,1.523-.393,2.328a3.915,3.915,0,0,0,.374,2.378,8.342,8.342,0,0,0,1.73,1.785,3.968,3.968,0,0,1,1.271,2.058,3.807,3.807,0,0,1-1.141,3.785,3.9,3.9,0,0,1-2.541.951,3.155,3.155,0,0,1-.74-.083A.832.832,0,0,1,2002.521,7320.336Z" transform="translate(-2000.174 -7301.994)" fill="#fafafa"/>
          </g>
        </g>
        <g id="Grupo_66353" data-name="Grupo 66353" transform="translate(2.572)">
          <g id="Grupo_66352" data-name="Grupo 66352">
            <path id="Trazado_106013" data-name="Trazado 106013" d="M2016.155,7241.076a7.433,7.433,0,0,1,8.871,6.826c.073,1.169-.072,2.509.754,3.339a8.532,8.532,0,0,0,2.2,1.1,3.358,3.358,0,0,1,1.488,4.021c-.28.73-.816,1.341-1.09,2.074a5.588,5.588,0,0,0-.411,3.42c1.7,5.785-2.4,6.5-4.591,6.883-3.081.543-6.207-.436-6.528-3.663-.1-1.042-1.958-.924-3-.79-1.252.163-2.179,1.194-3.093,2.065a10.51,10.51,0,0,1-5.053,2.866,6.013,6.013,0,0,1-5.449-1.476,4.253,4.253,0,0,1-.5-5.374,5.337,5.337,0,0,1-2.021-8.123c.749-.97,1.834-1.688,2.37-2.79.452-.932.938-3.058,1.291-4.032a9.84,9.84,0,0,1,3.531-4.4" transform="translate(-1996.628 -7239.641)" fill="#6595bf"/>
            <g id="Grupo_66337" data-name="Grupo 66337" transform="translate(6.978 4.083)">
              <g id="Grupo_66336" data-name="Grupo 66336">
                <g id="Grupo_66335" data-name="Grupo 66335">
                  <g id="Grupo_66334" data-name="Grupo 66334">
                    <g id="Grupo_66328" data-name="Grupo 66328">
                      <g id="Grupo_66327" data-name="Grupo 66327">
                        <path id="Trazado_106014" data-name="Trazado 106014" d="M2026.11,7274.479l-11.443.162c-.2-1.319-.584-6.458-.584-6.458s-4.8-.29-5.3-5.009-.706-15.646-.706-15.646h0a16.5,16.5,0,0,1,16.7.521l.751.473Z" transform="translate(-2008.079 -7245.51)" fill="#ee9476"/>
                      </g>
                    </g>
                    <g id="Grupo_66331" data-name="Grupo 66331" transform="translate(3.885 8.893)">
                      <g id="Grupo_66330" data-name="Grupo 66330">
                        <g id="Grupo_66329" data-name="Grupo 66329">
                          <path id="Trazado_106015" data-name="Trazado 106015" d="M2016.193,7265.8a3.159,3.159,0,0,0-1.073-.124c-.172,0-.309-.028-.33-.119a.927.927,0,0,1,.076-.5l.39-1.371a18.156,18.156,0,0,0,.787-3.581,18.187,18.187,0,0,0-1.145,3.482l-.362,1.379a1.091,1.091,0,0,0-.027.717.451.451,0,0,0,.319.244,1.056,1.056,0,0,0,.294.01A3.182,3.182,0,0,0,2016.193,7265.8Z" transform="translate(-2014.455 -7260.103)" fill="#344154"/>
                        </g>
                      </g>
                    </g>
                    <g id="Grupo_66333" data-name="Grupo 66333" transform="translate(5.99 20.275)">
                      <g id="Grupo_66332" data-name="Grupo 66332">
                        <path id="Trazado_106016" data-name="Trazado 106016" d="M2017.909,7281.112a11.032,11.032,0,0,0,5.995-2.33s-1.136,3.537-5.891,3.555Z" transform="translate(-2017.909 -7278.782)" fill="#d57b61"/>
                      </g>
                    </g>
                  </g>
                </g>
              </g>
            </g>
            <g id="Grupo_66341" data-name="Grupo 66341" transform="translate(14.777 12.432)">
              <g id="Grupo_66338" data-name="Grupo 66338" transform="translate(0.185 0.751)">
                <path id="Trazado_106017" data-name="Trazado 106017" d="M2022.377,7261a.6.6,0,0,1-.589.592.573.573,0,0,1-.606-.552.6.6,0,0,1,.589-.594A.574.574,0,0,1,2022.377,7261Z" transform="translate(-2021.182 -7260.444)" fill="#344154"/>
              </g>
              <g id="Grupo_66340" data-name="Grupo 66340">
                <g id="Grupo_66339" data-name="Grupo 66339">
                  <path id="Trazado_106018" data-name="Trazado 106018" d="M2023.243,7259.866c-.075.076-.522-.269-1.166-.28s-1.123.3-1.191.221c-.033-.035.044-.175.253-.32a1.642,1.642,0,0,1,.956-.274,1.575,1.575,0,0,1,.927.32C2023.216,7259.689,2023.281,7259.831,2023.243,7259.866Z" transform="translate(-2020.878 -7259.212)" fill="#344154"/>
                </g>
              </g>
            </g>
            <g id="Grupo_66345" data-name="Grupo 66345" transform="translate(8.05 12.531)">
              <g id="Grupo_66342" data-name="Grupo 66342" transform="translate(0.315 0.633)">
                <path id="Trazado_106019" data-name="Trazado 106019" d="M2011.551,7260.966a.6.6,0,0,1-.589.593.572.572,0,0,1-.606-.553.6.6,0,0,1,.589-.592A.572.572,0,0,1,2011.551,7260.966Z" transform="translate(-2010.356 -7260.414)" fill="#344154"/>
              </g>
              <g id="Grupo_66344" data-name="Grupo 66344">
                <g id="Grupo_66343" data-name="Grupo 66343">
                  <path id="Trazado_106020" data-name="Trazado 106020" d="M2012.2,7260.027c-.076.076-.523-.269-1.167-.28s-1.123.3-1.191.221c-.033-.036.044-.175.254-.32a1.632,1.632,0,0,1,.955-.273,1.572,1.572,0,0,1,.927.32C2012.177,7259.851,2012.241,7259.993,2012.2,7260.027Z" transform="translate(-2009.839 -7259.375)" fill="#344154"/>
                </g>
              </g>
            </g>
            <path id="Trazado_106021" data-name="Trazado 106021" d="M2019.02,7271.139a1.253,1.253,0,0,1-.1-.479.424.424,0,0,1,.255-.389c.112-.039.244-.013.344-.078.135-.088.133-.284.208-.427a.527.527,0,0,1,.568-.229,1.121,1.121,0,0,1,.552.338,1,1,0,0,1,.339.655.779.779,0,0,1-.355.621,1.645,1.645,0,0,1-.7.241,3.849,3.849,0,0,1-.8.033.547.547,0,0,1-.225-.052.2.2,0,0,1-.112-.188" transform="translate(-2005.335 -7250.809)" fill="#d57b61"/>
            <g id="Grupo_66347" data-name="Grupo 66347" transform="translate(13.218 18.593)">
              <path id="Trazado_106022" data-name="Trazado 106022" d="M2018.319,7271.155a3.047,3.047,0,0,0,2.453-1.83" transform="translate(-2018.319 -7269.324)" fill="#d57b61"/>
              <g id="Grupo_66346" data-name="Grupo 66346">
                <path id="Trazado_106023" data-name="Trazado 106023" d="M2020.771,7269.324a2.334,2.334,0,0,1-2.453,1.83,11.288,11.288,0,0,0,1.378-.711C2020.384,7269.941,2020.686,7269.287,2020.771,7269.324Z" transform="translate(-2018.319 -7269.322)" fill="#344154"/>
              </g>
            </g>
            <g id="Grupo_66349" data-name="Grupo 66349" transform="translate(8.067 10.87)">
              <path id="Trazado_106024" data-name="Trazado 106024" d="M2009.888,7257.416a2.745,2.745,0,0,1,1.766-.2" transform="translate(-2009.875 -7256.846)" fill="#d57b61"/>
              <g id="Grupo_66348" data-name="Grupo 66348">
                <path id="Trazado_106025" data-name="Trazado 106025" d="M2011.646,7257.022c-.048.172-.431.214-.864.267s-.818.086-.9-.07.264-.5.832-.561S2011.7,7256.858,2011.646,7257.022Z" transform="translate(-2009.867 -7256.649)" fill="#344154"/>
              </g>
            </g>
            <g id="Grupo_66351" data-name="Grupo 66351" transform="translate(14.712 10.994)">
              <path id="Trazado_106026" data-name="Trazado 106026" d="M2020.781,7257.547a3.356,3.356,0,0,1,2.494.136" transform="translate(-2020.775 -7257.054)" fill="#d57b61"/>
              <g id="Grupo_66350" data-name="Grupo 66350">
                <path id="Trazado_106027" data-name="Trazado 106027" d="M2023.27,7257.48c-.085.16-.615.037-1.251.008s-1.176.023-1.242-.144.486-.534,1.277-.49S2023.359,7257.335,2023.27,7257.48Z" transform="translate(-2020.771 -7256.852)" fill="#344154"/>
              </g>
            </g>
            <path id="Trazado_106028" data-name="Trazado 106028" d="M2017.432,7240.153a3.782,3.782,0,0,0-2.707-1.294,8.889,8.889,0,0,0-8.106,3.672c-1.044,1.5-1.57,3.587-.595,5.131a3.193,3.193,0,0,0,5.762-.8,2.667,2.667,0,1,0,5.327-.239,4.843,4.843,0,0,0,1.695,2.426,1.873,1.873,0,0,0,2.621-.5c.534.635,1.287,1.282,2.093,1.084a1.628,1.628,0,0,0,1.089-1.633,4.189,4.189,0,0,0-.692-1.979c-1.563-2.718-3.868-5.216-6.893-6.042" transform="translate(-2000.096 -7238.809)" fill="#6595bf"/>
            <path id="Trazado_106029" data-name="Trazado 106029" d="M2030.158,7249.846a8.51,8.51,0,0,1,.064,8.234,13.941,13.941,0,0,0-1.3,2.389,2.258,2.258,0,0,0,.555,2.491c.446.333,1.127.5,1.233,1.047a1.5,1.5,0,0,1-.169.8,5.426,5.426,0,0,0-.143,3.434,2.964,2.964,0,0,0,2.025,2.458c.881.394,1.359,1.064,3.266.574,3.34-.859,2.16-8.32,1.849-11.754s-1.911-9.551-3.839-12.411" transform="translate(-2009.189 -7242.051)" fill="#6595bf"/>
          </g>
          <path id="Trazado_106030" data-name="Trazado 106030" d="M2017.26,7288.577S2013.8,7301.5,2016,7300.22s12.914-9.79,12.914-9.79l-5.415-4.086Z" transform="translate(-2003.91 -7257.379)" fill="#ee9476"/>
        </g>
      </g>
      <g id="Grupo_66355" data-name="Grupo 66355" transform="translate(0 44.829)">
        <path id="Trazado_106031" data-name="Trazado 106031" d="M1962.149,7321.006c-.383-1.265-5.171-3.874-4.447-4.578.943-.916,4.875,2.95,5.231,3.251s.792-.213.456-.468c-.483-.367-5.459-4.346-4.541-5.257.509-.5,1.311.522,1.311.522s4.391,4.075,4.81,3.63-2.074-2.932-2.974-3.708-.9-1.51-.241-1.631c.447-.083,3.259,2.228,4.132,3.016s3.229,2.994,2.926.94c0-.032-.005-.062-.009-.094-.355-2.015.04-3.683.483-4.087a.707.707,0,0,1,1.139.563.729.729,0,0,1-.017.3c-.011.043-.017.1-.027.152a10.221,10.221,0,0,0,.133,2.089,5.5,5.5,0,0,0,.575,1.781c.338.642.655,1.183.933,1.63,3.2,1.778,12.416,6.472,21.653,7.207,1.668.133,9.037-11.5,9.037-11.5l10.951,5.181a106.743,106.743,0,0,1-8.729,13.768c-9.243,12.562-38.141-8.372-38.141-8.372h0l-.271-.133a66.963,66.963,0,0,1-6.386-3.606c-2.485-1.756-2.336-1.986-2.088-2.247C1958.713,7318.649,1962.532,7322.27,1962.149,7321.006Z" transform="translate(-1957.628 -7312.377)" fill="#ee9476"/>
      </g>
    </g>
    <g id="Grupo_66527" data-name="Grupo 66527" transform="translate(1567.139 7197.59)">
      <g id="Grupo_66469" data-name="Grupo 66469" transform="translate(0 87.723)">
        <g id="Grupo_66406" data-name="Grupo 66406" transform="translate(54.191 104.158)">
          <g id="Grupo_66405" data-name="Grupo 66405">
            <g id="Grupo_66359" data-name="Grupo 66359" transform="translate(0.125)">
              <g id="Grupo_66358" data-name="Grupo 66358">
                <g id="Grupo_66357" data-name="Grupo 66357">
                  <path id="Trazado_106032" data-name="Trazado 106032" d="M1686.035,7543.135l-.058-5-9.366.049.008,7.316.581.034c2.585.13,13.154.479,14.879-.054C1694,7544.886,1686.035,7543.135,1686.035,7543.135Z" transform="translate(-1676.611 -7538.135)" fill="#6595bf"/>
                </g>
              </g>
            </g>
            <g id="Grupo_66362" data-name="Grupo 66362" transform="translate(0 7.083)">
              <g id="Grupo_66361" data-name="Grupo 66361">
                <g id="Grupo_66360" data-name="Grupo 66360">
                  <path id="Trazado_106033" data-name="Trazado 106033" d="M1676.405,7549.827a.845.845,0,0,0,.161.017l.462.025,1.7.065c1.438.046,3.425.081,5.621.073s4.184-.061,5.621-.116l1.7-.078.463-.03a.784.784,0,0,0,.161-.018.835.835,0,0,0-.162,0l-.463.008-1.7.043c-1.438.035-3.424.073-5.619.083s-4.18-.016-5.618-.04l-1.7-.029-.463,0A.863.863,0,0,0,1676.405,7549.827Z" transform="translate(-1676.405 -7549.76)" fill="#344154"/>
                </g>
              </g>
            </g>
            <g id="Grupo_66365" data-name="Grupo 66365" transform="translate(12.602 5.878)">
              <g id="Grupo_66364" data-name="Grupo 66364">
                <g id="Grupo_66363" data-name="Grupo 66363">
                  <path id="Trazado_106034" data-name="Trazado 106034" d="M1697.1,7549.253a3.893,3.893,0,0,1,.314-.814,3.786,3.786,0,0,1,.577-.653,1.512,1.512,0,0,0-.891,1.468Z" transform="translate(-1697.086 -7547.783)" fill="#344154"/>
                </g>
              </g>
            </g>
            <g id="Grupo_66368" data-name="Grupo 66368" transform="translate(9.844 5.177)">
              <g id="Grupo_66367" data-name="Grupo 66367">
                <g id="Grupo_66366" data-name="Grupo 66366">
                  <path id="Trazado_106035" data-name="Trazado 106035" d="M1692.565,7547.415c.027.017.159-.145.294-.361s.224-.4.2-.421-.158.145-.294.36S1692.539,7547.4,1692.565,7547.415Z" transform="translate(-1692.56 -7546.632)" fill="#344154"/>
                </g>
              </g>
            </g>
            <g id="Grupo_66371" data-name="Grupo 66371" transform="translate(9.087 5.032)">
              <g id="Grupo_66370" data-name="Grupo 66370">
                <g id="Grupo_66369" data-name="Grupo 66369">
                  <path id="Trazado_106036" data-name="Trazado 106036" d="M1691.319,7546.924c.021.023.168-.076.329-.222s.274-.282.253-.306-.169.076-.329.222S1691.3,7546.9,1691.319,7546.924Z" transform="translate(-1691.317 -7546.393)" fill="#344154"/>
                </g>
              </g>
            </g>
            <g id="Grupo_66374" data-name="Grupo 66374" transform="translate(8.605 4.627)">
              <g id="Grupo_66373" data-name="Grupo 66373">
                <g id="Grupo_66372" data-name="Grupo 66372">
                  <path id="Trazado_106037" data-name="Trazado 106037" d="M1690.527,7545.783a2.134,2.134,0,0,0,.979.006,2.151,2.151,0,0,0-.979-.006Z" transform="translate(-1690.527 -7545.73)" fill="#344154"/>
                </g>
              </g>
            </g>
            <g id="Grupo_66377" data-name="Grupo 66377" transform="translate(8.437 4.049)">
              <g id="Grupo_66376" data-name="Grupo 66376">
                <g id="Grupo_66375" data-name="Grupo 66375">
                  <path id="Trazado_106038" data-name="Trazado 106038" d="M1690.252,7544.79a1.374,1.374,0,0,0,1.109.078,3.155,3.155,0,0,0-.554-.035A3.1,3.1,0,0,0,1690.252,7544.79Z" transform="translate(-1690.251 -7544.78)" fill="#344154"/>
                </g>
              </g>
            </g>
            <g id="Grupo_66380" data-name="Grupo 66380" transform="translate(10.163 4.294)">
              <g id="Grupo_66379" data-name="Grupo 66379">
                <g id="Grupo_66378" data-name="Grupo 66378">
                  <path id="Trazado_106039" data-name="Trazado 106039" d="M1693.083,7546.03a1.73,1.73,0,0,0,.6-.007,3.474,3.474,0,0,0,.64-.145,1.746,1.746,0,0,0,.366-.151.324.324,0,0,0,.148-.187.237.237,0,0,0-.092-.241,1.113,1.113,0,0,0-1.558.731.344.344,0,0,0-.015.163,1.7,1.7,0,0,1,.272-.515,1.094,1.094,0,0,1,.512-.337.936.936,0,0,1,.718.046c.1.07.059.183-.047.246a1.777,1.777,0,0,1-.338.146,4.241,4.241,0,0,1-.619.164C1693.313,7546.01,1693.083,7546.012,1693.083,7546.03Z" transform="translate(-1693.083 -7545.183)" fill="#344154"/>
                </g>
              </g>
            </g>
            <g id="Grupo_66383" data-name="Grupo 66383" transform="translate(9.529 4.008)">
              <g id="Grupo_66382" data-name="Grupo 66382">
                <g id="Grupo_66381" data-name="Grupo 66381">
                  <path id="Trazado_106040" data-name="Trazado 106040" d="M1692.833,7545.877a.6.6,0,0,0,.067-.418.988.988,0,0,0-.166-.439.605.605,0,0,0-.5-.3.24.24,0,0,0-.185.278.661.661,0,0,0,.1.269,1.861,1.861,0,0,0,.286.364.873.873,0,0,0,.346.242c.01-.015-.121-.107-.288-.3a2.1,2.1,0,0,1-.254-.36c-.083-.127-.141-.355.01-.383s.305.134.4.253a.991.991,0,0,1,.172.391A2.192,2.192,0,0,1,1692.833,7545.877Z" transform="translate(-1692.043 -7544.714)" fill="#344154"/>
                </g>
              </g>
            </g>
            <g id="Grupo_66386" data-name="Grupo 66386" transform="translate(0.18 4.521)">
              <g id="Grupo_66385" data-name="Grupo 66385">
                <g id="Grupo_66384" data-name="Grupo 66384">
                  <path id="Trazado_106041" data-name="Trazado 106041" d="M1676.7,7545.621c0,.021.268-.026.692.021a2.93,2.93,0,0,1,2.462,1.943c.145.4.16.671.181.668a.518.518,0,0,0,0-.188,2.417,2.417,0,0,0-.1-.5,2.848,2.848,0,0,0-2.531-2,2.4,2.4,0,0,0-.515.016A.537.537,0,0,0,1676.7,7545.621Z" transform="translate(-1676.7 -7545.556)" fill="#344154"/>
                </g>
              </g>
            </g>
            <g id="Grupo_66389" data-name="Grupo 66389" transform="translate(1.058 0.684)">
              <g id="Grupo_66388" data-name="Grupo 66388">
                <g id="Grupo_66387" data-name="Grupo 66387">
                  <path id="Trazado_106042" data-name="Trazado 106042" d="M1678.215,7539.259a32.517,32.517,0,0,0-.031,3.849,16.2,16.2,0,0,0,.073-1.924A16.483,16.483,0,0,0,1678.215,7539.259Z" transform="translate(-1678.141 -7539.259)" fill="#344154"/>
                </g>
              </g>
            </g>
            <g id="Grupo_66392" data-name="Grupo 66392" transform="translate(4.703 6.343)">
              <g id="Grupo_66391" data-name="Grupo 66391">
                <g id="Grupo_66390" data-name="Grupo 66390">
                  <path id="Trazado_106043" data-name="Trazado 106043" d="M1684.123,7548.558a5.4,5.4,0,0,0,1.368.129,5.307,5.307,0,0,0,1.369-.116c0-.032-.614.008-1.369,0S1684.127,7548.524,1684.123,7548.558Z" transform="translate(-1684.123 -7548.545)" fill="#344154"/>
                </g>
              </g>
            </g>
            <g id="Grupo_66395" data-name="Grupo 66395" transform="translate(2.863 6.357)">
              <g id="Grupo_66394" data-name="Grupo 66394">
                <g id="Grupo_66393" data-name="Grupo 66393">
                  <path id="Trazado_106044" data-name="Trazado 106044" d="M1681.108,7548.572c-.023.022.051.129.114.269s.1.265.13.262.047-.148-.027-.309S1681.128,7548.549,1681.108,7548.572Z" transform="translate(-1681.104 -7548.568)" fill="#344154"/>
                </g>
              </g>
            </g>
            <g id="Grupo_66398" data-name="Grupo 66398" transform="translate(2.167 5.498)">
              <g id="Grupo_66397" data-name="Grupo 66397">
                <g id="Grupo_66396" data-name="Grupo 66396">
                  <path id="Trazado_106045" data-name="Trazado 106045" d="M1679.966,7547.163c-.022.022.039.12.136.218s.194.159.217.137-.039-.119-.136-.217S1679.988,7547.141,1679.966,7547.163Z" transform="translate(-1679.962 -7547.159)" fill="#344154"/>
                </g>
              </g>
            </g>
            <g id="Grupo_66401" data-name="Grupo 66401" transform="translate(1.18 5.06)">
              <g id="Grupo_66400" data-name="Grupo 66400">
                <g id="Grupo_66399" data-name="Grupo 66399">
                  <path id="Trazado_106046" data-name="Trazado 106046" d="M1678.342,7546.494c.007.031.131.03.269.077s.237.121.261.1-.054-.151-.225-.207S1678.332,7546.465,1678.342,7546.494Z" transform="translate(-1678.341 -7546.439)" fill="#344154"/>
                </g>
              </g>
            </g>
            <g id="Grupo_66404" data-name="Grupo 66404" transform="translate(0.473 4.91)">
              <g id="Grupo_66403" data-name="Grupo 66403">
                <g id="Grupo_66402" data-name="Grupo 66402">
                  <path id="Trazado_106047" data-name="Trazado 106047" d="M1677.183,7546.214c-.012.03.043.078.121.107s.15.03.161,0-.043-.077-.121-.106S1677.194,7546.186,1677.183,7546.214Z" transform="translate(-1677.181 -7546.193)" fill="#344154"/>
                </g>
              </g>
            </g>
          </g>
        </g>
        <g id="Grupo_66456" data-name="Grupo 66456" transform="translate(0 92.696)">
          <g id="Grupo_66455" data-name="Grupo 66455">
            <g id="Grupo_66409" data-name="Grupo 66409">
              <g id="Grupo_66408" data-name="Grupo 66408">
                <g id="Grupo_66407" data-name="Grupo 66407">
                  <path id="Trazado_106048" data-name="Trazado 106048" d="M1596.679,7528.576l2.646-4.243-7.916-5.006-3.936,6.166.47.343c2.108,1.5,10.822,7.492,12.562,7.973C1602.447,7534.344,1596.679,7528.576,1596.679,7528.576Z" transform="translate(-1587.473 -7519.327)" fill="#6595bf"/>
                </g>
              </g>
            </g>
            <g id="Grupo_66412" data-name="Grupo 66412" transform="translate(0.003 5.913)">
              <g id="Grupo_66411" data-name="Grupo 66411">
                <g id="Grupo_66410" data-name="Grupo 66410">
                  <path id="Trazado_106049" data-name="Trazado 106049" d="M1587.478,7529.03a.752.752,0,0,0,.127.1l.376.271,1.4.973c1.187.813,2.842,1.915,4.7,3.091s3.556,2.2,4.8,2.932l1.476.851.405.224a.9.9,0,0,0,.145.071.848.848,0,0,0-.133-.091l-.394-.243-1.458-.882c-1.23-.745-2.924-1.783-4.777-2.958s-3.514-2.265-4.711-3.062l-1.419-.942-.388-.253A.97.97,0,0,0,1587.478,7529.03Z" transform="translate(-1587.478 -7529.03)" fill="#344154"/>
                </g>
              </g>
            </g>
            <g id="Grupo_66415" data-name="Grupo 66415" transform="translate(10.523 12.096)">
              <g id="Grupo_66414" data-name="Grupo 66414">
                <g id="Grupo_66413" data-name="Grupo 66413">
                  <path id="Trazado_106050" data-name="Trazado 106050" d="M1604.745,7539.964a3.831,3.831,0,0,1,.7-.517,3.762,3.762,0,0,1,.839-.239,1.512,1.512,0,0,0-1.542.756Z" transform="translate(-1604.742 -7539.178)" fill="#344154"/>
                </g>
              </g>
            </g>
            <g id="Grupo_66418" data-name="Grupo 66418" transform="translate(8.94 9.819)">
              <g id="Grupo_66417" data-name="Grupo 66417">
                <g id="Grupo_66416" data-name="Grupo 66416">
                  <path id="Trazado_106051" data-name="Trazado 106051" d="M1602.144,7535.841a.993.993,0,0,0,.442-.146c.231-.109.407-.22.394-.248s-.212.037-.442.145S1602.131,7535.813,1602.144,7535.841Z" transform="translate(-1602.144 -7535.441)" fill="#344154"/>
                </g>
              </g>
            </g>
            <g id="Grupo_66421" data-name="Grupo 66421" transform="translate(8.514 9.323)">
              <g id="Grupo_66420" data-name="Grupo 66420">
                <g id="Grupo_66419" data-name="Grupo 66419">
                  <path id="Trazado_106052" data-name="Trazado 106052" d="M1601.446,7534.778c.005.031.183.027.4-.01s.383-.09.378-.121-.183-.026-.4.01S1601.441,7534.748,1601.446,7534.778Z" transform="translate(-1601.446 -7534.627)" fill="#344154"/>
                </g>
              </g>
            </g>
            <g id="Grupo_66424" data-name="Grupo 66424" transform="translate(8.581 8.467)">
              <g id="Grupo_66423" data-name="Grupo 66423">
                <g id="Grupo_66422" data-name="Grupo 66422">
                  <path id="Trazado_106053" data-name="Trazado 106053" d="M1601.557,7533.226c-.018.026.152.167.379.314s.425.245.442.219-.153-.167-.38-.313S1601.574,7533.2,1601.557,7533.226Z" transform="translate(-1601.556 -7533.221)" fill="#344154"/>
                </g>
              </g>
            </g>
            <g id="Grupo_66427" data-name="Grupo 66427" transform="translate(8.775 7.855)">
              <g id="Grupo_66426" data-name="Grupo 66426">
                <g id="Grupo_66425" data-name="Grupo 66425">
                  <path id="Trazado_106054" data-name="Trazado 106054" d="M1601.875,7532.221c-.024.017.12.235.375.425a.964.964,0,0,0,.516.238c.013-.031-.206-.147-.448-.329S1601.9,7532.2,1601.875,7532.221Z" transform="translate(-1601.873 -7532.219)" fill="#344154"/>
                </g>
              </g>
            </g>
            <g id="Grupo_66430" data-name="Grupo 66430" transform="translate(9.635 9.455)">
              <g id="Grupo_66429" data-name="Grupo 66429">
                <g id="Grupo_66428" data-name="Grupo 66428">
                  <path id="Trazado_106055" data-name="Trazado 106055" d="M1603.3,7535.087a1.733,1.733,0,0,0,.511.318,3.5,3.5,0,0,0,.617.224,1.772,1.772,0,0,0,.391.068.324.324,0,0,0,.225-.078.237.237,0,0,0,.052-.252,1.1,1.1,0,0,0-1.326-.457,1.086,1.086,0,0,0-.381.234c-.075.074-.1.125-.1.128a1.72,1.72,0,0,1,.506-.286,1.081,1.081,0,0,1,.613-.007.934.934,0,0,1,.58.424c.043.111-.049.187-.172.183a1.777,1.777,0,0,1-.363-.06,3.957,3.957,0,0,1-.61-.195C1603.5,7535.194,1603.305,7535.071,1603.3,7535.087Z" transform="translate(-1603.284 -7534.843)" fill="#344154"/>
                </g>
              </g>
            </g>
            <g id="Grupo_66433" data-name="Grupo 66433" transform="translate(9.518 8.487)">
              <g id="Grupo_66432" data-name="Grupo 66432">
                <g id="Grupo_66431" data-name="Grupo 66431">
                  <path id="Trazado_106056" data-name="Trazado 106056" d="M1603.337,7534.575c0,.011.161-.072.282-.315a1,1,0,0,0,.1-.46.607.607,0,0,0-.26-.527.24.24,0,0,0-.305.136.663.663,0,0,0-.057.282,1.808,1.808,0,0,0,.045.459.876.876,0,0,0,.161.391c.016-.007-.044-.155-.082-.405a2.156,2.156,0,0,1-.019-.439c0-.151.073-.376.215-.317s.185.277.2.428a.988.988,0,0,1-.065.422A2.227,2.227,0,0,1,1603.337,7534.575Z" transform="translate(-1603.093 -7533.254)" fill="#344154"/>
                </g>
              </g>
            </g>
            <g id="Grupo_66436" data-name="Grupo 66436" transform="translate(1.535 3.849)">
              <g id="Grupo_66435" data-name="Grupo 66435">
                <g id="Grupo_66434" data-name="Grupo 66434">
                  <path id="Trazado_106057" data-name="Trazado 106057" d="M1589.993,7525.645c-.009.02.24.123.571.391a2.933,2.933,0,0,1,1.026,2.964c-.094.416-.227.651-.208.66a.536.536,0,0,0,.1-.16,2.466,2.466,0,0,0,.184-.481,2.845,2.845,0,0,0-1.055-3.047,2.5,2.5,0,0,0-.442-.265A.563.563,0,0,0,1589.993,7525.645Z" transform="translate(-1589.993 -7525.644)" fill="#344154"/>
                </g>
              </g>
            </g>
            <g id="Grupo_66439" data-name="Grupo 66439" transform="translate(2.339 1.077)">
              <g id="Grupo_66438" data-name="Grupo 66438">
                <g id="Grupo_66437" data-name="Grupo 66437">
                  <path id="Trazado_106058" data-name="Trazado 106058" d="M1593.414,7521.095a16.184,16.184,0,0,0-1.1,1.582,16.386,16.386,0,0,0-1,1.644,16.171,16.171,0,0,0,1.1-1.582A16.448,16.448,0,0,0,1593.414,7521.095Z" transform="translate(-1591.312 -7521.094)" fill="#344154"/>
                </g>
              </g>
            </g>
            <g id="Grupo_66442" data-name="Grupo 66442" transform="translate(4.393 7.777)">
              <g id="Grupo_66441" data-name="Grupo 66441">
                <g id="Grupo_66440" data-name="Grupo 66440">
                  <path id="Trazado_106059" data-name="Trazado 106059" d="M1594.683,7532.091a7.71,7.71,0,0,0,2.3,1.486c.015-.029-.521-.324-1.155-.735S1594.7,7532.064,1594.683,7532.091Z" transform="translate(-1594.682 -7532.089)" fill="#344154"/>
                </g>
              </g>
            </g>
            <g id="Grupo_66445" data-name="Grupo 66445" transform="translate(2.753 6.793)">
              <g id="Grupo_66444" data-name="Grupo 66444">
                <g id="Grupo_66443" data-name="Grupo 66443">
                  <path id="Trazado_106060" data-name="Trazado 106060" d="M1592.082,7530.476c-.031.007-.027.136-.049.288s-.06.275-.032.291.12-.1.145-.274S1592.111,7530.467,1592.082,7530.476Z" transform="translate(-1591.991 -7530.475)" fill="#344154"/>
                </g>
              </g>
            </g>
            <g id="Grupo_66448" data-name="Grupo 66448" transform="translate(2.696 5.696)">
              <g id="Grupo_66447" data-name="Grupo 66447">
                <g id="Grupo_66446" data-name="Grupo 66446">
                  <path id="Trazado_106061" data-name="Trazado 106061" d="M1591.922,7528.675c-.031.006-.032.121,0,.256s.078.239.108.232.032-.122,0-.256S1591.952,7528.668,1591.922,7528.675Z" transform="translate(-1591.898 -7528.674)" fill="#344154"/>
                </g>
              </g>
            </g>
            <g id="Grupo_66451" data-name="Grupo 66451" transform="translate(2.093 4.823)">
              <g id="Grupo_66450" data-name="Grupo 66450">
                <g id="Grupo_66449" data-name="Grupo 66449">
                  <path id="Trazado_106062" data-name="Trazado 106062" d="M1590.909,7527.252c-.012.031.094.1.185.211s.135.229.167.225.035-.156-.079-.3S1590.917,7527.224,1590.909,7527.252Z" transform="translate(-1590.909 -7527.242)" fill="#344154"/>
                </g>
              </g>
            </g>
            <g id="Grupo_66454" data-name="Grupo 66454" transform="translate(1.587 4.296)">
              <g id="Grupo_66453" data-name="Grupo 66453">
                <g id="Grupo_66452" data-name="Grupo 66452">
                  <path id="Trazado_106063" data-name="Trazado 106063" d="M1590.089,7526.381c-.025.02-.005.088.044.155s.11.106.136.088.005-.089-.044-.156S1590.114,7526.362,1590.089,7526.381Z" transform="translate(-1590.078 -7526.376)" fill="#344154"/>
                </g>
              </g>
            </g>
          </g>
        </g>
        <g id="Grupo_66466" data-name="Grupo 66466" transform="translate(0.343)">
          <g id="Grupo_66463" data-name="Grupo 66463">
            <g id="Grupo_66459" data-name="Grupo 66459" transform="translate(0 0.723)">
              <g id="Grupo_66458" data-name="Grupo 66458">
                <g id="Grupo_66457" data-name="Grupo 66457">
                  <path id="Trazado_106064" data-name="Trazado 106064" d="M1633.176,7372.639s7.947,52.8,6.791,55.348-38.258,43.353-38.258,43.353l-13.673-9.059s32.407-40.8,32.163-41.783-12.281-52.106-12.281-52.106Z" transform="translate(-1588.036 -7368.392)" fill="#d9a171"/>
                </g>
              </g>
            </g>
            <g id="Grupo_66462" data-name="Grupo 66462" transform="translate(14.227)">
              <g id="Grupo_66461" data-name="Grupo 66461">
                <g id="Grupo_66460" data-name="Grupo 66460">
                  <path id="Trazado_106065" data-name="Trazado 106065" d="M1612.526,7367.2l-.48,1.96a23.067,23.067,0,0,0,2.423,17.016l21.549,37.352a30.005,30.005,0,0,1,3.3,8.491l9.728,43.143h15.009c0,.9-3.883-35.539-5.828-47.642-1.468-9.127-13.682-37.459-19.6-50.838l3.666-4.511-6.368-1.062Z" transform="translate(-1611.383 -7367.205)" fill="#d9a171"/>
                </g>
              </g>
            </g>
          </g>
          <g id="Grupo_66464" data-name="Grupo 66464" transform="translate(41.936 9.378)">
            <path id="Trazado_106066" data-name="Trazado 106066" d="M1656.86,7382.595a2.823,2.823,0,0,1,.332.594c.2.391.464.962.786,1.673.646,1.422,1.493,3.406,2.357,5.627s1.579,4.258,2.064,5.743c.242.741.43,1.345.55,1.765a2.812,2.812,0,0,1,.157.662,2.861,2.861,0,0,1-.274-.623l-.645-1.73c-.538-1.464-1.286-3.483-2.148-5.7s-1.675-4.21-2.267-5.652q-.409-1.009-.694-1.713A2.809,2.809,0,0,1,1656.86,7382.595Z" transform="translate(-1656.857 -7382.594)" fill="#344154"/>
          </g>
          <g id="Grupo_66465" data-name="Grupo 66465" transform="translate(25.997 34.028)">
            <path id="Trazado_106067" data-name="Trazado 106067" d="M1648.413,7461.021a2.308,2.308,0,0,1-.1-.422q-.083-.461-.218-1.212l-.15-.877q-.106-.479-.23-1.032c-.166-.741-.336-1.589-.605-2.507l-.393-1.446q-.237-.746-.493-1.548c-.321-1.077-.766-2.192-1.191-3.381-.926-2.35-2.051-4.891-3.366-7.494a141.075,141.075,0,0,0-7.573-12.873l-2.5-3.78-.677-1.029a.216.216,0,1,1,.052-.037l.727,1c.627.868,1.516,2.138,2.586,3.727a124.753,124.753,0,0,1,7.669,12.854c1.319,2.611,2.441,5.166,3.356,7.532.421,1.2.858,2.32,1.169,3.405q.247.809.478,1.562l.375,1.458c.257.924.412,1.779.562,2.525q.11.558.205,1.041l.122.884c.066.506.119.913.159,1.225A2.168,2.168,0,0,1,1648.413,7461.021Z" transform="translate(-1630.699 -7423.048)" fill="#344154"/>
          </g>
        </g>
        <g id="Grupo_66467" data-name="Grupo 66467" transform="translate(2.002 92.508)">
          <path id="Trazado_106068" data-name="Trazado 106068" d="M1604.778,7528a2.607,2.607,0,0,1-.626-.206,15.489,15.489,0,0,1-1.63-.75,37.969,37.969,0,0,1-4.956-3.222c-1.849-1.377-3.51-2.63-4.765-3.462s-2.066-1.291-2.041-1.337a2.638,2.638,0,0,1,.6.265c.381.185.915.488,1.56.884,1.294.788,2.988,2.019,4.833,3.395a48.69,48.69,0,0,0,4.875,3.28C1603.936,7527.588,1604.8,7527.947,1604.778,7528Z" transform="translate(-1590.759 -7519.019)" fill="#344154"/>
        </g>
        <g id="Grupo_66468" data-name="Grupo 66468" transform="translate(51.382 105.382)">
          <path id="Trazado_106069" data-name="Trazado 106069" d="M1687.622,7540.486a2.409,2.409,0,0,1-.624.035l-1.7-.013-5.593-.047-5.594.035-1.7.008a.314.314,0,1,1,0-.124c.4-.035.978-.073,1.694-.108,1.432-.072,3.413-.13,5.6-.128s4.168.065,5.6.141c.716.037,1.295.076,1.695.113A2.313,2.313,0,0,1,1687.622,7540.486Z" transform="translate(-1671.795 -7540.145)" fill="#344154"/>
        </g>
      </g>
      <g id="Grupo_66498" data-name="Grupo 66498" transform="translate(18.428 9.463)">
        <path id="Trazado_106070" data-name="Trazado 106070" d="M1624.886,7263.139a6.833,6.833,0,0,1-3.86-.583,3.629,3.629,0,0,1-2.033-3.159,11.816,11.816,0,0,0,.232-2.3,7.277,7.277,0,0,0-1.059-2.058,4.267,4.267,0,0,1,1.145-5.225,16.023,16.023,0,0,0,2.487-1.674c.793-.886.919-2.164,1.4-3.25a5.259,5.259,0,0,1,3.914-3,16.819,16.819,0,0,0,2.808-.343,9.615,9.615,0,0,0,2.077-1.236,9.612,9.612,0,0,1,7.164-1.343,5.751,5.751,0,0,1,2.9,1.429c.869.865,1.994,1.8,2.308,2.988a9.539,9.539,0,0,1-.459,4.55,3.738,3.738,0,0,1-2.935,2.845" transform="translate(-1617.715 -7238.774)" fill="#344154"/>
        <g id="Grupo_66488" data-name="Grupo 66488" transform="translate(4.441 6.173)">
          <g id="Grupo_66485" data-name="Grupo 66485">
            <g id="Grupo_66478" data-name="Grupo 66478" transform="translate(2.422)">
              <g id="Grupo_66477" data-name="Grupo 66477">
                <g id="Grupo_66471" data-name="Grupo 66471">
                  <g id="Grupo_66470" data-name="Grupo 66470">
                    <path id="Trazado_106071" data-name="Trazado 106071" d="M1628.978,7277.873l11.443.163c.2-1.319.584-6.458.584-6.458s4.795-.29,5.3-5.009.706-15.646.706-15.646h0a16.493,16.493,0,0,0-16.7.521l-.751.473Z" transform="translate(-1628.978 -7248.905)" fill="#ffbf9d"/>
                  </g>
                </g>
                <g id="Grupo_66474" data-name="Grupo 66474" transform="translate(12.408 8.893)">
                  <g id="Grupo_66473" data-name="Grupo 66473">
                    <g id="Grupo_66472" data-name="Grupo 66472">
                      <path id="Trazado_106072" data-name="Trazado 106072" d="M1649.34,7269.191a3.171,3.171,0,0,1,1.074-.123c.172,0,.309-.029.33-.12a.93.93,0,0,0-.075-.5c-.127-.446-.256-.9-.39-1.371a18.245,18.245,0,0,1-.787-3.581,18.186,18.186,0,0,1,1.146,3.482l.362,1.379a1.09,1.09,0,0,1,.026.716.448.448,0,0,1-.319.244,1.078,1.078,0,0,1-.294.01A3.169,3.169,0,0,1,1649.34,7269.191Z" transform="translate(-1649.34 -7263.498)" fill="#344154"/>
                    </g>
                  </g>
                </g>
                <g id="Grupo_66476" data-name="Grupo 66476" transform="translate(6.047 20.274)">
                  <g id="Grupo_66475" data-name="Grupo 66475">
                    <path id="Trazado_106073" data-name="Trazado 106073" d="M1644.9,7284.507a11.035,11.035,0,0,1-5.995-2.33s1.136,3.537,5.891,3.555Z" transform="translate(-1638.901 -7282.177)" fill="#ff9a6c"/>
                  </g>
                </g>
              </g>
            </g>
            <g id="Grupo_66484" data-name="Grupo 66484" transform="translate(0 7.934)">
              <g id="Grupo_66480" data-name="Grupo 66480">
                <g id="Grupo_66479" data-name="Grupo 66479">
                  <path id="Trazado_106074" data-name="Trazado 106074" d="M1628.067,7261.97c-.094-.04-3.235-.552-3.057,3.183s3.891,2.319,3.892,2.212S1628.067,7261.97,1628.067,7261.97Z" transform="translate(-1625.003 -7261.925)" fill="#ffbf9d"/>
                </g>
              </g>
              <g id="Grupo_66483" data-name="Grupo 66483" transform="translate(0.957 1.263)">
                <g id="Grupo_66482" data-name="Grupo 66482">
                  <g id="Grupo_66481" data-name="Grupo 66481">
                    <path id="Trazado_106075" data-name="Trazado 106075" d="M1628.309,7266.918c-.017-.011-.063.048-.171.1a.651.651,0,0,1-.486.033,1.611,1.611,0,0,1-.813-1.409,2.148,2.148,0,0,1,.138-.94.751.751,0,0,1,.466-.522.331.331,0,0,1,.392.159c.055.1.035.178.055.184s.077-.066.04-.219a.419.419,0,0,0-.158-.227.492.492,0,0,0-.365-.079.916.916,0,0,0-.652.612,2.2,2.2,0,0,0-.176,1.051,1.689,1.689,0,0,0,1.025,1.567.7.7,0,0,0,.59-.126C1628.307,7267.009,1628.323,7266.925,1628.309,7266.918Z" transform="translate(-1626.573 -7263.997)" fill="#ff9a6c"/>
                  </g>
                </g>
              </g>
            </g>
          </g>
          <g id="Grupo_66486" data-name="Grupo 66486" transform="translate(10.571 7.061)">
            <path id="Trazado_106076" data-name="Trazado 106076" d="M1642.365,7261.317c-.051-.066.038-.243.28-.43a2.183,2.183,0,0,1,2.252-.154c.265.151.377.314.336.387-.093.154-.7-.052-1.44.011C1643.051,7261.17,1642.479,7261.458,1642.365,7261.317Z" transform="translate(-1642.351 -7260.492)" fill="#344154"/>
          </g>
          <g id="Grupo_66487" data-name="Grupo 66487" transform="translate(17.207 7.522)">
            <path id="Trazado_106077" data-name="Trazado 106077" d="M1653.242,7261.654c-.032-.17.479-.408,1.15-.405s1.181.242,1.148.412-.544.223-1.15.223S1653.274,7261.828,1653.242,7261.654Z" transform="translate(-1653.241 -7261.249)" fill="#344154"/>
          </g>
        </g>
        <path id="Trazado_106078" data-name="Trazado 106078" d="M1628.091,7251.008q.266,1.724.532,3.445a2.864,2.864,0,0,0,.547,1.521,2.048,2.048,0,0,0,2.5.159,5.965,5.965,0,0,0,2.247-3.164,9.784,9.784,0,0,1,1.835-3.471,4.546,4.546,0,0,0,5.247.967c.761-.383,1.4-.976,2.126-1.415a2.792,2.792,0,0,1,2.432-.39c.432.179.82.533,1.287.513a1.04,1.04,0,0,0,.838-.576,1.785,1.785,0,0,0,.154-1.038,4.079,4.079,0,0,0-2.431-2.953,12.611,12.611,0,0,0-5.56-.954,20.971,20.971,0,0,0-5.362.531,9.268,9.268,0,0,0-4.62,2.65,5.988,5.988,0,0,0-1.531,4.986" transform="translate(-1621.768 -7240.68)" fill="#344154"/>
        <path id="Trazado_106079" data-name="Trazado 106079" d="M1652.315,7248.288a5.651,5.651,0,0,0,1.8,3.12,2.419,2.419,0,0,0,1.581.709,1.961,1.961,0,0,0,1.724-1.958,3.735,3.735,0,0,0-1.168-2.552,3.542,3.542,0,0,0-2.378-1.255,1.814,1.814,0,0,0-1.9,1.594" transform="translate(-1631.097 -7241.734)" fill="#344154"/>
        <g id="Grupo_66492" data-name="Grupo 66492" transform="translate(14.72 14.522)">
          <g id="Grupo_66489" data-name="Grupo 66489" transform="translate(0.994 0.751)">
            <path id="Trazado_106080" data-name="Trazado 106080" d="M1643.5,7264.393a.6.6,0,0,0,.59.592.572.572,0,0,0,.606-.552.6.6,0,0,0-.589-.594A.574.574,0,0,0,1643.5,7264.393Z" transform="translate(-1643.503 -7263.838)" fill="#344154"/>
          </g>
          <g id="Grupo_66491" data-name="Grupo 66491">
            <g id="Grupo_66490" data-name="Grupo 66490">
              <path id="Trazado_106081" data-name="Trazado 106081" d="M1641.881,7263.26c.076.077.523-.268,1.167-.279s1.123.3,1.191.221c.033-.035-.045-.175-.254-.321a1.646,1.646,0,0,0-.956-.273,1.577,1.577,0,0,0-.926.32C1641.908,7263.084,1641.844,7263.226,1641.881,7263.26Z" transform="translate(-1641.871 -7262.607)" fill="#344154"/>
            </g>
          </g>
        </g>
        <g id="Grupo_66496" data-name="Grupo 66496" transform="translate(21.447 14.621)">
          <g id="Grupo_66493" data-name="Grupo 66493" transform="translate(0.864 0.633)">
            <path id="Trazado_106082" data-name="Trazado 106082" d="M1654.329,7264.36a.6.6,0,0,0,.59.592.572.572,0,0,0,.606-.552.6.6,0,0,0-.589-.592A.573.573,0,0,0,1654.329,7264.36Z" transform="translate(-1654.329 -7263.808)" fill="#344154"/>
          </g>
          <g id="Grupo_66495" data-name="Grupo 66495">
            <g id="Grupo_66494" data-name="Grupo 66494">
              <path id="Trazado_106083" data-name="Trazado 106083" d="M1652.921,7263.421c.076.076.523-.269,1.167-.279s1.122.3,1.191.222c.033-.036-.044-.175-.254-.321a1.649,1.649,0,0,0-.956-.274,1.588,1.588,0,0,0-.927.32C1652.948,7263.244,1652.883,7263.387,1652.921,7263.421Z" transform="translate(-1652.911 -7262.767)" fill="#344154"/>
            </g>
          </g>
        </g>
        <g id="Grupo_66497" data-name="Grupo 66497" transform="translate(17.234 20.826)">
          <path id="Trazado_106084" data-name="Trazado 106084" d="M1647.88,7274.8c.006.04-.16.114-.449.1a1.559,1.559,0,0,1-1.433-1.5c-.005-.289.077-.453.116-.444.087,0,.02.7.544,1.247S1647.883,7274.712,1647.88,7274.8Z" transform="translate(-1645.998 -7272.951)" fill="#344154"/>
        </g>
      </g>
      <g id="Grupo_66500" data-name="Grupo 66500" transform="translate(39.634 53.365)">
        <g id="Grupo_66499" data-name="Grupo 66499">
          <path id="Trazado_106085" data-name="Trazado 106085" d="M1652.583,7314l9.51-3.18s6.622,15.662,8.327,15.817c9.441.861,19.542-2.269,23.084-3.506.359-.4.77-.889,1.227-1.482a5.646,5.646,0,0,0,.889-1.7,8.642,8.642,0,0,0,.506-2.333.741.741,0,0,1,1.273-.583c.409.528.512,2.551-.419,4.728s2.367.445,3.58-.164,5.056-2.318,5.538-2.094c.708.329.486,1.149-.74,1.729s-4.779,2.58-4.426,3.2,6.482-2.57,6.482-2.57,1.2-.893,1.633-.185c.779,1.279-5.993,4.186-6.644,4.446-.452.182-.093.875.383.654s6.045-3.321,6.85-2.026c.617.993-5.547,2.443-6.343,3.724s4.564-1.575,5.114-.6c.205.362.308.661-3.006,1.856a70.59,70.59,0,0,1-7.388,1.886l.012.034s-34.116,15.267-40.251.534C1651.522,7317.185,1652.583,7314,1652.583,7314Z" transform="translate(-1652.515 -7310.821)" fill="#ff9a6c"/>
        </g>
      </g>
      <path id="Trazado_106086" data-name="Trazado 106086" d="M1647.57,7308.31c-3.805-8.915-8.795-12.408-11.426-13.7a7.658,7.658,0,0,0-2.946-.757h0l-.316-1.532-12.616-1.136-.309,1.95-1.851-.1s-10.876,1.088-10.9,13.687c-.009,5.893,3.173,11.626,4.3,14.434.7,5.877-1.821,16.529-1.752,19.128l30.913,2.193,1.308-19.323-.289-1.812,10.175-3.115Zm-27.3-15.155Z" transform="translate(-1595.183 -7249.786)" fill="#ececec"/>
      <g id="Grupo_66504" data-name="Grupo 66504" transform="translate(34.954)">
        <g id="Grupo_66501" data-name="Grupo 66501">
          <path id="Trazado_106087" data-name="Trazado 106087" d="M1732.59,7240.762a35.915,35.915,0,0,0-63.663,18.736h0a35.892,35.892,0,0,0,12.125,30.873l-31.438,36.893,4.511,3.846,31.7-37.205a35.718,35.718,0,0,0,14.994,5.123,36.622,36.622,0,0,0,3.885.208,35.919,35.919,0,0,0,27.883-58.474Zm1.867,25.739a29.988,29.988,0,1,1-6.48-22.017A29.794,29.794,0,0,1,1734.457,7266.5Z" transform="translate(-1646.702 -7224.867)" fill="#344154"/>
          <path id="Trazado_106088" data-name="Trazado 106088" d="M1728.193,7236.609a35.916,35.916,0,0,0-63.663,18.736h0a35.89,35.89,0,0,0,12.125,30.872l-31.818,37.2,4.822,3.858,31.773-37.52a35.69,35.69,0,0,0,14.994,5.123,36.471,36.471,0,0,0,3.885.208,35.919,35.919,0,0,0,27.883-58.473Zm1.866,25.74a29.986,29.986,0,1,1-6.479-22.019A29.792,29.792,0,0,1,1730.06,7262.349Z" transform="translate(-1644.836 -7223.245)" fill="#6595bf"/>
        </g>
        <g id="Grupo_66502" data-name="Grupo 66502" transform="translate(32.601 22.589)">
          <path id="Trazado_106089" data-name="Trazado 106089" d="M1704.843,7293.1a1.43,1.43,0,0,1-.237-.264c-.144-.182-.369-.441-.624-.8a27.452,27.452,0,0,1-2-3.155,29.708,29.708,0,0,1-2.033-23.924,27.149,27.149,0,0,1,1.44-3.446c.191-.4.369-.692.479-.9a1.507,1.507,0,0,1,.189-.3,1.528,1.528,0,0,1-.133.33c-.092.212-.251.515-.424.918a32.656,32.656,0,0,0-1.339,3.464,30.521,30.521,0,0,0,2.018,23.748,32.516,32.516,0,0,0,1.9,3.188c.239.369.447.64.573.834A1.523,1.523,0,0,1,1704.843,7293.1Z" transform="translate(-1698.336 -7260.315)" fill="#344154"/>
        </g>
        <g id="Grupo_66503" data-name="Grupo 66503" transform="translate(39.214 18.483)">
          <path id="Trazado_106090" data-name="Trazado 106090" d="M1710.582,7253.588c.053.074-.312.415-.678.895s-.6.917-.69.885.036-.558.439-1.079S1710.537,7253.518,1710.582,7253.588Z" transform="translate(-1709.19 -7253.577)" fill="#344154"/>
        </g>
      </g>
      <g id="Grupo_66526" data-name="Grupo 66526" transform="translate(12.743 41.696)">
        <g id="Grupo_66506" data-name="Grupo 66506" transform="translate(31.216 10.094)">
          <g id="Grupo_66505" data-name="Grupo 66505">
            <path id="Trazado_106091" data-name="Trazado 106091" d="M1659.62,7308.235a4.615,4.615,0,0,1,.221.843c.123.545.283,1.337.467,2.32.369,1.965.813,4.692,1.188,7.721s.606,5.783.726,7.779c.061,1,.1,1.807.112,2.365a.436.436,0,1,1-.123.007l-.212-2.354c-.178-1.989-.445-4.734-.818-7.758s-.782-5.749-1.094-7.723c-.148-.939-.271-1.725-.368-2.336A4.485,4.485,0,0,1,1659.62,7308.235Z" transform="translate(-1659.614 -7308.235)" fill="#344154"/>
          </g>
        </g>
        <g id="Grupo_66508" data-name="Grupo 66508" transform="translate(2.543 19.221)">
          <g id="Grupo_66507" data-name="Grupo 66507">
            <path id="Trazado_106092" data-name="Trazado 106092" d="M1658.054,7344.02s-34.1,15.3-40.239.567c-6.25-15.009-5.189-18.193-5.189-18.193l9.509-3.18s6.623,15.662,8.327,15.817c9.441.861,19.543-2.269,23.085-3.507.36-.4.77-.889,1.227-1.482.392-.509.8-1.243,1.2-1.745a12.52,12.52,0,0,1,2.007-1.761c.942-1.066,1.8-.287,1.392.286a10.26,10.26,0,0,0-2.353,3.337c-.932,2.175,2.388,1.106,3.7.761,1.453-.382,4.179-1.441,4.179-1.441a3.191,3.191,0,0,1-1.885,2.5,19.4,19.4,0,0,1-2.044.851s2.521-.307,2.589.269-.747,4.824-3.428,6.087Z" transform="translate(-1612.559 -7323.214)" fill="#ffbf9d"/>
          </g>
        </g>
        <path id="Trazado_106093" data-name="Trazado 106093" d="M1618.289,7300.808l6.126,18.509-13.408,5.3s-7-18.176,1.863-22.624Z" transform="translate(-1608.385 -7295.24)" fill="#ececec"/>
        <g id="Grupo_66515" data-name="Grupo 66515" transform="translate(2.59 2.84)">
          <g id="Grupo_66509" data-name="Grupo 66509" transform="translate(3.719)">
            <path id="Trazado_106094" data-name="Trazado 106094" d="M1629.352,7316.846c-.007.006-.075-.047-.182-.172a3.458,3.458,0,0,1-.4-.6,20.527,20.527,0,0,1-.967-2.436c-.751-2.073-1.768-4.946-2.872-8.125-.547-1.588-1.068-3.1-1.545-4.486a11.132,11.132,0,0,0-1.547-3.479,2.827,2.827,0,0,0-2.191-1.09,2.771,2.771,0,0,0-.908.219c0-.007.061-.065.205-.146a1.819,1.819,0,0,1,.7-.2,2.9,2.9,0,0,1,2.369,1.067,10.877,10.877,0,0,1,1.651,3.528l1.569,4.478c1.1,3.179,2.088,6.063,2.784,8.156.354,1.045.6,1.9.865,2.453S1629.374,7316.828,1629.352,7316.846Z" transform="translate(-1618.738 -7296.332)" fill="#344154"/>
          </g>
          <g id="Grupo_66510" data-name="Grupo 66510" transform="translate(0 20.857)">
            <path id="Trazado_106095" data-name="Trazado 106095" d="M1626.682,7330.563a2.216,2.216,0,0,1-.507.318c-.336.187-.829.444-1.445.749-1.23.611-2.957,1.4-4.9,2.189s-3.739,1.41-5.049,1.824c-.655.208-1.188.365-1.559.463a2.2,2.2,0,0,1-.586.124,17.665,17.665,0,0,1,2.074-.8c1.288-.468,3.063-1.125,5-1.907s3.673-1.54,4.925-2.1A18.067,18.067,0,0,1,1626.682,7330.563Z" transform="translate(-1612.635 -7330.559)" fill="#344154"/>
          </g>
          <g id="Grupo_66511" data-name="Grupo 66511" transform="translate(1.128 23.099)">
            <path id="Trazado_106096" data-name="Trazado 106096" d="M1615.591,7336.993a6.977,6.977,0,1,1-.4-1.435A3.585,3.585,0,0,1,1615.591,7336.993Z" transform="translate(-1614.485 -7334.239)" fill="#344154"/>
          </g>
          <g id="Grupo_66512" data-name="Grupo 66512" transform="translate(4.074 22.107)">
            <path id="Trazado_106097" data-name="Trazado 106097" d="M1620.31,7335.269c-.075.042-.446-.493-.714-1.243a2.578,2.578,0,0,1-.239-1.415,15.22,15.22,0,0,1,.952,2.658Z" transform="translate(-1619.321 -7332.61)" fill="#344154"/>
          </g>
          <g id="Grupo_66513" data-name="Grupo 66513" transform="translate(6.979 20.735)">
            <path id="Trazado_106098" data-name="Trazado 106098" d="M1625.143,7333.1c-.073.045-.475-.5-.761-1.278a2.663,2.663,0,0,1-.257-1.465,22.291,22.291,0,0,1,1.018,2.743Z" transform="translate(-1624.089 -7330.359)" fill="#344154"/>
          </g>
          <g id="Grupo_66514" data-name="Grupo 66514" transform="translate(10.271 19.275)">
            <path id="Trazado_106099" data-name="Trazado 106099" d="M1630.429,7330.883a7.452,7.452,0,1,1-.305-1.507A3.839,3.839,0,0,1,1630.429,7330.883Z" transform="translate(-1629.491 -7327.963)" fill="#344154"/>
          </g>
        </g>
        <g id="Grupo_66520" data-name="Grupo 66520" transform="translate(33.759 24.595)">
          <g id="Grupo_66516" data-name="Grupo 66516" transform="translate(0 1.94)">
            <path id="Trazado_106100" data-name="Trazado 106100" d="M1674.207,7335.225a94.214,94.214,0,0,1-10.421,3.318,94.214,94.214,0,0,1,10.421-3.318Z" transform="translate(-1663.786 -7335.218)" fill="#344154"/>
          </g>
          <g id="Grupo_66517" data-name="Grupo 66517" transform="translate(1.324 1.973)">
            <path id="Trazado_106101" data-name="Trazado 106101" d="M1666.888,7337.4c-.081.034-.349-.414-.6-1s-.387-1.089-.307-1.125.349.414.6,1S1666.969,7337.362,1666.888,7337.4Z" transform="translate(-1665.959 -7335.27)" fill="#344154"/>
          </g>
          <g id="Grupo_66518" data-name="Grupo 66518" transform="translate(4.135 0.967)">
            <path id="Trazado_106102" data-name="Trazado 106102" d="M1671.314,7336.159c-.08.032-.369-.5-.563-1.21a2.4,2.4,0,0,1-.132-1.328c.088-.014.247.551.438,1.244A3.592,3.592,0,0,1,1671.314,7336.159Z" transform="translate(-1670.571 -7333.621)" fill="#344154"/>
          </g>
          <g id="Grupo_66519" data-name="Grupo 66519" transform="translate(7.123)">
            <path id="Trazado_106103" data-name="Trazado 106103" d="M1676.048,7334.637a5.648,5.648,0,1,1-.11-1.333A2.927,2.927,0,0,1,1676.048,7334.637Z" transform="translate(-1675.475 -7332.033)" fill="#344154"/>
          </g>
        </g>
        <g id="Grupo_66521" data-name="Grupo 66521" transform="translate(13.474)">
          <path id="Trazado_106104" data-name="Trazado 106104" d="M1630.611,7293.158c-.087-.006-.135-.344-.105-.755s.123-.739.211-.732.135.344.105.755S1630.7,7293.164,1630.611,7293.158Z" transform="translate(-1630.497 -7291.671)" fill="#344154"/>
        </g>
        <g id="Grupo_66522" data-name="Grupo 66522" transform="translate(16.176 0.161)">
          <path id="Trazado_106105" data-name="Trazado 106105" d="M1635.121,7293.422c-.087,0-.172-.327-.188-.737s.041-.747.129-.75.172.327.189.738S1635.209,7293.419,1635.121,7293.422Z" transform="translate(-1634.93 -7291.935)" fill="#344154"/>
        </g>
        <g id="Grupo_66523" data-name="Grupo 66523" transform="translate(18.362 0.479)">
          <path id="Trazado_106106" data-name="Trazado 106106" d="M1638.671,7294c-.088,0-.156-.346-.152-.771s.077-.77.165-.769.156.346.153.771S1638.759,7294,1638.671,7294Z" transform="translate(-1638.519 -7292.457)" fill="#344154"/>
        </g>
        <g id="Grupo_66524" data-name="Grupo 66524" transform="translate(21.144 0.531)">
          <path id="Trazado_106107" data-name="Trazado 106107" d="M1643.356,7294.35c-.083.021-.257-.373-.271-.9s.133-.928.216-.911.085.418.1.9S1643.443,7294.328,1643.356,7294.35Z" transform="translate(-1643.084 -7292.542)" fill="#344154"/>
        </g>
        <g id="Grupo_66525" data-name="Grupo 66525" transform="translate(23.506 0.533)">
          <path id="Trazado_106108" data-name="Trazado 106108" d="M1647.26,7294.351c-.087.011-.206-.386-.266-.884s-.038-.911.049-.921.206.385.266.883S1647.347,7294.341,1647.26,7294.351Z" transform="translate(-1646.961 -7292.545)" fill="#344154"/>
        </g>
      </g>
    </g>
  </g>
</svg>
