<svg xmlns="http://www.w3.org/2000/svg" width="223.355" height="223.355" viewBox="0 0 223.355 223.355">
  <g id="Grupo_76740" data-name="Grupo 76740" transform="translate(-1099.879 -7371.677)">
    <g id="Grupo_76737" data-name="Grupo 76737" transform="translate(1102.194 7373.347)">
      <path id="Trazado_11211" data-name="Trazado 11211" d="M423.857,7254.914q5.374,0,10.719.524t10.615,1.576q5.271,1.047,10.412,2.606t10.1,3.617q4.964,2.055,9.7,4.588t9.205,5.518q4.466,2.984,8.62,6.393t7.952,7.207q3.8,3.8,7.207,7.951t6.392,8.62q2.986,4.468,5.517,9.205t4.589,9.7q2.056,4.96,3.616,10.1t2.607,10.41q1.049,5.269,1.576,10.615t.527,10.72q0,5.37-.527,10.719t-1.576,10.615q-1.046,5.269-2.607,10.41t-3.616,10.1q-2.056,4.964-4.589,9.7t-5.517,9.205q-2.983,4.466-6.392,8.62t-7.207,7.952q-3.8,3.8-7.952,7.206t-8.62,6.395q-4.469,2.985-9.205,5.518t-9.7,4.587q-4.964,2.057-10.1,3.616t-10.412,2.608q-5.269,1.047-10.615,1.574t-10.719.526q-5.371,0-10.719-.526t-10.615-1.574q-5.269-1.049-10.41-2.608t-10.1-3.616q-4.964-2.054-9.7-4.587T363.1,7455.2q-4.466-2.987-8.62-6.395t-7.952-7.206q-3.8-3.8-7.207-7.952t-6.394-8.62q-2.983-4.466-5.517-9.205t-4.589-9.7q-2.054-4.963-3.615-10.1t-2.608-10.41q-1.046-5.269-1.574-10.615t-.527-10.719q0-5.375.527-10.72t1.574-10.615q1.049-5.272,2.608-10.41t3.615-10.1q2.056-4.964,4.589-9.7t5.517-9.205q2.986-4.465,6.394-8.62t7.207-7.951q3.8-3.8,7.952-7.207t8.62-6.393q4.466-2.985,9.205-5.518t9.7-4.588q4.964-2.057,10.1-3.617t10.41-2.606q5.269-1.049,10.615-1.576T423.857,7254.914Z" transform="translate(-314.498 -7254.914)" fill="#12263f"/>
    </g>
    <ellipse id="Elipse_4171" data-name="Elipse 4171" cx="102.724" cy="102.724" rx="102.724" ry="102.724" transform="translate(1108.831 7379.983)" fill="#fff"/>
    <g id="Grupo_76738" data-name="Grupo 76738" transform="translate(1117.216 7389.26)">
      <ellipse id="Elipse_374" data-name="Elipse 374" cx="93.446" cy="93.446" rx="93.446" ry="93.446" transform="translate(0)" fill="#aed3f2"/>
    </g>
    <g id="Grupo_76739" data-name="Grupo 76739" transform="translate(1099.879 7371.677)">
      <ellipse id="Elipse_381" data-name="Elipse 381" cx="92.833" cy="92.833" rx="92.833" ry="92.833" transform="translate(0 180.699) rotate(-76.717)" fill="#f6e7db"/>
      <path id="Trazado_11215" data-name="Trazado 11215" d="M492.826,7356.468l-47.6-47.592c0-.015-.015-.029-.024-.038s-.024-.025-.037-.034a2.34,2.34,0,0,0-1.654-.661H416.547l-10.723-10.718a5.991,5.991,0,0,0-10.232,4.227v6.491H359.659a2.362,2.362,0,0,0-1.686.7,2.436,2.436,0,0,0-.709,1.7,2.4,2.4,0,0,0,.709,1.693l5.913,5.912L351.668,7339.3h-1.59a18.133,18.133,0,0,0,5.353,12.892l23.775,23.775h-7.34a3.6,3.6,0,0,0-3.6,3.6v3.595h.015l47.93,47.93A92.9,92.9,0,0,0,492.826,7356.468Z" transform="translate(-289.906 -7227.73)" fill="#e8d3c1"/>
      <g id="Grupo_667" data-name="Grupo 667" transform="translate(60.172 67.931)">
        <g id="Grupo_665" data-name="Grupo 665" transform="translate(0 14.873)">
          <g id="Grupo_663" data-name="Grupo 663">
            <path id="Trazado_11216" data-name="Trazado 11216" d="M382.542,7335.209,367.76,7309.6l-14.782,25.606-2.077-1.2,16.859-29.2,16.858,29.2Z" transform="translate(-349.562 -7304.808)" fill="#fff"/>
            <path id="Trazado_11217" data-name="Trazado 11217" d="M350.078,7322.5a18.2,18.2,0,1,0,36.4,0Z" transform="translate(-350.078 -7293.733)" fill="#343b43"/>
          </g>
          <g id="Grupo_664" data-name="Grupo 664" transform="translate(66.614)">
            <path id="Trazado_11218" data-name="Trazado 11218" d="M423.512,7335.209,408.726,7309.6l-14.781,25.606-2.077-1.2,16.858-29.2,16.858,29.2Z" transform="translate(-390.527 -7304.808)" fill="#fff"/>
            <path id="Trazado_11219" data-name="Trazado 11219" d="M391.043,7322.5a18.2,18.2,0,1,0,36.4,0Z" transform="translate(-391.043 -7293.733)" fill="#343b43"/>
          </g>
        </g>
        <path id="Trazado_11220" data-name="Trazado 11220" d="M442.437,7304.036a2.4,2.4,0,0,0-1.7-.7H356.892a2.4,2.4,0,0,0,0,4.791h83.849a2.4,2.4,0,0,0,1.7-4.092Z" transform="translate(-347.311 -7290.855)" fill="#343b43"/>
        <path id="Trazado_11221" data-name="Trazado 11221" d="M378.068,7373.568v-71.916a6,6,0,0,1,5.991-5.99h0a6,6,0,0,1,5.991,5.99v71.916Z" transform="translate(-332.553 -7295.662)" fill="#fff"/>
        <g id="Grupo_666" data-name="Grupo 666" transform="translate(47.915 11.284)">
          <path id="Trazado_11222" data-name="Trazado 11222" d="M386.73,7306.189a3.593,3.593,0,1,1-3.6-3.589A3.6,3.6,0,0,1,386.73,7306.189Z" transform="translate(-379.544 -7302.6)" fill="#343b43"/>
          <path id="Trazado_11223" data-name="Trazado 11223" d="M383.829,7305.382a1.5,1.5,0,1,1-1.5-1.492A1.5,1.5,0,0,1,383.829,7305.382Z" transform="translate(-378.739 -7301.793)" fill="#fff"/>
        </g>
        <rect id="Rectángulo_633" data-name="Rectángulo 633" width="29.948" height="2.395" transform="translate(36.531 77.907)" fill="#343b43"/>
        <path id="Trazado_11224" data-name="Trazado 11224" d="M427.884,7352.229H361.269v-3.59a3.587,3.587,0,0,1,3.6-3.6h59.43a3.59,3.59,0,0,1,3.59,3.6Z" transform="translate(-343.071 -7264.742)" fill="#343b43"/>
      </g>
    </g>
  </g>
</svg>
