<svg xmlns="http://www.w3.org/2000/svg" width="78.625" height="78.623" viewBox="0 0 78.625 78.623">
  <g id="Grupo_76766" data-name="Grupo 76766" transform="translate(-405.683 -10273.577)">
    <g id="Grupo_76764" data-name="Grupo 76764" transform="translate(426.663 10273.577) rotate(20)">
      <g id="Grupo_74769" data-name="Grupo 74769">
        <g id="Grupo_74760" data-name="Grupo 74760">
          <g id="Grupo_74747" data-name="Grupo 74747">
            <g id="Grupo_74746" data-name="Grupo 74746">
              <g id="Grupo_74745" data-name="Grupo 74745">
                <g id="Grupo_74744" data-name="Grupo 74744">
                  <g id="Grupo_74728" data-name="Grupo 74728">
                    <g id="Grupo_74727" data-name="Grupo 74727">
                      <g id="Grupo_74726" data-name="Grupo 74726">
                        <g id="Grupo_74725" data-name="Grupo 74725">
                          <path id="Trazado_110751" data-name="Trazado 110751" d="M692.676,213.343a30.668,30.668,0,1,1-35.106-25.464A30.668,30.668,0,0,1,692.676,213.343Z" transform="translate(-631.717 -187.493)" fill="#d9a171"/>
                        </g>
                      </g>
                    </g>
                  </g>
                  <g id="Grupo_74731" data-name="Grupo 74731" transform="translate(0 0.386)" opacity="0.1">
                    <g id="Grupo_74730" data-name="Grupo 74730">
                      <g id="Grupo_74729" data-name="Grupo 74729">
                        <path id="Trazado_110752" data-name="Trazado 110752" d="M657.57,187.623A30.662,30.662,0,0,0,632.1,222.729s21.433-2.437,25.189-11.82S657.57,187.623,657.57,187.623Z" transform="translate(-631.717 -187.623)" fill="#fff"/>
                      </g>
                    </g>
                  </g>
                  <g id="Grupo_74734" data-name="Grupo 74734" transform="translate(6.799 6.95)">
                    <g id="Grupo_74733" data-name="Grupo 74733">
                      <g id="Grupo_74732" data-name="Grupo 74732">
                        <path id="Trazado_110753" data-name="Trazado 110753" d="M680.34,209.479a23.313,23.313,0,1,1-26.688-19.36A23.312,23.312,0,0,1,680.34,209.479Z" transform="translate(-634 -189.827)" fill="#636363"/>
                      </g>
                    </g>
                  </g>
                  <g id="Grupo_74740" data-name="Grupo 74740" transform="translate(8.223 8.071)">
                    <g id="Grupo_74739" data-name="Grupo 74739">
                      <g id="Grupo_74738" data-name="Grupo 74738">
                        <path id="Trazado_110755" data-name="Trazado 110755" d="M680.2,209.59a23,23,0,1,1-26.33-19.1A23,23,0,0,1,680.2,209.59Z" transform="translate(-634.478 -190.203)" fill="#8e8e8e"/>
                      </g>
                    </g>
                  </g>
                </g>
              </g>
            </g>
          </g>
          <g id="Grupo_74759" data-name="Grupo 74759" transform="translate(21.191 16.195)">
            <g id="Grupo_74751" data-name="Grupo 74751" transform="translate(1.102)">
              <g id="Grupo_74750" data-name="Grupo 74750">
                <g id="Grupo_74749" data-name="Grupo 74749">
                  <g id="Grupo_74748" data-name="Grupo 74748">
                    <path id="Trazado_110757" data-name="Trazado 110757" d="M648.727,205.7l-.927-5.812.03-.006a12.086,12.086,0,0,1,3.217.313,9.764,9.764,0,0,1,1.591.682l.051-.191.563-2.234.128-.515-1.209-.923-.461.3a11.07,11.07,0,0,0-4.4-.545l-.51-3.2-1.123-.643.128.8-1.364.217.518,3.256c-4.423,1.147-6.149,4.048-5.681,6.986.637,4,4.23,4.492,7.548,4.76l.918,5.758a11.154,11.154,0,0,1-6.107-1.272l-.834,3.116a12.765,12.765,0,0,0,7.435,1.266l.384,2.413-1.12.2,1.245.584,2.359-.375-.512-3.226c4.447-1.18,6.2-4.057,5.734-6.994C655.692,206.418,652.046,205.966,648.727,205.7Zm-2.458-.229c-1.749-.223-3.086-.661-3.307-2.044-.2-1.266.5-2.44,2.49-3.083Zm1.531-5.588Zm2.291,14.4-.81-5.1c1.805.215,3.179.676,3.4,2.085C652.88,212.5,652.144,213.624,650.091,214.277Z" transform="translate(-639.201 -192.93)" fill="#d9a171"/>
                  </g>
                </g>
              </g>
            </g>
            <g id="Grupo_74755" data-name="Grupo 74755" transform="translate(1.102)" opacity="0.3">
              <g id="Grupo_74754" data-name="Grupo 74754">
                <g id="Grupo_74753" data-name="Grupo 74753">
                  <g id="Grupo_74752" data-name="Grupo 74752">
                    <path id="Trazado_110758" data-name="Trazado 110758" d="M648.727,205.7l-.927-5.812.03-.006a12.086,12.086,0,0,1,3.217.313,9.764,9.764,0,0,1,1.591.682l.051-.191.563-2.234.128-.515-1.209-.923-.461.3a11.07,11.07,0,0,0-4.4-.545l-.51-3.2-1.123-.643.128.8-1.364.217.518,3.256c-4.423,1.147-6.149,4.048-5.681,6.986.637,4,4.23,4.492,7.548,4.76l.918,5.758a11.154,11.154,0,0,1-6.107-1.272l-.834,3.116a12.765,12.765,0,0,0,7.435,1.266l.384,2.413-1.12.2,1.245.584,2.359-.375-.512-3.226c4.447-1.18,6.2-4.057,5.734-6.994C655.692,206.418,652.046,205.966,648.727,205.7Zm-2.458-.229c-1.749-.223-3.086-.661-3.307-2.044-.2-1.266.5-2.44,2.49-3.083Zm1.531-5.588Zm2.291,14.4-.81-5.1c1.805.215,3.179.676,3.4,2.085C652.88,212.5,652.144,213.624,650.091,214.277Z" transform="translate(-639.201 -192.93)" fill="#d9a171"/>
                  </g>
                </g>
              </g>
            </g>
            <g id="Grupo_74758" data-name="Grupo 74758" transform="translate(0 0.006)">
              <g id="Grupo_74757" data-name="Grupo 74757">
                <g id="Grupo_74756" data-name="Grupo 74756">
                  <path id="Trazado_110759" data-name="Trazado 110759" d="M650.223,216.778l.512,3.223-2.36.378-.509-3.2a12.78,12.78,0,0,1-7.435-1.269l.831-3.113a11.2,11.2,0,0,0,6.11,1.269l-.918-5.758c-3.321-.268-6.911-.76-7.549-4.763-.467-2.937,1.255-5.839,5.678-6.986l-.519-3.253,2.362-.378.51,3.2a12.476,12.476,0,0,1,6.125.828l-.718,3.1a12.093,12.093,0,0,0-4.912-.813l.927,5.818c3.321.268,6.965.724,7.6,4.725C656.427,212.718,654.67,215.6,650.223,216.778ZM645.9,204.827l-.816-5.124c-1.993.64-2.693,1.814-2.491,3.083C642.814,204.168,644.152,204.6,645.9,204.827Zm6.414,5.8c-.223-1.409-1.6-1.871-3.4-2.085l.81,5.1C651.775,212.986,652.513,211.866,652.313,210.627Z" transform="translate(-638.831 -192.932)" fill="#d9a171"/>
                </g>
              </g>
            </g>
          </g>
        </g>
        <g id="Grupo_74764" data-name="Grupo 74764" transform="translate(21.821 23.296)">
          <g id="Grupo_74763" data-name="Grupo 74763">
            <g id="Grupo_74762" data-name="Grupo 74762">
              <g id="Grupo_74761" data-name="Grupo 74761">
                <path id="Trazado_110760" data-name="Trazado 110760" d="M640.837,200.933a1.959,1.959,0,0,1-.775-.56,3.6,3.6,0,0,1-.53-4.328,1.935,1.935,0,0,1,.617-.73c.03.027-.22.292-.473.8a3.855,3.855,0,0,0-.382,2.151,3.9,3.9,0,0,0,.888,2C640.554,200.7,640.861,200.9,640.837,200.933Z" transform="translate(-639.043 -195.314)" fill="#fff"/>
              </g>
            </g>
          </g>
        </g>
        <g id="Grupo_74768" data-name="Grupo 74768" transform="translate(27.016 17.383)">
          <g id="Grupo_74767" data-name="Grupo 74767">
            <g id="Grupo_74766" data-name="Grupo 74766">
              <g id="Grupo_74765" data-name="Grupo 74765">
                <path id="Trazado_110761" data-name="Trazado 110761" d="M641.125,195.224a4.026,4.026,0,1,1-.036-.965A2.092,2.092,0,0,1,641.125,195.224Z" transform="translate(-640.786 -193.329)" fill="#fff"/>
              </g>
            </g>
          </g>
        </g>
      </g>
    </g>
    <g id="Grupo_76765" data-name="Grupo 76765" transform="translate(79.702 7776.061)">
      <path id="Trazado_9870" data-name="Trazado 9870" d="M392.694,2570.351a1.442,1.442,0,0,1-1.443-1.441v-17.927a1.443,1.443,0,0,1,1.443-1.441h3.474l-7.66-9.041-7.663,9.041h3.474a1.443,1.443,0,0,1,1.441,1.441v17.927a1.441,1.441,0,1,1-2.883,0v-16.485h-5.144a1.441,1.441,0,0,1-1.1-2.373l10.774-12.713a1.44,1.44,0,0,1,1.1-.51h0a1.44,1.44,0,0,1,1.1.51l10.77,12.713a1.442,1.442,0,0,1-1.1,2.373h-5.142v16.485A1.442,1.442,0,0,1,392.694,2570.351Z" transform="translate(0 0)" fill="#344154"/>
    </g>
  </g>
</svg>
