<svg xmlns="http://www.w3.org/2000/svg" width="468.434" height="118.844" viewBox="0 0 468.434 118.844"><g transform="translate(-803.469 -12260.978)"><g transform="translate(832.961 12260.978)"><g transform="translate(-29.492 0)"><g transform="translate(0 0)" opacity="0.7" style="mix-blend-mode:multiply;isolation:isolate"><rect width="468.434" height="118.844" rx="9.04" fill="#fff" opacity="0"/><rect width="466.057" height="116.78" rx="9.04" transform="translate(1.188 1.032)" fill="#f3f3f3" opacity="0.048"/><rect width="463.681" height="114.716" rx="9.04" transform="translate(2.377 2.064)" fill="#e7e7e7" opacity="0.095"/><rect width="461.304" height="112.652" rx="9.04" transform="translate(3.565 3.096)" fill="#dbdbdb" opacity="0.143"/><rect width="458.927" height="110.588" rx="9.04" transform="translate(4.753 4.128)" fill="#cecece" opacity="0.19"/><rect width="456.55" height="108.524" rx="9.04" transform="translate(5.942 5.16)" fill="#c2c2c2" opacity="0.238"/><rect width="454.174" height="106.46" rx="9.04" transform="translate(7.13 6.192)" fill="#b6b6b6" opacity="0.286"/><rect width="451.797" height="104.397" rx="9.04" transform="translate(8.319 7.224)" fill="#aaa" opacity="0.333"/><rect width="449.42" height="102.333" rx="9.04" transform="translate(9.507 8.255)" fill="#9e9e9e" opacity="0.381"/><rect width="447.044" height="100.269" rx="9.04" transform="translate(10.695 9.287)" fill="#929292" opacity="0.429"/><rect width="444.667" height="98.205" rx="9.04" transform="translate(11.884 10.319)" fill="#868686" opacity="0.476"/><rect width="442.29" height="96.141" rx="9.04" transform="translate(13.072 11.351)" fill="#797979" opacity="0.524"/><rect width="439.913" height="94.077" rx="9.04" transform="translate(14.26 12.383)" fill="#6d6d6d" opacity="0.571"/><rect width="437.537" height="92.013" rx="9.04" transform="translate(15.449 13.415)" fill="#616161" opacity="0.619"/><rect width="435.16" height="89.949" rx="9.04" transform="translate(16.637 14.447)" fill="#555" opacity="0.667"/><rect width="432.783" height="87.886" rx="9.04" transform="translate(17.825 15.479)" fill="#494949" opacity="0.714"/><rect width="430.406" height="85.822" rx="9.04" transform="translate(19.014 16.511)" fill="#3d3d3d" opacity="0.762"/><rect width="428.03" height="83.758" rx="9.04" transform="translate(20.202 17.543)" fill="#313131" opacity="0.81"/><rect width="425.653" height="81.694" rx="9.04" transform="translate(21.391 18.575)" fill="#242424" opacity="0.857"/><rect width="423.276" height="79.63" rx="9.04" transform="translate(22.579 19.607)" fill="#181818" opacity="0.905"/><rect width="420.9" height="77.566" rx="9.04" transform="translate(23.767 20.639)" fill="#0c0c0c" opacity="0.952"/><rect width="418.523" height="75.502" rx="9.04" transform="translate(24.956 21.671)"/></g><rect width="449.235" height="102.172" rx="10" transform="translate(8.45 8.601)" fill="#aed3f2"/></g></g><path d="M-132.322-3.223h-5.65L-139.047,0h-3.427l5.822-15.641h2.986L-127.811,0h-3.427Zm-4.78-2.61h3.91l-1.966-5.854Zm15.383,3.545a2.036,2.036,0,0,0,1.4-.473,1.656,1.656,0,0,0,.559-1.257h2.911a3.982,3.982,0,0,1-.645,2.165,4.253,4.253,0,0,1-1.735,1.525,5.43,5.43,0,0,1-2.433.542A5.046,5.046,0,0,1-125.6-1.37a6.27,6.27,0,0,1-1.439-4.377v-.2a6.2,6.2,0,0,1,1.429-4.286,4.987,4.987,0,0,1,3.921-1.6,4.889,4.889,0,0,1,3.5,1.241,4.393,4.393,0,0,1,1.337,3.3h-2.911a2.133,2.133,0,0,0-.559-1.474,1.862,1.862,0,0,0-1.418-.567,1.87,1.87,0,0,0-1.638.791,4.583,4.583,0,0,0-.553,2.566v.323a4.641,4.641,0,0,0,.548,2.582A1.893,1.893,0,0,0-121.72-2.288Zm10.355-12.192v2.857h1.987v2.277h-1.987v5.8a1.385,1.385,0,0,0,.247.924,1.241,1.241,0,0,0,.945.279,4.951,4.951,0,0,0,.913-.075V-.064a6.391,6.391,0,0,1-1.88.279q-3.266,0-3.33-3.3V-9.346h-1.7v-2.277h1.7V-14.48ZM-104.371,0h-3.115V-11.623h3.115Zm-3.3-14.631a1.529,1.529,0,0,1,.467-1.149,1.755,1.755,0,0,1,1.273-.451,1.759,1.759,0,0,1,1.268.451,1.52,1.52,0,0,1,.473,1.149,1.524,1.524,0,0,1-.478,1.16,1.764,1.764,0,0,1-1.262.451,1.764,1.764,0,0,1-1.262-.451A1.524,1.524,0,0,1-107.669-14.631ZM-97.464-3.792l2.159-7.831h3.244L-95.981,0h-2.965l-3.921-11.623h3.244Zm6.123-2.127A6.893,6.893,0,0,1-90.675-9,4.876,4.876,0,0,1-88.757-11.1a5.594,5.594,0,0,1,2.906-.741,5.293,5.293,0,0,1,3.84,1.439,5.777,5.777,0,0,1,1.66,3.91l.021.795A6.075,6.075,0,0,1-81.823-1.4,5.19,5.19,0,0,1-85.83.215,5.216,5.216,0,0,1-89.842-1.4a6.182,6.182,0,0,1-1.5-4.383Zm3.1.22a4.345,4.345,0,0,0,.623,2.534,2.055,2.055,0,0,0,1.783.877,2.06,2.06,0,0,0,1.762-.866,4.754,4.754,0,0,0,.634-2.77,4.3,4.3,0,0,0-.634-2.518,2.06,2.06,0,0,0-1.783-.893,2.027,2.027,0,0,0-1.762.888A4.834,4.834,0,0,0-88.236-5.7Zm25.169-2.315h-9.6v-2.535h9.6Zm0,4.651h-9.6V-5.9h9.6Zm11.623-2.148V0h-3.223V-15.641h6.1a7.059,7.059,0,0,1,3.1.645,4.75,4.75,0,0,1,2.057,1.832,5.107,5.107,0,0,1,.72,2.7,4.491,4.491,0,0,1-1.574,3.625,6.555,6.555,0,0,1-4.356,1.327Zm0-2.61h2.879a2.831,2.831,0,0,0,1.95-.6,2.188,2.188,0,0,0,.671-1.719,2.58,2.58,0,0,0-.677-1.858,2.528,2.528,0,0,0-1.869-.73h-2.954ZM-34.063,0a3.447,3.447,0,0,1-.312-1.042A3.756,3.756,0,0,1-37.308.215a4.127,4.127,0,0,1-2.831-.988,3.178,3.178,0,0,1-1.123-2.492A3.285,3.285,0,0,1-39.891-6.1a6.758,6.758,0,0,1,3.958-1H-34.5v-.666a1.915,1.915,0,0,0-.414-1.289,1.627,1.627,0,0,0-1.305-.483,1.85,1.85,0,0,0-1.23.376A1.277,1.277,0,0,0-37.9-8.132H-41A3.119,3.119,0,0,1-40.38-10a4.118,4.118,0,0,1,1.762-1.348,6.42,6.42,0,0,1,2.557-.489,5.073,5.073,0,0,1,3.411,1.08,3.777,3.777,0,0,1,1.262,3.035v5.038a5.557,5.557,0,0,0,.462,2.5V0Zm-2.567-2.159a2.674,2.674,0,0,0,1.268-.306,2.011,2.011,0,0,0,.859-.822v-2h-1.16q-2.331,0-2.481,1.611l-.011.183a1.243,1.243,0,0,0,.408.956A1.586,1.586,0,0,0-36.631-2.159Zm13.922-1.053a1,1,0,0,0-.564-.9,6.406,6.406,0,0,0-1.81-.585q-4.146-.87-4.146-3.523A3.194,3.194,0,0,1-27.946-10.8a5.178,5.178,0,0,1,3.357-1.037,5.573,5.573,0,0,1,3.54,1.042,3.284,3.284,0,0,1,1.327,2.707h-3.1a1.5,1.5,0,0,0-.43-1.1A1.818,1.818,0,0,0-24.6-9.625a1.858,1.858,0,0,0-1.214.354,1.119,1.119,0,0,0-.43.9.957.957,0,0,0,.489.833,5.028,5.028,0,0,0,1.649.548,13.468,13.468,0,0,1,1.955.521,3.212,3.212,0,0,1,2.46,3.126A3.032,3.032,0,0,1-21.055-.768a5.885,5.885,0,0,1-3.523.983,6.147,6.147,0,0,1-2.594-.521A4.353,4.353,0,0,1-28.95-1.735a3.32,3.32,0,0,1-.645-1.96h2.943a1.621,1.621,0,0,0,.612,1.268,2.429,2.429,0,0,0,1.525.44,2.248,2.248,0,0,0,1.348-.338A1.053,1.053,0,0,0-22.709-3.212ZM-14.416,0h-3.115V-11.623h3.115Zm-3.3-14.631a1.529,1.529,0,0,1,.467-1.149,1.755,1.755,0,0,1,1.273-.451,1.759,1.759,0,0,1,1.268.451,1.52,1.52,0,0,1,.473,1.149,1.524,1.524,0,0,1-.478,1.16,1.764,1.764,0,0,1-1.262.451,1.764,1.764,0,0,1-1.262-.451A1.524,1.524,0,0,1-17.714-14.631ZM-7.509-3.792l2.159-7.831h3.244L-6.026,0H-8.991l-3.921-11.623h3.244Zm6.123-2.127A6.893,6.893,0,0,1-.72-9,4.876,4.876,0,0,1,1.2-11.1,5.594,5.594,0,0,1,4.1-11.838,5.293,5.293,0,0,1,7.944-10.4,5.777,5.777,0,0,1,9.6-6.488l.021.795A6.075,6.075,0,0,1,8.132-1.4,5.19,5.19,0,0,1,4.125.215,5.216,5.216,0,0,1,.113-1.4a6.182,6.182,0,0,1-1.5-4.383Zm3.1.22a4.345,4.345,0,0,0,.623,2.534,2.055,2.055,0,0,0,1.783.877,2.06,2.06,0,0,0,1.762-.866,4.754,4.754,0,0,0,.634-2.77,4.3,4.3,0,0,0-.634-2.518A2.06,2.06,0,0,0,4.1-9.335a2.027,2.027,0,0,0-1.762.888A4.834,4.834,0,0,0,1.719-5.7Zm21.56-3.056h3.878v2.8H23.278v4.383H20.324V-5.951H16.436v-2.8h3.889v-4.2h2.954ZM37.931-5.511V0H34.708V-15.641h6.1a7.059,7.059,0,0,1,3.1.645,4.75,4.75,0,0,1,2.057,1.832,5.107,5.107,0,0,1,.72,2.7,4.491,4.491,0,0,1-1.574,3.625,6.555,6.555,0,0,1-4.356,1.327Zm0-2.61H40.81a2.831,2.831,0,0,0,1.95-.6,2.188,2.188,0,0,0,.671-1.719,2.58,2.58,0,0,0-.677-1.858,2.528,2.528,0,0,0-1.869-.73H37.931ZM55.312,0A3.447,3.447,0,0,1,55-1.042,3.756,3.756,0,0,1,52.067.215a4.127,4.127,0,0,1-2.831-.988,3.178,3.178,0,0,1-1.123-2.492A3.285,3.285,0,0,1,49.484-6.1a6.758,6.758,0,0,1,3.958-1h1.429v-.666a1.915,1.915,0,0,0-.414-1.289,1.627,1.627,0,0,0-1.305-.483,1.85,1.85,0,0,0-1.23.376,1.277,1.277,0,0,0-.446,1.031h-3.1A3.119,3.119,0,0,1,49-10a4.118,4.118,0,0,1,1.762-1.348,6.42,6.42,0,0,1,2.557-.489,5.073,5.073,0,0,1,3.411,1.08,3.777,3.777,0,0,1,1.262,3.035v5.038a5.557,5.557,0,0,0,.462,2.5V0ZM52.744-2.159a2.674,2.674,0,0,0,1.268-.306,2.011,2.011,0,0,0,.859-.822v-2h-1.16q-2.331,0-2.481,1.611l-.011.183a1.243,1.243,0,0,0,.408.956A1.586,1.586,0,0,0,52.744-2.159ZM64.088-14.48v2.857h1.987v2.277H64.088v5.8a1.385,1.385,0,0,0,.247.924,1.241,1.241,0,0,0,.945.279,4.951,4.951,0,0,0,.913-.075V-.064a6.391,6.391,0,0,1-1.88.279q-3.266,0-3.33-3.3V-9.346h-1.7v-2.277h1.7V-14.48ZM74.336-8.712A8.434,8.434,0,0,0,73.219-8.8a2.274,2.274,0,0,0-2.31,1.192V0H67.8V-11.623h2.933l.086,1.386a2.877,2.877,0,0,1,2.589-1.6,3.253,3.253,0,0,1,.967.14ZM79.105,0H75.99V-11.623h3.115Zm-3.3-14.631a1.529,1.529,0,0,1,.467-1.149,1.755,1.755,0,0,1,1.273-.451,1.759,1.759,0,0,1,1.268.451,1.52,1.52,0,0,1,.473,1.149,1.524,1.524,0,0,1-.478,1.16,1.764,1.764,0,0,1-1.262.451,1.764,1.764,0,0,1-1.262-.451A1.524,1.524,0,0,1,75.808-14.631Zm8.766,3.008.1,1.3a4.085,4.085,0,0,1,3.341-1.515,3.1,3.1,0,0,1,3.083,1.772,3.991,3.991,0,0,1,3.491-1.772,3.467,3.467,0,0,1,2.814,1.1,5.061,5.061,0,0,1,.924,3.314V0H95.208V-7.412a2.213,2.213,0,0,0-.387-1.445,1.714,1.714,0,0,0-1.364-.457,1.938,1.938,0,0,0-1.934,1.332L91.534,0h-3.1V-7.4a2.186,2.186,0,0,0-.4-1.461,1.731,1.731,0,0,0-1.354-.451,2.012,2.012,0,0,0-1.912,1.1V0h-3.1V-11.623Zm15.651,5.7A6.893,6.893,0,0,1,100.891-9a4.876,4.876,0,0,1,1.917-2.095,5.594,5.594,0,0,1,2.906-.741,5.293,5.293,0,0,1,3.84,1.439,5.777,5.777,0,0,1,1.66,3.91l.021.795A6.075,6.075,0,0,1,109.742-1.4,5.19,5.19,0,0,1,105.735.215,5.216,5.216,0,0,1,101.723-1.4a6.182,6.182,0,0,1-1.5-4.383Zm3.1.22a4.345,4.345,0,0,0,.623,2.534,2.055,2.055,0,0,0,1.783.877,2.06,2.06,0,0,0,1.762-.866,4.754,4.754,0,0,0,.634-2.77,4.3,4.3,0,0,0-.634-2.518,2.06,2.06,0,0,0-1.783-.893,2.027,2.027,0,0,0-1.762.888A4.834,4.834,0,0,0,103.329-5.7ZM116-11.623l.1,1.343a4.058,4.058,0,0,1,3.341-1.558,3.372,3.372,0,0,1,2.75,1.085,5.062,5.062,0,0,1,.924,3.244V0h-3.1V-7.434a2.014,2.014,0,0,0-.43-1.434,1.924,1.924,0,0,0-1.429-.446A2.136,2.136,0,0,0,116.188-8.2V0h-3.1V-11.623ZM128.745,0H125.63V-11.623h3.115Zm-3.3-14.631a1.529,1.529,0,0,1,.467-1.149,1.755,1.755,0,0,1,1.273-.451,1.759,1.759,0,0,1,1.268.451,1.52,1.52,0,0,1,.473,1.149,1.524,1.524,0,0,1-.478,1.16,1.764,1.764,0,0,1-1.262.451,1.764,1.764,0,0,1-1.262-.451A1.524,1.524,0,0,1,125.447-14.631Zm5.371,8.712A6.893,6.893,0,0,1,131.484-9,4.876,4.876,0,0,1,133.4-11.1a5.594,5.594,0,0,1,2.906-.741,5.293,5.293,0,0,1,3.84,1.439,5.777,5.777,0,0,1,1.66,3.91l.021.795A6.075,6.075,0,0,1,140.336-1.4,5.19,5.19,0,0,1,136.329.215,5.216,5.216,0,0,1,132.317-1.4a6.182,6.182,0,0,1-1.5-4.383Zm3.1.22a4.345,4.345,0,0,0,.623,2.534,2.055,2.055,0,0,0,1.783.877,2.06,2.06,0,0,0,1.762-.866,4.754,4.754,0,0,0,.634-2.77,4.3,4.3,0,0,0-.634-2.518,2.06,2.06,0,0,0-1.783-.893,2.027,2.027,0,0,0-1.762.888A4.834,4.834,0,0,0,133.923-5.7Z" transform="translate(1033.063 12328.883)" fill="#12263f"/></g></svg>