<svg xmlns="http://www.w3.org/2000/svg" width="270.241" height="262.672" viewBox="0 0 270.241 262.672"><g transform="translate(-241.223 -3620.245)"><path d="M512.461,3846.993H383.549a9.048,9.048,0,0,1-9.121-9.875l15.789-207a10.873,10.873,0,0,1,10.637-9.874H529.765a9.046,9.046,0,0,1,9.121,9.874l-15.789,207A10.883,10.883,0,0,1,512.461,3846.993Z" transform="translate(-27.46 0)" fill="#d9a171"/><path d="M512.461,3846.993H383.549a9.048,9.048,0,0,1-9.121-9.875l15.789-207a10.873,10.873,0,0,1,10.637-9.874H529.765a9.046,9.046,0,0,1,9.121,9.874l-15.789,207A10.883,10.883,0,0,1,512.461,3846.993Z" transform="translate(-27.46 0)" fill="#fff" opacity="0.5" style="isolation:isolate"/><path d="M510.049,3846.993H381.129a9.048,9.048,0,0,1-9.121-9.875l15.8-207a10.874,10.874,0,0,1,10.645-9.874H527.361a9.045,9.045,0,0,1,9.121,9.874l-15.789,207A10.875,10.875,0,0,1,510.049,3846.993Z" transform="translate(-26.961 0)" fill="#d9a171"/><path d="M510.049,3846.993H381.129a9.048,9.048,0,0,1-9.121-9.875l15.8-207a10.874,10.874,0,0,1,10.645-9.874H527.361a9.045,9.045,0,0,1,9.121,9.874l-15.789,207A10.875,10.875,0,0,1,510.049,3846.993Z" transform="translate(-26.961 0)" fill="#fff" opacity="0.7" style="isolation:isolate"/><path d="M382.241,3845.268a6.015,6.015,0,0,1-6.08-6.581l15.582-204.25a7.231,7.231,0,0,1,7.089-6.581H527.744a6.017,6.017,0,0,1,6.106,5.927,6.224,6.224,0,0,1-.025.654l-15.582,204.25a7.232,7.232,0,0,1-7.081,6.581Z" transform="translate(-27.82 -1.569)" fill="#344154"/><path d="M520.182,3669.109H427.928a3.573,3.573,0,0,1-3.62-3.524,3.609,3.609,0,0,1,.016-.381h0a4.3,4.3,0,0,1,4.2-3.9h92.254a3.564,3.564,0,0,1,3.619,3.509,3.766,3.766,0,0,1-.015.389h0A4.287,4.287,0,0,1,520.182,3669.109Z" transform="translate(-37.754 -8.467)" fill="#d9a171" opacity="0.2" style="isolation:isolate"/><path d="M491.406,3624.817h-14.9a.882.882,0,0,1-.893-.869.862.862,0,0,1,0-.091h0a1.063,1.063,0,0,1,1.032-.96h14.907a.88.88,0,0,1,.884.877c0,.028,0,.055,0,.083h0A1.048,1.048,0,0,1,491.406,3624.817Z" transform="translate(-48.333 -0.547)" fill="#d9a171" opacity="0.3" style="isolation:isolate"/><path d="M425.738,3663.412a9.863,9.863,0,0,0-9.97-10.8h93.667a9.865,9.865,0,0,1,9.97,10.8Z" transform="translate(-35.993 -6.675)" fill="#f0f0f0"/><path d="M407.265,3652.616a11.858,11.858,0,0,0-11.629,10.8l-9.6,125.792a11.852,11.852,0,0,1-11.621,10.8h93.667a11.859,11.859,0,0,0,11.629-10.8l9.6-125.792a11.851,11.851,0,0,1,11.621-10.8Z" transform="translate(-27.466 -6.676)" fill="#fff"/><path d="M455.5,3824.686a9.861,9.861,0,0,0,9.97,10.8H371.806a9.857,9.857,0,0,1-9.97-10.8Z" transform="translate(-24.862 -42.158)" fill="#f0f0f0"/><path d="M409.3,3819.4c.357-4.6-1.088-8.311-5.676-8.311h72.124c4.588,0,8.041,4.2,5.684,8.311Z" transform="translate(-33.489 -39.353)" fill="#e0e0e0"/><path d="M455.515,3821.875a11.852,11.852,0,0,1,11.621-10.82H373.469a11.852,11.852,0,0,0-11.621,10.8Z" transform="translate(-24.874 -39.347)" fill="#f0f0f0"/><path d="M507.024,3862.5H399.5a2.592,2.592,0,0,1-2.619-2.833h0a3.118,3.118,0,0,1,3.048-2.834H507.46a2.6,2.6,0,0,1,2.622,2.569c0,.088,0,.177-.01.265h0A3.12,3.12,0,0,1,507.024,3862.5Z" transform="translate(-32.097 -48.787)" fill="#fff"/><path d="M452.458,3879.664H398.194a2.589,2.589,0,0,1-2.631-2.544,2.52,2.52,0,0,1,.012-.29h0a3.118,3.118,0,0,1,3.048-2.834h54.264a2.6,2.6,0,0,1,2.619,2.834h0A3.12,3.12,0,0,1,452.458,3879.664Z" transform="translate(-31.826 -52.326)" fill="#fff"/><path d="M508.174,3879.664h-21.98a2.589,2.589,0,0,1-2.631-2.544,2.513,2.513,0,0,1,.012-.29h0a3.118,3.118,0,0,1,3.048-2.834H508.6a2.6,2.6,0,0,1,2.629,2.577q0,.129-.009.257h0A3.12,3.12,0,0,1,508.174,3879.664Z" transform="translate(-49.972 -52.326)" fill="#fff"/><path d="M537.427,3811.467l-5.612.881a5.194,5.194,0,0,0-.643-1.469,3.323,3.323,0,0,0-1.04-.834l-.333,4.311q4.445,1.214,5.858,2.556a5.447,5.447,0,0,1,1.659,4.573,6.533,6.533,0,0,1-.953,2.985,8.044,8.044,0,0,1-2.016,2.262,8.173,8.173,0,0,1-2.492,1.326,12.58,12.58,0,0,1-3.175.484l-.214,2.81h-2.1l.214-2.81a13.375,13.375,0,0,1-3.5-.707,6.585,6.585,0,0,1-2.27-1.429,6.141,6.141,0,0,1-1.373-1.96,8.4,8.4,0,0,1-.611-2.54l6.073-.7a5.322,5.322,0,0,0,.556,2.136,3.339,3.339,0,0,0,1.413,1.159l.4-5.263a26.454,26.454,0,0,1-4.159-1.445,5.142,5.142,0,0,1-2.032-1.96,5.377,5.377,0,0,1-.667-3.294,6.394,6.394,0,0,1,2.191-4.429,8.92,8.92,0,0,1,5.668-1.977l.111-1.476h2.175l-.111,1.476a8.572,8.572,0,0,1,4.985,1.588A5.8,5.8,0,0,1,537.427,3811.467Zm-9.47-1.493a3.092,3.092,0,0,0-1.381.794,1.791,1.791,0,0,0-.46,1.1,1.7,1.7,0,0,0,.294,1.143,2.544,2.544,0,0,0,1.254.794Zm1.056,14.677a3.8,3.8,0,0,0,1.929-.937,2.305,2.305,0,0,0,.7-1.453,1.811,1.811,0,0,0-.4-1.294,4.045,4.045,0,0,0-1.865-1.1Z" transform="translate(-57.244 -38.027)" fill="#fff"/><path d="M484.576,3721.05H407.158l.159-2.143h77.426Z" transform="translate(-34.217 -20.345)" fill="#d9a171"/><g transform="translate(369.424 3700.704)"><path d="M428.879,3721.606H407.026l-.508,6.581h21.861Z" transform="translate(-403.509 -3721.606)" fill="#f0f0f0"/><path d="M427.619,3738.176H405.758l-.5,6.573h21.861Z" transform="translate(-403.249 -3725.023)" fill="#f0f0f0"/><path d="M426.351,3754.736H404.5l-.5,6.58h21.853Z" transform="translate(-402.99 -3728.438)" fill="#f0f0f0"/><path d="M425.089,3771.306H403.228l-.5,6.572h21.861Z" transform="translate(-402.728 -3731.855)" fill="#f0f0f0"/><path d="M406.518,3728.187h21.861l.5-6.581H407.026" transform="translate(-403.509 -3721.606)" fill="#f0f0f0"/><path d="M405.258,3744.749h21.861l.5-6.573H405.758" transform="translate(-403.249 -3725.023)" fill="#f0f0f0"/><path d="M404,3761.317h21.853l.5-6.58H404.5" transform="translate(-402.99 -3728.438)" fill="#f0f0f0"/><path d="M402.728,3777.878h21.861l.5-6.572H403.228" transform="translate(-402.728 -3731.855)" fill="#f0f0f0"/><path d="M440.792,3728.187h21.861l.5-6.581H441.3" transform="translate(-410.577 -3721.606)" fill="#f0f0f0"/><path d="M439.532,3744.749h21.861l.5-6.573H440.032" transform="translate(-410.317 -3725.023)" fill="#f0f0f0"/><path d="M438.272,3761.317h21.853l.5-6.58H438.772" transform="translate(-410.057 -3728.438)" fill="#f0f0f0"/><path d="M437,3777.878h21.861l.5-6.572H437.5" transform="translate(-409.795 -3731.855)" fill="#f0f0f0"/><path d="M440.792,3728.187h21.861l.5-6.581H441.3" transform="translate(-410.577 -3721.606)" fill="#f0f0f0"/><path d="M439.532,3744.749h21.861l.5-6.573H440.032" transform="translate(-410.317 -3725.023)" fill="#f0f0f0"/><path d="M438.272,3761.317h21.853l.5-6.58H438.772" transform="translate(-410.057 -3728.438)" fill="#f0f0f0"/><path d="M437,3777.878h21.861l.5-6.572H437.5" transform="translate(-409.795 -3731.855)" fill="#f0f0f0"/><path d="M476.372,3728.187h21.861l.5-6.581H476.88" transform="translate(-417.914 -3721.606)" fill="#8a8a8a"/><path d="M475.112,3744.749h21.861l.5-6.573H475.612" transform="translate(-417.654 -3725.023)" fill="#8a8a8a"/><path d="M473.852,3761.317h21.853l.5-6.58H474.352" transform="translate(-417.394 -3728.438)" fill="#8a8a8a"/><path d="M472.582,3777.878h21.861l.5-6.572H473.082" transform="translate(-417.132 -3731.855)" fill="#8a8a8a"/></g><path d="M479.314,3790.018H401.888l.167-2.151h77.426Z" transform="translate(-33.13 -34.565)" fill="#d9a171"/><path d="M488.078,3671.136h16.09l-.73,9.6h-16.09Z" transform="translate(-50.753 -10.494)" fill="#f0f0f0"/><g transform="translate(377.609 3677.9)"><path d="M418.026,3697.244h-3.05l-.216,2.065h3.578l-.133,1.277h-5.167l.807-7.708H419l-.135,1.287H415.3l-.192,1.837h3.049Z" transform="translate(-413.039 -3692.877)" fill="#a66d58"/><path d="M423.073,3697.082l1.143-1.71h1.635l-1.924,2.805,1.393,2.923H423.68l-.833-1.8-1.2,1.8h-1.646l2.005-2.923-1.331-2.805h1.642Z" transform="translate(-414.473 -3693.392)" fill="#a66d58"/><path d="M430.11,3693.6l-.148,1.408h.979l-.117,1.122h-.98l-.3,2.86a.636.636,0,0,0,.074.455.559.559,0,0,0,.452.138,2.481,2.481,0,0,0,.453-.038l-.122,1.16a3.317,3.317,0,0,1-.941.137q-1.61,0-1.471-1.625l.323-3.087h-.836l.118-1.122h.836l.148-1.408Z" transform="translate(-416.017 -3693.025)" fill="#a66d58"/><path d="M435.828,3696.779a4.129,4.129,0,0,0-.546-.042,1.255,1.255,0,0,0-1.2.588l-.393,3.748h-1.53l.6-5.728H434.2l-.029.682a1.609,1.609,0,0,1,1.359-.789,1.542,1.542,0,0,1,.469.069Z" transform="translate(-416.982 -3693.364)" fill="#a66d58"/><path d="M440.243,3701.073a1.577,1.577,0,0,1-.1-.513,2.057,2.057,0,0,1-1.51.619,1.847,1.847,0,0,1-1.344-.487,1.417,1.417,0,0,1-.425-1.229,1.826,1.826,0,0,1,.822-1.4,3.587,3.587,0,0,1,2-.493h.7l.035-.328a.873.873,0,0,0-.137-.635.724.724,0,0,0-.618-.239.989.989,0,0,0-.626.186.707.707,0,0,0-.273.508h-1.53a1.7,1.7,0,0,1,.4-.921,2.344,2.344,0,0,1,.938-.664,3.355,3.355,0,0,1,1.285-.241,2.288,2.288,0,0,1,1.626.532,1.693,1.693,0,0,1,.465,1.5l-.26,2.482a2.625,2.625,0,0,0,.1,1.234l-.01.09Zm-1.154-1.064a1.408,1.408,0,0,0,.641-.151,1.157,1.157,0,0,0,.466-.4l.1-.985h-.572q-1.149,0-1.306.795l-.015.09a.56.56,0,0,0,.152.472A.711.711,0,0,0,439.089,3700.008Z" transform="translate(-417.95 -3693.364)" fill="#a66d58"/><path d="M446.773,3699.945a1.1,1.1,0,0,0,.713-.232.924.924,0,0,0,.34-.62h1.435a2.158,2.158,0,0,1-.429,1.067,2.433,2.433,0,0,1-.934.752,2.853,2.853,0,0,1-1.226.267,2.238,2.238,0,0,1-1.856-.781,2.853,2.853,0,0,1-.483-2.157l.01-.1a3.384,3.384,0,0,1,.926-2.113,2.725,2.725,0,0,1,2.015-.789,2.185,2.185,0,0,1,1.659.612,1.971,1.971,0,0,1,.489,1.627h-1.435a.962.962,0,0,0-.2-.727.829.829,0,0,0-.67-.279,1.031,1.031,0,0,0-.848.39,2.44,2.44,0,0,0-.406,1.264l-.017.159a2.175,2.175,0,0,0,.137,1.273A.833.833,0,0,0,446.773,3699.945Z" transform="translate(-419.486 -3693.364)" fill="#a66d58"/><path d="M453.952,3693.6l-.148,1.408h.98l-.117,1.122h-.98l-.3,2.86a.637.637,0,0,0,.074.455.56.56,0,0,0,.452.138,2.49,2.49,0,0,0,.454-.038l-.121,1.16a3.319,3.319,0,0,1-.941.137q-1.609,0-1.471-1.625l.324-3.087h-.837l.117-1.122h.837l.148-1.408Z" transform="translate(-420.933 -3693.025)" fill="#a66d58"/><path d="M455.878,3698.156a3.661,3.661,0,0,1,.487-1.519,2.8,2.8,0,0,1,1.053-1.033,2.975,2.975,0,0,1,1.471-.365,2.359,2.359,0,0,1,1.818.709,2.58,2.58,0,0,1,.616,1.927l-.03.392a3.324,3.324,0,0,1-.957,2.115,2.832,2.832,0,0,1-2.058.8,2.315,2.315,0,0,1-1.894-.794,2.806,2.806,0,0,1-.512-2.16Zm1.518.109a2.014,2.014,0,0,0,.176,1.249.9.9,0,0,0,.833.432,1.135,1.135,0,0,0,.913-.427,2.542,2.542,0,0,0,.456-1.365,2,2,0,0,0-.183-1.24.9.9,0,0,0-.833-.44,1.122,1.122,0,0,0-.914.437A2.586,2.586,0,0,0,457.4,3698.264Z" transform="translate(-421.866 -3693.364)" fill="#a66d58"/><path d="M467.053,3700.586l.807-7.708h2.7a3.285,3.285,0,0,1,2.072.538,1.66,1.66,0,0,1,.56,1.575,1.915,1.915,0,0,1-.4,1,1.945,1.945,0,0,1-.876.633,1.416,1.416,0,0,1,.872.6,1.644,1.644,0,0,1,.226,1.1,2.282,2.282,0,0,1-.886,1.684,3.467,3.467,0,0,1-2.083.583Zm2.058-4.479h1.175q1.2-.022,1.3-.959a.807.807,0,0,0-.225-.754,1.492,1.492,0,0,0-.937-.23h-1.112Zm-.118,1.122-.217,2.08h1.361a1.432,1.432,0,0,0,.9-.267,1.029,1.029,0,0,0,.392-.739q.111-1.058-.983-1.075Z" transform="translate(-424.177 -3692.877)" fill="#a66d58"/><path d="M478.944,3701.073a1.6,1.6,0,0,1-.1-.513,2.06,2.06,0,0,1-1.511.619,1.848,1.848,0,0,1-1.344-.487,1.417,1.417,0,0,1-.425-1.229,1.826,1.826,0,0,1,.822-1.4,3.592,3.592,0,0,1,2-.493h.7l.034-.328a.872.872,0,0,0-.137-.635.723.723,0,0,0-.618-.239.991.991,0,0,0-.626.186.709.709,0,0,0-.273.508h-1.53a1.7,1.7,0,0,1,.4-.921,2.34,2.34,0,0,1,.938-.664,3.353,3.353,0,0,1,1.285-.241,2.286,2.286,0,0,1,1.625.532,1.693,1.693,0,0,1,.465,1.5l-.26,2.482a2.615,2.615,0,0,0,.1,1.234l-.01.09Zm-1.153-1.064a1.413,1.413,0,0,0,.641-.151,1.163,1.163,0,0,0,.466-.4l.1-.985h-.572q-1.149,0-1.306.795l-.015.09a.557.557,0,0,0,.152.472A.709.709,0,0,0,477.79,3700.008Z" transform="translate(-425.93 -3693.364)" fill="#a66d58"/><path d="M484.965,3695.345l-.021.661a2.236,2.236,0,0,1,1.727-.768,1.5,1.5,0,0,1,1.3.535,2.321,2.321,0,0,1,.288,1.6l-.387,3.7h-1.53l.384-3.663a.925.925,0,0,0-.138-.707.868.868,0,0,0-.681-.22,1.19,1.19,0,0,0-1.026.551l-.423,4.04h-1.53l.6-5.728Z" transform="translate(-427.45 -3693.364)" fill="#a66d58"/><path d="M493.124,3699.945a1.1,1.1,0,0,0,.713-.232.924.924,0,0,0,.34-.62h1.435a2.158,2.158,0,0,1-.429,1.067,2.433,2.433,0,0,1-.934.752,2.853,2.853,0,0,1-1.226.267,2.238,2.238,0,0,1-1.856-.781,2.853,2.853,0,0,1-.483-2.157l.01-.1a3.384,3.384,0,0,1,.926-2.113,2.725,2.725,0,0,1,2.015-.789,2.185,2.185,0,0,1,1.659.612,1.971,1.971,0,0,1,.489,1.627h-1.435a.96.96,0,0,0-.2-.727.826.826,0,0,0-.669-.279,1.031,1.031,0,0,0-.848.39,2.439,2.439,0,0,0-.406,1.264l-.017.159a2.174,2.174,0,0,0,.137,1.273A.832.832,0,0,0,493.124,3699.945Z" transform="translate(-429.044 -3693.364)" fill="#a66d58"/><path d="M497.814,3698.156a3.662,3.662,0,0,1,.487-1.519,2.8,2.8,0,0,1,1.052-1.033,2.975,2.975,0,0,1,1.471-.365,2.359,2.359,0,0,1,1.818.709,2.581,2.581,0,0,1,.616,1.927l-.03.392a3.324,3.324,0,0,1-.957,2.115,2.832,2.832,0,0,1-2.058.8,2.315,2.315,0,0,1-1.894-.794,2.806,2.806,0,0,1-.512-2.16Zm1.519.109a2.014,2.014,0,0,0,.176,1.249.9.9,0,0,0,.833.432,1.135,1.135,0,0,0,.913-.427,2.542,2.542,0,0,0,.456-1.365,2,2,0,0,0-.183-1.24.9.9,0,0,0-.833-.44,1.122,1.122,0,0,0-.914.437A2.586,2.586,0,0,0,499.333,3698.264Z" transform="translate(-430.514 -3693.364)" fill="#a66d58"/></g><g transform="translate(241.223 3640.042)"><path d="M288.083,3748.044l2.874,1.151a6.458,6.458,0,0,1,2.667,2l1.318,1.667a2.914,2.914,0,0,1-.1,3.739l-1.4,1.588a2.93,2.93,0,0,1-4.134.27l-.025-.023-1.349-1.191s-4.128-2.9-5.342-6.732l.794-.793A5.485,5.485,0,0,1,288.083,3748.044Z" transform="translate(-249.755 -3666.386)" fill="#ffb573"/><path d="M293.042,3710.307l-.937.619-1.04.714c-.691.492-1.389,1-2.064,1.516-1.357,1.056-2.675,2.143-3.9,3.3a32.1,32.1,0,0,0-6.144,7.477c-.2.333-.373.667-.54,1.008l-.127.254c.032-.107.058-.216.079-.325a.984.984,0,0,0,0-.4c-.071-.23-.079.365.1.953a24.357,24.357,0,0,0,1.9,4.4c1.635,3.128,3.683,6.35,5.62,9.526l.048.087a2.794,2.794,0,0,1-.929,3.834,2.825,2.825,0,0,1-3.175-.183,51.847,51.847,0,0,1-4.533-3.969,53.661,53.661,0,0,1-4.144-4.517,27.452,27.452,0,0,1-3.644-5.66,15.077,15.077,0,0,1-.746-1.953,9.7,9.7,0,0,1-.413-2.675,7.843,7.843,0,0,1,.2-1.825,8.53,8.53,0,0,1,.3-1.008l.151-.4c.2-.548.421-1.079.651-1.587a37.221,37.221,0,0,1,7.573-10.867,48.141,48.141,0,0,1,4.763-4.262c.841-.651,1.691-1.286,2.572-1.881.445-.3.889-.6,1.349-.889l.706-.428.794-.461a5.557,5.557,0,0,1,5.842,9.43Z" transform="translate(-246.839 -3656.495)" fill="#ffb573"/><path d="M295.333,3697.106c-4.636,0-9.716,2.009-16.225,10.081,0,4.819,10.168,11.224,10.168,11.224S305.946,3697.066,295.333,3697.106Z" transform="translate(-249.035 -3655.892)" fill="#d9a171"/><path d="M255.595,3936.345a.953.953,0,0,1-.246-.04c-.96-.341-1.865-2.786-1.921-4.152a.206.206,0,0,1,.119-.206.229.229,0,0,1,.246,0c.1.087,2.492,2.048,2.6,3.366a.933.933,0,0,1-.214.714A.8.8,0,0,1,255.595,3936.345Zm-1.659-3.66c.214,1.294.953,2.977,1.588,3.175a.294.294,0,0,0,.341-.126.486.486,0,0,0,.111-.381c-.087-.754-1.262-1.968-2.04-2.667Z" transform="translate(-243.739 -3704.31)" fill="#344154"/><path d="M257.087,3933.334a7.74,7.74,0,0,1-3.564-1.1.226.226,0,0,1,.071-.405c.127,0,3.12-.794,4.247-.127a.916.916,0,0,1,.452.6.73.73,0,0,1-.286.794A1.64,1.64,0,0,1,257.087,3933.334Zm-2.834-1.2c1.167.587,2.969.984,3.5.619.079-.055.151-.134.1-.349a.459.459,0,0,0-.246-.317c-.659-.4-2.334-.159-3.358.047Z" transform="translate(-243.739 -3704.213)" fill="#344154"/><path d="M242.688,3929.362a37.421,37.421,0,0,0,5.922-8.406s7.366,1.81,5.922,3.969c-2.627,3.85-3.905,11.764-.524,16,1.929,2.421-1.119,2.826-3.175,1.786-3.175-1.643-3.072-2.262-4.763-4.985-1.429-2.326-1.992-3.238-3.969-4.238C240.513,3932.625,241.306,3931.006,242.688,3929.362Z" transform="translate(-241.223 -3702.051)" fill="#d9a171"/><path d="M306.634,3757.386s-10.669,52.073-18.5,74.354c-8.208,23.354-30.871,59.4-31.752,60.948-3.223-.865-6.1-1.992-8.009-3.858,0,0,10.637-39.094,21-64.456,3.969-52.946,12.613-66.948,12.613-66.948Z" transform="translate(-242.698 -3668.322)" fill="#344154"/><path d="M301.092,3792.438c-.484,10.073-.794,23.925-.341,40.785,3.263-10.51,6.811-24.759,9.8-37.546C308.554,3793.017,305.458,3791.739,301.092,3792.438Z" transform="translate(-253.453 -3675.511)" fill="#d9a171" opacity="0.2" style="isolation:isolate"/><path d="M302.048,3676.946c1.119,4.532,2.215,11.907.429,15.876,0,0,6.684.3,15.225,7.144,4.025-5.906-.635-7.065-.635-7.065-3.548-.794-3.374-5.557-3.366-8.93Z" transform="translate(-253.766 -3651.735)" fill="#ffb573"/><path d="M299.486,3697.906c-3.334-.365-1.032-6.7.7-6.081,4.382,1.588,14.209-.175,17.249,1.5a4.793,4.793,0,0,1,2.27,5.112S303.074,3698.3,299.486,3697.906Z" transform="translate(-252.887 -3654.794)" fill="#d9a171"/><path d="M299.486,3697.906c-3.334-.365-1.032-6.7.7-6.081,4.382,1.588,14.209-.175,17.249,1.5a4.793,4.793,0,0,1,2.27,5.112S303.074,3698.3,299.486,3697.906Z" transform="translate(-252.887 -3654.794)" fill="#fff" opacity="0.7" style="isolation:isolate"/><path d="M324.424,3666.557c.111.6.516,1.04.913.968s.627-.619.524-1.222-.516-1.04-.913-.968S324.344,3665.953,324.424,3666.557Z" transform="translate(-258.376 -3649.339)" fill="#344154"/><path d="M324.878,3665.241l1.381-.675S325.712,3665.836,324.878,3665.241Z" transform="translate(-258.473 -3649.182)" fill="#344154"/><path d="M324.681,3660.637a.353.353,0,0,0,0-.27.365.365,0,0,0-.444-.254,3.612,3.612,0,0,0-2.493,2.159.38.38,0,0,0,.23.46.365.365,0,0,0,.46-.23,2.84,2.84,0,0,1,1.992-1.691A.381.381,0,0,0,324.681,3660.637Z" transform="translate(-257.824 -3648.261)" fill="#344154"/><path d="M325.328,3668.736a16.424,16.424,0,0,0,2.6,3.675,2.635,2.635,0,0,1-2.143.635Z" transform="translate(-258.566 -3650.042)" fill="#ed893e"/><path d="M298.247,3663.15c1.77,7.366,2.381,10.518,6.723,13.685,6.565,4.763,15.042,1,15.471-6.732.381-6.969-2.572-17.836-10.24-19.535S296.477,3655.784,298.247,3663.15Z" transform="translate(-252.918 -3646.242)" fill="#ffb573"/><path d="M310.489,3663.451c4.334-5.731,7.144-10.367,5.025-15.439-1.786-4.239-6.731-3-7.422-.881-13.145-1.119-17.868,3.643-15.154,11.518,1.73,5.025-4.985,2.381-3.35,8.8,1.246,4.89-3.175,6.755-.929,9.565,3.239,4.056,9.922-1.23,17.551,1.81C312.434,3681.312,321.817,3677.541,310.489,3663.451Z" transform="translate(-250.871 -3645.185)" fill="#344154"/><path d="M315.274,3668.507a4.873,4.873,0,0,0,3.294,2.262c1.723.254,2.318-1.683,1.588-3.477-.635-1.588-2.294-3.691-3.921-3.112S314.3,3666.959,315.274,3668.507Z" transform="translate(-256.378 -3649.082)" fill="#ffb573"/><path d="M317.654,3943.071a7.143,7.143,0,0,1-3.755-1.644.225.225,0,0,1,.127-.389c.127,0,3.175-.341,4.223.5a.882.882,0,0,1,.357.659.717.717,0,0,1-.4.794A1.316,1.316,0,0,1,317.654,3943.071Zm-3.024-1.636c1.08.755,2.8,1.414,3.382,1.127.087-.047.167-.119.151-.333a.467.467,0,0,0-.2-.349c-.564-.493-2.286-.508-3.334-.445Z" transform="translate(-256.194 -3706.178)" fill="#344154"/><path d="M314.051,3940.717a.245.245,0,0,1-.183-.1.231.231,0,0,1,0-.247c.064-.111,1.588-2.794,2.882-3.119a.9.9,0,0,1,.746.1.722.722,0,0,1,.381.793c-.175,1.009-2.445,2.3-3.77,2.58Zm2.961-3.048h-.159c-.746.19-1.754,1.548-2.318,2.429,1.238-.429,2.786-1.429,2.9-2.063a.33.33,0,0,0-.183-.326A.483.483,0,0,0,317.012,3937.669Z" transform="translate(-256.196 -3705.405)" fill="#344154"/><path d="M321.021,3943.905c-6.43-.5-10.764-4.914-10.319-9.589.246-2.58-7.993-2.81-7.993-2.81,1.3,7.993-.333,9.136-.873,11.2s-.4,4.35,1.3,4.39c2.04.055,2.993-.333,5.557-.238,2.969.119,6.176.23,11.454.238C322.235,3947.1,323.878,3944.127,321.021,3943.905Z" transform="translate(-253.663 -3704.227)" fill="#d9a171"/><path d="M327.839,3757.386s-.564,39.443-3.675,65.361-13.812,76.752-13.812,76.752a17.906,17.906,0,0,1-8.549-.079s-3.382-39.689,2.294-78.086c-4.167-40.221-6.779-63.948-6.779-63.948Z" transform="translate(-252.79 -3668.322)" fill="#344154"/><path d="M327.547,3708.368c-.135,3.048,4.675,10.1-1.262,14.177,1.111,2.485,2.048,19.305-.2,22.306-3.278,2.381-21.02,1.944-35.721,0-.627-6.081,2.723-18.678-1.381-38.316a7.834,7.834,0,0,1,6.065-9.272,7.935,7.935,0,0,1,.817-.126c1.238-.119,2.548-.23,3.89-.293a100.286,100.286,0,0,1,14.074,0c1.516.143,3.088.333,4.588.547A10.622,10.622,0,0,1,327.547,3708.368Z" transform="translate(-251.037 -3655.786)" fill="#d9a171"/><g transform="translate(37.84 40.857)" opacity="0.3"><path d="M289.365,3705.553l-.326.183h0a.206.206,0,1,0,.119.4.2.2,0,0,0,.071-.038l.365-.2c1.588.58,3.278,1.9,4.255,2.032-1.588-1.389-2.707-2.381-3.969-2.207.373-.222.738-.445,1.1-.683,1.445.54,3.016,1.746,3.913,1.865-1.461-1.286-2.508-2.206-3.659-2.032l.794-.548.445-.326c1.31.563,2.691,1.762,3.517,1.929-1.318-1.3-2.246-2.223-3.358-2.04.349-.262.691-.524,1.024-.794,1.2.524,2.469,1.588,3.223,1.771-1.207-1.2-2.056-2.04-3.08-1.882l.857-.714.206-.175c1.056.556,2.1,1.651,2.794,1.85-1-1.2-1.7-2.032-2.746-1.9.27-.23.54-.468.794-.714.976.516,1.937,1.524,2.572,1.707-.921-1.1-1.588-1.865-2.524-1.747l.841-.794c.849.524,1.659,1.476,2.223,1.675-.794-1.047-1.3-1.77-2.167-1.73.151-.151.3-.294.445-.445l.254-.262c.794.484,1.532,1.365,2.048,1.548-.7-.96-1.2-1.635-1.992-1.587.23-.238.46-.485.683-.73.714.389,1.389,1.127,1.865,1.27-.627-.794-1.072-1.381-1.834-1.3l.127-.135.476-.555a19.613,19.613,0,0,0,1.7,1.151c-.572-.738-.976-1.254-1.659-1.2a8.727,8.727,0,0,0,.524-.7.064.064,0,0,0,.006-.09l-.006-.006a.072.072,0,0,0-.087,0h0q-.238.334-.5.643a1.5,1.5,0,0,0-.294-1.048h-.27a10.29,10.29,0,0,1,.437,1.175c-.143.167-.294.325-.437.484l-.1.111c.151-.58-.151-1.08-.611-1.715h-.151c.127.492.5,1.167.651,1.818l-.635.643c.206-.73-.3-1.373-1.008-2.286a18.8,18.8,0,0,0,.921,2.381l-.222.223-.437.413c.2-.794-.341-1.485-1.111-2.461,0,.588.722,1.588,1,2.564l-.794.691c.167-.794-.365-1.588-1.087-2.62a23.134,23.134,0,0,0,.9,2.778l-.627.532c.183-.858-.389-1.7-1.175-2.85a25.9,25.9,0,0,0,.976,3.016l-.167.135c-.286.238-.579.468-.873.7.23-.881-.318-1.873-1.072-3.223-.056.73.6,2.159.794,3.421-.333.254-.667.492-1.008.739.381-1-.238-2.119-1.1-3.676-.071.794.675,2.429.889,3.818l-.3.207-.945.612c.437-1.008-.1-2.2-.873-3.818-.04.055-.079.111-.111.167.056.952.611,2.477.73,3.8-.349.222-.714.428-1.072.627.413-.842.175-1.794-.333-2.985a7.618,7.618,0,0,0-.278,1.032A13.975,13.975,0,0,1,289.365,3705.553Z" transform="translate(-288.893 -3696.726)" fill="#344154"/><path d="M312.788,3699.982c-1.2-.794-2.381-2.167-3.175-2.46,1.087,1.492,1.865,2.548,2.993,2.548-.389.2-.794.405-1.143.619-1.1-.707-2.175-1.992-2.9-2.262,1,1.374,1.715,2.342,2.747,2.381-.325.183-.643.373-.961.563l-.23.143c-.96-.714-1.818-1.961-2.469-2.27.794,1.35,1.357,2.278,2.381,2.31-.31.182-.611.381-.913.579-.873-.659-1.667-1.81-2.262-2.088.73,1.231,1.238,2.088,2.215,2.119l-.953.643c-.754-.651-1.4-1.722-1.929-2.008.587,1.151,1,1.96,1.865,2.056l-.516.365-.286.214c-.7-.6-1.3-1.588-1.786-1.849.548,1.064.929,1.8,1.723,1.9-.27.2-.532.4-.794.6-.651-.493-1.2-1.326-1.651-1.54.5.905.841,1.532,1.588,1.588l-.143.111-.564.476c-.587-.46-1.087-1.214-1.5-1.413.452.794.794,1.4,1.453,1.453-.214.19-.429.4-.635.611a.054.054,0,0,0-.01.077l.01.01a.063.063,0,0,0,.087,0h0a6.488,6.488,0,0,1,.6-.556c-.2.54.087,1.088.468,1.834a15.2,15.2,0,0,0-.325-1.953c.167-.143.333-.27.508-.4l.119-.095c-.27.611.04,1.222.476,2.079a19.26,19.26,0,0,0-.357-2.167c.246-.19.484-.365.738-.54-.318.683.079,1.405.635,2.382.056-.54-.429-1.588-.532-2.493l.254-.183.492-.333c-.318.739.1,1.516.706,2.6.056-.588-.46-1.707-.579-2.691l.865-.556c-.294.754.1,1.588.651,2.754a23.44,23.44,0,0,0-.452-2.881l.706-.429c-.318.794.111,1.739.714,3a27.1,27.1,0,0,0-.492-3.135l.183-.1.976-.556c-.365.833,0,1.9.54,3.357.175-.714-.238-2.23-.254-3.508.373-.2.738-.389,1.119-.572-.54.928-.111,2.127.5,3.8.19-.794-.286-2.5-.278-3.905l.325-.159,1.04-.461c-.619.969-.23,2.3.325,4.152.254-.857-.159-2.731-.056-4.263.381-.159.794-.3,1.159-.444-.746,1.055-.318,2.524.294,4.572.286-.929-.175-2.993-.056-4.652l.357-.127h0a.2.2,0,0,0,.132-.248l0-.014a.214.214,0,0,0-.262-.127l-.389.142a25.263,25.263,0,0,1-2.635-1.928h-.635c1.032,1.23,1.881,2.056,2.937,2.072-.4.151-.794.326-1.2.5-1.341-.794-2.7-2.2-3.564-2.469,1.238,1.508,2.127,2.58,3.294,2.588l-.889.413Z" transform="translate(-292.034 -3696.656)" fill="#344154"/><path d="M300.172,3718.051c-.873-.953-1.484-1.588-2.342-1.484l.4-.484.222-.286a20.877,20.877,0,0,0,2.207,1.3c-.794-.873-1.373-1.492-2.167-1.365.206-.262.4-.524.6-.794.754.3,1.508.96,2,1.048-.722-.738-1.222-1.255-1.977-1.088a1.087,1.087,0,0,0,.111-.151c.143-.2.278-.4.413-.6a19.429,19.429,0,0,0,1.826.96c-.659-.675-1.111-1.143-1.786-1.008a6.256,6.256,0,0,0,.445-.794.066.066,0,1,0-.119-.055h0a6.342,6.342,0,0,1-.429.69c.048-.571-.373-1.024-.945-1.643a15.1,15.1,0,0,0,.841,1.8l-.381.524-.1.119c.1-.659-.365-1.167-1.008-1.873a17.824,17.824,0,0,0,.921,2l-.564.714c.119-.754-.452-1.333-1.262-2.167a18.323,18.323,0,0,0,1.183,2.262l-.2.246-.389.453c.111-.794-.5-1.429-1.373-2.318a27.3,27.3,0,0,0,1.278,2.437l-.683.794c.079-.794-.532-1.516-1.373-2.485a25.055,25.055,0,0,0,1.215,2.659l-.564.6c.087-.873-.579-1.643-1.492-2.7a25.57,25.57,0,0,0,1.31,2.882l-.151.159c-.254.27-.524.531-.794.793.135-.9-.516-1.818-1.413-3.08,0,.73.794,2.08,1.183,3.31-.3.286-.611.572-.921.841.27-1.032-.468-2.072-1.5-3.524,0,.794.945,2.334,1.31,3.691l-.278.238c-.286.246-.579.484-.873.722.341-1.1-.4-2.278-1.421-3.914,0,.889.881,2.588,1.191,4.088q-.485.381-1,.738a2.827,2.827,0,0,0-.3-2.231c.1.945.175,1.866.238,2.771l.111-.079c1.627.4,3.469,1.516,4.453,1.54-1.715-1.207-2.953-2.064-4.167-1.747.349-.262.691-.532,1.024-.794,1.5.373,3.175,1.4,4.1,1.421-1.588-1.119-2.739-1.921-3.866-1.588.254-.214.5-.42.746-.643l.4-.373c1.365.42,2.874,1.46,3.707,1.524-1.445-1.143-2.477-1.953-3.564-1.651.317-.294.627-.6.937-.9,1.246.389,2.635,1.341,3.4,1.405-1.334-1.056-2.278-1.8-3.278-1.524.262-.27.524-.532.794-.794l.183-.2c1.111.436,2.278,1.4,2.985,1.532-1.127-1.08-1.913-1.834-2.937-1.588.238-.262.484-.532.714-.794,1.024.4,2.1,1.294,2.747,1.405-1.032-.992-1.754-1.675-2.7-1.453.254-.286.5-.579.738-.873C298.68,3717.059,299.593,3717.917,300.172,3718.051Z" transform="translate(-289.333 -3699.881)" fill="#344154"/><path d="M317.549,3717.639a24.541,24.541,0,0,0-2.191,1.929l-.738-.365c.865-.167,1.4-1.024,2.151-2.207-.627.27-1.461,1.389-2.381,2.1l-.191-.1c-.333-.167-.659-.35-.984-.524.9-.135,1.588-1.032,2.532-2.262-.7.238-1.746,1.405-2.818,2.1-.365-.206-.722-.413-1.08-.635,1.064-.04,1.85-1.056,2.937-2.469-.794.27-1.961,1.587-3.175,2.334l-.31-.19-.937-.627c1.143,0,2.056-1.04,3.318-2.5-.857.238-2.215,1.588-3.556,2.334q-.517-.357-1-.739c1.286.063,2.294-1.087,3.7-2.707-.945.254-2.437,1.754-3.905,2.548l-.294-.238h0a.213.213,0,0,0-.294,0,.205.205,0,0,0,0,.286l.325.254c.1,1.675-.437,3.762-.175,4.715.651-2,1.119-3.437.46-4.5.349.254.706.5,1.064.738.079,1.587-.4,3.461-.159,4.334.6-1.85,1.032-3.175.4-4.167l.794.524.476.285c0,1.421-.556,3.175-.381,3.969.675-1.714,1.151-2.937.548-3.882.373.214.794.421,1.135.627,0,1.31-.508,2.906-.349,3.66.619-1.588,1.056-2.707.5-3.58l1,.508.238.119c-.087,1.183-.675,2.588-.587,3.294.706-1.389,1.191-2.381.651-3.27l.976.453c-.087,1.1-.627,2.381-.54,3.04.643-1.286,1.087-2.175.6-3.009.349.159.7.31,1.056.453-.143.984-.7,2.111-.659,2.706.659-1.119,1.111-1.9.73-2.675l.587.238.333.127c-.127.913-.635,1.945-.6,2.492.6-1.024,1.024-1.746.675-2.469.31.119.619.238.937.341-.064.794-.476,1.722-.413,2.223.492-.9.794-1.54.46-2.207l.175.063c.23.071.46.151.7.214a19.658,19.658,0,0,0-.381,2.024c.445-.794.794-1.4.437-2.008a6.5,6.5,0,0,0,.857.206.064.064,0,0,0,.071-.048.071.071,0,0,0-.048-.079h0c-.27-.055-.532-.127-.794-.207.556-.127.865-.651,1.286-1.381-.4.175-.9.881-1.469,1.326l-.611-.206-.143-.056c.659-.1,1.008-.69,1.492-1.516-.452.2-1,.985-1.643,1.46-.278-.1-.564-.206-.841-.325.746-.1,1.143-.794,1.691-1.834-.484.246-1.1,1.206-1.81,1.786l-.294-.119-.548-.238c.794-.119,1.222-.9,1.818-1.984-.524.262-1.191,1.294-1.953,1.929-.318-.135-.627-.278-.937-.429C316.366,3719.512,316.866,3718.726,317.549,3717.639Z" transform="translate(-292.889 -3700.049)" fill="#344154"/><path d="M311.709,3731.686a19.932,19.932,0,0,0,1.873.841c-.691-.627-1.183-1.064-1.842-.9a7.355,7.355,0,0,0,.4-.794.066.066,0,1,0-.119-.055h0c-.119.246-.246.484-.381.722,0-.571-.444-1-1.048-1.587a14.953,14.953,0,0,0,.945,1.738l-.341.548-.087.127c.056-.667-.437-1.143-1.127-1.8a19.073,19.073,0,0,0,1.04,1.929l-.508.754c.071-.754-.54-1.309-1.4-2.08.127.532.921,1.357,1.318,2.183l-.183.254c-.111.158-.238.317-.357.476.064-.794-.587-1.4-1.516-2.223.143.572.992,1.46,1.429,2.381-.206.278-.421.548-.635.794,0-.794-.619-1.476-1.524-2.381a28.66,28.66,0,0,0,1.373,2.572q-.255.325-.524.643c0-.881-.675-1.587-1.651-2.6a25.02,25.02,0,0,0,1.492,2.794l-.143.167c-.246.286-.492.564-.746.833.079-.9-.635-1.786-1.588-2.985.064.73.961,2.024,1.389,3.231-.286.3-.572.6-.865.9.2-1.04-.6-2.04-1.723-3.421.079.794,1.1,2.27,1.54,3.6l-.254.254-.833.794c.27-1.119-.54-2.246-1.659-3.81,0,.889,1.04,2.532,1.445,3.969-.31.278-.627.548-.953.794.357-1.238-.524-2.484-1.778-4.223,0,.976,1.143,2.77,1.588,4.381l-.3.238h0a.206.206,0,0,0,.254.325h0l.318-.262c1.651.294,3.564,1.294,4.548,1.255-1.794-1.1-3.08-1.882-4.271-1.485.325-.278.651-.572.968-.865,1.516.278,3.27,1.191,4.175,1.159-1.659-1.016-2.858-1.739-3.969-1.358.238-.23.476-.452.706-.691l.389-.4c1.381.333,2.953,1.27,3.786,1.286-1.516-1.048-2.588-1.794-3.659-1.421.3-.318.587-.635.873-.96,1.278.3,2.715,1.167,3.485,1.183-1.4-.968-2.381-1.651-3.366-1.318.246-.277.484-.563.722-.849l.167-.214c1.143.365,2.381,1.262,3.08,1.341-1.2-1.008-2.024-1.707-3.032-1.389l.667-.842c1.048.333,2.167,1.151,2.826,1.223-1.1-.921-1.857-1.588-2.786-1.278.23-.3.46-.611.683-.921.929.365,1.9,1.167,2.485,1.262-.937-.889-1.588-1.516-2.437-1.326.127-.167.246-.341.365-.508s.135-.206.206-.3c.849.333,1.738,1.072,2.286,1.159-.865-.793-1.468-1.4-2.246-1.222q.286-.413.548-.833c.794.254,1.588.865,2.064.921-.794-.69-1.3-1.175-2.04-.961l.1-.159Z" transform="translate(-291.63 -3703.515)" fill="#344154"/><path d="M319.922,3740.64q.254-.325.524-.619c-.119.556.222,1.064.7,1.762a17.528,17.528,0,0,0-.564-1.906l.452-.46.1-.111c-.191.643.19,1.214.73,2a19.413,19.413,0,0,0-.619-2.1l.659-.627c-.222.722.254,1.389.937,2.326a19.812,19.812,0,0,0-.841-2.381l.238-.206.445-.4c-.23.794.286,1.492,1.016,2.5a21.692,21.692,0,0,0-.9-2.6c.262-.23.524-.444.794-.667-.2.794.3,1.588.984,2.659,0-.627-.579-1.771-.794-2.81l.651-.508c-.222.85.325,1.707,1.072,2.889a31.081,31.081,0,0,0-.873-3.048l.175-.135.9-.659c-.262.865.246,1.874.953,3.255.079-.73-.516-2.183-.683-3.445.341-.238.683-.476,1.032-.707-.421.984.159,2.127.968,3.715.1-.794-.6-2.453-.794-3.85l.3-.19c.325-.2.651-.4.976-.58-.5,1.032.056,2.3.794,4.072.151-.881-.484-2.691-.572-4.215.357-.206.722-.4,1.1-.587-.611,1.135,0,2.54.857,4.5.167-.96-.54-2.953-.627-4.612l.333-.167h0a.2.2,0,0,0,.1-.263l0-.007a.206.206,0,0,0-.275-.1h0l-.365.19c-1.548-.635-3.215-2.017-4.183-2.183,1.524,1.445,2.62,2.485,3.866,2.381-.381.2-.754.421-1.127.635-1.429-.587-2.953-1.85-3.842-2,1.413,1.342,2.429,2.294,3.588,2.159l-.833.524-.46.31c-1.286-.619-2.627-1.865-3.437-2.056,1.262,1.35,2.159,2.3,3.278,2.159-.357.246-.706.5-1.056.793-1.183-.563-2.381-1.707-3.175-1.881,1.167,1.239,1.992,2.112,3.016,1.992-.294.222-.6.445-.881.675l-.214.175c-1.032-.6-2.04-1.731-2.723-1.953.953,1.238,1.588,2.088,2.675,1.992l-.833.683c-.953-.54-1.881-1.588-2.508-1.794.881,1.135,1.492,1.921,2.461,1.842a9.839,9.839,0,0,0-.865.794c-.794-.556-1.588-1.54-2.159-1.754.722,1.072,1.238,1.818,2.1,1.81l-.468.421-.262.254c-.794-.516-1.476-1.421-1.992-1.588.675.984,1.143,1.675,1.945,1.667-.246.23-.484.46-.714.7-.7-.4-1.349-1.167-1.826-1.325.6.794,1.024,1.413,1.794,1.365l-.127.127c-.167.175-.341.357-.5.54-.643-.381-1.23-1.072-1.659-1.214.548.754.929,1.286,1.588,1.262a7.558,7.558,0,0,0-.556.675.063.063,0,0,0-.006.09l.006.006a.056.056,0,0,0,.078.01l.009-.01Z" transform="translate(-295.033 -3703.61)" fill="#344154"/><path d="M307.711,3755.451q.476-.444.929-.9c1.254.389,2.635,1.341,3.405,1.4-1.334-1.056-2.278-1.8-3.278-1.532.262-.262.524-.532.794-.794l.183-.2c1.111.437,2.27,1.405,2.985,1.532-1.127-1.088-1.913-1.834-2.945-1.588.246-.262.484-.532.722-.794,1.024.4,2.1,1.294,2.747,1.405-1.04-.992-1.762-1.683-2.7-1.453l.738-.873c.9.42,1.818,1.278,2.381,1.413-.873-.944-1.492-1.588-2.381-1.476l.4-.484.222-.285c.833.388,1.675,1.175,2.215,1.3-.794-.881-1.373-1.492-2.167-1.365.206-.262.4-.524.6-.794.794.3,1.508.961,2,1.048-.714-.738-1.215-1.254-1.969-1.088l.111-.151c.135-.2.278-.4.413-.6a19.892,19.892,0,0,0,1.818.953c-.651-.667-1.111-1.135-1.786-1.008a7.928,7.928,0,0,0,.445-.754.064.064,0,0,0-.024-.087.064.064,0,0,0-.087.024h0q-.2.357-.429.69c0-.571-.373-1.024-.945-1.643a16.8,16.8,0,0,0,.794,1.8l-.373.524-.1.119c.1-.659-.365-1.167-1.016-1.873a20.145,20.145,0,0,0,.921,1.992c-.183.246-.365.484-.556.715.119-.746-.452-1.334-1.262-2.159.1.54.833,1.413,1.183,2.262-.071.079-.135.167-.2.246l-.389.452c.111-.794-.5-1.429-1.373-2.318.1.58.9,1.516,1.278,2.437l-.683.794c.079-.794-.532-1.516-1.373-2.485a18.275,18.275,0,0,0,1.207,2.659l-.564.6c.087-.881-.572-1.643-1.484-2.7a25.59,25.59,0,0,0,1.31,2.882l-.151.159-.794.794c.135-.9-.524-1.826-1.421-3.08,0,.73.833,2.08,1.183,3.31l-.913.842c.262-1.032-.468-2.072-1.508-3.524,0,.794.953,2.333,1.318,3.691l-.278.238c-.286.246-.579.484-.873.715.341-1.1-.4-2.27-1.421-3.905,0,.881.857,2.548,1.175,4.032h.611c.246-.207.492-.413.73-.627s.278-.246.413-.373a25.932,25.932,0,0,1,2.747,1.222h.6C309.656,3755.847,308.7,3755.173,307.711,3755.451Z" transform="translate(-292.125 -3707.109)" fill="#344154"/><path d="M303,3754.476a16.605,16.605,0,0,0,1.016,3.421l.6.048A8.783,8.783,0,0,0,303,3754.476Z" transform="translate(-291.801 -3708.579)" fill="#344154"/><path d="M306.968,3758.972l1.2.071A2.152,2.152,0,0,0,306.968,3758.972Z" transform="translate(-292.62 -3709.495)" fill="#344154"/><path d="M333.288,3754.777a1.3,1.3,0,0,0,.064-.143l-.286-.1-.143-.047a1.229,1.229,0,0,0,.6-.286c.071-.207.143-.429.206-.675a8.732,8.732,0,0,1-.96.905l-.865-.309c.746-.111,1.143-.794,1.691-1.842-.484.246-1.1,1.207-1.81,1.794l-.294-.119-.548-.238c.794-.127,1.222-.9,1.818-1.993-.524.27-1.191,1.3-1.953,1.938l-.937-.429c.794-.167,1.286-.953,1.969-2.04a24.829,24.829,0,0,0-2.191,1.937l-.738-.365c.865-.175,1.405-1.032,2.151-2.215a27.232,27.232,0,0,0-2.381,2.1l-.19-.1-.984-.532c.9-.135,1.588-1.032,2.532-2.254-.7.238-1.746,1.405-2.818,2.1-.365-.2-.722-.413-1.08-.627,1.064-.048,1.85-1.056,2.937-2.469-.794.262-1.961,1.588-3.175,2.334l-.31-.191c-.317-.206-.627-.413-.937-.635,1.143,0,2.056-1.04,3.318-2.493-.857.238-2.215,1.588-3.556,2.334l-1.008-.746c1.294.063,2.3-1.087,3.707-2.707-.945.262-2.437,1.754-3.905,2.548l-.294-.23h0a.207.207,0,0,0-.254.326l.325.246c.1,1.675-.437,3.771-.175,4.715.651-1.992,1.119-3.429.46-4.5.349.262.707.508,1.064.746.079,1.54-.4,3.461-.159,4.334.6-1.857,1.032-3.175.4-4.167.278.175.548.357.794.524l.476.286c0,1.421-.556,3.175-.381,3.969.675-1.722,1.151-2.937.548-3.89.373.222.794.428,1.135.627,0,1.31-.508,2.913-.349,3.659.619-1.588,1.056-2.7.5-3.572l1,.5.238.119c-.087,1.19-.675,2.587-.587,3.3.706-1.4,1.191-2.381.651-3.271l.976.452c-.079,1.064-.587,2.294-.548,2.969h.04c.627-1.239,1.048-2.112.564-2.937l1.056.46c-.119.794-.5,1.683-.619,2.31l.214-.04c.508-.889.794-1.588.476-2.239l.579.23.341.135a12.462,12.462,0,0,1-.444,1.651l.365-.111a1.646,1.646,0,0,0,.151-1.516l.937.342a4.823,4.823,0,0,1-.151.794,2.931,2.931,0,0,0,.349-.207,1.114,1.114,0,0,0-.151-.579l.175.055Z" transform="translate(-295.841 -3706.967)" fill="#344154"/><path d="M296.355,3735.223h0a.215.215,0,0,0,.143-.254.207.207,0,0,0-.254-.143l-.4.119c-1.4-.913-2.778-2.58-3.7-2.929,1.222,1.707,2.1,2.929,3.358,3.032-.413.127-.794.27-1.23.421a32.425,32.425,0,0,1-2.659-2.223v.54c.794,1.032,1.484,1.723,2.381,1.786-.31.111-.611.23-.913.357l-.516.214a9.28,9.28,0,0,1-.96-.833v.659a1.86,1.86,0,0,0,.794.254l-.794.373v.333l1.072-.46c-.6.889-.238,2.119.254,3.826.246-.794-.127-2.516,0-3.921l.333-.135,1.064-.389c-.683.929-.381,2.286.056,4.159.31-.833,0-2.73.214-4.247.4-.135.794-.262,1.191-.373-.794,1.008-.476,2.492,0,4.588.341-.913,0-3,.246-4.651Z" transform="translate(-289.453 -3703.948)" fill="#344154"/><path d="M291.408,3741.82a1.033,1.033,0,0,0,.079.286,7.192,7.192,0,0,0,0-2.08C291.464,3740.637,291.44,3741.24,291.408,3741.82Z" transform="translate(-289.411 -3705.599)" fill="#344154"/><path d="M294.082,3755.273l-.294-.469c.643-1.27,1.929-2.58,2.135-3.389-1.381,1.23-2.381,2.1-2.238,3.223-.238-.365-.484-.715-.73-1.072.6-1.167,1.77-2.382,1.969-3.1-1.27,1.127-2.167,1.929-2.072,2.961l-.659-.905-.159-.214c.611-1.016,1.77-2,2.016-2.675-1.262.921-2.135,1.588-2.056,2.627l-.667-.849c.572-.937,1.635-1.841,1.857-2.46-1.159.849-1.961,1.437-1.9,2.381l-.492-.587v.333l.286.349a1.884,1.884,0,0,0-.3-.047v.349l.46-.111.5.667a1.744,1.744,0,0,0-.984,0v.492a7.792,7.792,0,0,1,1.159-.31l.127.167.643.921a2.861,2.861,0,0,0-1.937.262v.437a20.19,20.19,0,0,1,2.127-.428c.23.349.452.7.667,1.056-.754-.349-1.588-.087-2.739.4v.318h.175a24.9,24.9,0,0,1,2.675-.532l.191.309.341.611.444.056A4.771,4.771,0,0,1,294.082,3755.273Z" transform="translate(-289.275 -3707.439)" fill="#344154"/><path d="M291.038,3747.746v.373a2.8,2.8,0,0,0,.556-.722Z" transform="translate(-289.335 -3707.119)" fill="#344154"/><path d="M296.918,3757.464l.706.079a10.788,10.788,0,0,0,1.437-2.588A12.069,12.069,0,0,0,296.918,3757.464Z" transform="translate(-290.548 -3708.678)" fill="#344154"/><path d="M295.837,3757.13c.659-1.342,1.826-2.723,1.992-3.564-1.381,1.381-2.381,2.382-2.254,3.532Z" transform="translate(-290.268 -3708.391)" fill="#344154"/><path d="M290.9,3749.333a3.29,3.29,0,0,1-.04.627,12.216,12.216,0,0,0,1.524-1.754A7.015,7.015,0,0,0,290.9,3749.333Z" transform="translate(-289.298 -3707.286)" fill="#344154"/></g><path d="M360.163,3724.209l3.509-3.723,4.866,6.85s-4.1,2.905-8.033,2.794l-.453-1.009A5.506,5.506,0,0,1,360.163,3724.209Z" transform="translate(-265.618 -3660.713)" fill="#ffb573"/><path d="M370.416,3720.618l1.373,2.58a2.429,2.429,0,0,1-.992,3.278l-1.143.627-4.866-6.85,2.786-.794A2.43,2.43,0,0,1,370.416,3720.618Z" transform="translate(-266.703 -3660.479)" fill="#ffb573"/><path d="M334.136,3707.125l.3,1.516.333,1.588c.238,1.071.468,2.151.738,3.175.516,2.127,1.135,4.215,1.794,6.231a42.541,42.541,0,0,0,2.381,5.644,15.392,15.392,0,0,0,2.905,4.048l-1.683-.794c-.492-.063-.587.087-.325.08a3.545,3.545,0,0,0,1.2-.349,19.922,19.922,0,0,0,3.382-1.976c1.183-.794,2.381-1.731,3.564-2.691s2.381-1.985,3.54-2.929l.127-.1a2.794,2.794,0,0,1,4.255,3.437,42.716,42.716,0,0,1-2.659,4.406,41.739,41.739,0,0,1-3.239,4.1,24.089,24.089,0,0,1-4.279,3.794,13.709,13.709,0,0,1-3.175,1.588,9.647,9.647,0,0,1-2.239.492,8.817,8.817,0,0,1-2.826-.207,4.238,4.238,0,0,1-1.5-.69l-.19-.143a23.088,23.088,0,0,1-6.041-6.739,39.194,39.194,0,0,1-1.953-3.572q-.866-1.8-1.588-3.6a65.153,65.153,0,0,1-2.334-7.255c-.31-1.222-.6-2.437-.849-3.667-.119-.619-.246-1.23-.349-1.858s-.2-1.214-.3-1.961a5.557,5.557,0,0,1,10.954-1.825Z" transform="translate(-258.102 -3656.988)" fill="#ffb573"/><path d="M325.9,3697.836c4.62.476,8.311,3.54,10.891,13.3-1.984,2.747-14.487,8.771-14.487,8.771S315.342,3696.749,325.9,3697.836Z" transform="translate(-257.478 -3656.034)" fill="#d9a171"/></g></g></svg>