<svg xmlns="http://www.w3.org/2000/svg" width="294.323" height="238.749" viewBox="0 0 294.323 238.749"><g transform="translate(-888.007 -3587.741)"><g transform="translate(888.007 3631.773)"><path d="M1040.455,3859.337l-4.984,3.209-9.034-10.506,4.984-3.209Z" transform="translate(-918.631 -3689.533)" fill="#ff8b7b"/><path d="M1031.429,3848.832l-4.992,3.209,4.665,5.42,4.984-3.217Z" transform="translate(-918.631 -3689.533)" fill="#d9a171" opacity="0.2" style="isolation:isolate"/><path d="M992.206,3880.45l-5.732.561-5.958-13.628,5.732-.561Z" transform="translate(-908.472 -3693.513)" fill="#ff8b7b"/><path d="M980.527,3867.392l3.068,7.025h5.973l-3.318-7.585Z" transform="translate(-908.475 -3693.515)" fill="#d9a171" opacity="0.2" style="isolation:isolate"/><path d="M929.722,3647.233c-2.881.257-2.959-4.634-8.021-2.336-6.433,2.928-4.26,7.469-9.283,7.282s-8.387,3.73-7.266,6.651,2.858,5.685-.693,6.861-5.965,2.212-5.451,5.156,3.029,4.127-1.207,6-3.808,9.992.343,10,.171,4.05,3.894,8.162,9.384,4.673,11.744,2.648,4.992-3.7,9.431-.584,11.954,3.894,11.612-1.044-4.673-8.177-.592-10.747,9.345-3.839,7.694-8.839c-1.051-3.115-4.229-5.825-1.667-8.154,4.167-3.785,4.19-12.352-.919-14.524C936.373,3652.513,939.231,3646.377,929.722,3647.233Z" transform="translate(-889.514 -3644.281)" fill="#344154"/><path d="M923.664,3697.373c-.14,2.336-.436,4.416-.779,6.6a63.286,63.286,0,0,1-1.41,6.464,47.863,47.863,0,0,1-2.11,6.355c-.421,1.044-.9,2.08-1.417,3.115-.257.514-.537,1.02-.826,1.519-.132.257-.3.506-.444.779l-.226.366a5.716,5.716,0,0,1-.514.693,4.6,4.6,0,0,1-1.558,1.145,4.97,4.97,0,0,1-1.682.428,6.666,6.666,0,0,1-2.523-.343,15.306,15.306,0,0,1-3.427-1.682,42.211,42.211,0,0,1-5.319-4.12,89.2,89.2,0,0,1-8.933-9.4l2.212-2.126c1.558,1.371,3.115,2.765,4.743,4.089s3.216,2.656,4.875,3.894a41.068,41.068,0,0,0,4.984,3.286,10.018,10.018,0,0,0,2.336.958,1.457,1.457,0,0,0,.607.054H912.1a1.084,1.084,0,0,0-.28.195l-.039.039h0l.171-.319c.109-.21.234-.413.335-.631q.327-.647.631-1.309c.389-.888.779-1.791,1.09-2.733.654-1.869,1.2-3.8,1.682-5.763s.849-3.964,1.176-5.981.576-4.081.779-6Z" transform="translate(-889 -3655.934)" fill="#ff8b7b"/><path d="M934.095,3696.756c-.312,1.885-1.877,5.451-3.115,8.1-.919,1.916-1.667,3.356-1.667,3.356l-1.09-.483-9.026-4.018c.685-4.867,1.8-10.124,7.165-12.515C929.71,3689.716,934.648,3693.361,934.095,3696.756Z" transform="translate(-894.907 -3654.585)" fill="#d9a171"/><path d="M934.095,3696.756c-.312,1.885-1.877,5.451-3.115,8.1-.919,1.916-1.667,3.356-1.667,3.356l-1.09-.483-9.026-4.018c.685-4.867,1.8-10.124,7.165-12.515C929.71,3689.716,934.648,3693.361,934.095,3696.756Z" transform="translate(-894.907 -3654.585)" fill="#d9a171" opacity="0.6" style="isolation:isolate"/><path d="M933.514,3707.854c-.919,1.916-1.667,3.356-1.667,3.356l-1.09-.483c.148-1.924.53-4.953,1.558-6.316A8.575,8.575,0,0,1,933.514,3707.854Z" transform="translate(-897.464 -3657.584)" fill="#d9a171" opacity="0.3" style="isolation:isolate"/><path d="M894.31,3710.873l.716-5.241-5.88,1.9s.935,3.17,3.029,4.47Z" transform="translate(-888.259 -3657.854)" fill="#ff8b7b"/><path d="M892.111,3699.882l-4.1,2.251.888,4.159,5.88-1.931Z" transform="translate(-888.007 -3656.582)" fill="#ff8b7b"/><path d="M1034.167,3863.29l5.412-3.894a.474.474,0,0,1,.623.054l3.684,3.84a.95.95,0,0,1-.072,1.342.906.906,0,0,1-.084.067c-1.908,1.324-2.9,1.861-5.28,3.567-1.464,1.051-4.548,3.59-6.573,5.039s-3.559-.467-2.85-1.253c3.193-3.521,4.042-5.919,4.548-7.9A1.552,1.552,0,0,1,1034.167,3863.29Z" transform="translate(-919.165 -3691.85)" fill="#344154"/><path d="M984.214,3882.772h7.009a.584.584,0,0,1,.553.428l1.557,5.56a.872.872,0,0,1-.6,1.079.893.893,0,0,1-.26.034h-16.2c-2.57,0-3.115-2.6-2.048-2.835,4.766-1.051,7.515-2.508,8.987-3.894A1.444,1.444,0,0,1,984.214,3882.772Z" transform="translate(-906.968 -3697.042)" fill="#344154"/><path d="M963.036,3715.426l-22.95,7.258c-15.887-31.447-13.621-33.114-13.621-33.114s3.668-2.095,7.484-3.839c.576-.265,1.16-.522,1.737-.779a76.588,76.588,0,0,1,10.42-3.3c.522-.14,1.044-.265,1.558-.389a73.059,73.059,0,0,1,8.567-1.41c.343,4.353.685,8.037,1.059,11.238.483,4.174,1,7.515,1.558,10.4A90.824,90.824,0,0,0,963.036,3715.426Z" transform="translate(-896.49 -3652.151)" fill="#d9a171"/><path d="M963.036,3715.426l-22.95,7.258c-15.887-31.447-13.621-33.114-13.621-33.114s3.668-2.095,7.484-3.839c.576-.265,1.16-.522,1.737-.779a76.588,76.588,0,0,1,10.42-3.3c.522-.14,1.044-.265,1.558-.389a73.059,73.059,0,0,1,8.567-1.41c.343,4.353.685,8.037,1.059,11.238.483,4.174,1,7.515,1.558,10.4A90.824,90.824,0,0,0,963.036,3715.426Z" transform="translate(-896.49 -3652.151)" fill="#d9a171" opacity="0.6" style="isolation:isolate"/><path d="M967.062,3703.946c-2.2-3.115-4.314-10.365-3.769-13.083l2.181,2.679C965.956,3697.715,966.478,3701.056,967.062,3703.946Z" transform="translate(-904.643 -3654.586)" fill="#d9a171" opacity="0.3" style="isolation:isolate"/><path d="M945.037,3695.729s5.786-1.254,7.648,1.261c2.554-2.515,1.651-12.344.421-15.848a15.061,15.061,0,0,0-2.858.779l-4.089,6.323Z" transform="translate(-900.623 -3652.436)" fill="#fff"/><path d="M942.505,3696.9s-3.894.872-4.307,4.057c-5.451-4.057-5.07-10-3.839-13.5a13.694,13.694,0,0,1,2.928-1.028l4.089,4.5Z" transform="translate(-898.092 -3653.604)" fill="#fff"/><path d="M944.81,3673.256c.779,2.866,1.963,5.7,3.894,6.635,0,0,1.8,5.156-5.21,13.777-7.336-5.226-5.218-10.475-5.218-10.475,3.458-2.079,2.484-4.821,1.012-7.219l2.033-3.263a1.931,1.931,0,0,1,3.489.545Z" transform="translate(-899.065 -3650.375)" fill="#ff8b7b"/><path d="M945.563,3673.248a1.931,1.931,0,0,0-3.512-.545l-.654,1.044h0c.055.693.086,1.262.078,1.558-.062,2.025,2.78,1.931,5.093.958A20.432,20.432,0,0,1,945.563,3673.248Z" transform="translate(-899.818 -3650.367)" fill="#d9a171" opacity="0.2" style="isolation:isolate"/><path d="M928.509,3660.523c2.025,5.521,2.757,7.9,6.464,9.945,5.568,3.076,11.907-.615,11.58-6.635-.3-5.412-3.551-13.543-9.727-14.143a8.029,8.029,0,0,0-8.317,10.833Z" transform="translate(-896.852 -3645.469)" fill="#ff8b7b"/><path d="M942.154,3651.931c-1.9-1.83-3.894-3.956-7.71-3.543a8.1,8.1,0,0,0-5.888,3.014l-3.629,7.936s2.251,10.218,5.965,5.451c2.142-2.757,2.2-6.923,1.417-10.038a25.287,25.287,0,0,0,4.3-1,4.785,4.785,0,0,0,5.062-.67c.312-.288.537-.514.7-.693l.132-.148C942.924,3651.705,942.574,3651.76,942.154,3651.931Zm-4.906,1.651a40.408,40.408,0,0,1,4.05-1.083A4,4,0,0,1,937.247,3653.582Z" transform="translate(-896.174 -3645.178)" fill="#344154"/><path d="M928.917,3669.957a4.317,4.317,0,0,0,2.64,1.97c1.464.366,2.157-.95,1.713-2.336-.4-1.223-1.635-2.889-3.115-2.656a1.938,1.938,0,0,0-1.238,3.022Z" transform="translate(-896.979 -3649.288)" fill="#ff8b7b"/><path d="M943.978,3733.36s-.779,47.03,5.366,64.023c5.919,16.292,23.573,44.3,23.573,44.3l10.233-.257s-16.261-35.473-18.916-49.491c-4.423-23.262-3.45-63.859-3.45-63.859Z" transform="translate(-900.382 -3662.818)" fill="#d9a171"/><path d="M955.787,3737.417l2.749-7.788,4.867-1.557s-.444,18.48.623,37.646C959.611,3757.214,955.787,3741.638,955.787,3737.417Z" transform="translate(-903.002 -3662.818)" fill="#d9a171" opacity="0.3" style="isolation:isolate"/><path d="M978.759,3873.437l12.64-.319-.732-3.886-13.8.654Z" transform="translate(-907.665 -3694.047)" fill="#344154"/><path d="M950.407,3731.28s15.965,36.517,26.284,57.3c8.333,16.79,34.266,39.313,34.266,39.313l7.11-4.93s-19.516-26.681-25.271-38.066c-18.418-36.431-13.878-51.446-24.469-59.366Z" transform="translate(-901.811 -3662.256)" fill="#d9a171"/><path d="M1027.925,3857.268l8.349-5.942-1.892-3.645-9.174,6.939Z" transform="translate(-918.359 -3689.279)" fill="#344154"/><path d="M966.591,3723.637l1.682,1.729c.132.132,0,.358-.273.444l-24.072,7.609a.4.4,0,0,1-.459-.1l-.857-1.994c-.062-.132.078-.312.3-.382l23.246-7.359A.434.434,0,0,1,966.591,3723.637Z" transform="translate(-900.084 -3661.818)" fill="#344154"/><path d="M970,3727.4l.623-.194c.125,0,.2-.14.164-.21l-1.129-2.578a.24.24,0,0,0-.288-.07l-.623.2c-.125.039-.2.132-.164.21l1.137,2.57C969.745,3727.406,969.869,3727.438,970,3727.4Z" transform="translate(-905.83 -3661.989)" fill="#d9a171"/><path d="M946.19,3734.932l.623-.195c.125-.039.195-.132.164-.21l-1.137-2.578c0-.078-.164-.1-.288-.062l-.623.195c-.117.039-.195.132-.164.21l1.137,2.578A.25.25,0,0,0,946.19,3734.932Z" transform="translate(-900.562 -3663.658)" fill="#d9a171"/><path d="M958.091,3731.2l.623-.194c.125-.039.2-.132.164-.21l-1.137-2.578c0-.07-.156-.1-.28-.062l-.623.195a.166.166,0,0,0-.164.21l1.129,2.578C957.842,3731.2,957.967,3731.2,958.091,3731.2Z" transform="translate(-903.196 -3662.833)" fill="#d9a171"/><path d="M941.082,3661.785c.14.459.491.779.779.67a.78.78,0,0,0,.288-.989c-.14-.452-.483-.779-.779-.67S940.95,3661.31,941.082,3661.785Z" transform="translate(-899.737 -3647.93)" fill="#344154"/><path d="M947.733,3659.785c.14.46.491.779.779.67s.428-.53.3-.989-.491-.779-.779-.67S947.6,3659.325,947.733,3659.785Z" transform="translate(-901.209 -3647.488)" fill="#344154"/><path d="M947.967,3658.7l1-.646S948.668,3659.08,947.967,3658.7Z" transform="translate(-901.272 -3647.328)" fill="#344154"/><path d="M946.087,3661.6a13.05,13.05,0,0,0,2.508,2.438,2.082,2.082,0,0,1-1.557.779Z" transform="translate(-900.856 -3648.113)" fill="#ff5652"/><path d="M944.264,3668.739a.142.142,0,0,0,.047-.148.147.147,0,0,0-.171-.1,3.755,3.755,0,0,1-3.38-.538.143.143,0,1,0-.187.218,4.035,4.035,0,0,0,3.645.592Z" transform="translate(-899.625 -3649.51)" fill="#344154"/><path d="M938.455,3659.847a.292.292,0,0,0,.078-.125,2.25,2.25,0,0,1,1.456-1.41.28.28,0,0,0-.058-.557.233.233,0,0,0-.058.012,2.756,2.756,0,0,0-1.861,1.791.28.28,0,0,0,.157.364l.006,0A.32.32,0,0,0,938.455,3659.847Z" transform="translate(-899.065 -3647.262)" fill="#344154"/><path d="M948.987,3656.176a.161.161,0,0,1,0-.055.3.3,0,0,0-.226-.327,2.81,2.81,0,0,0-2.477.67.281.281,0,0,0,.4.389h0a2.224,2.224,0,0,1,1.962-.506A.289.289,0,0,0,948.987,3656.176Z" transform="translate(-900.882 -3646.815)" fill="#344154"/><path d="M968.177,3686.932c.927.693,1.706,1.34,2.515,2.041s1.558,1.4,2.336,2.134c1.519,1.464,2.983,2.991,4.369,4.595a51.832,51.832,0,0,1,3.894,5.085c.311.436.584.911.872,1.363s.576.911.833,1.394.53.911.779,1.449l.413.864.335.872a20.54,20.54,0,0,1,1,6.853,37.983,37.983,0,0,1-.693,6.433,56.966,56.966,0,0,1-1.558,6.105,59.741,59.741,0,0,1-2.2,5.88l-2.819-1.044c.483-1.869.942-3.832,1.285-5.771a55.367,55.367,0,0,0,.833-5.81,37.756,37.756,0,0,0,.132-5.685,22.759,22.759,0,0,0-.327-2.679,15.475,15.475,0,0,0-.709-2.4l-.241-.537-.265-.491c-.21-.358-.5-.779-.779-1.176s-.514-.779-.779-1.176-.537-.779-.833-1.153c-1.137-1.558-2.422-2.975-3.7-4.416s-2.679-2.8-4.1-4.12c-.7-.669-1.425-1.324-2.149-1.962s-1.5-1.277-2.173-1.822Z" transform="translate(-904.917 -3653.717)" fill="#ff8b7b"/><path d="M982.115,3741.072l-4.268,3.115,5.451,2.881s1.628-2.881,1.106-5.288Z" transform="translate(-907.882 -3665.694)" fill="#ff8b7b"/><path d="M976.117,3750.13l4.462,1.378,2.375-3.536-5.49-2.882Z" transform="translate(-907.499 -3666.583)" fill="#ff8b7b"/><path d="M963.423,3679.872c2.983-.132,8.847,7.2,8.847,7.2l-6.09,8.613s-6.838-5.451-7.367-9.244C958.369,3683.2,959.623,3680.027,963.423,3679.872Z" transform="translate(-903.652 -3652.155)" fill="#d9a171"/><path d="M963.423,3679.872c2.983-.132,8.847,7.2,8.847,7.2l-6.09,8.613s-6.838-5.451-7.367-9.244C958.369,3683.2,959.623,3680.027,963.423,3679.872Z" transform="translate(-903.652 -3652.155)" fill="#d9a171" opacity="0.6" style="isolation:isolate"/><path d="M1032.826,3867.059h-.093a.78.78,0,0,1-.623-.475.5.5,0,0,1,0-.483c.382-.654,2.523-.779,2.765-.779a.147.147,0,0,1,.132.078.141.141,0,0,1,0,.156C1034.484,3866.132,1033.558,3867.059,1032.826,3867.059Zm1.713-1.425c-.857.062-1.994.265-2.188.607a.185.185,0,0,0,0,.21.523.523,0,0,0,.405.327c.413.047,1.067-.382,1.783-1.145Z" transform="translate(-919.872 -3693.181)" fill="#d9a171"/><path d="M1034.8,3865.2c-.717,0-2.126-.4-2.391-.973a.5.5,0,0,1,.156-.592.777.777,0,0,1,.6-.195c.849.094,1.854,1.472,1.892,1.558a.133.133,0,0,1,0,.14.149.149,0,0,1-.109.078Zm-1.729-1.479a.443.443,0,0,0-.312.125c-.132.117-.117.21-.093.273a2.859,2.859,0,0,0,2,.779c-.358-.444-1.028-1.145-1.558-1.2Z" transform="translate(-919.943 -3692.764)" fill="#d9a171"/><path d="M982.7,3883.84a2.346,2.346,0,0,1-1.371-.327.882.882,0,0,1-.358-.678.42.42,0,0,1,.179-.382c.639-.428,3.029.654,3.5.88a.132.132,0,0,1,.078.14.141.141,0,0,1-.109.125A9.763,9.763,0,0,1,982.7,3883.84Zm-1.114-1.215a.533.533,0,0,0-.28.062.138.138,0,0,0-.055.132.6.6,0,0,0,.249.467,3.893,3.893,0,0,0,2.64.125A8.562,8.562,0,0,0,981.582,3882.625Z" transform="translate(-908.572 -3696.949)" fill="#d9a171"/><path d="M984.94,3883.2h-.047c-.779-.327-2.4-1.612-2.336-2.274,0-.14.117-.327.475-.366,1.4-.171,1.994,2.336,2.017,2.476a.151.151,0,0,1-.047.14A.129.129,0,0,1,984.94,3883.2Zm-1.721-2.375h-.093c-.148,0-.226.062-.241.132-.047.382,1.059,1.4,1.869,1.845C984.542,3882.188,984.036,3880.825,983.218,3880.825Z" transform="translate(-908.923 -3696.551)" fill="#d9a171"/><path d="M941.317,3660.678l1-.646S942.018,3661.06,941.317,3660.678Z" transform="translate(-899.8 -3647.766)" fill="#344154"/></g><g transform="translate(954.399 3587.742)"><path d="M1095.354,3587.742H982.175a8.854,8.854,0,0,0-8.915,8.794q0,.276.013.551l10.615,220.058a9.946,9.946,0,0,0,9.8,9.345h113.179a8.848,8.848,0,0,0,8.908-8.786q0-.28-.014-.559l-10.607-220.058A9.945,9.945,0,0,0,1095.354,3587.742Z" transform="translate(-973.26 -3587.742)" fill="#d9a171"/><path d="M1100.717,3587.742H987.506a8.847,8.847,0,0,0-8.908,8.785c0,.187,0,.373.014.56l10.607,220.058a9.946,9.946,0,0,0,9.8,9.345H1112.2a8.847,8.847,0,0,0,8.908-8.786q0-.28-.014-.559l-10.607-220.058A9.945,9.945,0,0,0,1100.717,3587.742Z" transform="translate(-974.441 -3587.742)" fill="#344154"/><path d="M1000.47,3822.03a3.356,3.356,0,0,1-3.263-3.115l-10.591-220.058a2.974,2.974,0,0,1,2.832-3.112c.045,0,.09,0,.135,0h113.179a3.34,3.34,0,0,1,3.263,3.115l10.607,220.058a2.975,2.975,0,0,1-2.832,3.111c-.043,0-.085,0-.128,0Z" transform="translate(-976.214 -3589.512)" fill="#aed3f2" stroke="#d9a171" stroke-miterlimit="10" stroke-width="1"/><g transform="translate(31.899 179.648)" opacity="0.3"><path d="M1040.681,3857.088H1018.26a2.43,2.43,0,0,1-2.4-2.29l-1.635-34.04a2.188,2.188,0,0,1,2.035-2.332c.056,0,.113-.005.169,0h22.46a2.414,2.414,0,0,1,2.391,2.282l1.612,34.048a2.2,2.2,0,0,1-2.051,2.332c-.054,0-.107,0-.16,0Zm-24.282-37.872a1.447,1.447,0,0,0-1.044.436,1.469,1.469,0,0,0-.389,1.067l1.643,34.033a1.645,1.645,0,0,0,1.62,1.558h22.452a1.426,1.426,0,0,0,1.435-1.416c0-.032,0-.063,0-.1l-1.643-34.04a1.636,1.636,0,0,0-1.612-1.558Z" transform="translate(-1014.22 -3818.422)" fill="#fafafa"/><path d="M1039.378,3829.371H1018.3a.389.389,0,0,1,0-.779h21.1a.389.389,0,0,1,0,.779Z" transform="translate(-1015.036 -3820.672)" fill="#fafafa"/><path d="M1039.649,3835.021h-21.113a.4.4,0,0,1-.389-.389.389.389,0,0,1,.389-.389h21.113a.389.389,0,0,1,.389.389A.4.4,0,0,1,1039.649,3835.021Z" transform="translate(-1015.089 -3821.922)" fill="#fafafa"/><path d="M1039.919,3840.671h-21.113a.4.4,0,0,1-.389-.39.389.389,0,0,1,.389-.389h21.113a.389.389,0,1,1,0,.779Z" transform="translate(-1015.149 -3823.172)" fill="#fafafa"/><path d="M1040.191,3846.321h-21.1a.389.389,0,0,1,0-.779h21.1a.389.389,0,0,1,0,.779Z" transform="translate(-1015.211 -3824.422)" fill="#fafafa"/><path d="M1040.461,3851.971h-21.1a.389.389,0,0,1,0-.779h21.1a.389.389,0,0,1,0,.779Z" transform="translate(-1015.271 -3825.671)" fill="#fafafa"/><path d="M1036.409,3857.621h-16.783a.389.389,0,1,1,0-.779h16.783a.389.389,0,0,1,.389.389A.4.4,0,0,1,1036.409,3857.621Z" transform="translate(-1015.33 -3826.921)" fill="#fafafa"/></g><g transform="translate(24 74.365)" opacity="0.3"><path d="M1052.571,3702.289l-15.4,2.461a17.9,17.9,0,0,0-2.336-4.1,11.026,11.026,0,0,0-3.216-2.336l.576,12.071q12.842,3.379,17.281,7.134a17.336,17.336,0,0,1,6.23,12.811,17,17,0,0,1-1.534,8.364,19,19,0,0,1-4.867,6.347,19.529,19.529,0,0,1-6.518,3.691,32.173,32.173,0,0,1-8.644,1.355l.1,2.126a2.873,2.873,0,0,1-2.7,3.04c-.067,0-.134.005-.2.005h0a3.233,3.233,0,0,1-3.193-3.045l-.1-2.126a39.349,39.349,0,0,1-10.038-1.978,21.514,21.514,0,0,1-6.783-3.979,21.04,21.04,0,0,1-4.564-5.49,26.474,26.474,0,0,1-2.593-7.11l16.751-1.955a16.294,16.294,0,0,0,2.336,5.958,11.256,11.256,0,0,0,4.345,3.255l-.709-14.734a82.535,82.535,0,0,1-12.149-4.05,17.078,17.078,0,0,1-6.37-5.49,16.5,16.5,0,0,1-3.029-9.205,15.743,15.743,0,0,1,4.595-12.414q4.953-4.993,15.186-5.529l-.055-1.083a2.873,2.873,0,0,1,2.7-3.04c.066,0,.133-.006.2,0h0a3.232,3.232,0,0,1,3.193,3.045l.054,1.083q9.345.584,14.493,4.423A18.9,18.9,0,0,1,1052.571,3702.289Zm-27.024-4.166a7.323,7.323,0,0,0-3.606,2.173,4.578,4.578,0,0,0-.9,3.061,5.343,5.343,0,0,0,1.215,3.208,8.343,8.343,0,0,0,3.808,2.282Zm8.076,41.057a8.983,8.983,0,0,0,5.062-2.617,5.638,5.638,0,0,0,1.448-4.081,5.787,5.787,0,0,0-1.557-3.621c-.981-1.1-2.85-2.126-5.592-3.068Z" transform="translate(-1004.077 -3683.232)" fill="#fafafa"/></g><path d="M1096.706,3624.632h-77.1l7.515,155.84a25.232,25.232,0,0,0,24.921,23.784h77.1l-7.507-155.84A25.217,25.217,0,0,0,1096.706,3624.632Z" transform="translate(-983.513 -3595.903)" fill="#5e6178" opacity="0.2" style="isolation:isolate"/><path d="M1115.6,3624.632h-95.961a25.225,25.225,0,0,1,24.921,23.784l6.129,126.862a25.233,25.233,0,0,0,24.921,23.784h48.385a22.46,22.46,0,0,0,22.692-22.226c.005-.519-.007-1.04-.037-1.558l-6.121-126.862A25.217,25.217,0,0,0,1115.6,3624.632Z" transform="translate(-983.52 -3595.903)" fill="#fafafa"/><path d="M1114.158,3818.072a22.452,22.452,0,0,1-21.08,23.745q-.775.047-1.551.039h95.953a22.461,22.461,0,0,0,22.677-22.241q.007-.772-.038-1.542Z" transform="translate(-999.424 -3638.697)" fill="#e6e6e6"/><path d="M1140.415,3724.738H1072.6a1.877,1.877,0,0,1-1.854-1.768h0a1.674,1.674,0,0,1,1.578-1.765c.035,0,.069,0,.1,0h67.816a1.877,1.877,0,0,1,1.885,1.768h0a1.675,1.675,0,0,1-1.578,1.766Q1140.483,3724.739,1140.415,3724.738Z" transform="translate(-994.826 -3617.267)" fill="#d9a171"/><path d="M1141.1,3738.908H1073.28a1.877,1.877,0,0,1-1.854-1.768h0a1.674,1.674,0,0,1,1.578-1.766c.035,0,.069,0,.1,0h67.823a1.876,1.876,0,0,1,1.846,1.768h0a1.674,1.674,0,0,1-1.578,1.765C1141.165,3738.907,1141.13,3738.908,1141.1,3738.908Z" transform="translate(-994.976 -3620.402)" fill="#d9a171"/><path d="M1141.783,3753.068H1073.96a1.877,1.877,0,0,1-1.854-1.768h0a1.674,1.674,0,0,1,1.578-1.766c.035,0,.069,0,.1,0h67.862a1.877,1.877,0,0,1,1.854,1.768h0a1.674,1.674,0,0,1-1.578,1.765C1141.879,3753.068,1141.831,3753.068,1141.783,3753.068Z" transform="translate(-995.127 -3623.534)" fill="#d9a171"/><path d="M1142.465,3767.258H1074.65a1.885,1.885,0,0,1-1.853-1.768h0a1.673,1.673,0,0,1,1.578-1.765c.035,0,.069,0,.1,0h67.816a1.877,1.877,0,0,1,1.854,1.768h0a1.674,1.674,0,0,1-1.579,1.765C1142.535,3767.257,1142.5,3767.258,1142.465,3767.258Z" transform="translate(-995.279 -3626.673)" fill="#d9a171"/><path d="M1116.184,3781.427H1075.33a1.877,1.877,0,0,1-1.853-1.768h0a1.674,1.674,0,0,1,1.578-1.765c.035,0,.069,0,.1,0h40.855a1.877,1.877,0,0,1,1.853,1.768h0a1.674,1.674,0,0,1-1.579,1.765C1116.254,3781.427,1116.218,3781.427,1116.184,3781.427Z" transform="translate(-995.43 -3629.808)" fill="#d9a171"/><path d="M1126.89,3671.777a17.068,17.068,0,0,1-1.721,8.38,16.566,16.566,0,0,1-15.007,9.205,18.583,18.583,0,0,1-15.9-9.205,18.088,18.088,0,0,1-2.531-8.38,16.6,16.6,0,0,1,15.592-17.557q.571-.034,1.144-.028A18.69,18.69,0,0,1,1126.89,3671.777Z" transform="translate(-999.462 -3602.442)" fill="#6595bf"/></g><g transform="translate(1065.147 3588.775)"><path d="M1196.379,3883.046h-5.716l-.576-13.255h5.724Z" transform="translate(-1131.975 -3651.172)" fill="#b55b52"/><path d="M1190.1,3869.8l.288,6.83h5.724l-.3-6.83Z" transform="translate(-1131.977 -3651.174)" fill="#d9a171" opacity="0.2" style="isolation:isolate"/><path d="M1257.208,3863.546l-5.436,1.776-6.845-11.705,5.444-1.775Z" transform="translate(-1144.107 -3647.201)" fill="#b55b52"/><path d="M1250.37,3851.842l-5.444,1.775,3.536,6.036,5.436-1.776Z" transform="translate(-1144.107 -3647.201)" fill="#d9a171" opacity="0.2" style="isolation:isolate"/><path d="M1221.089,3640.992c.709.864,1.308,1.635,1.924,2.484s1.2,1.659,1.783,2.5c1.153,1.69,2.259,3.419,3.294,5.2a58.319,58.319,0,0,1,5.241,11.456l.132.389.063.2.086.319.156.639.086.584a11.7,11.7,0,0,1,.086,2.11,21.342,21.342,0,0,1-.514,3.528,41.364,41.364,0,0,1-1.955,6.09,70.728,70.728,0,0,1-5.576,10.9l-3.894-1.861c1.168-3.652,2.336-7.39,3.193-11.027a44.191,44.191,0,0,0,1.012-5.327,13.549,13.549,0,0,0,.086-2.336,4.671,4.671,0,0,0-.109-.825l-.039-.141a.659.659,0,0,1-.039-.078h0l-.062-.148-.125-.3-.522-1.223-.584-1.215c-.389-.779-.818-1.62-1.246-2.43-.888-1.6-1.846-3.2-2.843-4.79s-2.056-3.115-3.115-4.673-2.219-3.115-3.271-4.524Z" transform="translate(-1137.339 -3600.555)" fill="#b55b52"/><path d="M1224,3696.859l-2.235,4.945h6.394s1.02-3.754-1.3-5.272Z" transform="translate(-1138.983 -3612.842)" fill="#b55b52"/><path d="M1222.514,3708.862l5.934-1.145-.288-4.416h-6.394Z" transform="translate(-1138.983 -3614.34)" fill="#b55b52"/><path d="M1186.317,3608.525c0,.467-.241.841-.545.841s-.545-.374-.545-.841.249-.833.545-.833S1186.317,3608.066,1186.317,3608.525Z" transform="translate(-1130.9 -3593.188)" fill="#344154"/><path d="M1185.781,3609.842a16.368,16.368,0,0,1-2.2,3.941,2.674,2.674,0,0,0,2.2.42Z" transform="translate(-1130.535 -3593.664)" fill="#a02724"/><path d="M1188.039,3605.187a.242.242,0,0,1-.156-.054,2.177,2.177,0,0,0-1.924-.351.273.273,0,0,1-.195-.506,2.684,2.684,0,0,1,2.438.421.281.281,0,0,1,.062.382A.29.29,0,0,1,1188.039,3605.187Z" transform="translate(-1130.985 -3592.405)" fill="#344154"/><path d="M1202.1,3615.592c-.825,4.189-1.643,11.86,1.285,14.648,0,0-1.145,4.245-8.917,4.245-8.567,0-4.089-4.245-4.089-4.245,4.673-1.114,4.548-4.571,3.73-7.827Z" transform="translate(-1131.78 -3594.936)" fill="#b55b52"/><path d="M1204.545,3635.138c.615-1.34,1.293-2.882-.109-3.365-1.558-.53-9.937-1.067-12.842-.07a2.99,2.99,0,0,0-2.084,3.679l.012.043Z" transform="translate(-1131.823 -3598.377)" fill="#344154"/><path d="M1251.719,3870.517c-.421.405-.9.732-1.254.677a.56.56,0,0,1-.444-.467.621.621,0,0,1,.094-.522c.467-.724,2.336-1.036,2.438-1.043a.139.139,0,0,1,.132.054.135.135,0,0,1,0,.148A7.24,7.24,0,0,1,1251.719,3870.517Zm-1.27-.3a.771.771,0,0,0-.109.125.372.372,0,0,0-.055.312c.062.241.179.265.218.265.4.062,1.246-.779,1.768-1.433a4.494,4.494,0,0,0-1.822.732Z" transform="translate(-1145.229 -3651.032)" fill="#d9a171"/><path d="M1252.6,3869.088l-.062.039c-.646.171-2.336.062-2.695-.483a.46.46,0,0,1,.062-.561.777.777,0,0,1,.537-.273c.857-.062,2.095,1.036,2.149,1.083a.125.125,0,0,1,.039.132A.1.1,0,0,1,1252.6,3869.088Zm-2.438-.872-.047.047c-.109.132-.062.2-.047.234.21.319,1.394.5,2.126.413a3.354,3.354,0,0,0-1.729-.825.457.457,0,0,0-.288.132Z" transform="translate(-1145.18 -3650.733)" fill="#d9a171"/><path d="M1187.364,3886.791c-.732,0-1.441-.1-1.674-.428a.5.5,0,0,1,0-.592.673.673,0,0,1,.428-.319c.95-.257,2.952.88,3.037.935a.123.123,0,0,1,.062.14.133.133,0,0,1-.1.109A10.539,10.539,0,0,1,1187.364,3886.791Zm-.9-1.105a.926.926,0,0,0-.265,0,.394.394,0,0,0-.265.187c-.093.171-.062.257,0,.3.265.366,1.713.374,2.772.226a6.089,6.089,0,0,0-2.243-.716Z" transform="translate(-1130.98 -3654.628)" fill="#d9a171"/><path d="M1189.515,3886.248h-.055c-.685-.311-2.056-1.557-1.955-2.2,0-.156.132-.343.506-.382a1.032,1.032,0,0,1,.779.233,3.917,3.917,0,0,1,.888,2.2.166.166,0,0,1-.062.125A.136.136,0,0,1,1189.515,3886.248Zm-1.394-2.336h-.078c-.249,0-.265.117-.265.148-.062.389.865,1.363,1.558,1.783a3.123,3.123,0,0,0-.779-1.76.715.715,0,0,0-.436-.156Z" transform="translate(-1131.402 -3654.241)" fill="#d9a171"/><path d="M1251.76,3867.039l4.673-4.447a.49.49,0,0,1,.623-.055l4.33,2.9a.836.836,0,0,1,.094,1.308c-1.643,1.558-2.523,2.188-4.564,4.135-1.262,1.207-5.015,5.3-6.752,6.962s-3.606.156-3.045-.678c2.523-3.746,4.1-7.336,4.237-9.229A1.43,1.43,0,0,1,1251.76,3867.039Z" transform="translate(-1144.569 -3649.548)" fill="#344154"/><path d="M1186.937,3885.962h6.23a.491.491,0,0,1,.483.39l1.129,5.085a.825.825,0,0,1-.617.991.815.815,0,0,1-.2.022c-2.258,0-5.514-.164-8.349-.164-3.31,0-6.168.179-10.054.179-2.336,0-3-2.375-2.017-2.593,4.47-.974,8.13-1.083,11.993-3.466A2.671,2.671,0,0,1,1186.937,3885.962Z" transform="translate(-1128.218 -3654.749)" fill="#344154"/><path d="M1168.8,3649.672c-2.274,3.349-4.618,6.479-7.141,9.571a107.793,107.793,0,0,1-8.107,8.94l-1.106,1.075-.28.265-.2.187-.3.21a7.68,7.68,0,0,1-1.176.779,10.5,10.5,0,0,1-4.244,1.191,23.923,23.923,0,0,1-6.744-.561,50.841,50.841,0,0,1-11.565-4.065l1.433-4.05a90.91,90.91,0,0,0,11.043,1.511,20.411,20.411,0,0,0,4.883-.2,3.127,3.127,0,0,0,1.293-.506c.039,0,0-.047,0-.047h0l.062-.062.226-.257.927-1.012c2.43-2.772,4.789-5.731,7.079-8.753s4.587-6.121,6.775-9.143Z" transform="translate(-1118.226 -3601.385)" fill="#b55b52"/><path d="M1218.442,3636.022c5.358,1.23,11.51,15.848,11.51,15.848l-10.771,7.383a90.325,90.325,0,0,1-7.095-12.1C1208.894,3640.461,1212.959,3634.76,1218.442,3636.022Z" transform="translate(-1136.593 -3599.417)" fill="#d9a171"/><path d="M1215.627,3648.072l5.093,13.558-.506.35s-2.2-3.115-4.587-7.266Z" transform="translate(-1137.625 -3602.122)" fill="#d9a171" opacity="0.3" style="isolation:isolate"/><path d="M1178.609,3635.938s-6.09,6.876-.335,49.452h30.6c.21-4.673-2.741-27.615,1.791-49.748a79.952,79.952,0,0,0-10.249-1.293,112.856,112.856,0,0,0-13.005,0A57.14,57.14,0,0,0,1178.609,3635.938Z" transform="translate(-1128.814 -3599.044)" fill="#d9a171"/><path d="M1182,3652.252a27.156,27.156,0,0,1-6.043,13.1c-.125-2.741-.171-5.2-.163-7.406Z" transform="translate(-1128.813 -3603.046)" fill="#d9a171" opacity="0.3" style="isolation:isolate"/><path d="M1181.292,3641.052c.779,5.412-9.922,19.251-9.922,19.251l-10.724-7.383s2.975-7.624,7.982-12.624C1174.353,3634.565,1180.475,3635.157,1181.292,3641.052Z" transform="translate(-1125.462 -3599.517)" fill="#d9a171"/><path d="M1128.263,3667.84l-4.2-4.338-4.478,5.771s3.411,3.294,7.468,2.336Z" transform="translate(-1116.378 -3605.535)" fill="#b55b52"/><path d="M1117.39,3660.4l-1.924,6.059,3.209,2.1,4.478-5.771Z" transform="translate(-1115.467 -3604.849)" fill="#b55b52"/><path d="M1201.788,3605.147c-.35,5.662-.265,9-3.115,11.907-4.307,4.377-11.3,1.783-12.647-3.894-1.223-5.093-.444-13.5,5.1-15.755a7.741,7.741,0,0,1,10.661,7.741Z" transform="translate(-1130.966 -3590.784)" fill="#b55b52"/><path d="M1204.069,3591.6c1.745,1.6,1,3.4.094,3.73,2.827.584,3.24,2.835,1.752,7.585-1.417,4.548-4.852,10.646-9.143,11.02-6.448.561-8.333-6.16-8.38-12.826-3.645.226-2.072-3.006-6.549-2.259-3.894.646-2.43-2.391-5.74-3.715-3.839-1.558-3.068-7.437.514-5.748,0,0-1.659,1.09.273,2.118s1.744-1.347,5.568-1.635,4.268,2.983,8.738,1.012C1196.8,3588.409,1200.487,3588.292,1204.069,3591.6Z" transform="translate(-1128.318 -3589.068)" fill="#344154"/><path d="M1209.977,3596.773a2.233,2.233,0,0,1,2.484-.973c1.752.374,1.892,1.145,2.99,1.044s.7,1.067.7,1.067-.3-.88-1.62-.389-2.188-.709-2.757-.171S1209.977,3596.773,1209.977,3596.773Z" transform="translate(-1136.375 -3590.54)" fill="#344154"/><path d="M1195.211,3608.761a6.354,6.354,0,0,1-2,3.6c-1.386,1.23-2.585.241-2.632-1.441,0-1.519.646-3.995,2.243-4.587S1195.5,3607.079,1195.211,3608.761Z" transform="translate(-1132.083 -3592.856)" fill="#b55b52"/><path d="M1192.907,3699.933s6.495,43.713,10.062,60.067c3.894,17.912,31.034,65.573,31.034,65.573l9.968-3.24s-21.611-42.941-23.838-60.705c-2.422-19.275-7.476-61.726-7.476-61.726Z" transform="translate(-1132.599 -3613.588)" fill="#344154"/><path d="M1242.1,3856.277c-.039,0,2.282,3.489,2.282,3.489l11.2-3.645-1.316-3.349Z" transform="translate(-1143.481 -3647.407)" fill="#d9a171"/><path d="M1197.7,3719.925c7.507,1.472,6.713,29.469,5.81,43.868-2.165-10.178-5.335-29.765-7.5-43.666A2.557,2.557,0,0,1,1197.7,3719.925Z" transform="translate(-1133.284 -3618.004)" fill="#d9a171" opacity="0.3" style="isolation:isolate"/><path d="M1178.863,3699.942s-.779,42.778-.171,60.223c.646,18.146,7.009,77.566,7.009,77.566h9.7s.35-58.361.779-76.18c.467-19.469,2.811-61.609,2.811-61.609Z" transform="translate(-1129.402 -3613.596)" fill="#344154"/><path d="M1185.336,3871.912c-.047,0,.545,4.026.545,4.026h11.791l.319-3.59Z" transform="translate(-1130.923 -3651.641)" fill="#d9a171"/></g></g></svg>