<svg xmlns="http://www.w3.org/2000/svg" width="194.064" height="236.109" viewBox="0 0 194.064 236.109">
  <g id="Grupo_77804" data-name="Grupo 77804" transform="translate(-1100.208 -5183.891)">
    <g id="Grupo_76124" data-name="Grupo 76124" transform="translate(1014.701 5226.574)">
      <path id="Trazado_112795" data-name="Trazado 112795" d="M255.8,49.294c1.483-2.675,3.175-5.286,3.932-8.274.891-3.516,1.239-3.925-2.812-5.329A128.59,128.59,0,0,0,239.1,31.274c-7.024-1.361-14.013-2.887-20.976-4.511-5.362-1.253-10.7-2.593-16.056-3.846-3.448-.808-7.028-1.07-10.422-1.95-5.25-1.354-10.526-2.629-15.783-3.954a39.307,39.307,0,0,0-10.519-.959,4.091,4.091,0,0,0-3.106,1.365c-4.439,4.676-8.569,9.628-12.849,14.444-5.642,6.349-10.519,13.309-15.9,19.874-2.09,2.553-3.961,5.293-6.116,7.789-5.66,6.561-10.4,13.826-15.83,20.556-3.153,3.907-5.9,8.148-8.748,12.293q-7.014,10.2-14.426,20.118c-.284.377-.628.715-.553,1.25.162,1.164-.521,2.108-.808,3.157-.772,2.787-1.691,5.563-1.476,8.511.255,3.462.6,6.909,3.193,9.6.241,2.464,2.094,3.067,4.065,3.6a8.8,8.8,0,0,1,1.925.887A35.7,35.7,0,0,0,101.2,142.3c.524.169,1.031.384,1.541.593a.83.83,0,0,1,.474,1.311c-.847,1.688-1.559,3.455-2.546,5.053-1.849,2.988-3.171,6.335-5.818,8.8-.4.366-.98.8-.607,1.372.356.549.988.262,1.5.061a5.5,5.5,0,0,0,1.088-.449c3.207-2.176,6.963-3.293,10.246-5.322.934-.578.973-.018,1.164.643a21.1,21.1,0,0,1,.079,10.511,10.76,10.76,0,0,1-.61,2.266,1.266,1.266,0,0,0,.725,1.573c.589.334,1.027-.165,1.354-.625.632-.9,1.311-1.774,1.853-2.726,2.255-3.961,4.654-7.84,6.633-11.959a5.26,5.26,0,0,1,1.559-2.413.954.954,0,0,0,.636,1.181c.743.266,1.5.5,2.23.779,3.214,1.253,6.669,1.9,9.653,3.717,4.59,2.8,9.678,4.5,14.523,6.748,3.2,1.487,6.518,2.7,9.761,4.1,4.963,2.14,9.912,4.324,14.857,6.511.711.316,1.365.772,2.047,1.149a35.494,35.494,0,0,0,4.974,2.686c5.1,1.831,10.256,3.494,15.417,5.139,2.866.912,3.911.417,5.387-2.219,1.609-2.873,3.275-5.71,4.827-8.626,2.88-5.419,5.466-10.971,8.109-16.5,2.877-6.022,5.663-12.091,8.511-18.132,2.647-5.613,5.459-11.147,7.936-16.843q4.229-9.728,8.87-19.274c1.957-4.019,4.137-7.933,6.45-11.775,2.956-4.913,5.451-10.07,7.919-15.245,2.094-4.4,4.284-8.752,6.019-13.312A21.11,21.11,0,0,1,259.5,57.64c.722-1.2.646-1.717-.449-2.679s-2.169-2.083-3.7-2.37c-1.049-.194-1.106-.69-.639-1.472C255.071,50.512,255.455,49.916,255.8,49.294Zm2.349-8.5a.53.53,0,0,1,.057.654c-.215.309-.226.819-.65.894-.284.05-.28-.269-.19-.478C257.549,41.451,257.646,40.97,258.149,40.79Zm-163.6,95.134a.9.9,0,0,1-.068-.646c.09-.291.4-.233.585-.133,1.006.578,2.223.883,2.772,2.061-.722-.183-1.429-.388-2.14-.564A1.728,1.728,0,0,1,94.549,135.924Zm6.385,4.862q-2.349-1-4.665-2.061c-.158-.072-.406-.251-.2-.488a.46.46,0,0,1,.424-.09q2.435,1.088,4.848,2.216c.108.05.162.212.28.373C101.365,140.758,101.114,140.862,100.934,140.787Zm16.731,11.689c-1.946,3.957-4.284,7.689-6.471,11.506a13.82,13.82,0,0,1-1.106,1.523,1.284,1.284,0,0,1-.381.244l-.251-.413a18.713,18.713,0,0,0,.517-3.175,20.2,20.2,0,0,0-.233-7.491c-.057-.309-.172-.611-.219-.919-.4-2.672-.374-2.632-2.765-1.11A86.515,86.515,0,0,1,98.406,157c-.255.126-.628.348-.844-.007-.18-.291.083-.582.248-.84.84-1.325,1.727-2.622,2.51-3.983a90.044,90.044,0,0,0,6.518-13.291,48.4,48.4,0,0,1,2.248-4.934c.711-1.39.995-1.451,2.431-.937,1.846.661,3.681,1.35,5.534,2,1.957.686,3.541,2.025,5.34,2.991.988.528.948,1.2.614,2.158A106.812,106.812,0,0,1,117.666,152.476Zm4.363-1.968a.773.773,0,0,1-.535.352c-.514.032-1.027-.007-1.544-.025.46-1.541.844-1.731,1.824-.916C121.961,150.077,122.151,150.285,122.029,150.508Zm.025-2.022c-.287-.086-.654-.136-.628-.56a.381.381,0,0,1,.438-.4.729.729,0,0,1,.765.725C122.629,148.45,122.291,148.554,122.054,148.486Zm40.9,20.531q-2.063-.937-4.123-1.875c-.467-.212-.941-.417-.858-1.049,1.347.564,2.668,1.164,4,1.745a1.375,1.375,0,0,1,.973,1.174.509.509,0,0,1,.4.032C163.216,169.035,163.08,169.028,162.95,169.017Zm3.627-1.074c-4.945-2-9.851-4.1-14.8-6.1a81.143,81.143,0,0,1-8.242-3.857,15.319,15.319,0,0,1,4.7,1.268c2.564.991,5.035,2.2,7.678,3.013a27.66,27.66,0,0,1,4.532,1.975c2.435,1.275,4.888,2.5,7.423,3.566.535.226,1.2.32,1.519.923C168.326,168.952,167.472,168.3,166.577,167.943Zm3.225-.988a67.773,67.773,0,0,1-7.409-3.322,9.805,9.805,0,0,1,3.782.919c1.774.747,3.53,1.526,5.293,2.3.47.208.962.406,1.12.97A6.127,6.127,0,0,1,169.8,166.956Zm.348-1.9c-2.564-1.225-5.315-1.925-7.94-2.956-4.679-1.839-9.348-3.728-13.9-5.854a114.543,114.543,0,0,0-14.11-5.279c-3.731-1.174-7.358-2.686-11-4.108-1.3-.51-1.35-.8-.837-2.137.478-1.246.912-2.51,1.451-3.731.359-.822.657-1.756,1.7-2.015a1.529,1.529,0,0,0-.65-.887c-3.48-2.14-6.942-4.306-10.939-5.412a13.587,13.587,0,0,1-2.8-1.189c-1.214-.661-1.788-.478-2.435.8-.887,1.749-1.663,3.552-2.467,5.34-.259.571-.431,1.182-.69,1.752-.413.909-.79,1.052-1.332.345a10.9,10.9,0,0,0-5.627-3.634,4.288,4.288,0,0,1-.618-.334c-4.331-2.313-4.432-2.532-5.168-7.52a22.456,22.456,0,0,1-.251-5.864c.029-.259.083-.707-.363-.707-.356,0-.47.384-.51.675-.072.542-.061,1.092-.111,1.634-.025.233-.129.492-.424.413a.448.448,0,0,1-.294-.553,3.643,3.643,0,0,0-.036-2.262c-.51-1.415.668-2.543,1.365-3.57.51-.754,1.717-.381,2.614.007,3.965,1.713,7.7,3.886,11.607,5.721,4.047,1.907,8.077,3.86,12.221,5.534a106.255,106.255,0,0,1,10.648,5.013c2.647,1.426,5.5,2.284,8.22,3.5,5.153,2.3,10.353,4.5,15.553,6.7,2.025.858,4.1,1.6,6.152,2.4a30.649,30.649,0,0,1,5.11,2.4,25.809,25.809,0,0,0,4.277,1.968c5.635,2.173,11.24,4.421,16.681,7.06.707.345,1.408.707,2.083,1.11a2.244,2.244,0,0,1,.883,3.153c-.244.431-.625.4-1,.172-2.783-1.659-6.051-2.216-8.827-3.9a1.291,1.291,0,0,0-.212-.1c-.28-.1-.593-.334-.826.032-.208.327.1.571.233.833.068.129.147.259.219.388q4.606,1.751,9.2,3.5c.37.144.786.291.858.725.1.607.32,1.347-.14,1.8-.33.323-.855-.162-1.282-.323q-3.194-1.217-6.389-2.424c-.219-.086-.46-.126-.621.122a.513.513,0,0,0,.2.794,43.208,43.208,0,0,0,4.6,1.785c1.106.373,2.622.248,3.228,1.225.557.887.4,2.219.56,3.358a4.1,4.1,0,0,0,.09.7c.18.575.912,1.232.424,1.7-.646.618-1.444-.068-2.14-.338C180.806,170.443,175.537,167.62,170.151,165.056Zm-79.088-49.58c.05-.323.51-.165.819-.18.262.1.808-.147.751.406-.029.255-.5.28-.8.23S90.98,116.015,91.062,115.476ZM124.891,129.7a2.217,2.217,0,0,1,1.713.05,61.7,61.7,0,0,1,7.333,3.53.577.577,0,0,1,.294.7A94.189,94.189,0,0,1,124.891,129.7Zm62.824,44.947c.776.625,1.86.431,2.665,1.02.384.284.812-.14,1.21-.3a2.028,2.028,0,0,0,.977,1.393c.029.266-.122.5-.352.449a19.01,19.01,0,0,1-4.5-1.982C187.632,175.183,187.694,174.878,187.715,174.648Zm2.873-10.091c.549-.654.452-1.763,1.476-2.054.277,1.02-.481,1.742-.79,2.582a16.6,16.6,0,0,1-1.329,2.438.542.542,0,0,1-.363.237c-.083.007-.18-.18-.327-.341a4.588,4.588,0,0,1,.237-.826A9.624,9.624,0,0,1,190.588,164.557Zm-1.016-1.767c.014-.065.032-.126.05-.183.108-.352.079-.783.488-.966.072-.029.338.147.33.2C190.376,162.366,190.283,162.894,189.572,162.79Zm4.669,2c-1.142-.438-1.117,1.128-1.512,1.853-.9,1.652-1.681,3.365-2.521,5.049-.05.1-.226.237-.3.212a.6.6,0,0,1-.316-.3,2.266,2.266,0,0,1,.334-2.029,60.631,60.631,0,0,0,3.562-6.364c.083-.194.18-.528.474-.348a9.126,9.126,0,0,1,1.508,1.1c.47.442-.018.873-.194,1.257a19.233,19.233,0,0,1-3.092,5.326c.014-1.386,1.214-2.252,1.573-3.487C193.989,166.277,194.951,165.067,194.24,164.79ZM193.149,180.4a2.175,2.175,0,0,1-1.76-.718,1.8,1.8,0,0,1,1.8.531A.234.234,0,0,1,193.149,180.4Zm-.786-5.369c-.269-.488.029-.837.37-1.149q2.6-2.381,5.229-4.74c1.454-1.311,2.92-2.607,4.378-3.911.287-.255.69-.535.42-.955a.912.912,0,0,0-1.074-.244,4.031,4.031,0,0,1-.463.083,55.9,55.9,0,0,1-6.733,6.755c-.147.14-.492.312-.575.248-.381-.287.032-.531.14-.776a4.29,4.29,0,0,1,1.178-1.436c1.928-1.67,3.57-3.681,5.836-4.956,1.641-1.663,3.114-3.53,5.329-4.511a18.782,18.782,0,0,1-1.878,3.914c-.614,1.271-1.257,2.521-1.889,3.781-.269.535-.377,1.2-1.307.916-.557-.172-1.038.3-1.422.679C197.566,171.049,194.876,172.938,192.362,175.036Zm10.346-17.6q3.7-3.571,7.437-7.111a1.907,1.907,0,0,1,.636-.259c.022.215.122.46.054.646-.259.733-.549,1.458-.869,2.165-.19.417-.4.923-.995.8-1.138-.237-1.7.582-2.363,1.217-1.239,1.185-2.471,2.377-3.713,3.562a1.035,1.035,0,0,1-.8.377C201.925,158.2,202.331,157.8,202.708,157.432Zm-.158-3.408a1.255,1.255,0,0,1,1.221-1.494C203.1,152.8,203.351,153.862,202.55,154.024Zm25.092-45.27c1.128-1.713,2.23-3.451,4.485-3.85a41.15,41.15,0,0,0-3.746,7.186c-.492,1.049-.88,1.835-2.255,1.494-.37-.093-.761.517-1.282.417-.887,1.853-2.5,3.081-3.907,4.482-.108.1-.424,0-.65-.014a23.91,23.91,0,0,1,4.467-4.546,12.11,12.11,0,0,1,3.2-3.541C228.863,109.576,228.859,109.547,227.642,108.753Zm20.739-38.3a2.214,2.214,0,0,1,.621-.3c.065.162.2.338.158.42-.248.481-.442,1.221-.833,1.354-1.989.7-2.916,2.514-4.313,3.825a2.577,2.577,0,0,1-.56.409.553.553,0,0,1-.427.05c-.28-.144-.176-.384-.061-.6a.709.709,0,0,1,.14-.187C244.858,73.768,246.614,72.1,248.381,70.454Zm-2.747-1.009c.532-1.9,2.173-2.765,3.627-3.8.075-.291.233-.463.56-.384.068.32-.086.488-.384.557A9.869,9.869,0,0,1,245.634,69.444Zm-1.7,11.262c-.417.794-.955.535-1.49.108-.118-.1-.241-.183-.363-.273.42.011.61-.4.941-.531.506-.212.819-1.142,1.383-.715C244.729,79.543,244.176,80.247,243.935,80.706Zm-.715-10.023a51.711,51.711,0,0,1-2.74,5.972c-2.453,4.026-4.327,8.339-6.532,12.487-1.178,2.209-2.46,4.363-3.706,6.536a3.011,3.011,0,0,1-.467.517c-.277-.284-.075-.517.04-.8a120.516,120.516,0,0,1,5.4-10.953c1.472-2.848,3.045-5.645,4.579-8.464q1.514-2.774,3.049-5.545a3.733,3.733,0,0,1,.449-.546C243.633,70.2,243.324,70.45,243.22,70.683Zm-2.262,7.466c.115-.266.269-.582.65-.4.05.025-.007.391-.09.564a6.362,6.362,0,0,1-.506.747h-.126l.169-.057A.816.816,0,0,1,240.958,78.149ZM239.205,87.9c.334-.194.707-.9,1.106-.28.241.373-.126.952-.514,1.2a1.113,1.113,0,0,1-1.4-.133A3.784,3.784,0,0,1,239.205,87.9Zm-.259-5.71c-.068-.492.255-.815.51-1.164.122-.169.266-.151.341,0a.336.336,0,0,1,.047.2C239.7,81.7,239.6,82.229,238.947,82.186Zm-.672,9.592a5.613,5.613,0,0,1-1.318,2.413c-.327.147-1.059-.352-1.052-.715a4.036,4.036,0,0,1,2.133-2.011C238.121,91.57,238.264,91.667,238.275,91.778Zm-5.43,7.484c-.068-.98.736-1.433,1.322-1.95.5-.445.826-1.149,1.587-1.257a.543.543,0,0,1,.14.363,3.62,3.62,0,0,1-1.354,2.313A5.959,5.959,0,0,1,232.845,99.262Zm.255,3.042c-.277.88-.945,1.612-.966,2.586a2.185,2.185,0,0,1-.1-.442c-.032-.722-1.214-.7-1.034-1.307.151-.521.794-.912,1.253-1.329.251-.226.506-.7.919-.37C233.441,101.657,233.19,102.013,233.1,102.3Zm.413-8.055a6.4,6.4,0,0,1-.916.733c-.083.054-.269-.036-.4-.086-.021-.007,0-.133,0-.277a4.377,4.377,0,0,1,.6-.927c.305-.287.312-1.149.858-.837C234.224,93.182,233.944,93.825,233.513,94.249Zm1.167.269c-.061.919-1.023,1.415-1.192,2.295l-.007,0C233.187,95.685,234.185,95.236,234.68,94.518Zm-1.214,2.309c-.883.639-1.914,1.135-2.23,2.316C231.136,97.466,231.6,96.978,233.467,96.827Zm-.725,2.535c-.93,1.512-2.424,2.478-3.631,3.717-.154.154-.316.377-.532.122a.415.415,0,0,1,.054-.4C230.1,101.772,230.924,99.966,232.741,99.362Zm-6.389,17.41c-.1.284-.284.747-.456.758-1.293.1-2.147,1.142-3.325,1.436-.119.032-.28-.1-.42-.154,1.48-.535,2.007-2.1,3.185-2.963.492-.363,1.163-1.2,1.472-.909C227.376,115.476,226.568,116.151,226.353,116.772Zm-1.666,2.826a1.822,1.822,0,0,1-.9,2.119c-1.709.819-2.736,2.309-3.979,3.595-.822.844-1.594,1.738-2.449,2.55-.391.37-.786,1.268-1.339.822-.427-.341.3-.941.643-1.322C219.156,124.59,221.591,121.753,224.686,119.6Zm-2.471,6.051a2.461,2.461,0,0,1-2.632,1.853c.661-.8,1.322-1.6,2-2.385.183-.212.435-.549.722-.305C222.567,125.032,222.312,125.363,222.215,125.65Zm-3.606,2.988c-.09,1.21-1.142,1.763-1.835,2.532-.862.955-1.849,1.8-2.618,2.841a1.187,1.187,0,0,1,.208-1.652C215.741,131.076,216.883,129.514,218.61,128.638Zm.427,1.957c.169-.14.492-.345.585-.28.338.226.129.56,0,.83a2.906,2.906,0,0,1-1.1,1.5,8.241,8.241,0,0,0-2.607,2.65,41.884,41.884,0,0,1-4.769,5.257c-.014,0-.011,0-.025,0a3.99,3.99,0,0,1,1.271-3.282A61.889,61.889,0,0,1,219.037,130.595Zm-2.6,7.164a.66.66,0,0,1-.837.054c-.054-.04.047-.452.183-.585a6.8,6.8,0,0,1,.9-.636A.979.979,0,0,1,216.434,137.759Zm-4.011,3.193a13.888,13.888,0,0,1-4.184,4.963A8.394,8.394,0,0,1,212.422,140.952Zm-4.6,2.219a2.791,2.791,0,0,1,.966-2.392c.014-.018.169.05.169.072A3.565,3.565,0,0,1,207.822,143.171Zm.345,2.912c.251.632.686.718,1.174.23a41.5,41.5,0,0,0,4.076-4.256c.373-.488.628-1.282,1.5-1.063-.219.657-.442,1.311-.682,1.957-.083.215-.208.6-.316.6-1.745.007-2.119,1.77-3.272,2.543a33.885,33.885,0,0,0-3.351,2.927c-.1.09-.327.19-.4.144-.233-.165-.165-.431-.057-.636C207.273,147.707,207.722,146.9,208.167,146.084Zm3.62.424a1.755,1.755,0,0,1,.643-.2c.014.223.119.485.036.661-.341.722-.37,1.785-1.652,1.573-.406-.068-.743.251-1.009.539a64.868,64.868,0,0,0-4.654,4.877,1.633,1.633,0,0,1,.514-2.27C207.657,149.912,209.729,148.217,211.787,146.507Zm-3.509,8.655c-.032,1.648-1.006,2.88-1.846,4.173-.456-.32-.589-1.131-1.386-.944-.018-.065-.05-.14-.025-.169C205.962,157.048,206.777,155.74,208.278,155.162Zm-5.487,5.067a8.568,8.568,0,0,1-2.7,2.8c-.165.115-.363.384-.549.122-.068-.1.086-.413.208-.575A11.212,11.212,0,0,1,202.791,160.229Zm-3.6,10.709c.693-.427,1.189-1.3,2.216-.927-1.059,1.034-1.289,2.657-2.507,3.588-.144.356-.262.725-.431,1.067a.591.591,0,0,1-.973.2c-.51-.384-.054-.661.212-.883a8.561,8.561,0,0,1,.962-.611A1.582,1.582,0,0,1,199.192,170.938Zm-4.5,7.039c-.445-.241-.4-.69.1-.8.219-.05.488.083.686.007a12.347,12.347,0,0,0,1.257-.621c.05.111.18.262.144.327a4.529,4.529,0,0,1-.869,1.347C195.619,178.537,195.106,178.2,194.693,177.977ZM258.271,56.922c-.442,1.135-.948,2.248-1.322,3.4-3.052,9.488-8.371,17.909-12.616,26.837-1.239,2.611-3.1,4.9-4.378,7.52-2.2,4.511-4.963,8.734-6.891,13.388-2.227,5.372-4.956,10.515-7.15,15.909-1.53,3.764-3.494,7.348-5.236,11.029-2.525,5.322-5.078,10.633-7.52,16-3.738,8.22-7.732,16.315-11.915,24.316-1.052,2.011-2.42,3.857-3.659,5.771a1.23,1.23,0,0,1-.546.4c-.093.039-.266-.083-.388-.158-.047-.029-.047-.133-.083-.255,1.124-.959.937-2.535,1.666-3.72.9-1.476,1.684-3.027,2.65-4.453a23.172,23.172,0,0,0,1.537-2.64c2.894-5.757,5.846-11.485,8.644-17.288,1.7-3.537,3.139-7.2,4.744-10.784,1.508-3.372,3.042-6.733,4.625-10.073,2.859-6.033,5.832-12.012,8.385-18.189,1.142-2.754,2.553-5.4,3.857-8.08,1.918-3.957,3.645-8.026,5.818-11.837,3.857-6.762,6.913-13.919,10.644-20.739,2.334-4.263,4.442-8.651,6.651-12.982a.963.963,0,0,1,.1-.212C256.795,59.109,256.949,57.576,258.271,56.922Zm-6.827,6.285c.65-.618,1.336-1.2,2.007-1.8-.115,1.677-.682,2.438-1.939,2.575C251.29,63.752,251.178,63.461,251.444,63.207Zm4.159-8.26c.115-.391.233-.747.736-.456a.494.494,0,0,1,.212.377c-.054.593-.492.37-.83.359-.126-.007-.248,0-.37-.007C255.445,55.134,255.57,55.051,255.6,54.947Zm-.316.323c.119.348.259.725-.047,1.045q-2.936,3.049-5.9,6.076a1.145,1.145,0,0,1-.406.162c-.036-.144-.144-.32-.093-.42a6.747,6.747,0,0,1,1.214-2.255C251.828,58.373,253.164,56.365,255.287,55.27Zm-.923-.9a2.505,2.505,0,0,1-1.727.948,2.45,2.45,0,0,1,1.034-1.7.484.484,0,0,1,.625.151C254.453,53.931,254.586,54.142,254.364,54.365Zm-5.825,1.7c-2.841,5.319-5.365,10.82-8.231,16.142-1.077,2-2.252,3.961-3.336,5.965-5.275,9.728-10.106,19.687-14.954,29.631a111.861,111.861,0,0,0-4.564,10.856,109.327,109.327,0,0,1-5.6,11.926l.014-.043-.047.043.022.014c-2.266,5.333-4.934,10.483-7.29,15.772-1.5,3.372-3.25,6.626-4.665,10.037-.273.65-.582,1.286-.916,1.911-.751,1.39-1.289,1.656-2.586.754-3.476-2.417-3.448-1.167-1.44-4.776q5.608-10.095,11.09-20.261a54.964,54.964,0,0,1,3.11-5c.251-.366.8-.736.266-1.164-.625-.5-1.006.09-1.289.549-.74,1.207-1.5,2.41-2.151,3.663-4.029,7.735-8.547,15.205-12.411,23.027-.072.144-.162.273-.241.409-.722,1.232-.729,1.246-1.964.668-1.709-.794-3.394-1.648-5.117-2.417-7.958-3.552-15.816-7.337-23.939-10.5-7.1-2.765-14-5.976-21-8.949-4.909-2.086-9.725-4.4-14.623-6.514-6.044-2.618-12.181-5.031-18.182-7.746-3.864-1.745-7.757-3.394-11.732-4.855a24.009,24.009,0,0,0-5.013-1.282c-1.849-.255-1.878-.316-.84-1.986,1.16-1.864,2.323-3.735,3.595-5.523,2.69-3.774,5.548-7.43,8.141-11.262,1.325-1.954,2.83-3.756,4.191-5.674a3.528,3.528,0,0,1,1.623-1.472,24.285,24.285,0,0,1-3.322,5.775c-3.555,5.34-7.236,10.6-10.856,15.895-.388.564-1.034,1.533-.546,1.831.83.5.905-.747,1.228-1.2,3.009-4.209,6.055-8.4,8.841-12.752q3.868-6.039,7.94-11.937c.848-1.221,1.792-2.377,2.668-3.58a.755.755,0,0,0,.1-.639c-.215-.4-.564-.165-.794,0a2.4,2.4,0,0,0-1.063,1.472c-.018,0-.029,0-.047,0l.014-.054a1.048,1.048,0,0,1,.2-1.268c4.931-6.511,9.883-13.007,14.742-19.568,3.325-4.485,7.236-8.475,10.716-12.824q7.278-9.109,14.494-18.268c2.047-2.593,4.317-4.988,6.511-7.452a66.21,66.21,0,0,1,4.471-5.146c.284-.259.528-.707.919-.305.226.237-.086.553-.255.815-3.088,4.737-6.443,9.283-9.9,13.751-2.981,3.843-5.9,7.735-8.572,11.8-.9,1.372-1.656,2.837-2.456,4.27a.546.546,0,0,0,.2.794c.1.05.442-.187.528-.363,3.114-6.245,7.678-11.463,11.876-16.95q5.01-6.55,9.754-13.3a2.906,2.906,0,0,1,2.927-1.383,48.685,48.685,0,0,1,8.834,1.293c8,1.954,16,3.972,24.122,5.4,3.552.625,7.028,1.67,10.533,2.55.452.111,1.329.187.654.995-1.9,2.27-1.278,4.7-.517,7.128a9.18,9.18,0,0,0,1.21,2.284c.377.56.815.172,1.181-.133a9.739,9.739,0,0,1-2.453-5.922,2.67,2.67,0,0,1,.356-1.817c.237-.341.632-.693.891-.183a11.751,11.751,0,0,1,1.329,7.84c.374.061.571.618,1.024.406.388-.18.176-.531.126-.812a49.773,49.773,0,0,0-1.849-8.253c-.3-.833-.1-1,.672-.826,3.142.7,6.267,1.494,9.43,2.072,4.173.765,8.288,1.778,12.44,2.632,6.216,1.286,12.487,2.431,18.5,4.575a7.7,7.7,0,0,1,1.3.557c1.034.6,1.2,1.074.618,2.108C254.091,44.8,251.5,50.522,248.539,56.067Z" transform="translate(0 0)" fill="#464646"/>
      <path id="Trazado_112796" data-name="Trazado 112796" d="M173.749,47.087a5.871,5.871,0,0,0-2.083,2.194,151.57,151.57,0,0,0-7.883,13.341c-.725,1.44-.769,1.433-2.5,1.149-.183-.312-.485-.593-.3-1,.23-.5.463-1,.74-1.469,2.794-4.819,5.354-9.779,8.734-14.235.176-.233.47-.524.176-.8-.37-.348-.776-.09-1.023.194a20.2,20.2,0,0,0-1.257,1.7,13.047,13.047,0,0,1-2.115,2.941c.14-.88.456-1.814-.8-2.23-.79-.262-.682-.707-.273-1.246a2.388,2.388,0,0,0,.251-.578,3.118,3.118,0,0,0-.686.011c-.492.111-.725.56-1.067.873-.646.589-2.3.83-2.481.291-.424-1.257-.765-.593-1.192-.126a16.369,16.369,0,0,0-2.288,3.555c-.4.758-.9,1.465-1.34,2.209-.176.3-.363.524-.736.359-.453-.2-.488-.51-.277-.948a17.544,17.544,0,0,1,2.794-4.069c.284-.316.812-.74.248-1.156-.452-.334-.88.054-1.174.449-.323.438-.632.894-.926,1.354-.628.991-1.228,2-1.875,2.981-.377.575-2.5.646-2.891.093a.592.592,0,0,1,.219-.808c.632-.467,1.329-.84,1.928-1.34.636-.528,1.038-1.164.241-1.885a1.566,1.566,0,0,1-1.483,1.688,3.579,3.579,0,0,0-2.058.984,3.06,3.06,0,0,1-1.293.488c-.381.075-.833.054-.557-.582.126-.287.244-.578.352-.873.083-.226.119-.517-.133-.6a.687.687,0,0,0-.585.223,49.71,49.71,0,0,0-3.53,4.967c-.962,1.609-1.964,3.2-2.977,4.776-.3.47-.722.93-1.347.664-.923-.391-2.069-.248-2.769-1.135a.762.762,0,0,1,.047-.643,7.509,7.509,0,0,1,.97-1.591,5.541,5.541,0,0,0,1.092-2.79c.043-.194-.09-.427-.144-.646a5.2,5.2,0,0,1-.259.618c-.93,1.706-2.054,1.968-3.559.8-.524-.406-.844-1.085-1.594-1.171-.007.679.546,1.059.894,1.53.417.56.711,1.088.108,1.652-.528.5-.848,1.329-1.91.995-1.1-.345-1.189-.4-.632-1.544.1-.212.248-.4.341-.618s.223-.452-.1-.571a.723.723,0,0,0-.452.007,2.082,2.082,0,0,0-.6.341c-.233.208-.417.474-.639.693-.208.2-.431.535-.736.2-.079-.083.1-.409.169-.621.093-.287.359-.747.276-.822-.5-.427-.661.19-.855.417a1.874,1.874,0,0,1-2.69.373,17.255,17.255,0,0,0-2.158-.937c-.276-.111-.686-.251-.8.086-.1.28.241.549.528.693.772.388,1.559.747,2.327,1.146.309.162.855.251.607.783-.2.427-.61.388-1.006.2-.212-.1-.442-.169-.661-.248-7.531-2.711-15.2-5.031-22.563-8.2a47.32,47.32,0,0,0-5.85-1.742c-.2-.054-.47-.022-.5.251-.014.1.158.284.28.33,1.027.388,2.058.769,3.1,1.117,5.207,1.745,10.192,4.08,15.431,5.739,3.293,1.041,6.532,2.255,9.786,3.415.693.248,1.415.567.582,1.48-.28.309-.42.758,0,1.013.377.23.74-.057.988-.384.19-.248.345-.524.535-.776a.416.416,0,0,1,.6-.122c.233.154.151.406.111.643-.118.654-1.386,1.415-.144,1.925.973.406.812-.873,1.146-1.383.492-.758,1.016-.521,1.612-.23s1.135.621.769,1.419a5.781,5.781,0,0,1-.517.783.444.444,0,0,0,.007.621c.28.259.549.133.826-.061.593-.413.736-1.792,1.63-1.286.761.431-.413,1.178-.374,1.867.014.244.054.47.3.542a.5.5,0,0,0,.424-.1,3.124,3.124,0,0,0,.567-.74c.546-1.113,1.419-.83,2.2-.452s2,.514,1.451,1.925c-.086.223-.122.532.144.6a.673.673,0,0,0,.549-.305c.51-.952,1.185-.779,1.993-.431,1.074.467,2.191.822,3.286,1.239,1.189.452,1.178.452.65,1.738-.079.194-.158.535-.065.625.323.312.56-.007.747-.237.445-.539,1.016-1.476,1.638-.944,1.023.88,2.223.646,3.3,1.016.524.18.8.467.521,1.049-.136.28-.237.578-.377.858-.1.2-.273.381-.1.621a5.969,5.969,0,0,0,.51-.37c.585-.514.693-1.58,1.957-1.25,1.885.492,2.13.664,2.2,2.69a1.5,1.5,0,0,0,.165.427l-.025-.007.032.018h0v-.011a1.367,1.367,0,0,1,.1-.449c.711-1.12,1.4-1.343,2.464-.707.948.564.079,1.214,0,1.821a.969.969,0,0,1-.183.427c-.133.172-.144.32.054.37a.527.527,0,0,0,.388-.14c.223-.19,3.325-5.505,3.509-5.857.348-.672.589-1.548,1.684-1.063.122.05.4.022.424-.043.1-.248-.133-.359-.291-.5-.28-.233-.74-.409-.438-.9s.725-.409,1.146-.169a2.92,2.92,0,0,1,.215-2.722c2.88-4.941,5.495-10.045,9.053-14.566a4.669,4.669,0,0,0,.5-.79c.05-.1.025-.348-.04-.381A.553.553,0,0,0,173.749,47.087ZM129.078,58.726a.326.326,0,0,1-.108-.183c.025-.2.151-.262.338-.19l.144.176A3.706,3.706,0,0,1,129.078,58.726Zm3.828,1.462c-.5.338-1.982-.431-2.018-1.009.075-.119.126-.3.233-.345a1.768,1.768,0,0,1,1.968.754A.657.657,0,0,1,132.906,60.188Zm2.428.338c-.165.32-.348.733-.833.632a.362.362,0,0,1-.269-.514c.151-.338.32-.711.776-.654C135.273,60.109,135.442,60.32,135.334,60.525Zm1.239-3.02c.244.28.057.269-.111.273Zm-.772,1.286c-.37-.23-.05-.5.1-.715a.48.48,0,0,1,.5-.248,2.164,2.164,0,0,1,.011.589C136.343,58.726,136.124,58.992,135.8,58.791Zm4.518,3.394c-.176.567-.51,1.286-1.253,1.106a14.208,14.208,0,0,1-2.546-1.052c-.158-.075-.215-.363-.287-.5.2-.729.485-1.286,1.289-1.085.668.169,1.318.431,1.972.661C139.916,61.466,140.512,61.567,140.319,62.184Zm24.409-12.53c.284.1.912.007.718.56-.226.646-.916.8-1.559.826a.432.432,0,0,1-.47-.413C163.453,49.831,163.945,49.565,164.728,49.655ZM163.4,52.018c1.038.373,1.731-.887,2.765-.8a2.718,2.718,0,0,1-.6,1.677c-1.911,2.686-3.293,5.667-4.931,8.507-.815,1.411-.826,1.4-2.539,1.059l.007.014c-1.156-1-1.117-1.02-.3-2.424,1.411-2.431,2.783-4.884,4.169-7.33C162.3,52.165,162.559,51.716,163.4,52.018ZM159.151,64.2c-.4.632-1.027.391-1.447.122-.557-.359-1.709-.147-1.641-1.049.086-1.189,1.2-.6,1.885-.718a1.935,1.935,0,0,1,.2-.011,1.92,1.92,0,0,0,.33.467C158.856,63.326,159.628,63.434,159.151,64.2ZM157.42,53.968a29.887,29.887,0,0,0,1.849-3.282,2.124,2.124,0,0,1,2.151-1.153c.564.04,1.235.011.736.9-1.113,1.986-2.241,3.965-3.361,5.947-.3.528-.643.664-1.045.1C157.2,55.706,156.666,55.009,157.42,53.968Zm-1.074,2.654c.891-.057.718.966.952,1.393.032.826-.316,1.149-.959,1.16-.611.007-1.088-.244-.991-.927S155.6,56.668,156.346,56.622Zm-5.412,5.2c-.237-.119-.4-.381-.3-.557.557-1.009,1.156-2,1.763-2.973.057-.093.277-.086.424-.126.4.266.883.582.668,1.1-.406.966-1.329,1.62-1.713,2.64C151.685,62.134,151.214,61.969,150.934,61.825Zm.1,1.584a.677.677,0,0,1-.873.514c-.287-.072-.661-.154-.654-.532a.637.637,0,0,1,.754-.661C150.672,62.762,151,62.928,151.038,63.409Zm3.239-1.871c.488.086.862.284.934.83a.875.875,0,0,1-1.041.686c-.463-.057-1.049-.241-1.041-.736C153.139,61.728,153.627,61.423,154.277,61.538Zm.729-.435c-.449-.086-.962-.187-.948-.776a.921.921,0,0,1,.632-.776c.521.4,1.368.356,1.257,1.167C155.886,61.164,155.394,61.175,155.007,61.1Zm-.776-6a.436.436,0,0,1,.621-.061c.169.133.413.32.42.492a2.581,2.581,0,0,1-1.156,2.115c-.3.241-.7-.111-.9-.646C153.523,56.424,153.847,55.745,154.231,55.106Zm-3.264-1.243c.876.126,1.268.158,1.652.244.463.1.7.438.46.858-1.128,1.954-2.212,3.94-3.491,5.793-.532.772-1.465.233-2.144-.133s-.366-.876-.079-1.39c.761-1.372,1.458-2.78,2.223-4.148C149.979,54.381,150.489,53.77,150.966,53.864Zm-7.251,4.661c.9-1.465,1.8-2.93,2.765-4.356a5.459,5.459,0,0,1,1.282-1.35,1.087,1.087,0,0,1,1.311.172c.431.373-.022.682-.176,1-.722,1.476-1.411,2.966-2.18,4.421-.754,1.426-.909,1.44-2.32.614a7.082,7.082,0,0,1-.689-.492Zm-.747,1.451c.273-.456.488-.944.729-1.419.46.481.632,1.178,1.243,1.551.506.312.391.751.151,1.217a.987.987,0,0,1-1.146.567C142.509,61.71,142.251,61.193,142.969,59.976Zm-.061,4.884a4.147,4.147,0,0,1-1.889-.815A.793.793,0,0,1,140.89,63a1.245,1.245,0,0,1,1.085-.74c.909-.04,1.72.668,2.176,1.849C143.813,64.511,143.464,65.007,142.908,64.86Zm4.108.42a1.349,1.349,0,0,1-1.6.589,1.379,1.379,0,0,1-1.217-1.76,2.11,2.11,0,0,1,2.474-.32C147.454,64.217,147.393,64.68,147.016,65.28Zm-1-2.869c-.23-.147-.129-.427-.036-.639a1.061,1.061,0,0,1,.686-.593.667.667,0,0,1,.223.029c.593.316,1.444.248,1.7,1.056a.658.658,0,0,1-.42.761A2.578,2.578,0,0,1,146.018,62.411Zm2.675,4.5c-.42-.022-.97-.036-1.088-.607-.043-.661.812-1.641,1.44-1.609a.931.931,0,0,1,.941.549C150.151,65.754,149.271,66.935,148.693,66.91Zm2.629,1.056c-.481-.144-1.117-.194-1.217-.876.036-.51,1.138-1.591,1.6-1.469s1.185.1,1.138.894C152.8,67.187,151.846,68.121,151.322,67.966Zm.6-3.634a.708.708,0,0,1,.754-.765c.5.1,1.207.083,1.286.733.061.546-.51.736-1.02.707C152.485,64.982,151.925,64.985,151.922,64.332Zm4.776,4.651c-.079.589-.5.722-1.034.528-.585-.212-1.182-.4-1.756-.639-.4-.165-.98-.294-.672-.948.284-.6.4-1.408,1.587-1.332.5.251,1.225.549,1.882.952C157.409,67.97,156.766,68.508,156.7,68.982Zm.514-2.306a3.01,3.01,0,0,1-1.092-.431c-.467-.32-1.515-.2-1.318-1.013.3-1.217,1.26-.481,1.954-.363a1.757,1.757,0,0,1,1.422.84C158.045,66.4,157.818,66.806,157.211,66.677ZM158.73,70.5c-.564-.154-1.282-.075-1.257-.977.233-.564.366-1.232,1.178-1.2.715.029,1.508.729,1.375,1.257C159.869,70.2,159.56,70.728,158.73,70.5ZM161.388,67c-.158.514-.4,1.077-1.092.934-.582-.126-1.365-.244-1.408-.955a1.032,1.032,0,0,1,1.02-1.056C160.6,65.916,161.521,66.562,161.388,67Zm.873-1.663c-.129.284-.381.542-.725.417-.578-.215-1.332-.42-1.4-1.074s.686-.668,1.167-.844a1.256,1.256,0,0,0,.219.3C161.9,64.461,162.609,64.587,162.261,65.341Z" transform="translate(30.22 77.881)" fill="#464646"/>
      <path id="Trazado_112797" data-name="Trazado 112797" d="M166.478,32.959a10.918,10.918,0,0,0-1.278-.6,37.756,37.756,0,0,0-5.085-1.853,2.789,2.789,0,0,1-.542-.32,3.118,3.118,0,0,1,.528-.431c.2-.1.47-.086.675-.19.377-.19.937.241,1.181-.359a3.687,3.687,0,0,0-1.318-.406c-.916.093-2.09-.6-2.668.779-.169.4-.686.359-1.059.312-.934-.111-1.871-.233-2.79-.431-4.525-.988-8.982-2.212-13.413-3.58-5.171-1.6-10.5-2.675-15.636-4.428a9.937,9.937,0,0,0-1.124-.356c-.327-.068-.707.04-.743.388-.115,1.16-1.214,1.584-1.742,2.446-1.928,3.142-3.983,6.213-5.943,9.337-.625.995-1.113,2.072-1.645,3.124a.446.446,0,0,0,.075.417.334.334,0,0,0,.564-.09c.208-.33.409-.672.628-.995,2.733-4.036,5.329-8.163,8.166-12.131.621-.873,1.016-1.02,2-.729,4.435,1.3,8.906,2.489,13.363,3.731a7.783,7.783,0,0,1,2.963,1.12l.036.054a.2.2,0,0,1,.047,0h0l-.043-.032-.047-.032c2.912.628,5.7,1.684,8.622,2.288,4.751.98,9.642,1.419,14.124,3.57,1.91.916,2.058.937.891,2.787-.083.133-.165.266-.251.4-2.521,3.975-5.074,7.933-7.563,11.93-2.7,4.331-5.06,8.852-7.513,13.327-.4.729-.786,1.336-1.817.977-4.823-1.677-9.807-2.772-14.749-4.019-3.659-.919-7.207-2.237-10.842-3.221a45.583,45.583,0,0,1-8.974-3.412,10.6,10.6,0,0,0-2.909-.937,10.18,10.18,0,0,1-2.639-1c-.747-.377-.862-.927-.427-1.533,1.508-2.122,2.37-4.615,3.929-6.712A29.582,29.582,0,0,0,113.3,39.1c.119-.208.158-.506-.083-.621a.764.764,0,0,0-.628.065,1.649,1.649,0,0,0-.442.539c-2.316,3.444-3.993,7.279-6.543,10.587-.7.909-.424,1.2.654,1.594,2.7.995,5.559,1.48,8.138,2.923a19.188,19.188,0,0,0,5.9,2.284c1.383.248,2.7.815,4.072,1.171,4.022,1.052,7.926,2.55,12.009,3.379a63.533,63.533,0,0,1,11.951,3.4c1.512.636,1.925.259,2.5-1.031,2.018-4.528,4.579-8.762,7.017-13.068,2.83-5,6-9.775,9.2-14.541C167.99,34.366,167.85,33.81,166.478,32.959Z" transform="translate(51.076 13.061)" fill="#464646"/>
      <path id="Trazado_112798" data-name="Trazado 112798" d="M141.183,32.011c-.758-.28-1.016.571-1.271,1.1a9.553,9.553,0,0,1-4,4.184c-.88.51-1.325.194-1.253-.815.022-.309.2-.611.2-.916-.011-.557-.23-.927-.869-.564a30.054,30.054,0,0,1-2.668,1.5c-.452.2-1.106.761-1.5.277-.431-.535.284-.927.643-1.293a24.925,24.925,0,0,0,2.46-3.16,2.106,2.106,0,0,0,.435-1.541c-.122-.948-.9-1.48-1.677-.948-2.011,1.39-4.069,2.815-3.918,5.714a2.7,2.7,0,0,1,.032.7,1.225,1.225,0,0,1-1.038.844.91.91,0,0,1-1.113-.628,3.935,3.935,0,0,1,.409-3.609c.215-.388.794-.786.442-1.2-.488-.571-.988.086-1.444.284-1.081.463-2.112,1.045-3.21,1.454-.858.323-1.774.747-2.708.154-.248-.158-.628-.23-.61-.6s.4-.47.682-.553a11.02,11.02,0,0,0,6.22-4.726,3.78,3.78,0,0,0,.126-4.694A7.932,7.932,0,0,0,116.964,30c-.151,1.533-.528,1.731-1.778.8a6.216,6.216,0,0,1-2.28-2.614,8.311,8.311,0,0,0-.388-.855c-.183-.345-.435-.8-.848-.6s-.151.725-.039,1.049a6.865,6.865,0,0,0,4.141,4.489,3.027,3.027,0,0,1,1.63,1.2c.9,1.386,2.2,1.526,3.72,1.124,1.2-.316,2.147-1.2,3.386-1.39l.025-.04v.032l.029-.011-.029.018a25.911,25.911,0,0,0,.04,3.257c.2,1.526,1.246,2.086,2.7,1.551.427-.158.786-.571,1.3-.334,1.343.614,2.446-.025,3.534-.679.769-.456,1.131-.481,1.422.6.37,1.372,1.067,1.533,2.277.8a18.407,18.407,0,0,0,1.9-1.393c.485-.4.858-1.056,1.4-1.232.991-.32.3.919.894,1.192a1.561,1.561,0,0,0,1.336-.025c.223-.083.485-.312.237-.514-1.092-.883-.083-1.72.04-2.553C141.718,33.146,142.026,32.32,141.183,32.011ZM117.937,30.13c-.133-3.038,2.948-5.667,5.875-6.051,1.12-.147,1.677.478,1.5,1.5-.409,2.467-4.273,5.929-6.68,5.99C118.052,31.581,117.9,31.272,117.937,30.13Zm11.377,5.218c-.284.248-.578.144-.578-.09a2.932,2.932,0,0,1,.934-2.507c.621-.632,1.465-1.893,2.187-1.282.8.672-.51,1.508-.944,2.219A7.676,7.676,0,0,1,129.314,35.348Z" transform="translate(67.2 17.865)" fill="#464646"/>
      <path id="Trazado_112799" data-name="Trazado 112799" d="M150.533,49.707a7.519,7.519,0,0,0-3.185.729c-1.221.532-2.4,1.174-3.609,1.72-.582.262-1.149.837-1.864.345a9.9,9.9,0,0,0,4.115-5.76,3.724,3.724,0,0,1,.5-1.056c2.112-3.444,2.126-3.455-.449-6.356a5.026,5.026,0,0,1-1.365-4.722,19.721,19.721,0,0,1,.8-3.4,1.922,1.922,0,0,0,.04-1.566c-.1.287-.183.578-.3.858-1.573,3.656-2.284,7.154,1.092,10.364,1.375,1.311,1.192,2.532-.373,3.756a2.546,2.546,0,0,0-1.138,1.885,7.509,7.509,0,0,1-4.611,5.965,1.205,1.205,0,0,1-.891-.029c-.478-.2-.948-.269-1.174.32-.212.553-.108,1.336.363,1.465,1.21.334.808,1.16.733,1.849-.312,2.848-2.618,3.889-4.73,5.085a.564.564,0,0,1-.438-.068c-.338-.18-.1-.424.011-.567a11.911,11.911,0,0,0,2.492-4.493c.294-1.261-.215-1.968-1.483-2.029a2.219,2.219,0,0,0-2.438,1.756,9.835,9.835,0,0,0-.284,2.331c-.355,3.864-1.052,4.661-4.744,5.455-.844.18-1.691.356-2.546.467a5.077,5.077,0,0,1-4.352-1.322c-.514-.478-1.092-.891-1.652-1.318-1.584-1.207-3.239-.862-4.9-.208a.476.476,0,0,0-.341.542c.068.269.312.255.546.169.147-.054.3-.09.449-.144a4.116,4.116,0,0,1,4.557.995,6.694,6.694,0,0,0,6.259,1.882,37.828,37.828,0,0,0,10.838-3.728,6.473,6.473,0,0,0,3.728-4.582,3.1,3.1,0,0,1,1.185-1.7,29.875,29.875,0,0,1,8.414-4.144,1.19,1.19,0,0,1,1.318.273c.449.535-.05,1.031-.251,1.5-.434,1-1.648,1.318-2.1,2.316a4.364,4.364,0,0,0,3.178-2.711C152.594,50.529,152.055,49.743,150.533,49.707Zm-17.356,7.042a1.7,1.7,0,0,1,1.1-1.652,1.1,1.1,0,0,1,1.3.154.989.989,0,0,1,.083,1.092,16.086,16.086,0,0,1-2.485,4.026A12.734,12.734,0,0,1,133.177,56.749Zm.011,3.667c.039,0,.057.022.057.036C133.245,60.437,133.227,60.412,133.187,60.416Zm7.509-6.364c-.029.025-.14-.018-.2-.043-.18-.068-.226-.219-.065-.356.46-.384.937-.743,1.4-1.12C142.262,53.6,141.142,53.6,140.7,54.052Z" transform="translate(73.274 35.255)" fill="#464646"/>
      <path id="Trazado_112800" data-name="Trazado 112800" d="M124.346,39.656c-1.106-.546-1.422.291-1.925.765a14.823,14.823,0,0,0-2.306,2.981,12.9,12.9,0,0,1-3.634,3.641c-.557.391-.962.535-1.573-.136a2.893,2.893,0,0,0-3.681-.485.65.65,0,0,0-.348.79c.122.409.463.352.747.19a6.581,6.581,0,0,1,.977-.636,1.574,1.574,0,0,1,1.731.9c.14.6-.373.758-.751,1.023a35.2,35.2,0,0,0-3.767,2.815,1.516,1.516,0,0,1-2.2.291,4.03,4.03,0,0,0-5.469.786,14.775,14.775,0,0,0-3.074,4.435,5.813,5.813,0,0,0-.575,2.747c.029.291.014.693.424.736a.892.892,0,0,0,.6-.248c1.745-1.58,3.473-3.175,5.2-4.773a1.681,1.681,0,0,0,.237-.359c-.212.036-.474,0-.628.115-1.2.88-2.392,1.785-3.577,2.686-.312.237-.7.646-1.016.42-.449-.316-.2-.883,0-1.289a13.466,13.466,0,0,1,3.448-4.432c1.286-1.081,2.654-.941,4.148-.119,1.454.8,1.135,1.842.729,3.009a4.031,4.031,0,0,0-.1.937c-.223,2.262.162,4.564-.5,6.8a2.8,2.8,0,0,0,.1,1.167c.018.129.151.237.233.356.169-.14.463-.262.485-.424a50.113,50.113,0,0,0,.187-5.875c.032-1.444-.187-2.974,1-4.151a7.456,7.456,0,0,1,2.273,3.742,6.82,6.82,0,0,1,.115,3.494,3.173,3.173,0,0,1-.341.873,1.067,1.067,0,0,1-.876.7c-.452.014-.618-.373-.826-.718a5.612,5.612,0,0,1-.435-2.528,1.406,1.406,0,0,0-.183-.406c-.072.1-.187.2-.208.312a5.225,5.225,0,0,0,.129,3.024,1.449,1.449,0,0,0,2.733.277,4.789,4.789,0,0,0,.83-2.417,11.543,11.543,0,0,0-2.047-6.874c-.754-1.264-.74-1.706.345-2.525a28.489,28.489,0,0,1,3.318-2.23,20.746,20.746,0,0,0,6.281-5.24c.786-.977,1.673-1.875,2.532-2.79.154-.165.46-.4.575-.345.359.172.183.51.065.776-.876,2.018-1.928,3.943-3,5.864a10.711,10.711,0,0,0-1.286,3c-.126.65.9,1.11.944,1.914.312-.223.646-.431.919.018s.46.991.715,1.469c.133.251-.014.7.427.7a2.7,2.7,0,0,0,.144-.844,2.977,2.977,0,0,0-.463-1.8c-.406-.65-.373-1.1.384-1.5a5.55,5.55,0,0,0,2.23-2.033,3.361,3.361,0,0,0,1.164-2.869c.018-1.181-.079-2.37.025-3.544C126.049,40.554,125.348,40.151,124.346,39.656Zm1.063,2.74a22.894,22.894,0,0,1-.7,5.864,13.8,13.8,0,0,1-3.735,1.745c-.542.119-.7-.158-.618-.636a1.354,1.354,0,0,1,.162-.435c1.289-2.3,2.578-4.6,3.889-6.884.144-.255.37-.549.74-.435C125.542,41.742,125.4,42.127,125.409,42.4Z" transform="translate(33.616 60.737)" fill="#464646"/>
      <path id="Trazado_112801" data-name="Trazado 112801" d="M121.733,33.6c-.467-.183-.657-.37-.348-.822a10.64,10.64,0,0,0,.916-1.375,1.787,1.787,0,0,0-.151-2.187,1.726,1.726,0,0,0-2.288-.524,2.485,2.485,0,0,1-1.785.373c.585-1.4,1.189-2.8,1.749-4.22a.507.507,0,0,0-.42-.7.435.435,0,0,0-.528.305,28.941,28.941,0,0,0-1.343,3A2.484,2.484,0,0,1,115.75,29.4a17.133,17.133,0,0,0-4.769,2.543,8.981,8.981,0,0,0-3.422,3.462c-.129.28-.223.657.115.848.312.176.542-.043.754-.32a21.6,21.6,0,0,1,6.593-5.6c.363-.208.761-.79,1.171-.341.348.381-.057.93-.33,1.257a10.154,10.154,0,0,1-1.555,1.433,32.215,32.215,0,0,0-5.056,5.247,6.71,6.71,0,0,0-.8,1.156c-.488.962-.413,2.241.187,2.6a1.946,1.946,0,0,0,2.4-.334,18.33,18.33,0,0,0,1.839-1.821,14.336,14.336,0,0,0,2.959-5.581c.636-2.23,2.553-3.088,4.126-4.335a.8.8,0,0,1,1.077.119c.352.323.672.718.4,1.235a10.532,10.532,0,0,1-.754,1.189,16.786,16.786,0,0,1-4.36,4.245c-1.171.808-1.451,1.767-.9,2.065,1,.549,1.393-.345,1.885-.9a8.7,8.7,0,0,1,3.853-2.625c1.278-.42,2.13.262,1.774,1.559-.668,2.406-1.282,4.92-3.914,6.1-.424.19-.973.442-.585,1,.327.474.855.262,1.25-.043.37-.287.711-.618,1.052-.937a11.285,11.285,0,0,0,2.869-5.071C124.24,35.48,123.769,34.391,121.733,33.6Zm-11.492,7.164a.758.758,0,0,1-.661.047.712.712,0,0,1-.277-.83,8.563,8.563,0,0,1,1.4-2.148,33.835,33.835,0,0,1,3.448-3.828,3.5,3.5,0,0,1,.571-.42c.072.147.208.287.18.377C114.037,36.708,112.755,39.164,110.242,40.769Zm7.825-11.675.018.036a.184.184,0,0,0-.047.032Zm0,.154c.014,0,.043-.011.047-.05C118.11,29.238,118.081,29.252,118.067,29.249Z" transform="translate(56.835 20.99)" fill="#464646"/>
      <path id="Trazado_112802" data-name="Trazado 112802" d="M127.656,41.028c-.438.072-.959.406-.79-.5.19-1.038-.377-1.53-1.329-1.411-1.318.169-1.074-.463-.689-1.178.517-.97,1.146-1.885,1.6-2.88a1.631,1.631,0,0,0-.3-1.961,1.46,1.46,0,0,0-1.918-.251,7.466,7.466,0,0,0-1.246.657c-.833.718-1.418.822-1.853-.391-.18-.5-.711-.582-1.21-.478a13.526,13.526,0,0,1-1.365.341c-.46.043-.776-.18-.5-.7a36.635,36.635,0,0,0,1.8-3.29c.524-1.268.108-1.749-1.228-1.735-1.429-.219-3.774,1.433-5.412,2.629a4.647,4.647,0,0,0-1.005,1.286.582.582,0,0,0,.079.844c.341.223.542-.075.722-.334a8.9,8.9,0,0,1,4.493-3.257c.442-.154.995-.363,1.336-.007.5.521-.054,1.023-.305,1.451-.6,1.009-1.5,1.9-1.605,3.1a1.524,1.524,0,0,1-.995,1.4,2.713,2.713,0,0,0-1.573,1.939c-.1.47-.14.966.4,1.21a.9.9,0,0,0,1.049-.287,6.861,6.861,0,0,0,1.559-2.043,3.086,3.086,0,0,1,2-1.5c.743-.277,1.21.169,1.1.98a6.054,6.054,0,0,1-1.311,2.733,4.748,4.748,0,0,0-1.07,2.561c-.022.316,0,.686.3.815a.73.73,0,0,0,.952-.46c.374-.779.7-1.58,1.034-2.374a8.619,8.619,0,0,1,3.914-3.911.815.815,0,0,1,.887-.054c.3.2.2.546.136.858-.28,1.264-1.189,2.2-1.7,3.34-.567,1.253-.248,1.8,1.2,1.9.783.057.97.334.812,1-.054.226-.244.42-.287.643-.176.941.255,1.408,1.128,1.167a7.666,7.666,0,0,0,1.512-.646c.356-.187.639-.478.467-.944C128.306,40.9,127.947,40.977,127.656,41.028Z" transform="translate(68.843 28.999)" fill="#464646"/>
      <path id="Trazado_112803" data-name="Trazado 112803" d="M121.637,20.5a2.78,2.78,0,0,0-2.374,2.313,13.333,13.333,0,0,0-.133,1.332c0,1.009.025,1.483-.007,1.95a1.553,1.553,0,0,1-1.225,1.541c-.761.176-1.138-.28-1.347-.977a1.673,1.673,0,0,0-.528-.754.907.907,0,0,0-.65-.115.459.459,0,0,0-.334.711c1.013,2.219-.165,3.6-1.864,4.7-.808.524-1.041.912-.18,1.548.585.427.4,1,.147,1.48a3.578,3.578,0,0,1-1.986,1.893c-.438.147-.686.348-.6.819.363,1.95-.952,3.527-1.2,5.369-.2,1.462-1.523,1.544-2.492.323a5.193,5.193,0,0,0-.384-.589c-.273-.269-.578-.6-1.009-.4a.861.861,0,0,0-.4,1.02,9.961,9.961,0,0,0,1.045,3.114,1.146,1.146,0,0,1-.438,1.77c-.287.169-.927.1-.6.654.183.312.711.273,1.1.115a1.787,1.787,0,0,0,1.1-2.481c-.151-.352-.478-.625-.664-.97a.811.811,0,0,1-.054-.636c.126-.241.4-.086.628-.068,1.842.144,2.812-.37,3.282-1.824.51-1.559,1.013-3.128,1.383-4.726a2.689,2.689,0,0,1,.88-1.314c1.041-1.1,2.047-2.212,1.609-3.932a.761.761,0,0,1,.133-.657c1.239-.891,1.465-3.042,3.623-2.833.643.061,1.031-.6,1.375-1.156a6.962,6.962,0,0,0,.88-3.853,2.032,2.032,0,0,1,1.717-2.18c.567-.151,1.508.054,1.239-.88C123.1,20.083,122.136,20.392,121.637,20.5Z" transform="translate(50.482 11.151)" fill="#464646"/>
      <path id="Trazado_112804" data-name="Trazado 112804" d="M108.77,35.769c-.553.481-.794.215-.8-.427-.011-1.174-.007-2.349-.057-3.523-.036-.894.032-1.849-.83-2.456.126,1.041.28,2.083.363,3.128.075.944.474,2.047-1.142,2.241-.356.043-.251.819-.1,1.278a2.138,2.138,0,0,0,.42.054,6.209,6.209,0,0,0,.625-.126l-.007.391c-.2-.061-.409-.122-.614-.18-.144-.043-.287-.083-.431-.126.1.377.212.754.305,1.135.054.219.122.474-.151.582s-.413-.147-.524-.334a19.322,19.322,0,0,1-2.428-8.235,3.151,3.151,0,0,1,.305-1.361.839.839,0,0,1,1.318-.481c.539.266.862.876,1.508.959-.068-.779-.657-1.174-1.225-1.555-1.138-.765-1.562-.585-2.09.693a4.656,4.656,0,0,0-.305,2.772,37.34,37.34,0,0,0,2,7.006c.244.567.474,1.379,1.081,1.469,1.25.187,1.038.93.88,1.717a6.207,6.207,0,0,1-1.986,3.139c-.327.327-.786.452-.909-.061-.345-1.462-1.117-2.758-1.5-4.191-.154-.575.456-.413.754-.564.144-.664-.424-.919-.786-1.278-.226-.223-.618-.37-.84-.158a1.03,1.03,0,0,0-.158.862c.28.973.661,1.914.962,2.88.373,1.189,1.106,2.449.952,3.577-.165,1.214-1.749,1.645-2.715,2.413-.061.05-.126.093-.19.14-.194.133-.427.334-.287.549a.542.542,0,0,0,.83.054c2.112-1.835,4.5-3.4,5.893-5.947a3.385,3.385,0,0,0,.535-1.282c.075-1.325,1.013-2.248,1.454-3.39.126-.316.366-.6.664-.51.413.133.165.488.111.783-.086.463-.959.959-.262,1.3.359.176.639-.743.873-1.225a1.56,1.56,0,0,0,.086-.46c.065-.535.273-1.131-.305-1.494A1.007,1.007,0,0,0,108.77,35.769Z" transform="translate(37.862 26.537)" fill="#464646"/>
      <path id="Trazado_112805" data-name="Trazado 112805" d="M136.444,47.956a1.34,1.34,0,0,0-1.415,1.013,2.6,2.6,0,0,1-2.78,1.738,7.4,7.4,0,0,1-4.514-1.067,9.183,9.183,0,0,0-3.042-1.225c-1.207-.341-1.217-.309-.8-1.454.679-1.86.5-3.031-.654-3.835a5.935,5.935,0,0,0-3.835-.844c-.1,0-.291.169-.284.237.022.129.136.334.241.352.693.129,1.4.187,2.083.327a2.173,2.173,0,0,1,1.9,2.916c-.1.356-.226.783-.729.783-.373,0-.524-.287-.643-.585a2.134,2.134,0,0,0-.169-.438c-.233-.316.036-1.153-.643-.927-.438.147-.287.833-.144,1.289a5.224,5.224,0,0,0,.438,1.088c.377.657.269.927-.528,1.074a16,16,0,0,0-6.683,3.293c-.187.144-.625.359-.241.7.09.083.435-.032.607-.14.995-.632,1.946-1.329,2.959-1.928a9.007,9.007,0,0,1,8.342-.765c2.115.869,4.162,1.846,6.536,1.627.208-.018.521.011.531.316a.982.982,0,0,1-.2.628c-1.936,2.288-6.213,2.435-8.156.277-.147-.165-.237-.532-.474-.316a1.016,1.016,0,0,0,.539,1.666c2.413.97,6.044,1.584,8.543-1.038A16.182,16.182,0,0,1,136.15,50a1.309,1.309,0,0,0,.751-1.566C136.832,48.236,136.62,47.981,136.444,47.956Z" transform="translate(73.432 67.966)" fill="#464646"/>
      <path id="Trazado_112806" data-name="Trazado 112806" d="M118.211,46.856c-1.02.007-2.043.047-3.063.032-.8-.014-.46-.564-.424-.962a3.99,3.99,0,0,1-.417-.022c-.449-.057-.869.578-1.243.215-.409-.4.036-.891.237-1.257A14.229,14.229,0,0,1,114.7,42.73c.912-1.149,1.882-2.255,2.859-3.354.338-.384.56-.733.233-1.217l.05-.032c-.007-.014-.025-.018-.029-.036l-.022.068v0l.022-.065c-1.846,2.776-4.834,4.69-6,7.99-.1.287-.567.327-.848.187-1.253-.614-2.636-1.1-3.035-2.69A10.169,10.169,0,0,1,107.2,40.4a3.8,3.8,0,0,0-.4-1.828c.151.7-.029,1.451.054,2.165.269,2.4.693,4.651,3.214,5.854.819.388,2.133.352,2.363,1.246a7.839,7.839,0,0,1-.37,3c-.115.7-.334,1.375-.424,2.072-.2,1.551-.815,3.042-.65,4.647.111,1.081.474,1.322,1.278.69a33.242,33.242,0,0,0,3.207-2.765,3.7,3.7,0,0,0,.725-4.733c-.169-.287-.323-.83-.8-.567-.312.172-.1.56.054.826a2.869,2.869,0,0,1-.3,3.5,12.043,12.043,0,0,1-1.533,1.458c-.46.4-.952,1.138-1.544.826-.636-.33-.154-1.138-.126-1.731a5.829,5.829,0,0,1,.23-.9,21.278,21.278,0,0,0,.894-5.76c-.054-.876.176-.923.79-.941,1.487-.039,2.977-.065,4.464-.108.291-.011.779.011.74-.323C119.03,46.748,118.52,46.852,118.211,46.856Z" transform="translate(55.161 57.143)" fill="#464646"/>
      <path id="Trazado_112807" data-name="Trazado 112807" d="M127.986,36.579c-1.681-.844-3.347-1.717-5.031-2.56a8.087,8.087,0,0,0-4.59-.686,11.557,11.557,0,0,0-6.144,2.183,4.8,4.8,0,0,1-5.6.725,4.841,4.841,0,0,0-.894-.3,7.937,7.937,0,0,0-6.493,1.3c-.212.136-.585.4-.219.725a.674.674,0,0,0,.628-.057,6.531,6.531,0,0,1,7.477-.837.938.938,0,0,0,.23.057,11.36,11.36,0,0,1,4.069,1.684,11.222,11.222,0,0,0,6.866,2.022c3.778.248,6.78-1.681,9.84-3.426C128.585,37.157,128.453,36.813,127.986,36.579Zm-1.752,1.085a12.909,12.909,0,0,1-3.347,1.72,12.092,12.092,0,0,1-9.614-.467,9.629,9.629,0,0,1-1.4-.865c-.585-.438-.524-.948.036-1.339a13.228,13.228,0,0,1,8.019-2.912,15.394,15.394,0,0,1,6.457,2.758C126.948,36.924,126.686,37.344,126.233,37.664Z" transform="translate(34.613 44.644)" fill="#464646"/>
      <path id="Trazado_112808" data-name="Trazado 112808" d="M124.386,17.6a4.754,4.754,0,0,0-1.663,1.221,38.8,38.8,0,0,0-4.234,5.609c-2.061,3.149-4.08,6.338-6.3,9.377-3.279,4.482-6.227,9.215-9.987,13.338-.18.2-.517.521-.14.779.3.208.56-.093.761-.33a196.261,196.261,0,0,0,13.086-17.536c2.672-3.965,5.01-8.174,8.6-11.449a1.186,1.186,0,0,0,.345-.593C124.91,17.728,124.673,17.628,124.386,17.6Z" transform="translate(42.447 4.047)" fill="#464646"/>
      <path id="Trazado_112809" data-name="Trazado 112809" d="M121.461,35.726a.751.751,0,0,0-1.189.022,5.4,5.4,0,0,1-2.815,1.584,1.915,1.915,0,0,1-2.5-1.429c-.194-.6-.266-1.228-.442-1.831-.488-1.7-1.465-2.438-3.142-2.022a17.217,17.217,0,0,1-3.02.438,6.869,6.869,0,0,1-.919.108c-.822-.065-2.051.643-2.37-.284-.359-1.02.851-1.411,1.7-1.756.4-.165.7-.435.374-.876a.786.786,0,0,0-1.031-.309,13.3,13.3,0,0,0-1.515,1.1c-.715.575-1.246,1.3-.848,2.234a1.934,1.934,0,0,0,1.961,1.045,30.679,30.679,0,0,0,4.417-.323c2.751-.478,2.938-.42,3.566,2.173.7,2.9,1.638,3.419,4.5,2.485.445-.144.891-.294,1.325-.474,1.562-.643,2.306-.359,3.124,1.185.248.456.237,1.135.93,1.243a1.081,1.081,0,0,0,.654-.119.387.387,0,0,0,.075-.6A20.5,20.5,0,0,0,121.461,35.726Z" transform="translate(46.905 34.304)" fill="#464646"/>
      <path id="Trazado_112810" data-name="Trazado 112810" d="M130.188,46.852c-.725-.4-1.142.83-1.5,1.487-2.385,4.432-4.8,8.845-7.071,13.338a3.24,3.24,0,0,1-2.794,2.144c.833.2,1.451.517.883,1.566-.488.9-.962,1.8-1.415,2.718-1.113,2.255-2.205,4.518-3.318,6.769-.111.226-.226.5-.032.636.381.273.474-.169.646-.366a1.988,1.988,0,0,0,.226-.413c1.982-3.749,3.986-7.491,5.947-11.255,2.582-4.945,5.107-9.922,7.951-14.724C130.059,48.17,131.165,47.387,130.188,46.852Z" transform="translate(76.004 79.645)" fill="#464646"/>
      <path id="Trazado_112811" data-name="Trazado 112811" d="M130.5,48.623c-.582,1.282-1.368,2.471-2.065,3.7-3.562,6.288-7.7,12.242-10.777,18.811-.467.991-1.02,1.943-1.508,2.927a.494.494,0,0,0,.083.427c.2.266.417.083.56-.083a4.2,4.2,0,0,0,.539-.772c.909-1.742,1.724-3.534,2.715-5.229,3.652-6.238,7.373-12.436,11.036-18.671a6.249,6.249,0,0,1,1.4-1.483C131.716,47.808,131.056,47.4,130.5,48.623Z" transform="translate(79.341 82.334)" fill="#464646"/>
      <path id="Trazado_112812" data-name="Trazado 112812" d="M131.748,37.15c-.431.259-.248.668.025.995a5.369,5.369,0,0,1,.585.736c.42.751.2,1.221-.628,1.25-1.332.043-2.668.011-4,0-.5,0-.952-.129-1.041-.718-.266-1.752-1.612-2.291-3.049-2.4a2.064,2.064,0,0,1-1.957-1.293c-.9-1.8-1.975-2.266-3.8-1.566-1.1.424-1.91.776-2.209-.815a.632.632,0,0,0-.941-.4c-.359.2-.672.593-.532.962a5.27,5.27,0,0,0,1.077,1.968c.546.514,1.146-.147,1.691-.406.072-.036.14-.068.212-.1,2.1-.927,2.862-.675,3.814,1.454a1.432,1.432,0,0,0,1.62,1.006,6.415,6.415,0,0,1,1.174-.018c1.35.119,1.48.259,1.677,1.706s.305,1.53,1.742,1.605c1.774.093,3.609-.37,5.29.65.37.223.758-.119.88-.535a10.1,10.1,0,0,0,.244-1.164,3.582,3.582,0,0,0-.83-2.6A.851.851,0,0,0,131.748,37.15Z" transform="translate(74.254 43.581)" fill="#464646"/>
      <path id="Trazado_112813" data-name="Trazado 112813" d="M106.439,36.588q-1.9,2.225-3.735,4.511c-1.864,2.32-3.462,4.827-5.128,7.29-2.359,3.491-4.855,6.891-7.254,10.357a32.157,32.157,0,0,0-1.767,3.027.674.674,0,0,0,.1.625c.312.287.564.057.711-.244A19.135,19.135,0,0,1,90.976,59.3c2.715-3.742,5.329-7.559,7.994-11.341q2.1-2.973,4.256-5.915a52.3,52.3,0,0,1,4.518-5.4,1.33,1.33,0,0,0,.237-.628,3.01,3.01,0,0,0-.5-.226A6.046,6.046,0,0,0,106.439,36.588Z" transform="translate(7.8 51.175)" fill="#464646"/>
      <path id="Trazado_112814" data-name="Trazado 112814" d="M131.939,39.007a10.792,10.792,0,0,0-2.015.643,57.871,57.871,0,0,0-6.877,3.591,22.549,22.549,0,0,0-4.6,3.656c-.488.539-.966,1.067-.754,1.853.05.18.3.334.492.427a.429.429,0,0,0,.366-.19c.535-2.309,2.535-3.329,4.184-4.579A26.851,26.851,0,0,1,129.5,40.67a.93.93,0,0,1,.639-.072c.248.126.165.4.014.6a39.234,39.234,0,0,0-2.718,4.938,6.633,6.633,0,0,1-6.087,3.7c-.388,0-.783-.029-1.167,0-.111.007-.255.169-.3.291-.1.273.108.435.32.521a1.31,1.31,0,0,0,.424.093c3.57-.118,6.152-1.422,7.664-4.511a19.965,19.965,0,0,1,4.019-6.037c.057-.054.108-.115.158-.172.226-.251.359-.553.1-.819A.785.785,0,0,0,131.939,39.007Z" transform="translate(83.274 59.49)" fill="#464646"/>
      <path id="Trazado_112815" data-name="Trazado 112815" d="M120.6,49.1a2,2,0,0,0-.93.054c-1.537.74-3.282,1.128-4.424,2.546-.194.237-.28.6-.621.65a1.16,1.16,0,0,1-.643-.129c-.075-.032-.129-.291-.075-.381.237-.406.5-.79.776-1.171a23.873,23.873,0,0,0,2.607-4.985,1.235,1.235,0,0,0-.237-1.5c-.431-.413-.909-.036-1.293.126a8.17,8.17,0,0,0-3.724,3.756c-1.138,1.911-.844,4.1-1.386,6.116a.5.5,0,0,0,.323.557.664.664,0,0,0,.858-.154c1.289-1.824,3.132-1.4,4.9-1.225.6.061,1.131.521,1.785.417-.022-.865-.751-.833-1.314-1.023-.366-.122-.909-.2-.937-.6a1.124,1.124,0,0,1,.819-1.041c1.192-.338,2.2-1.275,3.548-1.081.294.043.675.165.607-.363A.639.639,0,0,0,120.6,49.1Zm-8.583,3.487a3.231,3.231,0,0,1-.262-.79c.481-2.812,1.293-5.308,4-6.654.208-.1.531-.269.646-.187a.708.708,0,0,1,.18.855,31.411,31.411,0,0,1-3.957,6.651A.742.742,0,0,1,112.022,52.584Z" transform="translate(65.121 72.441)" fill="#464646"/>
      <path id="Trazado_112816" data-name="Trazado 112816" d="M134.105,27.378c-.7-.036-1.415.061-2.115.025-1.045-.054-2.277-.194-2.4-1.426-.151-1.591-1.052-1.458-2.112-1.329-.47.054-.948.05-1.408.136a4.185,4.185,0,0,1-4.388-1.548,1.467,1.467,0,0,0-1.792-.657,5.951,5.951,0,0,1-6.277-1.541,1.156,1.156,0,0,0-.995-.452,3.229,3.229,0,0,0-.284.435c-.158.323-.047.546.237.786a7.094,7.094,0,0,0,5.415,1.832c1.239-.111,2.467-.2,3.325,1.113.363.56,1.2.664,1.885.876,1.433.435,2.8.018,4.195-.147.535-.061.984-.043,1.081.546.388,2.323,2.079,2.449,3.914,2.413.909-.018,1.9-.4,2.65.474.2.23.377.2.488-.043a.711.711,0,0,0-.011-.456A1.419,1.419,0,0,0,134.105,27.378Z" transform="translate(69.339 11.789)" fill="#464646"/>
      <path id="Trazado_112817" data-name="Trazado 112817" d="M119.183,17.721c-.589.083-.984.438-1.559,1.605-2.32,4.733-5.771,8.712-8.752,13a53.7,53.7,0,0,1-4.09,5.714.461.461,0,0,0-.018.424c.162.305.4.147.553-.011a4.328,4.328,0,0,0,.424-.56q5.193-6.97,10.393-13.934c1.278-1.7,2.176-3.62,3.315-5.4a1.128,1.128,0,0,0,.093-.661C119.524,17.71,119.356,17.653,119.183,17.721Z" transform="translate(49.789 4.291)" fill="#464646"/>
      <path id="Trazado_112818" data-name="Trazado 112818" d="M103.1,37.914a.76.76,0,0,0-.646.18,28.523,28.523,0,0,0-2.345,2.916,142.823,142.823,0,0,1-10.63,15.41c-.233.291-.549.589-.384,1.059.083.1.154.262.277.33.381.212.589-.1.736-.341a46.514,46.514,0,0,1,2.927-4.27c3.641-4.722,6.6-9.915,10.116-14.731C103.271,38.3,103.451,38.008,103.1,37.914Z" transform="translate(9.173 56.65)" fill="#464646"/>
      <path id="Trazado_112819" data-name="Trazado 112819" d="M129.095,23.91a6.171,6.171,0,0,0-1.074.435c-.593.23-.848,1.016-1.526,1.02-.812,0-1.189-.7-1.609-1.253-.607-.8-1.379-.6-2.148-.409-.352.086-.449.37-.417.725.025.273.212.528.4.5,1.207-.2,1.756.894,2.65,1.26,1.2.488,1.185,1.422.973,2.313a5.98,5.98,0,0,1-2.42,3.9c-.524.338-1.063.646-1.58,1a.513.513,0,0,0-.176.4c.032.28.269.348.506.269a6.792,6.792,0,0,0,4.561-5.232c.269-1.185.377-2.288,1.731-2.794a1.583,1.583,0,0,0,.991-1.48C129.823,24.122,129.525,23.842,129.095,23.91Z" transform="translate(94.988 19.42)" fill="#464646"/>
      <path id="Trazado_112820" data-name="Trazado 112820" d="M108.925,48.18a1.067,1.067,0,0,0-.941,1.146,2.271,2.271,0,0,1-.011.47c-.151.524-.531.524-.9.291a1.757,1.757,0,0,1-.894-1.559c.007-.711-.025-1.419.014-2.126a3.2,3.2,0,0,0-1.713-3.333,5.938,5.938,0,0,1-2.535-2.715,4.224,4.224,0,0,0-2.058-1.871c-.384-.19-.747-.65-1.271-.287.309.212.611.438.93.632a4.711,4.711,0,0,1,2.4,5.182,9.371,9.371,0,0,1-.959,3.128,1.574,1.574,0,0,0-.158,1.515,11.139,11.139,0,0,0,1.605-4.108c.136-1.3.549-1.383,1.656-.575a2.466,2.466,0,0,1,1.135,1.95c.065,1.1.226,2.187.384,3.275.129.9.463,1.749,1.454,1.932a2.854,2.854,0,0,0,2.352-.83,1.2,1.2,0,0,0,.42-1.48A.962.962,0,0,0,108.925,48.18Z" transform="translate(33.973 57.068)" fill="#464646"/>
      <path id="Trazado_112821" data-name="Trazado 112821" d="M99.233,41.013l.015.038-.014-.04Z" transform="translate(35.567 64.711)" fill="#464646"/>
      <path id="Trazado_112822" data-name="Trazado 112822" d="M132.349,34.579a4.075,4.075,0,0,0-1.264-.61c-.754-.19-1.541-.262-2.306-.413-.212-.043-.531-.151-.575-.294-.129-.435.305-.427.56-.524.8-.305,1.616-.578,2.417-.9.251-.1.632-.244.452-.614-.126-.262-.424-.068-.632.014a22.77,22.77,0,0,1-4.956,1.34,4.466,4.466,0,0,0-2.8,1.077,2.6,2.6,0,0,0-.251.363c.129.065.269.2.384.187,1.541-.241,3.006.593,4.607.165a4.972,4.972,0,0,1,3.821.815,1.106,1.106,0,0,1,.625.93c0,.488-.4.668-.751.783-.819.266-1.652.474-2.489.679-.761.183-1.53.334-2.295.506a1.556,1.556,0,0,0-.42.144c.047.273.287.273.5.273.312,0,.625-.043.937-.065a17.575,17.575,0,0,0,4.123-.808,1.834,1.834,0,0,0,1.415-1.408C133.624,35.387,132.924,34.97,132.349,34.579Z" transform="translate(97.145 39.01)" fill="#464646"/>
      <path id="Trazado_112823" data-name="Trazado 112823" d="M106.308,36.357c.485.625,1,1.228,1.429,1.893a5.874,5.874,0,0,1,.575,6.173c-.758,1.5-2.234,2.09-3.656,2.7-.42.18-.69-.223-.88-.578a5.512,5.512,0,0,1-.794-4.248,6.534,6.534,0,0,0,.338-2.632,7.2,7.2,0,0,0-.819,3.221,7.38,7.38,0,0,0,1.1,4.719c.618,1.02,1.1,1.085,2.047.381.564-.417,1.1-.88,1.666-1.293A6.053,6.053,0,0,0,106.308,36.357Z" transform="translate(43.919 52.652)" fill="#464646"/>
      <path id="Trazado_112824" data-name="Trazado 112824" d="M98.6,40.6q-4.272,5.855-8.536,11.714a.879.879,0,0,0-.215.909.425.425,0,0,0,.679.277,2.651,2.651,0,0,0,.564-.722c2.948-4.23,5.667-8.633,9.2-12.433a2.046,2.046,0,0,0,.262-.6,2.941,2.941,0,0,0-.657-.068A1.9,1.9,0,0,0,98.6,40.6Z" transform="translate(11.099 61.225)" fill="#464646"/>
      <path id="Trazado_112825" data-name="Trazado 112825" d="M99.307,40.061a2.354,2.354,0,0,0-.589.2,6.682,6.682,0,0,0-1.727,1.9c-2.115,3.02-3.785,6.335-6.076,9.237a1.165,1.165,0,0,0-.3.621.916.916,0,0,0,.312.564c.075.068.3.018.442-.025.345-.1.384-.452.549-.707A122.017,122.017,0,0,1,99.393,41c.1-.122.262-.226.294-.359C99.745,40.395,99.59,40.212,99.307,40.061Z" transform="translate(13.238 62.25)" fill="#464646"/>
      <path id="Trazado_112826" data-name="Trazado 112826" d="M131.517,27.112c-.327,1.677-.776,3.336-1.192,5-.19.769-.618.93-1.383.607-1.052-.445-1.871-1.357-3.063-1.5a1.67,1.67,0,0,0,.851.988c.589.377,1.239.664,1.828,1.045s1.39.406,1.4,1.541c0,.5,1.3-.366,1.875.33a1.379,1.379,0,0,0,.564.273c.054-.614-.636-1.243.018-1.849-.481-.2-1.117-.338-.962-1.031.56-2.51.18-5.143,1.225-7.62.42-1,1.5-1.523,1.627-2.632A7.4,7.4,0,0,0,131.517,27.112Z" transform="translate(104.611 16.124)" fill="#464646"/>
      <path id="Trazado_112827" data-name="Trazado 112827" d="M117.758,39.425a4.938,4.938,0,0,0-1.735.675c-.822.445-1.627.941-2.478,1.322-.56.251-1.311,1.142-1.691-.262-.072-.266-.42-.129-.506.1a3.4,3.4,0,0,0-.255,1.135c0,.406-.783.74-.162,1.156a1.607,1.607,0,0,0,1.566.2c.453-.194.664-.625.995-.927a10.033,10.033,0,0,1,4.169-2.51,1.206,1.206,0,0,1,1.652,1.138c.144,1.063-.388,1.566-1.393,1.77-.348.068-1.16-.119-.916.593.151.449.844.19,1.271.065,1.39-.4,1.957-1.067,2-2.255C120.329,39.978,119.417,39.2,117.758,39.425Z" transform="translate(65.256 60.505)" fill="#464646"/>
      <path id="Trazado_112828" data-name="Trazado 112828" d="M126.36,27.616a10.664,10.664,0,0,0-2.683,5.121,16.367,16.367,0,0,1-3.519,7.182c-.248.33-.517.636-.119.991.5.449.733.09,1.081-.312,1.508-1.742,1.979-4.044,3.272-5.9a.746.746,0,0,0,.079-.456c-.183-1.857.776-3.293,1.72-4.744.341-.521.668-1.056.966-1.605a.439.439,0,0,0-.2-.6A1.953,1.953,0,0,0,126.36,27.616Z" transform="translate(88.953 29.184)" fill="#464646"/>
      <path id="Trazado_112829" data-name="Trazado 112829" d="M107.423,35.661c-1.541.431-2.923-.226-4.37-.488a5.935,5.935,0,0,0-5.178,1.185,7.686,7.686,0,0,0,2.41-.445,5.439,5.439,0,0,1,2.324-.147c1.11.136,1.9,1.092,3.07,1.067.28-.007.251.435.065.5-1.516.5-1.63,2.212-2.683,3.1,2.165-.7,3.588-2.331,4.906-4.062A.459.459,0,0,0,107.423,35.661Z" transform="translate(32.045 49.214)" fill="#464646"/>
      <path id="Trazado_112830" data-name="Trazado 112830" d="M108.621,45.965c-.259.736-.424,1.508-.679,2.244a20.629,20.629,0,0,1-1.332,3.753c-.187.33-.384.79-.794.743-.435-.05-.51-.539-.575-.93a42.619,42.619,0,0,1-.356-7.89.759.759,0,0,0-.614.808c-.068,1.72-.208,3.444-.133,5.161a21.481,21.481,0,0,0,.65,3.7c.19.848.729,1,1.325.431a4.277,4.277,0,0,0,.593-.729c1.451-2.2,1.893-4.773,2.611-7.243.032-.108-.111-.266-.172-.4C108.966,45.725,108.679,45.807,108.621,45.965Z" transform="translate(48.224 72.161)" fill="#464646"/>
      <path id="Trazado_112831" data-name="Trazado 112831" d="M128.877,30.015a7.444,7.444,0,0,0-1.261-3.009c-.948-1.261-1.462-1.207-2.388.3,1.835-.115,2.187.047,2.614,2.011.769,3.548,1.814,7.053,2.058,10.705a3.259,3.259,0,0,0,.33-2.859C129.81,34.773,129.369,32.389,128.877,30.015Z" transform="translate(102.924 26.11)" fill="#464646"/>
      <path id="Trazado_112832" data-name="Trazado 112832" d="M97.106,41.367a3.589,3.589,0,0,0-.646.672,80.153,80.153,0,0,0-4.949,7.067,2.625,2.625,0,0,0-.248.79c.1.241.126.445.23.51a.417.417,0,0,0,.593-.144A27.745,27.745,0,0,1,94.2,46.9c1.181-1.641,2.277-3.347,3.606-4.884a.685.685,0,0,0,.126-.607C97.72,41.087,97.357,41.191,97.106,41.367Z" transform="translate(14.914 65.203)" fill="#464646"/>
      <path id="Trazado_112833" data-name="Trazado 112833" d="M131.739,21.99c-.539-.341-1.207.061-1.713.442a5.994,5.994,0,0,0-.743.765,3.254,3.254,0,0,0,.819-.05c.348-.1.711-.075.65.3-.266,1.691.1,3.408-.3,5.092a8.848,8.848,0,0,1-2.015,4.363,1.938,1.938,0,0,0-.585,1.11,7.749,7.749,0,0,0,3.3-5.516c.284-1.594.359-3.228.571-4.841C131.8,23.082,132.392,22.407,131.739,21.99Z" transform="translate(109.726 15.091)" fill="#464646"/>
      <path id="Trazado_112834" data-name="Trazado 112834" d="M97.588,42.037c-.629.011-.883.549-1.182.977C94.931,45.133,93.5,47.28,92.014,49.4c-.32.452-.485.9,0,1.2.557.348.873-.223,1.056-.6a51.331,51.331,0,0,1,3.5-5.283c.424-.657.934-1.261,1.347-1.921C98.105,42.5,97.965,42.2,97.588,42.037Z" transform="translate(16.073 67.37)" fill="#464646"/>
      <path id="Trazado_112835" data-name="Trazado 112835" d="M126.126,33.257a5.08,5.08,0,0,1-1-4.41c.1-.6.237-1.2.363-1.8a5.964,5.964,0,0,0-.025,6.475c1.336,1.972,3.279,3.3,5.031,4.827.718.625,1.052.043,1.185-.65A16.125,16.125,0,0,1,126.126,33.257Z" transform="translate(101.096 28.52)" fill="#464646"/>
      <path id="Trazado_112836" data-name="Trazado 112836" d="M98.691,42.53a1.228,1.228,0,0,0-1.336.654c-.74,1.013-1.5,2.007-2.237,3.02s-1.451,2.033-2.169,3.056c-.334.474-.262.919.262,1.156s.621-.262.79-.6a23.656,23.656,0,0,1,3.257-4.593,22.272,22.272,0,0,0,1.53-2.079C99,42.835,98.928,42.555,98.691,42.53Z" transform="translate(18.756 68.597)" fill="#464646"/>
      <path id="Trazado_112837" data-name="Trazado 112837" d="M122.523,27.675c-.327.165-.686.323-1.02.521-.736.442-1.458.912-2.191,1.361-.521.32-.883.338-.808-.449a2.476,2.476,0,0,0,.029-.9.447.447,0,0,0-.743-.215,2.537,2.537,0,0,0-.449,2.413c.643.812,1.39.431,2.094.054a4.8,4.8,0,0,0,.973-.639c.672-.614,1.059-.409,1.372.356a.731.731,0,0,0,.542.352c.456.025.381-.4.442-.675.119-.531.251-1.059.334-1.594C123.155,27.876,122.907,27.711,122.523,27.675Z" transform="translate(82.089 30.156)" fill="#464646"/>
      <path id="Trazado_112838" data-name="Trazado 112838" d="M102.341,42.933c-.5.37-.912.865-1.426,1.21a1.839,1.839,0,0,1-2.359-.255,1.728,1.728,0,0,1,.5-2.291c.305-.262.715-.51,1.074-.359.542.226.129.643.036.984-.083.3-.2.7.158.815.287.09.567-.212.7-.5.305-.661.549-1.361-.029-1.975-.646-.686-1.408-.162-1.946.1a2.366,2.366,0,0,0-1.343,2.316,2.173,2.173,0,0,0,1.34,2.047,2.22,2.22,0,0,0,2.564-.621c.5-.463.8-1.174,1.559-1.336C102.912,42.869,102.607,42.739,102.341,42.933Z" transform="translate(31.607 62.664)" fill="#464646"/>
      <path id="Trazado_112839" data-name="Trazado 112839" d="M114.052,42.221a.405.405,0,0,0-.338.2c-.169.593.05,1.738-.363,1.713-.916-.061-.682-1.232-1.049-1.885-.187-.334-.248-.74-.409-1.092a.541.541,0,0,0-.384-.219c-.305-.039-.388.194-.384.435.029,1.584,1.1,2.912,1.088,4.536,0,.531.725.593,1.113.23a3.621,3.621,0,0,0,1.171-3,4.518,4.518,0,0,0-.129-.643A.467.467,0,0,0,114.052,42.221Z" transform="translate(66.38 64.504)" fill="#464646"/>
      <path id="Trazado_112840" data-name="Trazado 112840" d="M107.206,36.2a3.4,3.4,0,0,0-2.708-.259c-.295.126-.542.309-.413.7.1.305.352.219.564.223a9.538,9.538,0,0,1,8.033,3.954,1.049,1.049,0,0,0,1.009.388C112.23,38.628,109.831,37.263,107.206,36.2Z" transform="translate(48.048 51.074)" fill="#464646"/>
      <path id="Trazado_112841" data-name="Trazado 112841" d="M97.818,43.351c-1.857,1.372-2.952,3.354-4.151,5.25a.59.59,0,0,0,.212.819c.406.262.689.057.891-.366a19.36,19.36,0,0,1,3.286-4.5,4.806,4.806,0,0,0,.686-.934c.108-.2,0-.431-.312-.51A2.346,2.346,0,0,0,97.818,43.351Z" transform="translate(20.91 70.15)" fill="#464646"/>
      <path id="Trazado_112842" data-name="Trazado 112842" d="M112.817,32.114a3.5,3.5,0,0,0-2,.6.746.746,0,0,0-.251.585c.029.373.341.5.682.452.23-.029.449-.144.679-.187,1.53-.277,1.559-.291,2.291,1.286a.921.921,0,0,0,.88.6c.3.022.668.054.6-.427A3.179,3.179,0,0,0,112.817,32.114Z" transform="translate(64.925 41.658)" fill="#464646"/>
      <path id="Trazado_112843" data-name="Trazado 112843" d="M115.66,37.238c-.6-.029-.851.273-.83.844A.677.677,0,0,1,115.847,38a.919.919,0,0,1,.1,1.253,10.543,10.543,0,0,1-3.649,3.48,3.52,3.52,0,0,0-1.889,2.277.9.9,0,0,1,.5-.657,32.574,32.574,0,0,0,4.611-3.214,3.228,3.228,0,0,0,1.235-2.905A1.023,1.023,0,0,0,115.66,37.238Z" transform="translate(64.517 54.931)" fill="#464646"/>
      <path id="Trazado_112844" data-name="Trazado 112844" d="M111.013,19.231c-.783.065-.765.851-.822,1.451a4.891,4.891,0,0,0,.09.934,3.993,3.993,0,0,0-.2.9c-.007.65.578.639,1,.779.284.093.8.208.819-.1.043-.927.758-1.778.366-2.715C112.033,19.913,111.745,19.17,111.013,19.231Z" transform="translate(63.67 8.265)" fill="#464646"/>
      <path id="Trazado_112845" data-name="Trazado 112845" d="M114.35,23.133c-.305.542-.514,1.142-.812,1.684-.219.4-.406.937-.955.919-.474-.018-.334-.618-.593-.88a1.034,1.034,0,0,0-1.045-.352.488.488,0,0,0-.435.539,2.68,2.68,0,0,0,1.458,1.62,1.229,1.229,0,0,0,1.519-.2,5.41,5.41,0,0,0,1.652-3c.036-.194-.14-.424-.215-.639C114.727,22.925,114.44,22.975,114.35,23.133Z" transform="translate(64.789 17.586)" fill="#464646"/>
      <path id="Trazado_112846" data-name="Trazado 112846" d="M121.407,19.528a10.347,10.347,0,0,0-3.5,1.35,1.837,1.837,0,0,0-.873,2.413.514.514,0,0,0,.309.309c.287.032.323-.14.259-.406a1.534,1.534,0,0,1,.851-1.77c1.006-.567,1.993-1.289,3.268-.959a.8.8,0,0,1-.065.751c.966.172,1.207-.575,1.117-1.225S121.967,19.435,121.407,19.528Z" transform="translate(81.323 8.865)" fill="#464646"/>
      <path id="Trazado_112847" data-name="Trazado 112847" d="M102.968,31.287c-1.444.614-3.078.869-4.187,2.137.707.061,1.264-.4,1.907-.571.682-.187,1.052-.011,1.013.761-.043.833-.409,1.684.1,2.5h-.014l.018.007h0v-.007c.5-1.436.463-3.085,1.706-4.227a.456.456,0,0,0,.065-.424A.462.462,0,0,0,102.968,31.287Z" transform="translate(34.395 39.39)" fill="#464646"/>
      <path id="Trazado_112848" data-name="Trazado 112848" d="M96.928,39.391a8.177,8.177,0,0,0-3.157,1.9c-.1.108-.255.33-.215.388.162.241.417.151.6.014a23,23,0,0,1,6.751-3.085c.42-.144.668-.316.557-.783Z" transform="translate(20.838 56.466)" fill="#464646"/>
      <path id="Trazado_112849" data-name="Trazado 112849" d="M112.921,33.864c-.8-.463-1.735.639-2.41,1.379-.032.032-.022.1-.014.172a2.236,2.236,0,0,0,.632-.158c.33-.19.675-.539,1.027-.237.33.284.093.725.014,1.1a8.192,8.192,0,0,1-1.232,2.758c-.111.169-.219.524-.147.589.215.187.409-.036.535-.212a7.414,7.414,0,0,0,1.5-2.618C113.028,35.7,113.887,34.421,112.921,33.864Z" transform="translate(64.732 45.908)" fill="#464646"/>
      <path id="Trazado_112850" data-name="Trazado 112850" d="M108.035,46.3a1.338,1.338,0,0,0-1.3.33.757.757,0,0,0-.09.865c.115.241.356.23.578.118,1.609-.8,2.952-.165,4.363.636.614.345,1.081,1.07,1.914,1C112.187,47.337,110.179,46.679,108.035,46.3Z" transform="translate(54.531 78.306)" fill="#464646"/>
      <path id="Trazado_112851" data-name="Trazado 112851" d="M122.253,34c-.761.158-1.282.546-1.275,1.4a4.64,4.64,0,0,0,1.332,3.142.441.441,0,0,0,.6.126.421.421,0,0,0,.111-.607c-.341-.6-.959-1.049-1.059-1.785-.05-.352-.338-.819.2-.995.356-.115.467.255.6.539.129.266.381.582.6.075A1.369,1.369,0,0,0,122.253,34Z" transform="translate(91.911 46.539)" fill="#464646"/>
      <path id="Trazado_112852" data-name="Trazado 112852" d="M99.079,34.279q-1.74,4.773-3.476,9.542c.988-.108,1.253-1.149,1.99-1.577l.057.061c.011-.057.032-.086.043-.14-.029.018-.054.04-.083.054a2.266,2.266,0,0,1-.111-2.036c.546-1.34,1.023-2.708,1.53-4.062l-.007-.007A1.886,1.886,0,0,0,99.079,34.279Z" transform="translate(26.16 47.268)" fill="#464646"/>
      <path id="Trazado_112853" data-name="Trazado 112853" d="M100.934,37.069a13.407,13.407,0,0,0-3.7-.37.683.683,0,0,0-.51.366c-.09.435.28.456.582.449a30.384,30.384,0,0,1,5.347.417c1.189.165,2.571.144,3.153-1.343A7.565,7.565,0,0,1,100.934,37.069Z" transform="translate(29.024 53.251)" fill="#464646"/>
      <path id="Trazado_112854" data-name="Trazado 112854" d="M109.54,44.906l.047.04c-.014-.036-.036-.057-.05-.093A.271.271,0,0,0,109.54,44.906Z" transform="translate(62.262 74.664)" fill="#464646"/>
      <path id="Trazado_112855" data-name="Trazado 112855" d="M113.038,44.391c-1.788-.122-4.794,1.821-5.4,3.5a.568.568,0,0,0,0,.442c.273.388.381-.047.438-.158a5.694,5.694,0,0,1,3.778-2.9c1.016-.3,2.13-.47,2.726.783C114.6,44.933,114.18,44.466,113.038,44.391Z" transform="translate(57.221 73.455)" fill="#464646"/>
      <path id="Trazado_112856" data-name="Trazado 112856" d="M98.4,43.37a16.338,16.338,0,0,0-3.275,4.159,1.532,1.532,0,0,0-.061.445c.086.233.259.474.456.233,1.232-1.494,2.428-3.013,3.62-4.536.054-.068-.054-.373-.1-.377C98.824,43.277,98.515,43.244,98.4,43.37Z" transform="translate(24.753 70.583)" fill="#464646"/>
      <path id="Trazado_112857" data-name="Trazado 112857" d="M102.817,35.024c-.309-.1-.679-.248-.83.065s.158.539.463.668c1.756.733,3.383,1.587,3.645,3.76l.873-.011A5.764,5.764,0,0,0,102.817,35.024Z" transform="translate(42.605 48.874)" fill="#464646"/>
      <path id="Trazado_112858" data-name="Trazado 112858" d="M113.12,36.924c.5.147,1.131-.47,1.454.072.244.4-.388.786-.593,1.2a3.923,3.923,0,0,1-.449.539,2.026,2.026,0,0,0-.18.352c.147.007.338.072.427,0a8.941,8.941,0,0,0,.887-.761c1.135-1.056,1.555-2.076,1.07-2.578S114.262,35.7,113.12,36.924Z" transform="translate(71.55 50.555)" fill="#464646"/>
      <path id="Trazado_112859" data-name="Trazado 112859" d="M103.9,38.141a5.218,5.218,0,0,0-.909-.212,29.278,29.278,0,0,0-7.222.115c2.654.83,5.433-.122,8.087.611.129.032.4-.043.42-.115C104.342,38.273,104.076,38.2,103.9,38.141Z" transform="translate(26.583 56.244)" fill="#464646"/>
      <path id="Trazado_112860" data-name="Trazado 112860" d="M110.424,38.489c-.779-.8-.5-1.706-.259-2.611a.555.555,0,0,0-.575.5c-.122.927-.251,1.849-.359,2.78-.072.625-.093,1.512.614,1.5.657-.014-.172-.887.212-1.336A3.026,3.026,0,0,0,110.424,38.489Z" transform="translate(61.386 51.411)" fill="#464646"/>
      <path id="Trazado_112861" data-name="Trazado 112861" d="M109.539,36.608l.043.05-.043-.054Z" transform="translate(62.271 53.292)" fill="#464646"/>
      <path id="Trazado_112862" data-name="Trazado 112862" d="M108.5,47.067c-.075.043-.083.244-.086.373,0,.043.14.136.183.119a12.2,12.2,0,0,0,2.338-.927c.636-.406,1.584-.69,1.5-1.745a9.381,9.381,0,0,1-2.686,1.584A8.461,8.461,0,0,0,108.5,47.067Z" transform="translate(59.363 74.755)" fill="#464646"/>
      <path id="Trazado_112863" data-name="Trazado 112863" d="M121.7,38.248c.011.1.212.284.28.262,1.433-.413,3.027-.442,4.13-1.659-1.494-.029-2.729.973-4.187,1.081C121.837,37.94,121.694,38.148,121.7,38.248Z" transform="translate(93.792 53.932)" fill="#464646"/>
      <path id="Trazado_112864" data-name="Trazado 112864" d="M122.835,23.446c.812.237.69-.661,1.024-1.006.384-.4,1.131-.61.97-1.386a2.31,2.31,0,0,0-1.444.639C122.659,22.286,122.365,23.306,122.835,23.446Z" transform="translate(96.134 12.999)" fill="#464646"/>
      <path id="Trazado_112865" data-name="Trazado 112865" d="M125.609,23.954c-.075.093-.233.226-.212.28.406.927.406,2.137,1.638,2.5-.356-.83-.707-1.659-1.077-2.478C125.9,24.13,125.728,24.055,125.609,23.954Z" transform="translate(103.358 20.514)" fill="#464646"/>
      <path id="Trazado_112866" data-name="Trazado 112866" d="M127.717,25.947a11.547,11.547,0,0,0,1.519,2.941C129.132,27.7,128.992,26.525,127.717,25.947Z" transform="translate(109.373 25.678)" fill="#464646"/>
      <path id="Trazado_112867" data-name="Trazado 112867" d="M123.547,22.088c0-.061.007-.119.011-.18-.032.036-.043.075-.075.111Z" transform="translate(98.4 15.212)" fill="#464646"/>
      <path id="Trazado_112868" data-name="Trazado 112868" d="M123.239,21.288c1.379.711,1.006,1.946.948,3.088a2.715,2.715,0,0,0,.374-2.7C124.385,21.091,123.9,20.606,123.239,21.288Z" transform="translate(97.77 12.743)" fill="#464646"/>
      <path id="Trazado_112869" data-name="Trazado 112869" d="M128.264,29.72c0,.007.1.007.108-.007a4.408,4.408,0,0,0-.09-2.9A6.025,6.025,0,0,0,128.264,29.72Z" transform="translate(110.352 27.927)" fill="#464646"/>
      <path id="Trazado_112870" data-name="Trazado 112870" d="M96.731,37.359c.359-.485.952-.636,1.419-.966.266-.19.625-.316.542-.74C97.9,36.077,96.67,35.991,96.731,37.359Z" transform="translate(29.076 50.828)" fill="#464646"/>
      <path id="Trazado_112871" data-name="Trazado 112871" d="M124.952,62.227q-8.145-3.34-16.326-6.608c-3.706-1.48-7.426-2.916-11.143-4.367-.215-.086-.51-.187-.614.072a.67.67,0,0,0,.194.6,9.687,9.687,0,0,0,2.27,1.167c3.9,1.408,7.8,2.83,11.653,4.367,5.347,2.133,10.666,4.342,16.132,6.162C126.662,62.762,125.746,62.554,124.952,62.227Z" transform="translate(29.397 91.007)" fill="#464646"/>
      <path id="Trazado_112872" data-name="Trazado 112872" d="M117.857,58.546c-6.331-2.772-12.659-5.552-19.17-7.9a3.1,3.1,0,0,0-2-.32c-.183.718.352.84.865,1.034,4.3,1.638,8.626,3.207,12.867,4.974,3.013,1.253,6.2,2.079,9.05,3.728l-.022-.047C119.477,58.93,118.521,58.837,117.857,58.546Z" transform="translate(28.883 88.669)" fill="#464646"/>
      <path id="Trazado_112873" data-name="Trazado 112873" d="M124.615,61.178a104.158,104.158,0,0,0-11.046-4.654c-2.783-1.052-5.617-1.982-8.425-2.966-.3-.1-.679-.183-.815.14-.147.341.187.549.485.664.8.316,1.591.664,2.413.909,4.065,1.192,8,2.747,11.966,4.212,2.086.772,4.008,2.029,6.27,2.309C125.323,61.4,124.921,61.336,124.615,61.178Z" transform="translate(48.677 96.986)" fill="#464646"/>
      <path id="Trazado_112874" data-name="Trazado 112874" d="M120.9,60.4a71.155,71.155,0,0,0-8.64-3.067c-1.713-.56-3.44-1.085-5.161-1.627-.409-.133-1-.56-1.174-.014-.147.456.564.654.991.812a33.31,33.31,0,0,0,3.329,1.171,86.984,86.984,0,0,1,8.985,2.744c1.422.524,2.711,1.422,4.259,1.6A5.76,5.76,0,0,0,120.9,60.4Z" transform="translate(52.853 102.055)" fill="#464646"/>
      <path id="Trazado_112875" data-name="Trazado 112875" d="M98.8,50.67c-3-1.3-6.03-2.553-8.938-4.065a4.5,4.5,0,0,0-1-.277c-.377.1-.567.2-.528.5.043.32.144.668.463.747a20.676,20.676,0,0,1,3.257,1.286c2.147.927,4.342,1.745,6.529,2.578.262.1.84.057.865-.032C99.589,50.921,99.119,50.81,98.8,50.67Z" transform="translate(7.313 78.489)" fill="#464646"/>
      <path id="Trazado_112876" data-name="Trazado 112876" d="M119.946,61.257c-2.539-1.591-5.4-2.474-8.109-3.7a1.991,1.991,0,0,0-.546-.057c-.136.068-.438.126-.51.284-.144.32.043.575.381.715a80.885,80.885,0,0,1,8.454,3.53c.215.115.467.19.621-.036C120.47,61.649,120.219,61.426,119.946,61.257Z" transform="translate(65.363 107.44)" fill="#464646"/>
    </g>
    <g id="Grupo_76125" data-name="Grupo 76125" transform="translate(875.949 5499.703)">
      <path id="Trazado_112877" data-name="Trazado 112877" d="M401.807-107.834l3.483,2.233a5.024,5.024,0,0,1,1.3.242,27.651,27.651,0,0,1,2.833,1.374,13.962,13.962,0,0,0,2.1,1.289c1.611.523,1.858.99.9,2.5-2.83,4.471-5.682,8.928-8.58,13.476,1.49.924,2.781,2.085,4.686.772.3-.209,1.838.547,1.985,1.082.561,2.044,2.4,2.746,3.965,4.345.664-3,1.359-5.742,1.866-8.514q2.481-13.58,4.831-27.182a36.7,36.7,0,0,0,.647-6.54c-.011-1.1-.8-2.193-1.253-3.286-.532-1.3-1.833-2.239-1.343-4.011a2.525,2.525,0,0,0-1.376-2.85,23.367,23.367,0,0,1-4.512-3.553,4.348,4.348,0,0,1-.764-2.769c-.03-2.48.145-4.961.208-7.443.022-.853.473-1.037,1.238-1.209,1.98-.445,3.944-.992,5.875-1.619a1.941,1.941,0,0,1,2.2.228,2.993,2.993,0,0,0,3.259.687c-.034-.66-.084-1.2-.085-1.741a4.5,4.5,0,0,0-1.5-3.4,1.58,1.58,0,0,0-.865-.412c-1.923-.175-3.849-.328-5.777-.426a4.558,4.558,0,0,0-1.326.4v-9.3c2.073-.393,4.046-1.035,6.43-.522a48.24,48.24,0,0,0,9.526.6c2.323.026,4.65-.263,7.193-.425-2-1.452-.414-2.642.037-4.4.738,1.158,1.323,1.961,1.786,2.828.712,1.335,1.538,1.639,2.76.722.908-.681,1.635-1.6,2.5-2.337a36.752,36.752,0,0,1,2.912-2.243c.961-.665,1.687-.261,2.243.653.595.977,1.176,1.966,1.832,2.9a8.594,8.594,0,0,1,1.615,5.932c-.105,1.128-.019,2.275-.019,3.619l2.653-.489a32.863,32.863,0,0,0-.785-3.7c-.744-2.232-1.913-4.362-2.356-6.641a34.534,34.534,0,0,0-1.522-4.12.836.836,0,0,1,.149-.655c.639-.819.2-1.164-.492-1.674a25.081,25.081,0,0,1-3.053-2.76,11.673,11.673,0,0,1-2.261-2.3c-.342-.6-2.045-.419-3.352-.624a4.452,4.452,0,0,1,.767-1.371c1.9-1.737,3.841-3.421,5.808-5.077,1.141-.961,1.14-1.579.18-2.69a7.941,7.941,0,0,1-.974-2.172c-.306-.733-.633-1.361-1.636-1.293a1.22,1.22,0,0,1-.935-.641c-.417-1.054-.692-2.163-1.045-3.244-.191-.584-.479-1.139-.636-1.731-.246-.924-.428-1.865-.617-2.8-.129-.64,0-1.546-.378-1.879-.937-.816-.544-1.673-.444-2.561.195-1.737.464-3.47.556-5.212a12.494,12.494,0,0,0-.271-3.3,1.936,1.936,0,0,1,1.07-2.487c1.27-.61,1.966-1.276,1.558-2.978-.479-1.994,1.057-3.323,2.419-4.556a4.736,4.736,0,0,1,.6-.416,16.259,16.259,0,0,0-1.073-3.041c-.837-1.41-3.913-1.742-5.372-.817a5.3,5.3,0,0,1-2.032.745c-2.694.384-5.4.688-8.1,1a3.388,3.388,0,0,1-.972-.1c-1.543-.282-3.078-.624-4.631-.832a2.175,2.175,0,0,0-1.265.485c-.623.41-1.186.913-1.774,1.377l-.058-.459a16.279,16.279,0,0,1-2.282-.329,2.5,2.5,0,0,1-1.3-.834c-1.44-2.02-2.749-4.135-4.216-6.134a27.249,27.249,0,0,0-3.033-3.419,3.606,3.606,0,0,0-3.712-1.126c-1.024.25-2.445-.525-3.5-1.151a5.693,5.693,0,0,0-5.419-.125c-1.661.947-3.435,1.55-5.405.4-.677-.394-1.742-.078-2.618-.183a8.781,8.781,0,0,0-4.548.37c-2.181.882-5.008-1.367-5.067-4.03-.024-1.11-.382-1.441-1.38-1.459a5.891,5.891,0,0,1-1.549-.255,1.817,1.817,0,0,1-1.38-2.164c.113-1.685-.151-3.409.09-5.067.128-.882.982-1.658,1.738-2.841-.577-1.24-.192-3.39-2.121-4.8a8.127,8.127,0,0,1-3.188-5.7,27.2,27.2,0,0,0-1.056-3.773c-.744.033-1.773.373-2.144.021-.481-.458-.438-1.466-.671-2.451-1.662,1.123-3.2,2.462-5.571,1.636.442-.574.817-1.02,1.147-1.5,1.291-1.868,2.661-3.691,3.808-5.644a8.991,8.991,0,0,0,.756-2.966c.673-3.829.461-7.86,3.246-11.141a26.01,26.01,0,0,0,2.956-5.039c.6-1.158,1.189-2.182,2.693-1.986a1.825,1.825,0,0,0,2.056-1.3c.677-1.42,1.556-2.749,2.166-4.194.62-1.469,1.718-1.929,3.159-2.274a38.546,38.546,0,0,0,6.338-2.05,13.932,13.932,0,0,0,3.22-2.433c.27-.232.54-.864.413-1.095-.933-1.7-1.448-3.8-3.872-4.174a22.241,22.241,0,0,1-3.238-.9c-.767-.243-1.167-.009-1.354.764-.2.843-.625,1.359-1.606.906a.605.605,0,0,0-.566.158c-.083.12.011.4.081.582.1.257.246.494.469.928l-1.956.837-.4-1.284-1.707.1a5.711,5.711,0,0,1-4.375,6.47c-4.137.806-7.233,3.2-10.256,5.873a5.994,5.994,0,0,1-2.927,1.512c-2.782.37-5.589.566-8.243-.874a2.363,2.363,0,0,0-3.33,2.211c.219,2.243-1.394,3.82-1.938,5.778-.065.236-.7.408-1.08.422-.182.007-.469-.394-.556-.66-.291-.893-.513-1.809-.794-2.839A24.825,24.825,0,0,0,347-295.49a2.8,2.8,0,0,0-1.84.515c-1.618,1.044-2.84,2.587-4.686,3.409a10.122,10.122,0,0,0-2.827,2.47,2.849,2.849,0,0,0-.663,1.828l-1.629,1.038c2.871,1.672-.1,1.794-.052,2.806l1.118-.208-1.545,7.1a6.548,6.548,0,0,1,.941,2.29c-.029,1.915-1.224,2.908-3.007,2.33a3.474,3.474,0,0,0-3.774,1.083,25.523,25.523,0,0,0-2.726,4.3,5.028,5.028,0,0,1-.955,1.32c-1.581,1.272-3.19,2.513-4.85,3.679a7.943,7.943,0,0,1-1.752.573c-.624.236-1.223.536-2.2.971a3.7,3.7,0,0,1,2.594,3.767c.041,1.446.415,2.886.423,4.329a1.755,1.755,0,0,1-1.089,1.311,1.937,1.937,0,0,1-1.674-.682c-.351-.63-.081-1.389.885-1.55.083-.014.1-.408.185-.773-1.093.351-1.152-.274-1.547-1.026a15.885,15.885,0,0,0-2.8-3.21c-.949-1-1.944-1.949-3.117-3.118l-1.1,1.564,4.35,8.23c-2.692.882-3.323,1.939-2.53,3.464l-3.628,2.617-1.9-2.741c-.243.265-.365.363-.352.389,1,1.879-.5,3.045-1.228,4.449-.647,1.242-.58,2.3.868,3.055a3.519,3.519,0,0,1,1.453,1.534,4.883,4.883,0,0,1,.049,1.881l2.416,2.628c.919-.1,2.428,1.56,2.243,2.811-.142.955-.269,1.913-.378,2.873-.1.854-.423,1.323-1.678.749a15.544,15.544,0,0,0,.8,2.168c.737,1.309,1.615,2.54,2.34,3.855.866,1.57-.073,3.028-1.836,3.2a7.532,7.532,0,0,0-2.152,1.1,4.015,4.015,0,0,1,2.813,4.331,13.73,13.73,0,0,0,.68,6.38c.439,1.373-.236,3.157-.6,4.712a12.706,12.706,0,0,1-1.264,2.566l1.095.379c-1.425,1.528-1.431,2.632-.135,3.874.531-.7,1.052-1.426,1.63-2.1a4.774,4.774,0,0,1,.825.477c-.321.458-.512,1.051-.874,1.186-.9.336-.983.6-.371,1.376.67.846,1.231.4,1.849.09a2.511,2.511,0,0,1,1.338-.439l-1.814,2.685.438.72-1.1.692c.115-.894.23-1.787.349-2.708-1.994-.217-4.118-2.944-3.546-5.589l-1.76.747c.256-.746.27-1.308.537-1.483,3.075-2.011,3.077-4.861,2.456-8.032-.326-1.661-.177-3.41-.345-5.109a22.189,22.189,0,0,0-.655-3.42c-.053-.2-.611-.3-.95-.394-.365-.1-.745-.148-1.3-.251.878-1.348,1.573-2.351,3.182-2.319.918.018,1.59-1.541,1.106-2.373-.733-1.261-1.632-2.434-2.277-3.735a19.827,19.827,0,0,1-.975-3.106l.41-.259,1.208.36c-.566-1.824,1.574-3.918-.84-5.433l-1.044.728c-.564-1.25-.25-3.075-2.568-2.888.116-.812.222-1.551.373-2.615-.477-.433-1.162-1.15-1.943-1.742a1.926,1.926,0,0,1-.781-2.676c.477-.96.25-2.379,1.852-2.571a16.471,16.471,0,0,1-.429-2.113,1.126,1.126,0,0,1,.432-.926,1.093,1.093,0,0,1,1,.238,24.1,24.1,0,0,1,1.542,2.022c.719-.52,1.46-1.038,2.177-1.585.21-.16.481-.391.51-.616.3-2.361.349-2.461,2.573-3.527-.83-1.349-1.666-2.67-2.459-4.016a5.823,5.823,0,0,1-.428-1.189,4.92,4.92,0,0,0-.327-1.082c-.3-.488-1.108-1.08-1-1.331a20.992,20.992,0,0,1,1.775-2.915c.428.384.624.481.692.634a7.1,7.1,0,0,0,2.7,3.345c.494.308.758.965,1.187,1.405a8.356,8.356,0,0,0,1.012.719c.228.172.429.379.641.572a6.269,6.269,0,0,1,1.389,1.323,5.757,5.757,0,0,1,.395,1.756l-1.266.678c.263.217.559.641.78.6.359-.059.915-.387.95-.659a10.357,10.357,0,0,0-.139-2.052,12.4,12.4,0,0,0-.308-3.375,13.174,13.174,0,0,0-2.221-2.869c.34-.269.894-1.023,1.594-1.2,2.206-.555,3.747-2.054,5.4-3.411.214-.175.382-.492.615-.543,1.992-.435,2.332-2.285,2.914-3.707.907-2.217,3.721-4.077,6.124-3.611,1.514.294,2.547-.485,2.3-1.95-.1-.583-.849-1.057-1.459-1.763a9.2,9.2,0,0,0,1.408-5.91l-1.775.3c.313-.6.49-.927.651-1.258.4-.824.82-1.64,1.183-2.481.854-1.981,1.212-4.126,3.659-5.2,1.608-.706,2.8-2.349,4.2-3.546.5-.423,1.053-.773,1.589-1.148.428-.3.865-.583,1.208-.814,2.02.515,4.015,1.175,6.062,1.5,1.855.294,2.368-.3,2.151-2.133a2.35,2.35,0,0,1,1.224-2.644,4.087,4.087,0,0,1,2.953-.1,12.816,12.816,0,0,0,8.952.5c1.293-.345,2.375-1.686,3.421-2.709a17.26,17.26,0,0,1,8.241-4.353,6.13,6.13,0,0,0,4.461-4.291.79.79,0,0,0,.031-.56c-1.053-2.024.538-1.652,1.615-1.885a4.029,4.029,0,0,0,1.832-.89c.89-.826,2.133-.958,3.062-1.833.486-.458,1.964.111,2.985.268.261.04.483.392.736.409,2.79.189,3.653,2.394,4.69,4.423.562,1.1-.255,1.638-.91,2.257a17.531,17.531,0,0,1-10.073,4.419,2.838,2.838,0,0,0-1.719,1.248,47.238,47.238,0,0,0-2.572,4.787c-.506,1.064-1.131,1.7-2.4,1.534-1.011-.132-1.59.379-2.106,1.289-1.547,2.726-3.234,5.372-4.855,8.057a2.824,2.824,0,0,0-.456,1.023c-.347,2.734-.553,5.491-1.022,8.2a9.183,9.183,0,0,1-1.436,3.209c-1.214,1.9-2.572,3.707-3.87,5.554l.295.459a19.058,19.058,0,0,0,2.787-1.309c1.8-1.213,1.981-1.178,2.4.971.044.23.1.457.153.673.675-.035,1.455-.308,1.891-.034s.58,1.083.788,1.68a10.918,10.918,0,0,1,.723,2.463c.261,2.748,2,4.524,3.839,6.3,1.393,1.34,1.071,3.311,1.584,4.979a.412.412,0,0,1-.2.35c-2.025.631-1.522,2.186-1.438,3.667a14.259,14.259,0,0,1-.267,2.982c-.185,1.174.219,1.842,1.423,2a11.273,11.273,0,0,0,1.264.23c1.158.012,1.552.572,1.572,1.7a3.7,3.7,0,0,0,3.516,3.811c.141.018.324.125.413.07,2.072-1.28,4.3-.639,6.47-.5.707.047,1.406.508,2.1.477a10.561,10.561,0,0,0,4.184-.588,6.505,6.505,0,0,1,6.186.023c1.124.592,2.29,1.429,3.948,1.044a4.087,4.087,0,0,1,3.234,1.289c2.183,2.442,4.1,5.127,6.1,7.73A15.545,15.545,0,0,1,421-226.809c.394.678.811,1.182,1.694.718.179-.094.563-.119.657-.009,1.092,1.286,1.727.142,2.582-.361a3.587,3.587,0,0,1,2.071-.434c1.461.157,2.9.538,4.35.778a2.98,2.98,0,0,0,1.074-.145,12.642,12.642,0,0,1,1.653-.409c1.931-.158,3.873-.2,5.8-.4a6.676,6.676,0,0,0,2.049-.739,5.215,5.215,0,0,1,5.191.243,2.508,2.508,0,0,1,1.192,1.129,10.262,10.262,0,0,0,.631,1.909c.394.711.394,1.169-.292,1.7-1.756,1.359-3.259,2.817-2.319,5.426.146.4-.508,1.386-1.031,1.688a2.86,2.86,0,0,0-1.73,3.428c.351,2.727-.236,5.571-.367,8.368a5.47,5.47,0,0,0,.34,1.534c.176.68.649,1.426.5,2.017a4.357,4.357,0,0,0,.681,3.2c.631,1.315.916,2.791,1.433,4.167.125.333.56.563.876.809a8.051,8.051,0,0,1,1.588,1.207c.722.95,1.266,2.034,1.918,3.041.479.739-.014,1.97-1.043,2.825-2.047,1.7-4.05,3.454-6.3,5.379,1.1.213,1.923.353,2.732.538a1.1,1.1,0,0,1,.581.368,26.977,26.977,0,0,0,5.458,5.336c.375.274.346,1.126.466,1.719.136.674,0,1.595.392,1.982a1.812,1.812,0,0,1,.612,2.01,1.2,1.2,0,0,0,.085.675c1.038,2.831,2.128,5.644,3.1,8.5a8.413,8.413,0,0,1,.031,2.361l-3.575.841a22.974,22.974,0,0,1,.024-3.263,8.974,8.974,0,0,0-1.974-7.358,8.385,8.385,0,0,1-1.2-1.946c-.455-1.066-1.153-1.222-2.033-.664A15.747,15.747,0,0,0,446.781-167c-.917.832-1.7,1.823-2.665,2.588-1.757,1.394-3.021,1-3.906-1.047a15.489,15.489,0,0,0-.777-1.394c-1.91,1.5.05,2.286.387,3.517-1.546.092-2.99.184-4.435.263-4.334.236-8.707.824-12.971-.275a9.548,9.548,0,0,0-5.422.132,1.278,1.278,0,0,0-.763.889c-.064,2.38-.035,4.763-.035,7.444,2.271.069,4.495.109,6.715.229a1.921,1.921,0,0,1,1.247.565c.879,1.038,2.056,1.994,1.553,3.64-.04.132.016.291-.018.426-.165.657,1.191,1.408-.018,1.944a3.1,3.1,0,0,1-3.521-.433c-.939-.912-1.545-.6-2.58-.167a25.426,25.426,0,0,1-5.119,1.3c-.7.133-1.144.2-1.159,1.059-.047,2.577-.22,5.152-.208,7.727a3.027,3.027,0,0,0,.792,2.017,28.941,28.941,0,0,0,4.1,3.194c1.14.727,2.172,1.984,1.839,3.236-.448,1.683.664,2.662,1.3,3.919a8.3,8.3,0,0,1,1.217,3.723c-.255,6.656-2.146,13.052-3.347,19.561-.995,5.391-1.64,10.845-2.582,16.246a45.534,45.534,0,0,1-1.982,6.993c-1.215-1.939-3.725-2.518-4.323-4.9-.187-.745-.959-1.254-2.07-.6a3.931,3.931,0,0,1-2.559-.009,12.232,12.232,0,0,1-2.4-1.184l9.473-14.924-3.429-2c-.5-.285-1.351-.84-2.264-1.266a5.086,5.086,0,0,0-1.508-.242c-.275-.033-.671.087-.813-.058C403.592-105.838,402.708-106.845,401.807-107.834ZM350.951-293.707l.822,2.383.418.081,1.05-2.464Z" transform="translate(-39.412)" fill="#464646"/>
      <path id="Trazado_112878" data-name="Trazado 112878" d="M265.559,161.4c-.072.674-.144,1.348-.178,1.668l-4.071.987v1.1l-1.8-1.587-1.021,1.843-.915-1.251a10.981,10.981,0,0,0-3.773,4.327c-1.2,2.024-1.107,2.076-.7,3.968l1.174.33c-.371,1.084,1.427,2.167-.149,3.364-2.441-1.357-4.334-.517-5.667,2.026-.036-.13-.036-.055-.009-.043,2.068.879,2.825,3,4.276,4.466a10.543,10.543,0,0,0,1.476.971c1.6,1.132,3.144,2.347,4.8,3.394a22.392,22.392,0,0,0,2.991,1.305,19.025,19.025,0,0,0,2.1.965,2.7,2.7,0,0,0,1.61-.006c.834-.309,1.116-.057,1.517.689a3.584,3.584,0,0,0,1.737,1.562c.724.272,1.193.483,1.2,1.306a4.814,4.814,0,0,0,.126.848c.384,2.057.828,2.638,2.781,2.366,1.771-.247,3.049.661,4.533,1.135.692.221,1.668.552,2.14.249.941-.6,1.541-.108,2.333.111a9.381,9.381,0,0,0,2.315.039c.009-1.18-.064-2.372,1.269-2.824.248-.084.6-.249.759-.148,1.586,1,3.6,1.156,4.713,3.131a3.772,3.772,0,0,0,4.077,2.083c.331-.066.76.307,1.129.5,1.045.558,2.071,1.153,3.127,1.689.615.312,1.168.5,1.689-.349.141-.229,1.261-.033,1.816.22a5.235,5.235,0,0,1,1.486,1.27c.771.823,1.553,1.035,2.6-.064.543,2.6,3.133,2.922,4.4,4.631a13.268,13.268,0,0,1,1.659,2.183,25.877,25.877,0,0,1,1.068,3.528,2.533,2.533,0,0,0,2.939,1.636,16.477,16.477,0,0,1,1.464.9c.489.383.913.85,1.394,1.246.307.252.667.629,1,.628a3.142,3.142,0,0,1,3.372,2.036c.246.532.695.972.924,1.509a4.33,4.33,0,0,1,.352,1.613c.006.559-.445,1.464-.241,1.618a4.528,4.528,0,0,0,2.369,1.055c1.88.049,2.288.285,2.528,2.14a10.343,10.343,0,0,1,.4,1.905,12.289,12.289,0,0,1-.744,2.441c.256.522.485,1.436,1.918,1.171.448-.083,1.086.867,1.707,1.4l4.385-.827a10.2,10.2,0,0,0,2.961,1.1,10,10,0,0,0,3.4-.728,22.833,22.833,0,0,0,2.275-.822,9.169,9.169,0,0,0,.952-.506c-.1.251-.134.643-.314.729-1.069.512-2.165.967-3.264,1.413-2.23.9-4.3.377-6.328-.841-.522.788-1.091,1.379-2.1.734a1.111,1.111,0,0,0-.925.056c-.985.52-1.708.479-2.141-.7a.78.78,0,0,0-.669-.362c-1.109.37-1.589-.379-2.1-1.092a1.431,1.431,0,0,1,.275-2.138,1.09,1.09,0,0,0,.216-.894c-.27-1.189-.614-2.361-.842-3.206-1.424-.457-2.652-.793-3.834-1.248-1.037-.4-1.137-1.233-.632-2.113a1.32,1.32,0,0,0-.41-1.967,2,2,0,0,1-.561-.908,2.589,2.589,0,0,0-2.926-2.07,1.394,1.394,0,0,1-.914-.271,11.9,11.9,0,0,0-4.838-2.822c-1.014-.346-1.37-1.5-1.85-2.59-.641-1.456-.241-3.444-2.064-4.445a36.338,36.338,0,0,1-3.888-2.817l-.282.276v-1.56c-2.057.992-3.038-.651-4.227-1.579-.7-.544-1.1-.984-1.824-.073a1.389,1.389,0,0,1-1.272.192c-1.173-.5-2.269-1.169-3.43-1.7a5.565,5.565,0,0,0-1.929-.557,4.976,4.976,0,0,1-3.771-2.331,6.624,6.624,0,0,0-3.421-2.389c-.4-.146-.765-.375-1.527-.756a17.008,17.008,0,0,0-.7,2.193c-.141.777-1.742,1.548-2.8,1.085a4.835,4.835,0,0,0-2.295-.246c-1.466.038-2.951-.659-4.426-1.059a4.382,4.382,0,0,0-1.287-.385c-3.537.265-3.893.016-4.565-3.43-.046-.233-.089-.467-.131-.686-2.32-.809-2.448-.922-3.087-2.861-1.658,1.338-2.831-.169-4.18-.729a42.56,42.56,0,0,1-4.96-2.365,29.816,29.816,0,0,1-3.782-2.742c-1.049-.849-2.01-1.809-2.989-2.741-.625-.6-1.168-1.282-1.827-1.833-.792-.662-1.488-1.173-.117-1.991.942-.562,1.7-1.466,2.678-1.922.554-.258,1.385.087,2.093.144.295.024.593,0,1.2,0a13.989,13.989,0,0,1-1.912-2.637c-1.143-2.873.813-4.844,2.291-6.9a4.225,4.225,0,0,1,1.748-1.62c1.307-.436,2.456-1.316,4.124-.852C262.639,163.815,264.223,162.672,265.559,161.4Z" transform="translate(0 -340.452)" fill="#464646"/>
      <path id="Trazado_112879" data-name="Trazado 112879" d="M323.846,122.4c-.592.969-1.153,1.959-1.792,2.9-.215.315-.655.466-.942.744-.379.368-1.062.858-1,1.171.265,1.317-.879,1.5-1.465,2.12.474-1.558.765-3.22,2.618-3.882a1.275,1.275,0,0,0,.57-.943C321.955,123.24,322.869,122.806,323.846,122.4Z" transform="translate(-50.54 -312.629)" fill="#464646"/>
      <path id="Trazado_112880" data-name="Trazado 112880" d="M613.774,409.425c.748.354,2.065-.107,1.854,1.819,1.461-.638,2.632-1.2,3.846-1.644.282-.1.708.185,1.068.293-.271-.031-.755-.15-.784-.08-.746,1.807-2.595,1.007-3.83,1.63-.2.1-.53-.073-.8-.12C615.488,410.111,612.969,410.954,613.774,409.425Z" transform="translate(-260.975 -517.4)" fill="#464646"/>
      <path id="Trazado_112881" data-name="Trazado 112881" d="M312.255,146.415l-1.093,1.4.752,1.3-1.154.567.1.061-1.241.994c.221-.374.694-.809.621-1.113C309.8,147.814,310.988,147.106,312.255,146.415Z" transform="translate(-44.098 -329.763)" fill="#464646"/>
    </g>
  </g>
</svg>
