<?xml version="1.0" encoding="utf-8"?>
<!-- Generator: Adobe Illustrator 25.2.3, SVG Export Plug-In . SVG Version: 6.00 Build 0)  -->
<svg version="1.1" id="Capa_1" xmlns="http://www.w3.org/2000/svg" xmlns:xlink="http://www.w3.org/1999/xlink" x="0px" y="0px"
	 viewBox="0 0 86 86" style="enable-background:new 0 0 86 86;" xml:space="preserve">
<style type="text/css">
	.st0{fill:#344154;}
</style>
<g transform="translate(978.262 -1018.972)">
	<path class="st0" d="M-937.6,1087c-5-0.9-9.6-3.6-12.7-7.7c-3.2-4-4.8-9.1-4.4-14.2c-2.3-0.3-4.6-0.5-6.9-0.8
		c-1.3-0.1-2.6-0.2-3.9-0.5c-0.5-0.2-1.1,0.1-1.3,0.6c0,0,0,0.1,0,0.1c-1,2.1-3.2,3.4-5.5,3.3c-2.4-0.1-4.5-1.7-5.3-4.1
		c-0.7-2.3,0-4.7,1.8-6.3c2.4-2.1,6.1-1.8,8.2,0.6c0.5,0.6,0.9,1.4,1.2,2.1c0.1,0.7,0.7,1.2,1.4,1.1c3.1,0.3,6.2,0.7,9.3,1.1
		c0.4,0.1,0.9,0.1,1.3,0.1c1.9-8.2,6.7-13.6,14.7-16.3c-0.7-2.9-1.4-5.8-2.1-8.6c-0.1-0.2-0.5-0.4-0.8-0.4c-4.1,0-7.6-2.9-8.2-6.9
		c-0.7-4.3,2-8.4,6.3-9.4c4.4-1,8.8,1.8,9.9,6.2c0.8,3.6-0.9,7.3-4.2,9.1c-0.5,0.3-0.7,0.5-0.5,1.1c0.7,2.7,1.3,5.4,2,8.1
		c0,0.1,0.1,0.2,0.1,0.3c11.5-0.9,19.3,3.9,23.6,14.7c2.6-0.9,5.3-1.8,8-2.8c0.3-0.1,0.5-0.7,0.5-1.1c0.3-2.4,1.7-4.4,3.8-5.6
		c2.9-1.4,6.4-0.4,8.1,2.3c1.8,2.9,1.1,6.7-1.6,8.8c-2.8,2.1-8.1,1.5-9.9-2.1l-8.4,2.9c1,6-0.6,12.1-4.4,16.9l9.5,8.8
		c2.1-1.7,4.9-2.2,7.4-1.5c1.9,0.5,3.5,1.7,4.6,3.3c2.2,3.3,1.8,7.7-1,10.5c-2.8,2.8-7.3,3.2-10.6,0.9c-3.6-2.6-4.4-6.7-2.1-11.4
		l-9.5-8.8c-4.2,4-9.9,6.2-15.8,5.8c-0.1,2-0.2,3.9-0.3,5.8c0,0.2,0.4,0.5,0.7,0.7c1.8,1.3,2.3,3.8,1.1,5.6c0,0,0,0,0,0.1
		c-1.3,1.8-3.8,2.2-5.6,0.8c0,0,0,0-0.1-0.1c-1.7-1.3-2-3.8-0.7-5.6c0.4-0.5,0.9-0.9,1.4-1.1c0.6-0.2,0.9-0.7,0.9-1.3
		C-937.9,1090.5-937.7,1088.8-937.6,1087z M-952.4,1066.4c0,10.1,8.1,18.3,18.2,18.4c10.2,0.1,18.6-8.1,18.7-18.3
		c0-10.2-8.2-18.5-18.4-18.6C-944.1,1048-952.4,1056.2-952.4,1066.4C-952.4,1066.4-952.4,1066.4-952.4,1066.4z"/>
	<path class="st0" d="M-924.3,1075.5c-0.1,0-0.2,0-0.3-0.1c-1.3-1.1-3.2-0.9-4.3,0.4c-0.3,0.3-0.5,0.6-0.6,1c0,2,0,2-2.1,2.4
		c-2,0.4-2,0.4-2.9-1.5c-0.1-0.5-0.6-0.9-1.1-0.8c-0.3,0-0.6,0-0.8-0.1c-0.9-0.5-1.9-0.2-2.4,0.7c0,0,0,0,0,0.1
		c-0.5,0.7-1.1,0.9-1.9,0.2c-0.6-0.5-1.3-0.8-1.9-1.3c-0.2-0.2-0.5-0.8-0.3-1c1-1.4,0.6-2.6-0.4-3.8c-0.3-0.5-0.8-0.8-1.4-0.8
		c-0.6,0-1.2,0-1.9,0c-0.2-1.3-0.5-2.5-0.7-3.6c0-0.3,0.2-0.5,0.4-0.7c1.8-0.3,2.4-1.5,2.5-3.1c0.1-0.5,0.1-0.9-0.3-1.3
		c-0.5-0.4-1-0.9-1.5-1.4c0.8-1.2,1.5-2.2,2.2-3.2c0.2-0.2,0.5-0.2,0.7-0.2c1.4,1,2.7,0.7,4-0.3c0.4-0.3,0.7-0.8,0.7-1.3
		c0-1.9,0-1.9,1.9-2.3c0.7-0.1,1.4-0.3,2.2-0.4c0.1,0.2,0.2,0.4,0.3,0.6c0.2,1.4,1.3,2.4,2.7,2.4c0.8,0,1.4,0.2,1.9-0.5
		c0.2-0.3,0.5-0.5,0.8-0.7c0.3-0.2,0.6-0.2,0.9-0.1c0.9,0.5,1.7,1.1,2.5,1.7c0.2,0.2,0.4,0.7,0.3,0.8c-1.1,1.5-0.6,2.8,0.5,4.1
		c0.3,0.3,0.6,0.5,1,0.6c0.7,0.1,1.4,0.1,2.1,0c0.2,1.3,0.5,2.5,0.7,3.7c0,0.3-0.2,0.5-0.5,0.6c-1.5,0.2-2.5,1.5-2.5,2.9
		c-0.1,0.5,0,1.1,0.4,1.5c0.5,0.4,0.9,0.8,1.4,1.3L-924.3,1075.5z M-934,1072.6c3.4,0,6.1-2.7,6.1-6.1c0-3.4-2.8-6.2-6.2-6.2
		c-3.4,0-6.2,2.8-6.1,6.2c0,0,0,0,0,0C-940.1,1069.9-937.3,1072.6-934,1072.6L-934,1072.6z"/>
</g>
</svg>
