<?xml version="1.0" encoding="utf-8"?>
<!-- Generator: Adobe Illustrator 25.2.3, SVG Export Plug-In . SVG Version: 6.00 Build 0)  -->
<svg version="1.1" id="Capa_1" xmlns="http://www.w3.org/2000/svg" xmlns:xlink="http://www.w3.org/1999/xlink" x="0px" y="0px"
	 viewBox="0 0 86 86" style="enable-background:new 0 0 86 86;" xml:space="preserve">
<style type="text/css">
	.st0{fill:#344154;}
</style>
<g transform="translate(2427.792 -713.003)">
	<path class="st0" d="M-2386.1,753.6c12.5-0.1,22.6,10,22.7,22.5c0,0,0,0.1,0,0.1c-0.1,12.4-10.4,22.3-23.1,22.2
		c-12.4-0.1-22.5-10.2-22.4-22.7C-2408.9,763.5-2398.5,753.5-2386.1,753.6z M-2367.2,776c-0.1-10.4-8.5-18.7-18.9-18.7
		c-10.4-0.1-18.9,8.2-19.1,18.6c0,0.1,0,0.1,0,0.2c0.1,10.3,8.5,18.7,18.8,18.7c10.4,0.2,19-8.2,19.1-18.6
		C-2367.2,776.1-2367.2,776-2367.2,776L-2367.2,776z"/>
	<path class="st0" d="M-2366.3,760.6c-1.2-1.3-2.5-2.6-3.9-3.7c-1-0.8-2.1-1.5-3.3-2.1c-0.6-0.2-0.9-0.8-0.8-1.4
		c0-7.2,0-14.3,0-21.5c0-1.1-0.3-1.3-1.3-1.2c-1.4,0.1-2.7,0-4.1,0c-0.7,0-0.8-0.2-0.4-0.7c3.1-5.3,6.2-10.6,9.2-16
		c0.3-0.6,0.5-0.5,0.8,0c3.1,5.3,6.1,10.6,9.2,16c0.3,0.6,0.2,0.7-0.4,0.7c-1.3,0-2.5,0-3.8,0c-0.9,0-1,0.3-1,1.1c0,9,0,18,0,27.1
		c0,0.5,0,1.1,0,1.6L-2366.3,760.6z"/>
	<path class="st0" d="M-2387,728c1.8,3.2,3.6,6.2,5.3,9.2c1.4,2.5,2.8,4.9,4.3,7.4c0.4,0.7,0.3,0.8-0.5,0.8c-1.3,0-2.7,0-4,0
		c-0.6,0-0.8,0.2-0.8,0.8c0,1.7,0,3.3,0,5c0,0.6-0.2,0.7-0.8,0.7c-2.1-0.4-4.3-0.4-6.4-0.1c-1,0.2-1.1-0.2-1.1-1.1
		c0.1-1.5,0-3,0-4.5c0-0.6-0.2-0.8-0.7-0.8c-1.6,0-3.1,0-4.7,0c-0.5,0-0.7-0.1-0.4-0.6C-2393.5,739.2-2390.3,733.7-2387,728z"/>
	<path class="st0" d="M-2387.3,781.4C-2387.3,781.4-2387.3,781.4-2387.3,781.4c0-1.3,0.3-2.6-0.1-3.7c-0.4-1.1-2-0.9-3-1.5
		c-2.9-1.4-4.6-4.5-4.1-7.8c0.5-3,2.9-5.3,5.9-5.7c1-0.2,1.5-0.5,1.3-1.5c-0.2-1.1,0.5-0.9,1.2-1c0.8-0.1,1.1,0.2,1,1
		c-0.2,1.1,0.3,1.4,1.3,1.5c2.5,0.4,4.6,2.2,5.4,4.7c0.2,0.7,0.1,0.9-0.6,0.9c-0.9,0.1-1.7,0.2-2.6,0.3c-0.5,0.1-0.7,0-0.9-0.5
		c-0.3-1-1.1-1.7-2-2.1c-0.4-0.2-0.6-0.2-0.6,0.3c0,2.2,0,4.4,0,6.6c0,0.4,0.1,0.5,0.5,0.7c1,0.3,2,0.6,3,1c2.5,0.8,4.2,3,4.3,5.6
		c0.3,2.7-0.9,5.4-3.1,7c-1.1,0.8-2.5,1.4-3.9,1.5c-0.7,0.1-1,0.4-0.9,1.1c0,0.1,0,0.3,0,0.4c-0.1,0.4,0.2,1-0.2,1.1
		c-0.6,0.1-1.2,0.2-1.8,0.1c-0.2,0-0.2-0.3-0.2-0.5c0-0.4,0-0.8,0-1.2c0.1-0.5-0.2-0.7-0.7-0.8c-3.5-0.4-6.3-3.1-7-6.5
		c-0.1-0.5-0.1-0.6,0.4-0.7c1-0.1,2-0.2,3-0.3c0.4-0.1,0.7,0.1,0.8,0.5c0,0,0,0.1,0,0.1c0.5,1.4,1.4,2.5,2.7,3.2
		c0.5,0.3,0.7,0.3,0.7-0.4C-2387.3,783.8-2387.3,782.6-2387.3,781.4z M-2385.2,781.8c0,1.1,0,2.1,0,3.2c0,0.6,0.1,0.8,0.7,0.6
		c1.8-0.4,3.1-2,3.1-3.9c-0.1-1.8-1.5-3.3-3.3-3.6c-0.5-0.1-0.6,0-0.6,0.5C-2385.2,779.7-2385.2,780.8-2385.2,781.8L-2385.2,781.8z
		 M-2387.4,766c-1.7,0.3-3,1.7-3.1,3.4c0.1,1.7,1.4,3.1,3.1,3.4V766z"/>
</g>
</svg>
