<?xml version="1.0" encoding="utf-8"?>
<!-- Generator: Adobe Illustrator 25.2.3, SVG Export Plug-In . SVG Version: 6.00 Build 0)  -->
<svg version="1.1" id="Capa_1" xmlns="http://www.w3.org/2000/svg" xmlns:xlink="http://www.w3.org/1999/xlink" x="0px" y="0px"
	 viewBox="0 0 86 86" style="enable-background:new 0 0 86 86;" xml:space="preserve">
<style type="text/css">
	.st0{fill:#344154;}
</style>
<path class="st0" d="M43,67.4c-0.7,0-1.3-0.6-1.3-1.3V21.4c0-4.9,3.9-8.8,8.8-8.8h33.3c0.7,0,1.3,0.6,1.3,1.3c0,0,0,0,0,0v44.7
	c0,0.7-0.6,1.3-1.3,1.3l0,0H50.5c-3.4,0-6.2,2.8-6.2,6.2C44.3,66.8,43.7,67.4,43,67.4z M50.5,15.3c-3.4,0-6.2,2.8-6.2,6.2v38.4
	c1.6-1.6,3.9-2.5,6.2-2.5h32v-42L50.5,15.3z"/>
<path class="st0" d="M43,67.4c-0.7,0-1.3-0.6-1.3-1.3c0-3.4-2.8-6.2-6.2-6.2H2.2c-0.7,0-1.3-0.6-1.3-1.3l0,0V13.9
	c0-0.7,0.6-1.3,1.3-1.3l0,0h33.3c4.9,0,8.8,3.9,8.8,8.8v44.7C44.3,66.8,43.7,67.4,43,67.4z M3.5,57.3h32c2.3,0,4.5,0.9,6.2,2.5V21.4
	c0-3.4-2.8-6.2-6.2-6.2h-32V57.3z"/>
<path class="st0" d="M43.3,73.4c-0.1,0-0.2,0-0.3,0c-3.8,0.2-7.3-2.2-8.4-6H4.3c-0.7,0-1.3-0.6-1.3-1.3v-7.5c0-0.7,0.6-1.3,1.3-1.3
	c0.7,0,1.3,0.6,1.3,1.3c0,0,0,0,0,0.1v6.2h30c0.6,0,1.2,0.5,1.3,1.1c0.8,5.1,5.8,4.9,6,4.9c0,0,0.1,0,0.1,0c0.5,0,5.2,0.1,6-4.9
	c0.1-0.6,0.7-1.1,1.3-1.1h30v-6.2c0-0.7,0.6-1.3,1.3-1.3s1.3,0.6,1.3,1.3v7.5c0,0.7-0.6,1.3-1.3,1.3h0H51.4
	C50.4,71,47,73.5,43.3,73.4z"/>
<path class="st0" d="M77.2,28.6h-9.3c-0.7,0-1.3-0.6-1.3-1.3v-6.5c0-0.7,0.6-1.3,1.3-1.3l0,0h9.3c0.7,0,1.3,0.6,1.3,1.3v6.5
	C78.5,28,77.9,28.6,77.2,28.6z M69.2,26h6.7v-3.9h-6.7V26z"/>
<path class="st0" d="M77.2,40.7h-9.3c-0.7,0-1.3-0.6-1.3-1.3c0,0,0,0,0,0v-6.5c0-0.7,0.6-1.3,1.3-1.3l0,0h9.3c0.7,0,1.3,0.6,1.3,1.3
	v6.5C78.5,40.1,77.9,40.7,77.2,40.7L77.2,40.7z M69.2,38.1h6.7v-3.9h-6.7V38.1z"/>
<path class="st0" d="M77.2,52.9h-9.3c-0.7,0-1.3-0.6-1.3-1.3l0,0V45c0-0.7,0.6-1.3,1.3-1.3l0,0h9.3c0.7,0,1.3,0.6,1.3,1.3v6.5
	C78.5,52.3,77.9,52.9,77.2,52.9z M69.2,50.2h6.7v-3.9h-6.7V50.2z"/>
<path class="st0" d="M62.5,25.3H50.2c-0.7,0-1.3-0.6-1.3-1.3c0-0.7,0.6-1.3,1.3-1.3c0,0,0,0,0.1,0h12.4c0.7,0,1.3,0.6,1.3,1.3
	C63.9,24.7,63.3,25.3,62.5,25.3C62.6,25.3,62.5,25.3,62.5,25.3z"/>
<path class="st0" d="M62.5,37.9H50.2c-0.7,0-1.3-0.6-1.3-1.3c0-0.7,0.6-1.3,1.3-1.3h12.4c0.7,0,1.3,0.6,1.3,1.3
	C63.8,37.3,63.2,37.9,62.5,37.9z"/>
<path class="st0" d="M62.5,49.6H50.2c-0.7,0-1.3-0.6-1.3-1.3c0-0.7,0.6-1.3,1.3-1.3h12.4c0.7,0,1.3,0.6,1.3,1.3
	C63.8,49,63.2,49.6,62.5,49.6z"/>
<path class="st0" d="M18.1,28.6H8.8c-0.7,0-1.3-0.6-1.3-1.3v-6.5c0-0.7,0.6-1.3,1.3-1.3l0,0h9.3c0.7,0,1.3,0.6,1.3,1.3c0,0,0,0,0,0
	v6.5C19.4,28,18.8,28.6,18.1,28.6z M10.1,26h6.7v-3.9h-6.7V26z"/>
<path class="st0" d="M18.1,40.7H8.8c-0.7,0-1.3-0.6-1.3-1.3c0,0,0,0,0,0v-6.5c0-0.7,0.6-1.3,1.3-1.3l0,0h9.3c0.7,0,1.3,0.6,1.3,1.3
	c0,0,0,0,0,0v6.5C19.4,40.1,18.8,40.7,18.1,40.7C18.1,40.7,18.1,40.7,18.1,40.7z M10.1,38.1h6.7v-3.9h-6.7V38.1z"/>
<path class="st0" d="M18.1,52.9H8.8c-0.7,0-1.3-0.6-1.3-1.3l0,0V45c0-0.7,0.6-1.3,1.3-1.3l0,0h9.3c0.7,0,1.3,0.6,1.3,1.3l0,0v6.5
	C19.4,52.3,18.8,52.9,18.1,52.9L18.1,52.9z M10.1,50.2h6.7v-3.9h-6.7V50.2z"/>
<path class="st0" d="M35.8,25.3H23.5c-0.7,0-1.3-0.6-1.3-1.3c0-0.7,0.6-1.3,1.3-1.3c0,0,0,0,0.1,0h12.4c0.7,0,1.3,0.6,1.3,1.3
	C37.2,24.7,36.6,25.3,35.8,25.3C35.9,25.3,35.9,25.3,35.8,25.3z"/>
<path class="st0" d="M35.8,37.9H23.5c-0.7,0-1.3-0.6-1.3-1.3c0-0.7,0.6-1.3,1.3-1.3h12.4c0.7,0,1.3,0.6,1.3,1.3
	C37.2,37.3,36.6,37.9,35.8,37.9z"/>
<path class="st0" d="M35.8,49.6H23.5c-0.7,0-1.3-0.6-1.3-1.3c0-0.7,0.6-1.3,1.3-1.3h12.4c0.7,0,1.3,0.6,1.3,1.3
	C37.2,49,36.6,49.6,35.8,49.6C35.9,49.6,35.9,49.6,35.8,49.6z"/>
</svg>
