<svg xmlns="http://www.w3.org/2000/svg" xmlns:xlink="http://www.w3.org/1999/xlink" width="183.348" height="183.348" viewBox="0 0 183.348 183.348">
  <defs>
    <radialGradient id="radial-gradient" cx="0.076" cy="0.019" r="1.465" gradientTransform="translate(0.001)" gradientUnits="objectBoundingBox">
      <stop offset="0" stop-color="#f6f6f7"/>
      <stop offset="0.477" stop-color="#f9f9fa"/>
      <stop offset="0.715" stop-color="#fff"/>
    </radialGradient>
  </defs>
  <g id="Grupo_49868" data-name="Grupo 49868" transform="translate(0 0.001)">
    <g id="Grupo_18531" data-name="Grupo 18531" transform="translate(0 0)">
      <g id="Grupo_18423" data-name="Grupo 18423" transform="translate(0 0)">
        <g id="Grupo_18421" data-name="Grupo 18421">
          <g id="Grupo_18420" data-name="Grupo 18420">
            <g id="Grupo_18419" data-name="Grupo 18419">
              <path id="Trazado_40936" data-name="Trazado 40936" d="M377.97,2237.392a91.673,91.673,0,1,1-91.672-91.671A91.672,91.672,0,0,1,377.97,2237.392Z" transform="translate(-194.623 -2145.721)" fill="#fff"/>
            </g>
          </g>
        </g>
        <path id="Trazado_40937" data-name="Trazado 40937" d="M376.482,2235.77a91.671,91.671,0,1,0-91.672,91.676A91.311,91.311,0,0,0,376.482,2235.77Z" transform="translate(-193.135 -2144.099)" fill="url(#radial-gradient)"/>
        <path id="Trazado_40938" data-name="Trazado 40938" d="M341.45,2222.48a69.974,69.974,0,1,0-69.974,69.974A69.714,69.714,0,0,0,341.45,2222.48Z" transform="translate(-179.525 -2130.503)" fill="none" stroke="#00223d" stroke-miterlimit="10" stroke-width="4"/>
        <g id="Grupo_18422" data-name="Grupo 18422" transform="translate(16.241 51.468)">
          <path id="Trazado_40939" data-name="Trazado 40939" d="M358.381,2164.488a91.684,91.684,0,0,1-157.836,91.294,91.393,91.393,0,0,0,157.836-91.294Z" transform="translate(-200.545 -2164.488)" fill="#eceef0"/>
        </g>
      </g>
    </g>
    <g id="Grupo_52998" data-name="Grupo 52998" transform="translate(54.7 47.58)">
      <path id="Trazado_114962" data-name="Trazado 114962" d="M-1017.726,1415.986a20.606,20.606,0,0,1-2.2.251q-26.5.022-52.994.015c-.307,0-.614,0-.919-.022a1.463,1.463,0,0,1-1.553-1.631c-.025-1.5-.046-3,.008-4.492.029-.823-.281-1.074-1.069-1.045-1.258.046-2.519.023-3.777,0-1.213-.025-1.734-.549-1.75-1.759-.02-1.5-.007-2.995-.007-4.492q0-34.1,0-68.208c0-2.126.373-2.5,2.482-2.5h52.892c2.02,0,2.418.406,2.419,2.459,0,1.293.017,2.587-.01,3.88-.012.6.173.853.816.832,1.224-.041,2.45-.011,3.675,0,1.577.012,2.081.515,2.081,2.072,0,5.071.011,10.143-.013,15.214a1.682,1.682,0,0,0,.7,1.458,39.615,39.615,0,0,1,12.324,16.477,26.652,26.652,0,0,1,1.177,13.167c-.361,2.828-.767,5.664-.876,8.507a17.762,17.762,0,0,0,1.9,8.587,28.68,28.68,0,0,0,1.914,3c1.161,1.76,2.343,3.506,3.5,5.269.863,1.316.708,2.026-.617,2.877q-6.094,3.918-12.2,7.823c-1.563,1-2.174.876-3.181-.638-1.375-2.067-2.736-4.143-4.107-6.213C-1017.322,1416.538-1017.565,1416.214-1017.726,1415.986Zm-11.639-25.128a5.366,5.366,0,0,0-.7-.857c-.612-.5-1.245-.948-.6-1.676l-1-.248a4.358,4.358,0,0,1,.81-.712,5.334,5.334,0,0,1,1.116-.312l-.08-.35-2.431.53a3.147,3.147,0,0,1-.374-.718c-.3-1.3-1.175-1.431-2.346-1.425-8.713.046-17.427.026-26.141.025-1.761,0-2.473-.453-2.468-1.561,0-1.05.726-1.494,2.415-1.493q13.275,0,26.549.013c.764,0,1.23-.139,1.508-.964a3.211,3.211,0,0,1,2.773-2.258,24.873,24.873,0,0,1,2.935-.022V1335.3H-1078.9v1.493q0,33.953,0,67.9c0,1.319,0,1.317,1.346,1.317q24.2,0,48.4,0c2.194,0,1.813.2,1.839-1.836a45.952,45.952,0,0,1,.094-6.014c.4-2.7.278-5.1-1.9-7.036a4,4,0,0,1-.274-.3c.493-.536,1.016-1.1.558-1.872a5.041,5.041,0,0,0-.977-.941l-.323.222C-1028.688,1388.833-1029.2,1389.886-1029.365,1390.858Zm12.164-29.2-.358.2c-.019.257-.053.513-.054.77-.007,2.11-.059,4.222.022,6.329a3.09,3.09,0,0,0,.688,1.794,12.136,12.136,0,0,1,2.809,5.365,31.826,31.826,0,0,1,.849,5.219c.233,4.1-.275,8.083-2.654,11.608a2.346,2.346,0,0,1-2.13,1.139,3.352,3.352,0,0,1-2.706-1.6c-1.2-1.764-2.279-3.615-3.374-5.45-.627-1.049-1.126-2.179-1.8-3.2a4.052,4.052,0,0,0-3.359-2.019c-.731-.022-1.112.32-1.133,1-.062,2.043,1.169,3.522,2.32,5,1.138,1.46,2.393,2.829,3.549,4.277.108.135-.133.547-.228.887l1,.163c0,2.177-.084,4.348.021,6.509.135,2.766.374,5.644,2.307,7.772a78,78,0,0,0,6.312,5.647c2.873-1.836,6.283-4,9.668-6.209a.879.879,0,0,0,.158-.818c-2.424-5.4-2.51-10.985-1.52-16.695a28.928,28.928,0,0,0,.393-9.64,27.626,27.626,0,0,0-5.922-12.6C-1013.838,1365.2-1015.573,1363.468-1017.2,1361.656Zm-7.24,47.176a22.892,22.892,0,0,1-2.281.23q-21.385.021-42.77.012c-2.894,0-2.852,0-2.88,2.9-.01,1,.336,1.229,1.283,1.228q24.6-.04,49.2-.02h1.068l.169-.316Zm3.461-22.568.21-.069v-43.735h-3.416v1.364c0,11.6.022,23.2-.027,34.794a6.086,6.086,0,0,0,1.205,4.039A27.065,27.065,0,0,1-1020.979,1386.264Zm20.808,27.593-3.019-4.538-10.759,6.688,3.115,4.691Zm-17.407-24.662c1.863-2.836,1.5-11.551,0-13.056Z" transform="translate(1081.987 -1332.103)" fill="#12263f"/>
      <path id="Trazado_114965" data-name="Trazado 114965" d="M-986.977,1707.767l3.792,4.032-.169.316h-1.068q-24.6,0-49.2.02c-.947,0-1.293-.225-1.283-1.228.028-2.9-.014-2.9,2.88-2.9q21.385,0,42.771-.011C-988.528,1708-987.8,1707.853-986.977,1707.767Z" transform="translate(1044.524 -1631.038)" fill="#fff"/>
      <path id="Trazado_114968" data-name="Trazado 114968" d="M-766.642,1560.755V1547.7C-765.146,1549.2-764.779,1557.92-766.642,1560.755Z" transform="translate(831.051 -1503.663)" fill="#fff"/>
      <path id="Trazado_114969" data-name="Trazado 114969" d="M-827.393,1608.678l.032.026c.167-.972.677-2.026-.773-2.617l.323-.222a5.027,5.027,0,0,1,.977.941C-826.377,1607.576-826.9,1608.142-827.393,1608.678Z" transform="translate(879.984 -1549.949)" fill="#fff"/>
      <path id="Trazado_114970" data-name="Trazado 114970" d="M-1025.431,1385.671a16.162,16.162,0,0,0,1.679,1.084,5.534,5.534,0,0,1,3.048,4.419c.151.9.351,1.8.476,2.708a1.522,1.522,0,0,1-1.235,1.81,1.573,1.573,0,0,1-1.783-1.3,27.261,27.261,0,0,0-.656-3.08,5.388,5.388,0,0,0-1.233-1.735,5.763,5.763,0,0,0-1.193-.774c-1.165-.739-2.283-1.624-3.818-1.043a1.255,1.255,0,0,1-.708-.005c-2.485-.639-3.983,1.223-5.6,2.441-.695.523-.7,1.975-.99,3.013-.118.423-.131.875-.236,1.3a1.425,1.425,0,0,1-1.652,1.185,1.307,1.307,0,0,1-1.315-1.515,29.113,29.113,0,0,1,1.393-5.491c.333-.833,1.434-1.376,2.226-2a18.728,18.728,0,0,1,1.659-1.045,6.837,6.837,0,0,1-1.31-6.419,6.25,6.25,0,0,1,2.5-3.377,6.649,6.649,0,0,1,8.123.5C-1023.491,1378.68-1023.277,1381.624-1025.431,1385.671Zm-5.012-7.909a3.513,3.513,0,0,0-3.474,3.434,3.519,3.519,0,0,0,3.522,3.493,3.522,3.522,0,0,0,3.424-3.484A3.539,3.539,0,0,0-1030.443,1377.761Z" transform="translate(1049.108 -1365.998)" fill="#00223d"/>
      <path id="Trazado_114971" data-name="Trazado 114971" d="M-1015.718,1502.228q-9.135,0-18.27,0a6.021,6.021,0,0,1-1.017-.038,1.592,1.592,0,0,1-1.391-1.627,1.627,1.627,0,0,1,1.575-1.449c.237-.018.476-.007.714-.007h36.538c1.666,0,2.39.471,2.393,1.545s-.773,1.578-2.377,1.578Z" transform="translate(1045.709 -1464.992)" fill="#00223d"/>
      <path id="Trazado_114973" data-name="Trazado 114973" d="M-1015.789,1657.059h-18.375c-1.483-.012-2.2-.512-2.186-1.531s.73-1.537,2.226-1.534c6.562.009,13.124.044,19.686.046q8.668,0,17.336-.047c.889,0,1.648.173,1.9,1.147.3,1.146-.473,1.974-1.806,1.97q-7.145-.021-14.29-.049C-1012.794,1657.055-1014.291,1657.059-1015.789,1657.059Z" transform="translate(1045.672 -1588.246)" fill="#00223d"/>
      <path id="Trazado_114981" data-name="Trazado 114981" d="M-1015.789,1657.059h-18.375c-1.483-.012-2.2-.512-2.186-1.531s.73-1.537,2.226-1.534c6.562.009,13.124.044,19.686.046q8.668,0,17.336-.047c.889,0,1.648.173,1.9,1.147.3,1.146-.473,1.974-1.806,1.97q-7.145-.021-14.29-.049C-1012.794,1657.055-1014.291,1657.059-1015.789,1657.059Z" transform="translate(1045.672 -1594.586)" fill="#00223d"/>
      <path id="Trazado_114974" data-name="Trazado 114974" d="M-975.876,1540.966h-13.476c-.374,0-.75.014-1.122-.019a1.488,1.488,0,0,1-1.451-1.535,1.477,1.477,0,0,1,1.409-1.481,8.076,8.076,0,0,1,1.121-.017l27.564,0a6.008,6.008,0,0,1,.612.014,1.463,1.463,0,0,1,1.426,1.547,1.4,1.4,0,0,1-1.485,1.47c-2.007.037-4.015.023-6.023.024Q-971.588,1540.969-975.876,1540.966Z" transform="translate(1010.322 -1495.868)" fill="#00223d"/>
      <path id="Trazado_114975" data-name="Trazado 114975" d="M-913.536,1383.073q3.518,0,7.036,0c1.274,0,2,.562,2,1.524,0,.983-.677,1.578-1.975,1.58q-7.188.01-14.376-.045c-1.132-.008-1.744-.6-1.729-1.566.014-.929.658-1.481,1.8-1.487C-918.363,1383.065-915.949,1383.074-913.536,1383.073Z" transform="translate(955.138 -1372.661)" fill="#00223d"/>
      <path id="Trazado_114976" data-name="Trazado 114976" d="M-913.57,1463.588c-2.379,0-4.758.006-7.137,0-1.2,0-1.839-.56-1.83-1.562.008-.953.616-1.506,1.779-1.509q7.239-.023,14.478,0a1.617,1.617,0,0,1,1.819,1.507c0,.936-.721,1.56-1.871,1.566C-908.744,1463.6-911.157,1463.588-913.57,1463.588Z" transform="translate(955.104 -1434.276)" fill="#00223d"/>
      <path id="Trazado_114977" data-name="Trazado 114977" d="M-913.58,1424.908c-2.378,0-4.756,0-7.135,0-1.223,0-1.871-.539-1.879-1.513-.008-.959.664-1.525,1.87-1.526q7.135-.008,14.27,0c1.225,0,1.922.543,1.945,1.465.025.993-.672,1.57-1.936,1.574C-908.823,1424.915-911.2,1424.91-913.58,1424.908Z" transform="translate(955.149 -1403.529)" fill="#00223d"/>
      <path id="Trazado_114978" data-name="Trazado 114978" d="M-1025.437,1541.4a1.57,1.57,0,0,1-1.642-1.581,1.6,1.6,0,0,1,1.7-1.534,1.546,1.546,0,0,1,1.627,1.586A1.551,1.551,0,0,1-1025.437,1541.4Z" transform="translate(1038.293 -1496.173)" fill="#00223d"/>
      <path id="Trazado_114979" data-name="Trazado 114979" d="M-1023.857,1577.838a1.531,1.531,0,0,1-1.608,1.593,1.629,1.629,0,0,1-1.734-1.511,1.683,1.683,0,0,1,1.651-1.615A1.577,1.577,0,0,1-1023.857,1577.838Z" transform="translate(1038.391 -1526.426)" fill="#00223d"/>
      <path id="Trazado_114980" data-name="Trazado 114980" d="M-925.661,1628.51l1.886-.086.012.257c-1.008.3-1.576.237-1.871-.2Z" transform="translate(957.591 -1567.9)"/>
    </g>
  </g>
</svg>
