<svg xmlns="http://www.w3.org/2000/svg" width="550.975" height="519.405" viewBox="0 0 550.975 519.405"><g transform="translate(-298.34 -2519.986)"><g transform="translate(305.694 2519.986)"><g transform="translate(420.812 301.94)"><g transform="translate(0.254 0)"><g transform="translate(0)"><g transform="translate(0)"><rect width="7.847" height="58.739" transform="translate(0 7.847) rotate(-90)" fill="#e1e1e1"/></g></g><g transform="translate(7.633 0.326)"><path d="M556.625,2696.652c.2,0,.37,1.646.37,3.675s-.166,3.677-.37,3.677-.37-1.645-.37-3.677S556.422,2696.652,556.625,2696.652Z" transform="translate(-556.256 -2696.652)" fill="#fafafa"/></g><g transform="translate(6.354 0.165)"><path d="M555.879,2696.558c.2,0,.369,1.646.369,3.677s-.166,3.677-.369,3.677-.37-1.646-.37-3.677S555.675,2696.558,555.879,2696.558Z" transform="translate(-555.509 -2696.558)" fill="#fafafa"/></g><g transform="translate(53.828 0.326)"><path d="M583.624,2696.652c.205,0,.37,1.646.37,3.675s-.164,3.677-.37,3.677-.368-1.645-.368-3.677S583.42,2696.652,583.624,2696.652Z" transform="translate(-583.256 -2696.652)" fill="#fafafa"/></g><g transform="translate(52.549 0.165)"><ellipse cx="0.369" cy="3.676" rx="0.369" ry="3.676" fill="#fafafa"/></g><g transform="translate(15.195 3.792)"><path d="M590.727,2699.048c0,.2-6.727.37-15.026.37s-15.025-.167-15.025-.37,6.726-.37,15.025-.37S590.727,2698.844,590.727,2699.048Z" transform="translate(-560.676 -2698.678)" fill="#fafafa"/></g></g><g transform="translate(0 35.331)"><g transform="translate(0 0)"><rect width="15.694" height="58.738" transform="translate(0 15.694) rotate(-90)" fill="#e1e1e1"/></g><g transform="translate(0.147 1.324)"><path d="M611.078,2727.841a1.332,1.332,0,0,1-.32.183c-.216.111-.542.262-.979.447a16.976,16.976,0,0,1-3.981,1.139,10.369,10.369,0,0,1-6.462-.917,8.589,8.589,0,0,1-3.07-2.782,6.457,6.457,0,0,1-1.069-4.52,4.753,4.753,0,0,1,1.081-2.337,3.086,3.086,0,0,1,2.476-1.124,3.558,3.558,0,0,1,2.491,1.342,4.876,4.876,0,0,1,1.136,2.678,7.119,7.119,0,0,1-2.026,5.562,8.938,8.938,0,0,1-5.644,2.759,14.994,14.994,0,0,1-6.553-.813,12.093,12.093,0,0,1-5.725-3.848,6.313,6.313,0,0,1-1.335-3.388,4.4,4.4,0,0,1,1.251-3.526,2.853,2.853,0,0,1,1.838-.806,3.35,3.35,0,0,1,1.92.541,5.1,5.1,0,0,1,2.163,3.167,7.392,7.392,0,0,1-2.317,6.912,11.566,11.566,0,0,1-6.613,2.693,16.283,16.283,0,0,1-6.856-.676,9.47,9.47,0,0,1-5.215-4.054,6.945,6.945,0,0,1-.654-6.235,3.28,3.28,0,0,1,2.4-2.028,3.8,3.8,0,0,1,2.96.715,4.9,4.9,0,0,1,1.4,5.288,9.127,9.127,0,0,1-2.96,4.171,13.339,13.339,0,0,1-8.055,3.13,12.9,12.9,0,0,1-6.382-1.451,12.74,12.74,0,0,1-3.328-2.467,9.446,9.446,0,0,1-.7-.816,1.334,1.334,0,0,1-.207-.3,14.942,14.942,0,0,0,4.366,3.33,12.8,12.8,0,0,0,6.235,1.293,12.96,12.96,0,0,0,7.733-3.112,8.65,8.65,0,0,0,2.755-3.936,4.328,4.328,0,0,0-1.222-4.638,3.181,3.181,0,0,0-2.469-.581,2.625,2.625,0,0,0-1.921,1.668,6.3,6.3,0,0,0,.642,5.624,8.794,8.794,0,0,0,4.861,3.737,15.619,15.619,0,0,0,6.548.623,10.857,10.857,0,0,0,6.2-2.517,6.673,6.673,0,0,0,2.091-6.2,4.363,4.363,0,0,0-1.832-2.706,2.249,2.249,0,0,0-2.864.174,3.676,3.676,0,0,0-1.025,2.941,5.58,5.58,0,0,0,1.182,3,11.423,11.423,0,0,0,5.376,3.615,14.325,14.325,0,0,0,6.245.806,8.272,8.272,0,0,0,5.249-2.527,6.507,6.507,0,0,0,1.892-5.052c-.144-1.726-1.459-3.408-3.047-3.516a2.53,2.53,0,0,0-2.038.919,4.224,4.224,0,0,0-.974,2.062,5.983,5.983,0,0,0,.946,4.178,8.209,8.209,0,0,0,2.874,2.676,10.185,10.185,0,0,0,6.224.994,18.759,18.759,0,0,0,3.968-.994C610.609,2728.01,611.064,2727.812,611.078,2727.841Z" transform="translate(-551.732 -2717.885)" fill="#fafafa"/></g></g><g transform="translate(5.246 7.796)"><g transform="translate(0 0.278)"><g transform="translate(0 0)"><rect width="27.229" height="53.493" transform="translate(0 27.229) rotate(-90)" fill="#ececec"/></g></g><g transform="translate(8.52 1.213)"><path d="M560.06,2701.727c.205,0,.37,5.9.37,13.177s-.164,13.18-.37,13.18-.368-5.9-.368-13.18S559.856,2701.727,560.06,2701.727Z" transform="translate(-559.692 -2701.727)" fill="#e1e1e1"/></g><g transform="translate(12.573 0.874)"><path d="M562.431,2701.529c.205,0,.369,5.826.369,13.01s-.164,13.01-.369,13.01-.37-5.824-.37-13.01S562.227,2701.529,562.431,2701.529Z" transform="translate(-562.061 -2701.529)" fill="#e1e1e1"/></g><g transform="translate(47.076)"><path d="M582.6,2701.018c.205,0,.37,6.134.37,13.7s-.164,13.7-.37,13.7-.37-6.133-.37-13.7S582.393,2701.018,582.6,2701.018Z" transform="translate(-582.227 -2701.018)" fill="#e1e1e1"/></g><g transform="translate(42.309 0.368)"><path d="M579.81,2701.233c.205,0,.37,5.976.37,13.347s-.164,13.347-.37,13.347-.37-5.974-.37-13.347S579.607,2701.233,579.81,2701.233Z" transform="translate(-579.441 -2701.233)" fill="#e1e1e1"/></g></g></g><rect width="360.624" height="239.208" transform="translate(107.568)" fill="#e1e1e1"/><g transform="translate(91.801 432.965)"><g transform="translate(16.677 43.221)"><path d="M372.46,2831.916c-1.571-1.346-5.073-5.614-2.371-10.577.991-1.819,3.093-2.719,5-3.521a20.267,20.267,0,0,0,5.48-2.838c2.97-2.528,3.79-6.726,5.762-10.1,2.264-3.872,6.49-6.772,10.955-6.568,5.112.231,9.378,4.407,11.309,9.169s2,10.048,2.041,15.189c.022,2.844-.1,6.048-2.192,7.97-1.925,1.769-4.821,1.791-7.431,1.711l-27.941-.858" transform="translate(-369.096 -2798.303)" fill="#aed3f2"/></g><path d="M432.831,2773.042H359.349l13.236,78.926a8.814,8.814,0,0,0,6.274,7.027c.084.027.173.045.258.07.217.056.429.13.654.169a9.144,9.144,0,0,0,1.494.173l.012.075.359-.056h32.751a9.335,9.335,0,0,0,1.8-.179,8.849,8.849,0,0,0,7.434-7.715L430,2797.15l.289-2.162h-.034l2.527-21.538Zm-13.862,50.345h-7.542l.761-22.906h8.738Zm2.688-22.906h7.22l-2.688,22.906H419.7Zm-21.543,48.3-.458-19.9h10.859l-.662,19.9Zm-11.741-19.9h10.551l.458,19.9H389.92Zm.816,19.9h-8.847c-.84-5.372-1.935-12.355-3.119-19.9h10.42Zm-1.244-25.394-1.779-22.906h12.1l.527,22.906Zm11.583,0L399,2800.481h12.457l-.761,22.906Zm-.654-28.4-.489-21.214h13.96l-.7,21.214Zm-.731,0H385.739l-1.648-21.214h13.564Zm-13.137,0H371.883c-.465-2.931-.905-5.7-1.3-8.2-1.369-8.577-1.884-11.8-2.169-13.015h14.95Zm.428,5.493,1.779,22.906H376.361c-.364-2.324-.736-4.675-1.105-7.027-.85-5.408-1.7-10.813-2.5-15.879Zm-9.812,22.906h-7.092l-3.841-22.906h7.323C373.132,2807.561,374.375,2815.439,375.624,2823.387Zm.862,5.494c1.081,6.886,2.144,13.675,3.117,19.9H372.79l-3.336-19.9Zm34.1,19.9.662-19.9H418.5l-1.7,19.9Zm1.788-53.792.7-21.214h10.132l-1.812,21.214Zm-44.656-21.214c.291,1.533,1.632,9.881,3.429,21.214h-7.376l-3.557-21.214Zm55.495,75.006h-5.68l1.7-19.9h6.313Zm6.312-53.792h-7.395l1.812-21.214h8.07Z" transform="translate(-359.349 -2773.042)" fill="#e1e1e1"/></g><g transform="translate(0 268.628)"><rect width="154.308" height="43.463" rx="2.638" fill="#e1e1e1"/><g transform="translate(15.788 13.625)"><ellipse cx="9.402" cy="9.446" rx="9.402" ry="9.446" fill="#aed3f2"/></g><g transform="translate(19.898 19.858)"><path d="M327.9,2688.605c.14.143-2.123,2.588-5.056,5.461l-1.242,1.2-.255.247-.243-.25c-2.284-2.35-3.9-4.172-3.774-4.293s1.937,1.5,4.276,3.793l-.5,0,1.228-1.217C325.269,2690.673,327.761,2688.461,327.9,2688.605Z" transform="translate(-317.324 -2688.599)" fill="#e1e1e1"/></g><g transform="translate(46.606 18.043)"><path d="M425.445,2687.9c0,.2-20.711.363-46.254.363s-46.257-.163-46.257-.363,20.706-.364,46.257-.364S425.445,2687.7,425.445,2687.9Z" transform="translate(-332.934 -2687.537)" fill="#fafafa"/></g><g transform="translate(47.013 25.913)"><path d="M425.685,2692.5c0,.2-20.713.364-46.254.364s-46.259-.165-46.259-.364,20.706-.365,46.259-.365S425.685,2692.3,425.685,2692.5Z" transform="translate(-333.172 -2692.137)" fill="#fafafa"/></g></g><g transform="translate(43.008 517.085)"><path d="M815.408,2822.939c0,.4-108.485.729-242.277.729-133.839,0-242.3-.327-242.3-.729s108.461-.73,242.3-.73C706.923,2822.208,815.408,2822.534,815.408,2822.939Z" transform="translate(-330.831 -2822.208)" fill="#344154"/></g><g transform="translate(85.585 5.64)"><g transform="translate(0.364 0.363)"><rect width="373.467" height="244.963" fill="#fafafa"/></g><path d="M729.546,2768.609c0-2.358-.113-95.556-.289-244.963l.289.289-373.436.075h-.029l.363-.365c-.01,87.116-.021,170.02-.029,244.963l-.334-.334,373.466.334c-2.991,0-153.722.139-373.466.333h-.335v-.335c-.009-74.943-.019-157.847-.029-244.963v-.363h.394l373.436.073h.291l0,.29C729.659,2673.053,729.549,2766.253,729.546,2768.609Z" transform="translate(-355.716 -2523.283)" fill="#344154"/></g><rect width="245.671" height="18.896" transform="translate(139.731 114.853)" fill="#fff"/><rect width="245.671" height="18.896" transform="translate(139.731 95.957)" fill="#d9a171"/><rect width="245.671" height="18.896" transform="translate(139.731 133.73)" fill="#dbdbdb"/><rect width="245.671" height="18.896" transform="translate(139.731 152.627)" fill="#fff"/><rect width="245.671" height="18.896" transform="translate(139.731 171.523)" fill="#dbdbdb"/><rect width="245.671" height="18.896" transform="translate(139.731 190.4)" fill="#fff"/><rect width="245.671" height="18.896" transform="translate(139.731 209.297)" fill="#dbdbdb"/><rect width="73.655" height="132.236" transform="translate(139.731 95.957)" fill="#c7c7c7"/><path d="M387.363,2598.243l122.835-.229,122.835.229-122.835.248Z" transform="translate(-247.632 -2464.513)" fill="#344154"/><path d="M387.363,2609.288l122.835-.23,122.835.23-122.835.248Z" transform="translate(-247.632 -2456.661)" fill="#344154"/><path d="M387.363,2620.34l122.835-.248,122.835.248-122.835.229Z" transform="translate(-247.632 -2448.817)" fill="#344154"/><path d="M387.363,2631.365l122.835-.229,122.835.229-122.835.248Z" transform="translate(-247.632 -2440.965)" fill="#344154"/><path d="M387.363,2642.409l122.835-.229,122.835.229-122.835.248Z" transform="translate(-247.632 -2433.113)" fill="#344154"/><path d="M395.057,2581.771c7.834-.383,15.686-.421,23.52-.477s15.686,0,23.539.477c-7.853.4-15.686.42-23.539.478S402.891,2582.211,395.057,2581.771Z" transform="translate(-242.162 -2476.413)" fill="#344154"/><path d="M395.057,2592.837c5.923-.4,11.866-.42,17.789-.478s11.864,0,17.806.478c-5.942.4-11.864.421-17.806.479S400.98,2593.238,395.057,2592.837Z" transform="translate(-242.162 -2468.545)" fill="#344154"/><path d="M395.057,2603.882c7.834-.4,15.686-.421,23.52-.478s15.686,0,23.539.478c-7.853.4-15.686.419-23.539.478S402.891,2604.264,395.057,2603.882Z" transform="translate(-242.162 -2460.693)" fill="#344154"/><path d="M395.057,2614.915c6.438-.381,12.9-.421,19.354-.477s12.916,0,19.375.477c-6.459.4-12.916.421-19.375.477S401.5,2615.316,395.057,2614.915Z" transform="translate(-242.162 -2452.849)" fill="#344154"/><path d="M395.057,2625.958c7.834-.4,15.686-.419,23.52-.477s15.686,0,23.539.477c-7.853.4-15.686.421-23.539.478S402.891,2626.361,395.057,2625.958Z" transform="translate(-242.162 -2444.997)" fill="#344154"/><path d="M395.057,2637c7.834-.4,15.686-.421,23.52-.479s15.686,0,23.539.479c-7.853.4-15.686.419-23.539.477S402.891,2637.386,395.057,2637Z" transform="translate(-242.162 -2437.146)" fill="#344154"/><path d="M395.057,2648.03c4.758-.363,9.554-.459,14.273-.477s9.552.114,14.292.477c-4.758.381-9.554.458-14.292.478S399.815,2648.411,395.057,2648.03Z" transform="translate(-242.162 -2429.295)" fill="#344154"/><path d="M440.474,2581.771c5.884-.383,11.789-.421,17.674-.477s11.807,0,17.691.477c-5.884.4-11.788.42-17.691.478S446.4,2582.211,440.474,2581.771Z" transform="translate(-209.873 -2476.413)" fill="#344154"/><path d="M440.474,2592.837c5.884-.4,11.789-.42,17.674-.478s11.807,0,17.691.478c-5.884.4-11.788.421-17.691.479S446.4,2593.238,440.474,2592.837Z" transform="translate(-209.873 -2468.545)" fill="#344154"/><path d="M440.474,2603.882c5.884-.4,11.789-.421,17.674-.478s11.807,0,17.691.478c-5.884.4-11.788.419-17.691.478S446.4,2604.264,440.474,2603.882Z" transform="translate(-209.873 -2460.693)" fill="#344154"/><path d="M440.474,2614.915c5.884-.381,11.789-.421,17.674-.477s11.807,0,17.691.477c-5.884.4-11.788.421-17.691.477S446.4,2615.316,440.474,2614.915Z" transform="translate(-209.873 -2452.849)" fill="#344154"/><path d="M440.474,2625.958c5.884-.4,11.789-.419,17.674-.477s11.807,0,17.691.477c-5.884.4-11.788.421-17.691.478S446.4,2626.361,440.474,2625.958Z" transform="translate(-209.873 -2444.997)" fill="#344154"/><path d="M440.474,2637c5.884-.4,11.789-.421,17.674-.479s11.807,0,17.691.479c-5.884.4-11.788.419-17.691.477S446.4,2637.386,440.474,2637Z" transform="translate(-209.873 -2437.146)" fill="#344154"/><path d="M440.474,2648.037c5.884-.384,11.789-.421,17.674-.477s11.807,0,17.691.477c-5.884.4-11.788.419-17.691.478S446.4,2648.437,440.474,2648.037Z" transform="translate(-209.873 -2429.302)" fill="#344154"/><path d="M470.346,2581.771c5.9-.383,11.788-.421,17.693-.477s11.788,0,17.674.477c-5.886.4-11.79.42-17.674.478S476.25,2582.211,470.346,2581.771Z" transform="translate(-188.635 -2476.413)" fill="#344154"/><path d="M477.437,2637a33.541,33.541,0,0,1,11.292,0A33.668,33.668,0,0,1,477.437,2637Z" transform="translate(-183.594 -2437.138)" fill="#344154"/><path d="M477.437,2625.952a31.389,31.389,0,0,1,5.732-.477,29.63,29.63,0,0,1,5.638.477,33.629,33.629,0,0,1-11.292,0Z" transform="translate(-183.594 -2444.99)" fill="#344154"/><path d="M477.437,2614.907a33.6,33.6,0,0,1,11.292,0A33.629,33.629,0,0,1,477.437,2614.907Z" transform="translate(-183.594 -2452.842)" fill="#344154"/><path d="M477.437,2603.875a33.541,33.541,0,0,1,11.292,0A33.617,33.617,0,0,1,477.437,2603.875Z" transform="translate(-183.594 -2460.686)" fill="#344154"/><path d="M477.437,2592.83a31.476,31.476,0,0,1,5.732-.477,29.63,29.63,0,0,1,5.638.477,29.493,29.493,0,0,1-5.638.479A31.455,31.455,0,0,1,477.437,2592.83Z" transform="translate(-183.594 -2468.539)" fill="#344154"/><path d="M500.218,2581.771c5.9-.383,11.788-.421,17.693-.477s11.789,0,17.674.477c-5.886.4-11.788.42-17.674.478S506.122,2582.211,500.218,2581.771Z" transform="translate(-167.398 -2476.413)" fill="#344154"/><path d="M500.218,2592.837c5.9-.4,11.788-.42,17.693-.478s11.789,0,17.674.478c-5.886.4-11.788.421-17.674.479S506.122,2593.238,500.218,2592.837Z" transform="translate(-167.398 -2468.545)" fill="#344154"/><path d="M500.218,2603.882c5.9-.4,11.788-.421,17.693-.478s11.789,0,17.674.478c-5.886.4-11.788.419-17.674.478S506.122,2604.264,500.218,2603.882Z" transform="translate(-167.398 -2460.693)" fill="#344154"/><path d="M500.218,2614.915c5.9-.381,11.788-.421,17.693-.477s11.789,0,17.674.477c-5.886.4-11.788.421-17.674.477S506.122,2615.316,500.218,2614.915Z" transform="translate(-167.398 -2452.849)" fill="#344154"/><path d="M500.218,2625.958c5.9-.4,11.788-.419,17.693-.477s11.789,0,17.674.477c-5.886.4-11.788.421-17.674.478S506.122,2626.361,500.218,2625.958Z" transform="translate(-167.398 -2444.997)" fill="#344154"/><path d="M500.218,2637c5.9-.4,11.788-.421,17.693-.479s11.789,0,17.674.479c-5.886.4-11.788.419-17.674.477S506.122,2637.386,500.218,2637Z" transform="translate(-167.398 -2437.146)" fill="#344154"/><path d="M500.218,2648.037c5.9-.384,11.788-.421,17.693-.477s11.789,0,17.674.477c-5.886.4-11.788.419-17.674.478S506.122,2648.437,500.218,2648.037Z" transform="translate(-167.398 -2429.302)" fill="#344154"/><path d="M387.363,2556.915c6.782-.306,13.546-.44,20.329-.554s13.564,0,20.348-.153,13.546,0,20.329.153,13.546.248,20.33.554c-6.784.306-13.547.44-20.33.554s-13.566,0-20.329.153-13.566,0-20.348-.153S394.145,2557.2,387.363,2556.915Z" transform="translate(-247.632 -2494.28)" fill="#344154"/><path d="M387.363,2561.615c4.241-.285,8.5-.439,12.743-.554s8.5,0,12.764-.152,8.5,0,12.745.152,8.5.269,12.762.554c-4.26.306-8.5.44-12.762.555s-8.5.114-12.745.173-8.5,0-12.764-.173S391.6,2561.9,387.363,2561.615Z" transform="translate(-247.632 -2490.937)" fill="#344154"/><path d="M387.363,2566.3c5.923-.288,11.826-.421,17.749-.535s11.828-.115,17.749-.173,11.847,0,17.751.173,11.845.248,17.749.535c-5.9.3-11.826.438-17.749.553s-11.828.114-17.751.172-11.826,0-17.749-.172S393.286,2566.605,387.363,2566.3Z" transform="translate(-247.632 -2487.577)" fill="#344154"/><g transform="translate(151.391 201.296)"><g transform="translate(70.066 94.151)"><g transform="translate(28.515 54.464)"><rect width="83.243" height="4.049" fill="#344154"/></g><path d="M450.743,2751.179l-15.614-58.513h65l14.139,58.513Z" transform="translate(-435.129 -2692.667)" fill="#344154"/><g transform="translate(3.66 2.704)"><path d="M508.85,2745.626H450.784l-13.516-51.379h58.365Z" transform="translate(-437.269 -2694.247)" fill="#aed3f2"/></g><g transform="translate(3.661 2.704)"><path d="M438.241,2697.939h58.374l-.982-3.692H437.269Z" transform="translate(-437.269 -2694.247)" fill="#ececec"/></g><g transform="translate(6.544 3.912)"><g transform="translate(4.392)"><path d="M441.521,2695.591a.637.637,0,1,0,.638-.638A.638.638,0,0,0,441.521,2695.591Z" transform="translate(-441.521 -2694.953)" fill="#fafafa"/></g><g transform="translate(2.195)"><path d="M440.237,2695.591a.638.638,0,1,0,.638-.638A.638.638,0,0,0,440.237,2695.591Z" transform="translate(-440.237 -2694.953)" fill="#fafafa"/></g><path d="M438.954,2695.591a.637.637,0,1,0,.636-.638A.638.638,0,0,0,438.954,2695.591Z" transform="translate(-438.954 -2694.953)" fill="#fafafa"/></g><g transform="translate(16.631 15.804)"><g transform="translate(21.551 3.784)"><path d="M467.763,2713.438l6.392,7.312a9.036,9.036,0,0,0,3.927-7.353c-.021-5.114-4.695-9.3-10.355-9.282s-10.3,4.248-10.281,9.364Z" transform="translate(-457.446 -2704.115)" fill="#d9a171"/></g><g transform="translate(20.685 14.115)"><path d="M467.312,2710.315a14.88,14.88,0,0,1,1.824,1.829c1.141,1.225,2.773,3.013,4.726,5.2l.221.246-.274.207a11.062,11.062,0,0,1-10.777,1.057,10.561,10.561,0,0,1-4.435-3.565,9.108,9.108,0,0,1-1.644-4.8l-.012-.325.32,0c3.059-.015,5.591,0,7.347.026a15.71,15.71,0,0,1,2.705.13,18.6,18.6,0,0,1-2.813.217c-1.761.082-4.252.173-7.229.252l.306-.327a8.6,8.6,0,0,0,1.593,4.426,10.007,10.007,0,0,0,4.151,3.3,10.6,10.6,0,0,0,10.132-.893l-.055.454c-1.851-2.168-3.377-3.993-4.443-5.3A17.535,17.535,0,0,1,467.312,2710.315Z" transform="translate(-456.94 -2710.153)" fill="#344154"/></g><g transform="translate(26.882 7.008)"><path d="M460.562,2706.579a.578.578,0,1,0,.577-.58A.579.579,0,0,0,460.562,2706.579Z" transform="translate(-460.562 -2705.999)" fill="#344154"/></g><g transform="translate(15.383 3.009)"><path d="M453.841,2704.054c0-.2,3.092-.376,6.905-.392h1.073l.1.1c2.385,2.4,4.125,4.343,4,4.472s-2.084-1.593-4.5-3.96l.255.1-.92.009C456.934,2704.4,453.841,2704.254,453.841,2704.054Z" transform="translate(-453.841 -2703.662)" fill="#344154"/></g><path d="M447.161,2712.622a21.248,21.248,0,0,1-.662-2.7c-.39-1.775-.944-4.366-1.581-7.541l-.068-.348.359,0,14.446-.125c-.077-.066.681.56.361.3v0l0,0,0,.011.005.022.007.043.017.088.033.171.065.345.13.685c.086.454.171.907.255,1.355q.251,1.342.493,2.639c.318,1.721.623,3.371.91,4.931l.072.392h-.4c-4.339-.012-7.99-.063-10.526-.115-1.162-.032-2.134-.058-2.931-.078a4.13,4.13,0,0,1-.992-.08,6.753,6.753,0,0,1,1.117-.088l3-.1c2.551-.072,6.123-.152,10.332-.2l-.322.391c-.3-1.557-.624-3.2-.958-4.922l-.506-2.636c-.086-.448-.173-.9-.258-1.355l-.132-.684-.065-.344-.033-.173-.015-.088-.009-.042-.005-.022,0-.01v-.006l0,0c-.32-.266.436.359.358.294l-14.447-.01.291-.351c.548,3.069.968,5.623,1.258,7.435A28.158,28.158,0,0,1,447.161,2712.622Z" transform="translate(-444.85 -2701.903)" fill="#344154"/><g transform="translate(16.107 18.64)"><g transform="translate(9.917)"><path d="M460.06,2713.378a.578.578,0,1,0,.575-.58A.577.577,0,0,0,460.06,2713.378Z" transform="translate(-460.06 -2712.798)" fill="#344154"/></g><g transform="translate(0 0.235)"><path d="M454.264,2713.319c0-.2,2.347-.373,5.246-.383s5.248.142,5.249.342-2.347.373-5.248.385S454.264,2713.521,454.264,2713.319Z" transform="translate(-454.264 -2712.936)" fill="#344154"/></g></g><g transform="translate(0.067 15.777)"><path d="M447.185,2719.166a12.192,12.192,0,0,1-.635-1.929c-.381-1.289-.927-3.189-1.571-5.561l-.091-.335.354-.007c3.933-.072,9.167-.126,14.9-.149-.315-.244.433.334.356.274v0l0,0,0,.007,0,.017.009.031.015.062.033.125.063.25.128.5.252.984q.246.978.489,1.928c.318,1.263.628,2.486.922,3.658l.108.428h-.438c-4.418-.009-8.184-.06-10.813-.113l-3.047-.083a4.024,4.024,0,0,1-1.039-.089,6.778,6.778,0,0,1,1.167-.1l3.112-.108c2.643-.073,6.325-.154,10.618-.2l-.33.428c-.3-1.17-.624-2.39-.953-3.651q-.246-.95-.5-1.927l-.253-.982-.126-.5-.065-.249-.032-.125-.015-.062-.009-.033,0-.015,0-.008,0,0v0c-.077-.06.669.517.352.272-5.73.024-10.964.011-14.9-.031l.263-.343c.553,2.286.975,4.165,1.266,5.492A16.806,16.806,0,0,1,447.185,2719.166Z" transform="translate(-444.889 -2711.125)" fill="#344154"/></g><g transform="translate(3.456 3.197)"><path d="M446.87,2704.156c0-.2,2.212-.373,4.941-.384s4.943.144,4.943.344-2.211.373-4.941.384S446.87,2704.355,446.87,2704.156Z" transform="translate(-446.87 -2703.771)" fill="#344154"/></g><g transform="translate(3.578 4.815)"><path d="M446.941,2705.1c0-.2,2.224-.373,4.97-.383s4.972.142,4.972.343-2.224.373-4.97.383S446.943,2705.3,446.941,2705.1Z" transform="translate(-446.941 -2704.718)" fill="#344154"/></g><g transform="translate(3.874 6.376)"><path d="M447.114,2706.011c0-.2,2.147-.371,4.8-.382s4.8.144,4.8.344-2.146.373-4.8.383S447.114,2706.213,447.114,2706.011Z" transform="translate(-447.114 -2705.629)" fill="#344154"/></g><g transform="translate(3.749 18.746)"><path d="M447.041,2713.243c0-.2,2.108-.373,4.709-.383s4.712.144,4.714.346-2.108.371-4.71.381S447.041,2713.443,447.041,2713.243Z" transform="translate(-447.041 -2712.86)" fill="#344154"/></g><g transform="translate(4.334 20.539)"><path d="M447.383,2714.288c0-.2,1.8-.371,4.016-.38s4.019.147,4.019.348-1.8.371-4.016.38S447.383,2714.488,447.383,2714.288Z" transform="translate(-447.383 -2713.907)" fill="#344154"/></g></g></g><g transform="translate(0 152.471)"><path d="M394.178,2726.752v7.675H399.2v155.365h10.311V2734.427h54.724v155.365h10.311V2734.427h237.4v155.327h10.311V2734.427h4.463v-7.675Z" transform="translate(-394.178 -2726.752)" fill="#344154"/></g><g transform="translate(223.575 210.082)"><path d="M524.851,2760.705a79.794,79.794,0,0,0,13.41,0,80.278,80.278,0,0,0-13.41,0Z" transform="translate(-524.851 -2760.425)" fill="#344154"/></g><g transform="translate(125.552 211.591)"><ellipse cx="0.364" cy="0.178" rx="0.364" ry="0.178" fill="#5e6178"/></g><g transform="translate(101.958)"><g transform="translate(31.116 14.315)"><path d="M530.5,2705.349l-38.513-39.127-.833-4.237c-.159-.775-.322-1.639-.47-2.623a10.406,10.406,0,0,1,.06-3.448,15.649,15.649,0,0,1,1.187-4.1c.648-1.133-.39-2.5-1.463-2.031s-2.934,3.545-3.336,7.771-4.009-1.381-5.357-3.4-5.81-8.071-6.741-8.143c-1.364-.106-1.711,1.372-.318,3.357,1.41,2.01,5.165,8.238,4.1,8.907l-.041-.007a5.038,5.038,0,0,0-5.319,2.639c-.972,1.866-2.055,4.515-1.167,5.735a69.277,69.277,0,0,0,6.141,6.5l1.288,1.109s33.321,48.279,40.582,49.848c4.517.975,74.341,6.767,74.341,6.767l5.268-19.236Z" transform="translate(-471.955 -2646.005)" fill="#b78876"/><g transform="translate(0.026 17.116)"><g transform="translate(0.005 0.004)"><path d="M471.974,2658.716l3.562,3.422a4.25,4.25,0,0,0,1.341.985,1.279,1.279,0,0,0,1.767-1.682,4.211,4.211,0,0,0-.819-1.267q-1.732-2.082-3.463-4.163" transform="translate(-471.974 -2656.011)" fill="#b78876"/></g><path d="M474.365,2656.012c.077-.062.746.6,1.764,1.719.571.647,1.155,1.309,1.762,1.995a6.637,6.637,0,0,1,.982,1.33,1.889,1.889,0,0,1-.1,1.98,1.744,1.744,0,0,1-1.949.447,3.931,3.931,0,0,1-1.4-.982l-1.865-1.9a8.291,8.291,0,0,1-1.589-1.884,8.5,8.5,0,0,1,1.945,1.512c.638.579,1.292,1.17,1.971,1.785a3.463,3.463,0,0,0,1.165.793,1.059,1.059,0,0,0,1.146-.223,1.2,1.2,0,0,0,.024-1.222,6.441,6.441,0,0,0-.854-1.207c-.565-.722-1.109-1.417-1.641-2.094A8.353,8.353,0,0,1,474.365,2656.012Z" transform="translate(-471.971 -2656.008)" fill="#aa6550"/></g><g transform="translate(2.555 14.626)"><g transform="translate(0.005 0.004)"><path d="M473.452,2657.261q1.781,1.709,3.562,3.422a4.225,4.225,0,0,0,1.341.984,1.278,1.278,0,0,0,1.766-1.681,4.151,4.151,0,0,0-.82-1.268q-1.73-2.081-3.461-4.161" transform="translate(-473.452 -2654.556)" fill="#b78876"/></g><path d="M475.843,2654.558c.077-.065.746.6,1.764,1.72l1.76,1.993a6.579,6.579,0,0,1,.984,1.331,1.886,1.886,0,0,1-.1,1.978,1.748,1.748,0,0,1-1.949.448,3.929,3.929,0,0,1-1.4-.984c-.642-.653-1.263-1.283-1.867-1.9a8.391,8.391,0,0,1-1.588-1.882,8.356,8.356,0,0,1,1.945,1.51c.638.579,1.292,1.171,1.971,1.785a3.446,3.446,0,0,0,1.165.794,1.058,1.058,0,0,0,1.146-.223,1.206,1.206,0,0,0,.024-1.223,6.454,6.454,0,0,0-.854-1.206l-1.641-2.094A8.4,8.4,0,0,1,475.843,2654.558Z" transform="translate(-473.449 -2654.553)" fill="#aa6550"/></g><g transform="translate(5.329 12.585)"><g transform="translate(0.005 0.005)"><path d="M475.073,2656.068q1.781,1.709,3.562,3.422a4.24,4.24,0,0,0,1.343.984,1.278,1.278,0,0,0,1.766-1.682,4.22,4.22,0,0,0-.819-1.268q-1.732-2.082-3.463-4.161" transform="translate(-475.073 -2653.363)" fill="#b78876"/></g><path d="M477.464,2653.365c.077-.065.746.6,1.766,1.72l1.761,1.993a6.512,6.512,0,0,1,.982,1.331,1.883,1.883,0,0,1-.1,1.978,1.747,1.747,0,0,1-1.949.448,3.944,3.944,0,0,1-1.4-.984l-1.865-1.9a8.438,8.438,0,0,1-1.59-1.882,8.3,8.3,0,0,1,1.945,1.51c.638.579,1.294,1.17,1.971,1.785a3.464,3.464,0,0,0,1.165.794,1.061,1.061,0,0,0,1.148-.222,1.214,1.214,0,0,0,.024-1.224,6.645,6.645,0,0,0-.854-1.206l-1.641-2.094A8.394,8.394,0,0,1,477.464,2653.365Z" transform="translate(-475.07 -2653.36)" fill="#aa6550"/></g><g transform="translate(10.966 15.405)"><path d="M478.365,2660.818c-.01-.117.883-.294,2.169.1l-.411.351a6.079,6.079,0,0,1-.091-2.447,6.213,6.213,0,0,1,1.335-2.977c.549-.642,1.013-.895,1.069-.827.154.139-1.329,1.569-1.685,3.92a7.276,7.276,0,0,0-.022,2.209l.075.558-.486-.207C479.205,2661.023,478.358,2660.96,478.365,2660.818Z" transform="translate(-478.365 -2655.008)" fill="#aa6550"/></g></g><g transform="translate(99.239)"><g transform="translate(6.053 8.404)"><path d="M550.125,2649.147l.164,53.6-20.9,1-.845-12.846s-10.083,1.531-12.189-6.053c-1.347-4.845-1.01-42.291-1.01-42.291Z" transform="translate(-515.309 -2642.55)" fill="#b78876"/></g><path d="M512.669,2651.327c1.548,3.2,8.924,9.064,8.924,9.064l3.331,8.928c2.895-2.265,6.781-2.135,7.516,2.949.53,3.676-4.038,4.418-4.038,4.418,2.659,4.527,4.464,8.189,8.336,12.493,4.192,4.661,6.541,5.129,11.087,5.206h5.011s10.259-8.572,8.231-31.146-22.323-15.989-27.168-21.63C526.011,2632.425,507.5,2640.637,512.669,2651.327Z" transform="translate(-511.771 -2637.637)" fill="#344154"/><g transform="translate(1.098 8.622)"><path d="M559.471,2678.533a7.214,7.214,0,0,1-2.479-.113,12.9,12.9,0,0,1-5.988-3.081,32.522,32.522,0,0,1-6.053-8.006c-1.952-3.189-4.086-6.912-7.68-9.393-3.636-2.431-7.908-2.928-11.578-3.677-3.7-.7-7.063-1.755-9.349-3.559a10.033,10.033,0,0,1-3.745-5.549,5.742,5.742,0,0,1-.1-2.479,8.546,8.546,0,0,0,.212,2.453,10.055,10.055,0,0,0,3.761,5.412c2.262,1.75,5.578,2.779,9.275,3.458,3.66.738,7.971,1.218,11.691,3.7,3.668,2.536,5.8,6.3,7.746,9.5a32.886,32.886,0,0,0,5.959,7.987,13.027,13.027,0,0,0,5.875,3.126,10.374,10.374,0,0,0,1.817.216C559.25,2678.519,559.471,2678.533,559.471,2678.533Z" transform="translate(-512.413 -2642.677)" fill="#5e6178"/></g><g transform="translate(1.363 5.636)"><path d="M560.545,2661.413s-.373-.11-1.08-.329a16.3,16.3,0,0,0-3.146-.7,7.046,7.046,0,0,0-4.84,1.083,3.979,3.979,0,0,0-1.684,2.54,3.535,3.535,0,0,0,.975,3.2,2.7,2.7,0,0,0,1.691.67,3.558,3.558,0,0,0,1.86-.508,5.715,5.715,0,0,0,2.527-3.225,8,8,0,0,0-6.743-10.492,14.033,14.033,0,0,0-5.194.683,36.44,36.44,0,0,1-5.376,1.291,21.852,21.852,0,0,1-5.7.016,18.863,18.863,0,0,1-5.5-1.525,6.645,6.645,0,0,1-3.762-3.967,5.182,5.182,0,0,1,1.278-5.063,4.464,4.464,0,0,1,4.909-.724,3.75,3.75,0,0,1,1.82,1.713,4.1,4.1,0,0,1,.385,2.4,5.465,5.465,0,0,1-2.445,3.831,7.86,7.86,0,0,1-4.128,1.148,12.2,12.2,0,0,1-3.916-.6,14.043,14.043,0,0,1-5.754-3.549,14.705,14.705,0,0,1-2.938-4.191,14.867,14.867,0,0,1-1.04-3.068c-.125-.732-.174-1.117-.174-1.117s.089.38.231,1.1a15.69,15.69,0,0,0,1.086,3.034,14.777,14.777,0,0,0,2.95,4.125,13.91,13.91,0,0,0,5.7,3.466,11.961,11.961,0,0,0,3.85.575,7.614,7.614,0,0,0,4-1.127,5.219,5.219,0,0,0,2.323-3.66,3.593,3.593,0,0,0-2.063-3.841,4.2,4.2,0,0,0-4.606.682,4.907,4.907,0,0,0-1.2,4.783,6.368,6.368,0,0,0,3.614,3.785,18.651,18.651,0,0,0,5.41,1.5,21.626,21.626,0,0,0,5.626-.014,36.648,36.648,0,0,0,5.34-1.278,14.225,14.225,0,0,1,5.3-.684,8.254,8.254,0,0,1,6.943,10.842,5.94,5.94,0,0,1-2.645,3.345,3.772,3.772,0,0,1-1.979.528,2.906,2.906,0,0,1-1.819-.732,3.724,3.724,0,0,1-1.02-3.384,4.141,4.141,0,0,1,1.771-2.642,7.155,7.155,0,0,1,4.946-1.062,15.272,15.272,0,0,1,3.151.756C560.184,2661.265,560.545,2661.413,560.545,2661.413Z" transform="translate(-512.568 -2640.932)" fill="#5e6178"/></g></g><g transform="translate(113.856 280.762)"><path d="M528.474,2823.4l-6.83-8.764,16.334-12.9,10.129,12.716-.962.866c-4.31,3.808-22.182,19.066-25.916,20.533C517.064,2837.485,528.474,2823.4,528.474,2823.4Z" transform="translate(-520.315 -2801.735)" fill="#d9a171"/><g transform="translate(0.008 12.372)" opacity="0.4"><path d="M523.087,2825.382s-3.756,5.244-2.517,5.566,19.881-14.417,27.534-21.638l-.315-.344-21.6,17.378S524.069,2824.671,523.087,2825.382Z" transform="translate(-520.32 -2808.966)" fill="#fff"/></g><g transform="translate(0.037 12.158)"><path d="M548.027,2808.841a2.086,2.086,0,0,1-.257.253l-.768.686-2.866,2.474c-2.436,2.073-5.838,4.89-9.662,7.92s-7.35,5.694-9.923,7.59l-3.066,2.224-.843.59a1.948,1.948,0,0,1-.3.192,1.9,1.9,0,0,1,.274-.233l.816-.63,3.016-2.286c2.546-1.932,6.05-4.62,9.874-7.646s7.241-5.823,9.7-7.859q1.724-1.427,2.917-2.412l.8-.65A2.064,2.064,0,0,1,548.027,2808.841Z" transform="translate(-520.337 -2808.841)" fill="#344154"/></g><g transform="translate(2.501 28.558)"><path d="M525.362,2819.868a5.49,5.49,0,0,0-3.585-1.314,3.366,3.366,0,0,1,3.585,1.314Z" transform="translate(-521.777 -2818.426)" fill="#344154"/></g><g transform="translate(7.033 23.049)"><path d="M526.363,2815.9a2.185,2.185,0,0,1-1.009-.219c-.536-.187-.949-.391-.927-.457a2.192,2.192,0,0,1,1.011.218C525.971,2815.633,526.387,2815.838,526.363,2815.9Z" transform="translate(-524.426 -2815.207)" fill="#344154"/></g><g transform="translate(7.998 21.81)"><path d="M526.732,2814.675c-.005.068-.4.1-.879.07s-.867-.111-.862-.179.4-.1.878-.072S526.735,2814.6,526.732,2814.675Z" transform="translate(-524.99 -2814.482)" fill="#344154"/></g><g transform="translate(7.663 19.794)"><path d="M526.488,2813.311c.044.055-.3.4-.765.781s-.881.64-.925.585.3-.4.767-.782S526.445,2813.256,526.488,2813.311Z" transform="translate(-524.794 -2813.303)" fill="#344154"/></g><g transform="translate(6.966 18.484)"><path d="M526.206,2812.541a3.062,3.062,0,0,1-1.817,1.674c-.036-.064.421-.373.914-.83S526.144,2812.5,526.206,2812.541Z" transform="translate(-524.387 -2812.538)" fill="#344154"/></g><g transform="translate(3.369 22.403)"><path d="M526.205,2815.186a3.859,3.859,0,0,1-1.054.823,7.974,7.974,0,0,1-1.311.637,3.971,3.971,0,0,1-.849.242.722.722,0,0,1-.517-.122.524.524,0,0,1-.173-.543,2.451,2.451,0,0,1,2.825-1.319,2.384,2.384,0,0,1,.895.429c.185.146.262.251.252.262a3.726,3.726,0,0,0-1.186-.517,2.388,2.388,0,0,0-1.357.126,2.067,2.067,0,0,0-1.182,1.073c-.07.255.151.4.423.364a3.994,3.994,0,0,0,.789-.215,9.052,9.052,0,0,0,1.3-.573C525.779,2815.468,526.181,2815.154,526.205,2815.186Z" transform="translate(-522.284 -2814.829)" fill="#344154"/></g><g transform="translate(6.043 20.114)"><path d="M524.865,2816.4c-.007.022-.373-.123-.7-.633a2.2,2.2,0,0,1-.32-.992,1.346,1.346,0,0,1,.452-1.227.533.533,0,0,1,.707.229,1.456,1.456,0,0,1,.192.61,4.05,4.05,0,0,1,.007,1.026,1.934,1.934,0,0,1-.265.9c-.038-.01.06-.354.087-.914a4.76,4.76,0,0,0-.058-.976c-.033-.337-.248-.813-.549-.652a1.2,1.2,0,0,0-.339.992,2.2,2.2,0,0,0,.243.916A4.738,4.738,0,0,0,524.865,2816.4Z" transform="translate(-523.847 -2813.491)" fill="#344154"/></g><g transform="translate(20.509 7.954)"><path d="M535.654,2806.385c.026.04-.5.325-1.172.994a6.522,6.522,0,0,0-1.581,6.791c.3.9.652,1.386.611,1.411a1.277,1.277,0,0,1-.26-.331,5.382,5.382,0,0,1-.518-1.021,6.328,6.328,0,0,1,1.625-6.979,5.592,5.592,0,0,1,.915-.687A1.177,1.177,0,0,1,535.654,2806.385Z" transform="translate(-532.302 -2806.384)" fill="#344154"/></g><g transform="translate(16.794 2.497)"><path d="M530.133,2803.2a72.485,72.485,0,0,1,5.391,6.643,72.336,72.336,0,0,1-5.391-6.643Z" transform="translate(-530.131 -2803.195)" fill="#344154"/></g><g transform="translate(13.719 17.295)"><path d="M533.07,2811.846a17.069,17.069,0,0,1-4.736,3.817c-.039-.061,1.078-.838,2.382-1.892S533.019,2811.793,533.07,2811.846Z" transform="translate(-528.333 -2811.844)" fill="#344154"/></g><g transform="translate(21.543 14.762)"><path d="M533.015,2810.363c.072.009.091.3.176.626s.2.6.137.635-.287-.19-.382-.574S532.949,2810.351,533.015,2810.363Z" transform="translate(-532.906 -2810.363)" fill="#344154"/></g><g transform="translate(21.471 12.308)"><path d="M533.064,2808.929c.07.007.1.26.065.565s-.116.545-.187.539-.1-.26-.065-.566S533,2808.921,533.064,2808.929Z" transform="translate(-532.864 -2808.929)" fill="#344154"/></g><g transform="translate(22.122 10.239)"><path d="M533.977,2807.737c.033.066-.186.234-.359.51s-.245.537-.317.534-.115-.335.1-.672S533.953,2807.674,533.977,2807.737Z" transform="translate(-533.245 -2807.719)" fill="#344154"/></g><g transform="translate(23.454 8.956)"><path d="M534.4,2806.977c.06.034.032.193-.062.352s-.219.26-.279.226-.032-.193.062-.354S534.336,2806.941,534.4,2806.977Z" transform="translate(-534.023 -2806.97)" fill="#344154"/></g><g transform="translate(5.44 6.399)" opacity="0.3"><path d="M541.548,2806.611l-16.525,12.625-1.529-1.986,17.366-11.775Z" transform="translate(-523.494 -2805.475)"/></g></g><g transform="translate(32.784 300.037)"><g transform="translate(0.061)"><path d="M487.02,2824.189l.031-11.111,20.814-.076.128,16.257-1.29.087c-5.744.339-29.221,1.323-33.066.173C469.349,2828.235,487.02,2824.189,487.02,2824.189Z" transform="translate(-472.966 -2813.001)" fill="#d9a171"/></g><g transform="translate(0 13.474)" opacity="0.4"><path d="M478.411,2820.875s-6.19,1.81-5.413,2.829,24.54.917,35.02-.045l-.036-.465-27.717.354S479.625,2820.922,478.411,2820.875Z" transform="translate(-472.931 -2820.875)" fill="#fff"/></g><g transform="translate(0.059 15.768)"><path d="M508.284,2822.226a1.647,1.647,0,0,1-.358.041l-1.026.066-3.783.18c-3.194.129-7.61.246-12.49.272s-9.3-.052-12.493-.147q-2.238-.085-3.783-.142l-1.028-.054a1.82,1.82,0,0,1-.358-.038,1.9,1.9,0,0,1,.359-.014l1.03.009,3.783.062c3.2.05,7.612.1,12.488.074s9.29-.117,12.487-.2c1.492-.037,2.755-.072,3.783-.1.383-.009.72-.014,1.03-.019A2.35,2.35,0,0,1,508.284,2822.226Z" transform="translate(-472.965 -2822.217)" fill="#344154"/></g><g transform="translate(5.329 13.217)"><path d="M478.057,2823.978a5.506,5.506,0,0,0-2.01-3.246,3.37,3.37,0,0,1,2.01,3.246Z" transform="translate(-476.045 -2820.726)" fill="#344154"/></g><g transform="translate(12.351 11.597)"><path d="M481.266,2821.51c-.058.038-.354-.32-.659-.8s-.506-.895-.448-.932.354.318.66.8S481.326,2821.472,481.266,2821.51Z" transform="translate(-480.149 -2819.779)" fill="#344154"/></g><g transform="translate(13.84 11.26)"><path d="M482.329,2820.752c-.046.051-.376-.166-.736-.488s-.614-.623-.568-.674.376.166.736.486S482.375,2820.7,482.329,2820.752Z" transform="translate(-481.02 -2819.582)" fill="#344154"/></g><g transform="translate(14.032 10.35)"><path d="M483.307,2819.161a4.774,4.774,0,1,1-1.09-.109A2.438,2.438,0,0,1,483.307,2819.161Z" transform="translate(-481.132 -2819.05)" fill="#344154"/></g><g transform="translate(14.104 9.053)"><path d="M483.636,2818.312a3.065,3.065,0,0,1-2.462.2,95.634,95.634,0,0,0,2.462-.2Z" transform="translate(-481.174 -2818.292)" fill="#344154"/></g><g transform="translate(8.828 9.655)"><path d="M482.017,2820.5a3.811,3.811,0,0,1-1.338,0,7.9,7.9,0,0,1-1.425-.308,3.9,3.9,0,0,1-.816-.334.709.709,0,0,1-.332-.414.526.526,0,0,1,.2-.536,2.453,2.453,0,0,1,3.035.7,2.4,2.4,0,0,1,.441.892.783.783,0,0,1,.036.361,3.774,3.774,0,0,0-.614-1.138,2.424,2.424,0,0,0-1.146-.739,2.075,2.075,0,0,0-1.593.117c-.212.158-.128.407.108.547a3.972,3.972,0,0,0,.754.316,9.183,9.183,0,0,0,1.379.354C481.507,2820.465,482.017,2820.463,482.017,2820.5Z" transform="translate(-478.09 -2818.644)" fill="#344154"/></g><g transform="translate(12.238 8.988)"><path d="M480.254,2820.849a1.318,1.318,0,0,1-.159-.929,2.225,2.225,0,0,1,.361-.978,1.347,1.347,0,0,1,1.11-.687.533.533,0,0,1,.416.616,1.491,1.491,0,0,1-.224.6,4.052,4.052,0,0,1-.63.811,1.942,1.942,0,0,1-.763.546c-.022-.033.267-.241.633-.667a4.64,4.64,0,0,0,.556-.8c.183-.283.306-.792-.029-.85-.335-.03-.676.3-.879.572a2.212,2.212,0,0,0-.375.871A4.88,4.88,0,0,0,480.254,2820.849Z" transform="translate(-480.083 -2818.254)" fill="#344154"/></g><g transform="translate(27.555 9.95)"><path d="M496.41,2818.951c-.005.048-.6-.055-1.537.062a6.517,6.517,0,0,0-5.434,4.368c-.315.894-.342,1.494-.388,1.487a1.2,1.2,0,0,1,0-.42,5.543,5.543,0,0,1,.222-1.124,6.326,6.326,0,0,1,5.585-4.49,5.463,5.463,0,0,1,1.145.024A1.222,1.222,0,0,1,496.41,2818.951Z" transform="translate(-489.036 -2818.816)" fill="#344154"/></g><g transform="translate(32.663 1.432)"><path d="M492.093,2813.838a72.834,72.834,0,0,1,.146,8.553,36.011,36.011,0,0,1-.2-4.273A36.993,36.993,0,0,1,492.093,2813.838Z" transform="translate(-492.021 -2813.838)" fill="#344154"/></g><g transform="translate(18.83 14.079)"><path d="M490.018,2821.254a17.088,17.088,0,0,1-6.082.084c.007-.073,1.365,0,3.04-.022S490.01,2821.181,490.018,2821.254Z" transform="translate(-483.936 -2821.23)" fill="#344154"/></g><g transform="translate(28.4 14.071)"><path d="M490.12,2821.233c.051.052-.11.29-.248.6s-.212.59-.284.585-.108-.329.055-.688S490.076,2821.183,490.12,2821.233Z" transform="translate(-489.53 -2821.225)" fill="#344154"/></g><g transform="translate(29.734 12.15)"><path d="M491.1,2820.112c.05.048-.084.265-.3.485s-.428.357-.477.309.084-.267.3-.486S491.046,2820.064,491.1,2820.112Z" transform="translate(-490.309 -2820.102)" fill="#344154"/></g><g transform="translate(31.53 11.158)"><path d="M492.545,2819.639c-.014.072-.291.07-.6.18s-.525.272-.58.226.118-.335.5-.466S492.565,2819.576,492.545,2819.639Z" transform="translate(-491.359 -2819.522)" fill="#344154"/></g><g transform="translate(33.653 10.81)"><path d="M493.226,2819.366c.026.063-.092.171-.265.24s-.334.07-.358,0,.092-.172.265-.239S493.2,2819.3,493.226,2819.366Z" transform="translate(-492.6 -2819.319)" fill="#344154"/></g><g transform="translate(14.104 6.626)" opacity="0.3"><path d="M502.156,2819.5l-20.982.021.022-2.506,20.885-.137Z" transform="translate(-481.174 -2816.874)"/></g></g><g transform="translate(0 110.237)"><g transform="translate(28.264)"><path d="M540.3,2711.268l-8.334,25.1c-2.252,6.777-8.173,7.938-15.315,7.938H470.289v-10.4l42.356-6.048,10.095-25.786Z" transform="translate(-470.289 -2702.067)" fill="#b78876"/></g><g transform="translate(0 20.566)"><path d="M476.937,2723.195l-3.677-1.74s-3.964-7.665-4.878-7.357-1.175,2.562.417,6.083l-4.888-1.4s-10.594,4.9-10.127,5.556,1.338,2.22,3.644,1.04,5.331-2.565,5.331-2.565l5.709,1.631-7.361.934-6.924,6.3s2.274,1.7,4.235-.1l17.982,3.863,5.632.318v-10.4Z" transform="translate(-453.769 -2714.088)" fill="#b78876"/><g transform="translate(4.642 13.801)"><path d="M456.49,2725.84c.077.049.411-.483,1.059-1.188a5.46,5.46,0,0,1,1.309-1.013,5.369,5.369,0,0,1,1.942-.506,27.031,27.031,0,0,0,5.4-.92,26.66,26.66,0,0,0-5.467.361,5.328,5.328,0,0,0-2.132.618,5.058,5.058,0,0,0-1.352,1.2A3.214,3.214,0,0,0,456.49,2725.84Z" transform="translate(-456.482 -2722.154)" fill="#aa6550"/></g><g transform="translate(7.395 16.83)"><path d="M458.159,2725.3c.068,0,.125-.371.63-.481.513-.092,1.331-.189,2.183-.276a17.956,17.956,0,0,0,3.162-.322,6.335,6.335,0,0,0-3.216-.24,9.693,9.693,0,0,0-2.262.464.905.905,0,0,0-.547.567C458.062,2725.208,458.125,2725.309,458.159,2725.3Z" transform="translate(-458.091 -2723.925)" fill="#aa6550"/></g></g></g><g transform="translate(76.01 63.095)"><path d="M524.39,2725.385l-3.566,12.077-22.629-10.245c.814-2.528,4.556-13.792,11.722-31.667a30.728,30.728,0,0,1,23.455-18.907,134.162,134.162,0,0,1,21.667-2.125c12.69.14,31.37,8.07,33.88,20.511,1.914,9.494.068,26.258.068,46.627l-1.656,38.917-65.026,2.205Z" transform="translate(-498.195 -2674.515)" fill="#d9a171"/><g transform="translate(42.517 57.412)" opacity="0.3"><path d="M571.253,2708.793c-7.913,1.618-16.038-.013-24.1-.493-4.888-.289-10.312-.818-14.179,2.187-3.066,2.383-4.3,6.389-5.184,10.168-3.374,14.411-3.987,24.072-4.745,38.852l39.141,2.373Z" transform="translate(-523.045 -2708.07)"/></g><g transform="translate(24.526 8.618)"><path d="M512.53,2679.564c-.008.058.652.1,1.73.52a9.008,9.008,0,0,1,3.745,3.031,12.622,12.622,0,0,1,2.238,6.775,42.581,42.581,0,0,1-.684,8.914,149.241,149.241,0,0,1-3.632,15.939c-.535,1.952-.979,3.566-1.316,4.789a11.692,11.692,0,0,0-.417,1.776,11.023,11.023,0,0,0,.628-1.712c.368-1.114.883-2.732,1.487-4.741a123.894,123.894,0,0,0,3.807-15.963,40.989,40.989,0,0,0,.645-9.039,12.783,12.783,0,0,0-2.437-6.977,8.856,8.856,0,0,0-3.987-3,6.428,6.428,0,0,0-1.331-.3A1.5,1.5,0,0,0,512.53,2679.564Z" transform="translate(-512.53 -2679.552)" fill="#344154"/></g><g transform="translate(0.708 49.615)"><path d="M498.609,2703.519a21.82,21.82,0,0,0,3.187,1.827c2.009,1.054,4.822,2.44,7.978,3.863s6.058,2.614,8.177,3.424a21.91,21.91,0,0,0,3.482,1.178,25.891,25.891,0,0,0-3.331-1.549c-2.077-.9-4.946-2.147-8.1-3.567s-5.982-2.746-8.033-3.706A25.744,25.744,0,0,0,498.609,2703.519Z" transform="translate(-498.609 -2703.513)" fill="#344154"/></g></g><g transform="translate(35.213 169.499)"><g transform="translate(19.056 4.818)"><path d="M497.569,2739.521a23.177,23.177,0,0,0-9.463,31.038l56.6,97.173,26.111-15.773-43.949-87.734,31.853-20.791" transform="translate(-485.488 -2739.521)" fill="#344154"/></g><path d="M574.4,2736.705l-77.694,2.749a23.174,23.174,0,0,0-22.352,23.52l3.225,110.968,32.676-.072-1.09-104.917,65.235-1.716Z" transform="translate(-474.35 -2736.705)" fill="#344154"/><g transform="translate(34.751 36.041)"><path d="M494.724,2757.77a5.511,5.511,0,0,1,.093,1.024c.032.744.075,1.723.128,2.945.1,2.557.2,6.26.291,10.835.2,9.148.327,21.791.4,35.752.072,13.929.135,26.535.183,35.755.026,4.515.046,8.2.06,10.836,0,1.223-.007,2.2-.009,2.948a5.612,5.612,0,0,1-.053,1.029,5.45,5.45,0,0,1-.094-1.027c-.033-.744-.074-1.723-.127-2.945-.1-2.556-.2-6.258-.293-10.834-.2-9.15-.325-21.793-.4-35.758-.072-13.924-.137-26.529-.183-35.749-.026-4.515-.046-8.2-.061-10.837,0-1.222.007-2.2.01-2.946A5.392,5.392,0,0,1,494.724,2757.77Z" transform="translate(-494.661 -2757.77)" fill="#5e6178"/></g></g></g><g transform="translate(171.412 99.077)"><path d="M593.827,2695.545H570.322a17.133,17.133,0,0,0-17.132,17.134v82.005H506.228a11.866,11.866,0,0,0-11.865,11.865H601.59l0-.068a9.787,9.787,0,0,0,9.373-9.773v-84.03A17.134,17.134,0,0,0,593.827,2695.545Z" transform="translate(-494.363 -2695.545)" fill="#5e6178"/><g transform="translate(65.297 2.705)"><path d="M532.891,2697.127c.2,0,.363,24.1.363,53.823s-.163,53.828-.363,53.828-.365-24.1-.365-53.828S532.69,2697.127,532.891,2697.127Z" transform="translate(-532.527 -2697.127)" fill="#344154"/></g><g transform="translate(26.053 111.051)"><path d="M546.228,2846.48v-86.029h-7.643v86.029c-4.666,9.2-15.633,15.421-29,20.516h68.127C563.882,2861.374,551.4,2857.059,546.228,2846.48Z" transform="translate(-509.59 -2760.451)" fill="#5e6178"/></g></g></g><rect width="129.816" height="14.138" transform="translate(299.709 35.977)" fill="#d9a171"/></g><g transform="translate(298.34 2631.486)"><g transform="translate(2.244)"><path d="M271.146,3233.156a2.97,2.97,0,0,1,2.5,3.376c-.149,1.033-.3,2.048-.365,2.5l-3.415,22.455a1.96,1.96,0,0,1-2.224,1.654l-51.4-7.818a1.96,1.96,0,0,1-1.647-2.121l2.624-29.1a1.962,1.962,0,0,1,2.24-1.774l11.625,1.768a4.688,4.688,0,0,1,2.833,1.562l2.089,2.4Z" transform="translate(-214.587 -3222.301)" fill="#e1e1e1"/></g><g transform="translate(0.863 5.925)"><rect width="56.802" height="34.28" transform="translate(5.155 0) rotate(8.649)" fill="#aed3f2"/></g><g transform="translate(0 7.054)"><path d="M213.806,3229.41l-1.087,35.993a1.258,1.258,0,0,0,1.064,1.287l54.727,8.324a1.259,1.259,0,0,0,1.412-.965l8.131-34.923a1.262,1.262,0,0,0-1.031-1.539l-61.769-9.4A1.263,1.263,0,0,0,213.806,3229.41Z" transform="translate(-212.718 -3228.177)" fill="#ececec"/></g></g><g transform="translate(784.941 2552.549)"><path d="M427.919,3289.62l-38.01,11.846a4.981,4.981,0,0,1-6.238-3.273l-16.4-52.611a4.982,4.982,0,0,1,3.273-6.238l24.106-7.513,24.654,13.416,11.886,38.134A4.983,4.983,0,0,1,427.919,3289.62Z" transform="translate(-367.046 -3231.831)" fill="#ececec"/><g transform="translate(27.607)"><path d="M390.045,3231.831l4.614,14.806a4.634,4.634,0,0,0,5.8,3.045l14.237-4.435Z" transform="translate(-390.045 -3231.831)" fill="#e1e1e1"/></g><g transform="translate(11.26 15.173)"><path d="M394.012,3244.494c.06.191-3.829,1.573-8.684,3.085s-8.842,2.587-8.9,2.4,3.829-1.572,8.686-3.086S393.953,3244.3,394.012,3244.494Z" transform="translate(-376.426 -3244.472)" fill="#fafafa"/></g><g transform="translate(13.87 20.014)"><path d="M407.542,3248.518c.06.19-6.371,2.364-14.362,4.854s-14.521,4.356-14.579,4.166,6.37-2.364,14.364-4.855S407.484,3248.327,407.542,3248.518Z" transform="translate(-378.601 -3248.505)" fill="#fafafa"/></g><g transform="translate(16.048 26.194)"><path d="M411.965,3253.665c.059.191-6.956,2.546-15.666,5.261s-15.824,4.762-15.883,4.572,6.954-2.546,15.668-5.261S411.906,3253.475,411.965,3253.665Z" transform="translate(-380.416 -3253.653)" fill="#fafafa"/></g><g transform="translate(18.104 32.789)"><path d="M413.678,3259.16c.059.189-6.956,2.546-15.667,5.261s-15.823,4.762-15.882,4.573,6.954-2.546,15.667-5.262S413.618,3258.969,413.678,3259.16Z" transform="translate(-382.129 -3259.148)" fill="#fafafa"/></g><g transform="translate(20.159 39.384)"><path d="M415.39,3264.654c.06.191-6.955,2.547-15.666,5.261s-15.823,4.763-15.883,4.572,6.955-2.544,15.668-5.261S415.331,3264.464,415.39,3264.654Z" transform="translate(-383.841 -3264.642)" fill="#fafafa"/></g><g transform="translate(22.216 45.98)"><path d="M417.1,3270.149c.059.19-6.956,2.546-15.667,5.261s-15.823,4.763-15.882,4.572,6.954-2.545,15.667-5.261S417.043,3269.959,417.1,3270.149Z" transform="translate(-385.554 -3270.137)" fill="#fafafa"/></g></g></g></svg>