<svg xmlns="http://www.w3.org/2000/svg" width="554.352" height="235.434" viewBox="0 0 554.352 235.434"><g transform="translate(-829.757 -11943.843)"><g transform="translate(859.249 11943.843)"><g transform="translate(-29.492 0)"><g transform="translate(0 0)" opacity="0.7" style="mix-blend-mode:multiply;isolation:isolate"><rect width="280.324" height="235.434" rx="9.04" transform="translate(0)" fill="#fff" opacity="0"/><rect width="277.947" height="233.37" rx="9.04" transform="translate(1.188 1.032)" fill="#f3f3f3" opacity="0.048"/><rect width="275.57" height="231.306" rx="9.04" transform="translate(2.377 2.064)" fill="#e7e7e7" opacity="0.095"/><rect width="273.194" height="229.242" rx="9.04" transform="translate(3.565 3.096)" fill="#dbdbdb" opacity="0.143"/><rect width="270.817" height="227.178" rx="9.04" transform="translate(4.753 4.128)" fill="#cecece" opacity="0.19"/><rect width="268.44" height="225.114" rx="9.04" transform="translate(5.942 5.16)" fill="#c2c2c2" opacity="0.238"/><rect width="266.063" height="223.05" rx="9.04" transform="translate(7.13 6.192)" fill="#b6b6b6" opacity="0.286"/><rect width="263.687" height="220.986" rx="9.04" transform="translate(8.319 7.224)" fill="#aaa" opacity="0.333"/><rect width="261.31" height="218.923" rx="9.04" transform="translate(9.507 8.255)" fill="#9e9e9e" opacity="0.381"/><rect width="258.933" height="216.859" rx="9.04" transform="translate(10.695 9.287)" fill="#929292" opacity="0.429"/><rect width="256.557" height="214.795" rx="9.04" transform="translate(11.884 10.319)" fill="#868686" opacity="0.476"/><rect width="254.18" height="212.731" rx="9.04" transform="translate(13.072 11.351)" fill="#797979" opacity="0.524"/><rect width="251.803" height="210.667" rx="9.04" transform="translate(14.26 12.383)" fill="#6d6d6d" opacity="0.571"/><rect width="249.426" height="208.603" rx="9.04" transform="translate(15.449 13.415)" fill="#616161" opacity="0.619"/><rect width="247.05" height="206.539" rx="9.04" transform="translate(16.637 14.447)" fill="#555" opacity="0.667"/><rect width="244.673" height="204.475" rx="9.04" transform="translate(17.825 15.479)" fill="#494949" opacity="0.714"/><rect width="242.296" height="202.412" rx="9.04" transform="translate(19.014 16.511)" fill="#3d3d3d" opacity="0.762"/><rect width="239.919" height="200.348" rx="9.04" transform="translate(20.202 17.543)" fill="#313131" opacity="0.81"/><rect width="237.543" height="198.284" rx="9.04" transform="translate(21.391 18.575)" fill="#242424" opacity="0.857"/><rect width="235.166" height="196.22" rx="9.04" transform="translate(22.579 19.607)" fill="#181818" opacity="0.905"/><rect width="232.789" height="194.156" rx="9.04" transform="translate(23.767 20.639)" fill="#0c0c0c" opacity="0.952"/><rect width="230.413" height="192.092" rx="9.04" transform="translate(24.956 21.671)"/></g><rect width="261.124" height="218.761" rx="10" transform="translate(8.45 8.601)" fill="#aed3f2"/></g></g><g transform="translate(1133.277 11945.716)"><g transform="translate(-29.492 0)"><g transform="translate(0 0)" opacity="0.7" style="mix-blend-mode:multiply;isolation:isolate"><rect width="280.324" height="118.844" rx="9.04" fill="#fff" opacity="0"/><rect width="277.947" height="116.78" rx="9.04" transform="translate(1.188 1.032)" fill="#f3f3f3" opacity="0.048"/><rect width="275.57" height="114.716" rx="9.04" transform="translate(2.377 2.064)" fill="#e7e7e7" opacity="0.095"/><rect width="273.194" height="112.652" rx="9.04" transform="translate(3.565 3.096)" fill="#dbdbdb" opacity="0.143"/><rect width="270.817" height="110.588" rx="9.04" transform="translate(4.753 4.128)" fill="#cecece" opacity="0.19"/><rect width="268.44" height="108.524" rx="9.04" transform="translate(5.942 5.16)" fill="#c2c2c2" opacity="0.238"/><rect width="266.063" height="106.46" rx="9.04" transform="translate(7.13 6.192)" fill="#b6b6b6" opacity="0.286"/><rect width="263.687" height="104.397" rx="9.04" transform="translate(8.319 7.224)" fill="#aaa" opacity="0.333"/><rect width="261.31" height="102.333" rx="9.04" transform="translate(9.507 8.255)" fill="#9e9e9e" opacity="0.381"/><rect width="258.933" height="100.269" rx="9.04" transform="translate(10.695 9.287)" fill="#929292" opacity="0.429"/><rect width="256.557" height="98.205" rx="9.04" transform="translate(11.884 10.319)" fill="#868686" opacity="0.476"/><rect width="254.18" height="96.141" rx="9.04" transform="translate(13.072 11.351)" fill="#797979" opacity="0.524"/><rect width="251.803" height="94.077" rx="9.04" transform="translate(14.26 12.383)" fill="#6d6d6d" opacity="0.571"/><rect width="249.426" height="92.013" rx="9.04" transform="translate(15.449 13.415)" fill="#616161" opacity="0.619"/><rect width="247.05" height="89.949" rx="9.04" transform="translate(16.637 14.447)" fill="#555" opacity="0.667"/><rect width="244.673" height="87.886" rx="9.04" transform="translate(17.825 15.479)" fill="#494949" opacity="0.714"/><rect width="242.296" height="85.822" rx="9.04" transform="translate(19.014 16.511)" fill="#3d3d3d" opacity="0.762"/><rect width="239.919" height="83.758" rx="9.04" transform="translate(20.202 17.543)" fill="#313131" opacity="0.81"/><rect width="237.543" height="81.694" rx="9.04" transform="translate(21.391 18.575)" fill="#242424" opacity="0.857"/><rect width="235.166" height="79.63" rx="9.04" transform="translate(22.579 19.607)" fill="#181818" opacity="0.905"/><rect width="232.789" height="77.566" rx="9.04" transform="translate(23.767 20.639)" fill="#0c0c0c" opacity="0.952"/><rect width="230.413" height="75.502" rx="9.04" transform="translate(24.956 21.671)"/></g><rect width="261.124" height="102.172" rx="10" transform="translate(8.45 8.601)" fill="#d9a171"/></g></g><g transform="translate(1133.277 12059.306)"><g transform="translate(-29.492 0)"><g transform="translate(0 0)" opacity="0.7" style="mix-blend-mode:multiply;isolation:isolate"><rect width="280.324" height="118.844" rx="9.04" fill="#fff" opacity="0"/><rect width="277.947" height="116.78" rx="9.04" transform="translate(1.188 1.032)" fill="#f3f3f3" opacity="0.048"/><rect width="275.57" height="114.716" rx="9.04" transform="translate(2.377 2.064)" fill="#e7e7e7" opacity="0.095"/><rect width="273.194" height="112.652" rx="9.04" transform="translate(3.565 3.096)" fill="#dbdbdb" opacity="0.143"/><rect width="270.817" height="110.588" rx="9.04" transform="translate(4.753 4.128)" fill="#cecece" opacity="0.19"/><rect width="268.44" height="108.524" rx="9.04" transform="translate(5.942 5.16)" fill="#c2c2c2" opacity="0.238"/><rect width="266.063" height="106.46" rx="9.04" transform="translate(7.13 6.192)" fill="#b6b6b6" opacity="0.286"/><rect width="263.687" height="104.397" rx="9.04" transform="translate(8.319 7.224)" fill="#aaa" opacity="0.333"/><rect width="261.31" height="102.333" rx="9.04" transform="translate(9.507 8.255)" fill="#9e9e9e" opacity="0.381"/><rect width="258.933" height="100.269" rx="9.04" transform="translate(10.695 9.287)" fill="#929292" opacity="0.429"/><rect width="256.557" height="98.205" rx="9.04" transform="translate(11.884 10.319)" fill="#868686" opacity="0.476"/><rect width="254.18" height="96.141" rx="9.04" transform="translate(13.072 11.351)" fill="#797979" opacity="0.524"/><rect width="251.803" height="94.077" rx="9.04" transform="translate(14.26 12.383)" fill="#6d6d6d" opacity="0.571"/><rect width="249.426" height="92.013" rx="9.04" transform="translate(15.449 13.415)" fill="#616161" opacity="0.619"/><rect width="247.05" height="89.949" rx="9.04" transform="translate(16.637 14.447)" fill="#555" opacity="0.667"/><rect width="244.673" height="87.886" rx="9.04" transform="translate(17.825 15.479)" fill="#494949" opacity="0.714"/><rect width="242.296" height="85.822" rx="9.04" transform="translate(19.014 16.511)" fill="#3d3d3d" opacity="0.762"/><rect width="239.919" height="83.758" rx="9.04" transform="translate(20.202 17.543)" fill="#313131" opacity="0.81"/><rect width="237.543" height="81.694" rx="9.04" transform="translate(21.391 18.575)" fill="#242424" opacity="0.857"/><rect width="235.166" height="79.63" rx="9.04" transform="translate(22.579 19.607)" fill="#181818" opacity="0.905"/><rect width="232.789" height="77.566" rx="9.04" transform="translate(23.767 20.639)" fill="#0c0c0c" opacity="0.952"/><rect width="230.413" height="75.502" rx="9.04" transform="translate(24.956 21.671)"/></g><rect width="261.124" height="102.172" rx="10" transform="translate(8.45 8.601)" fill="#5e6178"/></g></g><path d="M-20.277-3.076h-5.394L-26.7,0h-3.271l5.558-14.93h2.851L-15.97,0h-3.271ZM-24.84-5.568h3.732l-1.876-5.588Zm14.684,3.384a1.944,1.944,0,0,0,1.333-.451,1.581,1.581,0,0,0,.533-1.2h2.779a3.8,3.8,0,0,1-.615,2.066A4.06,4.06,0,0,1-7.783-.313a5.183,5.183,0,0,1-2.323.518,4.817,4.817,0,0,1-3.753-1.512,5.985,5.985,0,0,1-1.374-4.178v-.195a5.917,5.917,0,0,1,1.364-4.091A4.761,4.761,0,0,1-10.126-11.3a4.667,4.667,0,0,1,3.338,1.184A4.193,4.193,0,0,1-5.511-6.962H-8.29a2.036,2.036,0,0,0-.533-1.407,1.778,1.778,0,0,0-1.354-.541,1.785,1.785,0,0,0-1.564.755,4.374,4.374,0,0,0-.528,2.449V-5.4a4.43,4.43,0,0,0,.523,2.465A1.807,1.807,0,0,0-10.156-2.184ZM-.272-13.822v2.728h1.9v2.174h-1.9v5.537A1.322,1.322,0,0,0-.036-2.5a1.184,1.184,0,0,0,.9.267,4.726,4.726,0,0,0,.872-.072V-.062A6.1,6.1,0,0,1-.056.205q-3.117,0-3.179-3.148V-8.921h-1.62v-2.174h1.62v-2.728ZM6.4,0H3.43V-11.095H6.4ZM3.256-13.966a1.459,1.459,0,0,1,.446-1.1,1.676,1.676,0,0,1,1.215-.431,1.679,1.679,0,0,1,1.21.431,1.451,1.451,0,0,1,.451,1.1,1.455,1.455,0,0,1-.456,1.107,1.684,1.684,0,0,1-1.2.431,1.684,1.684,0,0,1-1.2-.431A1.455,1.455,0,0,1,3.256-13.966ZM13-3.62l2.061-7.475h3.1L14.412,0h-2.83L7.839-11.095h3.1Zm5.845-2.03a6.58,6.58,0,0,1,.636-2.943,4.654,4.654,0,0,1,1.83-2,5.34,5.34,0,0,1,2.774-.708,5.052,5.052,0,0,1,3.666,1.374,5.514,5.514,0,0,1,1.584,3.732l.021.759a5.8,5.8,0,0,1-1.425,4.1A4.954,4.954,0,0,1,24.1.205a4.979,4.979,0,0,1-3.83-1.538,5.9,5.9,0,0,1-1.43-4.184Zm2.963.21A4.147,4.147,0,0,0,22.4-3.021a1.962,1.962,0,0,0,1.7.837,1.966,1.966,0,0,0,1.682-.827,4.538,4.538,0,0,0,.6-2.644,4.106,4.106,0,0,0-.6-2.4,1.967,1.967,0,0,0-1.7-.852,1.934,1.934,0,0,0-1.682.847A4.614,4.614,0,0,0,21.8-5.44Z" transform="translate(967.748 12069.379)" fill="#12263f"/><path d="M-27.286-5.26V0h-3.076V-14.93h5.824a6.738,6.738,0,0,1,2.958.615,4.534,4.534,0,0,1,1.964,1.748,4.875,4.875,0,0,1,.687,2.579,4.287,4.287,0,0,1-1.5,3.461A6.257,6.257,0,0,1-24.589-5.26Zm0-2.492h2.748a2.7,2.7,0,0,0,1.861-.574,2.088,2.088,0,0,0,.641-1.641,2.463,2.463,0,0,0-.646-1.774,2.413,2.413,0,0,0-1.784-.7h-2.82ZM-10.695,0a3.291,3.291,0,0,1-.3-.995,3.586,3.586,0,0,1-2.8,1.2,3.939,3.939,0,0,1-2.7-.943,3.034,3.034,0,0,1-1.072-2.379,3.135,3.135,0,0,1,1.307-2.707,6.451,6.451,0,0,1,3.779-.954h1.364v-.636a1.828,1.828,0,0,0-.395-1.23,1.553,1.553,0,0,0-1.246-.461,1.766,1.766,0,0,0-1.174.359,1.219,1.219,0,0,0-.426.984h-2.963a2.977,2.977,0,0,1,.595-1.784,3.931,3.931,0,0,1,1.682-1.287A6.129,6.129,0,0,1-12.6-11.3a4.842,4.842,0,0,1,3.256,1.031,3.605,3.605,0,0,1,1.2,2.9v4.809A5.3,5.3,0,0,0-7.7-.174V0Zm-2.451-2.061a2.552,2.552,0,0,0,1.21-.292,1.919,1.919,0,0,0,.82-.784V-5.045h-1.107q-2.225,0-2.369,1.538l-.01.174a1.186,1.186,0,0,0,.39.913A1.514,1.514,0,0,0-13.146-2.061Zm13.289-1a.955.955,0,0,0-.538-.856,6.115,6.115,0,0,0-1.728-.559q-3.958-.831-3.958-3.363A3.049,3.049,0,0,1-4.855-10.31a4.943,4.943,0,0,1,3.2-.99,5.32,5.32,0,0,1,3.379.995A3.135,3.135,0,0,1,2.994-7.721H.031a1.434,1.434,0,0,0-.41-1.051,1.736,1.736,0,0,0-1.282-.415,1.774,1.774,0,0,0-1.159.338,1.068,1.068,0,0,0-.41.861.913.913,0,0,0,.467.795,4.8,4.8,0,0,0,1.574.523,12.856,12.856,0,0,1,1.866.5A3.066,3.066,0,0,1,3.025-3.189a2.894,2.894,0,0,1-1.3,2.456A5.618,5.618,0,0,1-1.641.205a5.867,5.867,0,0,1-2.476-.5,4.155,4.155,0,0,1-1.7-1.364,3.169,3.169,0,0,1-.615-1.871h2.81a1.547,1.547,0,0,0,.584,1.21,2.318,2.318,0,0,0,1.456.42A2.146,2.146,0,0,0-.292-2.22,1,1,0,0,0,.144-3.066ZM8.06,0H5.086V-11.095H8.06ZM4.912-13.966a1.459,1.459,0,0,1,.446-1.1,1.676,1.676,0,0,1,1.215-.431,1.679,1.679,0,0,1,1.21.431,1.451,1.451,0,0,1,.451,1.1,1.455,1.455,0,0,1-.456,1.107,1.684,1.684,0,0,1-1.2.431,1.684,1.684,0,0,1-1.2-.431A1.455,1.455,0,0,1,4.912-13.966ZM14.653-3.62l2.061-7.475h3.1L16.068,0h-2.83L9.5-11.095h3.1ZM20.5-5.65a6.58,6.58,0,0,1,.636-2.943,4.654,4.654,0,0,1,1.83-2,5.34,5.34,0,0,1,2.774-.708A5.052,5.052,0,0,1,29.4-9.926a5.514,5.514,0,0,1,1.584,3.732l.021.759a5.8,5.8,0,0,1-1.425,4.1A4.954,4.954,0,0,1,25.758.205a4.979,4.979,0,0,1-3.83-1.538A5.9,5.9,0,0,1,20.5-5.517Zm2.963.21a4.147,4.147,0,0,0,.595,2.418,1.962,1.962,0,0,0,1.7.837,1.966,1.966,0,0,0,1.682-.827,4.538,4.538,0,0,0,.6-2.644,4.106,4.106,0,0,0-.6-2.4,1.967,1.967,0,0,0-1.7-.852,1.934,1.934,0,0,0-1.682.847A4.614,4.614,0,0,0,23.461-5.44Z" transform="translate(1241.099 12016.042)" fill="#12263f"/><path d="M-50-5.511V0h-3.223V-15.641h6.1a7.059,7.059,0,0,1,3.1.645,4.75,4.75,0,0,1,2.057,1.832,5.107,5.107,0,0,1,.72,2.7,4.491,4.491,0,0,1-1.574,3.625,6.555,6.555,0,0,1-4.356,1.327Zm0-2.61h2.879a2.831,2.831,0,0,0,1.95-.6,2.188,2.188,0,0,0,.671-1.719,2.58,2.58,0,0,0-.677-1.858,2.528,2.528,0,0,0-1.869-.73H-50ZM-32.619,0a3.447,3.447,0,0,1-.312-1.042A3.756,3.756,0,0,1-35.863.215a4.127,4.127,0,0,1-2.831-.988,3.178,3.178,0,0,1-1.123-2.492A3.285,3.285,0,0,1-38.446-6.1a6.758,6.758,0,0,1,3.958-1h1.429v-.666a1.915,1.915,0,0,0-.414-1.289,1.627,1.627,0,0,0-1.305-.483,1.85,1.85,0,0,0-1.23.376,1.277,1.277,0,0,0-.446,1.031h-3.1A3.119,3.119,0,0,1-38.935-10a4.118,4.118,0,0,1,1.762-1.348,6.42,6.42,0,0,1,2.557-.489,5.073,5.073,0,0,1,3.411,1.08,3.777,3.777,0,0,1,1.262,3.035v5.038a5.557,5.557,0,0,0,.462,2.5V0Zm-2.567-2.159a2.674,2.674,0,0,0,1.268-.306,2.011,2.011,0,0,0,.859-.822v-2h-1.16q-2.331,0-2.481,1.611l-.011.183a1.243,1.243,0,0,0,.408.956A1.586,1.586,0,0,0-35.186-2.159ZM-23.842-14.48v2.857h1.987v2.277h-1.987v5.8a1.385,1.385,0,0,0,.247.924,1.241,1.241,0,0,0,.945.279,4.951,4.951,0,0,0,.913-.075V-.064a6.391,6.391,0,0,1-1.88.279q-3.266,0-3.33-3.3V-9.346h-1.7v-2.277h1.7V-14.48Zm10.248,5.769A8.434,8.434,0,0,0-14.711-8.8a2.274,2.274,0,0,0-2.31,1.192V0h-3.1V-11.623h2.933l.086,1.386a2.877,2.877,0,0,1,2.589-1.6,3.253,3.253,0,0,1,.967.14ZM-8.825,0H-11.94V-11.623h3.115Zm-3.3-14.631a1.529,1.529,0,0,1,.467-1.149,1.755,1.755,0,0,1,1.273-.451,1.759,1.759,0,0,1,1.268.451,1.52,1.52,0,0,1,.473,1.149,1.524,1.524,0,0,1-.478,1.16,1.764,1.764,0,0,1-1.262.451,1.764,1.764,0,0,1-1.262-.451A1.524,1.524,0,0,1-12.123-14.631Zm8.766,3.008.1,1.3A4.085,4.085,0,0,1,.081-11.838a3.1,3.1,0,0,1,3.083,1.772,3.991,3.991,0,0,1,3.491-1.772,3.467,3.467,0,0,1,2.814,1.1,5.061,5.061,0,0,1,.924,3.314V0H7.278V-7.412a2.213,2.213,0,0,0-.387-1.445,1.714,1.714,0,0,0-1.364-.457A1.938,1.938,0,0,0,3.593-7.981L3.6,0H.5V-7.4A2.186,2.186,0,0,0,.1-8.862a1.731,1.731,0,0,0-1.354-.451,2.012,2.012,0,0,0-1.912,1.1V0h-3.1V-11.623Zm15.651,5.7A6.893,6.893,0,0,1,12.96-9,4.876,4.876,0,0,1,14.878-11.1a5.594,5.594,0,0,1,2.906-.741,5.293,5.293,0,0,1,3.84,1.439,5.777,5.777,0,0,1,1.66,3.91l.021.795A6.075,6.075,0,0,1,21.812-1.4,5.19,5.19,0,0,1,17.805.215,5.216,5.216,0,0,1,13.793-1.4a6.182,6.182,0,0,1-1.5-4.383Zm3.1.22a4.345,4.345,0,0,0,.623,2.534,2.055,2.055,0,0,0,1.783.877,2.06,2.06,0,0,0,1.762-.866,4.754,4.754,0,0,0,.634-2.77,4.3,4.3,0,0,0-.634-2.518,2.06,2.06,0,0,0-1.783-.893,2.027,2.027,0,0,0-1.762.888A4.834,4.834,0,0,0,15.4-5.7Zm12.676-5.924.1,1.343a4.058,4.058,0,0,1,3.341-1.558,3.372,3.372,0,0,1,2.75,1.085,5.062,5.062,0,0,1,.924,3.244V0h-3.1V-7.434a2.014,2.014,0,0,0-.43-1.434,1.924,1.924,0,0,0-1.429-.446A2.136,2.136,0,0,0,28.257-8.2V0h-3.1V-11.623ZM40.815,0H37.7V-11.623h3.115Zm-3.3-14.631a1.529,1.529,0,0,1,.467-1.149,1.755,1.755,0,0,1,1.273-.451,1.759,1.759,0,0,1,1.268.451A1.52,1.52,0,0,1,41-14.631a1.524,1.524,0,0,1-.478,1.16,1.764,1.764,0,0,1-1.262.451A1.764,1.764,0,0,1,38-13.471,1.524,1.524,0,0,1,37.517-14.631Zm5.371,8.712A6.893,6.893,0,0,1,43.554-9,4.876,4.876,0,0,1,45.472-11.1a5.594,5.594,0,0,1,2.906-.741,5.293,5.293,0,0,1,3.84,1.439,5.777,5.777,0,0,1,1.66,3.91l.021.795A6.075,6.075,0,0,1,52.406-1.4,5.19,5.19,0,0,1,48.4.215,5.216,5.216,0,0,1,44.387-1.4a6.182,6.182,0,0,1-1.5-4.383Zm3.1.22a4.345,4.345,0,0,0,.623,2.534,2.055,2.055,0,0,0,1.783.877,2.06,2.06,0,0,0,1.762-.866,4.754,4.754,0,0,0,.634-2.77,4.3,4.3,0,0,0-.634-2.518,2.06,2.06,0,0,0-1.783-.893,2.027,2.027,0,0,0-1.762.888A4.834,4.834,0,0,0,45.993-5.7Z" transform="translate(1242.319 12130.383)" fill="#fff"/></g></svg>