<svg xmlns="http://www.w3.org/2000/svg" xmlns:xlink="http://www.w3.org/1999/xlink" width="183.348" height="183.348" viewBox="0 0 183.348 183.348">
  <defs>
    <radialGradient id="radial-gradient" cx="0.076" cy="0.019" r="1.465" gradientTransform="translate(0.001)" gradientUnits="objectBoundingBox">
      <stop offset="0" stop-color="#f6f6f7"/>
      <stop offset="0.477" stop-color="#f9f9fa"/>
      <stop offset="0.715" stop-color="#fff"/>
    </radialGradient>
  </defs>
  <g id="Grupo_49869" data-name="Grupo 49869" transform="translate(0 0.001)">
    <g id="Grupo_18531" data-name="Grupo 18531" transform="translate(0 0)">
      <g id="Grupo_18423" data-name="Grupo 18423" transform="translate(0 0)">
        <g id="Grupo_18421" data-name="Grupo 18421">
          <g id="Grupo_18420" data-name="Grupo 18420">
            <g id="Grupo_18419" data-name="Grupo 18419">
              <path id="Trazado_40936" data-name="Trazado 40936" d="M377.97,2237.392a91.673,91.673,0,1,1-91.672-91.671A91.672,91.672,0,0,1,377.97,2237.392Z" transform="translate(-194.623 -2145.721)" fill="#fff"/>
            </g>
          </g>
        </g>
        <path id="Trazado_40937" data-name="Trazado 40937" d="M376.482,2235.77a91.671,91.671,0,1,0-91.672,91.676A91.311,91.311,0,0,0,376.482,2235.77Z" transform="translate(-193.135 -2144.099)" fill="url(#radial-gradient)"/>
        <path id="Trazado_40938" data-name="Trazado 40938" d="M341.45,2222.48a69.974,69.974,0,1,0-69.974,69.974A69.714,69.714,0,0,0,341.45,2222.48Z" transform="translate(-179.525 -2130.503)" fill="none" stroke="#00223d" stroke-miterlimit="10" stroke-width="4"/>
        <g id="Grupo_18422" data-name="Grupo 18422" transform="translate(16.241 51.468)">
          <path id="Trazado_40939" data-name="Trazado 40939" d="M358.381,2164.488a91.684,91.684,0,0,1-157.836,91.294,91.393,91.393,0,0,0,157.836-91.294Z" transform="translate(-200.545 -2164.488)" fill="#eceef0"/>
        </g>
      </g>
    </g>
    <g id="Grupo_50705" data-name="Grupo 50705" transform="translate(52.928 51.039)">
      <g id="Grupo_50690" data-name="Grupo 50690" transform="translate(46.187)">
        <g id="Grupo_50689" data-name="Grupo 50689">
          <g id="Grupo_50688" data-name="Grupo 50688">
            <path id="Trazado_112694" data-name="Trazado 112694" d="M335.8,2259.323a6.556,6.556,0,0,1-5.014-2.34,6.743,6.743,0,0,1-1.583-4.875H318.792a1.635,1.635,0,0,1-1.635-1.634V2239.45a1.635,1.635,0,0,1,1.93-1.608l.1.018a3.36,3.36,0,1,0,0-6.61l-.1.019a1.635,1.635,0,0,1-1.929-1.608v-12.078a1.634,1.634,0,0,1,1.634-1.635H345.91a7.415,7.415,0,0,1,7.407,7.407v27.119a1.634,1.634,0,0,1-1.634,1.634H342.4a6.629,6.629,0,0,1-6.5,7.214Zm-15.371-10.484h10.7a1.635,1.635,0,0,1,1.608,1.928l-.222,1.219a3.482,3.482,0,0,0,.771,2.885,3.259,3.259,0,0,0,2.566,1.182,3.36,3.36,0,0,0,3.253-3.965l-.242-1.321a1.636,1.636,0,0,1,1.608-1.928h9.582v-25.484a4.143,4.143,0,0,0-4.138-4.138H320.427v8.738a6.631,6.631,0,0,1,0,13.2Z" transform="translate(-317.157 -2215.948)" fill="#12263f"/>
          </g>
        </g>
      </g>
      <g id="Grupo_50704" data-name="Grupo 50704">
        <g id="Grupo_50698" data-name="Grupo 50698" transform="translate(1.349 14.644)">
          <path id="Trazado_112698" data-name="Trazado 112698" d="M320.046,2279.1a1.634,1.634,0,0,0,1.635-1.634v-5.919a1.635,1.635,0,0,0-1.635-1.634H308.83a1.635,1.635,0,0,0-1.608,1.929l.242,1.321a3.36,3.36,0,0,1-3.253,3.965,3.264,3.264,0,0,1-2.566-1.182,3.484,3.484,0,0,1-.771-2.885l.222-1.218a1.635,1.635,0,0,0-1.608-1.929h-10.7v-7.684a6.631,6.631,0,0,0,0-13.2v-10.373a1.635,1.635,0,0,0-1.635-1.635H260.037a7.416,7.416,0,0,0-7.407,7.407v54.237a7.416,7.416,0,0,0,7.407,7.407h54.236a7.416,7.416,0,0,0,7.407-7.407v-4.744a1.635,1.635,0,1,0-3.269,0v4.744a4.143,4.143,0,0,1-4.138,4.138H288.791v-10.544a1.636,1.636,0,0,0-1.928-1.609l-.1.018a3.36,3.36,0,1,1,0-6.609l.1.018a1.635,1.635,0,0,0,1.928-1.608v-9.288h8.774a6.738,6.738,0,0,0,1.583,4.874,6.608,6.608,0,0,0,11.614-4.874h7.65v4.284a1.634,1.634,0,0,0,1.634,1.634ZM255.9,2244.43a4.143,4.143,0,0,1,4.138-4.138h25.484v10.442a1.634,1.634,0,0,0,1.928,1.608l.1-.017h0a3.359,3.359,0,1,1,0,6.609l-.1-.017a1.635,1.635,0,0,0-1.928,1.608v9.389h-7.015a6.637,6.637,0,0,0-12.737,0H255.9Zm26.015,37.844a6.63,6.63,0,0,0,3.607,11.692v8.84H260.037a4.143,4.143,0,0,1-4.138-4.138v-25.484h11.248a1.635,1.635,0,0,0,1.634-1.563,3.361,3.361,0,0,1,6.715,0,1.634,1.634,0,0,0,1.633,1.563h8.392v7.583a6.616,6.616,0,0,0-3.607,1.507Z" transform="translate(-252.63 -2237.023)" fill="#12263f"/>
        </g>
        <g id="Grupo_50703" data-name="Grupo 50703">
          <g id="Grupo_50700" data-name="Grupo 50700">
            <g id="Grupo_50699" data-name="Grupo 50699">
              <path id="Trazado_112699" data-name="Trazado 112699" d="M250.689,2215.948" transform="translate(-250.689 -2215.948)" fill="#12263f"/>
            </g>
          </g>
          <g id="Grupo_50702" data-name="Grupo 50702" transform="translate(67.133 61.602)">
            <g id="Grupo_50701" data-name="Grupo 50701">
              <path id="Trazado_112700" data-name="Trazado 112700" d="M348.933,2307.864a1.634,1.634,0,1,1,1.6-1.314,1.646,1.646,0,0,1-1.6,1.314Z" transform="translate(-347.301 -2304.6)" fill="#12263f"/>
            </g>
          </g>
        </g>
      </g>
    </g>
  </g>
</svg>
