<svg xmlns="http://www.w3.org/2000/svg" width="223.355" height="223.354" viewBox="0 0 223.355 223.354">
  <g id="Grupo_76747" data-name="Grupo 76747" transform="translate(-1099.879 -7685.177)">
    <g id="Grupo_657" data-name="Grupo 657" transform="translate(1099.879 7685.177)">
      <path id="Trazado_11212" data-name="Trazado 11212" d="M426.175,7413.918q5.487,0,10.947.538t10.84,1.608q5.383,1.069,10.633,2.662t10.319,3.692q5.069,2.1,9.907,4.686t9.4,5.634q4.561,3.05,8.8,6.53t8.12,7.359q3.878,3.877,7.36,8.12t6.528,8.8q3.049,4.562,5.634,9.4t4.686,9.907q2.1,5.07,3.693,10.318t2.662,10.631q1.071,5.38,1.609,10.841t.538,10.946q0,5.487-.538,10.947t-1.609,10.841q-1.069,5.382-2.662,10.631t-3.693,10.319q-2.1,5.067-4.686,9.907t-5.634,9.4q-3.046,4.563-6.528,8.8t-7.36,8.12q-3.881,3.879-8.12,7.36t-8.8,6.526q-4.563,3.05-9.4,5.635t-9.907,4.687q-5.069,2.1-10.319,3.692t-10.633,2.662q-5.38,1.072-10.84,1.608t-10.947.537q-5.485,0-10.947-.537t-10.84-1.608q-5.38-1.068-10.631-2.662t-10.319-3.692q-5.069-2.1-9.907-4.687t-9.4-5.635q-4.561-3.045-8.8-6.526t-8.12-7.36q-3.881-3.88-7.36-8.12t-6.529-8.8q-3.046-4.562-5.634-9.4T323,7568.333q-2.1-5.068-3.691-10.319t-2.664-10.631q-1.069-5.382-1.607-10.841t-.538-10.947q0-5.486.538-10.946t1.607-10.841q1.071-5.379,2.664-10.631T323,7482.858q2.1-5.07,4.686-9.907t5.634-9.4q3.049-4.56,6.529-8.8t7.36-8.12q3.878-3.88,8.12-7.359t8.8-6.53q4.561-3.048,9.4-5.634t9.907-4.686q5.069-2.1,10.319-3.692t10.631-2.662q5.38-1.071,10.84-1.608T426.175,7413.918Z" transform="translate(-314.498 -7413.918)" fill="#12263f"/>
    </g>
    <ellipse id="Elipse_375" data-name="Elipse 375" cx="104.901" cy="104.901" rx="104.901" ry="104.901" transform="translate(1106.656 7691.954)" fill="#fff"/>
    <g id="Grupo_658" data-name="Grupo 658" transform="translate(1115.219 7701.428)">
      <ellipse id="Elipse_376" data-name="Elipse 376" cx="95.426" cy="95.427" rx="95.426" ry="95.427" transform="translate(0 0)" fill="#aed3f2"/>
    </g>
    <g id="Grupo_672" data-name="Grupo 672" transform="translate(1116.757 7702.052)">
      <path id="Trazado_11225" data-name="Trazado 11225" d="M514.261,7518.88a94.8,94.8,0,1,1-94.8-94.8A94.8,94.8,0,0,1,514.261,7518.88Z" transform="translate(-324.662 -7424.08)" fill="#f6e7db"/>
      <path id="Trazado_11226" data-name="Trazado 11226" d="M443.811,7465l-.334.3-5.975-5.978-2.511-1.821-1.309,1.8-6.044-6.04L424.814,7452l-1.762,3.948-6.314-6.564-3.027-.649-1.388,6.48-7.057-7.373h-3.1v7.747l9.769,9.77c-.659-.144-1.323-.286-1.993-.395l0-.02-.045.01c-.183-.029-.364-.058-.551-.083l-15.621-16.142-3.027.644,1.609,7.579,8.014,7.663a38.5,38.5,0,0,0-4.809.723L382.618,7452l-2.831,1.261,3.15,7.077,6.757,6.757a38.393,38.393,0,0,0-5.246,2.506l-12.014-12.1-2.5,1.82,4.553,6.271,6.4,6.314a38.725,38.725,0,0,0-5.226,4.6l-6.32-6.276.04-.043L363.619,7465l-2.076,2.3,11.83,11.752-.038.04.038.03a38.867,38.867,0,0,0-3.637,5.463l-6.471-6.547-6.714-3.869-1.544,2.678,12.619,12.274a38.179,38.179,0,0,0-1.6,5.163l-7.1-7.284-7.368-2.4-.96,2.947,14.425,14.14c-.02.5-.035,1-.035,1.491q0,1.159.075,2.293l-8.524-8.809-7.7-.812-.324,3.085,19.469,19.2c.025.063.055.123.085.183l-11.852-11.7-7.7.813.324,3.08,6.7,6.7-4.937,1.6.96,2.947,6.438,6.035L355,7529.521l1.549,2.683,5.975,5.981-.983.885,57.474,57.672a94.855,94.855,0,0,0,78.243-78.225Zm-10.306-5.453-.118-.055.118.05Zm9.864,5.853-.07-.05.075.045Z" transform="translate(-308.911 -7408.386)" fill="#e8d3c1"/>
      <g id="Grupo_671" data-name="Grupo 671" transform="translate(39.594 39.452)">
        <g id="Grupo_669" data-name="Grupo 669" transform="translate(16.477 16.616)">
          <path id="Trazado_11227" data-name="Trazado 11227" d="M435.9,7496.576a38.734,38.734,0,1,1-38.73-38.732A38.738,38.738,0,0,1,435.9,7496.576Z" transform="translate(-358.428 -7457.844)" fill="#fff"/>
          <path id="Trazado_11228" data-name="Trazado 11228" d="M416.886,7491.163a25.133,25.133,0,1,1-25.131-25.124A25.134,25.134,0,0,1,416.886,7491.163Z" transform="translate(-353.017 -7452.431)" fill="#6595bf"/>
          <path id="Trazado_11229" data-name="Trazado 11229" d="M398.355,7485.893a11.878,11.878,0,1,1-11.871-11.876A11.877,11.877,0,0,1,398.355,7485.893Z" transform="translate(-347.746 -7447.161)" fill="#343b43"/>
          <path id="Trazado_11230" data-name="Trazado 11230" d="M385.285,7478.556a6.145,6.145,0,1,1-6.142-6.143A6.145,6.145,0,0,1,385.285,7478.556Z" transform="translate(-348.805 -7448.219)" fill="#fff"/>
          <path id="Trazado_11231" data-name="Trazado 11231" d="M379.747,7483.517a2.183,2.183,0,1,1-2.18-2.185A2.182,2.182,0,0,1,379.747,7483.517Z" transform="translate(-347.229 -7442.329)" fill="#fff"/>
        </g>
        <g id="Grupo_670" data-name="Grupo 670">
          <rect id="Rectángulo_634" data-name="Rectángulo 634" width="3.101" height="7.747" transform="translate(53.66)" fill="#fff"/>
          <rect id="Rectángulo_635" data-name="Rectángulo 635" width="3.097" height="7.749" transform="translate(42.188 1.53) rotate(-11.987)" fill="#fff"/>
          <rect id="Rectángulo_636" data-name="Rectángulo 636" width="3.099" height="7.744" transform="translate(31.281 5.419) rotate(-23.992)" fill="#fff"/>
          <rect id="Rectángulo_637" data-name="Rectángulo 637" width="3.098" height="7.747" transform="translate(21.423 11.481) rotate(-35.98)" fill="#fff"/>
          <rect id="Rectángulo_638" data-name="Rectángulo 638" width="3.101" height="7.747" transform="matrix(0.669, -0.743, 0.743, 0.669, 13.039, 19.466)" fill="#fff"/>
          <rect id="Rectángulo_639" data-name="Rectángulo 639" width="3.097" height="7.748" transform="translate(6.501 29.012) rotate(-59.965)" fill="#fff"/>
          <rect id="Rectángulo_640" data-name="Rectángulo 640" width="3.1" height="7.75" transform="translate(2.087 39.718) rotate(-71.994)" fill="#fff"/>
          <rect id="Rectángulo_641" data-name="Rectángulo 641" width="3.1" height="7.745" transform="matrix(0.104, -0.995, 0.995, 0.104, 0.001, 51.106)" fill="#fff"/>
          <rect id="Rectángulo_642" data-name="Rectángulo 642" width="7.745" height="3.1" transform="matrix(0.994, -0.105, 0.105, 0.994, 0, 59.596)" fill="#fff"/>
          <rect id="Rectángulo_643" data-name="Rectángulo 643" width="7.746" height="3.1" transform="translate(2.088 70.983) rotate(-18.04)" fill="#fff"/>
          <rect id="Rectángulo_644" data-name="Rectángulo 644" width="7.75" height="3.098" transform="matrix(0.866, -0.501, 0.501, 0.866, 6.498, 81.688)" fill="#fff"/>
          <rect id="Rectángulo_645" data-name="Rectángulo 645" width="7.747" height="3.098" transform="matrix(0.744, -0.669, 0.669, 0.744, 13.036, 91.231)" fill="#fff"/>
          <rect id="Rectángulo_646" data-name="Rectángulo 646" width="7.749" height="3.098" transform="translate(21.416 99.213) rotate(-53.909)" fill="#fff"/>
          <rect id="Rectángulo_647" data-name="Rectángulo 647" width="7.75" height="3.101" transform="translate(31.276 105.283) rotate(-65.953)" fill="#fff"/>
          <path id="Trazado_11232" data-name="Trazado 11232" d="M376.94,7517.243l-3.032-.649,1.614-7.58,3.032.649Z" transform="translate(-331.725 -7407.426)" fill="#fff"/>
          <rect id="Rectángulo_648" data-name="Rectángulo 648" width="3.098" height="7.747" transform="translate(53.658 102.956)" fill="#fff"/>
          <rect id="Rectángulo_649" data-name="Rectángulo 649" width="3.1" height="7.746" transform="translate(63.587 102.234) rotate(-11.994)" fill="#fff"/>
          <rect id="Rectángulo_650" data-name="Rectángulo 650" width="3.1" height="7.746" transform="translate(73.154 99.47) rotate(-23.958)" fill="#fff"/>
          <rect id="Rectángulo_651" data-name="Rectángulo 651" width="3.097" height="7.744" transform="translate(81.934 94.775) rotate(-36.004)" fill="#fff"/>
          <rect id="Rectángulo_652" data-name="Rectángulo 652" width="3.098" height="7.743" transform="translate(89.548 88.358) rotate(-47.989)" fill="#fff"/>
          <rect id="Rectángulo_653" data-name="Rectángulo 653" width="3.1" height="7.747" transform="matrix(0.5, -0.866, 0.866, 0.5, 95.656, 80.493)" fill="#fff"/>
          <rect id="Rectángulo_654" data-name="Rectángulo 654" width="3.099" height="7.745" transform="matrix(0.31, -0.951, 0.951, 0.31, 100, 71.535)" fill="#fff"/>
          <rect id="Rectángulo_655" data-name="Rectángulo 655" width="3.101" height="7.75" transform="translate(102.384 61.87) rotate(-83.987)" fill="#fff"/>
          <rect id="Rectángulo_656" data-name="Rectángulo 656" width="7.749" height="3.098" transform="translate(102.384 48.84) rotate(-6.022)" fill="#fff"/>
          <rect id="Rectángulo_657" data-name="Rectángulo 657" width="7.745" height="3.096" transform="translate(100.002 39.165) rotate(-17.943)" fill="#fff"/>
          <rect id="Rectángulo_658" data-name="Rectángulo 658" width="7.744" height="3.098" transform="matrix(0.866, -0.5, 0.5, 0.866, 95.658, 30.212)" fill="#fff"/>
          <rect id="Rectángulo_659" data-name="Rectángulo 659" width="7.747" height="3.098" transform="translate(89.545 22.346) rotate(-41.911)" fill="#fff"/>
          <path id="Trazado_11233" data-name="Trazado 11233" d="M400.354,7461.745l-2.51-1.821,4.557-6.265,2.51,1.82Z" transform="translate(-315.914 -7443.993)" fill="#fff"/>
          <rect id="Rectángulo_660" data-name="Rectángulo 660" width="7.747" height="3.096" transform="translate(73.154 11.238) rotate(-66)" fill="#fff"/>
          <rect id="Rectángulo_661" data-name="Rectángulo 661" width="7.747" height="3.097" transform="translate(63.591 8.472) rotate(-77.996)" fill="#fff"/>
        </g>
      </g>
    </g>
  </g>
</svg>
