<svg xmlns="http://www.w3.org/2000/svg" width="451.466" height="438.649" viewBox="0 0 451.466 438.649"><g transform="translate(-199.525 -3046.108)"><g transform="translate(212.718 3046.109)"><g transform="translate(172.231 355.524)"><g transform="translate(15.99 41.443)"><path d="M372.75,3409.054c-1.505-1.29-4.865-5.382-2.275-10.142.951-1.745,2.967-2.608,4.793-3.376a19.486,19.486,0,0,0,5.255-2.723c2.848-2.423,3.635-6.45,5.526-9.684,2.17-3.712,6.223-6.493,10.5-6.3,4.9.223,8.992,4.228,10.845,8.794s1.918,9.635,1.957,14.565c.022,2.727-.1,5.8-2.1,7.641-1.845,1.7-4.624,1.719-7.124,1.642l-26.794-.823" transform="translate(-369.525 -3376.821)" fill="#aed3f2"/></g><path d="M426.664,3342.3H356.2l12.692,75.683a8.45,8.45,0,0,0,6.016,6.738c.08.025.164.044.246.067.21.054.413.125.628.162a8.972,8.972,0,0,0,1.433.166l.011.072.344-.054h31.406a8.789,8.789,0,0,0,1.725-.173,8.483,8.483,0,0,0,7.129-7.4l6.118-52.147.276-2.074H424.2l2.422-20.65Zm-13.293,48.276h-7.231l.73-21.965h8.377Zm2.578-21.965h6.924l-2.578,21.965h-6.221Zm-20.658,46.314-.439-19.082h10.413l-.634,19.082Zm-11.258-19.082h10.119l.439,19.082h-9.075Zm.783,19.082h-8.483c-.807-5.152-1.856-11.847-2.991-19.082h9.99Zm-1.192-24.349-1.707-21.965h11.607l.507,21.965Zm11.107,0-.507-21.965h11.945l-.729,21.965Zm-.628-27.233L393.636,3343h13.385l-.676,20.341Zm-.7,0h-11.9L379.928,3343h13.008Zm-12.6,0H368.222c-.445-2.809-.868-5.468-1.25-7.861-1.313-8.223-1.807-11.315-2.08-12.48h14.334Zm.409,5.269,1.707,21.965H372.516c-.35-2.229-.7-4.483-1.06-6.74-.815-5.184-1.633-10.368-2.4-15.225Zm-9.409,21.965h-6.8l-3.684-21.965h7.022C369.42,3375.395,370.611,3382.949,371.807,3390.572Zm.828,5.267c1.036,6.6,2.056,13.114,2.99,19.082h-6.533l-3.2-19.082Zm32.7,19.082.634-19.082h6.956l-1.63,19.082Zm1.714-51.582L407.72,3343h9.716l-1.738,20.341ZM364.225,3343c.28,1.47,1.565,9.474,3.289,20.341h-7.072L357.029,3343Zm53.213,71.923h-5.445l1.63-19.082h6.055Zm6.052-51.582H416.4L418.138,3343h7.74Z" transform="translate(-356.203 -3342.295)" fill="#e1e1e1"/></g><g transform="translate(3.408 208.464)"><path d="M427.919,3289.62l-38.01,11.846a4.981,4.981,0,0,1-6.238-3.273l-16.4-52.611a4.982,4.982,0,0,1,3.273-6.238l24.106-7.513,24.654,13.416,11.886,38.134A4.983,4.983,0,0,1,427.919,3289.62Z" transform="translate(-367.046 -3231.831)" fill="#ececec"/><g transform="translate(27.607)"><path d="M390.045,3231.831l4.614,14.806a4.634,4.634,0,0,0,5.8,3.045l14.237-4.435Z" transform="translate(-390.045 -3231.831)" fill="#e1e1e1"/></g><g transform="translate(11.26 15.173)"><path d="M394.012,3244.494c.06.191-3.829,1.573-8.684,3.085s-8.842,2.587-8.9,2.4,3.829-1.572,8.686-3.086S393.953,3244.3,394.012,3244.494Z" transform="translate(-376.426 -3244.472)" fill="#fafafa"/></g><g transform="translate(13.87 20.014)"><path d="M407.542,3248.518c.06.19-6.371,2.364-14.362,4.854s-14.521,4.356-14.579,4.166,6.37-2.364,14.364-4.855S407.484,3248.327,407.542,3248.518Z" transform="translate(-378.601 -3248.505)" fill="#fafafa"/></g><g transform="translate(16.048 26.194)"><path d="M411.965,3253.665c.059.191-6.956,2.546-15.666,5.261s-15.824,4.762-15.883,4.572,6.954-2.546,15.668-5.261S411.906,3253.475,411.965,3253.665Z" transform="translate(-380.416 -3253.653)" fill="#fafafa"/></g><g transform="translate(18.104 32.789)"><path d="M413.678,3259.16c.059.189-6.956,2.546-15.667,5.261s-15.823,4.762-15.882,4.573,6.954-2.546,15.667-5.262S413.618,3258.969,413.678,3259.16Z" transform="translate(-382.129 -3259.148)" fill="#fafafa"/></g><g transform="translate(20.159 39.384)"><path d="M415.39,3264.654c.06.191-6.955,2.547-15.666,5.261s-15.823,4.763-15.883,4.572,6.955-2.544,15.668-5.261S415.331,3264.464,415.39,3264.654Z" transform="translate(-383.841 -3264.642)" fill="#fafafa"/></g><g transform="translate(22.216 45.98)"><path d="M417.1,3270.149c.059.19-6.956,2.546-15.667,5.261s-15.823,4.763-15.882,4.572,6.954-2.545,15.667-5.261S417.043,3269.959,417.1,3270.149Z" transform="translate(-385.554 -3270.137)" fill="#fafafa"/></g></g><g transform="translate(367.133)"><path d="M558.857,3121.527l-37.1-14.434a4.981,4.981,0,0,1-2.836-6.448l19.978-51.358a4.982,4.982,0,0,1,6.448-2.838l23.533,9.154,10.912,25.861-14.481,37.226A4.983,4.983,0,0,1,558.857,3121.527Z" transform="translate(-518.576 -3046.109)" fill="#ececec"/><g transform="translate(44.36 9.494)"><path d="M561.471,3054.018l-5.624,14.455a4.634,4.634,0,0,0,2.638,6l13.9,5.409Z" transform="translate(-555.532 -3054.018)" fill="#e1e1e1"/></g><g transform="translate(24.627 15.453)"><path d="M556.26,3065.679c-.073.185-3.974-1.16-8.714-3s-8.525-3.489-8.453-3.675,3.973,1.158,8.714,3S556.333,3065.493,556.26,3065.679Z" transform="translate(-539.092 -3058.983)" fill="#fafafa"/></g><g transform="translate(21.449 23.633)"><path d="M564.7,3076.8c-.072.186-6.455-2.125-14.256-5.159s-14.068-5.647-14-5.832,6.454,2.124,14.258,5.159S564.77,3076.612,564.7,3076.8Z" transform="translate(-536.445 -3065.797)" fill="#fafafa"/></g><g transform="translate(18.794 30.458)"><path d="M565.03,3083.473c-.072.186-7.026-2.346-15.529-5.654s-15.34-6.141-15.268-6.327,7.024,2.346,15.53,5.655S565.1,3083.287,565.03,3083.473Z" transform="translate(-534.233 -3071.483)" fill="#fafafa"/></g><g transform="translate(16.29 36.896)"><path d="M562.944,3088.837c-.072.185-7.026-2.347-15.529-5.654s-15.342-6.141-15.268-6.327,7.023,2.345,15.53,5.654S563.016,3088.651,562.944,3088.837Z" transform="translate(-532.146 -3076.847)" fill="#fafafa"/></g><g transform="translate(13.785 43.335)"><path d="M560.857,3094.2c-.072.186-7.026-2.345-15.529-5.653s-15.34-6.141-15.268-6.327,7.024,2.346,15.53,5.654S560.929,3094.015,560.857,3094.2Z" transform="translate(-530.06 -3082.211)" fill="#fafafa"/></g><g transform="translate(11.281 49.774)"><path d="M558.771,3099.565c-.073.185-7.026-2.346-15.529-5.653s-15.341-6.141-15.268-6.327,7.023,2.346,15.53,5.654S558.843,3099.379,558.771,3099.565Z" transform="translate(-527.974 -3087.575)" fill="#fafafa"/></g></g><g transform="translate(-13.193 48.401)"><g transform="translate(2.244)"><path d="M271.146,3233.156a2.97,2.97,0,0,1,2.5,3.376c-.149,1.033-.3,2.048-.365,2.5l-3.415,22.455a1.96,1.96,0,0,1-2.224,1.654l-51.4-7.818a1.96,1.96,0,0,1-1.647-2.121l2.624-29.1a1.962,1.962,0,0,1,2.24-1.774l11.625,1.768a4.688,4.688,0,0,1,2.833,1.562l2.089,2.4Z" transform="translate(-214.587 -3222.301)" fill="#e1e1e1"/></g><g transform="translate(0.863 5.925)"><rect width="56.802" height="34.28" transform="translate(5.155 0) rotate(8.649)" fill="#aed3f2"/></g><g transform="translate(0 7.054)"><path d="M213.806,3229.41l-1.087,35.993a1.258,1.258,0,0,0,1.064,1.287l54.727,8.324a1.259,1.259,0,0,0,1.412-.965l8.131-34.923a1.262,1.262,0,0,0-1.031-1.539l-61.769-9.4A1.263,1.263,0,0,0,213.806,3229.41Z" transform="translate(-212.718 -3228.177)" fill="#ececec"/></g></g><g transform="translate(140.968 273.96) rotate(-59)"><g transform="translate(2.244)"><path d="M271.146,3233.156a2.97,2.97,0,0,1,2.5,3.376c-.149,1.033-.3,2.048-.365,2.5l-3.415,22.455a1.96,1.96,0,0,1-2.224,1.654l-51.4-7.818a1.96,1.96,0,0,1-1.647-2.121l2.624-29.1a1.962,1.962,0,0,1,2.24-1.774l11.625,1.768a4.688,4.688,0,0,1,2.833,1.562l2.089,2.4Z" transform="translate(-214.587 -3222.301)" fill="#e1e1e1"/></g><g transform="translate(0.863 5.925)"><rect width="56.802" height="34.28" transform="translate(5.155 0) rotate(8.649)" fill="#aed3f2"/></g><g transform="translate(0 7.054)"><path d="M213.806,3229.41l-1.087,35.993a1.258,1.258,0,0,0,1.064,1.287l54.727,8.324a1.259,1.259,0,0,0,1.412-.965l8.131-34.923a1.262,1.262,0,0,0-1.031-1.539l-61.769-9.4A1.263,1.263,0,0,0,213.806,3229.41Z" transform="translate(-212.718 -3228.177)" fill="#ececec"/></g></g><g transform="translate(52.174 14.649)"><g transform="translate(0.167 0.262)"><rect width="250.769" height="157.078" transform="translate(0.095)" fill="#fff"/><rect width="250.769" height="14.395" transform="translate(0.095)" fill="#5e6178"/><rect width="250.864" height="28.32" transform="translate(0 153.959)" fill="#aed3f2"/><path d="M284.673,3197.708l-1.841-.269-.826-1.67-.822,1.67-1.845.269,1.335,1.3-.017.089-.3,1.747,1.648-.869,1.648.869-.313-1.835.063-.063Z" transform="translate(-251.712 -3031.038)" fill="none"/><path d="M271.822,3196.129a1.1,1.1,0,1,0,1.1,1.1A1.1,1.1,0,0,0,271.822,3196.129Z" transform="translate(-253.439 -3030.965)" fill="none"/><path d="M299.484,3198.749h2.243l.707,1.469h.481l-2.245-4.687h-.124l-2.251,4.688h.487Zm1.125-2.337.908,1.9H299.7Z" transform="translate(-247.914 -3031.085)" fill="#344154"/><rect width="5.312" height="0.374" transform="translate(50.023 170.132)" fill="#344154"/><path d="M272.159,3195.312H271.8a1.977,1.977,0,0,0-1.867,2.014,8.365,8.365,0,0,0,1.867,3.995s.139.246.359,0a8.362,8.362,0,0,0,1.865-3.995A1.977,1.977,0,0,0,272.159,3195.312Zm-.18,3.188a1.1,1.1,0,1,1,1.1-1.1A1.1,1.1,0,0,1,271.979,3198.5Z" transform="translate(-253.596 -3031.129)" fill="#344154"/><path d="M292.935,3200a1.136,1.136,0,1,1-2.272,0v-3.673a.736.736,0,1,1,1.472,0v3.115h0a.417.417,0,0,1-.816-.006v-2.4h-.275v2.4h.011a.68.68,0,0,0,1.347,0h.006v-.061c0-.017,0-.034,0-.052h0v-3.036h0a1.009,1.009,0,0,0-2.018,0h0v3.836h.006a1.411,1.411,0,0,0,2.81,0h.006v-3.092h-.275Z" transform="translate(-249.499 -3031.129)" fill="#344154"/><path d="M283.181,3197.254l-1.053-2.13-1.051,2.13-2.353.342,1.7,1.66-.4,2.343,2.1-1.106,2.1,1.106-.4-2.343,1.7-1.66Zm.6,3.719-1.649-.869-1.648.869.3-1.747.017-.089-1.335-1.3,1.844-.269.822-1.671.827,1.671,1.84.269-1.269,1.236-.062.064Z" transform="translate(-251.836 -3031.167)" fill="#344154"/><path d="M317,3192.942h-.342v10.917H317Zm-.172,10.916v0Z" transform="translate(-244.237 -3031.604)" fill="#344154"/><rect width="4.345" height="4.631" transform="translate(61.733 165.202)" fill="#344154"/><path d="M309.125,3195.258v.356h1.6v-.356H312.1v.713h-4.345v-.713Z" transform="translate(-246.02 -3031.14)" fill="#344154"/><rect width="1.601" height="0.357" transform="translate(63.105 163.761)" fill="#344154"/><rect width="1.601" height="0.356" transform="translate(63.105 164.118)" fill="#344154"/><path d="M325.385,3198.45l1.334-1.334.162.162-1.5,1.5-1.5-1.5.162-.162Z" transform="translate(-242.787 -3030.768)" fill="#344154"/><g transform="translate(5.56 5.639)"><circle cx="1.559" cy="1.559" r="1.559" fill="#fff"/><circle cx="1.559" cy="1.559" r="1.559" transform="translate(5.547)" fill="#fff"/><circle cx="1.559" cy="1.559" r="1.559" transform="translate(11.095)" fill="#fff"/></g><g transform="translate(23.713 32.99)"><rect width="144.511" height="15.106" transform="translate(0 15.106)" fill="#fff"/><rect width="144.511" height="15.106" fill="#d9a171"/><rect width="144.511" height="15.106" transform="translate(0 30.196)" fill="#dbdbdb"/><rect width="144.511" height="15.106" transform="translate(0 45.302)" fill="#fff"/><rect width="144.511" height="15.106" transform="translate(0 60.408)" fill="#dbdbdb"/><rect width="43.326" height="75.697" fill="#c7c7c7"/><path d="M276.078,3111.2l72.256-.183,72.256.183-72.256.2Z" transform="translate(-276.078 -3081.006)" fill="#344154"/><path d="M276.078,3123.787l72.256-.183,72.256.183-72.256.2Z" transform="translate(-276.078 -3078.485)" fill="#344154"/><path d="M276.078,3136.374l72.256-.2,72.256.2-72.256.184Z" transform="translate(-276.078 -3075.967)" fill="#344154"/><path d="M276.078,3148.943l72.256-.183,72.256.183-72.256.2Z" transform="translate(-276.078 -3073.445)" fill="#344154"/><path d="M282.53,3092.342c4.607-.306,9.227-.336,13.835-.383s9.227,0,13.846.383c-4.619.32-9.227.335-13.846.382S287.137,3092.693,282.53,3092.342Z" transform="translate(-274.786 -3084.827)" fill="#344154"/><path d="M282.53,3099.95c3.483-.236,6.979-.247,10.463-.281s6.979,0,10.474.281c-3.5.235-6.979.247-10.474.281S286.013,3100.185,282.53,3099.95Z" transform="translate(-274.786 -3083.282)" fill="#344154"/><path d="M320.61,3092.342c3.462-.306,6.934-.336,10.4-.383a84.518,84.518,0,0,1,10.407.383c-3.462.32-6.934.335-10.407.382A91.261,91.261,0,0,1,320.61,3092.342Z" transform="translate(-267.157 -3084.827)" fill="#344154"/><path d="M320.61,3104.952c3.462-.322,6.934-.336,10.4-.382a84.517,84.517,0,0,1,10.407.382c-3.462.321-6.934.336-10.407.382A98.806,98.806,0,0,1,320.61,3104.952Z" transform="translate(-267.157 -3082.301)" fill="#344154"/><path d="M320.61,3117.536c3.462-.321,6.934-.336,10.4-.382a84.758,84.758,0,0,1,10.407.382c-3.462.321-6.934.336-10.407.382A102.568,102.568,0,0,1,320.61,3117.536Z" transform="translate(-267.157 -3079.78)" fill="#344154"/><path d="M320.61,3117.536c3.462-.321,6.934-.336,10.4-.382a84.758,84.758,0,0,1,10.407.382c-3.462.321-6.934.336-10.407.382A102.568,102.568,0,0,1,320.61,3117.536Z" transform="translate(-312.732 -3079.78)" fill="#344154"/><path d="M320.61,3117.536c3.462-.321,6.934-.336,10.4-.382a84.758,84.758,0,0,1,10.407.382c-3.462.321-6.934.336-10.407.382A102.568,102.568,0,0,1,320.61,3117.536Z" transform="translate(-312.732 -3064.443)" fill="#344154"/><path d="M320.61,3117.536c3.462-.321,6.934-.336,10.4-.382a84.758,84.758,0,0,1,10.407.382c-3.462.321-6.934.336-10.407.382A102.568,102.568,0,0,1,320.61,3117.536Z" transform="translate(-312.732 -3049.353)" fill="#344154"/><path d="M320.61,3130.108c3.462-.3,6.934-.336,10.4-.382a84.71,84.71,0,0,1,10.407.382c-3.462.32-6.934.336-10.407.382A98.872,98.872,0,0,1,320.61,3130.108Z" transform="translate(-267.157 -3077.261)" fill="#344154"/><path d="M320.61,3142.693c3.462-.32,6.934-.336,10.4-.381a84.758,84.758,0,0,1,10.407.381c-3.462.321-6.934.336-10.407.382A98.806,98.806,0,0,1,320.61,3142.693Z" transform="translate(-267.157 -3074.74)" fill="#344154"/><path d="M345.656,3092.342c3.473-.306,6.934-.336,10.408-.383a84.256,84.256,0,0,1,10.4.383c-3.462.32-6.936.335-10.4.382A91.48,91.48,0,0,1,345.656,3092.342Z" transform="translate(-262.139 -3084.827)" fill="#344154"/><path d="M351.6,3142.691a13.711,13.711,0,0,1,3.372-.381,12.868,12.868,0,0,1,3.315.381,14.632,14.632,0,0,1-6.643,0Z" transform="translate(-260.948 -3074.738)" fill="#344154"/><path d="M351.6,3130.106a14.638,14.638,0,0,1,6.643,0A14.638,14.638,0,0,1,351.6,3130.106Z" transform="translate(-260.948 -3077.259)" fill="#344154"/><path d="M351.6,3117.534a14.645,14.645,0,0,1,6.643,0A14.645,14.645,0,0,1,351.6,3117.534Z" transform="translate(-260.948 -3079.777)" fill="#344154"/><path d="M351.6,3104.95a13.629,13.629,0,0,1,3.372-.382,12.868,12.868,0,0,1,3.315.382,13,13,0,0,1-3.315.382A13.77,13.77,0,0,1,351.6,3104.95Z" transform="translate(-260.948 -3082.299)" fill="#344154"/><path d="M370.7,3092.342c3.473-.306,6.934-.336,10.407-.383a84.256,84.256,0,0,1,10.4.383c-3.462.32-6.934.335-10.4.382A91.46,91.46,0,0,1,370.7,3092.342Z" transform="translate(-257.121 -3084.827)" fill="#344154"/><path d="M370.7,3104.952c3.473-.322,6.934-.336,10.407-.382a84.255,84.255,0,0,1,10.4.382c-3.462.321-6.934.336-10.4.382A99.022,99.022,0,0,1,370.7,3104.952Z" transform="translate(-257.121 -3082.301)" fill="#344154"/><path d="M370.7,3117.536c3.473-.321,6.934-.336,10.407-.382a84.5,84.5,0,0,1,10.4.382c-3.462.321-6.934.336-10.4.382A102.793,102.793,0,0,1,370.7,3117.536Z" transform="translate(-257.121 -3079.78)" fill="#344154"/><path d="M370.7,3130.108c3.473-.3,6.934-.336,10.407-.382a84.447,84.447,0,0,1,10.4.382c-3.462.32-6.934.336-10.4.382A99.088,99.088,0,0,1,370.7,3130.108Z" transform="translate(-257.121 -3077.261)" fill="#344154"/><path d="M370.7,3142.693c3.473-.32,6.934-.336,10.407-.381a84.5,84.5,0,0,1,10.4.381c-3.462.321-6.934.336-10.4.382A99.022,99.022,0,0,1,370.7,3142.693Z" transform="translate(-257.121 -3074.74)" fill="#344154"/></g></g><path d="M508.22,3240.853c0-1.757-.084-71.745-.214-182.279l.214.214-251.753.049h-.022l.263-.263c-.01,65.35-.018,127.322-.025,182.279l-.238-.238,251.775.238-251.775.238h-.238v-.239c-.007-54.956-.016-116.928-.024-182.279v-.262h.283l251.753.049h.214v.212C508.3,3169.108,508.223,3239.1,508.22,3240.853Z" transform="translate(-256.184 -3058.313)" fill="#344154"/></g><g transform="translate(202.594 48.401)"><g transform="translate(125.286 232.111)"><rect width="5.82" height="3.134" transform="translate(47.614 99.669)" fill="#e1e1e1"/><rect width="13.433" height="66.639" transform="translate(38.003 20.786)" fill="#ececec"/><path d="M561.091,3304.1H498.024a12.15,12.15,0,0,1-12.15-12.15h0a12.15,12.15,0,0,1,12.15-12.15h63.067a12.15,12.15,0,0,1,12.151,12.15h0A12.15,12.15,0,0,1,561.091,3304.1Z" transform="translate(-485.874 -3279.803)" fill="#5e6178"/><rect width="8.512" height="47.299" transform="translate(40.514 87.425)" fill="#e1e1e1"/><path d="M494.73,3415.1c-1.674.212,71.744,0,71.744,0s-31.322-3.5-33.342-23.056h-8.513S522.477,3411.565,494.73,3415.1Z" transform="translate(-484.105 -3257.318)" fill="#e1e1e1"/><g transform="translate(12.577 24.038)"><path d="M561.488,3300.091c0,.145-14.583.262-32.566.262s-32.57-.117-32.57-.262,14.579-.262,32.57-.262S561.488,3299.947,561.488,3300.091Z" transform="translate(-496.352 -3299.829)" fill="#344154"/></g><g transform="translate(37.88 87.163)"><path d="M530.987,3352.681a87.892,87.892,0,0,1-13.555,0,87.566,87.566,0,0,1,13.555,0Z" transform="translate(-517.432 -3352.418)" fill="#344154"/></g><path d="M530.677,3370.062h0a1.717,1.717,0,0,1-1.718-1.718v-6.71a1.718,1.718,0,0,1,1.718-1.719h0a1.717,1.717,0,0,1,1.718,1.719v6.71A1.716,1.716,0,0,1,530.677,3370.062Z" transform="translate(-477.242 -3263.753)" fill="#e1e1e1"/></g><g transform="translate(0 36.66)"><g transform="translate(44.533 22.676)"><path d="M418.6,3139.16s2.952-3.226,3.845-3.3,10.091,2.677,10.091,2.677a6.239,6.239,0,0,1,2.883,1.373c.823.961,9.892,10.823,9.892,10.823l-10.089,8.875s-11.816-2.125-12.846-3.361-1.853-3.227-1.1-3.845a5.158,5.158,0,0,1-.687-2.883,19.937,19.937,0,0,1,.617-2.094s-1.785-1.27-1.853-2.162a3.518,3.518,0,0,0-.343-1.373l-.412-.687Z" transform="translate(-418.599 -3135.864)" fill="#ffbf9d"/><g transform="translate(0.287 5.219)"><path d="M422.665,3140.213c.053.021.012.315-.161.766a3.561,3.561,0,0,1-1.111,1.545,2.3,2.3,0,0,1-1.88.439c-.5-.128-.706-.4-.671-.434.038-.056.288.1.72.135a2.364,2.364,0,0,0,1.572-.48,4.571,4.571,0,0,0,1.1-1.337C422.465,3140.45,422.607,3140.192,422.665,3140.213Z" transform="translate(-418.838 -3140.212)" fill="#ff9a6c"/></g></g><g transform="translate(2.273 4.849)"><path d="M389.4,3121.013a5.487,5.487,0,0,0-5.531,5.444l-.479,60.7a5.488,5.488,0,0,0,5.445,5.53l43.853.346a5.485,5.485,0,0,0,5.53-5.443l.3-60.734a5.622,5.622,0,0,0-5.6-5.65Z" transform="translate(-383.392 -3121.013)" fill="#e1e1e1"/><g transform="translate(9.726 17.953)"><path d="M411.784,3136.455c0,.218-4.546.361-10.148.317s-10.143-.258-10.142-.478,4.544-.361,10.148-.317S411.786,3136.235,411.784,3136.455Z" transform="translate(-391.495 -3135.969)" fill="#e1e1e1"/></g><g transform="translate(9.651 25.789)"><path d="M424.823,3143.048c0,.219-7.478.337-16.7.265s-16.7-.309-16.693-.529,7.477-.338,16.7-.265S424.825,3142.829,424.823,3143.048Z" transform="translate(-391.432 -3142.497)" fill="#e1e1e1"/></g><g transform="translate(9.587 33.862)"><path d="M427.778,3149.79c0,.219-8.153.332-18.2.253s-18.2-.321-18.2-.541,8.15-.333,18.2-.254S427.779,3149.57,427.778,3149.79Z" transform="translate(-391.379 -3149.223)" fill="#e1e1e1"/></g><g transform="translate(9.527 41.471)"><path d="M427.728,3156.128c0,.22-8.153.334-18.2.255s-18.2-.322-18.2-.542,8.15-.333,18.2-.253S427.729,3155.909,427.728,3156.128Z" transform="translate(-391.329 -3155.563)" fill="#e1e1e1"/></g><g transform="translate(9.467 49.081)"><path d="M427.678,3162.469c0,.22-8.153.332-18.2.253s-18.2-.32-18.2-.54,8.15-.333,18.2-.254S427.679,3162.249,427.678,3162.469Z" transform="translate(-391.279 -3161.902)" fill="#e1e1e1"/></g><g transform="translate(9.407 56.691)"><path d="M427.628,3168.808c0,.22-8.153.333-18.2.255s-18.2-.322-18.2-.541,8.15-.333,18.2-.254S427.629,3168.588,427.628,3168.808Z" transform="translate(-391.229 -3168.242)" fill="#e1e1e1"/></g></g><g transform="translate(0 2.977)"><path d="M387.712,3119.5a5.488,5.488,0,0,0-5.53,5.444l-.479,60.7a5.486,5.486,0,0,0,5.443,5.53l43.854.347a5.489,5.489,0,0,0,5.53-5.445l.3-60.733a5.621,5.621,0,0,0-5.6-5.65Z" transform="translate(-381.457 -3119.443)" fill="#fff"/><path d="M387.753,3119.513s.214-.016.629-.024l1.845-.018,7.1-.018,26.092.032,4.228.01,2.186.006a19.724,19.724,0,0,1,2.257.068,5.838,5.838,0,0,1,3.947,2.427,5.716,5.716,0,0,1,.949,2.243,13.614,13.614,0,0,1,.1,2.442c-.024,6.478-.05,13.4-.077,20.679s-.064,14.927-.1,22.852q-.027,5.944-.055,12.086-.007,1.536-.014,3.08a6.549,6.549,0,0,1-.564,3.133,5.777,5.777,0,0,1-5.271,3.282l-24.54-.2-11.668-.1q-2.859-.025-5.657-.049a24.936,24.936,0,0,1-2.814-.1,5.592,5.592,0,0,1-2.6-1.132,5.805,5.805,0,0,1-2.211-4.92q.025-2.661.048-5.249.047-5.177.092-10.038c.062-6.476.12-12.509.174-18.018.121-11,.221-19.91.289-26.088a9.434,9.434,0,0,1,.172-2.188,5.351,5.351,0,0,1,.775-1.771,5.488,5.488,0,0,1,4.062-2.427,5.563,5.563,0,0,1,.63-.008,6.23,6.23,0,0,0-2.37.582,5.42,5.42,0,0,0-2.192,1.939,5.188,5.188,0,0,0-.731,1.726,9.317,9.317,0,0,0-.143,2.147c-.03,6.179-.071,15.088-.122,26.09-.035,5.51-.071,11.542-.11,18.018q-.032,4.858-.066,10.038-.018,2.588-.036,5.249a5.316,5.316,0,0,0,2.035,4.535,5.1,5.1,0,0,0,2.383,1.032,25.5,25.5,0,0,0,2.74.085l5.657.041,11.668.085,24.54.188a5.251,5.251,0,0,0,4.794-2.984,5.989,5.989,0,0,0,.514-2.91q.009-1.547.016-3.08.032-6.14.064-12.088c.044-7.924.086-15.568.127-22.851s.086-14.2.126-20.678a13.372,13.372,0,0,0-.086-2.361,5.278,5.278,0,0,0-.874-2.083,5.43,5.43,0,0,0-3.66-2.267,19.59,19.59,0,0,0-2.2-.072l-2.185-.014-4.229-.028-26.091-.2-7.094-.081-1.845-.033C387.965,3119.532,387.753,3119.513,387.753,3119.513Z" transform="translate(-381.498 -3119.453)" fill="#344154"/><g transform="translate(9.972 18.013)"><path d="M410.094,3134.945c0,.22-4.546.362-10.146.317s-10.144-.258-10.142-.476,4.543-.363,10.148-.318S410.1,3134.725,410.094,3134.945Z" transform="translate(-389.806 -3134.459)" fill="#344154"/></g><g transform="translate(9.895 25.848)"><path d="M423.134,3141.538c0,.219-7.479.338-16.7.265s-16.7-.31-16.694-.529,7.477-.338,16.7-.265S423.135,3141.318,423.134,3141.538Z" transform="translate(-389.742 -3140.987)" fill="#344154"/></g><g transform="translate(9.831 33.922)"><path d="M426.088,3148.28c0,.22-8.151.333-18.2.254s-18.2-.322-18.2-.541,8.15-.334,18.2-.255S426.091,3148.06,426.088,3148.28Z" transform="translate(-389.689 -3147.713)" fill="#344154"/></g><g transform="translate(9.771 41.532)"><path d="M426.038,3154.619c0,.221-8.152.333-18.2.255s-18.2-.322-18.2-.542,8.15-.332,18.2-.253S426.04,3154.4,426.038,3154.619Z" transform="translate(-389.639 -3154.053)" fill="#344154"/></g><g transform="translate(9.711 49.141)"><path d="M425.988,3160.959c0,.219-8.152.334-18.2.254s-18.2-.321-18.2-.541,8.15-.334,18.2-.254S425.991,3160.739,425.988,3160.959Z" transform="translate(-389.589 -3160.392)" fill="#344154"/></g><g transform="translate(9.651 56.751)"><path d="M425.938,3167.3c0,.22-8.152.332-18.2.253s-18.2-.322-18.2-.541,8.15-.333,18.2-.254S425.94,3167.079,425.938,3167.3Z" transform="translate(-389.539 -3166.732)" fill="#344154"/></g></g><path d="M392.6,3126.482v-5.051a1.526,1.526,0,0,0-1.527-1.527h0a1.527,1.527,0,0,0-1.527,1.527v7.077a2.45,2.45,0,0,0,2.451,2.45h0a2.45,2.45,0,0,0,2.45-2.45v-8.128a3.409,3.409,0,0,0-3.409-3.408h0a3.411,3.411,0,0,0-3.212,2.264v.4" transform="translate(-380.232 -3116.973)" fill="none" stroke="#1a2e35" stroke-linecap="round" stroke-linejoin="round" stroke-width="0.75"/><path d="M438.9,3145.994l-4.81-2.987-12.314-6.5s-2.447,2.376,1.685,5.8l5.094,4.036s4.526,8.3,5.5,8.912a57.057,57.057,0,0,0,5.415,2.22Z" transform="translate(-373.574 -3113.059)" fill="#ffbf9d"/><g transform="translate(47.287 23.048)"><path d="M439.97,3157.731a2.11,2.11,0,0,1-.5-.109c-.321-.089-.792-.229-1.391-.433s-1.33-.466-2.155-.834a12.341,12.341,0,0,1-1.293-.661,4.082,4.082,0,0,1-1.244-1.084,56.38,56.38,0,0,1-4.157-6.783q-.277-.484-.561-.978a3,3,0,0,0-.727-.815c-.58-.507-1.215-.99-1.857-1.486a46.329,46.329,0,0,1-3.915-3.2,4.069,4.069,0,0,1-.7-5.021l.1-.152.169.094c4.926,2.78,9.167,5.321,12.378,6.805,1.557.853,2.746,1.618,3.569,2.137.377.248.684.451.933.614a1.623,1.623,0,0,1,.309.236,1.556,1.556,0,0,1-.348-.172c-.258-.146-.577-.33-.969-.553-.844-.48-2.059-1.208-3.618-2.022-3.241-1.415-7.53-3.923-12.46-6.681l.27-.057a3.312,3.312,0,0,0-.45,2.285,4,4,0,0,0,1.119,2.187,47.434,47.434,0,0,0,3.867,3.168c.642.5,1.276.987,1.873,1.512.15.127.293.271.436.414a2.674,2.674,0,0,1,.364.5l.561.992a60.32,60.32,0,0,0,4.049,6.785,6.058,6.058,0,0,0,2.4,1.718c.805.386,1.523.668,2.111.9.556.208,1.007.376,1.361.506A2.7,2.7,0,0,1,439.97,3157.731Z" transform="translate(-420.894 -3136.174)" fill="#ff9a6c"/></g></g><g transform="translate(134.171)"><g transform="translate(40.872 16.207)"><path d="M551.522,3129.895c-.169-2.989-.543-17.531-.715-19.742a12.257,12.257,0,0,0-3.659-8c-2.192-2.038-5.6-2.911-8.294-1.6h0a5.122,5.122,0,0,0-3.668,3.593c-6.122,21.762-5.156,44.934-7.859,67.44,7.987,1.3,18.738.768,26.82.345C554.147,3153.962,552.627,3149.294,551.522,3129.895Z" transform="translate(-527.327 -3099.934)" fill="#344154"/><g transform="translate(14.333 6.193)"><path d="M545.763,3159.544a2.393,2.393,0,0,1-.064-.582c-.02-.439-.046-.99-.078-1.668-.047-1.521-.11-3.6-.188-6.138-.109-5.249-.259-12.378-.424-20.256-.061-3.954-.119-7.718-.171-11.153-.022-1.712-.041-3.339-.06-4.867a24.3,24.3,0,0,0-.289-4.192,6.83,6.83,0,0,0-3.114-4.92,5.435,5.435,0,0,0-2.108-.642c0-.01.05-.017.149-.022a2.37,2.37,0,0,1,.438,0,4.242,4.242,0,0,1,1.618.482,5.971,5.971,0,0,1,2.012,1.764,8.1,8.1,0,0,1,1.368,3.265,23.831,23.831,0,0,1,.36,4.254c.034,1.529.07,3.157.108,4.867.065,3.436.137,7.2.211,11.153.106,7.879.2,15.009.271,20.259.01,2.539.017,4.619.022,6.141-.008.679-.014,1.232-.02,1.671A2.54,2.54,0,0,1,545.763,3159.544Z" transform="translate(-539.268 -3105.093)" fill="#5e6178"/></g><g transform="translate(13.419 19.046)"><path d="M538.652,3149.148a6.288,6.288,0,0,1-.1-1.311c-.028-.845-.047-2.067-.048-3.576-.007-3.02.06-7.19.174-11.792.126-4.55.241-8.663.328-11.787.047-1.426.088-2.623.119-3.571a6.257,6.257,0,0,1,.107-1.31,6.376,6.376,0,0,1,.1,1.311c.028.844.047,2.066.048,3.576.006,3.019-.06,7.189-.174,11.793-.127,4.548-.241,8.66-.328,11.784-.048,1.427-.088,2.624-.119,3.572A6.364,6.364,0,0,1,538.652,3149.148Z" transform="translate(-538.507 -3115.801)" fill="#5e6178"/></g></g><g transform="translate(6.939)"><path d="M519.864,3086.522c6-.62,11.059,2,15.841,5.674a29.782,29.782,0,0,1,10.025,14.711c1.9,6.057,1.925,14.641-.233,20.611a18.459,18.459,0,0,1-12.419,11.743c-8.344,2.357-17.746,1.4-24.3-4.269s-9.94-14.554-9.7-23.221a28.646,28.646,0,0,1,5.636-16.7,21.819,21.819,0,0,1,15.159-8.552" transform="translate(-499.057 -3086.432)" fill="#344154"/></g><g transform="translate(2.547 0.089)"><g transform="translate(0.692)"><path d="M536.026,3107.775c-.719-2.325-.217-4.836-.4-7.263-.409-5.344-4.4-9.868-9.2-12.255-4.463-2.22-10.1-2.168-15.742-.743a21.154,21.154,0,0,0-10.3,5.794,16.662,16.662,0,0,0-4.034,14.733l27.346-2.171c2.4,2.264,4.855,4.567,7.855,5.939a5.61,5.61,0,0,0,2.8.635,2.526,2.526,0,0,0,2.221-1.6C536.879,3109.833,536.338,3108.786,536.026,3107.775Z" transform="translate(-495.974 -3086.506)" fill="#344154"/></g><g transform="translate(0 8.374)"><path d="M509.731,3093.556l23.321,6.559a4.424,4.424,0,0,1,3.839,4.592l-3.635,51.161a15.919,15.919,0,0,1-3.965,9.433l-2.445,2.761c-5.577,6.3-15.95,4.946-19.393-2.727a5.6,5.6,0,0,1-.456-1.376,10.4,10.4,0,0,1-.148-1.169,37.088,37.088,0,0,1,.1-7.777c.067-4.572.119-6.447.114-6.4,0,0-9.6-1.857-11.262-14.489-.827-6.281-.24-16.53.511-24.9C496.987,3101.688,502.233,3092.562,509.731,3093.556Z" transform="translate(-495.398 -3093.482)" fill="#ffbf9d"/></g><g transform="translate(2.973 27.895)"><g transform="translate(0.907 4.642)"><path d="M498.632,3115.029a1.613,1.613,0,0,0,1.512,1.668,1.544,1.544,0,0,0,1.7-1.41,1.616,1.616,0,0,0-1.511-1.67A1.545,1.545,0,0,0,498.632,3115.029Z" transform="translate(-498.63 -3113.612)" fill="#344154"/></g><path d="M497.9,3111.357c.194.216,1.44-.656,3.177-.6,1.734.025,2.984.952,3.179.744.095-.091-.1-.477-.642-.9a4.433,4.433,0,0,0-2.539-.855,4.25,4.25,0,0,0-2.535.744C497.993,3110.886,497.8,3111.26,497.9,3111.357Z" transform="translate(-497.874 -3109.745)" fill="#344154"/><g transform="translate(16.452 0.654)"><g transform="translate(0 4.615)"><path d="M511.583,3115.551a1.615,1.615,0,0,0,1.512,1.67,1.544,1.544,0,0,0,1.7-1.411,1.614,1.614,0,0,0-1.51-1.67A1.544,1.544,0,0,0,511.583,3115.551Z" transform="translate(-511.581 -3114.135)" fill="#344154"/></g><g transform="translate(0.018)"><path d="M511.619,3111.9c.2.216,1.443-.655,3.177-.605,1.734.025,2.985.953,3.178.746.095-.092-.1-.476-.642-.9a4.419,4.419,0,0,0-2.538-.856,4.256,4.256,0,0,0-2.536.744C511.716,3111.431,511.524,3111.806,511.619,3111.9Z" transform="translate(-511.596 -3110.29)" fill="#344154"/></g></g><g transform="translate(6.047 0.654)"><path d="M507.3,3124.732a11.575,11.575,0,0,0-2.806-.583c-.442-.057-.859-.156-.925-.461a2.257,2.257,0,0,1,.33-1.306q.668-1.593,1.4-3.341c1.947-4.757,3.371-8.675,3.178-8.75s-1.928,3.716-3.876,8.474q-.7,1.759-1.346,3.362a2.564,2.564,0,0,0-.277,1.734,1.113,1.113,0,0,0,.712.667,2.976,2.976,0,0,0,.75.125A11.189,11.189,0,0,0,507.3,3124.732Z" transform="translate(-502.912 -3110.289)" fill="#344154"/></g><g transform="translate(8.631 31.561)"><path d="M505.125,3140.084a32.02,32.02,0,0,0,16.966-4.046s-4.466,8.594-17.026,7.083Z" transform="translate(-505.065 -3136.039)" fill="#ff9a6c"/></g><g transform="translate(10.877 18.184)"><path d="M507.119,3126.009a3.13,3.13,0,0,1,2.835-1.088,2.858,2.858,0,0,1,1.943,1.11,1.809,1.809,0,0,1,.083,2.073,2.1,2.1,0,0,1-2.29.515,6.6,6.6,0,0,1-2.185-1.383,1.923,1.923,0,0,1-.481-.527.58.58,0,0,1,.019-.646" transform="translate(-506.936 -3124.893)" fill="#ff9a6c"/></g><g transform="translate(9.858 16.433)"><path d="M511.742,3123.435c-.281-.024-.335,1.861-1.983,3.155s-3.649,1.035-3.671,1.3c-.029.117.438.378,1.284.424a4.692,4.692,0,0,0,3.061-.977,4.088,4.088,0,0,0,1.544-2.648C512.07,3123.9,511.871,3123.428,511.742,3123.435Z" transform="translate(-506.087 -3123.435)" fill="#344154"/></g></g><g transform="translate(19.893 23.813)"><path d="M511.978,3107.56c.158.476,1.9.3,3.926.6,2.037.259,3.663.9,3.945.483.126-.2-.149-.651-.8-1.125a6.907,6.907,0,0,0-6-.825C512.3,3106.973,511.91,3107.334,511.978,3107.56Z" transform="translate(-511.971 -3106.344)" fill="#344154"/></g><g transform="translate(3.661 20.211)"><path d="M498.489,3105.062c.294.4,1.5.025,2.94.043,1.439-.031,2.649.336,2.94-.069.128-.2-.053-.6-.575-.984a4.26,4.26,0,0,0-4.738.02C498.537,3104.464,498.359,3104.866,498.489,3105.062Z" transform="translate(-498.448 -3103.344)" fill="#344154"/></g><g transform="translate(13.19 0.208)"><path d="M538.513,3104.372c-1.981-7.361-12.043-17.875-19.664-17.69l-12.463,6.725a11.721,11.721,0,0,0,7.536,9.317c2.115.751,4.691,1.048,5.882,2.95,1.217,1.944.331,4.651,1.455,6.65,1.558,2.768,6.157,2.849,7.285,5.819.492,1.3.136,2.8.652,4.093.688,1.718,4.848,4.043,6.634,3.565s1.928-3.476,2.576-5.021a8.322,8.322,0,0,0,.508-5.565C538.308,3111.63,539.458,3107.884,538.513,3104.372Z" transform="translate(-506.386 -3086.679)" fill="#344154"/></g><g transform="translate(37.347 37.26)"><path d="M526.534,3120.866c.028-.938,1.169-3.116,2.1-3.236,2.48-.319,6.927,0,6.8,6.271-.172,8.578-8.748,6.637-8.758,6.391C526.668,3130.1,526.44,3124.1,526.534,3120.866Z" transform="translate(-526.511 -3117.547)" fill="#ffbf9d"/></g><g transform="translate(40.189 40.053)"><path d="M528.887,3126.629c.038-.026.148.107.4.228a1.491,1.491,0,0,0,1.116.046c.914-.314,1.7-1.738,1.778-3.283a4.944,4.944,0,0,0-.376-2.148,1.728,1.728,0,0,0-1.1-1.169.762.762,0,0,0-.891.391c-.12.239-.068.411-.114.424-.025.021-.181-.146-.106-.5a.96.96,0,0,1,.348-.531,1.128,1.128,0,0,1,.832-.2,2.1,2.1,0,0,1,1.534,1.361,5.066,5.066,0,0,1,.469,2.4c-.089,1.727-1.006,3.326-2.253,3.661a1.606,1.606,0,0,1-1.362-.255C528.9,3126.836,528.857,3126.643,528.887,3126.629Z" transform="translate(-528.879 -3119.873)" fill="#ff9a6c"/></g></g><g transform="translate(50.51 13.426)"><path d="M539.732,3114.073a7.655,7.655,0,0,0,.489-2.546,18.9,18.9,0,0,0-3.171-11.941,7.711,7.711,0,0,0-1.687-1.969c-.166.1,2.518,3.129,3.727,7.818C540.366,3110.105,539.539,3114.068,539.732,3114.073Z" transform="translate(-535.356 -3097.616)" fill="#d9a171"/></g><g transform="translate(0 4.326)"><path d="M511.666,3090.31c-1.014,3.431-6.6,7.55-9.1,10.108-4.771,4.883-5.657,5.59-6.622,21.177a36.943,36.943,0,0,1-2.571-15.712,18.71,18.71,0,0,1,5.756-11.938,14.567,14.567,0,0,1,12.538-3.635" transform="translate(-493.276 -3090.036)" fill="#344154"/></g><g transform="translate(17.039 7.121)"><path d="M542.664,3103.406a8.356,8.356,0,0,1-1.476.266,17.036,17.036,0,0,1-1.751.188c-.685.044-1.466.129-2.331.117a40.969,40.969,0,0,1-6.069-.334,42.567,42.567,0,0,1-14.156-4.441,41.01,41.01,0,0,1-5.172-3.193c-.717-.485-1.31-1-1.846-1.427a16.818,16.818,0,0,1-1.33-1.155,8.366,8.366,0,0,1-1.06-1.062,8.586,8.586,0,0,1,1.191.911c.367.311.821.684,1.376,1.083s1.154.893,1.877,1.355a45.241,45.241,0,0,0,5.178,3.069,44.894,44.894,0,0,0,14.006,4.394,45.306,45.306,0,0,0,6,.438c.858.035,1.634-.024,2.315-.039s1.269-.058,1.748-.1A8.516,8.516,0,0,1,542.664,3103.406Z" transform="translate(-507.471 -3092.364)" fill="#5e6178"/></g><g transform="translate(28.209 17.862)"><path d="M541.29,3107.8a3.921,3.921,0,0,1-1.007.177,24.292,24.292,0,0,1-2.781.171,34.393,34.393,0,0,1-17.6-4.661,24.561,24.561,0,0,1-2.332-1.523,3.919,3.919,0,0,1-.787-.654c.052-.074,1.242.757,3.3,1.862a38.645,38.645,0,0,0,17.43,4.614C539.835,3107.848,541.282,3107.716,541.29,3107.8Z" transform="translate(-516.777 -3101.312)" fill="#5e6178"/></g><g transform="translate(41.732 24.707)"><path d="M541.181,3107.015a5.382,5.382,0,0,1,.205,1.306,33.4,33.4,0,0,1,.121,3.6,51.61,51.61,0,0,1-.343,5.332,34.79,34.79,0,0,1-1.3,6.428,17.241,17.241,0,0,1-7.263,9.256,16.61,16.61,0,0,1-3.285,1.5,5.459,5.459,0,0,1-1.277.342,7.771,7.771,0,0,1,1.205-.532,20.082,20.082,0,0,0,3.162-1.629,15.812,15.812,0,0,0,3.878-3.506,17.394,17.394,0,0,0,3.081-5.6,36.844,36.844,0,0,0,1.314-6.327c.258-1.978.388-3.774.454-5.282s.071-2.732.044-3.577A7.89,7.89,0,0,1,541.181,3107.015Z" transform="translate(-528.043 -3107.015)" fill="#5e6178"/></g></g><g transform="translate(60.477 74.211)"><path d="M442.649,3148.256l24.878,25.189c3.275-.755,43.42-24.754,43.42-24.754l6.345,30.88s-41.086,18.888-52.394,16.6c-1.846-.375-4.883-.61-6.787-3.056-9.045-11.624-26.23-36.106-26.23-36.106Z" transform="translate(-431.882 -3148.256)" fill="#ffbf9d"/></g><g transform="translate(49.051 161.531)"><g transform="translate(54.819 128.067)"><path d="M468.033,3343.175l12.281,26.616,19.817-9.156-12.7-32.94Z" transform="translate(-468.033 -3327.695)" fill="#ffbf9d"/></g><g transform="translate(55.046 157.158)"><g transform="translate(0.153)"><path d="M477.929,3363.159l7.176,13.683s-18.366,18.99-16.642,23.236l43.176-20.7-11.862-27.444Z" transform="translate(-468.349 -3351.931)" fill="#5e6178"/></g><g transform="translate(27.836 16.611)"><path d="M492.938,3365.8a1.956,1.956,0,0,1,2.185,1.428,1.879,1.879,0,0,1-1.4,2.176,2.061,2.061,0,0,1-2.3-1.523,1.949,1.949,0,0,1,1.7-2.1" transform="translate(-491.412 -3365.77)" fill="#e1e1e1"/></g><g transform="translate(0 24.003)" opacity="0.6"><path d="M511.665,3375.369l-1.8-3.441-40.725,21.135s-1.521,1.757-.654,3.008Z" transform="translate(-468.222 -3371.928)" fill="#fff"/></g><g transform="translate(16.092 24.166)"><path d="M481.639,3372.924c.108.207,1.209-.2,2.571-.022,1.367.146,2.339.8,2.493.625.175-.135-.744-1.243-2.4-1.433S481.5,3372.752,481.639,3372.924Z" transform="translate(-481.628 -3372.063)" fill="#344154"/></g><g transform="translate(12.469 28.694)"><path d="M478.614,3376.213c.049.227,1.134.148,2.278.7,1.16.515,1.8,1.393,2.008,1.282.214-.062-.233-1.366-1.667-2.022S478.521,3376.009,478.614,3376.213Z" transform="translate(-478.609 -3375.836)" fill="#344154"/></g><g transform="translate(9.098 32.799)"><path d="M479.2,3382.18c.212-.046,0-1.24-1.094-2.135s-2.3-.883-2.307-.664c-.036.23.9.543,1.79,1.292C478.5,3381.4,478.983,3382.26,479.2,3382.18Z" transform="translate(-475.801 -3379.255)" fill="#344154"/></g><g transform="translate(14.014 17.574)"><path d="M479.926,3368.753c.181.15,1.008-.6,2.239-1.094,1.221-.516,2.341-.561,2.363-.794.049-.211-1.23-.558-2.672.041S479.744,3368.638,479.926,3368.753Z" transform="translate(-479.897 -3366.572)" fill="#344154"/></g></g><g transform="translate(23.259 24.727)"><path d="M472.325,3374.881,441.74,3291.72s.727-13.822,3.273-18.188,79.66-29.827,79.66-29.827,19.642-4.728,32.737,0,26.4,10.567,25.094,19.748a24.355,24.355,0,0,1-1.006,4.126,33.376,33.376,0,0,1-30.833,22.637l-10.191,1.141-51.982,9.922a3.99,3.99,0,0,0-3.073,5.066l16.793,55.944S483.87,3371.238,472.325,3374.881Z" transform="translate(-441.74 -3241.604)" fill="#344154"/></g><g transform="translate(26.107 95.171)"><path d="M444.843,3305.617l-.73,29.3,21.823.533,3.144-35.164Z" transform="translate(-444.113 -3300.289)" fill="#ffbf9d"/></g><g transform="translate(0 125.9)"><g transform="translate(0.017)"><path d="M448.468,3325.89l-.9,16.728s-24.864,8.932-25.19,13.5l47.88.485,1.472-29.862Z" transform="translate(-422.377 -3325.89)" fill="#5e6178"/></g><g transform="translate(20.802 2.686)"><path d="M443.873,3332.738a1.722,1.722,0,0,1,.029-.856,5.332,5.332,0,0,1,.964-2.177,3.123,3.123,0,0,1,.575-.629,1.18,1.18,0,0,1,1.079-.217.734.734,0,0,1,.478.429.84.84,0,0,1-.023.581,5.559,5.559,0,0,1-.5.874c-.375.566-.683,1.128-1.161,1.765a1.445,1.445,0,0,1-1.282.517,2.918,2.918,0,0,1-1.238-.492,10.306,10.306,0,0,1-1.819-1.5,9.727,9.727,0,0,1-.717-.836,2.682,2.682,0,0,1-.539-.962.884.884,0,0,1,.547-1.048,1.317,1.317,0,0,1,1.152.234,6.634,6.634,0,0,1,1.214,1.234,7.9,7.9,0,0,1,1.191,2.073,1.923,1.923,0,0,1,.208.833,15.946,15.946,0,0,0-1.722-2.691,6.9,6.9,0,0,0-1.167-1.106.836.836,0,0,0-.684-.162.443.443,0,0,0-.223.539,2.357,2.357,0,0,0,.472.777,10.163,10.163,0,0,0,.69.787,10.267,10.267,0,0,0,1.731,1.417,2.384,2.384,0,0,0,.969.4.847.847,0,0,0,.778-.322c.4-.519.779-1.16,1.146-1.693a5.878,5.878,0,0,0,.481-.78c.1-.244.042-.4-.148-.471-.436-.161-.861.281-1.156.657A7.721,7.721,0,0,0,443.873,3332.738Z" transform="translate(-439.693 -3328.128)" fill="#344154"/></g><g transform="translate(37.678 14.718)"><path d="M456.107,3338.236a1.956,1.956,0,0,1,1.33,2.246,1.881,1.881,0,0,1-2.213,1.338,2.064,2.064,0,0,1-1.4-2.385,1.95,1.95,0,0,1,2.457-1.136" transform="translate(-453.752 -3338.151)" fill="#e1e1e1"/></g><g transform="translate(0 26.835)" opacity="0.6"><path d="M470.26,3352.127l-.092-3.881-45.872.985s-2.141.906-1.916,2.41Z" transform="translate(-422.363 -3348.246)" fill="#fff"/></g><g transform="translate(24.432 16.268)"><path d="M442.718,3339.651c.006.234,1.174.352,2.317,1.115,1.162.734,1.745,1.753,1.961,1.663.216-.043-.119-1.445-1.518-2.344S442.67,3339.436,442.718,3339.651Z" transform="translate(-442.717 -3339.442)" fill="#344154"/></g><g transform="translate(19.388 18.41)"><path d="M438.517,3341.32c-.055.225.953.634,1.737,1.631.813.974,1,2.044,1.235,2.037.22.038.4-1.329-.6-2.55S438.525,3341.1,438.517,3341.32Z" transform="translate(-438.515 -3341.227)" fill="#344154"/></g><g transform="translate(14.645 20.432)"><path d="M436.4,3346.964c.212.052.549-1.113-.038-2.4s-1.676-1.806-1.777-1.613c-.134.19.569.885,1.035,1.949C436.106,3345.951,436.164,3346.938,436.4,3346.964Z" transform="translate(-434.564 -3342.912)" fill="#344154"/></g><g transform="translate(24.904 10.02)"><path d="M443.118,3335.055c.1.214,1.172-.1,2.493.005,1.323.077,2.345.53,2.47.331.137-.168-.858-1.043-2.416-1.143S443.006,3334.869,443.118,3335.055Z" transform="translate(-443.11 -3334.238)" fill="#344154"/></g></g><g transform="translate(16.767 18.912)"><path d="M459.146,3236.99s-13.075-1.045-14.53,13.142-8.283,79.939-8.283,79.939l35.955,3,4.728-67.656,48.742-20.735S467.876,3235.171,459.146,3236.99Z" transform="translate(-436.332 -3236.758)" fill="#344154"/></g><g transform="translate(86.858)"><path d="M501.34,3221s-7.935,22.249-6.424,24.728,21.917,12.681,21.917,12.681l51.061,19.612s5.243-8.343,5.243-21.156S555.377,3221,555.377,3221Z" transform="translate(-494.725 -3221.003)" fill="#344154"/></g><g transform="translate(22.166 25.693)"><path d="M527.272,3242.409a1.2,1.2,0,0,1-.24.129l-.725.336-2.828,1.258-10.613,4.624-36.644,15.774.166-.231c-.464,6.682-.965,13.9-1.482,21.367-1.242,17.457-2.387,33.552-3.294,46.286l-.016.231-.229-.021-22.26-1.954-6.129-.571-1.6-.167a3.319,3.319,0,0,1-.546-.081,3.5,3.5,0,0,1,.552.012l1.607.1,6.139.45,22.276,1.757-.245.21c.874-12.735,1.979-28.833,3.177-46.293.526-7.467,1.035-14.684,1.505-21.366l.011-.168.155-.065,36.723-15.588,10.676-4.478,2.864-1.175.743-.293A1.27,1.27,0,0,1,527.272,3242.409Z" transform="translate(-440.83 -3242.408)" fill="#5e6178"/></g><g transform="translate(112.621 22.009)"><path d="M552.783,3245.249a7.391,7.391,0,0,1-1.433-.391l-3.845-1.24a83.919,83.919,0,0,0-12.866-3.25,37.714,37.714,0,0,0-13.171.169,53.2,53.2,0,0,0-5.279,1.53,6.352,6.352,0,0,1,1.329-.673,23.651,23.651,0,0,1,3.864-1.251,35.407,35.407,0,0,1,13.343-.34,71.615,71.615,0,0,1,12.91,3.433c1.611.572,2.9,1.061,3.791,1.413A7.323,7.323,0,0,1,552.783,3245.249Z" transform="translate(-516.188 -3239.339)" fill="#5e6178"/></g><g transform="translate(113.343 15.749)"><path d="M545.445,3234.567a37.449,37.449,0,0,0-4.464-.025c-1.374.1-3.012.306-4.833.517s-3.816.461-5.884.854a27.342,27.342,0,0,0-10,3.711,31.207,31.207,0,0,0-3.469,2.794,3.911,3.911,0,0,1,.742-.96,15.3,15.3,0,0,1,2.5-2.169,25.611,25.611,0,0,1,10.125-3.937c2.093-.4,4.105-.626,5.932-.815s3.471-.353,4.87-.4a18.419,18.419,0,0,1,3.3.148A3.8,3.8,0,0,1,545.445,3234.567Z" transform="translate(-516.789 -3234.124)" fill="#5e6178"/></g><g transform="translate(62.123 169.124)"><path d="M479.816,3366.955a2.108,2.108,0,0,1-.395-.868,6.32,6.32,0,0,1-.206-2.6,3.4,3.4,0,0,1,.206-.882,1.089,1.089,0,0,1,.861-.695.771.771,0,0,1,.64.219,1.035,1.035,0,0,1,.266.591,6.585,6.585,0,0,1-.02,1.1c-.058.73-.059,1.429-.174,2.277a1.377,1.377,0,0,1-.9,1.083,2.733,2.733,0,0,1-1.352.055,10.74,10.74,0,0,1-2.372-.7,10.575,10.575,0,0,1-1.055-.522,3.086,3.086,0,0,1-.957-.723,1.017,1.017,0,0,1-.025-1.29,1.216,1.216,0,0,1,1.149-.275,7.133,7.133,0,0,1,1.7.7,9.2,9.2,0,0,1,2.089,1.548c.432.436.623.718.6.742a18.2,18.2,0,0,0-2.87-1.932,7.3,7.3,0,0,0-1.592-.591.768.768,0,0,0-.694.139.514.514,0,0,0,.066.637,2.7,2.7,0,0,0,.8.569c.322.174.658.335,1.007.482a10.549,10.549,0,0,0,2.249.653,2.229,2.229,0,0,0,1.068-.026.8.8,0,0,0,.539-.664c.1-.695.128-1.5.2-2.2a6.733,6.733,0,0,0,.048-.993c-.034-.287-.16-.422-.364-.405-.471.031-.634.661-.714,1.167A9.173,9.173,0,0,0,479.816,3366.955Z" transform="translate(-474.117 -3361.9)" fill="#344154"/></g></g><g transform="translate(109.796 69.055)"><g transform="translate(20.721 4.821)"><path d="M500.979,3147.977a16.553,16.553,0,0,0-8.48,7.369c-3.183,5.639-2.333,8.424-1.5,11.755s2.3,9.946,2.383,9.52S500.979,3147.977,500.979,3147.977Z" transform="translate(-490.232 -3147.977)" fill="#ffbf9d"/></g><path d="M554.426,3158.838s-4.164-10.056-5-10.99l-15.381-3.887-9.614,4.708a16.871,16.871,0,0,1-8.972,1.782c-3.445-.325-6.464-1.713-7.982-4.252h0l-6.009,1.623s-9.542,28.8-9.345,36.772,3.505,30.611,3.127,35.075,1.174,16.767,6.615,16.767H555.9s12.2-3.375,12.734-10.709S554.426,3158.838,554.426,3158.838Z" transform="translate(-469.133 -3143.961)" fill="#d9a171"/><g transform="translate(41.94 53.321)"><path d="M534.038,3193.634a4.253,4.253,0,0,1-.906.767,17.119,17.119,0,0,1-7.409,3.013,15.9,15.9,0,0,1-5.9-.255,19.439,19.439,0,0,1-9.174-5.323,22.648,22.648,0,0,1-2.108-2.449,4.488,4.488,0,0,1-.634-1c.082-.064,1.061,1.312,3.022,3.162a20.236,20.236,0,0,0,9.023,5.057,16.529,16.529,0,0,0,10.216-.942C532.649,3194.607,533.974,3193.539,534.038,3193.634Z" transform="translate(-507.909 -3188.382)" fill="#344154"/></g><g transform="translate(42.584 54.267)" opacity="0.3"><path d="M508.706,3189.47a15.74,15.74,0,0,0,5.552,10.618,13.063,13.063,0,0,0,11.564,2.521,11.19,11.19,0,0,0,7.9-8.581,33.118,33.118,0,0,1-8.622,3,16.934,16.934,0,0,1-16.651-7.86l.441.465" transform="translate(-508.446 -3189.171)"/></g><g transform="translate(66.592 33.338)" opacity="0.3"><path d="M550.177,3201.727c-5.71-11.073-11.745-22.54-21.73-29.991h0c2.212,7.577,4.194,14.687,6.645,22.19.7,2.125,1.784,4.592,3.991,4.945.811.129,1.653-.07,2.459.091,1.382.275,2.336,1.516,3.079,2.713a7.6,7.6,0,0,0,2.748,3.129c1.266.619,3.2.028,3.315-1.375A3.241,3.241,0,0,0,550.177,3201.727Z" transform="translate(-528.447 -3171.736)"/></g><g transform="translate(62.734 3.418)"><path d="M567.025,3185.618l-27.231,12.767s-12.053-24.15-13.007-27.506-3-9.079.072-16.08a13.708,13.708,0,0,1,16.349-7.391C555.215,3151.625,567.025,3185.618,567.025,3185.618Z" transform="translate(-525.233 -3146.808)" fill="#d9a171"/></g><g transform="translate(0 3.42)"><path d="M498.548,3185.533c-1.271,0-15.871,7.636-15.871,7.636l-9.708-28c12.55-6.8,26.49-16.4,33.755-18.355l-6.311,21.906Z" transform="translate(-472.969 -3146.81)" fill="#d9a171"/></g><g transform="translate(42.474 20.281)"><g transform="translate(51.649)"><path d="M551.383,3160.857" transform="translate(-551.383 -3160.857)" fill="#ffbf9d"/></g><g transform="translate(0 23.062)"><path d="M545.847,3189.989c5.157,8.473,8.755,13.347,8.755,13.347L508.354,3231.5l5.391,12.518,56.216-23.139a12.848,12.848,0,0,0,7.721-8.794,10.614,10.614,0,0,0-.13-5.621l-9.563-26.4Z" transform="translate(-508.354 -3180.07)" fill="#ffbf9d"/></g></g><g transform="translate(88.365 66.498)"><path d="M558.193,3203.775c-.109.144-2.294-1.692-5.536-2.875-3.229-1.219-6.082-1.252-6.071-1.432a14.969,14.969,0,0,1,11.607,4.307Z" transform="translate(-546.586 -3199.36)" fill="#ff9a6c"/></g><g transform="translate(22.48 17.237)"><path d="M496.473,3158.321a7.171,7.171,0,0,0-.779,1.293,24.748,24.748,0,0,0-1.5,3.734,56.614,56.614,0,0,0-2.287,12.81,73.812,73.812,0,0,0,.155,12.946,37.892,37.892,0,0,0,.6,3.9,6.475,6.475,0,0,0,.39,1.406,6.258,6.258,0,0,0-.143-1.433c-.118-.918-.281-2.247-.395-3.895a90.426,90.426,0,0,1,.032-12.886,65.5,65.5,0,0,1,2.086-12.752,32.542,32.542,0,0,1,1.3-3.751A6.609,6.609,0,0,0,496.473,3158.321Z" transform="translate(-491.697 -3158.321)" fill="#344154"/></g><g transform="translate(6.592 94.774)"><path d="M478.461,3231.495,490,3225.977l22.511-1.787,1.835-1.273,5.391,12.518s-5.9,2.821-8.992,3.073l-18.927-.574-9.894,1.04Z" transform="translate(-478.461 -3222.917)" fill="#ffbf9d"/></g><g transform="translate(66.06 31.69)"><path d="M566.47,3180.9a2.39,2.39,0,0,0-.54.191l-1.508.64c-1.366.608-3.229,1.435-5.5,2.443l-18.074,8.24-2.205,1.017.344.122c-3.143-6.476-5.9-12.271-7.847-16.453-.942-2.046-1.711-3.717-2.277-4.946l-.613-1.338a2.033,2.033,0,0,0-.242-.454,1.956,1.956,0,0,0,.15.492c.116.316.287.783.528,1.377.475,1.19,1.2,2.9,2.132,5.016,1.867,4.224,4.566,10.047,7.7,16.534l.112.23.233-.107,2.205-1.016,18.01-8.378,5.433-2.594,1.467-.73A2.263,2.263,0,0,0,566.47,3180.9Z" transform="translate(-528.003 -3170.362)" fill="#344154"/></g><g transform="translate(64.26 3.943)"><path d="M541.714,3147.323c0,.1-1.276.061-3.247.534a15.373,15.373,0,0,0-11.115,10.174c-.645,1.921-.723,3.2-.819,3.186a2.638,2.638,0,0,1,0-.9,12.824,12.824,0,0,1,.462-2.4,14.787,14.787,0,0,1,11.39-10.425,12.779,12.779,0,0,1,2.432-.248A2.62,2.62,0,0,1,541.714,3147.323Z" transform="translate(-526.504 -3147.246)" fill="#344154"/></g><g transform="translate(68.42 21.559)"><path d="M556.674,3161.922a5.75,5.75,0,0,1-.361,1.205,12.454,12.454,0,0,1-1.55,3.073l-.72.9c-.126.157-.254.316-.384.478-.145.147-.309.283-.467.43l-.993.9c-.373.267-.771.524-1.172.8a21.862,21.862,0,0,1-5.744,2.472c-4.272,1.192-8.225,1.759-10.968,2.612a45.428,45.428,0,0,0-4.346,1.64,5.811,5.811,0,0,1,1.066-.67,8.958,8.958,0,0,1,1.335-.638l.853-.359.982-.326c2.751-.956,6.717-1.586,10.931-2.762a22.534,22.534,0,0,0,5.633-2.378l1.148-.753.976-.846c.156-.138.318-.267.462-.407l.383-.451.724-.849a14.32,14.32,0,0,0,1.661-2.93A5.844,5.844,0,0,1,556.674,3161.922Z" transform="translate(-529.969 -3161.922)" fill="#fff"/></g><g transform="translate(65.777 15.085)"><path d="M553.527,3156.588a5.276,5.276,0,0,0-1.133.269,5.164,5.164,0,0,0-2.26,2.141c-.371.568-.732,1.229-1.215,1.9a10.014,10.014,0,0,1-1.832,1.886,16.081,16.081,0,0,1-5.359,2.6c-2.024.615-4,.967-5.746,1.4a25.9,25.9,0,0,0-4.538,1.474,16.263,16.263,0,0,0-3.674,2.391c-.013-.012.048-.1.179-.256a5.887,5.887,0,0,1,.616-.643,11.508,11.508,0,0,1,2.721-1.827,23.868,23.868,0,0,1,4.579-1.607c1.764-.463,3.726-.83,5.711-1.433a16.214,16.214,0,0,0,5.214-2.484,9.83,9.83,0,0,0,1.78-1.763c.477-.628.857-1.278,1.257-1.846a5.1,5.1,0,0,1,2.5-2.126,2.5,2.5,0,0,1,.894-.136C553.425,3156.539,553.53,3156.573,553.527,3156.588Z" transform="translate(-527.768 -3156.528)" fill="#fff"/></g><g transform="translate(23.11 39.345)"><path d="M538.694,3176.743a1.72,1.72,0,0,1-.429.241l-1.272.6c-1.11.5-2.727,1.216-4.764,2a50.422,50.422,0,0,1-7.336,2.273,27.594,27.594,0,0,1-9.4.554,41.059,41.059,0,0,1-9.047-2.587,34.371,34.371,0,0,0-7.32-2.023,15.014,15.014,0,0,0-5.086.113c-1.182.252-1.8.527-1.822.479a1.772,1.772,0,0,1,.438-.224,8.5,8.5,0,0,1,1.338-.454,14.163,14.163,0,0,1,5.176-.281,32.963,32.963,0,0,1,7.439,1.935,42.241,42.241,0,0,0,8.95,2.522,27.833,27.833,0,0,0,9.229-.506,54.328,54.328,0,0,0,7.308-2.147c2.044-.742,3.68-1.4,4.815-1.845l1.31-.506A1.76,1.76,0,0,1,538.694,3176.743Z" transform="translate(-492.222 -3176.74)" fill="#fff"/></g><g transform="translate(24.902 28.648)"><path d="M493.715,3169.268c-.01-.015.112-.108.357-.275a5.643,5.643,0,0,1,1.147-.59,9.37,9.37,0,0,1,4.7-.479,18.127,18.127,0,0,1,6.592,2.378,61.576,61.576,0,0,0,7.511,3.964,22.03,22.03,0,0,0,8.3,1.247,42.226,42.226,0,0,0,6.88-.826c1.945-.378,3.507-.746,4.59-.992a11.265,11.265,0,0,1,1.694-.336,10.754,10.754,0,0,1-1.643.534c-1.068.307-2.62.731-4.566,1.157a39.4,39.4,0,0,1-6.939.946,21.978,21.978,0,0,1-8.495-1.239,57.618,57.618,0,0,1-7.561-4.032,18.306,18.306,0,0,0-6.41-2.433,9.639,9.639,0,0,0-4.577.3C494.252,3168.952,493.744,3169.315,493.715,3169.268Z" transform="translate(-493.715 -3167.828)" fill="#fff"/></g><g transform="translate(7.694 18.642)"><path d="M491.405,3185.278c0,.018-.11,0-.312-.035a4.819,4.819,0,0,1-.858-.26,7.082,7.082,0,0,1-2.643-1.96,11.325,11.325,0,0,1-2.255-4.33,25.722,25.722,0,0,1-.724-5.912,40.415,40.415,0,0,0-.465-5.849,13.117,13.117,0,0,0-1.644-4.425,9.014,9.014,0,0,0-3.122-3.013c.007-.017.11.014.3.089a5.043,5.043,0,0,1,.8.4,7.716,7.716,0,0,1,2.332,2.322,12.825,12.825,0,0,1,1.806,4.531,36.89,36.89,0,0,1,.515,5.923,26.919,26.919,0,0,0,.666,5.8,11.405,11.405,0,0,0,2.074,4.219,7.478,7.478,0,0,0,2.443,2.013C491,3185.133,491.418,3185.226,491.405,3185.278Z" transform="translate(-479.379 -3159.491)" fill="#fff"/></g><g transform="translate(12.545 14.971)"><path d="M493.355,3178.739a28.785,28.785,0,0,1-1.451-3.276c-.918-2.166-2.084-4.911-3.372-7.946-1.344-3.092-2.592-5.876-3.551-7.864s-1.623-3.177-1.557-3.219a3.449,3.449,0,0,1,.577.775c.333.523.787,1.3,1.31,2.277,1.049,1.954,2.354,4.723,3.7,7.821s2.469,5.943,3.235,8.02c.384,1.038.678,1.885.867,2.475A3.428,3.428,0,0,1,493.355,3178.739Z" transform="translate(-483.42 -3156.433)" fill="#fff"/></g></g><g transform="translate(47.168 127.948)"><g transform="translate(0.071 0.027)"><path d="M425.113,3193.047l64.893.527c2.105,0,4.117,1.011,4.432,3.092l7.093,47.3h33.425a1.948,1.948,0,1,1,0,3.9H428.2l-7.3-49.917A4.259,4.259,0,0,1,425.113,3193.047Z" transform="translate(-420.853 -3193.047)" fill="#e1e1e1"/></g><path d="M425.125,3193.052a3.406,3.406,0,0,0-1.023.1,4.289,4.289,0,0,0-3.282,3.715,12.05,12.05,0,0,0,.239,2.668c.271,1.912.585,4.114.936,6.588,1.428,9.916,3.487,24.207,6.017,41.775l.024.171h.174l103.57.063h2.787a2.7,2.7,0,0,0,1.475-.281,2.212,2.212,0,0,0-.01-3.866,2.7,2.7,0,0,0-1.462-.274H522.351l-20.809.007.25.215c-2.553-16.938-4.935-32.739-7.071-46.915a3.665,3.665,0,0,0-1.2-2.47,4.822,4.822,0,0,0-2.481-1.095,21.2,21.2,0,0,0-2.617-.092l-2.548-.018-9.77-.065c-6.28-.041-12.089-.077-17.363-.11l-24.717-.128c-2.874,0-5.094-.008-6.613-.012l-1.708.009c-.383,0-.579.018-.579.018s.2.017.579.027l1.708.036,6.611.1,24.717.275,17.363.172,9.77.092,2.548.024a21.483,21.483,0,0,1,2.552.094,4.4,4.4,0,0,1,2.263,1,3.226,3.226,0,0,1,1.055,2.215c2.116,14.179,4.474,29.983,7,46.926l.032.215h.218l20.809.007h12.221a2.171,2.171,0,0,1,1.209.209,1.688,1.688,0,0,1,.007,2.95,2.163,2.163,0,0,1-1.22.214h-2.787l-103.57.063.2.171c-2.6-17.559-4.722-31.84-6.191-41.75-.371-2.472-.7-4.671-.988-6.58a12.06,12.06,0,0,1-.265-2.629,4.161,4.161,0,0,1,.753-2.018,4.236,4.236,0,0,1,2.4-1.654A8.021,8.021,0,0,1,425.125,3193.052Z" transform="translate(-420.794 -3193.025)" fill="#344154"/><g transform="translate(32.597 22.769)"><circle cx="4.063" cy="4.063" r="4.063" fill="#fff"/></g><g transform="translate(69.22 0.554)"><path d="M487.359,3247.337c-.092.014-2.158-12.029-4.613-26.9s-4.373-26.938-4.282-26.953,2.157,12.026,4.614,26.9S487.45,3247.321,487.359,3247.337Z" transform="translate(-478.461 -3193.486)" fill="#344154"/></g></g></g><g transform="translate(3.408 438.125)"><path d="M215.557,3411.373c0-.146,97.356-.263,217.422-.263,120.108,0,217.442.118,217.442.263s-97.334.261-217.442.261C312.913,3411.635,215.557,3411.517,215.557,3411.373Z" transform="translate(-215.557 -3411.11)" fill="#344154"/></g></g></g></svg>