<svg xmlns="http://www.w3.org/2000/svg" xmlns:xlink="http://www.w3.org/1999/xlink" width="363.733" height="370.543" viewBox="0 0 363.733 370.543"><defs><clipPath id="a"><rect width="276.175" height="203.663" fill="none"/></clipPath></defs><g transform="translate(-205 -2243.775)"><g transform="translate(433.428 2421.102)"><g transform="translate(26.111)"><path d="M150.086,249.62a35.692,35.692,0,0,1,7.75,5.459l8.281-2.948,7.784,12.286-6.2,6.229a35.645,35.645,0,0,1,1.627,9.342l7.938,3.77-3.184,14.191-8.787.019a35.588,35.588,0,0,1-5.461,7.751L162.779,314,150.5,321.784l-6.23-6.2a35.59,35.59,0,0,1-9.342,1.625l-3.769,7.939-14.193-3.183-.018-8.788a35.58,35.58,0,0,1-7.75-5.46l-8.283,2.948-7.784-12.286,6.2-6.229a35.671,35.671,0,0,1-1.627-9.341l-7.937-3.77,3.183-14.191,8.787-.019a35.566,35.566,0,0,1,5.461-7.751l-2.948-8.282,12.284-7.784,6.23,6.2a35.67,35.67,0,0,1,9.342-1.626l3.769-7.937,14.19,3.183.021,8.787Zm-12.512,16.7a15.6,15.6,0,1,0,11.809,18.639A15.6,15.6,0,0,0,137.573,266.318Z" transform="translate(-89.766 -237.65)" fill="#839eb6" fill-rule="evenodd"/></g><g transform="translate(55.369 113.372)"><g transform="translate(26.113 25.689)"><path d="M162.193,375.914a10.627,10.627,0,0,1,3.337,1.044,14.043,14.043,0,0,1,6.649,6.731,14.214,14.214,0,0,1,1.358,6.5,14.449,14.449,0,0,1-2.237,7.289,14.459,14.459,0,0,1-6.384,5.485,14.4,14.4,0,0,1-16.737-3.754,14.459,14.459,0,0,1-3.431-7.688,14.448,14.448,0,0,1,1.091-7.546,14.22,14.22,0,0,1,4-5.3,14.046,14.046,0,0,1,8.886-3.245,10.655,10.655,0,0,1,3.463.481c-.015.1-1.233-.246-3.454-.167a14.07,14.07,0,0,0-8.526,3.369,13.781,13.781,0,0,0-4.723,12.31,13.777,13.777,0,0,0,3.288,7.262,13.67,13.67,0,0,0,15.819,3.548,13.773,13.773,0,0,0,6.074-5.161,13.788,13.788,0,0,0,.988-13.147,14.065,14.065,0,0,0-6.271-6.688C163.414,376.219,162.164,376.01,162.193,375.914Z" transform="translate(-144.628 -375.433)" fill="#263238"/></g><path d="M173.751,361.045a2.9,2.9,0,0,1-.03-.494c-.009-.369-.02-.864-.035-1.5-.019-1.38-.046-3.368-.083-5.948l.1.125-12.852-2.8.23-.112L157.7,357.5l-.061.129-.145.006a32.156,32.156,0,0,0-8.379,1.488l-.152.049-.115-.114-5.651-5.594.357.038q-5.241,3.338-11.1,7.066l.129-.375c.831,2.317,1.745,4.87,2.682,7.486l.069.191-.138.149a31.962,31.962,0,0,0-4.875,6.945l-.1.188h-.213l-7.948.028.351-.282c-.9,4.033-1.869,8.382-2.862,12.84l-.207-.423,7.182,3.4.211.1.009.233a32.077,32.077,0,0,0,1.46,8.347l.072.226-.168.169-5.609,5.638.054-.492,7.045,11.109-.474-.164,7.491-2.668.231-.082.18.167a31.873,31.873,0,0,0,6.917,4.873l0,0h0c.1.16-.216-.357.22.359v.993l0,1,0,1.993q0,1.989.008,3.962l-.316-.394,12.837,2.883-.45.219,3.412-7.178.1-.218.24-.009a31.849,31.849,0,0,0,8.347-1.447l.227-.072.169.168q2.855,2.849,5.631,5.615l-.478-.052q5.692-3.6,11.118-7.029l-.152.439q-1.352-3.814-2.657-7.494l-.074-.208.149-.161a31.877,31.877,0,0,0,4.9-6.926l.1-.189h.211l7.948,0-.328.263c1.022-4.513,1.988-8.775,2.907-12.831l.17.348-7.172-3.427-.159-.077-.006-.175a32.125,32.125,0,0,0-1.435-8.381l-.048-.155.114-.113,5.629-5.616-.032.3L188.1,363.414l.214.074-7.507,2.618-.076.026-.058-.053a33.446,33.446,0,0,0-5.1-3.932l-1.367-.824a3.25,3.25,0,0,1-.45-.279,4.205,4.205,0,0,1,.483.219c.314.161.788.406,1.4.769a31.18,31.18,0,0,1,5.213,3.855l-.132-.027,7.474-2.715.135-.049.079.123,7.089,11.082.1.161-.135.136c-1.729,1.748-3.559,3.6-5.591,5.653l.066-.267a32.565,32.565,0,0,1,1.509,8.518l-.167-.251,7.189,3.393.223.105-.053.243c-.9,4.059-1.85,8.324-2.855,12.842l-.058.262h-.27l-7.947.031.31-.189a32.579,32.579,0,0,1-4.985,7.1l.076-.367q1.314,3.677,2.676,7.488l.1.28-.251.16-11.1,7.051-.26.166-.219-.218-5.639-5.605.394.1a32.613,32.613,0,0,1-8.553,1.494l.343-.227q-1.685,3.556-3.405,7.182l-.137.29-.313-.071L143.7,426.878l-.316-.071v-.323q0-1.973-.008-3.962l0-1.993,0-1v-.993c.436.716.12.2.217.357h0l0,0a32.625,32.625,0,0,1-7.092-5l.41.085-7.493,2.665-.3.107-.173-.271c-2.42-3.824-4.807-7.6-7.036-11.116l-.17-.267.224-.225,5.615-5.631-.095.394a32.76,32.76,0,0,1-1.483-8.552l.219.333L119.027,388l-.272-.13.067-.293c1-4.456,1.984-8.8,2.894-12.834l.064-.282h.289l7.947,0-.309.188a32.6,32.6,0,0,1,5.005-7.078l-.07.339c-.926-2.62-1.832-5.176-2.652-7.5l-.086-.241.216-.135,11.127-7.014.2-.124.162.162c1.972,1.975,3.868,3.874,5.62,5.627l-.267-.065a32.518,32.518,0,0,1,8.52-1.454l-.2.135,3.438-7.166.072-.149.159.037,12.819,2.953.1.023v.1c-.023,2.558-.041,4.529-.055,5.9-.011.65-.021,1.152-.027,1.525A3.96,3.96,0,0,1,173.751,361.045Z" transform="translate(-118.755 -349.98)" fill="#263238"/></g><g transform="translate(0 88.601)"><path d="M99.009,332.405a20.805,20.805,0,0,1,4.512,3.178l4.82-1.716,4.531,7.152-3.61,3.626a20.729,20.729,0,0,1,.948,5.438l4.62,2.194-1.854,8.261-5.115.011a20.689,20.689,0,0,1-3.179,4.512l1.717,4.821-7.152,4.531-3.626-3.61a20.726,20.726,0,0,1-5.438.946l-2.194,4.621-8.262-1.853-.011-5.115a20.743,20.743,0,0,1-4.511-3.179l-4.822,1.717-4.531-7.153,3.611-3.626a20.8,20.8,0,0,1-.947-5.437l-4.62-2.2,1.853-8.261,5.115-.011a20.714,20.714,0,0,1,3.179-4.512l-1.716-4.821,7.151-4.531L83.1,331a20.735,20.735,0,0,1,5.439-.947l2.193-4.62L99,327.29l.012,5.115Zm-7.284,9.721a9.082,9.082,0,1,0,6.875,10.85A9.082,9.082,0,0,0,91.725,342.126Z" transform="translate(-63.895 -325.437)" fill="#e0e0e0" fill-rule="evenodd"/></g></g><g transform="translate(1622.556 -177.364)"><g transform="translate(-1417.556 2718.273)"><path d="M-1116.094,2825.423c0,.408-79.222.738-176.926.738-97.737,0-176.942-.33-176.942-.738s79.206-.739,176.942-.739C-1195.316,2824.684-1116.094,2825.015-1116.094,2825.423Z" transform="translate(1469.962 -2824.684)" fill="#344154"/></g><g transform="translate(-1265.711 2421.139)"><path d="M0,0H151.943a0,0,0,0,1,0,0V140.435a16.22,16.22,0,0,1-16.22,16.22H0a0,0,0,0,1,0,0V0A0,0,0,0,1,0,0Z" fill="#ececec"/><g transform="translate(16.727 46.048)"><path d="M-1027.25,2484.254c0,.317-27.462.575-61.332.575s-61.337-.258-61.337-.575,27.456-.576,61.337-.576S-1027.25,2483.936-1027.25,2484.254Z" transform="translate(1149.918 -2483.678)" fill="#5e6178"/><g transform="translate(1.457 10.612)"><path d="M-1087.333,2498.667c0,.317-13.568.575-30.3.575s-30.3-.258-30.3-.575,13.566-.575,30.3-.575S-1087.333,2498.349-1087.333,2498.667Z" transform="translate(1147.939 -2498.091)" fill="#5e6178"/></g><g transform="translate(70.253 9.63)"><path d="M-1038.454,2497.332c0,.318-3.593.575-8.026.575s-8.027-.257-8.027-.575,3.593-.575,8.027-.575S-1038.454,2497.014-1038.454,2497.332Z" transform="translate(1054.506 -2496.756)" fill="#5e6178"/></g><g transform="translate(94.167 8.974)"><path d="M-990.249,2496.441c0,.318-7.114.576-15.888.576s-15.89-.258-15.89-.576,7.113-.575,15.89-.575S-990.249,2496.124-990.249,2496.441Z" transform="translate(1022.027 -2495.866)" fill="#5e6178"/></g><g transform="translate(0 20.768)"><path d="M-1092.916,2512.458c0,.318-12.762.576-28.5.576s-28.5-.258-28.5-.576,12.758-.575,28.5-.575S-1092.916,2512.141-1092.916,2512.458Z" transform="translate(1149.918 -2511.884)" fill="#5e6178"/></g><g transform="translate(63.701 20.475)"><path d="M-1001.16,2512.062c0,.317-13.935.575-31.121.575s-31.123-.258-31.123-.575,13.932-.575,31.123-.575S-1001.16,2511.744-1001.16,2512.062Z" transform="translate(1063.404 -2511.486)" fill="#5e6178"/></g><g transform="translate(98.231 30.695)"><path d="M-988.794,2525.94c0,.318-6.2.575-13.857.575s-13.857-.257-13.857-.575,6.2-.575,13.857-.575S-988.794,2525.623-988.794,2525.94Z" transform="translate(1016.508 -2525.365)" fill="#5e6178"/></g></g><g transform="translate(18.184 34.673)"><path d="M-1080.783,2468.8c0,.317-15.034.575-33.576.575s-33.579-.258-33.579-.575,15.032-.576,33.579-.576S-1080.783,2468.487-1080.783,2468.8Z" transform="translate(1147.939 -2468.229)" fill="#d9a171"/></g></g><g transform="translate(-1319.712 2481.728)"><g transform="translate(145.379 0.247)"><path d="M-1030.984,2503.762h0a8.817,8.817,0,0,1,8.817,8.817v18.092h-26.364v-16.69a10.218,10.218,0,0,1,10.218-10.218Z" transform="translate(1048.532 -2503.762)" fill="#344154"/></g><g transform="translate(51.814)"><path d="M-1064.493,2503.674c0,.106-24.875.17-55.553.143s-55.559-.135-55.559-.241,24.87-.169,55.559-.143S-1064.492,2503.568-1064.493,2503.674Z" transform="translate(1175.605 -2503.427)" fill="#344154"/></g><g transform="translate(0.367 0.149)"><path d="M-1083.149,2503.705l-10.995-.076-15.97.1h-117.325a18.038,18.038,0,0,0-18.038,18.039v193.849h151.943v-202C-1093.089,2503.727-1083.149,2503.705-1083.149,2503.705Z" transform="translate(1245.477 -2503.629)" fill="#fafafa"/></g><g transform="translate(0 0.026)"><path d="M-1083.28,2503.661l-91.616.2-45.809.035-5.726,0c-.959-.018-1.9.038-2.84.088a18.7,18.7,0,0,0-2.778.506,17.844,17.844,0,0,0-9.35,6.013,17.943,17.943,0,0,0-2.8,4.882,13.992,13.992,0,0,0-.456,1.337l-.351,1.369a19.5,19.5,0,0,0-.328,2.8c-.082,3.793-.018,7.628-.035,11.439l.123,183.234-.366-.366,151.942.1-.267.267.073-108.976.088-54.487.054-27.243.013-6.811.007-3.405a11.128,11.128,0,0,1,.072-1.7,9.187,9.187,0,0,1,.266-1.682,9.018,9.018,0,0,1,3.68-5.548,10.664,10.664,0,0,1,3.055-1.475A12.867,12.867,0,0,1-1083.28,2503.661Zm0,0a12.866,12.866,0,0,0-3.341.594,10.626,10.626,0,0,0-3.044,1.485,8.972,8.972,0,0,0-3.643,5.538,9.061,9.061,0,0,0-.259,1.675,11.126,11.126,0,0,0-.065,1.7l.007,3.406.013,6.811.054,27.244.088,54.489.074,108.971v.268h-.268l-151.942.1h-.367v-.367l.123-183.234c.021-3.821-.038-7.625.05-11.462a19.874,19.874,0,0,1,.341-2.876l.362-1.4a14.419,14.419,0,0,1,.469-1.371,18.412,18.412,0,0,1,2.877-5.005,18.282,18.282,0,0,1,9.593-6.152,18.937,18.937,0,0,1,2.847-.515c.965-.052,1.931-.106,2.881-.086l5.726,0,45.808.035Z" transform="translate(1245.975 -2503.462)" fill="#344154"/></g><g transform="translate(66.128 36.552)"><path d="M-1090.834,2553.644c0,.317-14.626.575-32.664.575s-32.667-.258-32.667-.575,14.623-.575,32.667-.575S-1090.834,2553.327-1090.834,2553.644Z" transform="translate(1156.165 -2553.069)" fill="#d9a171"/></g><g transform="translate(67.439 46.99)"><path d="M-1129.125,2567.82c0,.318-5.656.575-12.63.575s-12.631-.258-12.631-.575,5.654-.575,12.631-.575S-1129.125,2567.5-1129.125,2567.82Z" transform="translate(1154.385 -2567.245)" fill="#5e6178"/></g><g transform="translate(12.889 78.83)"><path d="M-1180.5,2611.063c0,.318-10.74.576-23.985.576s-23.987-.258-23.987-.576,10.737-.575,23.987-.575S-1180.5,2610.746-1180.5,2611.063Z" transform="translate(1228.47 -2610.488)" fill="#5e6178"/></g><g transform="translate(67.212 78.83)"><path d="M-1106.721,2611.063c0,.318-10.74.576-23.985.576s-23.987-.258-23.987-.576,10.738-.575,23.987-.575S-1106.721,2610.746-1106.721,2611.063Z" transform="translate(1154.693 -2610.488)" fill="#d9a171"/></g><g transform="translate(12.889 87.334)"><path d="M-1180.5,2622.612c0,.317-10.74.575-23.985.575s-23.987-.258-23.987-.575,10.737-.575,23.987-.575S-1180.5,2622.294-1180.5,2622.612Z" transform="translate(1228.47 -2622.037)" fill="#5e6178"/></g><g transform="translate(12.889 95.837)"><path d="M-1180.5,2634.16c0,.318-10.74.576-23.985.576s-23.987-.258-23.987-.576,10.737-.575,23.987-.575S-1180.5,2633.843-1180.5,2634.16Z" transform="translate(1228.47 -2633.585)" fill="#d9a171"/></g><g transform="translate(67.439 64.31)"><path d="M-1129.125,2591.343c0,.318-5.656.575-12.63.575s-12.631-.257-12.631-.575,5.654-.575,12.631-.575S-1129.125,2591.026-1129.125,2591.343Z" transform="translate(1154.385 -2590.769)" fill="#5e6178"/></g><g transform="translate(119.668 78.83)"><path d="M-1066.611,2611.063c0,.318-3.771.576-8.42.576s-8.42-.258-8.42-.576,3.769-.575,8.42-.575S-1066.611,2610.746-1066.611,2611.063Z" transform="translate(1083.451 -2610.488)" fill="#5e6178"/></g><g transform="translate(97.671 46.99)"><path d="M-1069.984,2567.82c0,.318-9.7.575-21.67.575s-21.672-.258-21.672-.575,9.7-.575,21.672-.575S-1069.984,2567.5-1069.984,2567.82Z" transform="translate(1113.326 -2567.245)" fill="#5e6178"/></g><g transform="translate(67.439 55.281)"><path d="M-1082.767,2579.081c0,.318-16.034.575-35.808.575s-35.811-.258-35.811-.575,16.03-.575,35.811-.575S-1082.767,2578.764-1082.767,2579.081Z" transform="translate(1154.385 -2578.506)" fill="#5e6178"/></g><g transform="translate(67.212 87.334)"><path d="M-1085.4,2622.612c0,.317-15.514.575-34.646.575s-34.65-.258-34.65-.575,15.51-.575,34.65-.575S-1085.4,2622.294-1085.4,2622.612Z" transform="translate(1154.693 -2622.037)" fill="#5e6178"/></g><g transform="translate(71.484 111.951)"><path d="M-1083.867,2656.045c0,.318-14.557.575-32.511.575s-32.513-.257-32.513-.575,14.554-.575,32.513-.575S-1083.867,2655.728-1083.867,2656.045Z" transform="translate(1148.891 -2655.47)" fill="#d9a171"/></g><g transform="translate(71.484 120.227)"><path d="M-1083.867,2667.285c0,.317-14.557.575-32.511.575s-32.513-.258-32.513-.575,14.554-.575,32.513-.575S-1083.867,2666.968-1083.867,2667.285Z" transform="translate(1148.891 -2666.71)" fill="#5e6178"/></g><g transform="translate(71.484 128.502)"><path d="M-1083.867,2678.524c0,.318-14.557.576-32.511.576s-32.513-.258-32.513-.576,14.554-.575,32.513-.575S-1083.867,2678.207-1083.867,2678.524Z" transform="translate(1148.891 -2677.949)" fill="#5e6178"/></g><g transform="translate(71.484 136.778)"><path d="M-1083.867,2689.764c0,.318-14.557.575-32.511.575s-32.513-.257-32.513-.575,14.554-.575,32.513-.575S-1083.867,2689.447-1083.867,2689.764Z" transform="translate(1148.891 -2689.189)" fill="#5e6178"/></g><g transform="translate(71.484 145.054)"><path d="M-1111.458,2701c0,.159-2.095.3-5.483.406s-8.065.169-13.233.169-9.849-.064-13.236-.169-5.481-.247-5.481-.406,2.094-.3,5.481-.406,8.067-.169,13.236-.169,9.846.064,13.233.169S-1111.458,2700.845-1111.458,2701Z" transform="translate(1148.891 -2700.429)" fill="#5e6178"/></g><g transform="translate(68.719 96.282)"><path d="M-1096.639,2634.765c0,.318-12.539.575-28,.575s-28-.258-28-.575,12.536-.575,28-.575S-1096.639,2634.448-1096.639,2634.765Z" transform="translate(1152.646 -2634.19)" fill="#5e6178"/></g><g transform="translate(68.719 192.021)"><path d="M-1150.026,2765.525a1.311,1.311,0,0,1-1.311,1.311,1.31,1.31,0,0,1-1.31-1.311,1.309,1.309,0,0,1,1.31-1.31A1.31,1.31,0,0,1-1150.026,2765.525Z" transform="translate(1152.646 -2764.215)" fill="#344154"/><g transform="translate(7.778)"><path d="M-1139.463,2765.525a1.31,1.31,0,0,1-1.31,1.311,1.311,1.311,0,0,1-1.311-1.311,1.31,1.31,0,0,1,1.311-1.31A1.309,1.309,0,0,1-1139.463,2765.525Z" transform="translate(1142.083 -2764.215)" fill="#344154"/></g><g transform="translate(15.555)"><path d="M-1128.9,2765.525a1.311,1.311,0,0,1-1.31,1.311,1.311,1.311,0,0,1-1.311-1.311,1.31,1.31,0,0,1,1.311-1.31A1.31,1.31,0,0,1-1128.9,2765.525Z" transform="translate(1131.52 -2764.215)" fill="#344154"/></g></g><g transform="translate(67.577 162.3)"><path d="M-1106.225,2724.426c0,.317-10.74.575-23.986.575s-23.987-.258-23.987-.575,10.738-.575,23.987-.575S-1106.225,2724.107-1106.225,2724.426Z" transform="translate(1154.197 -2723.85)" fill="#d9a171"/></g><g transform="translate(67.577 170.802)"><path d="M-1084.9,2735.973c0,.318-15.513.576-34.646.576s-34.649-.257-34.649-.576,15.51-.575,34.649-.575S-1084.9,2735.656-1084.9,2735.973Z" transform="translate(1154.197 -2735.398)" fill="#5e6178"/></g></g><g transform="translate(-1171.393 2659.488)"><g transform="translate(26.779 7.785)"><g transform="translate(0 0)"><rect width="40.82" height="51.059" transform="translate(0 40.82) rotate(-89.632)" fill="#aed3f2"/></g><rect width="35.681" height="47.472" transform="translate(1.777 38.261) rotate(-89.632)" fill="#d9a171"/><path d="M-1005.758,2799.479l16.723-22.072,10.182,13.942,7.014-7.373,13.553,15.809Z" transform="translate(1007.535 -2761.218)" fill="#d9a171" opacity="0.2"/><g transform="translate(25.672 9.805)" opacity="0.2"><path d="M-965.83,2772.5a3.737,3.737,0,0,1-3.761,3.714,3.738,3.738,0,0,1-3.714-3.762,3.738,3.738,0,0,1,3.762-3.714A3.737,3.737,0,0,1-965.83,2772.5Z" transform="translate(973.305 -2768.736)" fill="#d9a171"/></g></g><g transform="translate(19.291 3.522)"><g transform="translate(0 0)"><g transform="translate(0)"><rect width="40.82" height="51.059" transform="translate(0 40.82) rotate(-89.632)" fill="#aed3f2"/></g></g><rect width="35.681" height="47.472" transform="translate(1.777 38.261) rotate(-89.632)" fill="#d9a171"/><path d="M-1015.927,2793.69l16.723-22.072,10.182,13.942,7.014-7.374L-968.456,2794Z" transform="translate(1017.704 -2755.429)" fill="#d9a171" opacity="0.2"/><g transform="translate(25.672 9.805)" opacity="0.2"><path d="M-976,2766.709a3.738,3.738,0,0,1-3.762,3.714,3.738,3.738,0,0,1-3.713-3.762,3.737,3.737,0,0,1,3.762-3.714A3.738,3.738,0,0,1-976,2766.709Z" transform="translate(983.474 -2762.947)" fill="#d9a171"/></g></g><g transform="translate(12.623 0)"><g transform="translate(0)"><rect width="40.82" height="51.059" transform="translate(0 40.82) rotate(-89.632)" fill="#aed3f2"/></g><rect width="35.681" height="47.472" transform="translate(1.777 38.261) rotate(-89.632)" fill="#d9a171"/><path d="M-1024.983,2788.906l16.723-22.072,10.182,13.942,7.014-7.374,13.553,15.808Z" transform="translate(1026.76 -2750.645)" fill="#d9a171" opacity="0.2"/><g transform="translate(25.672 9.805)" opacity="0.2"><path d="M-985.055,2761.925a3.738,3.738,0,0,1-3.762,3.714,3.738,3.738,0,0,1-3.714-3.761,3.738,3.738,0,0,1,3.762-3.714A3.738,3.738,0,0,1-985.055,2761.925Z" transform="translate(992.531 -2758.163)" fill="#d9a171"/></g></g><g transform="translate(5.135 4.385)"><g transform="translate(0 0)"><g transform="translate(0 0)"><rect width="40.82" height="51.059" transform="translate(0 40.82) rotate(-89.632)" fill="#aed3f2"/></g></g><rect width="35.681" height="47.472" transform="translate(1.777 38.261) rotate(-89.632)" fill="#5e6178"/><path d="M-1035.153,2794.861l16.723-22.072,10.182,13.941,7.014-7.373,13.553,15.808Z" transform="translate(1036.929 -2756.6)" fill="#d9a171" opacity="0.2"/><g transform="translate(25.672 9.805)" opacity="0.2"><path d="M-995.224,2767.88a3.738,3.738,0,0,1-3.762,3.713,3.738,3.738,0,0,1-3.714-3.762,3.738,3.738,0,0,1,3.762-3.713A3.738,3.738,0,0,1-995.224,2767.88Z" transform="translate(1002.7 -2764.118)" fill="#d9a171"/></g></g><g transform="translate(0 19.563)"><rect width="29.478" height="39.413" transform="translate(56.456 0)" fill="#344154"/><path d="M-1044.54,2771.416v39.414h58.956v-39.414Zm35.746,9.328h-12.535a2.713,2.713,0,0,1-2.713-2.713,2.713,2.713,0,0,1,2.713-2.712h12.535a2.712,2.712,0,0,1,2.713,2.712A2.712,2.712,0,0,1-1008.794,2780.744Z" transform="translate(1044.54 -2771.416)" fill="#d9a171"/></g></g><g transform="translate(-1390.711 2517.176)"><g clip-path="url(#a)"><g transform="translate(41.406 13.243)"><g transform="translate(0 76.587)"><g transform="translate(0 101.912)"><path d="M-1076.607,2818.6l-78.926-4.833c-.5-1.129-.828-1.786-.828-1.786l-21.392.426-6.96-.426s-.106.212-.275.57l-71.806,1.431c-14.316,0-29.368,8.734-29.367,19.9-.181,10.622,4.963,22.151,17.79,21.889l97.835-.328,97.834.328c12.827.261,16.219-7.474,16.238-16.65C-1054.965,2822.025-1065.67,2818.743-1076.607,2818.6Z" transform="translate(1286.166 -2811.98)" fill="#5e6178"/><g transform="translate(26.775 13.891)"><path d="M-1249.8,2860.747s.159-.019.47-.027l1.383-.026,5.329-.05,19.686-.085,65.692-.087-.275.292c-.134-2.145-.278-4.44-.423-6.753-.294-4.733-.584-9.388-.859-13.816l.243.255-60.517-6.734-17.932-2.052-4.832-.578-1.25-.163a2.812,2.812,0,0,1-.424-.072,2.627,2.627,0,0,1,.429.021l1.255.113,4.842.483,17.95,1.887,60.537,6.552.228.025.015.23c.277,4.428.569,9.083.865,13.816.145,2.313.287,4.608.42,6.753l.019.293h-.293l-65.692-.087c-8.317-.037-15.027-.064-19.686-.086l-5.329-.049-1.383-.026C-1249.644,2860.766-1249.8,2860.747-1249.8,2860.747Z" transform="translate(1249.803 -2830.846)" fill="#344154"/></g><g transform="translate(25.946 9.252)"><path d="M-1229.929,2831.019c-.06.074-1.042-.717-2.765-1.768a30.088,30.088,0,0,0-7.186-3.157,30.116,30.116,0,0,0-7.766-1.143c-2.019-.025-3.271.124-3.282.029a2.791,2.791,0,0,1,.867-.2,18.275,18.275,0,0,1,2.411-.218,26.034,26.034,0,0,1,7.922,1,26.023,26.023,0,0,1,7.243,3.359,17.913,17.913,0,0,1,1.928,1.467C-1230.128,2830.768-1229.9,2830.99-1229.929,2831.019Z" transform="translate(1250.928 -2824.546)" fill="#344154"/></g><g transform="translate(133.772 11.522)"><path d="M-1034.827,2827.634c.035.147-15.532,3.912-34.766,8.407s-34.86,8.019-34.894,7.87,15.529-3.912,34.769-8.407S-1034.861,2827.485-1034.827,2827.634Z" transform="translate(1104.487 -2827.629)" fill="#344154"/></g><g transform="translate(179.208 9.984)"><path d="M-1031.718,2825.562a31.052,31.052,0,0,0-6.1,2.921,31.032,31.032,0,0,0-4.957,4.6,5.433,5.433,0,0,1,1.062-1.726,16.126,16.126,0,0,1,3.585-3.333,16.129,16.129,0,0,1,4.415-2.11A5.435,5.435,0,0,1-1031.718,2825.562Z" transform="translate(1042.78 -2825.54)" fill="#344154"/></g></g><g transform="translate(129.937 22.312)"><path d="M-1078.741,2703.873l25,43.518a18.49,18.49,0,0,1,.505,17.48h0a18.49,18.49,0,0,1-17.06,10.214l-38.387-1.083-1.011-13.959,33.808-6.474-22.795-39.452Z" transform="translate(1109.695 -2703.873)" fill="#ffbf9d"/></g><g transform="translate(47.628 22.312)"><path d="M-1201.391,2778.344l35.3,9.35.767-10.585-32.529-18.895,23.758-44.1-19.94-10.243-25,43.518h0a20.381,20.381,0,0,0,11.768,29.084Z" transform="translate(1221.482 -2703.873)" fill="#ffbf9d"/></g><g transform="translate(62.444)"><path d="M-1113.527,2723.824l24.127-12.706a122.122,122.122,0,0,0-10.336-17.237c-7.475-10.334-19.061-17.561-32.219-20.31h0l-27.751.327a36.708,36.708,0,0,0-9.9,2.278l.02-.107c-15.061,3.321-31.773,36.169-31.773,36.169l21.955,11.559.485,3.454a23.455,23.455,0,0,0,5.722,12.305l-6.394,42.051,71.256,1.473-9.073-30.114Z" transform="translate(1201.36 -2673.571)" fill="#d9a171"/></g><g transform="translate(84.729 35.303)"><path d="M-1164.57,2752.428a5.09,5.09,0,0,1-1.06-.8,15.344,15.344,0,0,1-2.423-2.708,17.637,17.637,0,0,1-2.974-11.464,37.394,37.394,0,0,1,1.63-6.393c.639-1.917,1.287-3.615,1.852-5.033s1.053-2.551,1.406-3.327a5.814,5.814,0,0,1,.607-1.181,6.406,6.406,0,0,1-.408,1.262l-1.24,3.385c-.516,1.431-1.124,3.137-1.733,5.051a40.039,40.039,0,0,0-1.564,6.3,18.169,18.169,0,0,0,.6,6.381,16.985,16.985,0,0,0,2.148,4.8A29.646,29.646,0,0,0-1164.57,2752.428Z" transform="translate(1171.094 -2721.518)" fill="#344154"/></g><g transform="translate(76.549 71.287)"><path d="M-1178.18,2817.291l-4.023-46.9h86.8l-5.752,47.487Z" transform="translate(1182.203 -2770.388)" fill="#344154"/><g transform="translate(37.871 19.486)"><path d="M-1119.716,2802.38a5.527,5.527,0,0,1-5.526,5.527,5.527,5.527,0,0,1-5.527-5.527,5.527,5.527,0,0,1,5.527-5.527A5.526,5.526,0,0,1-1119.716,2802.38Z" transform="translate(1130.769 -2796.853)" fill="#fafafa"/></g></g><g transform="translate(118.428 127.352)"><path d="M-1125.326,2846.531l14.737,2.057v16.018l-13.553-.35Z" transform="translate(1125.326 -2846.531)" fill="#ffbf9d"/><g transform="translate(14.737 2.057)"><path d="M-1105.311,2849.325h6.625a7.342,7.342,0,0,1,3.673.985l3.494,2.018a54.448,54.448,0,0,0,6.106,2.912c4.028,1.295,10.806,3.036,12.233,4.137,4.076,3.142,2.837,6.859.6,7.247-1.966.341-32.728-1.281-32.728-1.281Z" transform="translate(1105.311 -2849.325)" fill="#d9a171"/><g transform="translate(10.16 6.332)"><path d="M-1090.788,2866.287a10.449,10.449,0,0,1-.714-4.163,10.446,10.446,0,0,1,.463-4.2,36.747,36.747,0,0,1,.088,4.182A36.884,36.884,0,0,1-1090.788,2866.287Z" transform="translate(1091.512 -2857.925)" fill="#344154"/></g><g transform="translate(13.78 6.962)"><path d="M-1086.349,2866.425a13.482,13.482,0,0,1-.245-3.825,13.443,13.443,0,0,1,.306-3.82,13.466,13.466,0,0,1,.245,3.824A13.483,13.483,0,0,1-1086.349,2866.425Z" transform="translate(1086.596 -2858.781)" fill="#344154"/></g><g transform="translate(17.02 7.358)"><path d="M-1081.475,2867.2a14.354,14.354,0,0,1-.582-3.92,14.357,14.357,0,0,1-.032-3.963,14.407,14.407,0,0,1,.582,3.92A14.4,14.4,0,0,1-1081.475,2867.2Z" transform="translate(1082.195 -2859.318)" fill="#344154"/></g><g transform="translate(1.423 3.763)"><path d="M-1096.786,2861.1a4.555,4.555,0,0,1-1.359-.427,12.735,12.735,0,0,1-3.31-2.045c-.314-.269-.632-.563-.946-.888a3.78,3.78,0,0,1-.844-1.2,1.669,1.669,0,0,1,.185-1.645,1.254,1.254,0,0,1,.823-.453,2.128,2.128,0,0,1,.893.1,6.724,6.724,0,0,1,4.331,5.442,6.73,6.73,0,0,1-2.945,6.294,4.172,4.172,0,0,1-1.518.682,1.766,1.766,0,0,1-.865-.042,1.155,1.155,0,0,1-.669-.588,1.671,1.671,0,0,1,.194-1.526,4.709,4.709,0,0,1,.851-1.023,10.18,10.18,0,0,1,3.257-2.134,4.184,4.184,0,0,1,1.372-.387c.013.043-.471.191-1.284.584a10.966,10.966,0,0,0-3.069,2.213,4.37,4.37,0,0,0-.756.955,1.266,1.266,0,0,0-.156,1.116.877.877,0,0,0,1.034.355,3.738,3.738,0,0,0,1.322-.627,6.272,6.272,0,0,0,2.681-5.8,6.275,6.275,0,0,0-3.936-5.026,1.045,1.045,0,0,0-1.187.174,1.207,1.207,0,0,0-.133,1.174,6.468,6.468,0,0,0,1.621,1.954A17.781,17.781,0,0,0-1096.786,2861.1Z" transform="translate(1103.379 -2854.435)" fill="#344154"/></g></g><g transform="translate(22.449 2.243)"><path d="M-1069.821,2866.69a3.891,3.891,0,0,0,.808-1.007,3.791,3.791,0,0,0-.434-3.341,7.442,7.442,0,0,0-4.093-3.086c-1.873-.675-4.108-1-6.363-1.7a44.371,44.371,0,0,1-10.946-4.987c-1.3-.83-2.3-1.572-2.983-2.1a5.932,5.932,0,0,1-1-.886,6.479,6.479,0,0,1,1.13.712c.714.474,1.745,1.162,3.061,1.942a49.47,49.47,0,0,0,10.9,4.792c2.22.693,4.434,1.026,6.381,1.754a7.7,7.7,0,0,1,4.259,3.375,3.929,3.929,0,0,1,.283,3.626,2.259,2.259,0,0,1-.682.754C-1069.7,2866.658-1069.812,2866.705-1069.821,2866.69Z" transform="translate(1094.838 -2849.577)" fill="#344154"/></g></g><g transform="translate(77.251 11.292)"><path d="M-1102.641,2689.129a.842.842,0,0,1,0,.226c-.013.175-.029.392-.049.661q-.085.928-.234,2.563c-.228,2.275-.555,5.532-.966,9.622l-.025.248-.222-.117-12.8-6.736.3-.085-6.951,11.727-.149.251-.232-.179-11.705-8.976h.337l-5.1,4-6.95,5.442-.256.2-.154-.284-6.621-12.248.331.111-14.04,6.256-.257.115-.047-.276c-.816-4.813-1.527-9-2.119-12.488l.216.122-8.04,3.066-2.138.792-.554.193a.741.741,0,0,1-.193.052.7.7,0,0,1,.177-.094l.537-.233,2.109-.871,7.984-3.2.182-.073.035.194c.623,3.482,1.373,7.663,2.234,12.468l-.3-.161,14.008-6.327.217-.1.114.21,6.65,12.233-.409-.084,6.946-5.447,5.1-3.993.168-.132.169.129,11.687,9-.381.073c2.512-4.2,4.878-8.146,7-11.694l.113-.188.191.1,12.74,6.843-.247.131c.477-4.084.856-7.335,1.122-9.606q.2-1.629.321-2.553c.038-.267.069-.482.094-.656A.828.828,0,0,1-1102.641,2689.129Z" transform="translate(1181.249 -2688.907)" fill="#aed3f2"/></g><g transform="translate(72.103 22.661)"><path d="M-1094.184,2705a1.493,1.493,0,0,1-.059.311c-.057.228-.13.525-.222.9l-.907,3.468c-.821,3.049-2,7.43-3.472,12.9l-.056.209-.2-.1-14.952-7.177.293-.076-12.6,17.962-.184.264-.227-.23-12.1-12.268-2.541-2.578.343.04-16.312,10.229-.233.147-.135-.239-8.795-15.532.276.1-16.773,5.773-.16.055-.054-.157c-1.588-4.608-2.848-8.26-3.722-10.794l-.964-2.87-.237-.741a1.137,1.137,0,0,1-.066-.257,1.122,1.122,0,0,1,.11.241l.28.726,1.048,2.841,3.868,10.743-.214-.1,16.732-5.891.18-.064.1.168,8.85,15.5-.368-.093,16.3-10.251.187-.118.156.158,2.541,2.577,12.094,12.279-.411.035,12.651-17.924.116-.163.178.087,14.906,7.273-.253.114c1.54-5.449,2.773-9.815,3.632-12.854.428-1.476.762-2.627,1-3.442l.27-.887A1.476,1.476,0,0,1-1094.184,2705Z" transform="translate(1188.242 -2704.347)" fill="#aed3f2"/></g></g><g transform="translate(94.445)"><g transform="translate(7.258)"><path d="M-1094.276,2595.51a15.561,15.561,0,0,1-11.849-3.739c3.862,1.949,9.007-.726,10.365-4.834s.245-11.748-3.128-14.458a13.374,13.374,0,0,0-11.631-2.5c-3.975,1.064-8.188,7.107-9.488,11.012l.074.119c-.611-.244-1.228-.472-1.848-.681a31.856,31.856,0,0,0-13.72-1.661,22.251,22.251,0,0,0-12.54,5.522l26.954,43.324c4.9-.431,9.233-3.733,11.8-7.925s3.55-9.18,3.791-14.088c.061-1.231.057-2.476.006-3.72l8.669,1.393a19.328,19.328,0,0,0-5.763-5.151A7.239,7.239,0,0,0-1094.276,2595.51Z" transform="translate(1148.04 -2569.556)" fill="#344154"/></g><g transform="translate(1.156 15.745)"><path d="M-1130.531,2668.387a13.556,13.556,0,0,0,13.264-13.4l.626-53.9h0a4.29,4.29,0,0,0-3.838-4.352l-22.766-5.754c-7.291-.771-12.139,8.207-12.6,15.524-.512,8.13-.817,18.075.146,24.141,1.937,12.2,11.285,13.749,11.285,13.749,0-.032.007,4.72.035,10.5a13.558,13.558,0,0,0,13.849,13.489Z" transform="translate(1156.328 -2590.939)" fill="#ffbf9d"/><g transform="translate(2.614 19.1)"><g transform="translate(2.596 2.952)"><path d="M-1149.25,2622.3a1.564,1.564,0,0,0,1.509,1.577,1.5,1.5,0,0,0,1.612-1.41,1.565,1.565,0,0,0-1.506-1.579A1.5,1.5,0,0,0-1149.25,2622.3Z" transform="translate(1149.251 -2620.888)" fill="#344154"/></g><path d="M-1152.753,2618.524c.194.2,1.38-.674,3.063-.669,1.681-.021,2.917.846,3.1.64.09-.091-.108-.459-.646-.851a4.3,4.3,0,0,0-2.481-.764,4.12,4.12,0,0,0-2.437.786C-1152.673,2618.063-1152.848,2618.432-1152.753,2618.524Z" transform="translate(1152.777 -2616.879)" fill="#344154"/></g><g transform="translate(19.16 19.414)"><g transform="translate(2.064 2.638)"><path d="M-1127.5,2622.3a1.564,1.564,0,0,0,1.508,1.577,1.5,1.5,0,0,0,1.612-1.41,1.564,1.564,0,0,0-1.506-1.579A1.5,1.5,0,0,0-1127.5,2622.3Z" transform="translate(1127.503 -2620.888)" fill="#344154"/></g><path d="M-1130.282,2618.95c.194.2,1.381-.672,3.063-.668,1.681-.02,2.917.846,3.1.64.09-.091-.106-.459-.646-.851a4.3,4.3,0,0,0-2.481-.765,4.122,4.122,0,0,0-2.438.787C-1130.2,2618.489-1130.377,2618.858-1130.282,2618.95Z" transform="translate(1130.306 -2617.305)" fill="#344154"/></g><g transform="translate(8.787 19.516)"><path d="M-1140.105,2631.469a11.163,11.163,0,0,0-2.734-.493c-.43-.044-.837-.13-.909-.423a2.189,2.189,0,0,1,.287-1.274q.606-1.56,1.271-3.273c1.766-4.659,3.043-8.491,2.855-8.561s-1.772,3.652-3.537,8.312q-.637,1.723-1.218,3.292a2.49,2.49,0,0,0-.223,1.687,1.08,1.08,0,0,0,.707.629,2.967,2.967,0,0,0,.73.1A10.9,10.9,0,0,0-1140.105,2631.469Z" transform="translate(1144.394 -2617.444)" fill="#344154"/></g><g transform="translate(11.913 49.102)"><path d="M-1140.148,2661.984a31.022,31.022,0,0,0,16.334-4.358s-3.963,8.378-16.17,7.238Z" transform="translate(1140.148 -2657.626)" fill="#ff9a6c"/></g><g transform="translate(13.619 36.454)"><path d="M-1137.662,2641.591a3.03,3.03,0,0,1,2.718-1.125,2.768,2.768,0,0,1,1.913,1.024,1.756,1.756,0,0,1,.133,2.007,2.035,2.035,0,0,1-2.207.558,6.355,6.355,0,0,1-2.151-1.284,1.844,1.844,0,0,1-.481-.5.563.563,0,0,1,0-.626" transform="translate(1137.831 -2640.448)" fill="#ff9a6c"/></g><g transform="translate(12.665 34.705)"><path d="M-1133.762,2638.073c-.274-.015-.277,1.812-1.842,3.108s-3.508,1.1-3.522,1.352c-.026.114.434.355,1.255.377a4.552,4.552,0,0,0,2.941-1.025,3.957,3.957,0,0,0,1.426-2.605C-1133.434,2638.516-1133.637,2638.063-1133.762,2638.073Z" transform="translate(1139.127 -2638.073)" fill="#344154"/></g><g transform="translate(18.419 16.849)"><path d="M-1131.3,2615.084c.167.458,1.847.241,3.821.479,1.98.2,3.572.777,3.834.366.117-.2-.161-.626-.8-1.07a6.4,6.4,0,0,0-2.841-.995,6.4,6.4,0,0,0-2.991.351C-1131.01,2614.508-1131.375,2614.867-1131.3,2615.084Z" transform="translate(1131.313 -2613.823)" fill="#344154"/></g><g transform="translate(2.83 15.894)"><path d="M-1152.441,2614.27c.3.382,1.456-.015,2.85-.033,1.394-.068,2.575.257,2.846-.143.119-.194-.066-.577-.582-.94a3.945,3.945,0,0,0-2.317-.626,3.942,3.942,0,0,0-2.273.769C-1152.41,2613.689-1152.571,2614.083-1152.441,2614.27Z" transform="translate(1152.484 -2612.525)" fill="#344154"/></g><g transform="translate(37.962 24.927)"><path d="M-1104.4,2625.176a3.057,3.057,0,0,1,3.189.16,5.836,5.836,0,0,1,2.524,6.712,5.836,5.836,0,0,1-6.087,3.79" transform="translate(1104.771 -2624.792)" fill="#ffbf9d"/></g><g transform="translate(38.908 27.647)"><path d="M-1103.206,2633.173c.035-.087.474.1,1.062-.167a2.123,2.123,0,0,0,1.047-2.084,2.153,2.153,0,0,0-1.3-1.956c-.61-.25-1.059-.128-1.085-.222-.043-.06.415-.384,1.219-.2a2.239,2.239,0,0,1,1.193.744,2.715,2.715,0,0,1,.605,1.6,2.424,2.424,0,0,1-1.526,2.538C-1102.821,2633.645-1103.271,2633.222-1103.206,2633.173Z" transform="translate(1103.486 -2628.487)" fill="#ff9a6c"/></g></g><g transform="translate(41.709 49.593)"><path d="M-1099.284,2637.863a2.512,2.512,0,0,1,.559.395l1.494,1.22,5.263,4.471.177.15-.15.18c-1.959,2.353-4.143,5.3-6.6,8.379-.556.694-1.11,1.374-1.65,2.009l-.451.531-.031-.7c-.222-4.966-.392-9.363-.49-12.518-.036-1.5-.066-2.747-.089-3.719a6.932,6.932,0,0,1,.036-1.355,6.836,6.836,0,0,1,.162,1.346c.067.97.153,2.212.256,3.711.2,3.151.432,7.544.672,12.51l-.482-.164,1.637-2c2.446-3.068,4.656-6,6.672-8.336l.027.33-5.137-4.62-1.411-1.319A2.511,2.511,0,0,1-1099.284,2637.863Z" transform="translate(1101.252 -2636.91)" fill="#5e6178"/></g><g transform="translate(0 10.46)"><path d="M-1138.885,2583.762a44.426,44.426,0,0,0-8.893.971,14.894,14.894,0,0,0-7.69,4.33,9.042,9.042,0,0,0-2.124,8.318,6.551,6.551,0,0,0,6.753,4.709c2.249-.3,4.4-1.966,6.574-1.3,2.051.625,3.179,3.126,5.287,3.516,2.081.385,3.932-1.482,6.041-1.666,2.326-.2,4.344,1.707,5.379,3.8s1.428,4.457,2.468,6.547a5.3,5.3,0,0,0,3.142,2.989,4.318,4.318,0,0,0,3.8-1.07,8.829,8.829,0,0,0,2.226-3.408,19.249,19.249,0,0,0-1.247-16.805,19.25,19.25,0,0,0-14.143-9.161" transform="translate(1157.898 -2583.762)" fill="#344154"/></g><g transform="translate(35.59 11.521)"><path d="M-1096.421,2597.1c-.1.027-.379-.984-1.128-2.477a17.93,17.93,0,0,0-3.924-5.14,17.961,17.961,0,0,0-5.511-3.385c-1.56-.594-2.6-.774-2.578-.871.006-.038.268-.022.741.04a11.063,11.063,0,0,1,1.966.463,16.028,16.028,0,0,1,5.752,3.343,16.028,16.028,0,0,1,3.906,5.383,10.991,10.991,0,0,1,.659,1.91C-1096.427,2596.827-1096.385,2597.086-1096.421,2597.1Z" transform="translate(1109.563 -2585.202)" fill="#d9a171"/></g><g transform="translate(40.692 3.996)"><path d="M-1085.264,2576.535a20.2,20.2,0,0,0-2.937-.911,11.714,11.714,0,0,0-7.154,1.077,15.883,15.883,0,0,0-5.529,4.81c-1.131,1.536-1.659,2.61-1.743,2.567a2.354,2.354,0,0,1,.29-.793,15.22,15.22,0,0,1,1.134-2,14.851,14.851,0,0,1,5.6-5.08,11.361,11.361,0,0,1,7.478-.966,8.375,8.375,0,0,1,2.166.808C-1085.482,2576.317-1085.247,2576.507-1085.264,2576.535Z" transform="translate(1102.633 -2574.984)" fill="#5e6178"/></g><g transform="translate(39.768 19.877)"><path d="M-1097.322,2596.552a7.684,7.684,0,0,1,.018,2.508,19.848,19.848,0,0,1-1.524,5.866,19.874,19.874,0,0,1-3.219,5.137,7.673,7.673,0,0,1-1.836,1.708c-.144-.118,2.723-2.752,4.549-7.063C-1097.454,2600.422-1097.506,2596.528-1097.322,2596.552Z" transform="translate(1103.888 -2596.552)" fill="#5e6178"/></g><g transform="translate(42.219 20.136)"><path d="M-1096.092,2596.9c.036-.011.14.237.3.7a11.821,11.821,0,0,1,.477,2.011,17.157,17.157,0,0,1-.329,6.8,17.169,17.169,0,0,1-2.939,6.14,11.812,11.812,0,0,1-1.375,1.542c-.358.332-.567.5-.594.473-.069-.069.686-.832,1.653-2.243a19.338,19.338,0,0,0,2.721-6.046,19.326,19.326,0,0,0,.477-6.613C-1095.884,2597.963-1096.186,2596.932-1096.092,2596.9Z" transform="translate(1100.559 -2596.904)" fill="#5e6178"/></g></g></g></g></g><g transform="translate(-1237.668 2429.872)"><path d="M-1125.859,2441.491a4.152,4.152,0,0,1-1.322,2.764,4.336,4.336,0,0,1-2.957.973,3.978,3.978,0,0,1-3.206-1.435,5.767,5.767,0,0,1-1.205-3.837v-1.085a6.429,6.429,0,0,1,.563-2.768,4.191,4.191,0,0,1,1.593-1.833,4.436,4.436,0,0,1,2.388-.639,4.077,4.077,0,0,1,2.883,1,4.2,4.2,0,0,1,1.263,2.779h-1.5a3.239,3.239,0,0,0-.841-1.959,2.543,2.543,0,0,0-1.81-.606,2.663,2.663,0,0,0-2.237,1.055,4.844,4.844,0,0,0-.81,3V2440a4.985,4.985,0,0,0,.767,2.925,2.482,2.482,0,0,0,2.148,1.086,2.863,2.863,0,0,0,1.9-.562,3.117,3.117,0,0,0,.88-1.958Z" transform="translate(1134.549 -2433.165)" fill="#344154"/><path d="M-1120.81,2441.839a4.963,4.963,0,0,1,.484-2.217,3.623,3.623,0,0,1,1.349-1.519,3.679,3.679,0,0,1,1.973-.535,3.535,3.535,0,0,1,2.771,1.186,4.559,4.559,0,0,1,1.059,3.155v.1a5,5,0,0,1-.469,2.2,3.555,3.555,0,0,1-1.341,1.515,3.713,3.713,0,0,1-2,.543,3.531,3.531,0,0,1-2.764-1.186,4.541,4.541,0,0,1-1.058-3.14Zm1.443.171a3.591,3.591,0,0,0,.647,2.241,2.072,2.072,0,0,0,1.733.844,2.06,2.06,0,0,0,1.736-.856,3.922,3.922,0,0,0,.644-2.4,3.58,3.58,0,0,0-.655-2.236,2.08,2.08,0,0,0-1.74-.856,2.06,2.06,0,0,0-1.713.844A3.894,3.894,0,0,0-1119.368,2442.01Z" transform="translate(1130.926 -2434.204)" fill="#344154"/><path d="M-1106.641,2437.724l.047,1.054a3.056,3.056,0,0,1,2.511-1.209q2.659,0,2.682,3v5.542h-1.434v-5.55a1.931,1.931,0,0,0-.415-1.34,1.663,1.663,0,0,0-1.268-.435,2.064,2.064,0,0,0-1.224.373,2.519,2.519,0,0,0-.822.977v5.976H-1108v-8.387Z" transform="translate(1127.547 -2434.204)" fill="#344154"/><path d="M-1094.518,2435.021v2.031h1.566v1.108h-1.566v5.209a1.157,1.157,0,0,0,.21.756.877.877,0,0,0,.713.253,3.471,3.471,0,0,0,.682-.093v1.156a4.214,4.214,0,0,1-1.1.154,1.784,1.784,0,0,1-1.45-.582,2.5,2.5,0,0,1-.488-1.65v-5.2h-1.527v-1.108h1.527v-2.031Z" transform="translate(1124.774 -2433.532)" fill="#344154"/><path d="M-1083.965,2446.11a3,3,0,0,1-.2-.883,3.2,3.2,0,0,1-2.388,1.039,2.961,2.961,0,0,1-2.034-.7,2.267,2.267,0,0,1-.795-1.779,2.371,2.371,0,0,1,1-2.035,4.7,4.7,0,0,1,2.8-.725h1.4v-.659a1.612,1.612,0,0,0-.45-1.2,1.808,1.808,0,0,0-1.325-.445,2.1,2.1,0,0,0-1.287.387,1.142,1.142,0,0,0-.519.938h-1.442a1.977,1.977,0,0,1,.446-1.213,3.038,3.038,0,0,1,1.209-.926,4.057,4.057,0,0,1,1.678-.341,3.317,3.317,0,0,1,2.271.725,2.614,2.614,0,0,1,.853,2v3.86a4.73,4.73,0,0,0,.295,1.837v.124Zm-2.38-1.092a2.52,2.52,0,0,0,1.279-.349,2.11,2.11,0,0,0,.876-.907v-1.721h-1.124q-2.635,0-2.636,1.542a1.306,1.306,0,0,0,.45,1.055A1.729,1.729,0,0,0-1086.344,2445.018Z" transform="translate(1122.639 -2434.204)" fill="#344154"/><path d="M-1070.228,2440.806a4.982,4.982,0,0,1-.884,3.088,2.822,2.822,0,0,1-2.372,1.167,2.923,2.923,0,0,1-2.457-1.125l-.07.969h-1.318V2433h1.434v4.442a2.907,2.907,0,0,1,2.4-1.078,2.842,2.842,0,0,1,2.4,1.155,5.143,5.143,0,0,1,.872,3.164Zm-1.434-.163a3.876,3.876,0,0,0-.566-2.263,1.874,1.874,0,0,0-1.628-.8,2.107,2.107,0,0,0-2.039,1.318v3.628a2.166,2.166,0,0,0,2.054,1.318,1.863,1.863,0,0,0,1.6-.8A4.116,4.116,0,0,0-1071.662,2440.643Z" transform="translate(1119.461 -2432.999)" fill="#344154"/><path d="M-1065.221,2434.46a.856.856,0,0,1,.213-.589.8.8,0,0,1,.632-.24.814.814,0,0,1,.636.24.849.849,0,0,1,.216.589.82.82,0,0,1-.216.582.827.827,0,0,1-.636.233.812.812,0,0,1-.632-.233A.827.827,0,0,1-1065.221,2434.46Zm1.55,10.613h-1.434v-8.388h1.434Z" transform="translate(1116.268 -2433.165)" fill="#344154"/><path d="M-1058.4,2444.906h-1.434V2433h1.434Z" transform="translate(1114.847 -2432.999)" fill="#344154"/><path d="M-1054.756,2434.46a.858.858,0,0,1,.213-.589.8.8,0,0,1,.632-.24.812.812,0,0,1,.635.24.846.846,0,0,1,.217.589.817.817,0,0,1-.217.582.824.824,0,0,1-.635.233.812.812,0,0,1-.632-.233A.828.828,0,0,1-1054.756,2434.46Zm1.55,10.613h-1.434v-8.388h1.434Z" transform="translate(1113.508 -2433.165)" fill="#344154"/><path d="M-1050.008,2440.643a4.914,4.914,0,0,1,.915-3.1,2.894,2.894,0,0,1,2.4-1.175,2.909,2.909,0,0,1,2.333,1.008V2433h1.434v11.907h-1.318l-.07-.9a2.92,2.92,0,0,1-2.4,1.055,2.868,2.868,0,0,1-2.376-1.193,4.975,4.975,0,0,1-.918-3.117Zm1.434.163a3.718,3.718,0,0,0,.59,2.232,1.9,1.9,0,0,0,1.627.807,2.091,2.091,0,0,0,1.992-1.225v-3.853a2.108,2.108,0,0,0-1.976-1.187,1.913,1.913,0,0,0-1.643.814A4.1,4.1,0,0,0-1048.574,2440.806Z" transform="translate(1112.256 -2432.999)" fill="#344154"/><path d="M-1032.282,2446.11a3.012,3.012,0,0,1-.2-.883,3.2,3.2,0,0,1-2.387,1.039,2.964,2.964,0,0,1-2.035-.7,2.27,2.27,0,0,1-.795-1.779,2.371,2.371,0,0,1,1-2.035,4.7,4.7,0,0,1,2.8-.725h1.4v-.659a1.612,1.612,0,0,0-.45-1.2,1.808,1.808,0,0,0-1.325-.445,2.1,2.1,0,0,0-1.287.387,1.142,1.142,0,0,0-.519.938h-1.442a1.976,1.976,0,0,1,.446-1.213,3.042,3.042,0,0,1,1.209-.926,4.062,4.062,0,0,1,1.679-.341,3.319,3.319,0,0,1,2.271.725,2.617,2.617,0,0,1,.853,2v3.86a4.717,4.717,0,0,0,.294,1.837v.124Zm-2.38-1.092a2.516,2.516,0,0,0,1.279-.349,2.1,2.1,0,0,0,.876-.907v-1.721h-1.124q-2.636,0-2.635,1.542a1.3,1.3,0,0,0,.449,1.055A1.729,1.729,0,0,0-1034.662,2445.018Z" transform="translate(1109.011 -2434.204)" fill="#344154"/><path d="M-1026.12,2440.643a4.915,4.915,0,0,1,.915-3.1,2.894,2.894,0,0,1,2.4-1.175,2.908,2.908,0,0,1,2.333,1.008V2433h1.434v11.907h-1.318l-.069-.9a2.921,2.921,0,0,1-2.4,1.055,2.865,2.865,0,0,1-2.375-1.193,4.97,4.97,0,0,1-.919-3.117Zm1.435.163a3.718,3.718,0,0,0,.589,2.232,1.9,1.9,0,0,0,1.628.807,2.091,2.091,0,0,0,1.992-1.225v-3.853a2.108,2.108,0,0,0-1.976-1.187,1.914,1.914,0,0,0-1.643.814A4.1,4.1,0,0,0-1024.686,2440.806Z" transform="translate(1105.957 -2432.999)" fill="#344154"/></g><g transform="translate(-1410.869 2659.487)"><g transform="translate(10.811)"><g transform="translate(0 27.7)"><rect width="33.739" height="92.31" fill="#6595bf"/><rect width="21.229" height="40.089" transform="translate(6.255 6.066)" fill="#aed3f2"/><path d="M-1364.067,2802.532a8.339,8.339,0,0,1-8.34,8.34,8.339,8.339,0,0,1-8.34-8.34,8.339,8.339,0,0,1,8.34-8.34A8.339,8.339,0,0,1-1364.067,2802.532Z" transform="translate(1389.277 -2729.745)" fill="#aed3f2"/><rect width="13.268" height="3.412" transform="translate(10.236 13.458)" fill="#6595bf"/><rect width="13.268" height="3.412" transform="translate(10.236 20.661)" fill="#6595bf"/></g><g transform="translate(36.569 12.405)"><rect width="33.739" height="107.621" fill="#6595bf"/><rect width="21.229" height="40.089" transform="translate(6.255 6.066)" fill="#aed3f2"/><path d="M-1325.132,2802.549a8.34,8.34,0,0,1-8.34,8.34,8.341,8.341,0,0,1-8.34-8.34,8.341,8.341,0,0,1,8.34-8.341A8.34,8.34,0,0,1-1325.132,2802.549Z" transform="translate(1350.341 -2714.451)" fill="#aed3f2"/><rect width="13.268" height="3.412" transform="translate(10.236 13.458)" fill="#6595bf"/><rect width="13.268" height="3.412" transform="translate(10.236 20.661)" fill="#6595bf"/></g><g transform="translate(73.138)"><rect width="33.74" height="120.026" fill="#6595bf"/><rect width="21.229" height="40.089" transform="translate(6.255 6.066)" fill="#aed3f2"/><path d="M-1286.2,2802.549a8.34,8.34,0,0,1-8.339,8.34,8.341,8.341,0,0,1-8.341-8.34,8.341,8.341,0,0,1,8.341-8.341A8.34,8.34,0,0,1-1286.2,2802.549Z" transform="translate(1311.406 -2702.046)" fill="#aed3f2"/><rect width="13.268" height="3.412" transform="translate(10.236 13.458)" fill="#6595bf"/><rect width="13.268" height="3.412" transform="translate(10.236 20.661)" fill="#6595bf"/></g></g><path d="M-1401.339,2817.633l62.883-40.327,14.127,14.184,39.358-27.693-9.911-5.175h22.043l-5.468,20.264-3.247-11.672-44.428,31.564-13.67-13.952-58.953,37.763Z" transform="translate(1401.339 -2699.884)" fill="#d9a171"/></g></g><g transform="translate(243.333 2301.12)"><path d="M142.964,341.624a38.293,38.293,0,1,1,38.1-42.363h0a38.3,38.3,0,0,1-38.1,42.363Zm.091-70.857a33.092,33.092,0,0,0-3.522.189,32.434,32.434,0,1,0,3.522-.189Z" transform="translate(-104.698 -265.034)" fill="#5e6178"/><g transform="translate(55.95 63.753)"><path d="M212.081,391.093a2.86,2.86,0,0,1-2.184-1.007l-36.209-42.493a2.867,2.867,0,1,1,4.364-3.72l36.209,42.493a2.867,2.867,0,0,1-2.181,4.727Z" transform="translate(-173.004 -342.866)" fill="#5e6178"/></g></g></g></svg>