<svg xmlns="http://www.w3.org/2000/svg" width="456.506" height="493.757" viewBox="0 0 456.506 493.757">
  <g id="Grupo_76757" data-name="Grupo 76757" transform="translate(-287 -9139.377)">
    <g id="Grupo_76755" data-name="Grupo 76755" transform="translate(352.247 9139.377)">
      <g id="Grupo_73117" data-name="Grupo 73117" transform="translate(44.238 140.904)">
        <g id="Grupo_73116" data-name="Grupo 73116">
          <g id="Grupo_73115" data-name="Grupo 73115">
            <path id="Trazado_110223" data-name="Trazado 110223" d="M313.735,162.251c-.252-.04-2.2.063-2.456.024-2.154-.234-4.676-.35-5.86-2.135-1.377-2.075-.02-5.161-1.436-7.2-.737-1.067-2.017-1.532-3.065-2.289-1.048-.737-1.941-2.134-1.3-3.259.523-.951,1.882-1.145,2.56-2.018a1.979,1.979,0,0,0-.038-2.425c-2.212-2.618-4.675,2.716-5.9,3.978a10.676,10.676,0,0,1-.991.931v.02c-.019.233-.038.445-.038.679-.029.728-.027,1.472-.038,2.212s-.04,1.474-.04,2.211c0,.6.02,1.2.029,1.8s-.028,2.358-.009,2.95a18.5,18.5,0,0,1,3.7,1.489c2.386,1.378,5.168,2.42,5.323,5.174a2.284,2.284,0,0,0,.252,1.3c.252.35.655,1.652,1.081,1.75a50.468,50.468,0,0,0,7.538,1.566" transform="translate(-295.136 -142.236)" fill="#ebebeb"/>
          </g>
        </g>
      </g>
      <g id="Grupo_73170" data-name="Grupo 73170">
        <g id="Grupo_73120" data-name="Grupo 73120" transform="translate(163.107)">
          <g id="Grupo_73119" data-name="Grupo 73119">
            <g id="Grupo_73118" data-name="Grupo 73118">
              <path id="Trazado_110224" data-name="Trazado 110224" d="M485.547,134.3s.165-.141.5-.387l1.514-1.078c.655-.487,1.52-1.015,2.444-1.771s2.015-1.6,3.224-2.561c1.146-1.043,2.457-2.161,3.826-3.454,1.306-1.359,2.834-2.73,4.25-4.417a79.917,79.917,0,0,0,8.945-11.936,81.915,81.915,0,0,0,12.126-36.52,60.966,60.966,0,0,0-2.292-22.65c-2.236-7.573-6.394-15.085-12.913-20.413a32.473,32.473,0,0,0-10.881-5.8,40.834,40.834,0,0,0-11.928-1.62c-7.955.047-15.522,1.808-22.524,3.886a160.476,160.476,0,0,0-35.641,15.4,165.225,165.225,0,0,0-21.532,14.969c-2.371,2-4.21,3.552-5.414,4.658l-1.394,1.228c-.316.274-.491.4-.491.4s.143-.16.445-.451l1.351-1.277c1.175-1.137,2.989-2.724,5.339-4.755A160.168,160.168,0,0,1,461.67,25c7.024-2.1,14.639-3.893,22.693-3.949a41.377,41.377,0,0,1,12.119,1.637,33.049,33.049,0,0,1,11.1,5.919c6.653,5.438,10.86,13.074,13.114,20.735a61.394,61.394,0,0,1,2.279,22.882,81.951,81.951,0,0,1-12.334,36.717,79.4,79.4,0,0,1-9.066,11.936c-1.436,1.682-2.982,3.047-4.306,4.4-1.388,1.285-2.715,2.394-3.879,3.424l-3.271,2.522c-.939.741-1.817,1.253-2.486,1.723l-1.551,1.026C485.736,134.2,485.547,134.3,485.547,134.3Z" transform="translate(-397.37 -21.05)" fill="#e0e0e0"/>
            </g>
          </g>
        </g>
        <g id="Grupo_73123" data-name="Grupo 73123" transform="translate(0 78.695)">
          <g id="Grupo_73122" data-name="Grupo 73122">
            <g id="Grupo_73121" data-name="Grupo 73121">
              <path id="Trazado_110225" data-name="Trazado 110225" d="M344.133,222.016a66.237,66.237,0,0,1-9.907,2.265,76.947,76.947,0,0,1-27.612-.685,66.185,66.185,0,0,1-17.978-6.567,63.736,63.736,0,0,1-17.143-13.7,57.722,57.722,0,0,1-12-21.029,45.988,45.988,0,0,1-1.5-6.218,52.612,52.612,0,0,1-.813-6.452c-.109-1.088-.045-2.188-.076-3.288a27.6,27.6,0,0,1,.084-3.309q.124-1.657.249-3.324.253-1.653.509-3.316a62.9,62.9,0,0,1,3.58-12.767c.732-2.06,1.716-4,2.616-5.947.46-.971,1.017-1.888,1.518-2.829.516-.931,1-1.877,1.594-2.753a76.879,76.879,0,0,1,15.768-18.442,92.067,92.067,0,0,1,18.4-12.019,114.021,114.021,0,0,1,17.845-6.96,150.731,150.731,0,0,1,27.2-5.248c3.259-.31,5.791-.51,7.513-.584l1.957-.1c.442-.017.669-.009.669-.009s-.224.036-.664.077l-1.952.16c-1.719.115-4.246.357-7.495.7A155.934,155.934,0,0,0,319.4,95.114a114.775,114.775,0,0,0-17.737,7,92.035,92.035,0,0,0-18.25,11.992A76.494,76.494,0,0,0,267.8,132.427c-.586.87-1.066,1.808-1.579,2.732-.5.932-1.048,1.842-1.5,2.8-.89,1.936-1.865,3.853-2.588,5.895a62.446,62.446,0,0,0-3.542,12.641q-.253,1.645-.5,3.28-.124,1.648-.246,3.287a27.224,27.224,0,0,0-.084,3.271c.03,1.087-.034,2.175.073,3.25a51.79,51.79,0,0,0,.8,6.374,45.338,45.338,0,0,0,1.477,6.146,57.271,57.271,0,0,0,11.843,20.821A63.45,63.45,0,0,0,288.9,216.554a66.058,66.058,0,0,0,17.815,6.591,77.9,77.9,0,0,0,27.476.884c3.228-.5,5.715-1.015,7.388-1.415l1.9-.462C343.908,222.051,344.133,222.016,344.133,222.016Z" transform="translate(-257.089 -88.732)" fill="#e0e0e0"/>
            </g>
          </g>
        </g>
        <g id="Grupo_73154" data-name="Grupo 73154" transform="translate(44.238 26.107)">
          <g id="Grupo_73126" data-name="Grupo 73126" transform="translate(0.06)">
            <g id="Grupo_73125" data-name="Grupo 73125">
              <g id="Grupo_73124" data-name="Grupo 73124">
                <path id="Trazado_110226" data-name="Trazado 110226" d="M534.487,174.428c-1.234-2.787-1.512-5.871-2.328-8.8-.438-1.572-1.174-3.244-2.646-3.94a23.564,23.564,0,0,0-3.165-.717c-3.721-1.114-4.736-6.308-8.259-7.92a11.991,11.991,0,0,0-3.542-.736c-4.716-.557-9.592-2.188-12.557-5.89a23.056,23.056,0,0,0-2.905-3.581c-1.214-.976-3.085-1.394-4.259-.4,1,1.991,1.971,3.98,2.946,5.951a15.661,15.661,0,0,0,3.3,4.954,5.332,5.332,0,0,0,5.553,1.194,3.662,3.662,0,0,1,1.871-.656,2.019,2.019,0,0,1,1.214.776c2.566,2.845,1.731,7.562-.777,10.468-2.487,2.885-6.189,4.4-9.751,5.81a7.569,7.569,0,0,1-3.98.777c-2.468-.458-3.781-3.144-4.5-5.552-1.613-5.333-2.388-11.125-5.692-15.622-1.054-1.413-2.368-2.707-3.006-4.358-.677-1.791-.517-3.881-1.592-5.453-1.115-1.651-3.482-2.607-3.642-4.6a3.631,3.631,0,0,1,2.328-3.224c1.274-.617,2.707-.8,4.021-1.334.517-.219,1.094-.6,1.114-1.153,0-.836-1.153-1.174-1.452-1.951-.319-.876.577-1.692.955-2.548.816-1.95-1.214-3.919-3.184-4.716-1.951-.8-4.318-1.373-5.234-3.284a11.381,11.381,0,0,1-.636-2.845c-.458-2.408-2.229-4.737-4.657-5.135-2.449-.4-5.154,1.771-4.757,4.2.24,1.334,1.234,2.368,1.771,3.6.558,1.234.4,3.065-.876,3.463-2.089.637-4.1-3.184-5.85-1.871.716,2.448,1.413,4.9,2.129,7.363-2.746,1.393-6.03-1.135-7.2-4-1.174-2.846-1.214-6.11-2.607-8.856-1.393-2.765-5.154-4.815-7.543-2.865-.12,3.542,4.558,4.975,6.628,7.84,1.492,2.07,1.273,5.433-.936,6.746-2.188,1.314-5.67-.974-4.836-3.382.3-.836,1-1.532,1.074-2.428.08-1.115-.855-2.01-1.71-2.727-1.334-1.135-2.667-2.249-4-3.364a8.417,8.417,0,0,0-2.846-1.791c-2.746-.8-5.493,1.432-6.945,3.881-1.453,2.467-2.27,5.353-4.279,7.4-2.886,2.985-8.359,3.164-11.064.04-2.727-3.124-1.334-8.975,2.666-10.11,1.513-.417,3.423-.378,4.219-1.712,1.393-2.368-2.587-5.393-1.214-7.781,1.055-1.83,3.84-1,5.87-1.612,2.009-.617,3.144-2.648,4.337-4.4,1.175-1.731,3.025-3.482,5.1-3.024a6.368,6.368,0,0,1,.22-3.622c.537-1.115,2.049-1.831,3.044-1.115-1.015,1.672.2,4,1.971,4.836s3.84.637,5.79.419c1.951-.24,4.4-.956,4.557-2.906.06-.637-.179-1.314.06-1.91.856-2.329,5.154.876,6.805-1,.956-.976-.1-2.707-1.432-3.025-1.314-.337-2.687.159-4.039.2-1.353.059-3.006-.657-3.065-2.01-.059-1.334,1.432-2.288,1.592-3.6.259-2.229-3.522-2.806-4.855-1-1.314,1.812-.856,4.3-.458,6.508.419,2.209.617,4.816-1.015,6.368-.7,1.055-2.507.5-3.1-.617-.616-1.114-.477-2.467-.577-3.721-.1-1.274-.657-2.707-1.891-3.045a6.75,6.75,0,0,0-2.646.3c-3.463.417-5.871-4.059-4.776-7.363,1.074-3.323,4.218-5.452,7.263-7.144,2.229-1.234,5-2.388,7.2-1.135,1.035.577,1.751,1.572,2.766,2.17,1.751,1.035,3.921.657,5.93.7a13.808,13.808,0,0,1,8.656,3.363c.9.816,1.732,2.17,1.036,3.145-.757,1.035-2.925,1.253-2.548,2.467a4.315,4.315,0,0,0,5.412-3.482,3.619,3.619,0,0,1,2.089,2.945,6.443,6.443,0,0,1,9.453.776,8.116,8.116,0,0,0,1.751,2.249c.8.517,2.189.259,2.288-.677a1.891,1.891,0,0,0-.159-.876c-.477-1.353-.974-2.686-1.452-4.02,1.851-1,4.04.557,5.294,2.229,4.657,6.229,7.98,2.487,14.547,3.5,4.438.677,6.388,3.522,8.9,6.966,7.681,10.587,17.83,19.263,24.816,30.327.736,1.155,1.412,2.328,2.049,3.522-.119-.3-.219-.6-.338-.894a122.625,122.625,0,0,0-10.148-20.637q-1.284-2.089-2.628-4.119c-.557-.836-1.134-1.692-1.711-2.507-.736-1.076-1.511-2.11-2.288-3.144-.617-.837-1.234-1.652-1.871-2.449-.437-.557-.9-1.114-1.352-1.672-.478-.636-1-1.253-1.553-1.871l-1.671-1.929a7.131,7.131,0,0,0-.537-.6c-.578-.677-1.194-1.334-1.812-1.991a.566.566,0,0,0-.179-.2c-.159-.179-.338-.358-.517-.537-.5-.557-1.035-1.094-1.552-1.631-.856-.876-1.731-1.751-2.627-2.587-.736-.736-1.493-1.434-2.268-2.13-.677-.616-1.353-1.234-2.05-1.83-.677-.6-1.353-1.174-2.05-1.751-.836-.716-1.692-1.414-2.567-2.11h-.02q-3.612-2.9-7.443-5.472c-.637-.438-1.253-.856-1.891-1.273-.637-.438-1.294-.837-1.93-1.235-.657-.4-1.294-.815-1.951-1.194-.656-.417-1.313-.8-1.97-1.174-.537-.317-1.055-.616-1.592-.9a8.477,8.477,0,0,0-.816-.458c-1.134-.636-2.288-1.253-3.443-1.83-.577-.3-1.155-.6-1.751-.876-.736-.378-1.493-.736-2.249-1.074a1.741,1.741,0,0,0-.338-.159c-.677-.319-1.353-.637-2.05-.936-.976-.417-1.95-.835-2.925-1.234-1.114-.457-2.229-.915-3.363-1.334-1.255-.477-2.508-.935-3.781-1.352-1.274-.438-2.567-.856-3.861-1.255s-2.587-.756-3.9-1.114c-2.587-.7-5.214-1.314-7.861-1.851-.04-.02-.1-.02-.14-.04-1.015-.2-2.029-.4-3.044-.557a.9.9,0,0,0-.2-.041c-.438-.079-.9-.158-1.353-.219-1.891-.319-3.8-.577-5.732-.8-.219-.04-.457-.059-.7-.079-.557-.079-1.114-.119-1.691-.179-1.273-.12-2.547-.219-3.842-.3-1.332-.1-2.686-.159-4.039-.2-1.413-.059-2.825-.079-4.239-.079-3.74,0-7.443.159-11.1.5-.875.059-1.731.14-2.587.238-.9.1-1.791.2-2.686.319s-1.792.238-2.667.378c-.9.14-1.771.279-2.666.438-.757.119-1.533.258-2.289.417q-2.806.537-5.552,1.194-1.284.3-2.567.657c-.855.219-1.711.457-2.546.7-1.414.4-2.786.836-4.16,1.273h-.02c-1.114.378-2.249.757-3.343,1.135a.15.15,0,0,0-.079.04c-1.135.4-2.229.816-3.344,1.253l-.179.06c-1.015.4-2.03.815-3.024,1.234-1.255.517-2.488,1.074-3.7,1.631-1.035.478-2.05.956-3.044,1.453-1.076.537-2.15,1.074-3.2,1.631l-.12.059c-1.015.537-2.03,1.1-3.024,1.672-1.035.577-2.05,1.174-3.065,1.812h-.02c-.956.577-1.891,1.153-2.825,1.751-.359.219-.7.458-1.056.7-.994.637-1.95,1.293-2.925,1.97-1.193.816-2.348,1.672-3.5,2.528-1.015.756-2.01,1.532-2.985,2.308a125.315,125.315,0,0,0-15.642,14.826c-1.692,1.871-3.284,3.781-4.836,5.731-1.314,1.672-2.587,3.364-3.8,5.115q-1.641,2.283-3.166,4.652,1.524-2.367,3.166-4.652c.319-.04.637-.08.956-.1,1.791-.14,3.681-.08,5.293-.856,1.493-.737,2.547-2.071,3.9-3.025,3.463-2.467,9.134-2.925,10.069-7.065.319-1.393-.059-2.906.458-4.238.976-2.488,4.3-2.846,6.965-2.807,1.135,0,2.467.159,2.986,1.155a2.848,2.848,0,0,1-.12,2.308A21.633,21.633,0,0,1,339.6,93.115c-3.463,2.11-7.98,3.742-8.935,7.682.478,1.332,2.906,1.234,3.1,2.627.14,1.114-1.293,1.692-1.81,2.687-.757,1.452.974,3.223,2.627,3.144s3.025-1.273,4.239-2.388c3.621-3.364,7.422-6.986,8.735-11.761.558-1.971.756-4.279,2.348-5.593a3.891,3.891,0,0,1,5.911,1.891c1.572-.876,4.019-1.532,4.836.1A8.432,8.432,0,0,1,361,93.374c.517,2.546,4,3.7,4.358,6.268.419,2.965-3.382,4.5-6.348,4.955-2.686.417-5.373.836-8.059,1.273a7.454,7.454,0,0,0-3.344,1.074,2.611,2.611,0,0,0-1,3.125A7.957,7.957,0,0,0,348,111.5c2.229,2.229.4,6.825-2.746,6.925-1.076.04-2.13-.358-3.2-.4-3.183-.14-5.711,2.666-7.224,5.472s-2.646,6.01-5.194,7.92c-4.1,3.085-11.164,2.368-13.154,7.105-.8,1.909-.378,4.059-.059,6.109.317,2.03.457,4.3-.737,5.99-1.174,1.671-4.238,2.029-5.114.159a4.594,4.594,0,0,1-.12-2.647c.478-2.945.935-5.89,1.393-8.835.338-2.189.637-4.637-.657-6.427-1.81-2.508-5.871-2.268-8.219-.259-2.328,2.01-3.3,5.154-3.959,8.159a35.4,35.4,0,0,1-2.27,7.92h0c-.417,2.468-.756,4.975-1.014,7.5-.259,2.587-.438,5.154-.537,7.781a11.049,11.049,0,0,0,1.015-.956c1.253-1.293,3.78-6.766,6.05-4.079a2.031,2.031,0,0,1,.04,2.487c-.7.9-2.089,1.1-2.627,2.07-.657,1.155.258,2.587,1.332,3.343,1.074.777,2.388,1.255,3.144,2.349,1.453,2.089.06,5.254,1.473,7.383,1.214,1.831,3.8,1.95,6.01,2.189l.756.119c.617-4.378,2.667-7.94,8.637-9.294,8.239-1.87,19.065,4.955,23.7,11.164,5.174,6.946,7.623,16.776,15.543,20.259,5.672,2.487,13.731,1.592,16.5,7.144,2.467,4.975-1.83,10.567-2.487,16.079-.419,3.642.776,7.263,1.055,10.905.258,3.663-.816,7.92-4.139,9.453-1.851.836-4.179.736-5.672,2.129-2.646,2.508-.478,7.682-3.124,10.19a13.576,13.576,0,0,1-3.364,1.771c-5.95,3-5.79,11.761-3.024,17.83.1.219.2.419.3.637a125.734,125.734,0,0,0,64.5,17.81,125.154,125.154,0,0,0,59-14.686h.02a125.864,125.864,0,0,0,11.125-6.707,124.1,124.1,0,0,0,15.621-12.418,121.776,121.776,0,0,0,9.553-9.97c2.109-2.428,4.1-4.954,6.01-7.543.974-1.332,1.93-2.666,2.826-4.039A123.5,123.5,0,0,0,540.6,207.422a122.262,122.262,0,0,0,4.8-21.314c.378-2.825.676-5.691.876-8.576a7.239,7.239,0,0,1-5.055,2.248C538.189,179.74,535.7,177.214,534.487,174.428Z" transform="translate(-295.188 -43.504)" fill="#f5f5f5"/>
              </g>
            </g>
          </g>
          <g id="Grupo_73129" data-name="Grupo 73129" transform="translate(80.451 2.608)">
            <g id="Grupo_73128" data-name="Grupo 73128">
              <g id="Grupo_73127" data-name="Grupo 73127">
                <path id="Trazado_110227" data-name="Trazado 110227" d="M379.521,76.045c-2.492,1.489-3.817,4.3-5.738,6.476s-5.371,3.725-7.639,1.916a5.25,5.25,0,0,1-1.706-3.7,9.485,9.485,0,0,1,1.353-5.761c1.084-1.765,2.736-3.154,3.653-5.011s.729-4.575-1.15-5.446c-1.016-.471-2.3-.287-3.2-.951-1.621-1.2-.46-4.017,1.422-4.73s3.973-.16,5.982-.033c7.29.465,12.65-4.308,18.129-8.272,4.263-3.084,13.34-6.725,18.272-3.575,1.969,1.257,2.737,4.488.884,5.908-.83.635-1.974.777-2.746,1.48-.927.843-1.057,2.23-1.588,3.365-1.379,2.951-5.359,4.022-6.639,7.016-.771,1.8-.423,4.045-1.612,5.6-.943,1.237-2.578,1.673-4.09,2.032l-9.505,2.26A14.307,14.307,0,0,0,379.521,76.045Z" transform="translate(-364.329 -45.747)" fill="#ebebeb"/>
              </g>
            </g>
          </g>
          <g id="Grupo_73132" data-name="Grupo 73132" transform="translate(101.906 81.297)">
            <g id="Grupo_73131" data-name="Grupo 73131">
              <g id="Grupo_73130" data-name="Grupo 73130">
                <path id="Trazado_110228" data-name="Trazado 110228" d="M461.494,219.819c-3.154,4.751-3.727,10.689-4.6,16.324s-2.379,11.625-6.709,15.335-12.284,3.492-14.666-1.689c-1.294-2.813-.63-6.129-1.336-9.144-.92-3.926-4.045-6.956-5.528-10.707-1.266-3.2-1.268-6.733-1.372-10.171-.564-18.792-5.146-38.4-17.941-52.179-1.571-1.693-3.356-3.342-5.588-3.935a7.139,7.139,0,0,0-7.341,2.534c-1.027,1.359-1.557,3.094-2.815,4.243-2.734,2.5-7.508.708-9.334-2.513s-1.573-7.168-1.267-10.857q.569-6.863,1.136-13.725c.2-2.393.467-4.961,2.038-6.779,2.232-2.581,6.239-2.7,8.971-4.751,3.582-2.684,4.059-7.8,6.318-11.667s9.331-5.5,10.376-1.146c7.479-16.008,24.007,7.774,33.834,5.986,2.854-.52,5.643-1.889,8.516-1.488,5.073.709,7.693,6.3,9.419,11.123q4.3,12.01,8.6,24.017c1.091,3.05,2.5,6.44,5.521,7.61,2.315.9,5,.213,7.337,1.062,6.167,2.244,4.163,11.95-.8,16.244s-11.928,7-14.287,13.127c-1.777,4.614-.359,10.02-2.272,14.579C466.329,214.514,463.45,216.872,461.494,219.819Z" transform="translate(-382.781 -113.424)" fill="#ebebeb"/>
              </g>
            </g>
          </g>
          <g id="Grupo_73135" data-name="Grupo 73135" transform="translate(187.794 176.133)">
            <g id="Grupo_73134" data-name="Grupo 73134">
              <g id="Grupo_73133" data-name="Grupo 73133">
                <path id="Trazado_110229" data-name="Trazado 110229" d="M472.886,211.766c-2.027.284-4.418-.717-5.959.63-.9.786-1.1,2.077-1.454,3.216a6.865,6.865,0,0,1-2.872,3.923,4.314,4.314,0,0,1-4.687-.085,3.173,3.173,0,0,1-.644-4.392,21.979,21.979,0,0,1,1.75-1.429c2.689-2.543.848-7.257,2.894-10.28,1.206-1.781,3.1-3.59,4.429-5.4,1.019-1.388,1.392-2.489,3.266-2.858C477.8,193.482,481.509,210.558,472.886,211.766Z" transform="translate(-456.649 -194.989)" fill="#ebebeb"/>
              </g>
            </g>
          </g>
          <g id="Grupo_73138" data-name="Grupo 73138" transform="translate(0 129.411)">
            <g id="Grupo_73137" data-name="Grupo 73137">
              <g id="Grupo_73136" data-name="Grupo 73136">
                <path id="Trazado_110230" data-name="Trazado 110230" d="M311.494,184.177c-.4-3.6.8-7.2.856-10.846.039-2.507-.14-5.154-.179-7.681a34.674,34.674,0,0,1-6.388-.9,1.917,1.917,0,0,1-1.174-.6,2.34,2.34,0,0,1-.259-1.334c-.158-2.825-2.885-4.7-5.332-6.109a21.239,21.239,0,0,0-3.881-1.91c0,.3,0,.577.02.876a125.291,125.291,0,0,0,8,39.9,120.414,120.414,0,0,0,7.681,16.478c1.234,2.288,2.587,4.537,4,6.745,1.752,2.727,3.582,5.394,5.552,7.961,1.831,2.467,3.782,4.875,5.831,7.183a124.431,124.431,0,0,0,8.9,9.154q4.149,3.882,8.656,7.363c-6.866-18.428-13.333-37.234-25.074-52.914C315.614,193.451,312.071,189.271,311.494,184.177Z" transform="translate(-295.136 -154.805)" fill="#ebebeb"/>
              </g>
            </g>
          </g>
          <g id="Grupo_73141" data-name="Grupo 73141" transform="translate(55.674 230.169)" opacity="0.6">
            <g id="Grupo_73140" data-name="Grupo 73140">
              <g id="Grupo_73139" data-name="Grupo 73139">
                <path id="Trazado_110231" data-name="Trazado 110231" d="M343.019,241.462q1.585,1.071,3.21,2.087c.757.477,1.513.935,2.289,1.393-.777-.458-1.533-.916-2.289-1.393Q344.6,242.534,343.019,241.462Z" transform="translate(-343.019 -241.462)" fill="#263238"/>
              </g>
            </g>
          </g>
          <g id="Grupo_73144" data-name="Grupo 73144" transform="translate(16.277 125.773)">
            <g id="Grupo_73143" data-name="Grupo 73143">
              <g id="Grupo_73142" data-name="Grupo 73142">
                <path id="Trazado_110232" data-name="Trazado 110232" d="M309.893,166.16c.04,2.527.219,5.174.179,7.681-.059,3.642-1.253,7.244-.856,10.846.577,5.094,4.119,9.274,7.2,13.374,11.741,15.68,18.208,34.486,25.074,52.914h.02c1.274,1.015,2.567,1.971,3.881,2.906q1.552,1.12,3.137,2.192t3.21,2.087c.757.477,1.513.935,2.289,1.393-.1-.219-.2-.419-.3-.637-2.766-6.069-2.925-14.826,3.024-17.83a13.615,13.615,0,0,0,3.364-1.771c2.646-2.508.478-7.682,3.124-10.19,1.493-1.393,3.822-1.293,5.672-2.129,3.323-1.532,4.4-5.79,4.139-9.453-.279-3.642-1.473-7.263-1.055-10.905.657-5.512,4.954-11.1,2.487-16.079-2.766-5.552-10.825-4.657-16.5-7.144-7.921-3.483-10.369-13.313-15.543-20.259-4.636-6.209-15.462-13.034-23.7-11.164-5.969,1.353-8.019,4.916-8.637,9.294" transform="translate(-309.135 -151.676)" fill="#ebebeb"/>
              </g>
            </g>
          </g>
          <g id="Grupo_73147" data-name="Grupo 73147" transform="translate(1.612 34.922)">
            <g id="Grupo_73146" data-name="Grupo 73146">
              <g id="Grupo_73145" data-name="Grupo 73145">
                <path id="Trazado_110233" data-name="Trazado 110233" d="M302.751,127.73c2.349-2.009,6.409-2.249,8.219.259,1.294,1.791,1,4.238.657,6.427-.458,2.945-.915,5.89-1.393,8.835a4.594,4.594,0,0,0,.12,2.647c.875,1.87,3.939,1.512,5.114-.159,1.194-1.692,1.055-3.96.737-5.99-.319-2.05-.737-4.2.059-6.109,1.989-4.737,9.054-4.021,13.154-7.105,2.547-1.91,3.682-5.114,5.194-7.92s4.04-5.611,7.224-5.472c1.074.04,2.129.437,3.2.4,3.144-.1,4.975-4.7,2.746-6.925a7.952,7.952,0,0,1-1.394-1.432,2.611,2.611,0,0,1,1-3.125,7.454,7.454,0,0,1,3.344-1.074c2.686-.437,5.373-.856,8.059-1.273,2.966-.458,6.767-1.991,6.348-4.955-.358-2.567-3.84-3.722-4.358-6.268a8.428,8.428,0,0,0-.338-1.871c-.816-1.632-3.264-.976-4.836-.1a3.891,3.891,0,0,0-5.911-1.891c-1.592,1.314-1.789,3.622-2.348,5.593-1.314,4.775-5.115,8.4-8.735,11.761-1.214,1.115-2.587,2.308-4.239,2.388s-3.383-1.692-2.627-3.144c.517-1,1.95-1.573,1.81-2.687-.2-1.393-2.627-1.294-3.1-2.627.956-3.94,5.473-5.572,8.935-7.682A21.633,21.633,0,0,0,348.522,77a2.848,2.848,0,0,0,.12-2.308c-.519-1-1.851-1.155-2.986-1.155-2.666-.04-5.989.319-6.965,2.807-.517,1.332-.14,2.845-.458,4.238-.935,4.139-6.607,4.6-10.069,7.065-1.353.955-2.408,2.288-3.9,3.025-1.612.776-3.5.716-5.293.856-.319.019-.637.059-.956.1q-1.641,2.283-3.166,4.652t-2.943,4.8A124.483,124.483,0,0,0,301,125.4q-1.461,4.461-2.581,9.069t-1.9,9.338a35.387,35.387,0,0,0,2.27-7.92C299.449,132.884,300.423,129.74,302.751,127.73Z" transform="translate(-296.522 -73.539)" fill="#ebebeb"/>
              </g>
            </g>
          </g>
          <g id="Grupo_73150" data-name="Grupo 73150" transform="translate(243.499 81.789)" opacity="0.6">
            <g id="Grupo_73149" data-name="Grupo 73149">
              <g id="Grupo_73148" data-name="Grupo 73148">
                <path id="Trazado_110234" data-name="Trazado 110234" d="M504.559,113.868q.9,2.388,1.689,4.808-.8-2.421-1.689-4.808s.02-.02,0-.02h0Z" transform="translate(-504.559 -113.847)" fill="#263238"/>
              </g>
            </g>
          </g>
          <g id="Grupo_73153" data-name="Grupo 73153" transform="translate(119.64 25.946)">
            <g id="Grupo_73152" data-name="Grupo 73152">
              <g id="Grupo_73151" data-name="Grupo 73151">
                <path id="Trazado_110235" data-name="Trazado 110235" d="M529.753,163.871q-.016-2.716-.161-5.393t-.415-5.333c-.14-1.432-.3-2.845-.5-4.258q-.292-2.239-.664-4.456a122.078,122.078,0,0,0-2.938-13.057q-.7-2.463-1.5-4.883t-1.689-4.808v-.02h0c-.637-1.194-1.313-2.367-2.049-3.522-6.986-11.064-17.135-19.741-24.816-30.327-2.508-3.444-4.458-6.289-8.9-6.966-6.567-1.015-9.89,2.727-14.547-3.5-1.253-1.672-3.443-3.224-5.294-2.229.478,1.334.976,2.666,1.452,4.02a1.891,1.891,0,0,1,.159.876c-.1.936-1.492,1.194-2.288.677a8.116,8.116,0,0,1-1.751-2.249,6.443,6.443,0,0,0-9.453-.776,3.619,3.619,0,0,0-2.089-2.945,4.315,4.315,0,0,1-5.412,3.482c-.378-1.214,1.791-1.432,2.548-2.467.7-.976-.14-2.329-1.036-3.145a13.808,13.808,0,0,0-8.656-3.363c-2.009-.04-4.179.338-5.93-.7-1.015-.6-1.731-1.593-2.766-2.17-2.209-1.253-4.975-.1-7.2,1.135-3.045,1.692-6.189,3.821-7.263,7.144-1.094,3.3,1.314,7.781,4.776,7.363a6.75,6.75,0,0,1,2.646-.3c1.234.338,1.792,1.771,1.891,3.045.1,1.253-.04,2.607.577,3.721.6,1.115,2.408,1.672,3.1.617,1.632-1.552,1.434-4.159,1.015-6.368-.4-2.209-.856-4.7.458-6.508,1.334-1.81,5.115-1.234,4.855,1-.159,1.314-1.651,2.268-1.592,3.6.059,1.353,1.711,2.07,3.065,2.01,1.352-.041,2.725-.537,4.039-.2,1.334.319,2.388,2.05,1.432,3.025-1.651,1.871-5.95-1.334-6.805,1-.24.6,0,1.273-.06,1.91-.158,1.95-2.606,2.666-4.557,2.906-1.95.219-4.019.417-5.79-.419s-2.986-3.164-1.971-4.836c-1-.716-2.507,0-3.044,1.115a6.368,6.368,0,0,0-.22,3.622c-2.07-.458-3.92,1.293-5.1,3.024-1.193,1.751-2.328,3.781-4.337,4.4-2.03.616-4.816-.219-5.87,1.612-1.373,2.388,2.607,5.412,1.214,7.781-.8,1.334-2.707,1.294-4.219,1.712-4,1.135-5.393,6.986-2.666,10.11,2.706,3.124,8.178,2.945,11.064-.04,2.009-2.05,2.825-4.936,4.279-7.4,1.452-2.449,4.2-4.676,6.945-3.881a8.417,8.417,0,0,1,2.846,1.791c1.332,1.115,2.666,2.229,4,3.364.856.716,1.791,1.612,1.71,2.727-.079.9-.776,1.592-1.074,2.428-.835,2.408,2.648,4.7,4.836,3.382,2.209-1.313,2.428-4.676.936-6.746-2.07-2.865-6.747-4.3-6.628-7.84,2.388-1.95,6.15.1,7.543,2.865,1.393,2.746,1.432,6.01,2.607,8.856,1.174,2.865,4.458,5.393,7.2,4-.716-2.467-1.413-4.916-2.129-7.363,1.75-1.313,3.76,2.508,5.85,1.871,1.274-.4,1.434-2.229.876-3.463-.537-1.234-1.531-2.268-1.771-3.6-.4-2.428,2.308-4.6,4.757-4.2,2.428.4,4.2,2.727,4.657,5.135a11.38,11.38,0,0,0,.636,2.845c.916,1.91,3.283,2.488,5.234,3.284,1.97.8,4,2.766,3.184,4.716-.378.856-1.273,1.672-.955,2.548.3.777,1.452,1.115,1.452,1.951-.02.557-.6.935-1.114,1.153-1.314.537-2.746.716-4.021,1.334a3.631,3.631,0,0,0-2.328,3.224c.159,1.989,2.527,2.945,3.642,4.6,1.074,1.572.915,3.663,1.592,5.453.637,1.651,1.951,2.945,3.006,4.358,3.3,4.5,4.079,10.289,5.692,15.622.716,2.408,2.029,5.094,4.5,5.552a7.569,7.569,0,0,0,3.98-.777c3.562-1.413,7.264-2.925,9.751-5.81,2.508-2.906,3.343-7.623.777-10.468a2.019,2.019,0,0,0-1.214-.776,3.662,3.662,0,0,0-1.871.656,5.332,5.332,0,0,1-5.553-1.194,15.661,15.661,0,0,1-3.3-4.954c-.976-1.971-1.951-3.96-2.946-5.951,1.174-1,3.045-.577,4.259.4a23.054,23.054,0,0,1,2.905,3.581c2.965,3.7,7.841,5.333,12.557,5.89a11.991,11.991,0,0,1,3.542.736c3.523,1.613,4.538,6.807,8.259,7.92a23.568,23.568,0,0,1,3.165.717c1.472.7,2.208,2.368,2.646,3.94.816,2.925,1.094,6.009,2.328,8.8,1.214,2.786,3.7,5.312,6.726,5.352a7.239,7.239,0,0,0,5.055-2.248v-.021c.158-2.746.258-5.491.258-8.279C529.793,165.025,529.793,164.449,529.753,163.871Z" transform="translate(-398.033 -65.819)" fill="#ebebeb"/>
              </g>
            </g>
          </g>
        </g>
        <g id="Grupo_73157" data-name="Grupo 73157" transform="translate(85.985 45.999)">
          <g id="Grupo_73156" data-name="Grupo 73156">
            <g id="Grupo_73155" data-name="Grupo 73155">
              <path id="Trazado_110236" data-name="Trazado 110236" d="M331.041,72.832s.988-.727,2.993-1.92a67.249,67.249,0,0,1,9.137-4.525,75.691,75.691,0,0,1,15.523-4.381,83.77,83.77,0,0,1,10.019-1.137c1.78-.142,3.616-.2,5.5-.224,1.885-.08,3.82.012,5.8.035a111.857,111.857,0,0,1,25.6,3.8,95.027,95.027,0,0,1,27.111,12.063,80.057,80.057,0,0,1,23.228,23.043,75.331,75.331,0,0,1,12.165,32.889,66.089,66.089,0,0,1-.263,16.971l-.527-.3a50.531,50.531,0,0,1,14.347-8.032,53.333,53.333,0,0,1,15.63-2.97,48.324,48.324,0,0,1,28.492,7.884,51.519,51.519,0,0,1,17.621,20.059,48.07,48.07,0,0,1,5,22.617A50.988,50.988,0,0,1,536.7,219.547a47.935,47.935,0,0,1-6.407,6.4q-1.217.924-1.873,1.42c-.423.317-.649.466-.649.466s.2-.184.612-.516l1.831-1.464a50.344,50.344,0,0,0,6.3-6.454,51.82,51.82,0,0,0,7.395-12.221,51.212,51.212,0,0,0,4.08-18.485,47.717,47.717,0,0,0-5.03-22.374,51.057,51.057,0,0,0-17.477-19.8,47.764,47.764,0,0,0-28.148-7.744,52.8,52.8,0,0,0-15.437,2.946,49.959,49.959,0,0,0-14.151,7.932l-.648.521.121-.822a65.539,65.539,0,0,0,.257-16.8,74.793,74.793,0,0,0-12.051-32.608A79.554,79.554,0,0,0,432.4,77.045,94.74,94.74,0,0,0,405.477,65,111.943,111.943,0,0,0,380,61.141c-1.974-.03-3.9-.129-5.779-.058-1.879.021-3.708.067-5.483.2a84.016,84.016,0,0,0-9.983,1.082,76.644,76.644,0,0,0-15.491,4.257,71.207,71.207,0,0,0-9.165,4.4c-1.018.566-1.766,1.043-2.278,1.351S331.041,72.832,331.041,72.832Z" transform="translate(-331.041 -60.612)" fill="#e0e0e0"/>
            </g>
          </g>
        </g>
        <g id="Grupo_73159" data-name="Grupo 73159" transform="translate(217.165 128.756)">
          <g id="Grupo_73158" data-name="Grupo 73158">
            <path id="Trazado_110237" data-name="Trazado 110237" d="M452.076,135.195a5.671,5.671,0,0,0-1.836-2.146c-1.955-1.764-4.458-1.523-5.473-.224a5.305,5.305,0,0,0-.4,5.259,5.8,5.8,0,0,0,3.532,3.372,4.018,4.018,0,0,0,4.456-1.5A4.6,4.6,0,0,0,452.076,135.195Z" transform="translate(-443.863 -131.788)" fill="#e0e0e0"/>
          </g>
        </g>
        <g id="Grupo_73161" data-name="Grupo 73161" transform="translate(170.872 40.217)">
          <g id="Grupo_73160" data-name="Grupo 73160">
            <path id="Trazado_110238" data-name="Trazado 110238" d="M427.25,70.833c.463-2.358-2.956-4.838-5.854-6.1,0,0-1.9-.944-2.707-1.214l-.019-.015-3.4-5.617a2.664,2.664,0,0,0-1.166-1.042l-.544-.25a.357.357,0,0,0-.494.417l1.363,5.035-.044.04L409.011,60.3l-.081-.027a4.222,4.222,0,0,1-2.338-2L405.377,56a.7.7,0,0,0-.263-.281.642.642,0,0,0-.957.539l-.108,3.826a1.555,1.555,0,0,0,.848,1.428l1.349.687,6.912,3.409-3.6,1.828a.259.259,0,0,0-.076.4l.213.25a1.3,1.3,0,0,0,1.182.444l5.941-1.116,8.155,4.021C426.043,71.984,427.022,71.709,427.25,70.833Z" transform="translate(-404.048 -55.639)" fill="#e0e0e0"/>
          </g>
        </g>
        <g id="Grupo_73169" data-name="Grupo 73169" transform="translate(80.647 44.427)">
          <g id="Grupo_73166" data-name="Grupo 73166">
            <g id="Grupo_73163" data-name="Grupo 73163">
              <g id="Grupo_73162" data-name="Grupo 73162">
                <path id="Trazado_110239" data-name="Trazado 110239" d="M335.608,61.3a4.86,4.86,0,0,0-4.022-2.042s-3.763,0-4.876,3.368a5.469,5.469,0,0,0,.178,3.8,6.948,6.948,0,0,0,.7,1.307c.971,1.4,4,5.235,4,5.235h.657c.844-1.172,2.97-5.066,3.606-6.315A5.252,5.252,0,0,0,335.608,61.3Zm-3.394,6.231a3.214,3.214,0,1,1,3.214-3.214A3.214,3.214,0,0,1,332.214,67.533Z" transform="translate(-326.45 -59.26)" fill="#e0e0e0"/>
              </g>
            </g>
            <g id="Grupo_73165" data-name="Grupo 73165" transform="translate(0.662 0.027)">
              <g id="Grupo_73164" data-name="Grupo 73164">
                <path id="Trazado_110240" data-name="Trazado 110240" d="M336.177,61.325a4.86,4.86,0,0,0-4.022-2.042s-3.763,0-4.876,3.368a5.466,5.466,0,0,0,.178,3.8,6.913,6.913,0,0,0,.7,1.308c.971,1.4,4,5.235,4,5.235s3.494-4.805,4.262-6.315A5.252,5.252,0,0,0,336.177,61.325Zm-4.052,6.231a3.214,3.214,0,1,1,3.214-3.214A3.19,3.19,0,0,1,332.124,67.556Z" transform="translate(-327.019 -59.283)" fill="#ebebeb"/>
              </g>
            </g>
          </g>
          <g id="Grupo_73168" data-name="Grupo 73168" transform="translate(2.734 1.845)">
            <g id="Grupo_73167" data-name="Grupo 73167">
              <path id="Trazado_110241" data-name="Trazado 110241" d="M331.831,60.847a3.215,3.215,0,0,0-3.03,2.139,2.754,2.754,0,1,1,.336,2.828,3.214,3.214,0,1,0,2.694-4.967Z" transform="translate(-328.801 -60.847)" fill="#e0e0e0"/>
            </g>
          </g>
        </g>
      </g>
      <g id="Grupo_73178" data-name="Grupo 73178" transform="translate(77.222 136.559)">
        <g id="Grupo_73175" data-name="Grupo 73175">
          <g id="Grupo_73172" data-name="Grupo 73172">
            <g id="Grupo_73171" data-name="Grupo 73171">
              <path id="Trazado_110242" data-name="Trazado 110242" d="M332.431,140.491a4.736,4.736,0,0,0-3.921-1.992s-3.668,0-4.754,3.285a5.334,5.334,0,0,0,.174,3.7,6.8,6.8,0,0,0,.685,1.274c.948,1.367,3.9,5.1,3.9,5.1h.642c.822-1.143,2.894-4.939,3.515-6.157A5.118,5.118,0,0,0,332.431,140.491Zm-3.308,6.074a3.133,3.133,0,1,1,3.132-3.132A3.132,3.132,0,0,1,329.123,146.565Z" transform="translate(-323.504 -138.499)" fill="#e0e0e0"/>
            </g>
          </g>
          <g id="Grupo_73174" data-name="Grupo 73174" transform="translate(0.645 0.027)">
            <g id="Grupo_73173" data-name="Grupo 73173">
              <path id="Trazado_110243" data-name="Trazado 110243" d="M332.986,140.513a4.737,4.737,0,0,0-3.921-1.991s-3.668,0-4.754,3.284a5.334,5.334,0,0,0,.174,3.7,6.762,6.762,0,0,0,.685,1.274c.948,1.368,3.9,5.1,3.9,5.1s3.407-4.686,4.156-6.157A5.12,5.12,0,0,0,332.986,140.513Zm-3.95,6.075a3.133,3.133,0,1,1,3.134-3.133A3.111,3.111,0,0,1,329.037,146.588Z" transform="translate(-324.059 -138.522)" fill="#ebebeb"/>
            </g>
          </g>
        </g>
        <g id="Grupo_73177" data-name="Grupo 73177" transform="translate(2.665 1.8)">
          <g id="Grupo_73176" data-name="Grupo 73176">
            <path id="Trazado_110244" data-name="Trazado 110244" d="M328.75,140.047a3.135,3.135,0,0,0-2.954,2.086,2.685,2.685,0,1,1,.328,2.756,3.133,3.133,0,1,0,2.627-4.842Z" transform="translate(-325.796 -140.047)" fill="#e0e0e0"/>
          </g>
        </g>
      </g>
      <g id="Grupo_73186" data-name="Grupo 73186" transform="translate(241.551 181.84)">
        <g id="Grupo_73183" data-name="Grupo 73183">
          <g id="Grupo_73180" data-name="Grupo 73180">
            <g id="Grupo_73179" data-name="Grupo 73179">
              <path id="Trazado_110245" data-name="Trazado 110245" d="M473.764,179.435a4.738,4.738,0,0,0-3.921-1.992s-3.668,0-4.754,3.285a5.328,5.328,0,0,0,.173,3.7,6.875,6.875,0,0,0,.686,1.274c.946,1.367,3.9,5.1,3.9,5.1h.641c.823-1.143,2.894-4.94,3.515-6.157A5.12,5.12,0,0,0,473.764,179.435Zm-3.309,6.074a3.134,3.134,0,1,1,3.134-3.134A3.133,3.133,0,0,1,470.455,185.509Z" transform="translate(-464.836 -177.443)" fill="#e0e0e0"/>
            </g>
          </g>
          <g id="Grupo_73182" data-name="Grupo 73182" transform="translate(0.645 0.026)">
            <g id="Grupo_73181" data-name="Grupo 73181">
              <path id="Trazado_110246" data-name="Trazado 110246" d="M474.319,179.457a4.738,4.738,0,0,0-3.921-1.992s-3.668,0-4.755,3.285a5.334,5.334,0,0,0,.174,3.7,6.867,6.867,0,0,0,.685,1.274c.948,1.368,3.9,5.1,3.9,5.1s3.406-4.686,4.156-6.157A5.121,5.121,0,0,0,474.319,179.457Zm-3.95,6.074A3.133,3.133,0,1,1,473.5,182.4,3.109,3.109,0,0,1,470.37,185.531Z" transform="translate(-465.391 -177.465)" fill="#ebebeb"/>
            </g>
          </g>
        </g>
        <g id="Grupo_73185" data-name="Grupo 73185" transform="translate(2.666 1.799)">
          <g id="Grupo_73184" data-name="Grupo 73184">
            <path id="Trazado_110247" data-name="Trazado 110247" d="M470.082,178.99a3.132,3.132,0,0,0-2.953,2.087,2.686,2.686,0,1,1,.328,2.756,3.133,3.133,0,1,0,2.625-4.843Z" transform="translate(-467.129 -178.99)" fill="#e0e0e0"/>
          </g>
        </g>
      </g>
      <g id="Grupo_73194" data-name="Grupo 73194" transform="translate(241.277 43.787)">
        <g id="Grupo_73191" data-name="Grupo 73191">
          <g id="Grupo_73188" data-name="Grupo 73188">
            <g id="Grupo_73187" data-name="Grupo 73187">
              <path id="Trazado_110248" data-name="Trazado 110248" d="M474.314,62.25a4.737,4.737,0,0,0-2.977-3.236s-3.437-1.282-5.6,1.415a5.335,5.335,0,0,0-1.131,3.53,6.829,6.829,0,0,0,.2,1.434c.409,1.613,1.865,6.144,1.865,6.144l.6.224c1.171-.784,4.439-3.616,5.446-4.539A5.121,5.121,0,0,0,474.314,62.25Zm-5.223,4.536a3.133,3.133,0,1,1,4.031-1.841A3.135,3.135,0,0,1,469.091,66.786Z" transform="translate(-464.6 -58.71)" fill="#e0e0e0"/>
            </g>
          </g>
          <g id="Grupo_73190" data-name="Grupo 73190" transform="translate(0.595 0.25)">
            <g id="Grupo_73189" data-name="Grupo 73189">
              <path id="Trazado_110249" data-name="Trazado 110249" d="M474.828,62.465a4.738,4.738,0,0,0-2.978-3.236s-3.437-1.282-5.6,1.414a5.339,5.339,0,0,0-1.131,3.531,6.834,6.834,0,0,0,.2,1.434c.409,1.613,1.865,6.144,1.865,6.144s4.829-3.2,6.046-4.316A5.121,5.121,0,0,0,474.828,62.465ZM469,66.776a3.133,3.133,0,1,1,4.031-1.839A3.108,3.108,0,0,1,469,66.776Z" transform="translate(-465.112 -58.925)" fill="#ebebeb"/>
            </g>
          </g>
        </g>
        <g id="Grupo_73193" data-name="Grupo 73193" transform="translate(2.529 2.006)">
          <g id="Grupo_73192" data-name="Grupo 73192">
            <path id="Trazado_110250" data-name="Trazado 110250" d="M470.928,60.634a3.133,3.133,0,0,0-3.5.922,2.685,2.685,0,1,1-.657,2.7,3.133,3.133,0,1,0,4.153-3.618Z" transform="translate(-466.775 -60.435)" fill="#e0e0e0"/>
          </g>
        </g>
      </g>
    </g>
    <g id="Grupo_76756" data-name="Grupo 76756" transform="translate(287 9176.628)">
      <rect id="Rectángulo_7949" data-name="Rectángulo 7949" width="456.506" height="456.506" transform="translate(0 0)" fill="#344154" opacity="0"/>
      <g id="Grupo_56654" data-name="Grupo 56654" transform="translate(37.054 38.66)">
        <g id="freepik--Shadows--inject-204" transform="translate(0 249.105)">
          <path id="freepik--shadow--inject-204" d="M5087.611,2135.644l-63.868-36.9c-1.9-1.089-1.9-2.866,0-3.955l160.309-92.537a7.6,7.6,0,0,1,6.865,0l63.866,36.9c1.9,1.1,1.9,2.865,0,3.955l-160.314,92.537A7.6,7.6,0,0,1,5087.611,2135.644Z" transform="translate(-4999.996 -2001.405)" fill="#f2e9e4"/>
          <path id="freepik--shadow--inject-204-2" data-name="freepik--shadow--inject-204" d="M5169.124,2002.25l-169.815,90.769c-1.939,1.123-1.939,2.942,0,4.059l12.975,7.482a7.72,7.72,0,0,0,7.027,0l169.825-90.76c1.938-1.124,1.938-2.935,0-4.059l-12.976-7.491A7.722,7.722,0,0,0,5169.124,2002.25Z" transform="translate(-4997.854 -2001.403)" fill="#f2e9e4"/>
        </g>
        <g id="freepik--Plant--inject-204" transform="translate(226.742 231.328)">
          <g id="freepik--Plants--inject-204">
            <path id="Trazado_104624" data-name="Trazado 104624" d="M5247.321,2034.663s-4.29-18.586,5.15-36.727c5.275-10.134,15.307-15.634,20.474-15.994,5.792-.394,11.378,4.84,5.853,11.481-5.261,6.315-14.8,8.744-21.341,25.347-4.291,10.95-4.248,19.145-4.248,19.145Z" transform="translate(-5246.348 -1981.921)" fill="#d9a171"/>
            <path id="Trazado_104625" data-name="Trazado 104625" d="M5247.321,2034.663s-4.29-18.586,5.15-36.727c5.275-10.134,15.307-15.634,20.474-15.994,5.792-.394,11.378,4.84,5.853,11.481-5.261,6.315-14.8,8.744-21.341,25.347-4.291,10.95-4.248,19.145-4.248,19.145Z" transform="translate(-5246.348 -1981.921)" fill="#fff" stroke="#5e6178" stroke-miterlimit="10" stroke-width="0" opacity="0.5" style="isolation: isolate"/>
            <path id="Trazado_104626" data-name="Trazado 104626" d="M5251.5,2030.432a.327.327,0,0,0,.344-.308h0c-1.219-20.474,12.158-37.335,22.043-42.775a.251.251,0,0,0,.147-.321.245.245,0,0,0-.043-.075.415.415,0,0,0-.5-.077c-10.03,5.517-23.605,22.593-22.37,43.291a.318.318,0,0,0,.359.269Z" transform="translate(-5246.759 -1982.35)" fill="#fff" stroke="#5e6178" stroke-miterlimit="10" stroke-width="0"/>
            <path id="Trazado_104627" data-name="Trazado 104627" d="M5253.534,2040.1c1.151-4.686,4.746-10.348,12.013-15.334s17.163-9.439,16.073-14.056-8.728-4.694-14.219-2.317-18.207,13.309-16.947,30.033Z" transform="translate(-5246.701 -1984.103)" fill="#d9a171"/>
            <path id="Trazado_104628" data-name="Trazado 104628" d="M5253.534,2040.1c1.151-4.686,4.746-10.348,12.013-15.334s17.163-9.439,16.073-14.056-8.728-4.694-14.219-2.317-18.207,13.309-16.947,30.033Z" transform="translate(-5246.701 -1984.103)" fill="#fff" stroke="#5e6178" stroke-miterlimit="10" stroke-width="0" opacity="0.65" style="isolation: isolate"/>
            <path id="Trazado_104629" data-name="Trazado 104629" d="M5252.593,2034.145a.36.36,0,0,0,.343-.258c1.657-9.91,16.811-22.044,23.557-23.8a.285.285,0,0,0,.248-.314.391.391,0,0,0-.009-.047.364.364,0,0,0-.448-.181c-7.069,1.845-22.309,13.978-24.025,24.284a.328.328,0,0,0,.317.317Z" transform="translate(-5246.865 -1984.337)" fill="#fff" stroke="#5e6178" stroke-miterlimit="10" stroke-width="0"/>
          </g>
        </g>
        <g id="freepik--Folder--inject-204" transform="translate(9.864)">
          <g id="freepik--folder--inject-204-2" data-name="freepik--folder--inject-204">
            <path id="Trazado_104630" data-name="Trazado 104630" d="M5008.665,2071.765a2.668,2.668,0,0,1,1.458-2.146l144.966-91.128V1845.126l17.977-22.241a26.764,26.764,0,0,0,5.149-14.433V1733.3c0-4.488-3.09-6.2-6.865-3.835l-161.227,100.173a2.669,2.669,0,0,0-1.458,2.146Z" transform="translate(-5008.665 -1728.4)" fill="#d9a171"/>
            <path id="Trazado_104631" data-name="Trazado 104631" d="M5168.267,1755.241c0-4.488-3.184-6.358-7.1-4.188l-147.592,81.681a7.846,7.846,0,0,1-4.822.721c0,.078,0,.155,0,.232v239.75h0a2.772,2.772,0,0,1,1.425-1.914l144.966-91.128V1847.03l13.171-16.3Z" transform="translate(-5008.672 -1730.304)" fill="#344154" opacity="0.3" style="isolation: isolate"/>
            <path id="Trazado_104632" data-name="Trazado 104632" d="M5009.986,2075.851a7.721,7.721,0,0,0,6.864-.06l147.591-81.681a15.155,15.155,0,0,0,7.105-12.013V1758.315c0-4.479-3.176-6.358-7.105-4.187L5016.85,1835.81a7.723,7.723,0,0,1-6.864.069,2.29,2.29,0,0,1-1.321-1.888v239.947A2.271,2.271,0,0,0,5009.986,2075.851Z" transform="translate(-5008.665 -1730.573)" fill="#d9a171"/>
            <path id="Trazado_104633" data-name="Trazado 104633" d="M5009.986,2075.851a7.721,7.721,0,0,0,6.864-.06l147.591-81.681a15.155,15.155,0,0,0,7.105-12.013V1758.315c0-4.479-3.176-6.358-7.105-4.187L5016.85,1835.81a7.723,7.723,0,0,1-6.864.069,2.29,2.29,0,0,1-1.321-1.888v239.947A2.271,2.271,0,0,0,5009.986,2075.851Z" transform="translate(-5008.665 -1730.573)" fill="#fff" stroke="#5e6178" stroke-miterlimit="10" stroke-width="0" opacity="0.3" style="isolation: isolate"/>
            <path id="Trazado_104634" data-name="Trazado 104634" d="M5013.316,1844.391a6.767,6.767,0,0,1-3.3-.764,2.289,2.289,0,0,1-1.347-1.888v239.947a2.271,2.271,0,0,0,1.321,1.914,6.751,6.751,0,0,0,3.3.772Z" transform="translate(-5008.665 -1738.321)" fill="#fff" stroke="#5e6178" stroke-miterlimit="10" stroke-width="0" opacity="0.3" style="isolation: isolate"/>
            <path id="Trazado_104635" data-name="Trazado 104635" d="M5034.087,1841.645a.4.4,0,0,0-.4.4v224.664a.428.428,0,1,0,.856,0V1842.056a.4.4,0,0,0-.39-.415A.444.444,0,0,0,5034.087,1841.645Zm-13.189,7.62a.4.4,0,0,0-.4.4h0v224.665a.4.4,0,1,0,.806,0h0V1849.667a.4.4,0,0,0-.386-.4Zm6.6-3.811a.413.413,0,0,0-.413.4v224.665a.413.413,0,0,0,.413.4.4.4,0,0,0,.4-.4h0V1845.857a.4.4,0,0,0-.386-.4Z" transform="translate(-5009.701 -1738.313)" fill="#d9a171"/>
          </g>
        </g>
        <g id="freepik--Contract--inject-204" transform="translate(44.539 26.327)">
          <g id="freepik--Sheet--inject-204">
            <path id="Trazado_104636" data-name="Trazado 104636" d="M5050.056,1847.163l-3.391-1.957L5199,1757.252l3.4,1.957Z" transform="translate(-5046.666 -1757.252)" fill="#f0f0f0"/>
            <path id="Trazado_104637" data-name="Trazado 104637" d="M5202.72,1759.4v233.966l-152.405,87.989.061-234Z" transform="translate(-5046.985 -1757.44)" fill="#fafafa"/>
            <path id="Trazado_104638" data-name="Trazado 104638" d="M5201.905,1760.794v232.1l-150.774,87.044.061-232.13,150.714-87.019m.858-1.4-152.388,87.953-.062,234,152.406-87.989V1759.4Z" transform="translate(-5046.986 -1757.44)" fill="#f2e9e4"/>
            <path id="Trazado_104639" data-name="Trazado 104639" d="M5050.056,1855.6l-.061,234-3.295-1.905-.035-234.052,3.33,1.914Z" transform="translate(-5046.666 -1765.69)" fill="#e0e0e0"/>
          </g>
          <g id="freepik--contract--inject-204-2" data-name="freepik--contract--inject-204" transform="translate(10.435 19.539)">
            <g id="freepik--sheet--inject-204-2" data-name="freepik--sheet--inject-204">
              <path id="Trazado_104640" data-name="Trazado 104640" d="M5246.052,2015.918v3.93l-152.344,87.937-1.716-.97a67.916,67.916,0,0,1-33.844-58.65V1866.619l152.337-87.954,3.432,1.957V1960.2A64.361,64.361,0,0,0,5246.052,2015.918Z" transform="translate(-5058.105 -1778.666)" fill="#f0f0f0"/>
              <path id="Trazado_104641" data-name="Trazado 104641" d="M5214.21,1960.39V1780.81l-152.338,87.954v179.588a64.356,64.356,0,0,0,32.162,55.716l152.344-87.955A64.351,64.351,0,0,1,5214.21,1960.39ZM5062.6,2048.352V1869.193l150.859-87.087V1960.39a65.265,65.265,0,0,0,31.44,55.708l-150.86,87.1A63.769,63.769,0,0,1,5062.6,2048.352Z" transform="translate(-5058.432 -1778.853)" fill="#e0e0e0"/>
              <path id="Trazado_104642" data-name="Trazado 104642" d="M5244.963,2016.222l-150.86,87.1a63.77,63.77,0,0,1-31.439-54.841v-179.16l150.86-87.087v178.285A65.266,65.266,0,0,0,5244.963,2016.222Z" transform="translate(-5058.502 -1778.978)" fill="#fafafa"/>
              <path id="Trazado_104643" data-name="Trazado 104643" d="M5061.535,2056.6V1877.014l-3.433-1.957V2056.6a67.919,67.919,0,0,0,33.859,58.659l1.716.969v-3.913A64.354,64.354,0,0,1,5061.535,2056.6Z" transform="translate(-5058.102 -1787.104)" fill="#e0e0e0"/>
              <path id="Trazado_104644" data-name="Trazado 104644" d="M5097.12,2126.633v3.913l152.354-87.945v-3.922Z" transform="translate(-5061.518 -1801.426)" fill="#344154" opacity="0.15" style="isolation: isolate"/>
            </g>
            <g id="freepik--Text--inject-204" transform="translate(106.677 28.145)">
              <path id="Trazado_104645" data-name="Trazado 104645" d="M5176.643,1830.74l36.356-21c.859-.514,1.623-.146,1.623.858a3.486,3.486,0,0,1-1.623,2.695l-36.356,21c-.9.515-1.63.146-1.63-.857A3.432,3.432,0,0,1,5176.643,1830.74Z" transform="translate(-5175.013 -1809.511)" fill="#e0e0e0"/>
              <path id="Trazado_104646" data-name="Trazado 104646" d="M5176.643,1846.162l36.356-21c.859-.515,1.623-.146,1.623.858a3.487,3.487,0,0,1-1.623,2.694l-36.356,20.988c-.9.515-1.63.146-1.63-.857A3.434,3.434,0,0,1,5176.643,1846.162Z" transform="translate(-5175.013 -1810.861)" fill="#e0e0e0"/>
              <path id="Trazado_104647" data-name="Trazado 104647" d="M5191.558,1830.591l22.747-13.138c.859-.515,1.622-.146,1.622.858a3.479,3.479,0,0,1-1.622,2.694l-22.747,13.137c-.857.515-1.631.146-1.631-.857A3.429,3.429,0,0,1,5191.558,1830.591Z" transform="translate(-5176.318 -1810.186)" fill="#e0e0e0"/>
            </g>
            <g id="freepik--text--inject-204-2" data-name="freepik--text--inject-204" transform="translate(19.745 72.337)">
              <path id="Trazado_104648" data-name="Trazado 104648" d="M5081.361,1926.777l118.83-68.6c.9-.515,1.62-.146,1.62.857a3.427,3.427,0,0,1-1.62,2.694l-118.83,68.647c-.855.523-1.62.154-1.62-.858A3.5,3.5,0,0,1,5081.361,1926.777Z" transform="translate(-5079.741 -1857.942)" fill="#e0e0e0"/>
              <path id="Trazado_104649" data-name="Trazado 104649" d="M5081.361,1934.485l118.83-68.647c.9-.515,1.62-.146,1.62.859a3.429,3.429,0,0,1-1.62,2.694L5081.361,1938c-.855.523-1.62.155-1.62-.857A3.5,3.5,0,0,1,5081.361,1934.485Z" transform="translate(-5079.741 -1858.613)" fill="#e0e0e0"/>
              <path id="Trazado_104650" data-name="Trazado 104650" d="M5081.361,1942.2l118.83-68.646c.9-.516,1.62-.146,1.62.857a3.429,3.429,0,0,1-1.62,2.695l-118.83,68.656c-.855.523-1.62.154-1.62-.858A3.5,3.5,0,0,1,5081.361,1942.2Z" transform="translate(-5079.741 -1859.288)" fill="#e0e0e0"/>
              <path id="Trazado_104651" data-name="Trazado 104651" d="M5081.361,1949.907l118.83-68.646c.9-.514,1.62-.146,1.62.858a3.429,3.429,0,0,1-1.62,2.695l-118.83,68.613c-.855.524-1.62.155-1.62-.858A3.482,3.482,0,0,1,5081.361,1949.907Z" transform="translate(-5079.741 -1859.963)" fill="#e0e0e0"/>
            </g>
            <g id="freepik--text--inject-204-3" data-name="freepik--text--inject-204" transform="translate(19.745 107.607)">
              <path id="Trazado_104652" data-name="Trazado 104652" d="M5081.361,1965.481l118.83-68.647c.9-.523,1.62-.154,1.62.858a3.475,3.475,0,0,1-1.62,2.7l-118.83,68.6c-.855.515-1.62.146-1.62-.858A3.482,3.482,0,0,1,5081.361,1965.481Z" transform="translate(-5079.741 -1896.596)" fill="#e0e0e0"/>
              <path id="Trazado_104653" data-name="Trazado 104653" d="M5081.361,1973.2l118.83-68.6c.9-.523,1.62-.155,1.62.816a3.472,3.472,0,0,1-1.62,2.7l-118.83,68.647c-.855.515-1.62.146-1.62-.859A3.479,3.479,0,0,1,5081.361,1973.2Z" transform="translate(-5079.741 -1897.275)" fill="#e0e0e0"/>
              <path id="Trazado_104654" data-name="Trazado 104654" d="M5081.361,1980.9l118.83-68.6c.9-.524,1.62-.155,1.62.815a3.472,3.472,0,0,1-1.62,2.7l-118.83,68.6c-.855.523-1.62.154-1.62-.859A3.517,3.517,0,0,1,5081.361,1980.9Z" transform="translate(-5079.741 -1897.95)" fill="#e0e0e0"/>
              <path id="Trazado_104655" data-name="Trazado 104655" d="M5081.361,1988.61l118.83-68.6c.9-.523,1.62-.154,1.62.859a3.475,3.475,0,0,1-1.62,2.7l-118.83,68.552c-.855.524-1.62.154-1.62-.814A3.516,3.516,0,0,1,5081.361,1988.61Z" transform="translate(-5079.741 -1898.625)" fill="#e0e0e0"/>
            </g>
            <path id="Trazado_104656" data-name="Trazado 104656" d="M5081.361,2004.182l118.83-68.6c.9-.515,1.62-.154,1.62.858a3.428,3.428,0,0,1-1.62,2.695l-118.83,68.647c-.855.514-1.62.146-1.62-.859A3.48,3.48,0,0,1,5081.361,2004.182Z" transform="translate(-5059.997 -1792.381)" fill="#e0e0e0"/>
            <path id="Trazado_104657" data-name="Trazado 104657" d="M5081.361,2011.927l118.83-68.646c.9-.515,1.62-.154,1.62.858a3.429,3.429,0,0,1-1.62,2.695l-118.83,68.578c-.855.516-1.62.146-1.62-.858A3.481,3.481,0,0,1,5081.361,2011.927Z" transform="translate(-5059.997 -1793.055)" fill="#e0e0e0"/>
            <path id="Trazado_104658" data-name="Trazado 104658" d="M5081.361,2022.657l63.688-36.8c.859-.515,1.62-.145,1.62.859a3.478,3.478,0,0,1-1.62,2.695l-63.687,36.794c-.855.516-1.62.146-1.62-.858A3.483,3.483,0,0,1,5081.361,2022.657Z" transform="translate(-5059.997 -1796.783)" fill="#e0e0e0"/>
            <path id="Trazado_104659" data-name="Trazado 104659" d="M5081.361,2037.542l42.314-24.464c.856-.515,1.62-.154,1.62.857a3.432,3.432,0,0,1-1.62,2.7l-42.314,24.464c-.855.515-1.62.146-1.62-.858A3.483,3.483,0,0,1,5081.361,2037.542Z" transform="translate(-5059.997 -1799.165)" fill="#d9a171"/>
            <path id="Trazado_104660" data-name="Trazado 104660" d="M5195.277,1987.679v-3.672c-8.118,4.695-14.733,17.325-14.733,28.154l2.754-1.588C5183.3,2001.762,5188.677,1991.5,5195.277,1987.679Zm10.623,9.843c0-7.809-4.763-11.413-10.623-8.031s-10.615,12.485-10.615,20.293,4.763,11.413,10.615,8.032,10.623-12.485,10.623-20.294ZM5186.01,2009c0-6.788,4.145-14.716,9.24-17.66.361-.206.713-.369,1.057-.524l-10.228,19.556C5186.06,2009.922,5186.01,2009.466,5186.01,2009Zm.395,3.338,11.524-22.01c2.977-.515,5.319,1.278,6.2,4.763l-11.465,21.9c-2.961.541-5.329-1.219-6.231-4.668Zm18.021-15.274c0,.4.051.857.051,1.269,0,6.8-4.152,14.716-9.251,17.66a9.326,9.326,0,0,1-.969.49Zm-9.147-16.708c-9.628,5.561-17.473,20.535-17.473,33.38s7.845,18.774,17.473,13.205,17.479-20.517,17.479-33.388S5204.888,1974.8,5195.277,1980.361Zm0,44.749c-8.873,5.148-16.091-.335-16.091-12.167s7.218-25.623,16.091-30.745,16.1.335,16.1,12.168S5204.158,2019.987,5195.277,2025.11Zm12.014-28.376c0,8.813-5.382,19.083-12.014,22.893v3.673c8.126-4.693,14.741-17.317,14.741-28.154Z" transform="translate(-5068.579 -1796.138)" fill="#d9a171" opacity="0.2" style="isolation: isolate"/>
            <path id="Trazado_104661" data-name="Trazado 104661" d="M5158.044,2054.627l-65.53,37.859a1.175,1.175,0,0,1-1.628-.341,1.114,1.114,0,0,1-.149-.329v-.111a1.975,1.975,0,0,1,.858-2.18l65.532-37.868a1.149,1.149,0,0,1,1.582.375,1.077,1.077,0,0,1,.134.312v.111A1.92,1.92,0,0,1,5158.044,2054.627Z" transform="translate(-5060.954 -1802.548)" fill="#e0e0e0"/>
            <path id="Trazado_104662" data-name="Trazado 104662" d="M5142.635,2074.361l-45.89,26.6a1.321,1.321,0,0,1-1.818-.431,1.15,1.15,0,0,1-.095-.186v-.061a1.711,1.711,0,0,1,.719-2.136l45.9-26.6a1.278,1.278,0,0,1,1.76.411,1.143,1.143,0,0,1,.111.223v.061A1.719,1.719,0,0,1,5142.635,2074.361Z" transform="translate(-5061.305 -1804.287)" fill="#e0e0e0"/>
            <path id="Trazado_104663" data-name="Trazado 104663" d="M5225.165,2027.031l-45.891,26.6a1.313,1.313,0,0,1-1.81-.414,1.174,1.174,0,0,1-.1-.2v-.059a1.717,1.717,0,0,1,.72-2.137l45.891-26.6a1.3,1.3,0,0,1,1.781.435,1.6,1.6,0,0,1,.1.2v.06A1.719,1.719,0,0,1,5225.165,2027.031Z" transform="translate(-5068.53 -1800.144)" fill="#e0e0e0"/>
            <path id="Trazado_104664" data-name="Trazado 104664" d="M5131.59,2047.713a13.745,13.745,0,0,1-3.682,5.1,1.285,1.285,0,0,1-.532.343c-.318.06-.42-.205-.465-.565a7.439,7.439,0,0,1,.113-1.785c.137-1.176.308-2.343.5-3.51q.479-2.814,1.029-5.62c.336-.789.652-1.587.952-2.4a62.2,62.2,0,0,0,2.188-7.2,18.764,18.764,0,0,0,.67-7.5c-.044-.241-.36-.43-.481-.163a36.47,36.47,0,0,0-1.9,7.56l-1.8,8.752c-.043.2-.077.386-.12.583q-.86,2.078-1.872,4.042c-.4.772-.8,1.528-1.234,2.265a14.859,14.859,0,0,1-1.288,2.069c-.659.789-1.518.54-1.913-.463a2.935,2.935,0,0,1-.17-.669,8.339,8.339,0,0,0,1.518-2.129,18.671,18.671,0,0,0,1.228-2.737,20.01,20.01,0,0,0,.8-3.106c.109-.7.368-1.759-.052-2.342s-1.022-.061-1.349.489a20.231,20.231,0,0,0-1.33,2.832,17.526,17.526,0,0,0-1.339,6.367q-.006.125,0,.249c-.067.051-.129.112-.2.163a1.191,1.191,0,0,1-1.965-1c0-.335-.4-.472-.542-.18-.463,1.029-.5,2.317-1.056,3.269-.257.429-.729.961-1.148.651a.932.932,0,0,1-.336-.754c.052-.155.112-.3.155-.456.112-.326-.326-.557-.481-.334a1.189,1.189,0,0,0-.23.669c-.268.764-.55,1.52-.859,2.249a7.532,7.532,0,0,1,0-2.36c.052-.309-.472-.514-.532-.181a22.215,22.215,0,0,1-.858,3.073c-.179.506-.385,1-.607,1.493a5.756,5.756,0,0,1-.859,1.57c-.171.172-.42.335-.635.206s-.248-.66-.257-1c0-.557,0-1.124.043-1.716a19.79,19.79,0,0,1,.523-3.27c.086-.369-.438-.609-.549-.24a38.652,38.652,0,0,1-1.846,5c-.352.78-.722,1.553-1.133,2.282-.187.343-.687,1.107-1.1,1.09.085-.155.162-.309.247-.455a39.1,39.1,0,0,0,2.378-5.432,24.228,24.228,0,0,0,1.331-5.835,1.64,1.64,0,0,0-.481-1.476,8.966,8.966,0,0,0,.069-3.055c-.335-1.793-1.665-2.455-2.97-2.042-1.562.489-2.8,2.06-3.879,3.544a37.448,37.448,0,0,0-5.072,9.722,42.945,42.945,0,0,0-1.518,5.551c-.361,1.785-.857,3.947-.239,5.706,1.457,4.188,5.517.334,7.157-1.716a28.191,28.191,0,0,0,2.573-3.982,1.19,1.19,0,0,0,1.295-.429,8.439,8.439,0,0,0,1.313-2.214c.454-.945.857-1.914,1.253-2.909v1.107a3.959,3.959,0,0,0,.215,1.846.941.941,0,0,0,.917.5c.917-.086,1.46-1.553,1.862-2.471a18.784,18.784,0,0,0,.8-2.18,7.181,7.181,0,0,0,.267,1.133.258.258,0,0,0,.3.2.266.266,0,0,0,.178-.134q.521-1.123.952-2.291a1.225,1.225,0,0,0,1.184.6c1.262-.309,1.484-2.1,1.888-3.509a1.9,1.9,0,0,0,.746.772,1.715,1.715,0,0,0,1.82-.129,2.907,2.907,0,0,0,.8,1.467,1.3,1.3,0,0,0,1.794.112,9.153,9.153,0,0,0,1.665-2.437c.53-.927,1.046-1.879,1.536-2.848l.549-1.142c-.318,1.587-.61,3.184-.858,4.789-.1.677-.2,1.355-.273,2.042a7.954,7.954,0,0,0-.1,1.716c.1.943.7,1.467,1.416,1.175a4.314,4.314,0,0,0,1.21-.944,12.139,12.139,0,0,0,1.27-1.425,16.037,16.037,0,0,0,1.957-3.431C5132.276,2047.609,5131.734,2047.361,5131.59,2047.713Zm-1.193-15.12c.292-1.415.565-2.831.858-4.238a23.4,23.4,0,0,1,.72-2.712,17.086,17.086,0,0,1-.48,4.573c-.377,1.716-.858,3.484-1.322,5.149-.291.952-.6,1.888-.926,2.814.387-1.853.772-3.732,1.15-5.6Zm-25.889,27.957a17.935,17.935,0,0,1-3.1,3.733,9.121,9.121,0,0,1-1.784,1.235c-.616.326-1.3.565-1.879.051-1.125-.986-1-3.028-.764-4.564a41.114,41.114,0,0,1,1.013-4.7,39.9,39.9,0,0,1,3.517-8.693,34.69,34.69,0,0,1,2.489-3.887c.979-1.3,2.138-2.746,3.569-3.037,2.043-.412,2.172,2,1.769,4.411a2.771,2.771,0,0,0-1.605,1.021,12.01,12.01,0,0,0-2.2,5.063,15.308,15.308,0,0,0-.309,1.785,3.482,3.482,0,0,1-1.717.583c-.9,0-.771-1.5-.677-2.308a10.2,10.2,0,0,1,.653-2.574c.084-.207-.268-.507-.361-.292a11.056,11.056,0,0,0-.8,2.875,3.532,3.532,0,0,0,.3,2.445c.462.618,1.227.472,1.82.3a5.783,5.783,0,0,0,.693-.275,13.675,13.675,0,0,0,.128,3.184,5.144,5.144,0,0,0,.456,1.6c-.379.687-.8,1.373-1.219,2.034Zm4.693-14.726a18.9,18.9,0,0,1-.936,3.21,8.91,8.91,0,0,1-2.343,3.432,17.052,17.052,0,0,1,1.082-3.792,7.544,7.544,0,0,1,1.211-2.094,2.705,2.705,0,0,1,.856-.7Zm-3.124,12.014c-.068-.249-.11-.541-.154-.738a10.256,10.256,0,0,1-.162-1.269,13.246,13.246,0,0,1,0-2.489h0a6.425,6.425,0,0,0,.781-.618,10.886,10.886,0,0,0,2.736-4.8c.18-.575.36-1.218.507-1.879v.18a3.731,3.731,0,0,1,0,.609,25.485,25.485,0,0,1-1.107,4.926,36.109,36.109,0,0,1-2.6,6.1Zm15.61-11.842a20.306,20.306,0,0,1,1.458-5,9.883,9.883,0,0,1,1.176-2.24c.042-.06.292-.326.37-.257s.051.267.051.318a2.965,2.965,0,0,1,0,.617q-.086.7-.231,1.391a17.746,17.746,0,0,1-1.905,5.243,9.819,9.819,0,0,1-1.057,1.6A11.714,11.714,0,0,1,5121.688,2046Zm27.646-8.28-.266-.06c.069-1.339.076-2.686.053-4.008-.044-2.574-.208-5.071-.49-7.577a4.857,4.857,0,0,0-.1-.772c.128-.773.24-1.545.325-2.326.154-1.518.258-3.431-.858-4.333-.146-.119-.377-.112-.41.155a18.186,18.186,0,0,0,.265,5.251,6.521,6.521,0,0,0,.112.857q-.294,1.859-.773,3.682a36.948,36.948,0,0,1-1.491,4.565c-.293.737-.61,1.467-.946,2.179a3.943,3.943,0,0,1-1.492,1.905,1.941,1.941,0,0,1-.179-.961c0-.318-.414-.532-.5-.171a1.813,1.813,0,0,1-.067.248q.1-1.286.29-2.574c.044-.283-.41-.524-.488-.222a15.69,15.69,0,0,1-.978,2.831,12.532,12.532,0,0,1-.738,1.381c-.154.258-.488.858-.772.789-.644-.085-.162-2.574,0-3.088a1.827,1.827,0,0,1,.12-.456,19.335,19.335,0,0,0,.858-2.307c.112-.309-.309-.593-.446-.309a12.554,12.554,0,0,0-.635,1.57,34.5,34.5,0,0,1-2.686,5.148c-.626.978-1.449,2.5-2.488,2.66-.6.086-.8-.446-.815-1.133a19.692,19.692,0,0,0,2.729-3.784c.557-1.012,3.287-6.6.763-6.358-1.1.1-1.784,1.536-2.265,2.677a23.422,23.422,0,0,0-1.372,4.393c-.146.721-.274,1.458-.353,2.2a5.193,5.193,0,0,0,0,.652,16.634,16.634,0,0,1-2.617,2.274c-.206.137.1.54.282.421a17.212,17.212,0,0,0,2.4-1.965,2.112,2.112,0,0,0,.179.549c.62,1.167,1.871.593,2.575-.137a19.18,19.18,0,0,0,2.694-4.076c.146-.274.292-.549.43-.859-.121.859-.171,2.026.445,2.351s1.364-.7,1.717-1.364a13.343,13.343,0,0,0,.7-1.459c0,.3-.043.6-.052.858s.214.455.378.344a1.8,1.8,0,0,0,.377-.377,2.618,2.618,0,0,0,.274.635.315.315,0,0,0,.308.136c1.452-.429,2.232-2.634,2.877-4.2a38.591,38.591,0,0,0,1.716-5.148c.119-.489.24-.987.343-1.484.1,1.073.189,2.145.239,3.218a62.886,62.886,0,0,1,.062,7.319,5.767,5.767,0,0,0-3.364,1.167,15.116,15.116,0,0,0-3.725,3.329,6.959,6.959,0,0,0-1.45,4.626,3.485,3.485,0,0,0,2.085,3.32c2.575.79,4.771-2.574,5.758-5.276a23.818,23.818,0,0,0,1.229-6.505,1.6,1.6,0,0,1,.282,0c.31.267.31-.291-.043-.376Zm-15.31.583a23.913,23.913,0,0,1,.954-3.535,8.181,8.181,0,0,1,1.718-3.261c.161-.155.6-.489.8-.361s.265.635.214,1.013a9.367,9.367,0,0,1-.507,1.888,19.376,19.376,0,0,1-1.587,3.26,19.637,19.637,0,0,1-1.828,2.574,13.538,13.538,0,0,1,.239-1.553Zm14.2-15.111a15.735,15.735,0,0,1-.173-3.7c.523.961.343,2.523.173,3.724Zm-.156,18.157c-.54,3-1.757,6.419-4.058,7.723a2,2,0,0,1-2.793-.445,2.094,2.094,0,0,1-.254-.473,5.619,5.619,0,0,1,.336-4.608,11.547,11.547,0,0,1,3.682-3.819,6.5,6.5,0,0,1,3.482-1.51,31.512,31.512,0,0,1-.4,3.158Z" transform="translate(-5061.433 -1799.666)" fill="#5e6178"/>
            <path id="freepik--shadow--inject-204-3" data-name="freepik--shadow--inject-204" d="M5058.637,2077.067a63.775,63.775,0,0,0,1.957,14.089l18.456-10.614,4.918-14.3-4.918-.935Z" transform="translate(-5058.148 -1803.758)" fill="#e0e0e0"/>
          </g>
        </g>
        <g id="freepik--Sticker--inject-204" transform="translate(37.94 304.544)">
          <g id="freepik--sticker--inject-204-2" data-name="freepik--sticker--inject-204">
            <path id="Trazado_104681" data-name="Trazado 104681" d="M5075.715,2062.161l-36.281,20.946v15.231l36.281-20.946,6.589-11.421Z" transform="translate(-5039.434 -2062.161)" fill="#d9a171"/>
            <path id="Trazado_104682" data-name="Trazado 104682" d="M5054.294,2080.195a.094.094,0,0,1,.134,0l0,0a.212.212,0,0,1,.059.18v7.268a.493.493,0,0,1-.059.241.314.314,0,0,1-.138.171l-.593.343a.1.1,0,0,1-.138,0,.216.216,0,0,1-.059-.181v-2.969l-2.224,1.27v2.97a.485.485,0,0,1-.06.248.405.405,0,0,1-.137.172l-.592.344a.116.116,0,0,1-.14,0,.221.221,0,0,1-.059-.18v-7.277a.549.549,0,0,1,.059-.249.375.375,0,0,1,.14-.171l.592-.344a.113.113,0,0,1,.137,0,.248.248,0,0,1,.06.189v2.884l2.206-1.271v-2.891a.552.552,0,0,1,.061-.25.392.392,0,0,1,.138-.171Z" transform="translate(-5040.384 -2063.737)" fill="#fff" stroke="#5e6178" stroke-miterlimit="10" stroke-width="0"/>
            <path id="Trazado_104683" data-name="Trazado 104683" d="M5059.514,2083.659a.1.1,0,0,1,.138,0,.237.237,0,0,1,.051.172v.806a.6.6,0,0,1-.051.241.367.367,0,0,1-.138.171l-3.21,1.853a.1.1,0,0,1-.137,0,.214.214,0,0,1-.06-.18v-7.277a.538.538,0,0,1,.06-.249.368.368,0,0,1,.137-.172l3.21-1.8a.1.1,0,0,1,.138,0,.254.254,0,0,1,.06.181v.8a.727.727,0,0,1-.06.249.393.393,0,0,1-.138.164l-2.359,1.364v1.784l2.2-1.261a.094.094,0,0,1,.133,0l0,0a.206.206,0,0,1,.062.18v.8a.551.551,0,0,1-.062.248.326.326,0,0,1-.135.164l-2.2,1.27v1.871Z" transform="translate(-5040.894 -2063.477)" fill="#fff" stroke="#5e6178" stroke-miterlimit="10" stroke-width="0"/>
            <path id="Trazado_104684" data-name="Trazado 104684" d="M5063.167,2075.147c.61-.352,1.073-.4,1.391-.146a1.943,1.943,0,0,1,.473,1.537,4.8,4.8,0,0,1-.25,1.544,3.939,3.939,0,0,1-.711,1.27l1.028,2.2a.236.236,0,0,1,0,.111.483.483,0,0,1-.05.206.368.368,0,0,1-.113.137l-.625.36c-.1.052-.164.061-.215,0a.375.375,0,0,1-.1-.146l-.96-2.067-.97.565v2.618a.542.542,0,0,1-.059.248.363.363,0,0,1-.14.172l-.591.344a.105.105,0,0,1-.138,0,.212.212,0,0,1-.06-.172v-7.259a.525.525,0,0,1,.06-.249.349.349,0,0,1,.138-.172Zm-1.1,4.179,1.064-.609a2.059,2.059,0,0,0,.661-.609,1.81,1.81,0,0,0,.247-1c0-.419-.086-.652-.247-.694a.855.855,0,0,0-.661.163l-1.064.617Z" transform="translate(-5041.329 -2063.271)" fill="#fff" stroke="#5e6178" stroke-miterlimit="10" stroke-width="0"/>
            <path id="Trazado_104685" data-name="Trazado 104685" d="M5069.859,2077.715a.1.1,0,0,1,.146,0h0a.242.242,0,0,1,.051.18v.8a.641.641,0,0,1-.051.249.336.336,0,0,1-.146.162l-3.2,1.855a.1.1,0,0,1-.145,0h0a.244.244,0,0,1-.054-.181v-7.269a.664.664,0,0,1,.054-.249.338.338,0,0,1,.145-.163l3.149-1.819a.1.1,0,0,1,.137,0,.242.242,0,0,1,.06.18v.8a.67.67,0,0,1-.06.25.467.467,0,0,1-.137.171l-2.36,1.356v1.793l2.2-1.27a.1.1,0,0,1,.137,0,.224.224,0,0,1,.06.181v.8a.537.537,0,0,1-.06.249.471.471,0,0,1-.137.171l-2.205,1.253v1.862Z" transform="translate(-5041.799 -2062.956)" fill="#fff" stroke="#5e6178" stroke-miterlimit="10" stroke-width="0"/>
          </g>
        </g>
        <g id="freepik--Character--inject-204" transform="translate(208.081 14.091)">
          <g id="freepik--Chartacter--inject-204">
            <g id="freepik--Bottom--inject-204" transform="translate(66.471 142.562)">
              <path id="Trazado_104686" data-name="Trazado 104686" d="M5335.956,2079.9l-5.089-1.939,1.683-3.441,3.123,2.935Z" transform="translate(-5301.557 -1915.351)" fill="#344154"/>
              <path id="Trazado_104687" data-name="Trazado 104687" d="M5338.509,2070.361s.188,3.322.231,4.368-4.437,4.291-5.542,4.8l-.285-2.4a18.8,18.8,0,0,0-2.574,3.948c-.857,1.484-1.973,4.29-4.341,6.213-3.511,2.839-8.977,4.29-14.546,4.435s-8.752-1.21-10.3-2.419-2.077-2.635-1.674-4.042S5338.509,2070.361,5338.509,2070.361Z" transform="translate(-5298.798 -1914.988)" fill="#344154"/>
              <path id="Trazado_104688" data-name="Trazado 104688" d="M5323.592,2057.688l-.06-1.923c-1.029,0-1.168,2.755-2.669,5.192a49.817,49.817,0,0,1-7.886,9.979c-5.672,5.148-10.727,8.324-13.248,10.632-3.433,3.08,2.514,8.04,11.6,7.568,4.5-.231,12.527-2.463,14.792-5.149s3.665-6.8,5.483-8.727,5.689-3.861,6.822-6.212c.625-1.288.31-4.291-.043-6.865-.327-2.35-.386-5.955-1.716-5.663l-.1,1.2c-.54,1.03-1.8,2.721-5.449,3.313C5329.342,2061.369,5323.919,2061.506,5323.592,2057.688Z" transform="translate(-5298.746 -1913.709)" fill="#37474f"/>
              <path id="Trazado_104689" data-name="Trazado 104689" d="M5329.391,2061.445c-1.716-.154-3.6-.738-4.291-2.309v-.051a4.387,4.387,0,0,1-1.192,3.7c-1.63,1.888-11.962,15.249-11.962,15.249s9.611-11.01,11.447-13.086c2.729-3.063,3.587-3.432,6.066-3.493Z" transform="translate(-5299.901 -1914.001)" fill="#344154" opacity="0.15" style="isolation: isolate"/>
              <path id="Trazado_104690" data-name="Trazado 104690" d="M5328.563,2065.5a.47.47,0,1,0,0-.006Z" transform="translate(-5301.355 -1914.508)" fill="#344154" opacity="0.15" style="isolation: isolate"/>
              <path id="Trazado_104691" data-name="Trazado 104691" d="M5325.609,2068.733a.621.621,0,1,0,0-.007Z" transform="translate(-5301.097 -1914.791)" fill="#344154" opacity="0.15" style="isolation: isolate"/>
              <path id="Trazado_104692" data-name="Trazado 104692" d="M5322.647,2071.967a.556.556,0,1,0,.5-.609h0a.551.551,0,0,0-.5.6Z" transform="translate(-5300.838 -1915.075)" fill="#344154" opacity="0.15" style="isolation: isolate"/>
              <path id="Trazado_104693" data-name="Trazado 104693" d="M5319.694,2075.205a.559.559,0,0,0,.618.489.549.549,0,0,0,.49-.6v-.007a.559.559,0,0,0-1.108.121Z" transform="translate(-5300.579 -1915.36)" fill="#344154" opacity="0.15" style="isolation: isolate"/>
              <path id="Trazado_104694" data-name="Trazado 104694" d="M5316.74,2078.437a.56.56,0,0,0,.61.489.548.548,0,0,0,.5-.595v-.014a.558.558,0,0,0-.608-.49.549.549,0,0,0-.5.6Z" transform="translate(-5300.32 -1915.64)" fill="#344154" opacity="0.15" style="isolation: isolate"/>
              <path id="Trazado_104695" data-name="Trazado 104695" d="M5328.576,2065.455a.222.222,0,0,0,.2-.245.215.215,0,0,0-.061-.132,9.145,9.145,0,0,0-6.264-2.523h0a.231.231,0,0,0-.206.239.222.222,0,0,0,.239.207h0a8.847,8.847,0,0,1,5.929,2.395A.216.216,0,0,0,5328.576,2065.455Z" transform="translate(-5300.802 -1914.303)" fill="#344154"/>
              <path id="Trazado_104696" data-name="Trazado 104696" d="M5325.622,2068.681a.212.212,0,0,0,.137-.068.223.223,0,0,0,0-.316l0,0a9.128,9.128,0,0,0-6.271-2.514h0a.222.222,0,0,0-.206.239v0a.224.224,0,0,0,.231.206,8.9,8.9,0,0,1,5.938,2.385A.218.218,0,0,0,5325.622,2068.681Z" transform="translate(-5300.543 -1914.586)" fill="#344154"/>
              <path id="Trazado_104697" data-name="Trazado 104697" d="M5322.669,2071.925a.186.186,0,0,0,.138-.069.224.224,0,0,0,0-.316l0,0a9.211,9.211,0,0,0-6.273-2.514h0a.232.232,0,0,0-.206.24.224.224,0,0,0,.231.206,8.927,8.927,0,0,1,5.938,2.386A.2.2,0,0,0,5322.669,2071.925Z" transform="translate(-5300.285 -1914.87)" fill="#344154"/>
              <path id="Trazado_104698" data-name="Trazado 104698" d="M5319.727,2075.161a.172.172,0,0,0,.136-.07.213.213,0,0,0,.006-.3l-.006-.006a9.14,9.14,0,0,0-6.272-2.522h0a.224.224,0,0,0-.207.238h0a.218.218,0,0,0,.225.207h.01a8.855,8.855,0,0,1,5.929,2.394A.23.23,0,0,0,5319.727,2075.161Z" transform="translate(-5300.025 -1915.153)" fill="#344154"/>
              <path id="Trazado_104699" data-name="Trazado 104699" d="M5316.753,2078.444a.237.237,0,0,0,.147-.069.231.231,0,0,0,0-.317,9.17,9.17,0,0,0-6.273-2.514h0a.233.233,0,0,0-.215.24.223.223,0,0,0,.239.206h0a8.872,8.872,0,0,1,5.93,2.385A.228.228,0,0,0,5316.753,2078.444Z" transform="translate(-5299.766 -1915.441)" fill="#344154"/>
              <path id="Trazado_104700" data-name="Trazado 104700" d="M5382.091,2097.331c.773,4.343,1.794,7.166,3.655,9.543s5.191,2.651,7.671,2.128a10.683,10.683,0,0,0,8.238-8.126c.8-2.995.249-6.426-.909-10.409Z" transform="translate(-5306.042 -1916.748)" fill="#344154"/>
              <path id="Trazado_104701" data-name="Trazado 104701" d="M5391.441,2061.427c1.227-.051,2.293,5.784,3.7,11.575,1.5,6.213,3.852,9.508,4.984,13.687,1.571,5.783,1.477,8.487-.171,12.3s-10.193,8.47-14.408,3.785c-3.433-3.818-4.109-8.426-4.548-14.348a150.826,150.826,0,0,0-1.52-15.042c-.764-4.394-1.576-8.642-.573-9.259.153.643.334,1.458.5,2.085.117.479.53,2.856,1.217,2.8a9.1,9.1,0,0,0-.188-1.666,2,2,0,0,1,.171-1.467,2.309,2.309,0,0,1,1.278-.764,34.417,34.417,0,0,1,3.569-1,16.456,16.456,0,0,1,1.82-.291,19.345,19.345,0,0,1,3.218-.249,1.061,1.061,0,0,1,.729.514,1.8,1.8,0,0,1,.147.67,4.988,4.988,0,0,0,.3,1.193c.059.171.206.368.377.308s.173-.239.153-.386c-.076-.712-.229-1.218-.359-2.042-.061-.377-.188-.858-.231-1.278S5391.492,2061.8,5391.441,2061.427Z" transform="translate(-5305.722 -1914.206)" fill="#37474f"/>
              <path id="Trazado_104702" data-name="Trazado 104702" d="M5397.366,2091.262a.43.43,0,1,1-.516-.327.429.429,0,0,1,.516.327Z" transform="translate(-5307.304 -1916.788)" fill="#344154" opacity="0.15" style="isolation: isolate"/>
              <path id="Trazado_104703" data-name="Trazado 104703" d="M5396.426,2086.852a.429.429,0,1,1-.516-.326.43.43,0,0,1,.516.326Z" transform="translate(-5307.221 -1916.402)" fill="#344154" opacity="0.15" style="isolation: isolate"/>
              <path id="Trazado_104704" data-name="Trazado 104704" d="M5395.486,2082.686a.429.429,0,1,1-.516-.326.428.428,0,0,1,.516.326Z" transform="translate(-5307.14 -1916.037)" fill="#344154" opacity="0.15" style="isolation: isolate"/>
              <path id="Trazado_104705" data-name="Trazado 104705" d="M5394.547,2078.586a.43.43,0,1,1-.516-.326.43.43,0,0,1,.516.326Z" transform="translate(-5307.057 -1915.678)" fill="#344154" opacity="0.15" style="isolation: isolate"/>
              <path id="Trazado_104706" data-name="Trazado 104706" d="M5384.069,2080.5a.429.429,0,1,1-.516-.327.429.429,0,0,1,.516.327Z" transform="translate(-5306.14 -1915.846)" fill="#344154" opacity="0.15" style="isolation: isolate"/>
              <path id="Trazado_104707" data-name="Trazado 104707" d="M5384.989,2084.641a.418.418,0,0,1-.315.5l-.01,0a.429.429,0,1,1,.325-.512Z" transform="translate(-5306.221 -1916.208)" fill="#344154" opacity="0.15" style="isolation: isolate"/>
              <path id="Trazado_104708" data-name="Trazado 104708" d="M5385.912,2088.8a.429.429,0,1,1-.515-.326.428.428,0,0,1,.515.326Z" transform="translate(-5306.301 -1916.572)" fill="#344154" opacity="0.15" style="isolation: isolate"/>
              <path id="Trazado_104709" data-name="Trazado 104709" d="M5386.888,2093.217a.438.438,0,1,1-.52-.339A.439.439,0,0,1,5386.888,2093.217Z" transform="translate(-5306.385 -1916.958)" fill="#344154" opacity="0.15" style="isolation: isolate"/>
              <path id="Trazado_104710" data-name="Trazado 104710" d="M5390.525,2092.175l-6.666-28.042,1.569-.223Z" transform="translate(-5306.196 -1914.422)" fill="#344154" opacity="0.15" style="isolation: isolate"/>
              <path id="Trazado_104711" data-name="Trazado 104711" d="M5396.127,2091.585h-.068c-2.892-.283-7.671.575-9.438,1.716a.216.216,0,0,1-.3-.062l0-.006a.224.224,0,0,1,.068-.3c1.88-1.219,6.7-2.094,9.73-1.785a.215.215,0,1,1,0,.429Z" transform="translate(-5306.409 -1916.802)" fill="#344154"/>
              <path id="Trazado_104712" data-name="Trazado 104712" d="M5395.145,2087.119a.248.248,0,0,1-.11,0c-2.274-.763-7.382.421-9.44,1.716a.222.222,0,0,1-.3-.068.215.215,0,0,1,.063-.3l.006,0c2.111-1.373,7.38-2.575,9.782-1.776a.215.215,0,0,1,0,.42Z" transform="translate(-5306.318 -1916.395)" fill="#344154"/>
              <path id="Trazado_104713" data-name="Trazado 104713" d="M5394.225,2082.991a.2.2,0,0,1-.12,0c-2.273-.764-7.379.421-9.439,1.716a.223.223,0,0,1-.24-.369c2.12-1.364,7.389-2.574,9.783-1.775a.2.2,0,0,1,.144.253l-.007.021A.222.222,0,0,1,5394.225,2082.991Z" transform="translate(-5306.239 -1916.033)" fill="#344154"/>
              <path id="Trazado_104714" data-name="Trazado 104714" d="M5393.31,2078.882h-.12c-2.273-.764-7.379.42-9.438,1.716a.217.217,0,0,1-.241-.36h0c2.12-1.374,7.389-2.574,9.783-1.784a.215.215,0,0,1,.143.267l-.006.015A.2.2,0,0,1,5393.31,2078.882Z" transform="translate(-5306.157 -1915.674)" fill="#344154"/>
              <path id="Trazado_104715" data-name="Trazado 104715" d="M5379.643,1904.337c2.849,36.135,4.6,85.337,4.6,85.337.258,2.746,2.9,14.459,4.223,27.991,1.4,14.278,2.53,41.025,2.53,41.025s-9.987,5.372-18.079,2.677c0,0-8.675-45.05-12.82-61.877-3.93-15.926-10.073-46.114-10.073-46.114l-4.179,29.9s.549,10.3.249,17.5c-.36,8.384-5.706,48.662-5.706,48.662s-10.865,6.367-19.281-.094c0,0-1.46-55.553-1.718-65.635-.462-19.778,1.845-58.109,2.574-83.637Z" transform="translate(-5300.546 -1900.082)" fill="#344154"/>
              <path id="Trazado_104716" data-name="Trazado 104716" d="M5369.329,1950.337q1.132,12.984,2.532,25.957.677,6.471,1.415,12.958l.737,6.478.378,3.235c.12,1.081.344,2.145.507,3.218,1.424,8.581,3.621,24.147,5.148,32.7s3.209,17.085,4.978,25.6q-1.717-12.924-3.708-25.794c-1.338-8.581-3.432-24.164-4.908-32.728-.172-1.073-.395-2.137-.522-3.209l-.4-3.235-.815-6.462q-.806-6.461-1.716-12.914Q5371.295,1963.216,5369.329,1950.337Z" transform="translate(-5304.922 -1904.481)" fill="#344154"/>
              <path id="Trazado_104717" data-name="Trazado 104717" d="M5325.268,1947.647c-.91,8.075-1.39,16.2-1.716,24.319s-.67,16.3-.36,24.378.4,21.735.711,29.861.67,16.235,1.151,24.344q.2-12.194.076-24.369c-.051-8.118-.2-21.728-.369-29.845l-.145-6.083-.044-1.528v-4.548l.154-12.177.2-12.176C5325,1955.765,5325.13,1951.707,5325.268,1947.647Z" transform="translate(-5300.875 -1904.245)" fill="#344154"/>
              <path id="Trazado_104718" data-name="Trazado 104718" d="M5351.2,1956.031l-3.526-19.788s-9.808-1.433-14.837-5.947c0,0,3.244,6.007,12.494,8.307l3.553,17.488-1.862,29.836Z" transform="translate(-5301.729 -1902.727)" fill="#344154"/>
            </g>
            <g id="freepik--Top--inject-204">
              <g id="freepik--Arm--inject-204" transform="translate(60.222 64.132)">
                <path id="Trazado_104719" data-name="Trazado 104719" d="M5306.21,1835.543c.068-1.716.857-3.072,2.935-4.462a14.89,14.89,0,0,0,4.205-3.682c1.141-1.528,3.08-4.376,4.247-5.329s-.231-2.308-2.283-2.068-6.692,2.574-7.808,5.045A22.27,22.27,0,0,0,5306.21,1835.543Z" transform="translate(-5293.133 -1814.64)" fill="#f28f8f"/>
                <path id="Trazado_104720" data-name="Trazado 104720" d="M5331.66,1826.87c-4.719.361-10.365.361-15.256,9.388-5.046,9.328-9.241,16.682-9.241,16.682a89.112,89.112,0,0,1-1.983-13.1c-.4-6.47-.231-9.3,1.819-13.018a107.8,107.8,0,0,0,7.868-12.691,63.257,63.257,0,0,0-10.752,1.484,2.191,2.191,0,0,0-1.364.944c-.18.361-.171.8-.343,1.167a2.418,2.418,0,0,1-1.279,1.081c-1.079.514-2.342.969-2.856,2.05-.282.6-.282,1.313-.523,1.931a7.282,7.282,0,0,1-2.171,2.42,6.67,6.67,0,0,0-1.588,3.432c-1.646,6.658-2.094,13.429-2.094,23.751,0,7.165.429,16.973,2.884,22.4s7.387,11.55,14.63,4.29,19.873-27.382,19.873-27.382Z" transform="translate(-5291.896 -1814.128)" fill="#ffa8a7"/>
                <path id="Trazado_104721" data-name="Trazado 104721" d="M5308.8,1826.692a12.023,12.023,0,0,0-3.362,1.973,4.147,4.147,0,0,1,.042,3.639c-.856,2.2-2.506,3.047-2.094,5.149a3.589,3.589,0,0,1,1.922-3.3C5307.688,1832.7,5309.08,1827.962,5308.8,1826.692Z" transform="translate(-5292.896 -1815.228)" fill="#f28f8f"/>
                <path id="Trazado_104722" data-name="Trazado 104722" d="M5332.369,1827.764c-4.488.481-9.087.73-13.515,6.8s-10.649,18.878-10.649,18.878l.163.721s3.647,4.634,4.386,13.781a19.028,19.028,0,0,1-4.943,14.588,7.586,7.586,0,0,1-2.137.909s1.8,1.321,4.419-.524,22.774-30.762,22.774-30.762Z" transform="translate(-5293.103 -1815.321)" fill="#f0f0f0"/>
                <path id="Trazado_104723" data-name="Trazado 104723" d="M5306.923,1855.081l.284,1.287s2.375,8.324-.653,14.639-7.4,6.96-9.67,6.762c-2.5-.215-3.321-3.261-3.321-3.261l-.464-2.135a1.843,1.843,0,0,0-.558,2.135,57.712,57.712,0,0,0,3.434,7.723c1.381,2.5,6,6.1,9.987,3.9s6.461-7.594,6.461-14.768-1.646-11.747-2.763-13.274-3.1-4.788-3.1-4.788Z" transform="translate(-5291.941 -1817.557)" fill="#e0e0e0"/>
              </g>
              <g id="freepik--Chest--inject-204" transform="translate(87.594 72.979)">
                <path id="Trazado_104724" data-name="Trazado 104724" d="M5380.751,1831.195s6.324,5.235,3.338,18.1a188.2,188.2,0,0,0-4.007,25.485c-.463,6.78.3,29.639.3,29.639-10.255,12.253-53.133,9.122-58.454-2.034,0,0-.607-43.367,3.27-58.727,2.2-8.7,5.286-13.73,8.581-16.235l14.588-3.432,13.24-.164Z" transform="translate(-5321.895 -1823.824)" fill="#e6e6e6"/>
              </g>
              <g id="freepik--Pen--inject-204">
                <path id="Trazado_104725" data-name="Trazado 104725" d="M5378.92,1750.862a4.6,4.6,0,0,0-7.835-4.832h0l-2.427,3.947a2.272,2.272,0,0,0,.162,2.309,7.2,7.2,0,0,0,5.544,3.433,2.3,2.3,0,0,0,2.127-.859l2.429-3.948Z" transform="translate(-5238.374 -1743.843)" fill="#5e6178"/>
                <path id="Trazado_104726" data-name="Trazado 104726" d="M5374.365,1755.949a2.3,2.3,0,0,0,2.127-.859l2.429-3.948h0a4.6,4.6,0,0,0,.2-4.47h0c.412,1.236-.755,3.106-2.1,5.294s-3,3.236-6.316,1.382c-2.41-1.347-2.119-2.823-1.775-3.527l-.266.438a2.271,2.271,0,0,0,.162,2.308A7.193,7.193,0,0,0,5374.365,1755.949Z" transform="translate(-5238.374 -1744.091)" fill="#37474f"/>
                <path id="Trazado_104727" data-name="Trazado 104727" d="M5377.249,1770.156a14.3,14.3,0,0,0-24.345-14.99h0c-1.107,1.8-1.03,4.29.506,7.165,3.063,5.672,10.769,10.417,17.213,10.6C5373.841,1773.022,5376.132,1771.959,5377.249,1770.156Z" transform="translate(-5236.948 -1744.252)" fill="#aed3f2"/>
                <path id="Trazado_104728" data-name="Trazado 104728" d="M5371.61,1763.364c-3.063-5.664-10.771-10.417-17.214-10.6-3.217-.095-5.518.978-6.624,2.771l-53.5,86.848c-1.106,1.8-1.021,4.29.506,7.165,3.063,5.672,10.77,10.417,17.214,10.606,3.217.085,5.517-.978,6.624-2.772l53.5-86.855C5373.222,1768.735,5373.137,1766.2,5371.61,1763.364Z" transform="translate(-5231.817 -1744.624)" fill="#84aacc"/>
                <path id="Trazado_104729" data-name="Trazado 104729" d="M5308.63,1873.754c-6.625-.189-14.545-5.071-17.693-10.9-1.57-2.918-1.657-5.518-.517-7.363l4.11-6.684c1.142-1.845,3.5-2.943,6.813-2.849,6.625.189,14.545,5.072,17.694,10.9,1.569,2.918,1.655,5.518.515,7.371l-4.109,6.677C5314.3,1872.75,5311.942,1873.857,5308.63,1873.754Z" transform="translate(-5231.479 -1752.782)" fill="#aed3f2"/>
                <path id="Trazado_104730" data-name="Trazado 104730" d="M5297.225,1853.286c6.625.189,14.545,5.063,17.694,10.9,1.578,2.909,1.656,5.509.515,7.363s-3.492,2.943-6.8,2.849c-6.625-.189-14.545-5.072-17.693-10.9-1.57-2.918-1.657-5.518-.517-7.363S5293.914,1853.191,5297.225,1853.286Z" transform="translate(-5231.479 -1753.423)" fill="#4c708f"/>
                <path id="Trazado_104731" data-name="Trazado 104731" d="M5238.254,1944.824c.986-1.6,3.029-2.574,5.9-2.463,5.732.163,12.6,4.385,15.326,9.44,1.362,2.523,1.433,4.779.445,6.375h0l-3.286,3.226h0a6.381,6.381,0,0,1-4.873,1.579c-5.287-.146-11.6-4.041-14.116-8.692a6.4,6.4,0,0,1-.782-5.062h0Z" transform="translate(-5226.84 -1761.22)" fill="#4c708f"/>
                <path id="Trazado_104732" data-name="Trazado 104732" d="M5244.309,1934.846c5.732.163,12.6,4.385,15.325,9.439,1.365,2.523,1.435,4.779.446,6.375l48.251-78.326c.988-1.605.919-3.862-.446-6.385-2.728-5.054-9.584-9.276-15.325-9.439-2.867-.087-4.916.858-5.9,2.462l-48.25,78.335h0C5239.367,1935.705,5241.435,1934.76,5244.309,1934.846Z" transform="translate(-5226.992 -1753.705)" fill="#6595bf"/>
                <path id="Trazado_104733" data-name="Trazado 104733" d="M5255.424,1962.181c.919-1.424.858-3.432-.378-5.749-2.447-4.522-8.624-8.289-13.789-8.418-2.574-.06-4.385.763-5.259,2.2h0v.043h0c-3.074,5.028-9.115,20.217-8.395,27.784l.139.086a2.674,2.674,0,0,0,.35,1.175,6.628,6.628,0,0,0,5.15,3.115,2.749,2.749,0,0,0,1.158-.206h0C5241.455,1979.463,5252.369,1967.141,5255.424,1962.181Z" transform="translate(-5226.042 -1761.716)" fill="#6595bf"/>
                <path id="Trazado_104734" data-name="Trazado 104734" d="M5307.217,1857.107a14.976,14.976,0,0,0-1.836-2.617l-48.25,78.378a14.681,14.681,0,0,1,1.835,2.617c.087.163.154.326.232.49l48.258-78.335A3.628,3.628,0,0,0,5307.217,1857.107Zm7.825-5.011a6.484,6.484,0,0,0-.189-.8l47.59-77.227c6.247-10.133,6.221-14.4,3.956-18.595,1.347,4.145-4.376,13.369-5.147,14.587l-47.968,77.854c.214.335.411.67.6,1l-4.119,6.684a11.07,11.07,0,0,1,1.158,3.15Zm-83.86,112.9,2.506-1.124s1.817.188,7.241-4.746,8.693-10.3,14.4-19.547a13.9,13.9,0,0,0-2.24-2.978c-.06.12-6.418,12.442-14.39,21.152a46.18,46.18,0,0,1-7.937,7.02C5230.9,1964.849,5231.035,1964.925,5231.182,1964.995Z" transform="translate(-5226.324 -1744.861)" fill="#fff" stroke="#5e6178" stroke-miterlimit="10" stroke-width="0" opacity="0.2" style="isolation: isolate"/>
                <path id="Trazado_104735" data-name="Trazado 104735" d="M5229.468,1981.3l-2,3.243c-.857,1.416-2.273,5.415-1.148,6.11s4.066-2.36,4.942-3.776h0l2-3.235s-.043-.858-1.536-1.716A3.2,3.2,0,0,0,5229.468,1981.3Z" transform="translate(-5225.899 -1764.627)" fill="#5e6178"/>
                <path id="Trazado_104736" data-name="Trazado 104736" d="M5227.77,1991.149a1.467,1.467,0,0,0-1.71-1.175,1.1,1.1,0,0,0-.144.034c-.069.669.06,1.2.4,1.416S5227.186,1991.5,5227.77,1991.149Z" transform="translate(-5225.898 -1765.386)" fill="#344154"/>
              </g>
              <g id="freepik--Hand--inject-204" transform="translate(72.955 64.132)">
                <path id="Trazado_104737" data-name="Trazado 104737" d="M5316.366,1814.128c1.228,0,3.493,1.322,5.269,2.479s3.434,1.245,2.849,2.574a2.572,2.572,0,0,1-2.36,1.081,10.218,10.218,0,0,1-2.892-.54c2.1,1.81,2.575,2.531,1.949,3.166-.859.918-2.421.807-3.691.18.715.73,1.521,1.108,1.151,1.8s-1.665.91-3.175.635a8.779,8.779,0,0,1-2.755-.969c-1.6.428-3.389,1.046-3.389,1.046A38.643,38.643,0,0,1,5316.366,1814.128Z" transform="translate(-5306.156 -1814.128)" fill="#ffa8a7"/>
                <path id="Trazado_104738" data-name="Trazado 104738" d="M5317.188,1823.643c-.857-.489-1.716-1.107-2.574-1.613a3.894,3.894,0,0,0-2.825-.31c-.985.121-1.973.31-2.958.5s-1.974.343-2.979.472c.962-.274,1.939-.515,2.927-.754s1.966-.43,2.969-.576a9.235,9.235,0,0,1,1.535-.086,2.832,2.832,0,0,1,1.477.516C5315.635,1822.391,5316.391,1823.043,5317.188,1823.643Z" transform="translate(-5305.852 -1814.753)" fill="#f28f8f"/>
                <path id="Trazado_104739" data-name="Trazado 104739" d="M5319.208,1819.977c-.762-.489-1.527-.978-2.309-1.432-.393-.215-.787-.464-1.174-.627a3.476,3.476,0,0,0-1.278-.119,22.7,22.7,0,0,0-2.687.274c-.893.112-1.8.232-2.711.309.858-.232,1.767-.42,2.668-.592a21.715,21.715,0,0,1,2.72-.352,3.631,3.631,0,0,1,1.407.172,8.6,8.6,0,0,1,1.2.694A19.851,19.851,0,0,1,5319.208,1819.977Z" transform="translate(-5306.131 -1814.417)" fill="#f28f8f"/>
              </g>
              <g id="freepik--Head--inject-204" transform="translate(98.894 26.083)">
                <path id="Trazado_104740" data-name="Trazado 104740" d="M5368.584,1781.459s2.857,0,4.951,3.5c1.056,1.716,1.938,4.986,0,14.588a37.738,37.738,0,0,1-3.854,10.649,4.62,4.62,0,0,1-2.573,2.325l-.274-7.233-.052-5.046s-3.511-4.2-4.094-7.8c-.746-4.617.112-6.582.112-6.582Z" transform="translate(-5336.739 -1773.219)" fill="#37474f"/>
                <path id="Trazado_104741" data-name="Trazado 104741" d="M5367.128,1780.848c-.97-4.016-6.427-8.521-16.39-8.418-8.159.094-12.742,3.192-15.266,8.117s-.267,10.949-.267,10.949l25.452-3.312Z" transform="translate(-5334.278 -1772.429)" fill="#37474f"/>
                <path id="Trazado_104742" data-name="Trazado 104742" d="M5371.171,1806.874c-2.736,1.639-5.519-.79-5.519-.79l.4,14.922s-.112,2.892-4.531,5.707c-6.264,3.989-9.01,5.027-11.551,9.027-2.5-6.281-5.079-9.731-1.234-14.854l-.206-3.432a23.735,23.735,0,0,1-4.5.145c-3.348-.309-5.6-2.806-6.813-6.333-1.794-5.217-2.919-13.67-1.494-22.833a7.732,7.732,0,0,1,2.454-4.616c6.215-5.5,13.789-2.24,19.471-.438a10.47,10.47,0,0,0,6.968-.471c-1.794,2.256-2.573,4.376-2.016,14.638a6.162,6.162,0,0,0,1.543,1.767c1.28.979,2.095-1.81,3.047-2.934a4.168,4.168,0,0,1,6.581,1.073,6.866,6.866,0,0,1-2.519,9.375Z" transform="translate(-5334.349 -1773.159)" fill="#ffa8a7"/>
                <path id="Trazado_104743" data-name="Trazado 104743" d="M5353.756,1792.564l3.759,1.355a2.086,2.086,0,0,0-1.244-2.616,1.948,1.948,0,0,0-2.489,1.182C5353.772,1792.512,5353.764,1792.537,5353.756,1792.564Z" transform="translate(-5335.983 -1774.071)" fill="#37474f"/>
                <path id="Trazado_104744" data-name="Trazado 104744" d="M5338.541,1793.619l3.793-1.365a1.941,1.941,0,0,0-2.425-1.283l-.09.031A2.119,2.119,0,0,0,5338.541,1793.619Z" transform="translate(-5334.643 -1774.044)" fill="#37474f"/>
                <path id="Trazado_104745" data-name="Trazado 104745" d="M5356.021,1796.767a1.631,1.631,0,1,1-1.68-1.578h.007a1.621,1.621,0,0,1,1.673,1.569Z" transform="translate(-5335.896 -1774.421)" fill="#344154"/>
                <path id="Trazado_104746" data-name="Trazado 104746" d="M5342.744,1796.953a1.632,1.632,0,1,1-1.719-1.578,1.484,1.484,0,0,1,1.7,1.229A1.548,1.548,0,0,1,5342.744,1796.953Z" transform="translate(-5334.734 -1774.436)" fill="#344154"/>
                <path id="Trazado_104747" data-name="Trazado 104747" d="M5348.959,1793.383l-.677,10.417-5.595-1.665A24.3,24.3,0,0,1,5348.959,1793.383Z" transform="translate(-5335.015 -1774.263)" fill="#f28f8f"/>
                <path id="Trazado_104748" data-name="Trazado 104748" d="M5362.631,1798.245c-.249,7.1-2.687,7.627-5.2,8.066-3.337.592-5-1.193-10.975-1.116-3.62.043-4.744,1.132-6.8,2.008-1.51.643-2.754.472-3.355-.859a23.657,23.657,0,0,1-1.235-7.654,56.737,56.737,0,0,0,.438,11.627c.531,3.329,1.785,6.17,3.647,7.723,2.574,2.128,7.919,2.944,14.586,1.391s9.147-4.36,9.928-6.728c2.507-7.723,1.441-11.293,2.3-12.752S5362.631,1798.245,5362.631,1798.245Z" transform="translate(-5334.337 -1774.689)" fill="#37474f"/>
                <path id="Trazado_104749" data-name="Trazado 104749" d="M5348.032,1808.183c3.434-.111,4.531.489,4.721,2.823.274,3.338.127,4.462-1.149,4.651-1.5.232-2.575.335-2.671-.617a3.83,3.83,0,0,1,.188-2.137c.524-.653.336-.739-1.157-.687s-1.476.318-1.021.772c.326.335.308,1.476.316,2.137s-.153,1-2.308.858c-1.88-.155-1.579-1.665-1.579-4.539C5343.373,1809.479,5344.169,1808.312,5348.032,1808.183Z" transform="translate(-5335.073 -1775.557)" fill="#ffa8a7"/>
                <path id="Trazado_104750" data-name="Trazado 104750" d="M5351.494,1808.712l-5.544.858a2.747,2.747,0,0,0,3.014,2.451c.036,0,.073-.008.11-.014A2.934,2.934,0,0,0,5351.494,1808.712Z" transform="translate(-5335.299 -1775.605)" fill="#b16668"/>
                <path id="Trazado_104751" data-name="Trazado 104751" d="M5350.984,1809.642a2.541,2.541,0,0,1,.68.051,2.9,2.9,0,0,1-2.378,2.369,2.668,2.668,0,0,1-.9,0A2.57,2.57,0,0,1,5350.984,1809.642Z" transform="translate(-5335.515 -1775.686)" fill="#f28f8f"/>
              </g>
              <g id="freepik--Tie--inject-204" transform="translate(106.55 69.821)">
                <path id="Trazado_104752" data-name="Trazado 104752" d="M5348.195,1839.533s-2.471-4.651-2.479-6.478l2.953-3.081.96,7.612Z" transform="translate(-5342.935 -1821.203)" fill="#d9a171"/>
                <path id="Trazado_104753" data-name="Trazado 104753" d="M5348.195,1839.533s-2.471-4.651-2.479-6.478l2.953-3.081.96,7.612Z" transform="translate(-5342.935 -1821.203)" fill="#344154" opacity="0.2" style="isolation: isolate"/>
                <path id="Trazado_104754" data-name="Trazado 104754" d="M5352.873,1838.3l5.046-3.467,4.238,2.823-7.756,4.007Z" transform="translate(-5343.563 -1821.629)" fill="#d9a171"/>
                <path id="Trazado_104755" data-name="Trazado 104755" d="M5352.873,1838.3l5.046-3.467,4.238,2.823-7.756,4.007Z" transform="translate(-5343.563 -1821.629)" fill="#344154" opacity="0.2" style="isolation: isolate"/>
                <path id="Trazado_104756" data-name="Trazado 104756" d="M5355.571,1886.044c-.479-16.3-4.119-37.009-3.836-40.973l-2.771-.257c-1.9,4.762-6.128,31.192-5.93,42.45-.121,3.93,3.715,11.155,6.358,11.275S5355.641,1888.431,5355.571,1886.044Z" transform="translate(-5342.701 -1822.503)" fill="#d9a171"/>
                <path id="Trazado_104757" data-name="Trazado 104757" d="M5355.571,1886.044c-.479-16.3-4.119-37.009-3.836-40.973l-2.771-.257c-1.9,4.762-6.128,31.192-5.93,42.45-.121,3.93,3.715,11.155,6.358,11.275S5355.641,1888.431,5355.571,1886.044Z" transform="translate(-5342.701 -1822.503)" fill="#fff" stroke="#5e6178" stroke-miterlimit="10" stroke-width="0" opacity="0.1" style="isolation: isolate"/>
                <path id="Trazado_104758" data-name="Trazado 104758" d="M5349.3,1845.442c.087-.248.138-.411.213-.6h0l2.772.258h0a11.531,11.531,0,0,0,0,1.219A4.876,4.876,0,0,1,5349.3,1845.442Z" transform="translate(-5343.25 -1822.505)" fill="#344154" opacity="0.5" style="isolation: isolate"/>
                <path id="Trazado_104759" data-name="Trazado 104759" d="M5352.553,1838.2a11.785,11.785,0,0,0-2.617-.094,6.169,6.169,0,0,0-1.5,2.136,9.495,9.495,0,0,0,1,3.982,3.327,3.327,0,0,0,2.771.257,5.774,5.774,0,0,0,1.983-2.677A5.266,5.266,0,0,0,5352.553,1838.2Z" transform="translate(-5343.174 -1821.913)" fill="#d9a171"/>
                <path id="Trazado_104760" data-name="Trazado 104760" d="M5352.553,1838.2a11.785,11.785,0,0,0-2.617-.094,6.169,6.169,0,0,0-1.5,2.136,9.495,9.495,0,0,0,1,3.982,3.327,3.327,0,0,0,2.771.257,5.774,5.774,0,0,0,1.983-2.677A5.266,5.266,0,0,0,5352.553,1838.2Z" transform="translate(-5343.174 -1821.913)" fill="#fff" stroke="#5e6178" stroke-miterlimit="10" stroke-width="0" opacity="0.1" style="isolation: isolate"/>
                <path id="Trazado_104761" data-name="Trazado 104761" d="M5352.892,1836.641c.085,0,.205.205.291.223,1.923-1.064,2.223-1.416,2.737-1.279.97.267,3.3,4.291,3.888,5.578s.479,1.287,2.247.086a31.9,31.9,0,0,0,7.981-7.877,23.646,23.646,0,0,0,3.132-6.445s-2.06-2.78-2.668-3.844c-1.177-2.059-1.828-2.882-3-2.695v1.348c-.189,1.81-2.051,3.552-4.549,5.757s-6.556,4.291-7.508,5.269A18.943,18.943,0,0,0,5352.892,1836.641Z" transform="translate(-5343.564 -1820.362)" fill="#aed3f2"/>
                <path id="Trazado_104762" data-name="Trazado 104762" d="M5342.881,1838.449c.293.729,2.576-5.054,3.717-4.951.55.043,1.82,1.588,2.867,3.227h.791a17.512,17.512,0,0,1-1.247-4.376c-.255-1.957.456-7.8.456-7.8l-.173-2.257-1.012.043a8.687,8.687,0,0,0-.987,1.348c-1.1,1.854-3.972,6.144-4.29,8.34A19.272,19.272,0,0,0,5342.881,1838.449Z" transform="translate(-5342.669 -1820.531)" fill="#aed3f2"/>
              </g>
              <g id="freepik--arm--inject-204-2" data-name="freepik--arm--inject-204" transform="translate(100.098 79.364)">
                <path id="Trazado_104763" data-name="Trazado 104763" d="M5360.916,1874.154a21.607,21.607,0,0,1-3.346-4.746c-1.159-2.188-1.58-3.663-2.437-5.457l-.859-1.715a1.024,1.024,0,0,0-.266-.4.857.857,0,0,0-1,.043,3.509,3.509,0,0,0-1.571,3,14.347,14.347,0,0,0,.558,3.493c.164.755.9,3.544.9,3.544Z" transform="translate(-5336.984 -1833.524)" fill="#f28f8f"/>
                <path id="Trazado_104764" data-name="Trazado 104764" d="M5395.467,1841.91c-2.823-6.659-6.367-7.662-15.772-10.365-5.1,8.709-1.295,25.631-1.295,25.631l4.29,20.01s-14.683-.454-17.274-1.648-9.919-7.173-12.338-8.932c-3.3-2.386-4.694-1.811-6.145-1.391-4.744,1.4-5.758,1.957-6.693,2.755a2.209,2.209,0,0,0-.678,2.017c-1.27.335-3.2.567-3.158,2.712a6.113,6.113,0,0,0,.164,1.716,1.4,1.4,0,0,0-.771.592c-.9,1.391,1.527,5.432,2.839,6.316.927.626,2.1.557,3.613.137,1.279-.36.489-1.6.489-1.6l1.835-.146c4.333,2.257,5.3,7.414,10.684,7.911a52.984,52.984,0,0,1,6.53.721c11.747,2.223,23.287,9.053,33.405,8.53,9.877-.515,8.882-5.681,8.2-11.679C5402.837,1879.837,5398.7,1849.513,5395.467,1841.91Z" transform="translate(-5335.6 -1830.884)" fill="#ffa8a7"/>
                <path id="Trazado_104765" data-name="Trazado 104765" d="M5386.784,1879.355l.429,1.991c4.6.522,9.843,3.063,11.24,5.346C5397.1,1882.976,5394.892,1880.385,5386.784,1879.355Z" transform="translate(-5340.08 -1835.069)" fill="#f28f8f"/>
                <path id="Trazado_104766" data-name="Trazado 104766" d="M5383.292,1830.821c3.431,1.021,9.5,2.042,12.142,4.677s4.41,4.179,6.487,12.871,4.616,29.38,5.724,33.053,2.007,6.127,0,8.366c-2.48-6.632-9.5-12.3-21.1-12.69-1.913,0-1.467-2.377-2.144-4.583s-3.2-15.213-4.291-19.538S5377.432,1835.412,5383.292,1830.821Z" transform="translate(-5339.403 -1830.821)" fill="#f0f0f0"/>
                <path id="Trazado_104767" data-name="Trazado 104767" d="M5385.7,1880.462l-.274.858a27.1,27.1,0,0,1,10.691,5.9c4.539,4.341,5.567,7.9,5.8,10.177s0,3.63-1.716,3.7l-1.57.061s.326.858,3.3.618c2.573-.206,5.061-.927,6.28-3.578a8.042,8.042,0,0,0,.316-6.865c-.857-2.386-3.131-6.6-10.186-9.517C5392.552,1879.432,5385.7,1880.462,5385.7,1880.462Z" transform="translate(-5339.961 -1835.147)" fill="#e0e0e0"/>
                <path id="Trazado_104768" data-name="Trazado 104768" d="M5339.984,1873.524l5.6-1.965-5.586,1.106A2.192,2.192,0,0,0,5339.984,1873.524Z" transform="translate(-5335.979 -1834.387)" fill="#f28f8f"/>
                <path id="Trazado_104769" data-name="Trazado 104769" d="M5336.7,1878.344l6.512-1.81-6.624,1A3.466,3.466,0,0,0,5336.7,1878.344Z" transform="translate(-5335.684 -1834.823)" fill="#f28f8f"/>
                <path id="Trazado_104770" data-name="Trazado 104770" d="M5338.107,1881.584a2.144,2.144,0,0,0,1,.652,4.311,4.311,0,0,0,1.185.223l-.094-.051c.222.325.461.643.693.951l.12-.2a1.362,1.362,0,0,0-1.021.4,1.715,1.715,0,0,0-.455.945,2.146,2.146,0,0,1,.575-.816,1.324,1.324,0,0,1,.858-.283h.258l-.147-.214c-.231-.327-.463-.645-.7-.953v-.052h-.061a5.758,5.758,0,0,1-1.143-.154A2.537,2.537,0,0,1,5338.107,1881.584Z" transform="translate(-5335.818 -1835.265)" fill="#f28f8f"/>
                <path id="Trazado_104771" data-name="Trazado 104771" d="M5340.158,1882.235a21.162,21.162,0,0,0,2.428-.163s.112.464,1,1.158a13.732,13.732,0,0,0,1.432.858l-1.836.146a2.96,2.96,0,0,0-2.247-.859Z" transform="translate(-5335.998 -1835.307)" fill="#f28f8f"/>
              </g>
            </g>
          </g>
        </g>
      </g>
    </g>
  </g>
</svg>
