<svg xmlns="http://www.w3.org/2000/svg" width="417.385" height="412.815" viewBox="0 0 417.385 412.815">
  <g id="Grupo_53424" data-name="Grupo 53424" transform="translate(-310.085 -4045.537)">
    <g id="Grupo_53423" data-name="Grupo 53423" transform="translate(310.085 4045.537)">
      <g id="freepik--background-complete--inject-11" transform="translate(17.035)">
        <rect id="Rectángulo_5074" data-name="Rectángulo 5074" width="168.567" height="199.564" transform="translate(0 0.01)" fill="#ebebeb"/>
        <rect id="Rectángulo_5075" data-name="Rectángulo 5075" width="71.182" height="88.765" transform="translate(9.188 8.004)" fill="#fff"/>
        <rect id="Rectángulo_5076" data-name="Rectángulo 5076" width="71.182" height="88.765" transform="translate(88.197 8.004)" fill="#fff"/>
        <rect id="Rectángulo_5077" data-name="Rectángulo 5077" width="71.182" height="88.765" transform="translate(9.188 102.815)" fill="#fff"/>
        <rect id="Rectángulo_5078" data-name="Rectángulo 5078" width="71.182" height="88.765" transform="translate(88.197 102.815)" fill="#fff"/>
        <rect id="Rectángulo_5079" data-name="Rectángulo 5079" width="39.93" height="285.511" transform="translate(0 0.01)" fill="#dbdbdb"/>
        <path id="Trazado_99202" data-name="Trazado 99202" d="M350.158,4056.522l.3,30.87.117,30.871.205,61.739-.205,61.74-.108,30.87-.313,30.87-.313-30.87-.108-30.87-.215-61.74.215-61.739.108-30.871Z" transform="translate(-317.801 -4042.942)" fill="#ebebeb"/>
        <path id="Trazado_99203" data-name="Trazado 99203" d="M335.327,4062.316l.313,27.563.176,27.563.147,55.126-.147,55.135-.176,27.563-.313,27.563-.313-27.563-.176-27.562-.147-55.135.147-55.126.186-27.563Z" transform="translate(-321.306 -4041.573)" fill="#ebebeb"/>
        <path id="Trazado_99204" data-name="Trazado 99204" d="M342.743,4067.579l.313,32.279.108,32.27.215,64.557-.215,64.548-.108,32.279-.313,32.269-.313-32.269-.108-32.279-.215-64.548.215-64.557.108-32.27Z" transform="translate(-319.553 -4040.329)" fill="#ebebeb"/>
        <path id="Trazado_99205" data-name="Trazado 99205" d="M329.809,4057.836l.313,33.786.108,33.775.215,67.562-.215,67.562-.108,33.786-.313,33.776-.3-33.776-.117-33.786-.205-67.562.205-67.562.117-33.775Z" transform="translate(-322.607 -4042.631)" fill="#ebebeb"/>
        <rect id="Rectángulo_5080" data-name="Rectángulo 5080" width="39.93" height="285.511" transform="translate(128.636)" fill="#dbdbdb"/>
        <path id="Trazado_99206" data-name="Trazado 99206" d="M434.159,4056.522l.313,30.87.108,30.871.215,61.739-.215,61.74-.108,30.87-.313,30.87-.3-30.87-.117-30.87-.205-61.74.205-61.739.117-30.871Z" transform="translate(-297.949 -4042.942)" fill="#ebebeb"/>
        <path id="Trazado_99207" data-name="Trazado 99207" d="M448.992,4062.316l.313,27.563.176,27.563.147,55.126-.147,55.135-.176,27.563-.313,27.563-.313-27.563L448.5,4227.7l-.147-55.135.147-55.126.186-27.563Z" transform="translate(-294.447 -4041.573)" fill="#ebebeb"/>
        <path id="Trazado_99208" data-name="Trazado 99208" d="M441.575,4067.579l.313,32.279.108,32.27.215,64.557L442,4261.233l-.108,32.279-.313,32.269-.313-32.269-.108-32.279-.206-64.548.206-64.557.117-32.27Z" transform="translate(-296.197 -4040.329)" fill="#ebebeb"/>
        <path id="Trazado_99209" data-name="Trazado 99209" d="M454.508,4057.836l.3,33.786.117,33.775.215,67.562-.215,67.562-.108,33.786-.313,33.776-.313-33.776-.108-33.786-.215-67.562.215-67.562.108-33.775Z" transform="translate(-293.143 -4042.631)" fill="#ebebeb"/>
        <path id="Trazado_99210" data-name="Trazado 99210" d="M631.82,4210.677a2.438,2.438,0,0,1,2.455,2.417v1.3a20.9,20.9,0,0,1,8.854,3.14,3.05,3.05,0,0,1,1.712,2.75,3.14,3.14,0,0,1-3.14,3.142h-.058a3.307,3.307,0,0,1-1.714-.521,20.983,20.983,0,0,0-5.87-2.514v10.979c8.689,2.172,12.406,5.656,12.406,11.741,0,6.281-4.892,10.46-12.171,11.145v3.425a2.436,2.436,0,0,1-2.407,2.465h-.049a2.486,2.486,0,0,1-2.515-2.455v-3.552a24.671,24.671,0,0,1-11.741-4.452,3.161,3.161,0,1,1,3.484-5.264,20.356,20.356,0,0,0,8.464,3.835v-11.231c-8.346-2.173-12.231-5.314-12.231-11.743,0-6.114,4.892-10.352,12.006-10.919v-1.2a2.484,2.484,0,0,1,2.485-2.486Zm-2.29,19.492v-10.118c-3.659.343-5.489,2.289-5.489,4.8s1.085,3.884,5.489,5.313Zm4.51,7.944v10.411c3.659-.4,5.665-2.232,5.665-4.972,0-2.523-1.261-4.069-5.665-5.439Z" transform="translate(-254.824 -4006.515)" fill="#ebebeb"/>
        <path id="Trazado_99211" data-name="Trazado 99211" d="M488.37,4048.751a2.436,2.436,0,0,1,2.455,2.416v1.3a20.9,20.9,0,0,1,8.856,3.14,3.075,3.075,0,0,1,1.712,2.75,3.141,3.141,0,0,1-3.14,3.142h-.059a3.3,3.3,0,0,1-1.712-.52,21.125,21.125,0,0,0-5.871-2.515v10.979c8.689,2.172,12.406,5.656,12.406,11.741,0,6.292-4.892,10.46-12.171,11.145v3.464a2.436,2.436,0,0,1-2.417,2.455h-.039a2.484,2.484,0,0,1-2.513-2.455h0v-3.552a24.645,24.645,0,0,1-11.742-4.452,3.153,3.153,0,1,1,3.454-5.264,20.349,20.349,0,0,0,8.464,3.835V4075.1c-8.346-2.172-12.231-5.313-12.231-11.741,0-6.115,4.892-10.343,12.006-10.92v-1.232a2.485,2.485,0,0,1,2.513-2.457Zm-2.29,19.491v-10.118c-3.659.342-5.489,2.29-5.489,4.8S481.677,4066.813,486.081,4068.242Zm4.51,7.944v10.4c3.659-.4,5.666-2.23,5.666-4.97C496.257,4079.1,494.994,4077.556,490.591,4076.186Z" transform="translate(-288.728 -4044.779)" fill="#ebebeb"/>
      </g>
      <g id="freepik--Plant--inject-11" transform="translate(332.493 236.197)">
        <path id="Trazado_99212" data-name="Trazado 99212" d="M593.2,4264.8c15.655,15.322,18.277,39.031,14.98,59.793-.089.47-.822.342-.822-.107,0-4.727.146-9.4.127-14.081l-.235-.625c-4.091-2.936-7.828-6.321-10.166-10.92-2.622-5.147-3.65-10.939-5.646-16.311-.185-.508.362-.363.724-.1,9.519,7.024,12.553,14.579,15.283,24.676a83.982,83.982,0,0,0-1.654-15.724c-2.055-9.58-6.125-19.079-13.013-26.193C592.553,4264.943,592.955,4264.523,593.2,4264.8Z" transform="translate(-576.104 -4229.944)" fill="#344154"/>
        <path id="Trazado_99213" data-name="Trazado 99213" d="M593.188,4268.935c-2.69.088-4.383,4.393-6.477,5.645a2.024,2.024,0,0,1-2.844-.342c-.032-.041-.063-.083-.092-.126-2.074-2.937.773-6.479,3.454-8.483-1.957.792-3.5,2.172-5.578,2.572a1.956,1.956,0,0,1-2.455-1.276,2.014,2.014,0,0,1-.059-.239c-.91-3.915,4.051-5.714,7.456-5.793-1.653-1.155-6.379-4.266-3.865-5.8s8.092,2.935,9.9,4.384c2.662,2.162,5.871,5.391,5.959,8.806C598.726,4272.183,595.282,4269.757,593.188,4268.935Z" transform="translate(-579.027 -4232.292)" fill="#d9a171"/>
        <path id="Trazado_99214" data-name="Trazado 99214" d="M593.188,4268.935c-2.69.088-4.383,4.393-6.477,5.645a2.024,2.024,0,0,1-2.844-.342c-.032-.041-.063-.083-.092-.126-2.074-2.937.773-6.479,3.454-8.483-1.957.792-3.5,2.172-5.578,2.572a1.956,1.956,0,0,1-2.455-1.276,2.014,2.014,0,0,1-.059-.239c-.91-3.915,4.051-5.714,7.456-5.793-1.653-1.155-6.379-4.266-3.865-5.8s8.092,2.935,9.9,4.384c2.662,2.162,5.871,5.391,5.959,8.806C598.726,4272.183,595.282,4269.757,593.188,4268.935Z" transform="translate(-579.027 -4232.292)" fill="#d9a171" opacity="0.1" style="isolation: isolate"/>
        <path id="Trazado_99215" data-name="Trazado 99215" d="M593.259,4268.9c-3.443-1.565-10.059.695-10.626-.605-1.135-2.662,4.149-4.472,7.006-4.824-2.632-.714-7.661-1.85-7.514-4.384.2-3.092,7.719-.43,11.536,2.485,4.8,3.689,4.775,7.241,3.982,7.956C596.547,4270.493,593.826,4269.163,593.259,4268.9Z" transform="translate(-578.296 -4231.6)" fill="#d9a171"/>
        <path id="Trazado_99216" data-name="Trazado 99216" d="M625.138,4263.569c-16.223,14.676-19.745,38.305-17.24,59.176.069.47.8.371.822-.069.177-4.725.215-9.412.4-14.079.1-.207.176-.4.263-.617,4.2-2.808,8.083-6.017,10.578-10.528,2.808-5.039,4.06-10.763,6.262-16.076.205-.509-.352-.382-.724-.127-9.784,6.653-13.091,14.09-16.213,24.07a84.055,84.055,0,0,1,2.26-15.656c2.417-9.5,6.849-18.835,13.992-25.674A.291.291,0,0,0,625.138,4263.569Z" transform="translate(-572.378 -4230.233)" fill="#344154"/>
        <path id="Trazado_99217" data-name="Trazado 99217" d="M625.053,4267.729c2.681.2,4.207,4.559,6.252,5.871a2.026,2.026,0,0,0,2.86-.181,2.175,2.175,0,0,0,.135-.172c2.182-2.817-.528-6.506-3.13-8.611,1.888.862,3.425,2.31,5.469,2.779a1.957,1.957,0,0,0,2.511-1.163,1.859,1.859,0,0,0,.072-.247c1.057-3.913-3.835-5.87-7.231-6.084,1.694-1.077,6.536-4.022,4.081-5.646s-8.2,2.612-10.068,4.012c-2.74,2.054-6.037,5.156-6.282,8.531C619.418,4270.773,622.95,4268.474,625.053,4267.729Z" transform="translate(-569.416 -4232.496)" fill="#d9a171"/>
        <path id="Trazado_99218" data-name="Trazado 99218" d="M625.053,4267.729c2.681.2,4.207,4.559,6.252,5.871a2.026,2.026,0,0,0,2.86-.181,2.175,2.175,0,0,0,.135-.172c2.182-2.817-.528-6.506-3.13-8.611,1.888.862,3.425,2.31,5.469,2.779a1.957,1.957,0,0,0,2.511-1.163,1.859,1.859,0,0,0,.072-.247c1.057-3.913-3.835-5.87-7.231-6.084,1.694-1.077,6.536-4.022,4.081-5.646s-8.2,2.612-10.068,4.012c-2.74,2.054-6.037,5.156-6.282,8.531C619.418,4270.773,622.95,4268.474,625.053,4267.729Z" transform="translate(-569.416 -4232.496)" fill="#d9a171" opacity="0.1" style="isolation: isolate"/>
        <path id="Trazado_99219" data-name="Trazado 99219" d="M624.29,4267.678c3.494-1.439,10.019,1.065,10.626-.215,1.242-2.6-3.962-4.629-6.8-5.089,2.651-.607,7.719-1.545,7.661-4.09-.069-3.1-7.7-.725-11.615,2.055-4.94,3.493-5.048,7.045-4.275,7.827C620.935,4269.146,623.733,4267.952,624.29,4267.678Z" transform="translate(-569.456 -4231.808)" fill="#d9a171"/>
        <path id="Trazado_99220" data-name="Trazado 99220" d="M610.725,4305.516a158.626,158.626,0,0,1-5.039,23.268.579.579,0,0,1-1.135-.225h0c1.066-7.172,3.013-14.208,4.08-21.38a108.477,108.477,0,0,0,1.242-21.946c-.685-12.084-3.962-24.94-11.849-34.393-.177-.226.2-.538.372-.333,15.781,18.4,13.277,40.969,13.257,42.994,2.241-7.622,4.541-16.351,12.995-24.109.362-.343.645-.177.587.391-1.507,14.13-5.441,21.526-13.63,29.061C611.371,4301.082,611.078,4303.314,610.725,4305.516Z" transform="translate(-574.549 -4233.316)" fill="#344154"/>
        <path id="Trazado_99221" data-name="Trazado 99221" d="M600.5,4256.227c-2.837-1.262-6.751,2.357-9.559,2.6-1.487.137-2.593-.45-2.847-1.957-.695-4.06,4.06-6.339,7.827-7.064-2.387-.146-4.735.49-7.084-.146a2.23,2.23,0,0,1-1.916-2.507,2.346,2.346,0,0,1,.067-.321c1.047-4.569,7.075-3.914,10.656-2.27-1.135-2.015-4.472-7.642-1.1-7.964s6.927,7.1,8.072,9.539c1.673,3.582,3.347,8.531,1.772,12.094C604.586,4262.381,602.238,4258.135,600.5,4256.227Z" transform="translate(-577.168 -4236.589)" fill="#d9a171"/>
        <path id="Trazado_99222" data-name="Trazado 99222" d="M600.5,4256.227c-2.837-1.262-6.751,2.357-9.559,2.6-1.487.137-2.593-.45-2.847-1.957-.695-4.06,4.06-6.339,7.827-7.064-2.387-.146-4.735.49-7.084-.146a2.23,2.23,0,0,1-1.916-2.507,2.346,2.346,0,0,1,.067-.321c1.047-4.569,7.075-3.914,10.656-2.27-1.135-2.015-4.472-7.642-1.1-7.964s6.927,7.1,8.072,9.539c1.673,3.582,3.347,8.531,1.772,12.094C604.586,4262.381,602.238,4258.135,600.5,4256.227Z" transform="translate(-577.168 -4236.589)" fill="#d9a171" opacity="0.1" style="isolation: isolate"/>
        <path id="Trazado_99223" data-name="Trazado 99223" d="M600.331,4256.524c-2.789-3.355-10.763-4.354-10.7-5.988.146-3.327,6.545-2.554,9.686-1.477-2.367-2.065-7.026-5.773-5.587-8.327,1.751-3.112,8.229,3.435,10.714,8.395,3.132,6.233,1.31,9.9.127,10.244C602.943,4259.831,600.791,4257.072,600.331,4256.524Z" transform="translate(-576.523 -4235.8)" fill="#d9a171"/>
        <path id="Trazado_99224" data-name="Trazado 99224" d="M623.452,4298.444l6.967,53.188H588.052c.87-4.715,8.757-53.256,8.757-53.256Z" transform="translate(-576.895 -4221.989)" fill="#d9a171"/>
      </g>
      <g id="freepik--Desk--inject-11" transform="translate(0 365.283)">
        <path id="Trazado_99225" data-name="Trazado 99225" d="M310.085,4341.481l52.171-.234,52.171-.088L518.778,4341l104.341.156,52.181.088,52.171.234-52.171.245-52.181.088-104.341.157-104.351-.157-52.171-.088Z" transform="translate(-310.085 -4341.003)" fill="#344154"/>
      </g>
      <g id="freepik--Invoice--inject-11" transform="translate(256.578 0.01)">
        <rect id="Rectángulo_5081" data-name="Rectángulo 5081" width="153.988" height="197.108" fill="#ebebeb"/>
        <rect id="Rectángulo_5082" data-name="Rectángulo 5082" width="153.988" height="11.497" transform="translate(0 11.037)" fill="#344154"/>
        <path id="Trazado_99226" data-name="Trazado 99226" d="M517.622,4063.772h84.049l-7.055,12.357H517.622Z" transform="translate(-517.622 -4041.239)" fill="#344154"/>
        <path id="Trazado_99227" data-name="Trazado 99227" d="M517.622,4052.629h84.049l-3.464,4.55H517.622Z" transform="translate(-517.622 -4043.871)" fill="#d9a171"/>
        <path id="Trazado_99228" data-name="Trazado 99228" d="M517.622,4058.066h44.911l-3.464,4.559H517.622Z" transform="translate(-517.622 -4042.587)" fill="#d9a171"/>
        <rect id="Rectángulo_5083" data-name="Rectángulo 5083" width="125.809" height="9.677" transform="translate(14.09 80.526)" fill="#fff"/>
        <rect id="Rectángulo_5084" data-name="Rectángulo 5084" width="125.809" height="9.677" transform="translate(14.09 70.849)" fill="#d9a171"/>
        <rect id="Rectángulo_5085" data-name="Rectángulo 5085" width="125.809" height="9.677" transform="translate(14.09 90.193)" fill="#dbdbdb"/>
        <rect id="Rectángulo_5086" data-name="Rectángulo 5086" width="125.809" height="9.677" transform="translate(14.09 99.87)" fill="#fff"/>
        <rect id="Rectángulo_5087" data-name="Rectángulo 5087" width="125.809" height="9.677" transform="translate(14.09 109.547)" fill="#dbdbdb"/>
        <rect id="Rectángulo_5088" data-name="Rectángulo 5088" width="125.809" height="9.677" transform="translate(14.09 119.214)" fill="#fff"/>
        <rect id="Rectángulo_5089" data-name="Rectángulo 5089" width="125.809" height="9.677" transform="translate(14.09 128.891)" fill="#dbdbdb"/>
        <rect id="Rectángulo_5090" data-name="Rectángulo 5090" width="88.089" height="9.677" transform="translate(51.809 138.568)" fill="#d9a171"/>
        <rect id="Rectángulo_5091" data-name="Rectángulo 5091" width="37.719" height="67.718" transform="translate(14.09 70.849)" fill="#c7c7c7"/>
        <path id="Trazado_99229" data-name="Trazado 99229" d="M529.019,4118.522l62.9-.118,62.9.118-62.9.127Z" transform="translate(-514.929 -4028.329)" fill="#344154"/>
        <path id="Trazado_99230" data-name="Trazado 99230" d="M529.019,4126.349l62.9-.118,62.9.118-62.9.127Z" transform="translate(-514.929 -4026.479)" fill="#344154"/>
        <path id="Trazado_99231" data-name="Trazado 99231" d="M529.019,4134.178l62.9-.127,62.9.127-62.9.118Z" transform="translate(-514.929 -4024.631)" fill="#344154"/>
        <path id="Trazado_99232" data-name="Trazado 99232" d="M529.019,4142l62.9-.117,62.9.117-62.9.127Z" transform="translate(-514.929 -4022.782)" fill="#344154"/>
        <path id="Trazado_99233" data-name="Trazado 99233" d="M529.019,4149.823l62.9-.117,62.9.117-62.9.127Z" transform="translate(-514.929 -4020.932)" fill="#344154"/>
        <path id="Trazado_99234" data-name="Trazado 99234" d="M529.019,4157.652l62.9-.127,62.9.127-62.9.117Z" transform="translate(-514.929 -4019.084)" fill="#344154"/>
        <path id="Trazado_99235" data-name="Trazado 99235" d="M534.472,4106.8c4.012-.2,8.032-.215,12.044-.245s8.034,0,12.055.245c-4.022.205-8.034.215-12.055.243S538.484,4107.021,534.472,4106.8Z" transform="translate(-513.641 -4031.132)" fill="#344154"/>
        <path id="Trazado_99236" data-name="Trazado 99236" d="M534.472,4114.638c3.033-.206,6.076-.215,9.109-.244s6.076,0,9.119.244c-3.043.206-6.076.216-9.119.245S537.5,4114.844,534.472,4114.638Z" transform="translate(-513.641 -4029.279)" fill="#344154"/>
        <path id="Trazado_99237" data-name="Trazado 99237" d="M534.472,4122.466c4.012-.205,8.032-.215,12.044-.244s8.034,0,12.055.244c-4.022.205-8.034.215-12.055.245S538.484,4122.661,534.472,4122.466Z" transform="translate(-513.641 -4027.429)" fill="#344154"/>
        <path id="Trazado_99238" data-name="Trazado 99238" d="M534.472,4130.284c3.3-.194,6.6-.215,9.911-.244s6.614,0,9.921.244c-3.307.205-6.614.216-9.921.245S537.769,4130.489,534.472,4130.284Z" transform="translate(-513.641 -4025.582)" fill="#344154"/>
        <path id="Trazado_99239" data-name="Trazado 99239" d="M534.472,4138.112c4.012-.206,8.032-.216,12.044-.244s8.034,0,12.055.244c-4.022.206-8.034.215-12.055.244S538.484,4138.318,534.472,4138.112Z" transform="translate(-513.641 -4023.732)" fill="#344154"/>
        <path id="Trazado_99240" data-name="Trazado 99240" d="M534.472,4145.94c4.012-.205,8.032-.215,12.044-.245s8.034,0,12.055.245c-4.022.206-8.034.215-12.055.245S538.484,4146.135,534.472,4145.94Z" transform="translate(-513.641 -4021.883)" fill="#344154"/>
        <path id="Trazado_99241" data-name="Trazado 99241" d="M534.472,4153.757c2.436-.185,4.892-.235,7.309-.244s4.892.059,7.319.244c-2.437.2-4.892.235-7.319.245S536.908,4153.953,534.472,4153.757Z" transform="translate(-513.641 -4020.033)" fill="#344154"/>
        <path id="Trazado_99242" data-name="Trazado 99242" d="M566.659,4106.8c3.014-.2,6.037-.215,9.051-.245s6.047,0,9.061.245c-3.014.205-6.037.215-9.061.243S569.693,4107.021,566.659,4106.8Z" transform="translate(-506.035 -4031.132)" fill="#344154"/>
        <path id="Trazado_99243" data-name="Trazado 99243" d="M566.659,4114.638c3.014-.206,6.037-.215,9.051-.244s6.047,0,9.061.244c-3.014.206-6.037.216-9.061.245S569.693,4114.844,566.659,4114.638Z" transform="translate(-506.035 -4029.279)" fill="#344154"/>
        <path id="Trazado_99244" data-name="Trazado 99244" d="M566.659,4122.466c3.014-.205,6.037-.215,9.051-.244s6.047,0,9.061.244c-3.014.205-6.037.215-9.061.245S569.693,4122.661,566.659,4122.466Z" transform="translate(-506.035 -4027.429)" fill="#344154"/>
        <path id="Trazado_99245" data-name="Trazado 99245" d="M566.659,4130.284c3.014-.194,6.037-.215,9.051-.244s6.047,0,9.061.244c-3.014.205-6.037.216-9.061.245S569.693,4130.489,566.659,4130.284Z" transform="translate(-506.035 -4025.582)" fill="#344154"/>
        <path id="Trazado_99246" data-name="Trazado 99246" d="M566.659,4138.112c3.014-.206,6.037-.216,9.051-.244s6.047,0,9.061.244c-3.014.206-6.037.215-9.061.244S569.693,4138.318,566.659,4138.112Z" transform="translate(-506.035 -4023.732)" fill="#344154"/>
        <path id="Trazado_99247" data-name="Trazado 99247" d="M566.659,4145.94c3.014-.205,6.037-.215,9.051-.245s6.047,0,9.061.245c-3.014.206-6.037.215-9.061.245S569.693,4146.135,566.659,4145.94Z" transform="translate(-506.035 -4021.883)" fill="#344154"/>
        <path id="Trazado_99248" data-name="Trazado 99248" d="M566.659,4153.758c3.014-.2,6.037-.215,9.051-.244s6.047,0,9.061.244c-3.014.206-6.037.215-9.061.245S569.693,4153.964,566.659,4153.758Z" transform="translate(-506.035 -4020.034)" fill="#344154"/>
        <path id="Trazado_99249" data-name="Trazado 99249" d="M587.83,4106.8c3.024-.2,6.037-.215,9.061-.245s6.037,0,9.051.245c-3.014.205-6.038.215-9.051.243S590.854,4107.021,587.83,4106.8Z" transform="translate(-501.032 -4031.132)" fill="#344154"/>
        <path id="Trazado_99250" data-name="Trazado 99250" d="M592.856,4153.757a17.181,17.181,0,0,1,5.782,0A17.181,17.181,0,0,1,592.856,4153.757Z" transform="translate(-499.845 -4020.033)" fill="#344154"/>
        <path id="Trazado_99251" data-name="Trazado 99251" d="M592.856,4145.938a17.206,17.206,0,0,1,5.782,0A17.206,17.206,0,0,1,592.856,4145.938Z" transform="translate(-499.845 -4021.881)" fill="#344154"/>
        <path id="Trazado_99252" data-name="Trazado 99252" d="M592.856,4138.111a15.932,15.932,0,0,1,2.935-.244,15.018,15.018,0,0,1,2.887.244,17.239,17.239,0,0,1-5.783,0Z" transform="translate(-499.845 -4023.73)" fill="#344154"/>
        <path id="Trazado_99253" data-name="Trazado 99253" d="M592.856,4130.283a17.232,17.232,0,0,1,5.782,0A17.232,17.232,0,0,1,592.856,4130.283Z" transform="translate(-499.845 -4025.58)" fill="#344154"/>
        <path id="Trazado_99254" data-name="Trazado 99254" d="M592.856,4122.464a17.181,17.181,0,0,1,5.782,0A17.181,17.181,0,0,1,592.856,4122.464Z" transform="translate(-499.845 -4027.427)" fill="#344154"/>
        <path id="Trazado_99255" data-name="Trazado 99255" d="M592.856,4114.637a15.975,15.975,0,0,1,2.935-.244,15.057,15.057,0,0,1,2.887.244,15.256,15.256,0,0,1-2.887.245A16.192,16.192,0,0,1,592.856,4114.637Z" transform="translate(-499.845 -4029.277)" fill="#344154"/>
        <path id="Trazado_99256" data-name="Trazado 99256" d="M594.209,4161.584a49.292,49.292,0,0,1,5.107-.244,46.905,46.905,0,0,1,5.118.244A53.55,53.55,0,0,1,594.209,4161.584Z" transform="translate(-499.525 -4018.184)" fill="#344154"/>
        <path id="Trazado_99257" data-name="Trazado 99257" d="M609,4106.8c3.023-.2,6.037-.215,9.061-.245s6.037,0,9.05.245c-3.013.205-6.037.215-9.05.243S612.024,4107.021,609,4106.8Z" transform="translate(-496.03 -4031.132)" fill="#344154"/>
        <path id="Trazado_99258" data-name="Trazado 99258" d="M609,4114.638c3.023-.206,6.037-.215,9.061-.244s6.037,0,9.05.244c-3.013.206-6.037.216-9.05.245S612.024,4114.844,609,4114.638Z" transform="translate(-496.03 -4029.279)" fill="#344154"/>
        <path id="Trazado_99259" data-name="Trazado 99259" d="M609,4122.466c3.023-.205,6.037-.215,9.061-.244s6.037,0,9.05.244c-3.013.205-6.037.215-9.05.245S612.024,4122.661,609,4122.466Z" transform="translate(-496.03 -4027.429)" fill="#344154"/>
        <path id="Trazado_99260" data-name="Trazado 99260" d="M609,4130.284c3.023-.194,6.037-.215,9.061-.244s6.037,0,9.05.244c-3.013.205-6.037.216-9.05.245S612.024,4130.489,609,4130.284Z" transform="translate(-496.03 -4025.582)" fill="#344154"/>
        <path id="Trazado_99261" data-name="Trazado 99261" d="M609,4138.112c3.023-.206,6.037-.216,9.061-.244s6.037,0,9.05.244c-3.013.206-6.037.215-9.05.244S612.024,4138.318,609,4138.112Z" transform="translate(-496.03 -4023.732)" fill="#344154"/>
        <path id="Trazado_99262" data-name="Trazado 99262" d="M609,4145.94c3.023-.205,6.037-.215,9.061-.245s6.037,0,9.05.245c-3.013.206-6.037.215-9.05.245S612.024,4146.135,609,4145.94Z" transform="translate(-496.03 -4021.883)" fill="#344154"/>
        <path id="Trazado_99263" data-name="Trazado 99263" d="M609,4153.758c3.023-.2,6.037-.215,9.061-.244s6.037,0,9.05.244c-3.013.206-6.037.215-9.05.245S612.024,4153.964,609,4153.758Z" transform="translate(-496.03 -4020.034)" fill="#344154"/>
        <path id="Trazado_99264" data-name="Trazado 99264" d="M609,4161.586c3.023-.205,6.037-.216,9.061-.244s6.037,0,9.05.244c-3.013.206-6.037.216-9.05.244S612.024,4161.792,609,4161.586Z" transform="translate(-496.03 -4018.185)" fill="#344154"/>
        <path id="Trazado_99265" data-name="Trazado 99265" d="M529.019,4069.646c3.727-.2,7.465-.293,11.2-.371s7.465-.079,11.193-.117,7.465,0,11.2.117l5.6.136c1.868.08,3.737.127,5.607.235-1.869.117-3.739.157-5.607.245l-5.6.137c-3.739.078-7.466.068-11.2.107s-7.466,0-11.193-.107S532.746,4069.86,529.019,4069.646Z" transform="translate(-514.929 -4039.969)" fill="#fff"/>
        <path id="Trazado_99266" data-name="Trazado 99266" d="M529.019,4065.8c4.237-.2,8.474-.3,12.719-.381s8.474-.068,12.72-.108,8.474,0,12.72.108l6.359.137c2.123.078,4.247.127,6.359.245-2.113.108-4.237.158-6.359.235l-6.359.137c-4.237.078-8.474.078-12.72.107s-8.483,0-12.72-.107S533.256,4065.995,529.019,4065.8Z" transform="translate(-514.929 -4040.878)" fill="#fff"/>
        <path id="Trazado_99267" data-name="Trazado 99267" d="M529.019,4089.125c3.473-.156,6.937-.225,10.411-.283s6.947,0,10.419-.079,6.938,0,10.411.079,6.938.127,10.411.283c-3.473.157-6.937.225-10.411.284s-6.947,0-10.411.078-6.947,0-10.419-.078S532.492,4089.272,529.019,4089.125Z" transform="translate(-514.929 -4035.34)" fill="#344154"/>
        <path id="Trazado_99268" data-name="Trazado 99268" d="M529.019,4092.458c2.172-.147,4.354-.226,6.526-.283s4.354,0,6.535-.079,4.354,0,6.526.079,4.354.136,6.536.283c-2.182.157-4.354.225-6.536.284s-4.354.058-6.526.088-4.353,0-6.535-.088S531.191,4092.6,529.019,4092.458Z" transform="translate(-514.929 -4034.553)" fill="#344154"/>
        <path id="Trazado_99269" data-name="Trazado 99269" d="M529.019,4095.786c3.033-.147,6.057-.215,9.089-.274s6.057-.058,9.091-.088,6.067,0,9.089.088,6.066.127,9.089.274c-3.023.157-6.055.225-9.089.284s-6.057.058-9.089.088-6.057,0-9.091-.088S532.052,4095.943,529.019,4095.786Z" transform="translate(-514.929 -4033.762)" fill="#344154"/>
        <path id="Trazado_99270" data-name="Trazado 99270" d="M529.019,4171.568c2.23-.157,4.452-.225,6.682-.285s4.462-.058,6.683-.088,4.462,0,6.692.088,4.452.127,6.683.285c-2.232.146-4.462.225-6.683.283s-4.462.049-6.692.078-4.452,0-6.683-.088S531.249,4171.753,529.019,4171.568Z" transform="translate(-514.929 -4015.857)" fill="#344154"/>
        <path id="Trazado_99271" data-name="Trazado 99271" d="M529.019,4174.888c2.573-.157,5.157-.225,7.729-.284s5.147,0,7.729-.088,5.147,0,7.731.088,5.147.127,7.729.284c-2.583.156-5.157.226-7.729.283s-5.157.05-7.731.079-5.155,0-7.729-.079S531.621,4175.054,529.019,4174.888Z" transform="translate(-514.929 -4015.078)" fill="#344154"/>
        <path id="Trazado_99272" data-name="Trazado 99272" d="M529.019,4188.184c4.05-.147,8.1-.215,12.152-.274l12.143-.088,12.153.077c4.05.061,8.1.138,12.152.285-4.05.156-8.1.225-12.152.282l-12.153.089-12.143-.089C537.121,4188.369,533.069,4188.369,529.019,4188.184Z" transform="translate(-514.929 -4011.926)" fill="#344154"/>
        <path id="Trazado_99273" data-name="Trazado 99273" d="M529.019,4178.227c1.575-.146,3.14-.225,4.716-.283s3.14-.068,4.715-.078,3.141,0,4.716.078,3.14.137,4.716.283c-1.576.157-3.151.225-4.716.285s-3.15.078-4.716.087-3.15,0-4.715-.087S530.644,4178.384,529.019,4178.227Z" transform="translate(-514.929 -4014.279)" fill="#344154"/>
        <path id="Trazado_99274" data-name="Trazado 99274" d="M592.856,4181.521c3.913-.157,7.827-.225,11.741-.284l11.741-.088,11.741.088c3.914.059,7.828.127,11.741.284-3.913.146-7.827.225-11.741.283l-11.741.079L604.6,4181.8C600.683,4181.746,596.769,4181.668,592.856,4181.521Z" transform="translate(-499.845 -4013.502)" fill="#344154"/>
        <path id="Trazado_99275" data-name="Trazado 99275" d="M592.856,4178.229c3.18-.146,6.35-.225,9.529-.283s6.351-.049,9.531-.078,6.359,0,9.529.078,6.361.137,9.531.283c-3.17.157-6.351.225-9.531.285s-6.35.058-9.529.087-6.351,0-9.531-.087S595.986,4178.386,592.856,4178.229Z" transform="translate(-499.845 -4014.28)" fill="#344154"/>
        <path id="Trazado_99276" data-name="Trazado 99276" d="M592.856,4184.854c2.984-.146,5.968-.225,8.962-.284s5.969-.048,8.953-.078,5.978,0,8.962.078,5.969.127,8.953.284c-2.984.156-5.969.225-8.953.283s-5.977.06-8.962.088-5.969,0-8.953-.088S595.791,4185.01,592.856,4184.854Z" transform="translate(-499.845 -4012.716)" fill="#344154"/>
        <path id="Trazado_99277" data-name="Trazado 99277" d="M592.856,4188.186c2.143-.147,4.285-.215,6.418-.274s4.286-.058,6.429-.088,4.276,0,6.419.078,4.276.138,6.419.285c-2.142.156-4.276.225-6.419.283s-4.285.06-6.419.088-4.285,0-6.429-.088S594.949,4188.371,592.856,4188.186Z" transform="translate(-499.845 -4011.928)" fill="#344154"/>
        <path id="Trazado_99278" data-name="Trazado 99278" d="M530.058,4186.75c1.163-.8,2.367-1.564,3.6-2.27a17.224,17.224,0,0,1,3.914-1.752,3.59,3.59,0,0,1,.538-.1.567.567,0,0,1,.6.2,2.058,2.058,0,0,1,.245,1.1,13.1,13.1,0,0,1-.225,2.143c-.245,1.4-.6,2.779-.979,4.149a63.728,63.728,0,0,1-2.818,8.034,13.791,13.791,0,0,1-.979,1.956,3.639,3.639,0,0,1-.381.441.584.584,0,0,1-.372.166.355.355,0,0,1-.255-.1l-.127-.127a2.087,2.087,0,0,1-.3-1.135,14.329,14.329,0,0,1,.744-4.237,24.251,24.251,0,0,1,1.6-3.962,11.754,11.754,0,0,1,2.495-3.474,3.91,3.91,0,0,1,1.957-.978,2.244,2.244,0,0,1,1.105.1,1.7,1.7,0,0,1,.783.792,4.648,4.648,0,0,0,.587.852.891.891,0,0,0,.861.293,5.616,5.616,0,0,0,1.781-1.047c.283-.215.567-.43.86-.636a2.719,2.719,0,0,1,.46-.284c.157-.068.382-.2.587,0,.284.342.205.715.352,1.027a.626.626,0,0,0,.724.47,6.361,6.361,0,0,0,1.555-1.36c.48-.518.978-1.057,1.409-1.585.928-1.077,1.838-2.162,2.788-3.219.47-.528.979-1.047,1.467-1.545.265-.245.529-.48.822-.705a2.381,2.381,0,0,1,.48-.284.766.766,0,0,1,.313-.067.425.425,0,0,1,.323.175,1.954,1.954,0,0,1,.147,1.125,10.028,10.028,0,0,1-.166,1.067c-.157.7-.352,1.39-.569,2.064a21.119,21.119,0,0,1-1.7,3.915,4.038,4.038,0,0,1-.665.89.77.77,0,0,1-.626.245,1.889,1.889,0,0,1-.567-.157,2.649,2.649,0,0,1-1.477-1.742.977.977,0,0,1,.078-.666.705.705,0,0,1,.274-.263.672.672,0,0,1,.371-.079,4.128,4.128,0,0,1,1.1.255c.685.245,1.33.527,1.957.812s1.291.578,1.956.833a8.549,8.549,0,0,0,.979.352,3.467,3.467,0,0,0,.48.108.688.688,0,0,0,.381-.089c.539-.263.891-.92,1.429-1.448a1.69,1.69,0,0,1,1.076-.558.579.579,0,0,1,.441.147.566.566,0,0,1,.146.431,2.87,2.87,0,0,1-.107.577c-.1.323-.137.724-.048.733s.518,0,.812,0a5.426,5.426,0,0,0,1.79-.978,10.437,10.437,0,0,1,.9-.607,1.8,1.8,0,0,1,1.184-.283,4.426,4.426,0,0,1,1.82,1.32,4.512,4.512,0,0,0,.753.657c.127.078.245.107.274.078a3.377,3.377,0,0,0,.4-.255,18.641,18.641,0,0,0,1.6-1.34,19.11,19.11,0,0,0,2.74-3.161,3.555,3.555,0,0,0,.685-1.829c0-.637-.655-.979-1.33-1.037a11.67,11.67,0,0,0-4.159.058,10.158,10.158,0,0,0-2.005.578,4.068,4.068,0,0,0-.89.479c-.265.2-.5.47-.422.723a1.32,1.32,0,0,0,.675.617,10.157,10.157,0,0,0,.979.392,20.2,20.2,0,0,0,2.025.587,46.547,46.547,0,0,0,8.424.811h0a44.794,44.794,0,0,1-8.482-.626,18.805,18.805,0,0,1-2.055-.567,8.849,8.849,0,0,1-.979-.392,1.535,1.535,0,0,1-.842-.793,1.048,1.048,0,0,1,.519-1.046,4.438,4.438,0,0,1,.978-.538,10.214,10.214,0,0,1,2.065-.616,11.921,11.921,0,0,1,4.3-.118,3.16,3.16,0,0,1,1.086.361,1.333,1.333,0,0,1,.617,1.047,4.015,4.015,0,0,1-.734,2.114,17.147,17.147,0,0,1-2.8,3.258,17.8,17.8,0,0,1-1.644,1.4,3.409,3.409,0,0,1-.5.3.828.828,0,0,1-.733-.107,5.733,5.733,0,0,1-.852-.724,4.172,4.172,0,0,0-1.555-1.185c-.518-.078-1.125.411-1.683.813a5.9,5.9,0,0,1-1.957.978,1.582,1.582,0,0,1-1.262-.048.793.793,0,0,1-.245-.714,3.168,3.168,0,0,1,.117-.557,2.547,2.547,0,0,0,.088-.46v-.069c0,.02,0,0-.068,0a1.259,1.259,0,0,0-.754.4c-.478.45-.811,1.135-1.555,1.535a1.188,1.188,0,0,1-.645.127,2.922,2.922,0,0,1-.558-.127,10.433,10.433,0,0,1-1.027-.371c-.656-.274-1.3-.567-1.957-.852s-1.292-.567-1.957-.812a3.727,3.727,0,0,0-.979-.235c-.225,0-.351.187-.293.49a2.246,2.246,0,0,0,1.174,1.447,1.435,1.435,0,0,0,.45.127.344.344,0,0,0,.313-.146,3.929,3.929,0,0,0,.617-.793,20.692,20.692,0,0,0,1.7-3.835,18.622,18.622,0,0,0,.587-2.025,7.736,7.736,0,0,0,.176-.979,1.664,1.664,0,0,0-.078-.978c-.1-.185-.5,0-.754.236a7.26,7.26,0,0,0-.792.675c-.508.479-.978.978-1.477,1.517-.978,1.046-1.868,2.122-2.808,3.189-.47.528-.979,1.055-1.429,1.575a6.518,6.518,0,0,1-1.643,1.39.8.8,0,0,1-.91-.558c-.137-.333-.127-.754-.314-.979s-.253,0-.4.059a4.136,4.136,0,0,0-.44.273c-.284.207-.558.432-.842.646a5.776,5.776,0,0,1-1.849,1.105,1.1,1.1,0,0,1-1.066-.342,5.367,5.367,0,0,1-.627-.881c-.2-.284-.381-.6-.665-.695a2.107,2.107,0,0,0-.978-.069,3.771,3.771,0,0,0-1.811.891,11.829,11.829,0,0,0-2.4,3.415,24.966,24.966,0,0,0-1.536,3.913,14.235,14.235,0,0,0-.685,4.109,1.84,1.84,0,0,0,.225.892l.058.058h0a.259.259,0,0,0,.1-.068,2.035,2.035,0,0,0,.3-.362,14.15,14.15,0,0,0,.978-1.84,61.154,61.154,0,0,0,2.887-7.954,39.371,39.371,0,0,0,.978-4.109,11.5,11.5,0,0,0,.235-2.075,1.724,1.724,0,0,0-.185-.979c-.088-.107-.167-.136-.352-.1a3.09,3.09,0,0,0-.508.088,18.211,18.211,0,0,0-3.914,1.654c-1.242.666-2.457,1.39-3.64,2.163Z" transform="translate(-514.686 -4013.869)" fill="#344154"/>
        <g id="Grupo_53422" data-name="Grupo 53422" transform="translate(87.316 25.411)">
          <path id="Trazado_99279" data-name="Trazado 99279" d="M595.923,4073.868h-5.839v6.145h-1.835V4066.1h8.62v1.5h-6.785v4.769h5.839Z" transform="translate(-588.249 -4066.099)" fill="#344154"/>
          <path id="Trazado_99280" data-name="Trazado 99280" d="M602.951,4079.366a3.756,3.756,0,0,1-.249-1.089,3.942,3.942,0,0,1-2.942,1.28,3.65,3.65,0,0,1-2.508-.864,2.8,2.8,0,0,1-.979-2.193,2.924,2.924,0,0,1,1.228-2.508,5.783,5.783,0,0,1,3.454-.893h1.72v-.812a1.987,1.987,0,0,0-.554-1.477,2.229,2.229,0,0,0-1.634-.549,2.581,2.581,0,0,0-1.586.477,1.411,1.411,0,0,0-.64,1.157h-1.777a2.442,2.442,0,0,1,.549-1.5,3.739,3.739,0,0,1,1.491-1.141,5,5,0,0,1,2.068-.421,4.085,4.085,0,0,1,2.8.894,3.224,3.224,0,0,1,1.051,2.46v4.758a5.812,5.812,0,0,0,.363,2.265v.153Zm-2.933-1.348a3.108,3.108,0,0,0,1.576-.43,2.594,2.594,0,0,0,1.079-1.118v-2.122h-1.386q-3.247,0-3.248,1.9a1.608,1.608,0,0,0,.554,1.3A2.137,2.137,0,0,0,600.018,4078.018Z" transform="translate(-586.353 -4065.453)" fill="#344154"/>
          <path id="Trazado_99281" data-name="Trazado 99281" d="M609.357,4078.114a2.542,2.542,0,0,0,1.653-.574,2.02,2.02,0,0,0,.784-1.433h1.671a3.209,3.209,0,0,1-.612,1.691,4.027,4.027,0,0,1-1.5,1.281,4.342,4.342,0,0,1-1.992.477,4.258,4.258,0,0,1-3.359-1.41,5.613,5.613,0,0,1-1.247-3.854v-.3a6.223,6.223,0,0,1,.555-2.685,4.211,4.211,0,0,1,1.59-1.825,4.522,4.522,0,0,1,2.452-.65,4.144,4.144,0,0,1,2.89,1.042,3.721,3.721,0,0,1,1.228,2.7h-1.671a2.444,2.444,0,0,0-.76-1.648,2.363,2.363,0,0,0-1.686-.645,2.474,2.474,0,0,0-2.088.97,4.558,4.558,0,0,0-.741,2.8v.335a4.464,4.464,0,0,0,.736,2.752A2.488,2.488,0,0,0,609.357,4078.114Z" transform="translate(-584.35 -4065.453)" fill="#344154"/>
          <path id="Trazado_99282" data-name="Trazado 99282" d="M616.045,4066.965v2.5h1.93v1.366h-1.93v6.42a1.431,1.431,0,0,0,.257.932,1.083,1.083,0,0,0,.879.312,4.254,4.254,0,0,0,.841-.115v1.424a5.119,5.119,0,0,1-1.356.19,2.2,2.2,0,0,1-1.786-.716,3.08,3.08,0,0,1-.6-2.036v-6.412h-1.883v-1.366h1.883v-2.5Z" transform="translate(-582.544 -4065.895)" fill="#344154"/>
          <path id="Trazado_99283" data-name="Trazado 99283" d="M624.967,4078.307a3.755,3.755,0,0,1-3.029,1.213,3.216,3.216,0,0,1-2.518-.961,4.154,4.154,0,0,1-.874-2.842v-6.727h1.768v6.679q0,2.351,1.911,2.351a2.645,2.645,0,0,0,2.694-1.509v-7.521h1.768v10.339h-1.681Z" transform="translate(-581.09 -4065.416)" fill="#344154"/>
          <path id="Trazado_99284" data-name="Trazado 99284" d="M632.3,4070.613a5.31,5.31,0,0,0-.869-.067,2.329,2.329,0,0,0-2.36,1.481v7.339H627.3v-10.339h1.72l.028,1.194a2.754,2.754,0,0,1,2.465-1.386,1.785,1.785,0,0,1,.784.135Z" transform="translate(-579.021 -4065.453)" fill="#344154"/>
          <path id="Trazado_99285" data-name="Trazado 99285" d="M638.79,4079.366a3.674,3.674,0,0,1-.248-1.089,3.945,3.945,0,0,1-2.944,1.28,3.649,3.649,0,0,1-2.507-.864,2.8,2.8,0,0,1-.98-2.193,2.922,2.922,0,0,1,1.229-2.508,5.784,5.784,0,0,1,3.454-.893h1.72v-.812a1.988,1.988,0,0,0-.555-1.477,2.224,2.224,0,0,0-1.633-.549,2.581,2.581,0,0,0-1.586.477,1.41,1.41,0,0,0-.64,1.157H632.32a2.435,2.435,0,0,1,.55-1.5,3.739,3.739,0,0,1,1.491-1.141,5,5,0,0,1,2.068-.421,4.083,4.083,0,0,1,2.8.894,3.224,3.224,0,0,1,1.052,2.46v4.758a5.813,5.813,0,0,0,.362,2.265v.153Zm-2.934-1.348a3.107,3.107,0,0,0,1.576-.43,2.6,2.6,0,0,0,1.081-1.118v-2.122h-1.386q-3.249,0-3.249,1.9a1.612,1.612,0,0,0,.554,1.3A2.137,2.137,0,0,0,635.856,4078.018Z" transform="translate(-577.885 -4065.453)" fill="#344154"/>
        </g>
      </g>
      <g id="freepik--Character--inject-11" transform="translate(10.574 121.286)">
        <path id="Trazado_99286" data-name="Trazado 99286" d="M390.717,4311.493a98.83,98.83,0,0,0,17.69,11.791c-8.718-15.91-4.051-49.823-3.259-44.862,3.767,23.708,17.955,50.518,24.129,52.3a.332.332,0,0,1,.108,0c16.7,3.356,32.406.626,45.8-4.609a.14.14,0,0,0,0-.078c-11.467-18.141-7.749-52.7-7.064-50.517,7.456,23.413,26.017,38.256,29.471,38.511h0c13.7-9.647,21.389-19.775,19.677-21.007-12.437-9.012-21.761-30.332-29.893-52.7h0c-8.042-22.064-11.056-54.2-23.365-74.312-11.271-18.425-36.662-23.875-52.033-16.232C371.657,4169.775,383.113,4305.173,390.717,4311.493Z" transform="translate(-303.387 -4142.982)" fill="#344154"/>
        <path id="Trazado_99287" data-name="Trazado 99287" d="M415.647,4148.17a25.76,25.76,0,0,0-9.031,5.421,54.684,54.684,0,0,0-6.957,7.524,87.536,87.536,0,0,0-9.785,17.416c-5.332,12.143-8.237,36.584-9.725,49.52a202.509,202.509,0,0,0,0,39.04c.253,3.248.733,6.477,1.1,9.716l1.428,9.687,1.859,9.626,2.162,9.571-1.516-9.648-1.282-9.676-1.087-9.677c-.245-3.239-.606-6.458-.753-9.7a220.348,220.348,0,0,1,.538-38.708c1.252-12.838,4.2-37.064,9.011-49.178a88.164,88.164,0,0,1,9.061-17.436,53.454,53.454,0,0,1,6.447-7.7,34.858,34.858,0,0,1,3.914-3.277A18.372,18.372,0,0,1,415.647,4148.17Z" transform="translate(-304.326 -4142.571)" fill="#344154"/>
        <path id="Trazado_99288" data-name="Trazado 99288" d="M505.388,4287.829a168.446,168.446,0,0,1-9.97-14.481c-3.122-4.892-6.037-9.941-8.669-15.068a168.469,168.469,0,0,1-7.183-15.655c-2.083-5.342-3.982-10.714-5.987-16.076-4.129-10.7-8.072-32.925-12.906-43.424-2.447-5.244-5-10.45-7.945-15.5a78.439,78.439,0,0,0-4.893-7.349,22.2,22.2,0,0,0-6.555-6.2,23.106,23.106,0,0,1,6.007,6.506,78.1,78.1,0,0,1,4.374,7.5c2.7,5.107,5.039,10.352,7.26,15.656,4.452,10.566,8.4,32.758,12.348,43.492,2.075,5.352,4.022,10.7,6.214,16.056a138.293,138.293,0,0,0,7.582,15.655A163.046,163.046,0,0,0,505.388,4287.829Z" transform="translate(-289.658 -4141.176)" fill="#344154"/>
        <path id="Trazado_99289" data-name="Trazado 99289" d="M416.4,4262.642c10.528,23.649,51.721,99.8,77.141,104.381,16.633,2.994,83.314-5.871,94.263-22.123,4.775-7.074-5.44-54.792-14.285-52.611s-62.219,11.242-68.872,9.569-58.052-56.75-76.994-70.175C394.956,4208.5,410.739,4249.913,416.4,4262.642Z" transform="translate(-297.618 -4124.473)" fill="#ffbf9d"/>
        <path id="Trazado_99290" data-name="Trazado 99290" d="M554.287,4290.351l4.012,72.17s-52.65,11.576-75.634,3.641c-27.9-9.638-68.726-96.055-74.362-110.262-9.177-23.317-6.634-37.425,6.369-33.981,5.049,1.3,11.742,5.283,19.844,12.456,8.522,7.475,57.473,55.976,72.923,65.134C516.117,4304.637,554.287,4290.351,554.287,4290.351Z" transform="translate(-298.743 -4125.266)" fill="#d9a171"/>
        <path id="Trazado_99291" data-name="Trazado 99291" d="M525.905,4347.321a15.965,15.965,0,0,0-3.972,2.094,15.881,15.881,0,0,0,4.373-.979,15.643,15.643,0,0,0,3.973-2.083A15.492,15.492,0,0,0,525.905,4347.321Zm-39.667-56.69a15.539,15.539,0,0,0-3.962,2.083,17.177,17.177,0,0,0,8.336-3.092A15.619,15.619,0,0,0,486.239,4290.63Zm-40.018-34.247a15.975,15.975,0,0,0-3.972,2.094,17.25,17.25,0,0,0,8.345-3.092,15.824,15.824,0,0,0-4.373.989Zm29.089,77.591a15.721,15.721,0,0,0-3.972,2.084,17.19,17.19,0,0,0,8.336-3.092,15.424,15.424,0,0,0-4.364,1Zm46.554-27.816a15.78,15.78,0,0,0-3.972,2.093,15.9,15.9,0,0,0,4.374-.978,15.69,15.69,0,0,0,3.972-2.084,15.488,15.488,0,0,0-4.374.959Zm-69.909-12.623a15.88,15.88,0,0,0-3.914,2.094,15.9,15.9,0,0,0,4.373-.979,15.589,15.589,0,0,0,3.914-2.093,15.935,15.935,0,0,0-4.373.968Zm104.694,39.852c-.167-.665-.382-1.32-.607-1.957a15.933,15.933,0,0,0-2.094-3.972,15.6,15.6,0,0,0,.979,4.375,16.4,16.4,0,0,0,1.8,3.58Zm-55.312,4.022a15.882,15.882,0,0,0-2.084-3.972,15.911,15.911,0,0,0,.979,4.373,15.64,15.64,0,0,0,2.093,3.973,15.483,15.483,0,0,0-.948-4.384Zm-34.96-61.809a15.889,15.889,0,0,0-2.093-3.962,15.9,15.9,0,0,0,.978,4.374,15.54,15.54,0,0,0,2.094,3.962A15.586,15.586,0,0,0,466.376,4275.6Zm-38.54-37.943a15.758,15.758,0,0,0-2.084-3.973,17.182,17.182,0,0,0,3.092,8.336,15.387,15.387,0,0,0-1.057-4.363Zm54.538,117.952a15.485,15.485,0,0,0-4.257-1.371,17.384,17.384,0,0,0,8.083,3.708A15.819,15.819,0,0,0,482.374,4355.609Zm48.013-29.7a15.643,15.643,0,0,0-4.286-1.322,17.489,17.489,0,0,0,8.092,3.709,16.225,16.225,0,0,0-3.805-2.427Zm-15.812,39.636a15.476,15.476,0,0,0-4.285-1.331,12.836,12.836,0,0,0,2.368,1.645l2.309-.127ZM475.75,4309.24a15.511,15.511,0,0,0-4.285-1.331,17.394,17.394,0,0,0,8.082,3.709,15.61,15.61,0,0,0-3.8-2.417Zm-58.707-50.948a15.51,15.51,0,0,0-4.285-1.331,15.7,15.7,0,0,0,3.8,2.378,15.86,15.86,0,0,0,4.285,1.331,15.822,15.822,0,0,0-3.777-2.417Zm36.4,62.855a15.278,15.278,0,0,0-1.322,4.286,15.863,15.863,0,0,0,2.377-3.807,16.185,16.185,0,0,0,1.331-4.285,15.914,15.914,0,0,0-2.369,3.767ZM433.873,4280.8a15.268,15.268,0,0,0-1.322,4.285,15.854,15.854,0,0,0,2.379-3.8,16.187,16.187,0,0,0,1.33-4.287,16.221,16.221,0,0,0-2.358,3.767Zm62.279,32.406a15.833,15.833,0,0,0-1.3,4.247,15.4,15.4,0,0,0,2.387-3.8,16.183,16.183,0,0,0,1.33-4.287,15.6,15.6,0,0,0-2.387,3.8Zm-92.669-75.712c.1.538.205,1.076.333,1.634a14.234,14.234,0,0,0,.979-3.425,11.949,11.949,0,0,0-1.282,1.751Z" transform="translate(-298.59 -4122.364)" fill="#fff"/>
        <path id="Trazado_99292" data-name="Trazado 99292" d="M518.485,4346.989c-.92-10.646-3.062-54.353-2.887-63.834,0-.655.43-.8.509-.117,3.5,31.838,2.426,53.413,2.788,63.9C518.905,4347.174,518.5,4347.233,518.485,4346.989Z" transform="translate(-272.099 -4110.809)" fill="#344154"/>
        <path id="Trazado_99293" data-name="Trazado 99293" d="M408.333,4255.9c5.577,14.208,46.427,100.634,74.362,110.262,6.849,2.378,16.438,3,26.417,2.74L412.98,4221.533c-2.769-.421-4.99.049-6.6,1.34C401.19,4226.974,401.689,4239.047,408.333,4255.9Z" transform="translate(-298.734 -4125.271)" fill="#d9a171" opacity="0.1" style="isolation: isolate"/>
        <path id="Trazado_99294" data-name="Trazado 99294" d="M329.839,4369.8l144.556-.382-7.994-49.7s11.428-13.875,9.266-28.923c-2.368-16.487-32.1-58.287-34.6-60.664-10.068-9.452-20.723-11.144-30.958-7.739h0C362.822,4252.175,329.839,4369.8,329.839,4369.8Z" transform="translate(-315.991 -4125.415)" fill="#d9a171"/>
        <path id="Trazado_99295" data-name="Trazado 99295" d="M339.494,4340.483a19.435,19.435,0,0,0-2.435,1.115l-.294.832a18.808,18.808,0,0,0,3.132-.862,15.44,15.44,0,0,0,3.972-2.094A15.636,15.636,0,0,0,339.494,4340.483Zm52.23-94.91a15.951,15.951,0,0,0-3.914,2.094,15.846,15.846,0,0,0,4.364-.978,15.443,15.443,0,0,0,3.972-2.095,15.91,15.91,0,0,0-4.422.959Zm68.208,14.051a13.127,13.127,0,0,0-1.957,1.193,12.15,12.15,0,0,0,2.4-.391C460.254,4260.162,460.087,4259.9,459.932,4259.625Zm-37.24,21.633a15.89,15.89,0,0,0-3.972,2.084,17.26,17.26,0,0,0,8.346-3.092A15.573,15.573,0,0,0,422.692,4281.257Zm-18.59,56.6a15.777,15.777,0,0,0-3.973,2.083,15.878,15.878,0,0,0,4.374-.978,15.56,15.56,0,0,0,3.914-2.094,15.442,15.442,0,0,0-4.286.989Zm63.6-41.986a15.868,15.868,0,0,0-3.914,2.095,15.934,15.934,0,0,0,4.374-.979,15.6,15.6,0,0,0,3.913-2.093,15.922,15.922,0,0,0-4.353.978Zm-94.851,2.524a15.831,15.831,0,0,0-3.913,2.084,17.191,17.191,0,0,0,8.336-3.092,15.578,15.578,0,0,0-4.4,1.008Zm71.3,37.915a15.751,15.751,0,0,0-3.972,2.084,15.881,15.881,0,0,0,4.373-.979,15.72,15.72,0,0,0,3.964-2.093,15.436,15.436,0,0,0-4.344.987Zm-38.325-111.845-.294-.724c-.323.225-.635.46-.978.695.058.146.108.283.156.43a15.685,15.685,0,0,0,2.094,3.934A15.949,15.949,0,0,0,405.824,4224.469Zm-36.085,114.81a15.939,15.939,0,0,0-2.084-3.972,17.251,17.251,0,0,0,3.092,8.346A15.519,15.519,0,0,0,369.739,4339.279Zm51.974-22.631a15.829,15.829,0,0,0-2.083-3.913,17.176,17.176,0,0,0,3.092,8.336A15.594,15.594,0,0,0,421.713,4316.647Zm-18.385-48.784a15.865,15.865,0,0,0-2.093-3.964,17.539,17.539,0,0,0,3.092,8.336,15.907,15.907,0,0,0-1-4.372Zm63.873,82.981a15.377,15.377,0,0,0-2.084-3.972,15.909,15.909,0,0,0,.979,4.373,15.734,15.734,0,0,0,2.093,3.963,15.382,15.382,0,0,0-.988-4.364Zm-23.649-110.838a15.719,15.719,0,0,0-2.084-3.973,17.2,17.2,0,0,0,3.092,8.336A15.39,15.39,0,0,0,443.552,4240.006Zm-55.428,80.487a15.658,15.658,0,0,0-4.286-1.321,17.494,17.494,0,0,0,8.092,3.709,16.16,16.16,0,0,0-3.805-2.388Zm51.339,47.171a12.061,12.061,0,0,0,1.595,1.173h2.329A14.672,14.672,0,0,0,439.462,4367.664Zm-84.811-8.376a15.811,15.811,0,0,0-4.286-1.33,15.448,15.448,0,0,0,3.807,2.387,16.008,16.008,0,0,0,4.275,1.331A15.4,15.4,0,0,0,354.651,4359.288Zm87.561-50.772a15.686,15.686,0,0,0-4.276-1.331,15.353,15.353,0,0,0,3.8,2.388,15.828,15.828,0,0,0,4.286,1.321,15.852,15.852,0,0,0-3.807-2.377Zm-9.383-47.943a15.494,15.494,0,0,0-4.285-1.331,15.618,15.618,0,0,0,3.8,2.377,15.865,15.865,0,0,0,4.286,1.332,15.806,15.806,0,0,0-3.8-2.349Zm-56.3,13.268a15.5,15.5,0,0,0-1.33,4.286,15.681,15.681,0,0,0,2.377-3.807,15.3,15.3,0,0,0,1.33-4.276,15.675,15.675,0,0,0-2.377,3.827Zm45.361,78.657a15.823,15.823,0,0,0-1.322,4.286,15.653,15.653,0,0,0,2.379-3.719,15.823,15.823,0,0,0,1.33-4.285,16.179,16.179,0,0,0-2.387,3.748Zm27.778-69.421a15.288,15.288,0,0,0-1.322,4.287,15.871,15.871,0,0,0,2.377-3.807,16.2,16.2,0,0,0,1.332-4.285,16.174,16.174,0,0,0-2.387,3.834Zm-62.083,73.462a15.836,15.836,0,0,0-1.33,4.354,15.388,15.388,0,0,0,2.387-3.8,15.789,15.789,0,0,0,1.32-4.285,15.8,15.8,0,0,0-2.377,3.757ZM356.2,4320.591a15.739,15.739,0,0,0-1.33,4.285,17.218,17.218,0,0,0,3.708-8.091A15.891,15.891,0,0,0,356.2,4320.591Zm44.206-23.3a15.319,15.319,0,0,0-1.33,4.275,15.672,15.672,0,0,0,2.377-3.8,15.851,15.851,0,0,0,1.33-4.286A15.859,15.859,0,0,0,400.4,4297.294Zm17.8-55.507a15.324,15.324,0,0,0-1.33,4.275,17.379,17.379,0,0,0,3.708-8.082,15.886,15.886,0,0,0-2.377,3.836Z" transform="translate(-314.355 -4124.713)" fill="#fff"/>
        <path id="Trazado_99296" data-name="Trazado 99296" d="M432.564,4244.648c2.8,4.657,5.87,9.148,8.806,13.7-1.184-3.249-2.339-6.5-3.63-9.7a.059.059,0,0,1,.038-.074.062.062,0,0,1,.059.014,67.473,67.473,0,0,1,5,12.094,92.064,92.064,0,0,1,5.871,10.764,43.053,43.053,0,0,1,3.913,14.148,36.316,36.316,0,0,1-2.055,14.56,94.2,94.2,0,0,1-7.319,15.42c-.371.655-1.281.048-.978-.607,4.1-8.747,8.629-17.945,8.219-27.856s-4.971-18.835-9.442-27.338a135.924,135.924,0,0,0-8.806-15C432.1,4244.638,432.437,4244.433,432.564,4244.648Z" transform="translate(-291.801 -4119.796)" fill="#344154"/>
        <path id="Trazado_99297" data-name="Trazado 99297" d="M470,4332.7l-2.935,16.427h91.113a11.163,11.163,0,0,0,10.586-8.952l1.31-7.476Z" transform="translate(-283.565 -4098.967)" fill="#dbdbdb"/>
        <path id="Trazado_99298" data-name="Trazado 99298" d="M461.169,4340.176l1.32-7.476h17.9l-1.322,7.476a11.142,11.142,0,0,1-10.528,8.952,7.439,7.439,0,0,1-5.87-2.622A7.689,7.689,0,0,1,461.169,4340.176Z" transform="translate(-284.996 -4098.967)" fill="#ebebeb"/>
        <path id="Trazado_99299" data-name="Trazado 99299" d="M497.891,4239.646l-23.552,133.586h82.189a11.162,11.162,0,0,0,10.519-8.952L590.6,4230.693H508.409a10.622,10.622,0,0,0-6.791,2.623A10.962,10.962,0,0,0,497.891,4239.646Z" transform="translate(-281.846 -4123.071)" fill="#dbdbdb"/>
        <path id="Trazado_99300" data-name="Trazado 99300" d="M502.813,4230.693l-4.755,26.985H598.114l3.18-18.032a7.31,7.31,0,0,0-7.367-8.953Z" transform="translate(-276.241 -4123.071)" fill="#ebebeb"/>
        <path id="Trazado_99301" data-name="Trazado 99301" d="M494,4239.646l-3.181,18.032h17.9l3.18-18.032c.87-4.94-2.427-8.953-7.368-8.953a10.622,10.622,0,0,0-6.79,2.623A10.96,10.96,0,0,0,494,4239.646Z" transform="translate(-277.953 -4123.071)" fill="#dbdbdb"/>
        <path id="Trazado_99302" data-name="Trazado 99302" d="M568.637,4272.48c3.345,9.54,12.994,21.957,13.1,29.471a8.629,8.629,0,0,1-5.724,8.542s7.006,4.472,5.979,11.3c-.529,3.514-6.614,5.754-6.614,5.754s5.46,3.825,4.168,9.843c-1.027,4.794-6.967,6.32-6.967,6.32s3.522,6.116.91,10.666c-5.3,9.217-47.151,4.774-51.975-11.331-2.25-7.5,7.916-5.87,7.916-5.87s-14.051-5.872-13.346-14.541,13.766-5.724,13.766-5.724-13.561-5.822-11.936-14.726c1.7-9.256,14.276-4.089,14.276-4.089s-8.639-7.289-5.871-13.816c4.629-10.763,20.762,5.107,30.2,3.914l6.682-14.677Z" transform="translate(-271.988 -4113.197)" fill="#ffbf9d"/>
        <path id="Trazado_99303" data-name="Trazado 99303" d="M566.884,4290.336c-2.379-9.306,9.882-19.178,8.884-28.376-1.341-12.474-16.34-1.956-21.272,15.41l-1.458,14.14Z" transform="translate(-263.249 -4116.972)" fill="#ffbf9d"/>
        <path id="Trazado_99304" data-name="Trazado 99304" d="M569.28,4331.894a.107.107,0,1,1,0,.215c-14.128,1.9-30.214-.353-42.837-7.151-.42-.215-.235-.979.274-.832C541.091,4328.646,554.172,4331.5,569.28,4331.894Z" transform="translate(-269.589 -4100.998)" fill="#344154"/>
        <path id="Trazado_99305" data-name="Trazado 99305" d="M573.111,4319.259c.167,0,.157.274,0,.293-14.569,1.879-32.621-1.154-46.251-10.7-.46-.323-.558-1.085,0-.752C536.4,4313.76,559.511,4318.976,573.111,4319.259Z" transform="translate(-269.526 -4104.801)" fill="#344154"/>
        <path id="Trazado_99306" data-name="Trazado 99306" d="M528.552,4292.4c13.414,8.649,28.257,12.123,44.029,13.493.205,0,.157.313,0,.342-7.886,1.428-17.837-.5-25.439-2.652a41.934,41.934,0,0,1-18.835-10.713C528.032,4292.665,528.257,4292.224,528.552,4292.4Z" transform="translate(-269.123 -4108.5)" fill="#344154"/>
        <path id="Trazado_99307" data-name="Trazado 99307" d="M400.633,4229.453c.2,2.543,9.452,20.263,20.743,21.467,3.679.38,6.674-19.569,6.674-19.569l.567-1.418,7.827-19.952-21.868-19.315-3.19-2.592s-1.772,5.6-3.914,12.583c-.1.323-.205.656-.3.978s-.265.764-.372,1.135c-.333,1.037-.665,2.1-.979,3.171-.244.813-.478,1.6-.7,2.456s-.46,1.7-.7,2.554C402.15,4219.453,400.564,4228.426,400.633,4229.453Z" transform="translate(-299.263 -4133.142)" fill="#ffbf9d"/>
        <path id="Trazado_99308" data-name="Trazado 99308" d="M406.141,4200.633a42.988,42.988,0,0,0,21.174,29.276l7.827-19.95-21.868-19.315-3.19-2.594S408.284,4193.647,406.141,4200.633Z" transform="translate(-297.961 -4133.148)" fill="#344154"/>
        <path id="Trazado_99309" data-name="Trazado 99309" d="M470.515,4196.343c-4.951,37.258-27.828,38.5-35.86,37.425-7.29-.979-32.005-5.235-30.93-42.807s19.971-47.054,36.77-45.7S475.475,4159.073,470.515,4196.343Z" transform="translate(-298.54 -4143.289)" fill="#ffbf9d"/>
        <path id="Trazado_99310" data-name="Trazado 99310" d="M454.32,4184.209a25.112,25.112,0,0,1-2.387-1.037,4.125,4.125,0,0,1-2.22-1.517,1.32,1.32,0,0,1,.333-1.595,3.314,3.314,0,0,1,3.355-.107,4.887,4.887,0,0,1,2.652,2.3,1.429,1.429,0,0,1-1.732,1.957Z" transform="translate(-287.698 -4135.156)" fill="#344154"/>
        <path id="Trazado_99311" data-name="Trazado 99311" d="M433.278,4178.822q1.3.064,2.593,0a4.228,4.228,0,0,0,2.652-.529,1.34,1.34,0,0,0,.323-1.6,3.328,3.328,0,0,0-3.052-1.418,4.9,4.9,0,0,0-3.337,1.076,1.43,1.43,0,0,0,.822,2.467Z" transform="translate(-291.851 -4136.168)" fill="#344154"/>
        <path id="Trazado_99312" data-name="Trazado 99312" d="M437,4184.78c0-.107-.215.078-.235.186-.371,2.535-1.223,5.372-3.659,5.792-.068,0-.088.147,0,.147C435.955,4191.053,437.052,4187.235,437,4184.78Z" transform="translate(-291.603 -4133.928)" fill="#344154"/>
        <path id="Trazado_99313" data-name="Trazado 99313" d="M435.6,4182.33c-3.992-1.036-5.783,7.036-2.075,7.994S438.944,4183.2,435.6,4182.33Z" transform="translate(-291.969 -4134.521)" fill="#344154"/>
        <path id="Trazado_99314" data-name="Trazado 99314" d="M434.385,4182.622c-.8.3-1.674.978-2.534.851-.979-.117-1.566-1.135-2.026-2.083-.048-.1-.136-.049-.156.058-.372,1.546-.127,3.259,1.487,3.855,1.458.549,2.847-.577,3.58-2.044C434.873,4182.984,434.717,4182.5,434.385,4182.622Z" transform="translate(-292.438 -4134.734)" fill="#344154"/>
        <path id="Trazado_99315" data-name="Trazado 99315" d="M448.472,4186.685c0-.088.166.167.136.274-.655,2.475-.978,5.42,1.087,6.761.068.048,0,.166-.049.136C446.974,4192.811,447.454,4188.906,448.472,4186.685Z" transform="translate(-288.15 -4133.474)" fill="#344154"/>
        <path id="Trazado_99316" data-name="Trazado 99316" d="M451.247,4184.968c4.09.616,2.554,8.737-1.223,8.169S447.833,4184.459,451.247,4184.968Z" transform="translate(-288.108 -4133.881)" fill="#344154"/>
        <path id="Trazado_99317" data-name="Trazado 99317" d="M451.984,4185.673c.558.548,1.047,1.449,1.81,1.645s1.693-.529,2.417-1.262c.078-.079.127,0,.117.107-.255,1.564-1.077,3.082-2.622,3.1s-2.152-1.507-2.232-3.122C451.456,4185.839,451.759,4185.448,451.984,4185.673Z" transform="translate(-287.249 -4133.725)" fill="#344154"/>
        <path id="Trazado_99318" data-name="Trazado 99318" d="M433.081,4202.217c.44.734.812,1.692,1.692,1.957a6.857,6.857,0,0,0,2.819.1.089.089,0,0,1,.078.158,3.469,3.469,0,0,1-3.5.49,2.7,2.7,0,0,1-1.351-2.7C432.816,4202.109,433.033,4202.109,433.081,4202.217Z" transform="translate(-291.663 -4129.819)" fill="#344154"/>
        <path id="Trazado_99319" data-name="Trazado 99319" d="M444.808,4201.356s-.265,3.846-.637,5.617c0,.167-.479.147-1.086.059a.061.061,0,0,1-.068,0,8.592,8.592,0,0,1-7.5-4.833.187.187,0,0,1,.089-.248.184.184,0,0,1,.224.052,12.852,12.852,0,0,0,7.211,3.8c.225-.459.225-6.6.509-6.564a15.378,15.378,0,0,1,3.825,1.742c.783-8,.274-16.067,1.174-24.021a.245.245,0,1,1,.49,0c1.125,8.414.42,17.612-.177,25.929C448.81,4203.89,445.454,4201.806,444.808,4201.356Z" transform="translate(-291.023 -4135.827)" fill="#344154"/>
        <path id="Trazado_99320" data-name="Trazado 99320" d="M406.854,4191.792c8.611,1.762,11.193-11.849,11.193-11.849s9.951.979,13.748-14.628c0,0,2.847,10.451,15.723,14.971,2.73.979-5.264-8.15-5.264-8.15s9.286,12.4,30.968,12.6c1.527,0,4.432-22.787-10.509-33.511s-32.288-9.218-44.509-.842c0,0-11.741,4.129-15.293,15.255S403.508,4191.108,406.854,4191.792Z" transform="translate(-299.046 -4143.642)" fill="#344154"/>
        <path id="Trazado_99321" data-name="Trazado 99321" d="M430.772,4201.019a12.476,12.476,0,1,1,15.832-11.742h0a12.5,12.5,0,0,1-12.72,12.173A12.193,12.193,0,0,1,430.772,4201.019Zm6.273-22.427a8.237,8.237,0,1,0,.028,0Z" transform="translate(-294.296 -4135.871)" fill="#ebebeb"/>
        <path id="Trazado_99322" data-name="Trazado 99322" d="M453.25,4204.5c-4.589-1.282-7.446-7.152-6.439-13.582a14.865,14.865,0,0,1,3.914-8.208,7.769,7.769,0,0,1,13.131,2.064,14.864,14.864,0,0,1,1.252,9.021c-1.067,6.79-6.047,11.673-11.106,10.88A5.629,5.629,0,0,1,453.25,4204.5Zm5.029-22.68a4.346,4.346,0,0,0-.617-.137,6.682,6.682,0,0,0-5.714,2.2,13.311,13.311,0,0,0-3.493,7.289c-.92,5.87,1.693,11.2,5.871,11.859s8.277-3.61,9.207-9.491a13.3,13.3,0,0,0-1.087-8.014,6.846,6.846,0,0,0-4.217-3.708Z" transform="translate(-288.399 -4135.063)" fill="#ebebeb"/>
        <path id="Trazado_99323" data-name="Trazado 99323" d="M441.508,4188.492l-.86-1.428c2.113-1.282,6.76-2.71,9.265.978l-1.378.979C446.293,4185.674,441.7,4188.374,441.508,4188.492Z" transform="translate(-289.807 -4133.706)" fill="#ebebeb"/>
        <path id="Trazado_99324" data-name="Trazado 99324" d="M396.789,4184.876l-1.34-.978c.46-.626,4.6-6.125,8.376-6.145,3.522,0,25.272,5.528,26.2,5.763l-.42,1.615c-6.233-1.595-23.052-5.725-25.772-5.714C401.339,4179.466,397.9,4183.4,396.789,4184.876Z" transform="translate(-300.488 -4135.58)" fill="#ebebeb"/>
        <path id="Trazado_99325" data-name="Trazado 99325" d="M411.016,4187.388s-5.469-13.238-11.3-11.535-3.5,19.646,2.093,23.276a6.361,6.361,0,0,0,8.905-1.27c.053-.072.105-.145.156-.217Z" transform="translate(-300.282 -4136.066)" fill="#ffbf9d"/>
        <path id="Trazado_99326" data-name="Trazado 99326" d="M399.766,4179.971a.087.087,0,0,0-.1.071.089.089,0,0,0,.033.084c3.914,2.691,5.264,7.153,5.919,11.615-.92-1.86-2.455-3.112-4.892-2.075a.137.137,0,0,0-.048.188.14.14,0,0,0,.108.067,3.911,3.911,0,0,1,3.913,2.27,18.067,18.067,0,0,1,1.262,3.845c.117.421.852.373.8-.1v-.108C408,4190.4,405.461,4181.819,399.766,4179.971Z" transform="translate(-299.492 -4135.058)" fill="#344154"/>
        <path id="Trazado_99327" data-name="Trazado 99327" d="M428.878,4223.982l-5.264,17.181L401.2,4221.908l-5.274,7.229s23.022,31.673,23.022,30.146l5.626-14.891,10.763,9.119-2.936-24.931Z" transform="translate(-300.376 -4125.146)" fill="#ebebeb"/>
        <path id="Trazado_99328" data-name="Trazado 99328" d="M434.63,4239.814c-.617-4.1-1.125-8.249-1.957-12.318,0-.138-.265-.187-.284,0-.488,4.05,1.957,19.715,2.27,23.481h0c-.45-.4-9.9-7.984-9.979-7.828-1.292,2.4-5.431,13.248-5.694,14.228-3.64-5.029-18.962-24.784-23.169-29.471a.141.141,0,1,0-.235.157c3.3,5.361,23.15,31.456,23.385,31.368a161.223,161.223,0,0,0,5.87-15.743c1.634,1.683,11.263,10.342,11.243,9.727A128.622,128.622,0,0,0,434.63,4239.814Z" transform="translate(-300.462 -4123.856)" fill="#344154"/>
        <path id="Trazado_99329" data-name="Trazado 99329" d="M411.882,4254.608c-8.708,37.513-33.375,79.479-48.991,91.817-9.511,7.5-39.95,7.573-41.31-12.123s58.4-81.426,67.2-93.433S419.748,4220.763,411.882,4254.608Z" transform="translate(-317.948 -4123.122)" fill="#ffbf9d"/>
        <path id="Trazado_99330" data-name="Trazado 99330" d="M411.882,4254.608c-8.708,37.513-33.375,79.479-48.991,91.817-9.511,7.5-39.95,7.573-41.31-12.123s58.4-81.426,67.2-93.433S419.748,4220.763,411.882,4254.608Z" transform="translate(-317.948 -4123.122)" fill="#d9a171"/>
        <path id="Trazado_99331" data-name="Trazado 99331" d="M343.086,4336.5a15.876,15.876,0,0,0-3.913,2.093,15.819,15.819,0,0,0,4.364-.978,15.506,15.506,0,0,0,3.972-2.094A15.562,15.562,0,0,0,343.086,4336.5Zm52.23-94.91a15.951,15.951,0,0,0-3.914,2.094,15.846,15.846,0,0,0,4.364-.978,15.443,15.443,0,0,0,3.972-2.095,15.91,15.91,0,0,0-4.422.959Zm-18.855,52.836a15.844,15.844,0,0,0-3.914,2.084,17.187,17.187,0,0,0,8.336-3.092,15.572,15.572,0,0,0-4.422,1Zm-14.9-16.771a15.825,15.825,0,0,0-2.045-4.012,15.9,15.9,0,0,0,.978,4.374,15.642,15.642,0,0,0,2.094,3.972A15.894,15.894,0,0,0,361.56,4277.654Zm-24.324,37.328a15.978,15.978,0,0,0-2.094-3.972,17.256,17.256,0,0,0,3.092,8.346A15.9,15.9,0,0,0,337.236,4314.981Zm34.02,16.34a13.669,13.669,0,0,0,.7,3.482l.773-.978A13.275,13.275,0,0,0,371.256,4331.321Zm35.673-67.443a15.882,15.882,0,0,0-2.093-3.964,15.5,15.5,0,0,0,.978,4.364,16.912,16.912,0,0,0,1.673,3.4c.079-.253.167-.5.245-.752h0a18.617,18.617,0,0,0-.812-3.042Zm-55.556,31.388a15.827,15.827,0,0,0-4.286-1.321,15.665,15.665,0,0,0,3.8,2.377,15.866,15.866,0,0,0,4.286,1.332A16.14,16.14,0,0,0,351.374,4295.266Zm28.746-25.44a15.512,15.512,0,0,0-1.33,4.286,15.674,15.674,0,0,0,2.377-3.807,15.305,15.305,0,0,0,1.33-4.275,15.657,15.657,0,0,0-2.377,3.855Zm-20.332,46.78a15.739,15.739,0,0,0-1.33,4.285,17.218,17.218,0,0,0,3.708-8.091A15.891,15.891,0,0,0,359.788,4316.606Zm-37.513,13.131c-.255.577-.5,1.164-.7,1.77a2.6,2.6,0,0,0,0,.393,9.219,9.219,0,0,0,.117,1.183,18.2,18.2,0,0,0,1.625-2.866,16.1,16.1,0,0,0,1.33-4.286A15.607,15.607,0,0,0,322.275,4329.737Z" transform="translate(-317.947 -4120.728)" fill="#fff"/>
        <path id="Trazado_99332" data-name="Trazado 99332" d="M333.74,4345.838a40.141,40.141,0,0,0,12.387.067,33.483,33.483,0,0,0,11.418-4.08c7.456-4.287,12.446-11.545,16.878-18.689q7.29-11.741,13.7-24.05c4.257-8.188,8.161-16.565,11.928-24.989,1.908-4.247,3.64-8.552,5.45-12.838s3.522-8.521,5.1-12.856c.4-1.1.774-2.192,1.155-3.288a.082.082,0,0,1,.157.048h0c-1.409,4.481-2.75,9.011-4.266,13.453-.2.578-.41,1.155-.616,1.732,1.575-3.355,3.19-6.691,4.892-9.989.1-.2.372,0,.293.175-1.506,3.424-3.072,6.849-4.677,10.186q-1.192,2.495-2.4,4.97c-.763,2.055-1.555,4.12-2.368,6.164q-5.254,13.152-11.683,25.744t-13.854,24.667c-4.531,7.407-9.393,15.019-16.722,19.96a31.9,31.9,0,0,1-23.922,4.825,22.1,22.1,0,0,1-2.936-.842.2.2,0,0,1,.089-.371Z" transform="translate(-315.116 -4119.676)" fill="#344154"/>
        <path id="Trazado_99333" data-name="Trazado 99333" d="M345.478,4215.006c6.214-15.116,16.291-35.851,23.062-39.021,7.124-3.3,32.631-13.864,39.353-14.4s30.558,6.429,34.862,10.655c3.434,3.386-2.525,11.447-16.105,10.294-12.719-1.087-15.655-1.957-19.343-1.4s-14.6,9.363-13.64,14.745c.567,3.16,7.954,8.609,13.7,7.621s9.2-6.6,16.291-9.883,17.27,0,17.143,2.937-3.913,3.365-11.6,11.486c-4.971,5.215-8.551,15.577-18.972,24.079-5.234,4.267-15.6,16.556-15.6,16.556Z" transform="translate(-312.296 -4139.409)" fill="#ffbf9d"/>
        <path id="Trazado_99334" data-name="Trazado 99334" d="M364.132,4176.859c7.006-6.546,23.395-17.377,37.279-18.962,9.382-1.087,35.086,20.8,32.778,26.193s-7.319,4.128-14.53,1.33c-2.622-.979-15.655-9.853-18.835-7.476-4.619,3.415-12.877,17.025-12.877,17.025Z" transform="translate(-307.888 -4140.282)" fill="#ffbf9d"/>
        <path id="Trazado_99335" data-name="Trazado 99335" d="M423.87,4180.4c-2.084-6.947-9.236-12.211-16.526-16.79-.117-.078-.235.1-.117.167,1.848,1.173,13.257,10.459,16.526,16.691C423.792,4180.534,423.89,4180.465,423.87,4180.4Z" transform="translate(-297.716 -4138.928)" fill="#344154"/>
        <path id="Trazado_99336" data-name="Trazado 99336" d="M364.132,4176.858c7.006-6.546,23.395-17.377,37.279-18.962,9.382-1.087,27.914,23.218,25.615,28.619s-9.637,3.982-16.888-.841c-2.348-1.566-9.422-9.863-12.631-7.5-4.629,3.415-15.94,11.938-15.94,11.938Z" transform="translate(-307.888 -4140.282)" fill="#ffbf9d"/>
        <path id="Trazado_99337" data-name="Trazado 99337" d="M383.659,4184.88c1.115-.978,1.507-1.388,2.642-2.4s2.28-1.956,3.483-2.935a11.4,11.4,0,0,1,3.347-2.095,5.818,5.818,0,0,1,3.709.207c2.7.978,4.745,3.365,6.741,5.323,2.23,2.172,7.035,6.007,11.311,6.633a8.433,8.433,0,0,0,3.5,0,5.332,5.332,0,0,0,2.377-1.066c2.583-2.593,1.233-6.663-.43-9.784-3.112-5.714-8.024-10.538-12.916-14.676-1.2-1.027-2.437-2.026-3.659-3.024a12.723,12.723,0,0,0-4.677-2.75c-2.887-.763-8.376.979-10.068,1.467-.127,0-.166-.165,0-.205,2.055-.655,7.387-3.122,11.986-1.683a15.189,15.189,0,0,1,4.432,2.877c1.38,1.065,2.857,2.289,4.237,3.492a67.694,67.694,0,0,1,7.534,7.544c2.162,2.573,4.423,5.509,5.5,8.737a8.277,8.277,0,0,1-1.634,8.444c-1.82,1.792-4.667,1.6-5.958,1.449a14.184,14.184,0,0,1-3.669-.979,59.019,59.019,0,0,1-7.388-4.392c-2.27-1.654-4.109-3.915-6.507-5.4a5.028,5.028,0,0,0-3.835-.724,13.1,13.1,0,0,0-3.483,1.85,40.319,40.319,0,0,0-6.146,4.364C383.532,4185.584,383.19,4185.311,383.659,4184.88Z" transform="translate(-303.326 -4140.378)" fill="#344154"/>
        <path id="Trazado_99338" data-name="Trazado 99338" d="M359.732,4184.939c2.788-3.248,9.784-17.808,13.991-21.75s21.9-16.731,28.033-14.4c7.71,2.935-4.247,15.108-9.921,19.922s-7.544,15.018-7.544,15.018Z" transform="translate(-308.928 -4142.492)" fill="#ffbf9d"/>
        <path id="Trazado_99339" data-name="Trazado 99339" d="M395.423,4158.2c-1.957,1.488-3.8,3.218-5.6,4.892a47.983,47.983,0,0,0-5.049,4.892,21.063,21.063,0,0,0-3.229,6.134,32.335,32.335,0,0,0-.978,3.279c-.274,1.1-.528,2.456-.87,3.649,0,.126.156.206.2.068a53.873,53.873,0,0,1,2.553-6.359,29.327,29.327,0,0,1,3.679-6.037c2.936-3.679,6.594-6.684,9.55-10.343C395.785,4158.255,395.57,4158.089,395.423,4158.2Z" transform="translate(-304.209 -4140.21)" fill="#344154"/>
        <path id="Trazado_99340" data-name="Trazado 99340" d="M393.224,4197.7a10.183,10.183,0,0,0,7.221-2.437c1.879-1.408,3.669-2.935,5.557-4.335a24.288,24.288,0,0,1,6.018-3.551,28.03,28.03,0,0,1,7.729-1.292,15.106,15.106,0,0,1,7.436,1.087c1.9.9,3.914,2.866,2.867,5.176a9,9,0,0,1-2.134,2.72,22.275,22.275,0,0,1-2.641,2.152c-1.869,1.342-3.856,2.545-5.6,4.071-2.319,2.035-3.914,4.8-5.617,7.356-.637.979-4.7,7.379-6.243,9.56a38.756,38.756,0,0,1-4.353,5.206,54.03,54.03,0,0,1-5,4.07,31.557,31.557,0,0,0-5.215,4.667c-.068.089-.185,0-.137-.118,1.957-3.6,5.539-6.017,8.806-8.4,4.179-3.092,13.453-19.06,15.137-21.231,2.8-3.61,7.044-5.343,10.234-8.484.734-.723,1.859-1.75,1.84-2.885a3.2,3.2,0,0,0-1.957-2.437c-2.192-1.165-4.892-1.087-7.279-.852a33.144,33.144,0,0,0-7.417,1.224,24.43,24.43,0,0,0-5.929,3.1c-2.094,1.449-4.1,2.937-6.3,4.246a10.26,10.26,0,0,1-7.084,1.585C393.049,4197.869,393.107,4197.692,393.224,4197.7Z" transform="translate(-301.042 -4133.632)" fill="#344154"/>
        <path id="Trazado_99341" data-name="Trazado 99341" d="M421.912,4169.12c-1.673-.822-3.337-1.712-5.039-2.486v-.078c2.015.8,4.09,1.467,6.115,2.25,1.6.617,3.259,1.517,3.914,3.2a4.718,4.718,0,0,1-.978,4.619,12.64,12.64,0,0,1-4.422,2.994c-.089.048-.157-.089-.069-.138,2.437-1.409,6.214-4.246,4.227-7.485A8.594,8.594,0,0,0,421.912,4169.12Z" transform="translate(-295.425 -4138.227)" fill="#344154"/>
        <path id="Trazado_99342" data-name="Trazado 99342" d="M414.372,4182.823a10.775,10.775,0,0,0,5.714-.978,4.077,4.077,0,0,0,2.084-3.092,2.037,2.037,0,0,0-.185-1.379c-.079-.1.108-.186.136-.068a6.212,6.212,0,0,0,.3.743,3.225,3.225,0,0,1,.146.665,3.611,3.611,0,0,1-.108,1.341,4.337,4.337,0,0,1-1.693,2.338c-1.908,1.37-4.275,1.243-6.428.607A.092.092,0,0,1,414.372,4182.823Z" transform="translate(-296.036 -4135.7)" fill="#344154"/>
        <path id="Trazado_99343" data-name="Trazado 99343" d="M400.816,4238.72c-4.169,15.039-35.85,95.242-44.656,106.563s-30.224,13.756-36.2-6.7,25.146-118.246,31.721-133.548C355.347,4196.52,402.313,4233.271,400.816,4238.72Z" transform="translate(-318.506 -4129.435)" fill="#ffbf9d"/>
        <path id="Trazado_99344" data-name="Trazado 99344" d="M407.875,4247.128l-62.17-36.055s-26.6,91.22-27.064,119.351c-.342,20.185,23.854,35.273,42.973,7.984S407.875,4247.128,407.875,4247.128Z" transform="translate(-318.638 -4127.708)" fill="#d9a171"/>
        <path id="Trazado_99345" data-name="Trazado 99345" d="M347.03,4212.007a16.331,16.331,0,0,0-2.3,3.69,15.774,15.774,0,0,0-1.32,4.285,15.668,15.668,0,0,0,2.377-3.8,15.935,15.935,0,0,0,1.31-4.178h-.068Zm-20.039,86.984a15.851,15.851,0,0,0-1.32,4.286,15.652,15.652,0,0,0,2.377-3.8,15.843,15.843,0,0,0,1.331-4.305A16.376,16.376,0,0,0,326.991,4298.991Zm-4.6,37.5a15.733,15.733,0,0,0-1.331,4.285,15.682,15.682,0,0,0,2.369-3.806,16.1,16.1,0,0,0,1.33-4.286,15.608,15.608,0,0,0-2.367,3.807Zm37.513-13.131a15.737,15.737,0,0,0-1.33,4.285,17.218,17.218,0,0,0,3.708-8.091,15.89,15.89,0,0,0-2.377,3.807Zm20.9-91.788v.273l.167-.205Zm-.567,45.1a15.517,15.517,0,0,0-1.33,4.285,15.649,15.649,0,0,0,2.377-3.806,15.318,15.318,0,0,0,1.33-4.275,15.683,15.683,0,0,0-2.377,3.767Zm-28.669-10.216a15.4,15.4,0,0,0-1.33,4.257,17.478,17.478,0,0,0,3.708-8.091,15.888,15.888,0,0,0-2.377,3.8Zm21.292-10.811a15.83,15.83,0,0,0-4.286-1.332,15.429,15.429,0,0,0,3.8,2.389,15.866,15.866,0,0,0,4.285,1.291,15.834,15.834,0,0,0-3.8-2.378Zm-21.369,46.378a15.826,15.826,0,0,0-4.286-1.321,15.664,15.664,0,0,0,3.8,2.377,15.866,15.866,0,0,0,4.286,1.332A16.14,16.14,0,0,0,351.492,4302.024Zm-9.3-57.317a15.642,15.642,0,0,0-4.285-1.332,17.226,17.226,0,0,0,8.092,3.708,15.844,15.844,0,0,0-3.807-2.339ZM337.3,4321.7a15.922,15.922,0,0,0-2.094-3.972,17.277,17.277,0,0,0,3.092,8.346,15.882,15.882,0,0,0-.948-4.334Zm24.374-37.288a15.824,15.824,0,0,0-2.045-4.012,15.9,15.9,0,0,0,.978,4.374,15.643,15.643,0,0,0,2.094,3.972A15.893,15.893,0,0,0,361.678,4284.413Zm14.9,16.8a15.876,15.876,0,0,0-3.914,2.084,17.2,17.2,0,0,0,8.336-3.092,15.546,15.546,0,0,0-4.422.968Zm-41.525-21.819a15.547,15.547,0,0,0-3.914,2.094,16.3,16.3,0,0,0,4.374-.979,15.636,15.636,0,0,0,3.914-2.094A15.566,15.566,0,0,0,335.054,4279.393Zm24.334-45.626a15.976,15.976,0,0,0-3.972,2.094,15.949,15.949,0,0,0,4.373-.977,15.7,15.7,0,0,0,3.972-2.095A15.88,15.88,0,0,0,359.388,4233.767Zm36.046,14.56a15.905,15.905,0,0,0-3.914,2.095,15.9,15.9,0,0,0,4.364-.979,15.443,15.443,0,0,0,3.972-2.095A15.948,15.948,0,0,0,395.434,4248.327Zm-52.23,94.909a15.911,15.911,0,0,0-3.913,2.094,15.856,15.856,0,0,0,4.364-.978,15.463,15.463,0,0,0,3.972-2.095,15.557,15.557,0,0,0-4.424,1Z" transform="translate(-318.065 -4127.486)" fill="#fff"/>
        <path id="Trazado_99346" data-name="Trazado 99346" d="M394.505,4255.523c-9.413-5.058-47.2-27.132-55.038-32.456-.548-.371-.44-.811.176-.5,28.61,14.441,46.056,27.084,55.077,32.553A.228.228,0,0,1,394.505,4255.523Z" transform="translate(-313.8 -4125.016)" fill="#344154"/>
        <path id="Trazado_99347" data-name="Trazado 99347" d="M368.576,4300.63c6.566-12.328,12.876-24.784,18.59-37.553q2.377-5.363,4.657-10.763c1.459-3.464,2.936-6.937,4.247-10.459-1.3-.911-7.015-4.648-7.632-5.226a.249.249,0,0,1,.255-.41c.763.283,7.4,4.129,8.806,5.176.205.146-2.622,7.015-3.914,10.3s-2.6,6.556-3.972,9.785q-4.071,9.656-8.611,19.088c-3.258,6.791-6.662,13.483-10.274,20.069C367.578,4306.315,360.092,4316.511,368.576,4300.63Z" transform="translate(-307.763 -4121.768)" fill="#344154"/>
      </g>
      <g id="freepik--Pencil--inject-11" transform="translate(222.861 382.435)">
        <path id="Trazado_99348" data-name="Trazado 99348" d="M570.988,4373.436s12.192,1.653,12.642-6.751-11.849-8.072-11.849-8.072Z" transform="translate(-471.295 -4353.994)" fill="#dd6a57"/>
        <rect id="Rectángulo_5092" data-name="Rectángulo 5092" width="14.843" height="86.524" transform="translate(13.81 14.849) rotate(-86.92)" fill="#d9a171"/>
        <rect id="Rectángulo_5093" data-name="Rectángulo 5093" width="17.328" height="3.434" transform="translate(97.174 20.587) rotate(-86.92)" fill="#37474f"/>
        <rect id="Rectángulo_5094" data-name="Rectángulo 5094" width="17.328" height="3.444" transform="translate(93.37 20.375) rotate(-86.92)" fill="#37474f"/>
        <path id="Trazado_99349" data-name="Trazado 99349" d="M504.928,4354.876l-10.959,5-3.62,1.635,3.425,2.054,10.361,6.145,2.23-1.38-2.074-1.584,2.232-1.39-2.075-1.575,2.23-1.36s-2.035-1.575-2.063-1.614l2.23-1.351-2.074-1.614,2.232-1.35Z" transform="translate(-490.349 -4354.876)" fill="#ebebeb"/>
        <path id="Trazado_99350" data-name="Trazado 99350" d="M493.97,4358.92l-3.62,1.634,3.425,2.055Z" transform="translate(-490.35 -4353.92)" fill="#37474f"/>
      </g>
      <g id="freepik--Calculator--inject-11" transform="translate(62.474 374.549)">
        <path id="Trazado_99351" data-name="Trazado 99351" d="M463.609,4348.5l12.671,32.72H360.618l13.825-32.681Z" transform="translate(-360.618 -4348.498)" fill="#d9a171"/>
        <path id="Trazado_99352" data-name="Trazado 99352" d="M464.529,4350.421l11.751,30.342v5.547H360.618v-5.547l12.827-30.312Z" transform="translate(-360.618 -4348.043)" fill="#d9a171"/>
        <path id="Trazado_99353" data-name="Trazado 99353" d="M463.609,4348.5l12.671,32.72H360.618l13.825-32.681Z" transform="translate(-360.618 -4348.498)" fill="#d9a171" opacity="0.1" style="isolation: isolate"/>
        <path id="Trazado_99354" data-name="Trazado 99354" d="M399.705,4367.84l-.724,6.292H384.931l1.35-6.292Z" transform="translate(-354.873 -4343.926)" fill="#fff"/>
        <path id="Trazado_99355" data-name="Trazado 99355" d="M400.243,4362.078l-.734,6.292H386.173l1.36-6.292Z" transform="translate(-354.579 -4345.288)" fill="#fff"/>
        <path id="Trazado_99356" data-name="Trazado 99356" d="M400.772,4356.316l-.724,6.292H387.416l1.36-6.292Z" transform="translate(-354.286 -4346.649)" fill="#d9a171"/>
        <path id="Trazado_99357" data-name="Trazado 99357" d="M401.308,4350.556l-.734,6.281-11.908.01,1.36-6.291Z" transform="translate(-353.99 -4348.011)" fill="#d9a171"/>
        <path id="Trazado_99358" data-name="Trazado 99358" d="M412.026,4367.84l-.01,6.292h-14.05l.636-6.292Z" transform="translate(-351.793 -4343.926)" fill="#37474f"/>
        <path id="Trazado_99359" data-name="Trazado 99359" d="M411.888,4362.078v6.292H398.551l.636-6.292Z" transform="translate(-351.655 -4345.288)" fill="#37474f"/>
        <path id="Trazado_99360" data-name="Trazado 99360" d="M411.761,4356.316v6.282H399.129l.636-6.282Z" transform="translate(-351.518 -4346.649)" fill="#37474f"/>
        <path id="Trazado_99361" data-name="Trazado 99361" d="M411.694,4350.547v6.291H399.786l.626-6.281Z" transform="translate(-351.363 -4348.013)" fill="#fff"/>
        <path id="Trazado_99362" data-name="Trazado 99362" d="M424.354,4367.84l.714,6.292h-14.05l-.088-6.292Z" transform="translate(-348.73 -4343.926)" fill="#37474f"/>
        <path id="Trazado_99363" data-name="Trazado 99363" d="M423.56,4362.078l.714,6.282-13.336.01-.088-6.292Z" transform="translate(-348.748 -4345.288)" fill="#37474f"/>
        <path id="Trazado_99364" data-name="Trazado 99364" d="M422.767,4356.309l.714,6.292H410.859l-.088-6.282Z" transform="translate(-348.767 -4346.651)" fill="#37474f"/>
        <path id="Trazado_99365" data-name="Trazado 99365" d="M421.973,4350.547l.714,6.291H410.78l-.088-6.291Z" transform="translate(-348.786 -4348.013)" fill="#fff"/>
        <path id="Trazado_99366" data-name="Trazado 99366" d="M436.811,4367.84l1.438,6.292h-14.06l-.8-6.292Z" transform="translate(-345.786 -4343.926)" fill="#37474f"/>
        <path id="Trazado_99367" data-name="Trazado 99367" d="M435.353,4362.07l1.438,6.292H423.455l-.812-6.282Z" transform="translate(-345.962 -4345.29)" fill="#37474f"/>
        <path id="Trazado_99368" data-name="Trazado 99368" d="M433.894,4356.309l1.438,6.292H422.711l-.812-6.292Z" transform="translate(-346.138 -4346.651)" fill="#37474f"/>
        <path id="Trazado_99369" data-name="Trazado 99369" d="M432.444,4350.539l1.438,6.292-11.917.009-.8-6.291Z" transform="translate(-346.311 -4348.015)" fill="#fff"/>
        <path id="Trazado_99370" data-name="Trazado 99370" d="M449.26,4367.84l2.162,6.282-14.05.01-1.536-6.292Z" transform="translate(-342.844 -4343.926)" fill="#37474f"/>
        <path id="Trazado_99371" data-name="Trazado 99371" d="M447.145,4362.07l2.162,6.292H435.961l-1.526-6.292Z" transform="translate(-343.175 -4345.29)" fill="#37474f"/>
        <path id="Trazado_99372" data-name="Trazado 99372" d="M445.022,4356.3l2.162,6.292-12.622.01-1.536-6.292Z" transform="translate(-343.508 -4346.653)" fill="#fff"/>
        <path id="Trazado_99373" data-name="Trazado 99373" d="M442.907,4350.539l2.162,6.292H433.161l-1.536-6.292Z" transform="translate(-343.839 -4348.015)" fill="#fff"/>
        <path id="Trazado_99374" data-name="Trazado 99374" d="M390.009,4371.517h0c-.558,0-.979-.176-.979-.431s.549-.43,1.1-.43h0c.558,0,.978.166.978.43S390.537,4371.517,390.009,4371.517Zm.108-.626h0c-.323,0-.6.078-.627.2s.235.2.549.2h0c.323,0,.6-.078.616-.2S390.43,4370.891,390.117,4370.891Zm2.622.323-3.375-1.194a.084.084,0,0,1-.089-.1c.01-.04.117-.1.235-.1h.147l3.385,1.2a.1.1,0,0,1,.089.089c0,.028-.117.107-.245.107a.347.347,0,0,1-.147-.01Zm-.49-.8h0c-.558,0-.978-.177-.978-.432s.538-.43,1.076-.43h0c.549,0,.979.177.979.43s-.529.432-1.077.432Zm.1-.637h0c-.323,0-.6.089-.616.205s.235.2.538.2h0c.323,0,.6-.079.617-.2s-.235-.205-.539-.205Z" transform="translate(-353.904 -4343.523)" fill="#37474f"/>
        <path id="Trazado_99375" data-name="Trazado 99375" d="M392.772,4360.458c-1.027,0-1.78-.431-1.683-.978a.978.978,0,0,1,.509-.607.534.534,0,0,1,.41,0c.117.049.127.147,0,.2a.652.652,0,0,0-.352.421.451.451,0,0,0,.284.47,1.855,1.855,0,0,0,.87.2,2.211,2.211,0,0,0,.93-.2.72.72,0,0,0,.45-.47.442.442,0,0,0-.215-.421c-.078-.058-.049-.156.088-.2a.513.513,0,0,1,.4,0,.657.657,0,0,1,.313.607C394.711,4360.027,393.81,4360.458,392.772,4360.458Z" transform="translate(-353.42 -4346.055)" fill="#37474f"/>
        <path id="Trazado_99376" data-name="Trazado 99376" d="M394.626,4358.639h-3.014c-.157,0-.265-.069-.255-.147h0l.157-.842c0-.078.147-.146.3-.146s.274.068.265.146l-.127.7h.979l.1-.605c0-.079.156-.147.3-.147s.274.068.265.147l-.1.605h.978l.117-.7c0-.078.147-.146.3-.146s.265.068.255.146l-.127.842h0A.464.464,0,0,1,394.626,4358.639Z" transform="translate(-353.355 -4346.369)" fill="#37474f"/>
        <path id="Trazado_99377" data-name="Trazado 99377" d="M393.837,4354.072c-.979,0-1.664-.44-1.575-.978a.976.976,0,0,1,.488-.607.477.477,0,0,1,.382,0c.117.059.117.157,0,.215a.617.617,0,0,0-.342.422.5.5,0,0,0,.265.468,1.643,1.643,0,0,0,.811.187,1.965,1.965,0,0,0,.872-.187.753.753,0,0,0,.43-.468.442.442,0,0,0-.205-.422c-.069-.058,0-.156.088-.215a.427.427,0,0,1,.382,0,.645.645,0,0,1,.283.607C395.646,4353.631,394.8,4354.072,393.837,4354.072Z" transform="translate(-353.143 -4347.565)" fill="#37474f"/>
        <path id="Trazado_99378" data-name="Trazado 99378" d="M402.622,4369.921l3.337.657c.117,0,.185.067.185.126a.12.12,0,0,1,0,.059.565.565,0,0,1-.42.078l-2.935-.567v.675c0,.079-.157.147-.333.147s-.313-.068-.3-.147l.059-.9h0l.058-.058h.382Z" transform="translate(-350.804 -4343.435)" fill="#fff"/>
        <path id="Trazado_99379" data-name="Trazado 99379" d="M405.058,4364.161c.715,0,1.282.283,1.262.625s-.607.626-1.32.626a1.808,1.808,0,0,1-1.067-.284,1.508,1.508,0,0,1-.538.088c-.49,0-.882-.2-.872-.43s.431-.431.92-.431a1.448,1.448,0,0,1,.529.088A1.952,1.952,0,0,1,405.058,4364.161Zm0,.283c-.381,0-.715.157-.723.342s.3.333.694.342.7-.156.715-.342-.313-.342-.695-.342Zm-1.643.489c.176,0,.313-.069.323-.147s-.137-.147-.3-.147-.3.069-.3.147.117.107.274.107Z" transform="translate(-350.716 -4344.796)" fill="#fff"/>
        <path id="Trazado_99380" data-name="Trazado 99380" d="M404.118,4359.637c-.695,0-1.234-.283-1.214-.636s.529-.6,1.155-.626h.3a6.093,6.093,0,0,1,1.037.088,2.083,2.083,0,0,1,.862.343.543.543,0,0,1,.225.39c0,.078-.117.147-.284.147s-.273-.06-.283-.138a.334.334,0,0,0-.137-.244,1.057,1.057,0,0,0-.352-.166H405.3a.374.374,0,0,1,.089.244C405.371,4359.354,404.8,4359.637,404.118,4359.637Zm0-.283c.371,0,.685-.157.695-.353s-.284-.342-.656-.342-.675.156-.685.342.284.353.656.353Z" transform="translate(-350.626 -4346.164)" fill="#fff"/>
        <path id="Trazado_99381" data-name="Trazado 99381" d="M404.763,4353.763c-.157,0-.284-.069-.284-.147v-.822c0-.077.147-.156.3-.156s.273.079.273.156v.822C405.056,4353.693,404.919,4353.763,404.763,4353.763Z" transform="translate(-350.254 -4347.52)" fill="#37474f"/>
        <path id="Trazado_99382" data-name="Trazado 99382" d="M417.706,4369.818c.176,0,.323.06.323.146h.43c.177,0,.314.068.324.147s-.127.146-.3.146h-.43l.058.812h0a.1.1,0,0,1-.068.089.564.564,0,0,1-.44,0l-2.691-.979h2.486C417.393,4369.878,417.53,4369.818,417.706,4369.818Zm-1.693.46,1.448.519v-.519Z" transform="translate(-347.806 -4343.459)" fill="#fff"/>
        <path id="Trazado_99383" data-name="Trazado 99383" d="M415.992,4364.385a2.117,2.117,0,0,1,.979-.2,2.385,2.385,0,0,1,.978.2c.274.128.412.293.422.46h0c0,.166-.109.333-.362.46a.564.564,0,0,1-.44,0c-.127-.059-.127-.157,0-.215s.215-.157.205-.245a.363.363,0,0,0-.235-.255,1.279,1.279,0,0,0-.519-.1,1.193,1.193,0,0,0-.518.1.294.294,0,0,0-.2.255c0,.088.078.176.225.245s.136.156,0,.215h-.255l-1.419-.079a.4.4,0,0,1-.215-.068h0a.124.124,0,0,1,0-.067v-.773c0-.089.127-.156.3-.156s.3.067.3.156v.636h.538a.313.313,0,0,1-.058-.176C415.611,4364.678,415.729,4364.513,415.992,4364.385Z" transform="translate(-347.853 -4344.796)" fill="#fff"/>
        <path id="Trazado_99384" data-name="Trazado 99384" d="M416.562,4358.366c.685,0,1.262.284,1.282.637s-.44.6-1.067.636h-.3a5.486,5.486,0,0,1-1.057-.1,2.118,2.118,0,0,1-.9-.332.629.629,0,0,1-.265-.392c0-.088.108-.146.265-.156s.284.059.3.138a.361.361,0,0,0,.157.253,1.3,1.3,0,0,0,.372.157h.137a.4.4,0,0,1-.117-.255C415.35,4358.65,415.887,4358.366,416.562,4358.366Zm0,.294c-.362,0-.665.156-.655.343s.333.343.7.343.665-.147.645-.343-.3-.343-.675-.343Z" transform="translate(-347.944 -4346.165)" fill="#fff"/>
        <path id="Trazado_99385" data-name="Trazado 99385" d="M415.886,4353.727c0,.078-.108.137-.245.137s-.255-.059-.263-.137l-.059-1.057c0-.068.108-.136.245-.136s.245.058.255.136Zm-1.31-.7h0c.176,0,.333.079.333.176s-.137.186-.314.186h0c-.176,0-.323-.078-.333-.186s.127-.176.3-.176Zm1.956,0h0c.177,0,.324.079.324.176s-.127.186-.3.186h0c-.185,0-.333-.088-.342-.186s.187-.176.362-.176Z" transform="translate(-347.942 -4347.543)" fill="#37474f"/>
        <path id="Trazado_99386" data-name="Trazado 99386" d="M427.831,4370.159H431.2c.177,0,.324.067.342.146s-.108.147-.283.147H428.4l.147.1s.058.06.058.079,0,.1-.137.117a.564.564,0,0,1-.44,0l-.47-.323h.245Z" transform="translate(-344.8 -4343.378)" fill="#fff"/>
        <path id="Trazado_99387" data-name="Trazado 99387" d="M430,4364.145c.176,0,.313.068.333.147l.176.928h0a.1.1,0,0,1-.078.107.584.584,0,0,1-.43,0l-1.595-.782a1.31,1.31,0,0,0-.538-.107,1.043,1.043,0,0,0-.45.088c-.147.068-.206.156-.187.255s.088.156.215.225l.167.079c.127.059.127.146,0,.205a.581.581,0,0,1-.422,0l-.166-.078a.653.653,0,0,1-.41-.421.513.513,0,0,1,.351-.47,2.044,2.044,0,0,1,.842-.166,2.328,2.328,0,0,1,.979.215l.978.49-.108-.56A.4.4,0,0,1,430,4364.145Z" transform="translate(-345.023 -4344.8)" fill="#fff"/>
        <path id="Trazado_99388" data-name="Trazado 99388" d="M427.032,4358.59a1.811,1.811,0,0,1,.842-.166,2.249,2.249,0,0,1,.928.186c.274.127.431.295.46.46a.447.447,0,0,1-.283.46.5.5,0,0,1-.412,0c-.126-.058-.136-.147,0-.205a.265.265,0,0,0,.157-.255.41.41,0,0,0-.255-.244,1.064,1.064,0,0,0-.508-.107.831.831,0,0,0-.46.107c-.127.068-.177.156-.167.244s0,.078-.068.107h0a.537.537,0,0,1-.412,0l-.576-.265.068.422c0,.078-.1.147-.265.147s-.3-.069-.313-.147l-.127-.772c0-.089.108-.147.265-.147h.215l.724.333A.682.682,0,0,1,427.032,4358.59Z" transform="translate(-345.253 -4346.154)" fill="#fff"/>
        <path id="Trazado_99389" data-name="Trazado 99389" d="M425.868,4352.738l.842.314.734-.314a.446.446,0,0,1,.352,0s.068.059.068.089a.116.116,0,0,1-.078.117l-.617.264.715.254a.149.149,0,0,1,.127.107.263.263,0,0,1,0,.088.4.4,0,0,1-.342,0l-.862-.313-.733.313a.438.438,0,0,1-.352,0c-.089-.068-.079-.146,0-.2l.606-.254-.695-.264c-.117-.049-.156-.137-.088-.206A.416.416,0,0,1,425.868,4352.738Z" transform="translate(-345.284 -4347.504)" fill="#37474f"/>
        <path id="Trazado_99390" data-name="Trazado 99390" d="M442.856,4370.331c0-.107.137-.2.371-.2s.451.088.49.2-.137.2-.372.2S442.894,4370.438,442.856,4370.331Z" transform="translate(-341.185 -4343.384)" fill="#fff"/>
        <path id="Trazado_99391" data-name="Trazado 99391" d="M440.82,4365.481a4.791,4.791,0,0,1-1.36-.176c-.372-.107-.675-.285-.734-.49s.147-.372.46-.48a3.644,3.644,0,0,1,1.244-.175,4.643,4.643,0,0,1,1.34.175c.381.108.695.285.753.48s-.146.382-.46.49A3.731,3.731,0,0,1,440.82,4365.481Zm-.3-1.028a3.238,3.238,0,0,0-.979.118c-.205.078-.293.167-.263.245s.156.176.4.255a4.092,4.092,0,0,0,.979.127,3.245,3.245,0,0,0,.928-.127c.206-.079.284-.167.255-.255s-.147-.167-.41-.245a3.974,3.974,0,0,0-.91-.118Z" transform="translate(-342.164 -4344.796)" fill="#fff"/>
        <path id="Trazado_99392" data-name="Trazado 99392" d="M438.477,4359.513c-.156,0-.313-.068-.342-.156l-.225-.8c0-.089.089-.157.245-.157s.313.068.342.157l.235.8C438.761,4359.406,438.673,4359.513,438.477,4359.513Zm.979,0c-.177,0-.333-.068-.352-.156l-.245-.8c0-.089.1-.157.265-.157s.323.068.342.157l.245.8c.009.048-.059.156-.274.156Z" transform="translate(-342.354 -4346.158)" fill="#37474f"/>
        <path id="Trazado_99393" data-name="Trazado 99393" d="M437.377,4353.347l.117.373c0,.078-.078.137-.225.137s-.293-.059-.313-.137l-.108-.373h-.637c-.146,0-.293-.068-.313-.146s.078-.157.235-.157h.665l-.108-.372c0-.078.078-.146.225-.146s.284.068.3.146l.109.372H438a.354.354,0,0,1,.323.147c0,.087-.079.156-.235.156Z" transform="translate(-342.83 -4347.545)" fill="#37474f"/>
        <path id="Trazado_99394" data-name="Trazado 99394" d="M390.685,4363.9c.127,0,.225.049.215.108l-.058.333c.763.136,2.759.479,3.337.558a.505.505,0,0,1,.176.058.079.079,0,0,1,.049.079s0,.068-.108.1-.764.353-1.037.46a1.019,1.019,0,0,1-.567.068c-.03-.02,0,0,0-.059s0-.068.088-.1l.265-.117.215-.1.205-.088.215-.1-3.15-.548h-.079s-.068-.06-.058-.088l.078-.432C390.45,4363.978,390.568,4363.9,390.685,4363.9Z" transform="translate(-353.583 -4344.858)" fill="#37474f"/>
        <path id="Trazado_99395" data-name="Trazado 99395" d="M388.735,4350.556l-7.593,27.66H366.348l10.508-27.65Z" transform="translate(-359.264 -4348.011)" fill="#455a64"/>
        <path id="Trazado_99396" data-name="Trazado 99396" d="M374.312,4360.662h5.157c.273,0,.45.107.41.243s-.283.235-.558.235h-4.295l.137.177a.129.129,0,0,1,0,.127.468.468,0,0,1-.314.205.692.692,0,0,1-.635-.087l-.45-.529h.313Z" transform="translate(-357.512 -4345.623)" fill="#fff"/>
        <path id="Trazado_99397" data-name="Trazado 99397" d="M380.123,4358.612c.265,0,.43.108.392.245l-.47,1.545h0a.381.381,0,0,1-.205.175.874.874,0,0,1-.675,0l-1.9-1.3a1.361,1.361,0,0,0-.763-.177,2.38,2.38,0,0,0-.792.138.849.849,0,0,0-.509.421.312.312,0,0,0,.157.381l.2.137c.147.1.078.245-.147.342a.829.829,0,0,1-.675,0l-.2-.137a.577.577,0,0,1-.283-.7,1.542,1.542,0,0,1,.978-.772,3.922,3.922,0,0,1,1.468-.274,2.563,2.563,0,0,1,1.4.342l1.213.832.284-.93C379.615,4358.72,379.859,4358.612,380.123,4358.612Z" transform="translate(-357.404 -4346.107)" fill="#fff"/>
        <path id="Trazado_99398" data-name="Trazado 99398" d="M377.571,4356.848a3.911,3.911,0,0,1,1.566-.314,2.652,2.652,0,0,1,1.37.314.665.665,0,0,1,.381.773,1.451,1.451,0,0,1-.851.762.814.814,0,0,1-.675,0c-.157-.1-.109-.255.108-.352a.778.778,0,0,0,.46-.41.365.365,0,0,0-.2-.422,1.481,1.481,0,0,0-.753-.175,2.1,2.1,0,0,0-.852.175.9.9,0,0,0-.478.412c0,.078-.089.138-.206.185h0a.849.849,0,0,1-.675,0l-.723-.44-.245.705c0,.137-.3.245-.567.245s-.44-.107-.392-.245l.45-1.292c0-.138.3-.245.558-.245a.722.722,0,0,1,.215,0h.108l.9.558A1.89,1.89,0,0,1,377.571,4356.848Z" transform="translate(-357.259 -4346.602)" fill="#fff"/>
        <path id="Trazado_99399" data-name="Trazado 99399" d="M380.338,4354.077c.255,0,.412.107.372.245v.048h.627c.253,0,.41.1.371.235s-.263.245-.518.245h-.627l-.43,1.37h0a.274.274,0,0,1-.147.157.791.791,0,0,1-.645,0l-3.258-1.615h0v-.049h3.542v-.048C379.9,4354.194,380.095,4354.077,380.338,4354.077Zm-2.72.773,1.742.87.283-.87Z" transform="translate(-356.964 -4347.179)" fill="#fff"/>
        <path id="Trazado_99400" data-name="Trazado 99400" d="M379.045,4352.382a3.6,3.6,0,0,1,1.507-.322,2.439,2.439,0,0,1,1.292.322.643.643,0,0,1,.351.763h0a1.374,1.374,0,0,1-.821.763.743.743,0,0,1-.647,0c-.146-.1-.1-.253.108-.351a.767.767,0,0,0,.45-.421.34.34,0,0,0-.185-.411,1.3,1.3,0,0,0-.7-.177,1.96,1.96,0,0,0-.822.177.751.751,0,0,0-.45.411.344.344,0,0,0,.177.421c.147.1.088.253-.117.351l-.117.049h-.284l-2.055-.127a.453.453,0,0,1-.283-.118h0a.088.088,0,0,1,0-.108l.45-1.292c0-.137.283-.244.538-.244s.412.107.362.244l-.372,1.076.783.049a.783.783,0,0,1,0-.294A1.459,1.459,0,0,1,379.045,4352.382Z" transform="translate(-356.883 -4347.656)" fill="#fff"/>
      </g>
      <g id="freepik--speech-bubble--inject-11" transform="translate(182.558 71.867)">
        <path id="Trazado_99401" data-name="Trazado 99401" d="M526.48,4136.486a32.66,32.66,0,0,1-52.131,26.233l-16.037,4.08,6.664-14.9a32.671,32.671,0,1,1,61.466-15.411Z" transform="translate(-457.617 -4103.64)" fill="#fff"/>
        <path id="Trazado_99402" data-name="Trazado 99402" d="M526.613,4136.514a32.822,32.822,0,0,1-4.843,17.152,37.077,37.077,0,0,1-2.593,3.69,36.584,36.584,0,0,1-3.122,3.257c-.577.489-1.087,1.057-1.7,1.487l-1.81,1.36c-.6.449-1.272.812-1.9,1.214l-.978.6c-.323.187-.675.343-.979.51l-2.035.978-2.123.793a15.074,15.074,0,0,1-2.162.656c-.734.176-1.458.431-2.2.538a31.831,31.831,0,0,1-4.5.547,27.839,27.839,0,0,1-4.53,0,32.732,32.732,0,0,1-16.838-6.271l.293.06-15.978,4.168-.862.225.362-.822,6.624-14.911v.41a32.352,32.352,0,0,1-3.913-14.393,32.905,32.905,0,1,1,65.79-1.243Zm0,0a32.745,32.745,0,0,0-12.631-25.674,33.166,33.166,0,0,0-13.306-6.114,32.548,32.548,0,0,0-14.6.4,32.126,32.126,0,0,0-12.954,6.693,33.665,33.665,0,0,0-8.669,11.653,32.285,32.285,0,0,0,1.076,28.236l.108.206-.088.206-6.7,14.882-.5-.588,16.027-4.01h.157l.136.1a32.291,32.291,0,0,0,16.458,6.37,28.368,28.368,0,0,0,4.472.067,32.433,32.433,0,0,0,4.452-.478c.744-.109,1.458-.343,2.192-.51a14.883,14.883,0,0,0,2.152-.627l2.114-.753,2.025-.979c.342-.166.685-.313.978-.489l.979-.577c.635-.4,1.31-.743,1.908-1.185l1.81-1.34a20.155,20.155,0,0,0,1.7-1.468,37.162,37.162,0,0,0,3.132-3.229,35.672,35.672,0,0,0,2.6-3.67A32.743,32.743,0,0,0,526.613,4136.514Z" transform="translate(-457.75 -4103.667)" fill="#344154"/>
        <path id="Trazado_99403" data-name="Trazado 99403" d="M486.493,4150.349l-12.162-12.3,4.09-4.031,7.094,7.182,14.755-23.121,4.833,3.082Z" transform="translate(-453.832 -4100.262)" fill="#d9a171"/>
      </g>
    </g>
  </g>
</svg>
