<svg xmlns="http://www.w3.org/2000/svg" width="371.823" height="345.939" viewBox="0 0 371.823 345.939">
  <g id="Grupo_77230" data-name="Grupo 77230" transform="translate(-1772.959 -4379.726)">
    <g id="Grupo_58932" data-name="Grupo 58932" transform="translate(2080.039 4647.448)">
      <g id="Grupo_58926" data-name="Grupo 58926" transform="translate(0 18.995)">
        <path id="Trazado_102762" data-name="Trazado 102762" d="M2130.13,4712.521c-.253.759,8.6,34.392,8.6,34.392l6.069-1.265-8.345-33.126Z" transform="translate(-2130.125 -4712.521)" fill="#ececec"/>
      </g>
      <g id="Grupo_58927" data-name="Grupo 58927" transform="translate(34.903 14.19)">
        <path id="Trazado_102763" data-name="Trazado 102763" d="M2182.859,4706.933l-12.138,39.2h7.081l11.633-36.414Z" transform="translate(-2170.72 -4706.933)" fill="#aed3f2"/>
      </g>
      <g id="Grupo_58928" data-name="Grupo 58928" transform="translate(44.259 8.121)">
        <path id="Trazado_102764" data-name="Trazado 102764" d="M2195.512,4699.873,2181.6,4745.14h7.081l13.4-42.484Z" transform="translate(-2181.603 -4699.873)" fill="#ececec"/>
      </g>
      <g id="Grupo_58929" data-name="Grupo 58929" transform="translate(4.304 50.605)">
        <path id="Trazado_102765" data-name="Trazado 102765" d="M2135.131,4749.287l7.081,24.531h35.656l6.575-24.531Z" transform="translate(-2135.131 -4749.287)" fill="#e1e1e1"/>
      </g>
      <g id="Grupo_58931" data-name="Grupo 58931" transform="translate(4.987)">
        <g id="Grupo_58930" data-name="Grupo 58930">
          <path id="Trazado_102766" data-name="Trazado 102766" d="M2153.635,4741.033a1.3,1.3,0,0,1-.078-.252l-.19-.75c-.162-.69-.392-1.66-.684-2.9-.584-2.55-1.418-6.2-2.45-10.712-2.038-9.1-4.857-21.679-8-35.722l.218.176h-6.243l.217-.273c3.166,14.055,6,26.645,8.052,35.752,1,4.525,1.805,8.184,2.37,10.743.265,1.245.473,2.221.621,2.914.062.315.112.566.151.759a1.26,1.26,0,0,1,.037.263,1.175,1.175,0,0,1-.08-.252c-.05-.192-.112-.439-.192-.75-.167-.69-.4-1.66-.7-2.9-.6-2.551-1.45-6.2-2.505-10.711-2.086-9.1-4.969-21.679-8.188-35.722l-.062-.273h6.7l.039.175c3.093,14.054,5.862,26.644,7.867,35.751.974,4.525,1.763,8.184,2.314,10.743.259,1.245.462,2.221.605,2.914l.147.759A1.179,1.179,0,0,1,2153.635,4741.033Z" transform="translate(-2135.925 -4690.428)" fill="#e1e1e1"/>
        </g>
      </g>
    </g>
    <g id="Grupo_58934" data-name="Grupo 58934" transform="translate(1772.959 4723.384)">
      <g id="Grupo_58933" data-name="Grupo 58933" transform="translate(0 0)">
        <path id="Trazado_102767" data-name="Trazado 102767" d="M2137.577,4778.974c0,.123-81.63.224-182.3.224-100.706,0-182.318-.1-182.318-.224s81.612-.224,182.318-.224C2055.948,4778.75,2137.577,4778.85,2137.577,4778.974Z" transform="translate(-1772.959 -4778.75)" fill="#344154"/>
      </g>
    </g>
    <g id="Grupo_58951" data-name="Grupo 58951" transform="translate(2056.753 4488.607)">
      <g id="Grupo_58936" data-name="Grupo 58936" transform="translate(0)">
        <g id="Grupo_58935" data-name="Grupo 58935">
          <path id="Trazado_102768" data-name="Trazado 102768" d="M2160.4,4506.014a3.363,3.363,0,0,0-.61-.187,4.257,4.257,0,0,0-1.865.027,6.737,6.737,0,0,0-2.711,1.391,14.431,14.431,0,0,0-2.751,3.206c-1.758,2.7-3.148,6.429-4.764,10.781a158.067,158.067,0,0,0-4.849,15.157l0,.02-.007.012a4.457,4.457,0,0,1-1,1.241,1.98,1.98,0,0,1-1.564.5,2.888,2.888,0,0,1-1.439-.831c-.4-.372-.778-.769-1.157-1.168a26.784,26.784,0,0,0-2.383-2.324,4.393,4.393,0,0,0-3.013-1.231,4.072,4.072,0,0,0-2.762,1.841,6.927,6.927,0,0,0-.951,3.415c-.147,2.461.563,4.94.995,7.516q.719,3.854,1.472,7.9.376,2.021.761,4.087.192,1.033.386,2.076a2.694,2.694,0,0,1-.246,2.2,1.085,1.085,0,0,1-1.148.39,2.9,2.9,0,0,1-1.016-.53l-1.745-1.306a38.731,38.731,0,0,0-3.643-2.453,13.84,13.84,0,0,0-4.074-1.7,4.79,4.79,0,0,0-2.169.013,3.21,3.21,0,0,0-1.767,1.187,7.292,7.292,0,0,0-1.158,4.3,24.119,24.119,0,0,0,.451,4.661,59.409,59.409,0,0,0,2.621,9.266,12.269,12.269,0,0,1,.75,2.391,1.741,1.741,0,0,1-.318,1.327,1.555,1.555,0,0,1-.249.25.836.836,0,0,1-.334.2,1.031,1.031,0,0,1-.749-.166,12.82,12.82,0,0,1-1.989-1.582l-1.842-1.708a27.186,27.186,0,0,0-3.91-3.149,8.2,8.2,0,0,0-2.256-1.027,2.8,2.8,0,0,0-2.3.286,3.33,3.33,0,0,0-1.3,1.992,10.135,10.135,0,0,0-.307,2.515,21.251,21.251,0,0,0,.648,5.135,44.609,44.609,0,0,0,3.733,9.882,74.791,74.791,0,0,0,5.564,9.245,52.663,52.663,0,0,0,3.351,4.323q1.738,2.133,3.49,4.278l.041.049-.206-.08,5.465-.794a50.39,50.39,0,0,0,5.393-.929,74.931,74.931,0,0,0,10.34-3.1,44.7,44.7,0,0,0,9.413-4.8,21.247,21.247,0,0,0,3.934-3.367,10.166,10.166,0,0,0,1.467-2.068,3.341,3.341,0,0,0,.379-2.349,2.791,2.791,0,0,0-1.509-1.758,8.186,8.186,0,0,0-2.36-.758,27.433,27.433,0,0,0-5.013-.3l-2.513.025a12.852,12.852,0,0,1-2.536-.166,1.03,1.03,0,0,1-.666-.383.819.819,0,0,1-.113-.37,1.531,1.531,0,0,1-.016-.353,1.745,1.745,0,0,1,.657-1.2,12.258,12.258,0,0,1,2.165-1.263,59.593,59.593,0,0,0,8.172-5.1,24.035,24.035,0,0,0,3.467-3.148,7.283,7.283,0,0,0,2.029-3.96,3.208,3.208,0,0,0-.514-2.064,4.8,4.8,0,0,0-1.6-1.468,13.936,13.936,0,0,0-4.157-1.482,39.02,39.02,0,0,0-4.346-.633l-2.17-.206a2.9,2.9,0,0,1-1.109-.295,1.086,1.086,0,0,1-.579-1.066,2.713,2.713,0,0,1,1.3-1.791q.846-.641,1.682-1.277l3.31-2.513,6.4-4.856c2.052-1.616,4.244-2.973,5.789-4.894a6.92,6.92,0,0,0,1.589-3.168,4.068,4.068,0,0,0-.811-3.218,2.96,2.96,0,0,0-1.407-.841,6.781,6.781,0,0,0-1.652-.271,26.393,26.393,0,0,0-3.325.119c-.548.041-1.094.08-1.641.085a2.889,2.889,0,0,1-1.624-.354,1.977,1.977,0,0,1-.82-1.421,4.417,4.417,0,0,1,.092-1.591l0-.013.009-.019a157.819,157.819,0,0,0,6.592-14.454c1.726-4.3,3.2-7.989,3.737-11.157a14.606,14.606,0,0,0,.17-4.214,6.836,6.836,0,0,0-1-2.874,4.118,4.118,0,0,0-1.331-1.3,3.122,3.122,0,0,0-.573-.277,2.265,2.265,0,0,1,.591.245,4.033,4.033,0,0,1,1.375,1.29,6.84,6.84,0,0,1,1.048,2.9,14.555,14.555,0,0,1-.136,4.253c-.515,3.2-1.978,6.906-3.685,11.211a155.53,155.53,0,0,1-6.551,14.508l.012-.031a4.165,4.165,0,0,0-.081,1.482,1.7,1.7,0,0,0,.7,1.227,2.614,2.614,0,0,0,1.467.3c.532-.007,1.074-.047,1.621-.09a26.785,26.785,0,0,1,3.364-.128,7.115,7.115,0,0,1,1.727.281,3.274,3.274,0,0,1,1.545.922,4.371,4.371,0,0,1,.9,3.479,7.229,7.229,0,0,1-1.65,3.322c-1.587,1.978-3.8,3.353-5.84,4.966l-6.384,4.865-3.3,2.517-1.679,1.279a3.9,3.9,0,0,0-.763.672,1.717,1.717,0,0,0-.4.86.7.7,0,0,0,.391.706,2.537,2.537,0,0,0,.967.247l2.164.2a39.644,39.644,0,0,1,4.39.634,14.227,14.227,0,0,1,4.28,1.524,5.178,5.178,0,0,1,1.728,1.589,3.611,3.611,0,0,1,.58,2.311,7.653,7.653,0,0,1-2.122,4.2,24.472,24.472,0,0,1-3.523,3.207,59.78,59.78,0,0,1-8.225,5.144,12.176,12.176,0,0,0-2.081,1.209,1.322,1.322,0,0,0-.515.906,1.193,1.193,0,0,0,.012.266c.012.068.035.23.061.216a.725.725,0,0,0,.4.185,12.621,12.621,0,0,0,2.435.152l2.51-.027a27.779,27.779,0,0,1,5.094.3,8.617,8.617,0,0,1,2.489.8,3.229,3.229,0,0,1,1.725,2.036,3.77,3.77,0,0,1-.411,2.649,10.575,10.575,0,0,1-1.529,2.164,21.7,21.7,0,0,1-4.012,3.438,45.137,45.137,0,0,1-9.5,4.857,75.177,75.177,0,0,1-10.406,3.123,50.509,50.509,0,0,1-5.413.934l-5.474.8-.125.019-.08-.1-.04-.05-3.5-4.284a53.309,53.309,0,0,1-3.362-4.339,75.195,75.195,0,0,1-5.6-9.306,45.086,45.086,0,0,1-3.766-9.981,21.606,21.606,0,0,1-.656-5.24,10.524,10.524,0,0,1,.324-2.629,3.766,3.766,0,0,1,1.479-2.235,3.235,3.235,0,0,1,2.645-.345,8.583,8.583,0,0,1,2.38,1.081,27.778,27.778,0,0,1,3.973,3.2l1.838,1.708a12.625,12.625,0,0,0,1.9,1.524.739.739,0,0,0,.421.134c.009.027.136-.075.19-.119a1.1,1.1,0,0,0,.187-.188,1.319,1.319,0,0,0,.23-1.016,12.139,12.139,0,0,0-.727-2.293,59.925,59.925,0,0,1-2.63-9.336,24.494,24.494,0,0,1-.451-4.741,7.651,7.651,0,0,1,1.249-4.534,3.6,3.6,0,0,1,1.979-1.325,5.2,5.2,0,0,1,2.348-.018,14.281,14.281,0,0,1,4.193,1.748,39.227,39.227,0,0,1,3.676,2.483l1.738,1.3a2.546,2.546,0,0,0,.882.47.7.7,0,0,0,.765-.252,1.7,1.7,0,0,0,.289-.9,3.893,3.893,0,0,0-.111-1.011q-.193-1.043-.383-2.076-.381-2.062-.752-4.083-.745-4.039-1.455-7.9c-.423-2.564-1.139-5.071-.985-7.6a7.246,7.246,0,0,1,1.01-3.571,4.375,4.375,0,0,1,3-1.975,3.262,3.262,0,0,1,1.764.354,7.11,7.11,0,0,1,1.468.952,26.7,26.7,0,0,1,2.4,2.358c.377.4.75.793,1.139,1.157a2.631,2.631,0,0,0,1.289.763,1.7,1.7,0,0,0,1.346-.435,4.153,4.153,0,0,0,.937-1.152l-.012.031a156.186,156.186,0,0,1,4.916-15.169c1.635-4.343,3.049-8.083,4.84-10.787a14.38,14.38,0,0,1,2.8-3.213,6.759,6.759,0,0,1,2.765-1.378,4.171,4.171,0,0,1,1.889.009A2.375,2.375,0,0,1,2160.4,4506.014Z" transform="translate(-2103.042 -4505.68)" fill="#344154"/>
        </g>
      </g>
      <g id="Grupo_58938" data-name="Grupo 58938" transform="translate(11.988 12.031)">
        <g id="Grupo_58937" data-name="Grupo 58937">
          <path id="Trazado_102769" data-name="Trazado 102769" d="M2157.84,4519.672a1.4,1.4,0,0,1-.087.281l-.3.808c-.28.733-.676,1.77-1.18,3.092-1.044,2.708-2.535,6.58-4.375,11.354l-14.279,37.517c-5.558,14.664-10.64,27.919-14.406,37.479-1.881,4.782-3.421,8.643-4.507,11.3l-1.258,3.06-.338.792a1.451,1.451,0,0,1-.129.264,1.355,1.355,0,0,1,.087-.28l.3-.809c.281-.732.676-1.769,1.18-3.091l4.375-11.354,14.282-37.523c5.555-14.659,10.637-27.914,14.4-37.474,1.881-4.781,3.421-8.643,4.508-11.3l1.258-3.06.338-.792A1.487,1.487,0,0,1,2157.84,4519.672Z" transform="translate(-2116.985 -4519.672)" fill="#344154"/>
        </g>
      </g>
      <g id="Grupo_58940" data-name="Grupo 58940" transform="translate(38.277 41.695)">
        <g id="Grupo_58939" data-name="Grupo 58939">
          <path id="Trazado_102770" data-name="Trazado 102770" d="M2162.591,4554.18a15.138,15.138,0,0,1-2.151,1.277l-5.266,2.929c-2.059,1.145-3.933,2.164-5.316,2.856a11.447,11.447,0,0,1-2.3,1,17.667,17.667,0,0,1,2.147-1.28l5.248-2.968c2.059-1.145,3.948-2.141,5.336-2.82A12.694,12.694,0,0,1,2162.591,4554.18Z" transform="translate(-2147.561 -4554.175)" fill="#344154"/>
        </g>
      </g>
      <g id="Grupo_58942" data-name="Grupo 58942" transform="translate(28.844 31.618)">
        <g id="Grupo_58941" data-name="Grupo 58941">
          <path id="Trazado_102771" data-name="Trazado 102771" d="M2145.325,4560.081c-.111.055-2.156-3.847-4.566-8.713s-4.276-8.858-4.165-8.913,2.154,3.846,4.566,8.714S2145.436,4560.027,2145.325,4560.081Z" transform="translate(-2136.59 -4542.454)" fill="#344154"/>
        </g>
      </g>
      <g id="Grupo_58944" data-name="Grupo 58944" transform="translate(18.821 58.862)">
        <g id="Grupo_58943" data-name="Grupo 58943">
          <path id="Trazado_102772" data-name="Trazado 102772" d="M2136.173,4587.425a13.185,13.185,0,0,1-1.89-1.722c-1.115-1.118-2.614-2.7-4.168-4.547s-2.88-3.578-3.794-4.865a12.98,12.98,0,0,1-1.385-2.149,16.345,16.345,0,0,1,1.638,1.96c.977,1.235,2.331,2.934,3.884,4.765s3,3.448,4.055,4.619A15.964,15.964,0,0,1,2136.173,4587.425Z" transform="translate(-2124.932 -4574.141)" fill="#344154"/>
        </g>
      </g>
      <g id="Grupo_58946" data-name="Grupo 58946" transform="translate(30.077 68.438)">
        <g id="Grupo_58945" data-name="Grupo 58945">
          <path id="Trazado_102773" data-name="Trazado 102773" d="M2153.736,4585.294a12.405,12.405,0,0,1-2.267.663c-1.413.355-3.372.814-5.54,1.294s-4.14.891-5.57,1.166a1.183,1.183,0,1,1-.069-.31c1.413-.354,3.371-.813,5.541-1.294s4.138-.891,5.569-1.166A12.167,12.167,0,0,1,2153.736,4585.294Z" transform="translate(-2138.025 -4585.28)" fill="#344154"/>
        </g>
      </g>
      <g id="Grupo_58948" data-name="Grupo 58948" transform="translate(21.541 89.5)">
        <g id="Grupo_58947" data-name="Grupo 58947">
          <path id="Trazado_102774" data-name="Trazado 102774" d="M2148.275,4609.788a20.227,20.227,0,0,1-2.922.78c-1.817.425-4.335.982-7.12,1.572s-5.314,1.1-7.149,1.445a1.514,1.514,0,1,1-.065-.311c1.817-.426,4.335-.983,7.122-1.572s5.312-1.1,7.147-1.444A20.363,20.363,0,0,1,2148.275,4609.788Z" transform="translate(-2128.096 -4609.777)" fill="#344154"/>
        </g>
      </g>
      <g id="Grupo_58950" data-name="Grupo 58950" transform="translate(8.195 76.3)">
        <g id="Grupo_58949" data-name="Grupo 58949">
          <path id="Trazado_102775" data-name="Trazado 102775" d="M2126.373,4611.663a3.307,3.307,0,0,1-.646-.587c-.4-.4-.951-.985-1.627-1.723-1.348-1.479-3.166-3.563-5.073-5.95s-3.55-4.613-4.695-6.253c-.574-.821-1.025-1.494-1.325-1.966a.438.438,0,1,1,.142-.1l1.439,1.88c1.208,1.59,2.883,3.782,4.789,6.161s3.676,4.491,4.962,6.021A25.632,25.632,0,0,1,2126.373,4611.663Z" transform="translate(-2112.573 -4594.425)" fill="#344154"/>
        </g>
      </g>
    </g>
    <g id="Grupo_58971" data-name="Grupo 58971" transform="translate(2054.359 4535.366)">
      <g id="Grupo_58953" data-name="Grupo 58953">
        <g id="Grupo_58952" data-name="Grupo 58952">
          <path id="Trazado_102776" data-name="Trazado 102776" d="M2116.046,4664.437c-14.929-12.031-17.092-32.609-15.217-50.846.312-3.045.2-6.284,1.833-8.861s5.148-4.175,7.791-2.7c2.192,1.222,3,3.926,4.117,6.193a17.893,17.893,0,0,0,6.687,7.325c1.874,1.14,4.236,1.923,6.226,1,2.732-1.272,3.291-4.886,3.48-7.923q.529-8.489,1.058-16.975a28.363,28.363,0,0,1,1.534-8.95c1.142-2.815,3.411-5.349,6.353-5.958s6.4,1.3,6.8,4.311a28.178,28.178,0,0,1-.173,3.784c0,1.266.489,2.7,1.661,3.133,1.188.438,2.461-.339,3.429-1.164,3.342-2.849,5.738-6.652,7.994-10.44s4.459-7.675,7.531-10.823,7.184-5.526,11.548-5.473,8.809,3.052,9.615,7.394-1.986,8.523-4.939,11.8a67.925,67.925,0,0,1-15.026,12.476,5.594,5.594,0,0,0-2.533,2.375c-.8,1.979.981,4.119,2.933,4.921,2.21.908,4.68.842,7.028,1.283s4.839,1.66,5.581,3.958c1.03,3.188-1.786,6.261-4.485,8.215a58.21,58.21,0,0,1-17.854,8.736c-2.289.663-4.687,1.22-6.594,2.663s-3.181,4.1-2.24,6.31,3.686,3.09,6.054,2.817,4.547-1.4,6.833-2.087c4.278-1.288,9.644-.631,12.069,3.157a9.626,9.626,0,0,1,.439,8.562,22.175,22.175,0,0,1-5.115,7.185,58.489,58.489,0,0,1-26.117,15.8c-9.9,2.691-18.93,2.983-28.3-1.192" transform="translate(-2100.257 -4560.063)" fill="#d9a171"/>
        </g>
      </g>
      <g id="Grupo_58955" data-name="Grupo 58955" opacity="0.1">
        <g id="Grupo_58954" data-name="Grupo 58954">
          <path id="Trazado_102777" data-name="Trazado 102777" d="M2116.046,4664.437c-14.929-12.031-17.092-32.609-15.217-50.846.312-3.045.2-6.284,1.833-8.861s5.148-4.175,7.791-2.7c2.192,1.222,3,3.926,4.117,6.193a17.893,17.893,0,0,0,6.687,7.325c1.874,1.14,4.236,1.923,6.226,1,2.732-1.272,3.291-4.886,3.48-7.923q.529-8.489,1.058-16.975a28.363,28.363,0,0,1,1.534-8.95c1.142-2.815,3.411-5.349,6.353-5.958s6.4,1.3,6.8,4.311a28.178,28.178,0,0,1-.173,3.784c0,1.266.489,2.7,1.661,3.133,1.188.438,2.461-.339,3.429-1.164,3.342-2.849,5.738-6.652,7.994-10.44s4.459-7.675,7.531-10.823,7.184-5.526,11.548-5.473,8.809,3.052,9.615,7.394-1.986,8.523-4.939,11.8a67.925,67.925,0,0,1-15.026,12.476,5.594,5.594,0,0,0-2.533,2.375c-.8,1.979.981,4.119,2.933,4.921,2.21.908,4.68.842,7.028,1.283s4.839,1.66,5.581,3.958c1.03,3.188-1.786,6.261-4.485,8.215a58.21,58.21,0,0,1-17.854,8.736c-2.289.663-4.687,1.22-6.594,2.663s-3.181,4.1-2.24,6.31,3.686,3.09,6.054,2.817,4.547-1.4,6.833-2.087c4.278-1.288,9.644-.631,12.069,3.157a9.626,9.626,0,0,1,.439,8.562,22.175,22.175,0,0,1-5.115,7.185,58.489,58.489,0,0,1-26.117,15.8c-9.9,2.691-18.93,2.983-28.3-1.192" transform="translate(-2100.257 -4560.063)" fill="#d9a171"/>
        </g>
      </g>
      <g id="Grupo_58958" data-name="Grupo 58958" transform="translate(14.619 2.932)">
        <g id="Grupo_58957" data-name="Grupo 58957">
          <g id="Grupo_58956" data-name="Grupo 58956">
            <path id="Trazado_102778" data-name="Trazado 102778" d="M2117.261,4678.451a133.525,133.525,0,0,1,6.674-24.671,272.656,272.656,0,0,1,12.8-28.536q1.894-3.7,3.74-7.307c1.233-2.4,2.455-4.771,3.795-7.021a136.155,136.155,0,0,1,8.438-12.486c2.876-3.843,5.745-7.383,8.452-10.674s5.3-6.3,7.78-8.951a107.948,107.948,0,0,1,12.6-11.614c1.59-1.251,2.854-2.18,3.72-2.8l.989-.7a2.1,2.1,0,0,1,.348-.221,2.213,2.213,0,0,1-.315.269l-.956.741c-.843.648-2.086,1.6-3.653,2.878a114.322,114.322,0,0,0-12.449,11.716c-2.451,2.658-5.016,5.681-7.711,8.977s-5.541,6.848-8.4,10.688a137.756,137.756,0,0,0-8.376,12.456c-1.33,2.24-2.539,4.6-3.773,7s-2.474,4.839-3.737,7.3a279.383,279.383,0,0,0-12.817,28.461,135.814,135.814,0,0,0-6.766,24.553" transform="translate(-2117.261 -4563.473)" fill="#344154"/>
          </g>
        </g>
      </g>
      <g id="Grupo_58961" data-name="Grupo 58961" transform="translate(39.636 16.673)">
        <g id="Grupo_58960" data-name="Grupo 58960">
          <g id="Grupo_58959" data-name="Grupo 58959">
            <path id="Trazado_102779" data-name="Trazado 102779" d="M2148.514,4613.147a6.1,6.1,0,0,1-.208-1.315c-.1-.85-.208-2.083-.318-3.609-.222-3.051-.384-7.275-.546-11.932s-.383-8.869-.651-11.909c-.13-1.52-.247-2.75-.339-3.6a6.149,6.149,0,0,1-.079-1.33,6.021,6.021,0,0,1,.294,1.3c.159.842.336,2.068.516,3.587.37,3.04.656,7.264.818,11.927.148,4.6.28,8.755.383,11.932.055,1.435.1,2.645.14,3.615A6.136,6.136,0,0,1,2148.514,4613.147Z" transform="translate(-2146.357 -4579.456)" fill="#344154"/>
          </g>
        </g>
      </g>
      <g id="Grupo_58964" data-name="Grupo 58964" transform="translate(41.792 45.542)">
        <g id="Grupo_58963" data-name="Grupo 58963">
          <g id="Grupo_58962" data-name="Grupo 58962">
            <path id="Trazado_102780" data-name="Trazado 102780" d="M2188.382,4613.24a8.448,8.448,0,0,1-1.569.079c-1.007.021-2.465.042-4.264.127-3.6.14-8.565.51-14.027,1.154s-10.379,1.461-13.919,2.146c-1.773.33-3.2.634-4.189.84a.788.788,0,1,1-.05-.215c.975-.271,2.394-.636,4.161-1.018,3.53-.787,8.455-1.656,13.933-2.315a138.206,138.206,0,0,1,14.081-.992c1.807-.034,3.269.006,4.278.054A8.3,8.3,0,0,1,2188.382,4613.24Z" transform="translate(-2148.865 -4613.034)" fill="#344154"/>
          </g>
        </g>
      </g>
      <g id="Grupo_58967" data-name="Grupo 58967" transform="translate(5.593 41.375)">
        <g id="Grupo_58966" data-name="Grupo 58966">
          <g id="Grupo_58965" data-name="Grupo 58965">
            <path id="Trazado_102781" data-name="Trazado 102781" d="M2122.992,4659.366a2.03,2.03,0,0,1-.235-.494l-.571-1.458c-.49-1.267-1.151-3.121-1.936-5.421-1.576-4.6-3.552-11.021-5.638-18.134s-4-13.548-5.479-18.172l-1.766-5.474c-.189-.6-.345-1.089-.472-1.493a1.958,1.958,0,0,1-.129-.534,2.119,2.119,0,0,1,.234.5c.155.394.342.874.571,1.457.489,1.267,1.15,3.12,1.936,5.42,1.576,4.6,3.552,11.02,5.639,18.137s4,13.546,5.478,18.172c.727,2.248,1.322,4.1,1.766,5.472.189.6.345,1.089.472,1.492A2.063,2.063,0,0,1,2122.992,4659.366Z" transform="translate(-2106.762 -4608.188)" fill="#344154"/>
          </g>
        </g>
      </g>
      <g id="Grupo_58970" data-name="Grupo 58970" transform="translate(21.822 79.394)">
        <g id="Grupo_58969" data-name="Grupo 58969">
          <g id="Grupo_58968" data-name="Grupo 58968">
            <path id="Trazado_102782" data-name="Trazado 102782" d="M2178.631,4652.413a2.048,2.048,0,0,1-.529.178c-.415.107-.924.24-1.541.4l-5.675,1.417c-4.792,1.2-11.391,2.932-18.681,4.854s-13.914,3.6-18.733,4.7c-2.408.549-4.362.976-5.717,1.242l-1.564.3a2.042,2.042,0,0,1-.553.065,2.1,2.1,0,0,1,.529-.178l1.541-.4,5.675-1.419c4.792-1.2,11.392-2.931,18.685-4.854s13.91-3.6,18.728-4.7c2.409-.551,4.363-.978,5.719-1.244l1.564-.3A2.066,2.066,0,0,1,2178.631,4652.413Z" transform="translate(-2125.639 -4652.407)" fill="#344154"/>
          </g>
        </g>
      </g>
    </g>
    <g id="Grupo_59030" data-name="Grupo 59030" transform="translate(1865.121 4379.727)">
      <g id="Grupo_58972" data-name="Grupo 58972" transform="translate(0 22.674)">
        <rect id="Rect치ngulo_5480" data-name="Rect치ngulo 5480" width="208.499" height="285.703" fill="#5e6178"/>
      </g>
      <g id="Grupo_58973" data-name="Grupo 58973" transform="translate(17.361 34.221)">
        <path id="Trazado_102783" data-name="Trazado 102783" d="M2083.242,4676.006h-182.9V4418.843h182.9v257.163Z" transform="translate(-1900.345 -4418.843)" fill="#e1e1e1"/>
      </g>
      <g id="Grupo_58974" data-name="Grupo 58974" transform="translate(16.12 30.821)">
        <path id="Trazado_102784" data-name="Trazado 102784" d="M2080.151,4670.68H1898.9V4414.887h181.249V4670.68Z" transform="translate(-1898.902 -4414.887)" fill="#ececec"/>
      </g>
      <g id="Grupo_58978" data-name="Grupo 58978" transform="translate(12.512 31.245)">
        <g id="Grupo_58975" data-name="Grupo 58975" transform="translate(0.224 0.224)">
          <path id="Trazado_102785" data-name="Trazado 102785" d="M2060.123,4650.879l-20.876,17h-144.28V4415.641h182.9V4636.5Z" transform="translate(-1894.966 -4415.641)" fill="#fafafa"/>
        </g>
        <g id="Grupo_58977" data-name="Grupo 58977">
          <g id="Grupo_58976" data-name="Grupo 58976">
            <path id="Trazado_102786" data-name="Trazado 102786" d="M2060.086,4650.843s.37-.316,1.114-.928l3.344-2.733,13.237-10.774-.026.054c-.021-36.278-.07-116.891-.132-220.856l.2.2c-54.464.007-116.173.014-181.3.021h-1.6l.223-.223c-.016,94.828-.032,182.31-.044,252.236l-.18-.178,144.281.1-.048.019,15.677-12.718q2.616-2.113,3.928-3.174c.875-.7,1.319-1.048,1.319-1.048s-.427.365-1.294,1.079l-3.9,3.2-15.631,12.774-.02.018h-.028c-27.826.019-78.42.055-144.281.1h-.179v-.18c-.012-69.927-.027-157.408-.044-252.236v-.224h1.82l181.3.022h.2v.2c-.062,103.965-.109,184.578-.13,220.856v.036l-.027.021c-5.859,4.728-10.3,8.314-13.28,10.72l-3.367,2.707C2060.471,4650.546,2060.086,4650.843,2060.086,4650.843Z" transform="translate(-1894.706 -4415.381)" fill="#344154"/>
          </g>
        </g>
      </g>
      <g id="Grupo_58979" data-name="Grupo 58979" transform="translate(66.822 13.842)">
        <path id="Rect치ngulo_5481" data-name="Rect치ngulo 5481" d="M14.757,0H60.7A14.154,14.154,0,0,1,74.855,14.154V25.661a0,0,0,0,1,0,0H0a0,0,0,0,1,0,0v-10.9A14.757,14.757,0,0,1,14.757,0Z" fill="#d9a171"/>
      </g>
      <g id="Grupo_58980" data-name="Grupo 58980" transform="translate(82.42 0)">
        <path id="Trazado_102787" data-name="Trazado 102787" d="M1978.752,4392.88l-2.736-13.842h43.1l-2.395,13.842Z" transform="translate(-1976.016 -4379.039)" fill="#d9a171"/>
      </g>
      <g id="Grupo_58990" data-name="Grupo 58990" transform="translate(31.866 71.655)">
        <g id="Grupo_58981" data-name="Grupo 58981">
          <path id="Trazado_102788" data-name="Trazado 102788" d="M1948.029,4493.2h-30.813v-30.813h30.813Zm-29.954-.86h29.094v-29.094h-29.094Z" transform="translate(-1917.216 -4462.382)" fill="#d9a171"/>
        </g>
        <g id="Grupo_58983" data-name="Grupo 58983" transform="translate(43.892 7.217)">
          <g id="Grupo_58982" data-name="Grupo 58982">
            <path id="Trazado_102789" data-name="Trazado 102789" d="M2064.071,4471c0,.123-21.448.223-47.9.223s-47.9-.1-47.9-.223,21.444-.225,47.9-.225S2064.071,4470.877,2064.071,4471Z" transform="translate(-1968.267 -4470.776)" fill="#344154"/>
          </g>
        </g>
        <g id="Grupo_58985" data-name="Grupo 58985" transform="translate(43.892 13.621)">
          <g id="Grupo_58984" data-name="Grupo 58984">
            <path id="Trazado_102790" data-name="Trazado 102790" d="M2064.071,4478.448c0,.124-21.448.224-47.9.224s-47.9-.1-47.9-.224,21.444-.224,47.9-.224S2064.071,4478.324,2064.071,4478.448Z" transform="translate(-1968.267 -4478.224)" fill="#344154"/>
          </g>
        </g>
        <g id="Grupo_58987" data-name="Grupo 58987" transform="translate(43.892 20.023)">
          <g id="Grupo_58986" data-name="Grupo 58986">
            <path id="Trazado_102791" data-name="Trazado 102791" d="M2064.071,4485.895c0,.125-21.448.225-47.9.225s-47.9-.1-47.9-.225,21.444-.223,47.9-.223S2064.071,4485.771,2064.071,4485.895Z" transform="translate(-1968.267 -4485.671)" fill="#344154"/>
          </g>
        </g>
        <g id="Grupo_58989" data-name="Grupo 58989" transform="translate(43.892 26.426)">
          <g id="Grupo_58988" data-name="Grupo 58988">
            <path id="Trazado_102792" data-name="Trazado 102792" d="M2064.071,4493.342c0,.124-21.448.224-47.9.224s-47.9-.1-47.9-.224,21.444-.224,47.9-.224S2064.071,4493.219,2064.071,4493.342Z" transform="translate(-1968.267 -4493.118)" fill="#344154"/>
          </g>
        </g>
      </g>
      <g id="Grupo_59001" data-name="Grupo 59001" transform="translate(31.866 119.143)">
        <g id="Grupo_58991" data-name="Grupo 58991">
          <path id="Trazado_102793" data-name="Trazado 102793" d="M1948.029,4548.429h-30.813v-30.813h30.813Zm-29.954-.861h29.094v-29.093h-29.094Z" transform="translate(-1917.216 -4517.615)" fill="#d9a171"/>
        </g>
        <g id="Grupo_58992" data-name="Grupo 58992" transform="translate(6.128 1.951)">
          <path id="Trazado_102794" data-name="Trazado 102794" d="M1924.343,4533.975l4.09-4.4,6.818,5.455,15.6-15.15,3.738,4.406-19.646,19.379Z" transform="translate(-1924.343 -4519.885)" fill="#d9a171"/>
        </g>
        <g id="Grupo_58994" data-name="Grupo 58994" transform="translate(43.892 7.217)">
          <g id="Grupo_58993" data-name="Grupo 58993">
            <path id="Trazado_102795" data-name="Trazado 102795" d="M2064.071,4526.233c0,.124-21.448.224-47.9.224s-47.9-.1-47.9-.224,21.444-.224,47.9-.224S2064.071,4526.109,2064.071,4526.233Z" transform="translate(-1968.267 -4526.01)" fill="#344154"/>
          </g>
        </g>
        <g id="Grupo_58996" data-name="Grupo 58996" transform="translate(43.892 13.62)">
          <g id="Grupo_58995" data-name="Grupo 58995">
            <path id="Trazado_102796" data-name="Trazado 102796" d="M2064.071,4533.681c0,.123-21.448.225-47.9.225s-47.9-.1-47.9-.225,21.444-.224,47.9-.224S2064.071,4533.557,2064.071,4533.681Z" transform="translate(-1968.267 -4533.457)" fill="#344154"/>
          </g>
        </g>
        <g id="Grupo_58998" data-name="Grupo 58998" transform="translate(43.892 20.023)">
          <g id="Grupo_58997" data-name="Grupo 58997">
            <path id="Trazado_102797" data-name="Trazado 102797" d="M2064.071,4541.128c0,.123-21.448.223-47.9.223s-47.9-.1-47.9-.223,21.444-.225,47.9-.225S2064.071,4541,2064.071,4541.128Z" transform="translate(-1968.267 -4540.903)" fill="#344154"/>
          </g>
        </g>
        <g id="Grupo_59000" data-name="Grupo 59000" transform="translate(43.892 26.426)">
          <g id="Grupo_58999" data-name="Grupo 58999">
            <path id="Trazado_102798" data-name="Trazado 102798" d="M2064.071,4548.575c0,.123-21.448.223-47.9.223s-47.9-.1-47.9-.223,21.444-.225,47.9-.225S2064.071,4548.451,2064.071,4548.575Z" transform="translate(-1968.267 -4548.35)" fill="#344154"/>
          </g>
        </g>
      </g>
      <g id="Grupo_59012" data-name="Grupo 59012" transform="translate(31.866 165.096)">
        <g id="Grupo_59002" data-name="Grupo 59002">
          <path id="Trazado_102799" data-name="Trazado 102799" d="M1948.029,4601.876h-30.813v-30.813h30.813Zm-29.954-.86h29.094v-29.094h-29.094Z" transform="translate(-1917.216 -4571.063)" fill="#d9a171"/>
        </g>
        <g id="Grupo_59003" data-name="Grupo 59003" transform="translate(6.128 1.951)">
          <path id="Trazado_102800" data-name="Trazado 102800" d="M1924.343,4587.422l4.09-4.394,6.818,5.455,15.6-15.15,3.738,4.406-19.646,19.379Z" transform="translate(-1924.343 -4573.333)" fill="#d9a171"/>
        </g>
        <g id="Grupo_59005" data-name="Grupo 59005" transform="translate(43.892 7.218)">
          <g id="Grupo_59004" data-name="Grupo 59004">
            <path id="Trazado_102801" data-name="Trazado 102801" d="M2064.071,4579.681c0,.124-21.448.224-47.9.224s-47.9-.1-47.9-.224,21.444-.223,47.9-.223S2064.071,4579.558,2064.071,4579.681Z" transform="translate(-1968.267 -4579.458)" fill="#344154"/>
          </g>
        </g>
        <g id="Grupo_59007" data-name="Grupo 59007" transform="translate(43.892 13.62)">
          <g id="Grupo_59006" data-name="Grupo 59006">
            <path id="Trazado_102802" data-name="Trazado 102802" d="M2064.071,4587.128c0,.124-21.448.224-47.9.224s-47.9-.1-47.9-.224,21.444-.224,47.9-.224S2064.071,4587,2064.071,4587.128Z" transform="translate(-1968.267 -4586.904)" fill="#344154"/>
          </g>
        </g>
        <g id="Grupo_59009" data-name="Grupo 59009" transform="translate(43.892 20.023)">
          <g id="Grupo_59008" data-name="Grupo 59008">
            <path id="Trazado_102803" data-name="Trazado 102803" d="M2064.071,4594.576c0,.123-21.448.223-47.9.223s-47.9-.1-47.9-.223,21.444-.225,47.9-.225S2064.071,4594.453,2064.071,4594.576Z" transform="translate(-1968.267 -4594.352)" fill="#344154"/>
          </g>
        </g>
        <g id="Grupo_59011" data-name="Grupo 59011" transform="translate(43.892 26.426)">
          <g id="Grupo_59010" data-name="Grupo 59010">
            <path id="Trazado_102804" data-name="Trazado 102804" d="M2064.071,4602.023c0,.125-21.448.224-47.9.224s-47.9-.1-47.9-.224,21.444-.224,47.9-.224S2064.071,4601.9,2064.071,4602.023Z" transform="translate(-1968.267 -4601.8)" fill="#344154"/>
          </g>
        </g>
      </g>
      <g id="Grupo_59023" data-name="Grupo 59023" transform="translate(31.866 209.465)">
        <g id="Grupo_59013" data-name="Grupo 59013">
          <path id="Trazado_102805" data-name="Trazado 102805" d="M1948.029,4653.481h-30.813v-30.812h30.813Zm-29.954-.859h29.094v-29.093h-29.094Z" transform="translate(-1917.216 -4622.669)" fill="#d9a171"/>
        </g>
        <g id="Grupo_59014" data-name="Grupo 59014" transform="translate(6.128 1.951)">
          <path id="Trazado_102806" data-name="Trazado 102806" d="M1924.343,4639.028l4.09-4.394,6.818,5.454,15.6-15.15,3.738,4.407-19.646,19.379Z" transform="translate(-1924.343 -4624.938)" fill="#d9a171"/>
        </g>
        <g id="Grupo_59016" data-name="Grupo 59016" transform="translate(43.892 7.217)">
          <g id="Grupo_59015" data-name="Grupo 59015">
            <path id="Trazado_102807" data-name="Trazado 102807" d="M2064.071,4631.287c0,.123-21.448.224-47.9.224s-47.9-.1-47.9-.224,21.444-.225,47.9-.225S2064.071,4631.163,2064.071,4631.287Z" transform="translate(-1968.267 -4631.063)" fill="#344154"/>
          </g>
        </g>
        <g id="Grupo_59018" data-name="Grupo 59018" transform="translate(43.892 13.619)">
          <g id="Grupo_59017" data-name="Grupo 59017">
            <path id="Trazado_102808" data-name="Trazado 102808" d="M2064.071,4638.734c0,.123-21.448.222-47.9.222s-47.9-.1-47.9-.222,21.444-.225,47.9-.225S2064.071,4638.61,2064.071,4638.734Z" transform="translate(-1968.267 -4638.509)" fill="#344154"/>
          </g>
        </g>
        <g id="Grupo_59020" data-name="Grupo 59020" transform="translate(43.892 20.023)">
          <g id="Grupo_59019" data-name="Grupo 59019">
            <path id="Trazado_102809" data-name="Trazado 102809" d="M2064.071,4646.182c0,.123-21.448.224-47.9.224s-47.9-.1-47.9-.224,21.444-.224,47.9-.224S2064.071,4646.058,2064.071,4646.182Z" transform="translate(-1968.267 -4645.958)" fill="#344154"/>
          </g>
        </g>
        <g id="Grupo_59022" data-name="Grupo 59022" transform="translate(43.892 26.426)">
          <g id="Grupo_59021" data-name="Grupo 59021">
            <path id="Trazado_102810" data-name="Trazado 102810" d="M2064.071,4653.628c0,.124-21.448.224-47.9.224s-47.9-.1-47.9-.224,21.444-.224,47.9-.224S2064.071,4653.505,2064.071,4653.628Z" transform="translate(-1968.267 -4653.404)" fill="#344154"/>
          </g>
        </g>
      </g>
      <g id="Grupo_59024" data-name="Grupo 59024" transform="translate(142.7 241.945)">
        <path id="Trazado_102811" data-name="Trazado 102811" d="M2066.18,4660.448l-20.052,41.527h14.316Z" transform="translate(-2046.128 -4660.448)" fill="#e1e1e1"/>
      </g>
      <g id="Grupo_59028" data-name="Grupo 59028" transform="translate(157.016 241.905)">
        <g id="Grupo_59025" data-name="Grupo 59025" transform="translate(0.001 0.275)">
          <path id="Trazado_102812" data-name="Trazado 102812" d="M2062.78,4702.246l5.735-41.527,32.882,10.148Z" transform="translate(-2062.78 -4660.719)" fill="#fafafa"/>
        </g>
        <g id="Grupo_59027" data-name="Grupo 59027">
          <g id="Grupo_59026" data-name="Grupo 59026">
            <path id="Trazado_102813" data-name="Trazado 102813" d="M2062.78,4702.2l11.057-9.1,27.421-22.448.074.378c-4.078-1.258-8.333-2.569-12.7-3.912-7.117-2.2-13.944-4.313-20.184-6.243l.271-.173c-1.718,12.063-3.191,22.4-4.237,29.74-1.037,7.141-1.572,10.827-1.707,11.758a1.755,1.755,0,0,1,.018-.184l.073-.575c.07-.538.169-1.294.3-2.262.266-2.017.648-4.917,1.129-8.56.99-7.4,2.384-17.818,4.01-29.976l.033-.246.238.073,20.192,6.218,12.692,3.922.393.122-.32.258-27.753,22.385-8.1,6.512-2.161,1.733-.554.441A2.139,2.139,0,0,1,2062.78,4702.2Z" transform="translate(-2062.779 -4660.4)" fill="#344154"/>
          </g>
        </g>
      </g>
      <g id="Grupo_59029" data-name="Grupo 59029" transform="translate(120.165 0)" opacity="0.3">
        <path id="Trazado_102814" data-name="Trazado 102814" d="M2022.294,4379.039l-2.377,13.842h2.96l2.394-13.842h-3.77" transform="translate(-2019.917 -4379.039)" fill="#d9a171"/>
      </g>
    </g>
    <g id="Grupo_59238" data-name="Grupo 59238" transform="translate(1820.544 4461.365)">
      <g id="Grupo_59045" data-name="Grupo 59045" transform="translate(21.048 6.91)">
        <g id="Grupo_59036" data-name="Grupo 59036" transform="translate(13.31 11.409)">
          <g id="Grupo_59035" data-name="Grupo 59035">
            <g id="Grupo_59034" data-name="Grupo 59034">
              <g id="Grupo_59033" data-name="Grupo 59033">
                <g id="Grupo_59032" data-name="Grupo 59032">
                  <g id="Grupo_59031" data-name="Grupo 59031">
                    <path id="Trazado_102815" data-name="Trazado 102815" d="M1874.785,4541.335h0a7.735,7.735,0,0,0,8.319-7.416c.162-4.21.3-8.466.3-8.466s6.38-.6,6.842-6.912.252-20.889.252-20.889h0a22,22,0,0,0-22.234,1.43l.393,22.221v11.955C1868.7,4537.268,1870.786,4541.028,1874.785,4541.335Z" transform="translate(-1868.267 -4495.299)" fill="#ffbf9d"/>
                  </g>
                </g>
              </g>
            </g>
          </g>
        </g>
        <g id="Grupo_59037" data-name="Grupo 59037" transform="translate(10.03 6.114)">
          <path id="Trazado_102816" data-name="Trazado 102816" d="M1883.422,4509.97a3.235,3.235,0,0,0-4.314-.942,3.669,3.669,0,0,0-1.223,4.588,4.831,4.831,0,0,0,3.1,2.342,2.426,2.426,0,0,1,1.9,2.611,8.084,8.084,0,0,1-2.216,4.4,11.653,11.653,0,0,1-7.309,3.463c-2.689.318-5.769-.242-7.334-2.452-1.138-1.608-1.221-3.711-1.261-5.681q-.145-6.981-.289-13.966a20.012,20.012,0,0,1,.318-5.01,6.727,6.727,0,0,1,2.643-4.144c1.536-1.011,3.481-1.1,5.231-1.662,2.186-.708,4.043-2.159,6.09-3.2s4.553-1.673,6.607-.641c1.474.74,2.463,2.211,3.9,3.025,2.042,1.162,4.821.9,5.812,3.9a5.088,5.088,0,0,1-.034,3.21c-1.384,4.085-6.443,5.732-10.087,3.966-.072.692.609,2.232-.119,4.417-.233.7-.315,1.763-1.408,1.783" transform="translate(-1864.452 -4489.141)" fill="#344154"/>
        </g>
        <g id="Grupo_59038" data-name="Grupo 59038" transform="translate(0.853)">
          <path id="Trazado_102817" data-name="Trazado 102817" d="M1864.5,4495.976a21.506,21.506,0,0,0,2.029-6.343,7.269,7.269,0,0,0-1.99-6.129,5.98,5.98,0,0,0-4.162-1.473,7.039,7.039,0,0,0-6.344,5.028,7.579,7.579,0,0,0,2.552,7.767,8.216,8.216,0,0,0,8.18,1.066" transform="translate(-1853.779 -4482.028)" fill="#344154"/>
        </g>
        <g id="Grupo_59040" data-name="Grupo 59040" transform="translate(9.824 11.644)">
          <g id="Grupo_59039" data-name="Grupo 59039">
            <path id="Trazado_102818" data-name="Trazado 102818" d="M1867.206,4495.573a3.111,3.111,0,0,1-2.992,2.922c-.031-.128.924-.381,1.748-1.2C1866.8,4496.488,1867.078,4495.54,1867.206,4495.573Z" transform="translate(-1864.213 -4495.572)" fill="#d9a171"/>
          </g>
        </g>
        <g id="Grupo_59042" data-name="Grupo 59042" transform="translate(3.552 7.446)">
          <g id="Grupo_59041" data-name="Grupo 59041">
            <path id="Trazado_102819" data-name="Trazado 102819" d="M1864.105,4496.431a5.941,5.941,0,0,1-1.714,1.255,4.943,4.943,0,0,1-2.26.639,3.141,3.141,0,0,1-2.635-1.182,3.51,3.51,0,0,1-.467-2.855,5.548,5.548,0,0,1,1.062-2.09,6.532,6.532,0,0,1,1.495-1.506,20.123,20.123,0,0,1-1.239,1.693,5.675,5.675,0,0,0-.915,1.993,3.186,3.186,0,0,0,.426,2.5,2.792,2.792,0,0,0,2.273,1.035,4.978,4.978,0,0,0,2.119-.511C1863.4,4496.845,1864.064,4496.364,1864.105,4496.431Z" transform="translate(-1856.918 -4490.689)" fill="#344154"/>
          </g>
        </g>
        <g id="Grupo_59044" data-name="Grupo 59044" transform="translate(0 13.928)">
          <g id="Grupo_59043" data-name="Grupo 59043">
            <path id="Trazado_102820" data-name="Trazado 102820" d="M1852.794,4504.619a2.771,2.771,0,0,1,.307.7,7.218,7.218,0,0,0,.93,1.8,2.609,2.609,0,0,0,2.473,1.137,3.393,3.393,0,0,0,2.379-2.4,24.668,24.668,0,0,0,.647-3.667,5.665,5.665,0,0,1,1.205-2.892,3.106,3.106,0,0,1,1.838-1.048,1.221,1.221,0,0,1,.773.065c0,.044-.279-.012-.74.106a3.125,3.125,0,0,0-1.631,1.083,5.586,5.586,0,0,0-1.039,2.753,21.9,21.9,0,0,1-.629,3.747,3.756,3.756,0,0,1-2.73,2.657,2.521,2.521,0,0,1-1.712-.331,3.563,3.563,0,0,1-1.087-1.024,6.2,6.2,0,0,1-.841-1.933A2.373,2.373,0,0,1,1852.794,4504.619Z" transform="translate(-1852.786 -4498.229)" fill="#344154"/>
          </g>
        </g>
      </g>
      <g id="Grupo_59046" data-name="Grupo 59046" transform="translate(16.523 80.27)">
        <path id="Trazado_102821" data-name="Trazado 102821" d="M1848.953,4567.354s-3.218,23.575,0,26.563,6.317,2,6.317,2l6.128-5.125,1.206-23.435Z" transform="translate(-1847.523 -4567.354)" fill="#ffbf9d"/>
      </g>
      <g id="Grupo_59049" data-name="Grupo 59049" transform="translate(68.9 0)">
        <g id="Grupo_59047" data-name="Grupo 59047" transform="translate(15.648)">
          <path id="Trazado_102822" data-name="Trazado 102822" d="M1926.643,4488.082l4.091-4.393,6.817,5.454,15.6-15.15,3.738,4.406-19.646,19.379Z" transform="translate(-1926.643 -4473.993)" fill="#d9a171"/>
        </g>
        <g id="Grupo_59048" data-name="Grupo 59048" transform="translate(0 15.286)">
          <path id="Trazado_102823" data-name="Trazado 102823" d="M1943.313,4491.771l-5.932,3.808c-.268-2.345-2.058-4.669-1.966-3.492s.011,7.29.011,7.29l-10.579,22.26a10.541,10.541,0,0,1-6.527,6.267l-9.876,2.936,3.861,13.056,13.725-4.551a11.836,11.836,0,0,0,7.522-7.544l9.461-28.822a44.7,44.7,0,0,0,1.53-5.678C1944.945,4494.9,1943.313,4491.771,1943.313,4491.771Z" transform="translate(-1908.443 -4491.771)" fill="#ffbf9d"/>
        </g>
      </g>
      <g id="Grupo_59121" data-name="Grupo 59121" transform="translate(42.584 252.148)">
        <g id="Grupo_59120" data-name="Grupo 59120">
          <g id="Grupo_59056" data-name="Grupo 59056" transform="translate(0.065)">
            <g id="Grupo_59052" data-name="Grupo 59052">
              <g id="Grupo_59051" data-name="Grupo 59051">
                <g id="Grupo_59050" data-name="Grupo 59050">
                  <path id="Trazado_102824" data-name="Trazado 102824" d="M1890.425,4773.869l-.148-6.6-12.366.2.113,9.659.768.037c3.415.135,17.375.445,19.646-.283C1900.97,4776.067,1890.425,4773.869,1890.425,4773.869Z" transform="translate(-1877.911 -4767.268)" fill="#d9a171"/>
                </g>
              </g>
            </g>
            <g id="Grupo_59055" data-name="Grupo 59055" transform="translate(0.071 6.206)" opacity="0.5">
              <g id="Grupo_59054" data-name="Grupo 59054">
                <g id="Grupo_59053" data-name="Grupo 59053">
                  <path id="Trazado_102825" data-name="Trazado 102825" d="M1882.518,4777.969a4.287,4.287,0,0,0-1.62-2.612,4.17,4.17,0,0,0-2.905-.852l.052,3.455Z" transform="translate(-1877.993 -4774.486)" fill="#fff"/>
                </g>
              </g>
            </g>
          </g>
          <g id="Grupo_59059" data-name="Grupo 59059" transform="translate(0.179 7.858)" opacity="0.4">
            <g id="Grupo_59058" data-name="Grupo 59058">
              <g id="Grupo_59057" data-name="Grupo 59057">
                <path id="Trazado_102826" data-name="Trazado 102826" d="M1895.6,4776.408s3.7,1,3.25,1.617-14.569.831-20.805.382l.016-.277,16.471-.112S1894.879,4776.45,1895.6,4776.408Z" transform="translate(-1878.043 -4776.408)" fill="#fff"/>
              </g>
            </g>
          </g>
          <g id="Grupo_59063" data-name="Grupo 59063" transform="translate(0 9.263)">
            <g id="Grupo_59062" data-name="Grupo 59062">
              <g id="Grupo_59061" data-name="Grupo 59061">
                <g id="Grupo_59060" data-name="Grupo 59060">
                  <path id="Trazado_102827" data-name="Trazado 102827" d="M1877.835,4778.355a1.145,1.145,0,0,0,.213.02l.61.027,2.249.062c1.9.039,4.525.058,7.423.016s5.523-.138,7.421-.233l2.246-.128.61-.045a1.123,1.123,0,0,0,.212-.026,1.078,1.078,0,0,0-.214,0l-.611.017-2.248.08c-1.9.067-4.521.147-7.418.189s-5.521.04-7.42.028l-2.249-.015h-.612A1.207,1.207,0,0,0,1877.835,4778.355Z" transform="translate(-1877.835 -4778.042)" fill="#344154"/>
                </g>
              </g>
            </g>
          </g>
          <g id="Grupo_59067" data-name="Grupo 59067" transform="translate(16.641 7.705)">
            <g id="Grupo_59066" data-name="Grupo 59066">
              <g id="Grupo_59065" data-name="Grupo 59065">
                <g id="Grupo_59064" data-name="Grupo 59064">
                  <path id="Trazado_102828" data-name="Trazado 102828" d="M1897.214,4778.185a3.265,3.265,0,0,1,1.156-1.951,2,2,0,0,0-1.156,1.951Z" transform="translate(-1897.19 -4776.229)" fill="#344154"/>
                </g>
              </g>
            </g>
          </g>
          <g id="Grupo_59071" data-name="Grupo 59071" transform="translate(12.981 6.824)">
            <g id="Grupo_59070" data-name="Grupo 59070">
              <g id="Grupo_59069" data-name="Grupo 59069">
                <g id="Grupo_59068" data-name="Grupo 59068">
                  <path id="Trazado_102829" data-name="Trazado 102829" d="M1892.94,4776.246c.035.022.207-.193.383-.481s.291-.536.255-.559-.206.194-.382.481S1892.9,4776.224,1892.94,4776.246Z" transform="translate(-1892.933 -4775.205)" fill="#344154"/>
                </g>
              </g>
            </g>
          </g>
          <g id="Grupo_59075" data-name="Grupo 59075" transform="translate(11.975 6.641)">
            <g id="Grupo_59074" data-name="Grupo 59074">
              <g id="Grupo_59073" data-name="Grupo 59073">
                <g id="Grupo_59072" data-name="Grupo 59072">
                  <path id="Trazado_102830" data-name="Trazado 102830" d="M1891.766,4775.7c.028.031.222-.1.432-.3s.358-.378.329-.408-.221.1-.431.3S1891.739,4775.671,1891.766,4775.7Z" transform="translate(-1891.763 -4774.992)" fill="#344154"/>
                </g>
              </g>
            </g>
          </g>
          <g id="Grupo_59079" data-name="Grupo 59079" transform="translate(11.327 6.115)">
            <g id="Grupo_59078" data-name="Grupo 59078">
              <g id="Grupo_59077" data-name="Grupo 59077">
                <g id="Grupo_59076" data-name="Grupo 59076">
                  <path id="Trazado_102831" data-name="Trazado 102831" d="M1891.01,4774.458a2.8,2.8,0,0,0,1.292,0,2.831,2.831,0,0,0-1.292,0Z" transform="translate(-1891.01 -4774.381)" fill="#344154"/>
                </g>
              </g>
            </g>
          </g>
          <g id="Grupo_59083" data-name="Grupo 59083" transform="translate(11.098 5.361)">
            <g id="Grupo_59082" data-name="Grupo 59082">
              <g id="Grupo_59081" data-name="Grupo 59081">
                <g id="Grupo_59080" data-name="Grupo 59080">
                  <path id="Trazado_102832" data-name="Trazado 102832" d="M1890.743,4773.515a1.244,1.244,0,0,0,.723.2,1.258,1.258,0,0,0,.742-.111,49.727,49.727,0,0,1-1.465-.088Z" transform="translate(-1890.742 -4773.502)" fill="#344154"/>
                </g>
              </g>
            </g>
          </g>
          <g id="Grupo_59087" data-name="Grupo 59087" transform="translate(13.391 5.643)">
            <g id="Grupo_59086" data-name="Grupo 59086">
              <g id="Grupo_59085" data-name="Grupo 59085">
                <g id="Grupo_59084" data-name="Grupo 59084">
                  <path id="Trazado_102833" data-name="Trazado 102833" d="M1893.41,4774.967a2.293,2.293,0,0,0,.794-.018,4.484,4.484,0,0,0,.843-.2,2.312,2.312,0,0,0,.482-.207.425.425,0,0,0,.192-.25.312.312,0,0,0-.125-.315,1.456,1.456,0,0,0-1.8.454,1.419,1.419,0,0,0-.251.534c-.03.136-.027.214-.017.214a2.211,2.211,0,0,1,.351-.683,1.441,1.441,0,0,1,.672-.452,1.23,1.23,0,0,1,.948.05c.127.091.081.241-.058.327a2.375,2.375,0,0,1-.444.2,5.451,5.451,0,0,1-.815.225C1893.713,4774.938,1893.409,4774.943,1893.41,4774.967Z" transform="translate(-1893.41 -4773.832)" fill="#344154"/>
                </g>
              </g>
            </g>
          </g>
          <g id="Grupo_59091" data-name="Grupo 59091" transform="translate(12.541 5.289)">
            <g id="Grupo_59090" data-name="Grupo 59090">
              <g id="Grupo_59089" data-name="Grupo 59089">
                <g id="Grupo_59088" data-name="Grupo 59088">
                  <path id="Trazado_102834" data-name="Trazado 102834" d="M1893.478,4774.945a.783.783,0,0,0,.083-.553,1.3,1.3,0,0,0-.226-.577.8.8,0,0,0-.668-.395.317.317,0,0,0-.239.371.869.869,0,0,0,.14.353,2.421,2.421,0,0,0,.383.476,1.159,1.159,0,0,0,.459.315c.014-.02-.16-.14-.383-.389a2.761,2.761,0,0,1-.34-.472c-.112-.166-.191-.466.008-.506.2-.022.4.172.529.33a1.3,1.3,0,0,1,.232.514A2.9,2.9,0,0,1,1893.478,4774.945Z" transform="translate(-1892.422 -4773.42)" fill="#344154"/>
                </g>
              </g>
            </g>
          </g>
          <g id="Grupo_59095" data-name="Grupo 59095" transform="translate(0.2 6.095)">
            <g id="Grupo_59094" data-name="Grupo 59094">
              <g id="Grupo_59093" data-name="Grupo 59093">
                <g id="Grupo_59092" data-name="Grupo 59092">
                  <path id="Trazado_102835" data-name="Trazado 102835" d="M1878.068,4774.451c0,.027.354-.04.914.018a3.875,3.875,0,0,1,3.279,2.532c.2.527.221.883.248.879a.718.718,0,0,0,0-.25,3.248,3.248,0,0,0-.146-.665,3.76,3.76,0,0,0-3.369-2.6,3.357,3.357,0,0,0-.68.027A.683.683,0,0,0,1878.068,4774.451Z" transform="translate(-1878.068 -4774.357)" fill="#344154"/>
                </g>
              </g>
            </g>
          </g>
          <g id="Grupo_59099" data-name="Grupo 59099" transform="translate(1.335 1.022)">
            <g id="Grupo_59098" data-name="Grupo 59098">
              <g id="Grupo_59097" data-name="Grupo 59097">
                <g id="Grupo_59096" data-name="Grupo 59096">
                  <path id="Trazado_102836" data-name="Trazado 102836" d="M1879.456,4768.457a43.243,43.243,0,0,0,.014,5.083,43.24,43.24,0,0,0-.014-5.083Z" transform="translate(-1879.387 -4768.457)" fill="#344154"/>
                </g>
              </g>
            </g>
          </g>
          <g id="Grupo_59103" data-name="Grupo 59103" transform="translate(6.199 8.422)">
            <g id="Grupo_59102" data-name="Grupo 59102">
              <g id="Grupo_59101" data-name="Grupo 59101">
                <g id="Grupo_59100" data-name="Grupo 59100">
                  <path id="Trazado_102837" data-name="Trazado 102837" d="M1885.045,4777.1a10.124,10.124,0,0,0,3.614-.021c-.005-.043-.812.018-1.807.022S1885.049,4777.057,1885.045,4777.1Z" transform="translate(-1885.045 -4777.063)" fill="#344154"/>
                </g>
              </g>
            </g>
          </g>
          <g id="Grupo_59107" data-name="Grupo 59107" transform="translate(3.77 8.488)">
            <g id="Grupo_59106" data-name="Grupo 59106">
              <g id="Grupo_59105" data-name="Grupo 59105">
                <g id="Grupo_59104" data-name="Grupo 59104">
                  <path id="Trazado_102838" data-name="Trazado 102838" d="M1882.225,4777.145c-.03.03.069.17.154.354s.133.347.175.344.06-.2-.039-.409S1882.251,4777.115,1882.225,4777.145Z" transform="translate(-1882.219 -4777.14)" fill="#344154"/>
                </g>
              </g>
            </g>
          </g>
          <g id="Grupo_59111" data-name="Grupo 59111" transform="translate(2.838 7.364)">
            <g id="Grupo_59110" data-name="Grupo 59110">
              <g id="Grupo_59109" data-name="Grupo 59109">
                <g id="Grupo_59108" data-name="Grupo 59108">
                  <path id="Trazado_102839" data-name="Trazado 102839" d="M1881.142,4775.838c-.029.029.053.158.182.285s.259.208.288.178-.052-.157-.182-.284S1881.171,4775.81,1881.142,4775.838Z" transform="translate(-1881.136 -4775.833)" fill="#344154"/>
                </g>
              </g>
            </g>
          </g>
          <g id="Grupo_59115" data-name="Grupo 59115" transform="translate(1.528 6.797)">
            <g id="Grupo_59114" data-name="Grupo 59114">
              <g id="Grupo_59113" data-name="Grupo 59113">
                <g id="Grupo_59112" data-name="Grupo 59112">
                  <path id="Trazado_102840" data-name="Trazado 102840" d="M1879.613,4775.247c.01.042.174.038.357.1s.315.157.347.127-.074-.2-.3-.27S1879.6,4775.21,1879.613,4775.247Z" transform="translate(-1879.612 -4775.173)" fill="#344154"/>
                </g>
              </g>
            </g>
          </g>
          <g id="Grupo_59119" data-name="Grupo 59119" transform="translate(0.593 6.61)">
            <g id="Grupo_59118" data-name="Grupo 59118">
              <g id="Grupo_59117" data-name="Grupo 59117">
                <g id="Grupo_59116" data-name="Grupo 59116">
                  <path id="Trazado_102841" data-name="Trazado 102841" d="M1878.527,4774.986c-.015.039.058.1.161.139s.2.038.213,0-.058-.1-.161-.141S1878.541,4774.947,1878.527,4774.986Z" transform="translate(-1878.525 -4774.957)" fill="#344154"/>
                </g>
              </g>
            </g>
          </g>
        </g>
      </g>
      <g id="Grupo_59193" data-name="Grupo 59193" transform="translate(0 243.622)">
        <g id="Grupo_59192" data-name="Grupo 59192">
          <g id="Grupo_59128" data-name="Grupo 59128">
            <g id="Grupo_59124" data-name="Grupo 59124">
              <g id="Grupo_59123" data-name="Grupo 59123">
                <g id="Grupo_59122" data-name="Grupo 59122">
                  <path id="Trazado_102842" data-name="Trazado 102842" d="M1839.829,4770.367l4.193-5.1-9.5-7.917-6.214,7.4.558.528c2.5,2.33,12.881,11.67,15.077,12.6C1846.389,4778.91,1839.829,4770.367,1839.829,4770.367Z" transform="translate(-1828.305 -4757.351)" fill="#d9a171"/>
                </g>
              </g>
            </g>
            <g id="Grupo_59127" data-name="Grupo 59127" transform="translate(0.123 4.615)" opacity="0.5">
              <g id="Grupo_59126" data-name="Grupo 59126">
                <g id="Grupo_59125" data-name="Grupo 59125">
                  <path id="Trazado_102843" data-name="Trazado 102843" d="M1831.833,4768.3a4.291,4.291,0,0,0,.476-3.037,4.169,4.169,0,0,0-1.647-2.541l-2.214,2.654Z" transform="translate(-1828.448 -4762.719)" fill="#fff"/>
                </g>
              </g>
            </g>
          </g>
          <g id="Grupo_59131" data-name="Grupo 59131" transform="translate(0 7.197)" opacity="0.4">
            <g id="Grupo_59130" data-name="Grupo 59130">
              <g id="Grupo_59129" data-name="Grupo 59129">
                <path id="Trazado_102844" data-name="Trazado 102844" d="M1842.918,4775.856s2.149,3.174,1.408,3.345-11.586-8.871-16.021-13.278l.193-.2,12.559,10.657S1842.345,4775.418,1842.918,4775.856Z" transform="translate(-1828.305 -4765.722)" fill="#fff"/>
              </g>
            </g>
          </g>
          <g id="Grupo_59135" data-name="Grupo 59135" transform="translate(0.048 7.067)">
            <g id="Grupo_59134" data-name="Grupo 59134">
              <g id="Grupo_59133" data-name="Grupo 59133">
                <g id="Grupo_59132" data-name="Grupo 59132">
                  <path id="Trazado_102845" data-name="Trazado 102845" d="M1828.361,4765.571a1.241,1.241,0,0,0,.149.154c.133.125.279.264.445.418l1.664,1.514c1.414,1.269,3.392,3,5.616,4.854s4.277,3.5,5.778,4.663q1.056.809,1.786,1.369l.493.363a1.463,1.463,0,0,0,.177.119,1.09,1.09,0,0,0-.159-.143l-.474-.386-1.757-1.405c-1.482-1.187-3.522-2.837-5.747-4.694s-4.21-3.571-5.643-4.819q-1-.872-1.7-1.478l-.464-.4A1.1,1.1,0,0,0,1828.361,4765.571Z" transform="translate(-1828.361 -4765.57)" fill="#344154"/>
                </g>
              </g>
            </g>
          </g>
          <g id="Grupo_59139" data-name="Grupo 59139" transform="translate(12.624 17.186)">
            <g id="Grupo_59138" data-name="Grupo 59138">
              <g id="Grupo_59137" data-name="Grupo 59137">
                <g id="Grupo_59136" data-name="Grupo 59136">
                  <path id="Trazado_102846" data-name="Trazado 102846" d="M1842.991,4778.154a5.038,5.038,0,0,1,1.01-.556,5.093,5.093,0,0,1,1.139-.17,2,2,0,0,0-2.149.726Z" transform="translate(-1842.988 -4777.34)" fill="#344154"/>
                </g>
              </g>
            </g>
          </g>
          <g id="Grupo_59143" data-name="Grupo 59143" transform="translate(11.01 13.855)">
            <g id="Grupo_59142" data-name="Grupo 59142">
              <g id="Grupo_59141" data-name="Grupo 59141">
                <g id="Grupo_59140" data-name="Grupo 59140">
                  <path id="Trazado_102847" data-name="Trazado 102847" d="M1841.111,4773.851a1.3,1.3,0,0,0,.6-.115c.321-.1.571-.218.558-.258a1.327,1.327,0,0,0-.6.115C1841.347,4773.7,1841.1,4773.812,1841.111,4773.851Z" transform="translate(-1841.11 -4773.466)" fill="#344154"/>
                </g>
              </g>
            </g>
          </g>
          <g id="Grupo_59147" data-name="Grupo 59147" transform="translate(10.579 13.096)">
            <g id="Grupo_59146" data-name="Grupo 59146">
              <g id="Grupo_59145" data-name="Grupo 59145">
                <g id="Grupo_59144" data-name="Grupo 59144">
                  <path id="Trazado_102848" data-name="Trazado 102848" d="M1840.61,4772.679c0,.042.236.066.522.056s.517-.052.515-.093-.235-.066-.521-.057S1840.609,4772.638,1840.61,4772.679Z" transform="translate(-1840.61 -4772.583)" fill="#344154"/>
                </g>
              </g>
            </g>
          </g>
          <g id="Grupo_59151" data-name="Grupo 59151" transform="translate(10.839 11.886)">
            <g id="Grupo_59150" data-name="Grupo 59150">
              <g id="Grupo_59149" data-name="Grupo 59149">
                <g id="Grupo_59148" data-name="Grupo 59148">
                  <path id="Trazado_102849" data-name="Trazado 102849" d="M1840.915,4771.18c-.027.032.171.245.443.477s.513.394.54.362-.171-.244-.443-.477S1840.941,4771.148,1840.915,4771.18Z" transform="translate(-1840.912 -4771.176)" fill="#344154"/>
                </g>
              </g>
            </g>
          </g>
          <g id="Grupo_59155" data-name="Grupo 59155" transform="translate(11.197 11.118)">
            <g id="Grupo_59154" data-name="Grupo 59154">
              <g id="Grupo_59153" data-name="Grupo 59153">
                <g id="Grupo_59152" data-name="Grupo 59152">
                  <path id="Trazado_102850" data-name="Trazado 102850" d="M1841.333,4770.284a1.817,1.817,0,0,0,1.053,1.021c.022-.037-.245-.228-.531-.507S1841.369,4770.26,1841.333,4770.284Z" transform="translate(-1841.328 -4770.282)" fill="#344154"/>
                </g>
              </g>
            </g>
          </g>
          <g id="Grupo_59159" data-name="Grupo 59159" transform="translate(11.976 13.493)">
            <g id="Grupo_59158" data-name="Grupo 59158">
              <g id="Grupo_59157" data-name="Grupo 59157">
                <g id="Grupo_59156" data-name="Grupo 59156">
                  <path id="Trazado_102851" data-name="Trazado 102851" d="M1842.281,4773.233a2.338,2.338,0,0,0,.614.5,4.667,4.667,0,0,0,.768.4,2.346,2.346,0,0,0,.5.157.43.43,0,0,0,.308-.064.314.314,0,0,0,.111-.322,1.456,1.456,0,0,0-1.657-.826,1.418,1.418,0,0,0-.539.241c-.111.084-.159.146-.153.151a2.3,2.3,0,0,1,.712-.287,1.43,1.43,0,0,1,.8.1,1.231,1.231,0,0,1,.686.656c.038.153-.1.235-.257.21a2.41,2.41,0,0,1-.465-.139,5.509,5.509,0,0,1-.765-.361C1842.53,4773.407,1842.3,4773.213,1842.281,4773.233Z" transform="translate(-1842.234 -4773.045)" fill="#344154"/>
                </g>
              </g>
            </g>
          </g>
          <g id="Grupo_59163" data-name="Grupo 59163" transform="translate(11.959 12.118)">
            <g id="Grupo_59162" data-name="Grupo 59162">
              <g id="Grupo_59161" data-name="Grupo 59161">
                <g id="Grupo_59160" data-name="Grupo 59160">
                  <path id="Trazado_102852" data-name="Trazado 102852" d="M1842.411,4773.171c0,.013.223-.068.424-.366a1.308,1.308,0,0,0,.2-.584.8.8,0,0,0-.249-.735.315.315,0,0,0-.423.125.863.863,0,0,0-.124.359,2.423,2.423,0,0,0-.02.61,1.134,1.134,0,0,0,.144.538c.022-.006-.031-.211-.038-.545a2.8,2.8,0,0,1,.05-.579c.024-.2.16-.478.336-.378a.71.71,0,0,1,.186.595,1.293,1.293,0,0,1-.158.541A3.052,3.052,0,0,1,1842.411,4773.171Z" transform="translate(-1842.214 -4771.446)" fill="#344154"/>
                </g>
              </g>
            </g>
          </g>
          <g id="Grupo_59167" data-name="Grupo 59167" transform="translate(2.409 4.629)">
            <g id="Grupo_59166" data-name="Grupo 59166">
              <g id="Grupo_59165" data-name="Grupo 59165">
                <g id="Grupo_59164" data-name="Grupo 59164">
                  <path id="Trazado_102853" data-name="Trazado 102853" d="M1831.107,4762.735c-.016.023.294.2.681.609a3.874,3.874,0,0,1,.834,4.059c-.194.528-.408.813-.385.828.008.006.068-.06.161-.192a3.32,3.32,0,0,0,.323-.6,3.761,3.761,0,0,0-.857-4.17,3.261,3.261,0,0,0-.534-.423A.705.705,0,0,0,1831.107,4762.735Z" transform="translate(-1831.106 -4762.734)" fill="#344154"/>
                </g>
              </g>
            </g>
          </g>
          <g id="Grupo_59171" data-name="Grupo 59171" transform="translate(3.384 1.498)">
            <g id="Grupo_59170" data-name="Grupo 59170">
              <g id="Grupo_59169" data-name="Grupo 59169">
                <g id="Grupo_59168" data-name="Grupo 59168">
                  <path id="Trazado_102854" data-name="Trazado 102854" d="M1835.547,4759.094a21.341,21.341,0,0,0-1.709,1.882,21.886,21.886,0,0,0-1.6,1.979,43.077,43.077,0,0,0,3.305-3.861Z" transform="translate(-1832.241 -4759.094)" fill="#344154"/>
                </g>
              </g>
            </g>
          </g>
          <g id="Grupo_59175" data-name="Grupo 59175" transform="translate(5.475 10.262)">
            <g id="Grupo_59174" data-name="Grupo 59174">
              <g id="Grupo_59173" data-name="Grupo 59173">
                <g id="Grupo_59172" data-name="Grupo 59172">
                  <path id="Trazado_102855" data-name="Trazado 102855" d="M1834.674,4769.288a10.14,10.14,0,0,0,2.754,2.342c.024-.037-.628-.515-1.385-1.162S1834.7,4769.258,1834.674,4769.288Z" transform="translate(-1834.673 -4769.287)" fill="#344154"/>
                </g>
              </g>
            </g>
          </g>
          <g id="Grupo_59179" data-name="Grupo 59179" transform="translate(3.402 8.708)">
            <g id="Grupo_59178" data-name="Grupo 59178">
              <g id="Grupo_59177" data-name="Grupo 59177">
                <g id="Grupo_59176" data-name="Grupo 59176">
                  <path id="Trazado_102856" data-name="Trazado 102856" d="M1832.476,4767.479c-.042,0-.058.174-.114.37s-.125.349-.091.375.174-.11.236-.335S1832.516,4767.473,1832.476,4767.479Z" transform="translate(-1832.262 -4767.479)" fill="#344154"/>
                </g>
              </g>
            </g>
          </g>
          <g id="Grupo_59183" data-name="Grupo 59183" transform="translate(3.591 7.25)">
            <g id="Grupo_59182" data-name="Grupo 59182">
              <g id="Grupo_59181" data-name="Grupo 59181">
                <g id="Grupo_59180" data-name="Grupo 59180">
                  <path id="Trazado_102857" data-name="Trazado 102857" d="M1832.533,4765.783c-.041,0-.063.154-.047.335s.061.325.1.322.063-.153.047-.335S1832.575,4765.779,1832.533,4765.783Z" transform="translate(-1832.481 -4765.783)" fill="#344154"/>
                </g>
              </g>
            </g>
          </g>
          <g id="Grupo_59187" data-name="Grupo 59187" transform="translate(2.969 6.003)">
            <g id="Grupo_59186" data-name="Grupo 59186">
              <g id="Grupo_59185" data-name="Grupo 59185">
                <g id="Grupo_59184" data-name="Grupo 59184">
                  <path id="Trazado_102858" data-name="Trazado 102858" d="M1831.761,4764.344c-.02.039.107.142.205.308s.138.323.181.323.072-.2-.052-.4S1831.776,4764.307,1831.761,4764.344Z" transform="translate(-1831.759 -4764.333)" fill="#344154"/>
                </g>
              </g>
            </g>
          </g>
          <g id="Grupo_59191" data-name="Grupo 59191" transform="translate(2.394 5.225)">
            <g id="Grupo_59190" data-name="Grupo 59190">
              <g id="Grupo_59189" data-name="Grupo 59189">
                <g id="Grupo_59188" data-name="Grupo 59188">
                  <path id="Trazado_102859" data-name="Trazado 102859" d="M1831.11,4763.433c-.036.02-.022.114.031.21s.126.158.162.138.022-.114-.031-.21S1831.146,4763.412,1831.11,4763.433Z" transform="translate(-1831.089 -4763.429)" fill="#344154"/>
                </g>
              </g>
            </g>
          </g>
        </g>
      </g>
      <g id="Grupo_59206" data-name="Grupo 59206" transform="translate(1.041 111.385)">
        <g id="Grupo_59194" data-name="Grupo 59194" transform="translate(0 6.332)">
          <path id="Trazado_102860" data-name="Trazado 102860" d="M1865.734,4611.682s-4.116,17.421-2.952,20.869,8.709,5.438,8.709,5.438l-.255,47.706-41.719,51.568,15.406,12.6s45.163-51.665,49.145-61.021-2.538-77.937-2.538-77.937Z" transform="translate(-1829.516 -4610.91)" fill="#344154"/>
        </g>
        <g id="Grupo_59195" data-name="Grupo 59195" transform="translate(22.671)">
          <path id="Trazado_102861" data-name="Trazado 102861" d="M1890.741,4603.546l2.042,144.894-21.224.107-10.651-118.007h0c-2.252-2.15-5.418-5.83-4.982-14.038l.518-9.535Z" transform="translate(-1855.885 -4603.546)" fill="#344154"/>
        </g>
        <g id="Grupo_59197" data-name="Grupo 59197" transform="translate(35.148 29.325)">
          <g id="Grupo_59196" data-name="Grupo 59196">
            <path id="Trazado_102862" data-name="Trazado 102862" d="M1870.4,4697.511a.838.838,0,0,1,.122-.215l.4-.594,1.578-2.232,5.758-7.971-.036.109c-.462-5.028-1.022-11.128-1.627-17.7-.77-8.617-1.394-16.425-1.761-22.084-.187-2.828-.311-5.12-.379-6.7-.026-.759-.047-1.364-.062-1.825a.32.32,0,1,1,.09,0c.037.459.086,1.063.147,1.818.126,1.63.3,3.9.52,6.692.448,5.649,1.122,13.451,1.891,22.067.579,6.6,1.168,12.688,1.549,17.742l0,.057-.04.053-5.884,7.878-1.658,2.173-.447.563C1870.462,4697.455,1870.405,4697.517,1870.4,4697.511Z" transform="translate(-1870.397 -4637.654)" fill="#5e6178"/>
          </g>
        </g>
        <g id="Grupo_59199" data-name="Grupo 59199" transform="translate(30.563 26.976)">
          <g id="Grupo_59198" data-name="Grupo 59198">
            <path id="Trazado_102863" data-name="Trazado 102863" d="M1876.164,4637.271a47.922,47.922,0,0,1-11.1-2.331,144.622,144.622,0,0,1,11.1,2.331Z" transform="translate(-1865.064 -4634.922)" fill="#5e6178"/>
          </g>
        </g>
        <g id="Grupo_59201" data-name="Grupo 59201" transform="translate(44.572 76.815)">
          <g id="Grupo_59200" data-name="Grupo 59200">
            <path id="Trazado_102864" data-name="Trazado 102864" d="M1892.986,4694.87a16.933,16.933,0,0,0-11.627-.922,4.847,4.847,0,0,1,1.654-.648,13.04,13.04,0,0,1,8.442.669A4.814,4.814,0,0,1,1892.986,4694.87Z" transform="translate(-1881.358 -4692.891)" fill="#5e6178"/>
          </g>
        </g>
        <g id="Grupo_59203" data-name="Grupo 59203" transform="translate(36.662 85.509)">
          <g id="Grupo_59202" data-name="Grupo 59202">
            <path id="Trazado_102865" data-name="Trazado 102865" d="M1899.182,4703c.1.074-5.872,8.088-13.333,17.895s-13.592,17.7-13.69,17.627,5.87-8.087,13.334-17.9S1899.083,4702.927,1899.182,4703Z" transform="translate(-1872.158 -4703.001)" fill="#5e6178"/>
          </g>
        </g>
        <g id="Grupo_59205" data-name="Grupo 59205" transform="translate(50.12 9.636)">
          <g id="Grupo_59204" data-name="Grupo 59204">
            <path id="Trazado_102866" data-name="Trazado 102866" d="M1898.5,4615.881a3.548,3.548,0,0,1-1.194,1.576,5.911,5.911,0,0,1-8.651-.912,3.561,3.561,0,0,1-.839-1.791,18.607,18.607,0,0,0,1.085,1.59,5.894,5.894,0,0,0,8.205.865A18.415,18.415,0,0,0,1898.5,4615.881Z" transform="translate(-1887.811 -4614.754)" fill="#5e6178"/>
          </g>
        </g>
      </g>
      <g id="Grupo_59207" data-name="Grupo 59207" transform="translate(27.09 21.786)">
        <path id="Trazado_102867" data-name="Trazado 102867" d="M1865.577,4525.145a18.508,18.508,0,0,1-1-25.812" transform="translate(-1859.813 -4499.333)" fill="#344154"/>
      </g>
      <g id="Grupo_59237" data-name="Grupo 59237" transform="translate(15.367 51.323)">
        <g id="Grupo_59218" data-name="Grupo 59218">
          <g id="Grupo_59208" data-name="Grupo 59208" transform="translate(0 9.792)">
            <path id="Trazado_102868" data-name="Trazado 102868" d="M1851.745,4545.077s-4.611,5.207-5.566,25.13c0,0,13.131,2.492,13.371,1.775S1851.745,4545.077,1851.745,4545.077Z" transform="translate(-1846.179 -4545.077)" fill="#d9a171"/>
          </g>
          <g id="Grupo_59209" data-name="Grupo 59209" transform="translate(0 9.792)" opacity="0.3">
            <path id="Trazado_102869" data-name="Trazado 102869" d="M1851.745,4545.077s-4.611,5.207-5.566,25.13c0,0,13.131,2.492,13.371,1.775S1851.745,4545.077,1851.745,4545.077Z" transform="translate(-1846.179 -4545.077)" fill="#d9a171"/>
          </g>
          <g id="Grupo_59215" data-name="Grupo 59215" transform="translate(4.124)">
            <g id="Grupo_59214" data-name="Grupo 59214">
              <g id="Grupo_59213" data-name="Grupo 59213">
                <g id="Grupo_59210" data-name="Grupo 59210" transform="translate(5.155 34.923)">
                  <path id="Trazado_102870" data-name="Trazado 102870" d="M1856.971,4574.306" transform="translate(-1856.971 -4574.306)" fill="#5e6178"/>
                </g>
                <g id="Grupo_59211" data-name="Grupo 59211">
                  <path id="Trazado_102871" data-name="Trazado 102871" d="M1854.545,4601.5h40.313l-.651-6.3s-4.607-23.959-4.573-24.275l.726-1.525a15.2,15.2,0,0,0,.177-12.679h0l19.74-6.75-4.833-16.288c-8.957,1.513-22.5,3.2-22.5,3.2l-2.016.169s-13.976.729-14.275.764c-5.847.707-12.65,1.155-15.136,7.413-1.329,3.347-.066,8.369,2.1,13.547l5.168,15.9c2.063,8.741-1.229,8.327-3.036,17.124C1855.481,4593.136,1854.518,4600.278,1854.545,4601.5Z" transform="translate(-1850.975 -4533.686)" fill="#d9a171"/>
                </g>
                <g id="Grupo_59212" data-name="Grupo 59212" opacity="0.3">
                  <path id="Trazado_102872" data-name="Trazado 102872" d="M1854.545,4601.5h40.313l-.651-6.3s-4.607-23.959-4.573-24.275l.726-1.525a15.2,15.2,0,0,0,.177-12.679h0l19.74-6.75-4.833-16.288c-8.957,1.513-22.5,3.2-22.5,3.2l-2.016.169s-13.976.729-14.275.764c-5.847.707-12.65,1.155-15.136,7.413-1.329,3.347-.066,8.369,2.1,13.547l5.168,15.9c2.063,8.741-1.229,8.327-3.036,17.124C1855.481,4593.136,1854.518,4600.278,1854.545,4601.5Z" transform="translate(-1850.975 -4533.686)" fill="#d9a171"/>
                </g>
              </g>
            </g>
          </g>
          <g id="Grupo_59217" data-name="Grupo 59217" transform="translate(40.576 16.545)">
            <g id="Grupo_59216" data-name="Grupo 59216">
              <path id="Trazado_102873" data-name="Trazado 102873" d="M1916.036,4552.937a3.864,3.864,0,0,1-.876.369c-.573.209-1.406.5-2.438.846-2.064.7-4.93,1.621-8.094,2.633s-5.993,2.017-8,2.847c-1.008.407-1.809.77-2.369,1.009a.477.477,0,1,1-.077-.156c.538-.288,1.323-.7,2.321-1.143a76.329,76.329,0,0,1,7.989-2.982c3.168-1.014,6.047-1.888,8.136-2.508,1.045-.311,1.892-.552,2.481-.711A3.955,3.955,0,0,1,1916.036,4552.937Z" transform="translate(-1893.373 -4552.93)" fill="#344154"/>
            </g>
          </g>
        </g>
        <g id="Grupo_59220" data-name="Grupo 59220" transform="translate(7.657 7.656)">
          <g id="Grupo_59219" data-name="Grupo 59219">
            <path id="Trazado_102874" data-name="Trazado 102874" d="M1908.324,4542.816c0,.123-11.919.223-26.618.223s-26.621-.1-26.621-.223,11.916-.224,26.621-.224S1908.324,4542.691,1908.324,4542.816Z" transform="translate(-1855.085 -4542.592)" fill="#fafafa"/>
          </g>
        </g>
        <g id="Grupo_59222" data-name="Grupo 59222" transform="translate(2.879 15.574)">
          <g id="Grupo_59221" data-name="Grupo 59221">
            <path id="Trazado_102875" data-name="Trazado 102875" d="M1908.774,4552.025c0,.124-13.264.224-29.621.224s-29.625-.1-29.625-.224,13.261-.224,29.625-.224S1908.774,4551.9,1908.774,4552.025Z" transform="translate(-1849.528 -4551.801)" fill="#fafafa"/>
          </g>
        </g>
        <g id="Grupo_59224" data-name="Grupo 59224" transform="translate(1.242 24.583)">
          <g id="Grupo_59223" data-name="Grupo 59223">
            <path id="Trazado_102876" data-name="Trazado 102876" d="M1852.56,4562.5a13.734,13.734,0,1,1-2.468-.224A6.956,6.956,0,0,1,1852.56,4562.5Z" transform="translate(-1847.623 -4562.279)" fill="#fafafa"/>
          </g>
        </g>
        <g id="Grupo_59226" data-name="Grupo 59226" transform="translate(6.178 24.856)">
          <g id="Grupo_59225" data-name="Grupo 59225">
            <path id="Trazado_102877" data-name="Trazado 102877" d="M1892.111,4562.821c0,.124-8.674.224-19.372.224s-19.374-.1-19.374-.224,8.673-.224,19.374-.224S1892.111,4562.7,1892.111,4562.821Z" transform="translate(-1853.365 -4562.597)" fill="#fafafa"/>
          </g>
        </g>
        <g id="Grupo_59228" data-name="Grupo 59228" transform="translate(9.296 34.139)">
          <g id="Grupo_59227" data-name="Grupo 59227">
            <path id="Trazado_102878" data-name="Trazado 102878" d="M1891.766,4573.617c0,.124-7.785.224-17.387.224s-17.388-.1-17.388-.224,7.783-.224,17.388-.224S1891.766,4573.495,1891.766,4573.617Z" transform="translate(-1856.991 -4573.393)" fill="#fafafa"/>
          </g>
        </g>
        <g id="Grupo_59230" data-name="Grupo 59230" transform="translate(12.299 42.739)">
          <g id="Grupo_59229" data-name="Grupo 59229">
            <path id="Trazado_102879" data-name="Trazado 102879" d="M1892,4583.621c0,.124-7.057.224-15.76.224s-15.76-.1-15.76-.224,7.054-.224,15.76-.224S1892,4583.5,1892,4583.621Z" transform="translate(-1860.484 -4583.397)" fill="#fafafa"/>
          </g>
        </g>
        <g id="Grupo_59232" data-name="Grupo 59232" transform="translate(11.48 49.701)">
          <g id="Grupo_59231" data-name="Grupo 59231">
            <path id="Trazado_102880" data-name="Trazado 102880" d="M1893.249,4591.718c0,.124-7.549.224-16.858.224s-16.86-.1-16.86-.224,7.547-.224,16.86-.224S1893.249,4591.595,1893.249,4591.718Z" transform="translate(-1859.531 -4591.494)" fill="#fafafa"/>
          </g>
        </g>
        <g id="Grupo_59234" data-name="Grupo 59234" transform="translate(9.022 58.574)">
          <g id="Grupo_59233" data-name="Grupo 59233">
            <path id="Trazado_102881" data-name="Trazado 102881" d="M1895.032,4602.039c0,.123-8.587.223-19.179.223s-19.18-.1-19.18-.223,8.586-.224,19.18-.224S1895.032,4601.915,1895.032,4602.039Z" transform="translate(-1856.673 -4601.815)" fill="#fafafa"/>
          </g>
        </g>
        <g id="Grupo_59236" data-name="Grupo 59236" transform="translate(4.569 19.432)">
          <g id="Grupo_59235" data-name="Grupo 59235">
            <path id="Trazado_102882" data-name="Trazado 102882" d="M1858.622,4577.108a3.249,3.249,0,0,1-.356-.792q-.355-.921-.848-2.2c-.709-1.86-1.708-4.423-2.747-7.28s-1.9-5.479-2.442-7.4c-.269-.961-.472-1.743-.587-2.29a3.234,3.234,0,0,1-.141-.858,31.693,31.693,0,0,1,1.031,3.054c.617,1.891,1.518,4.486,2.561,7.339s1.989,5.436,2.623,7.326c.319.945.562,1.715.715,2.251A3.3,3.3,0,0,1,1858.622,4577.108Z" transform="translate(-1851.493 -4556.289)" fill="#344154"/>
          </g>
        </g>
      </g>
    </g>
    <g id="freepik--speech-bubble--inject-11" transform="translate(2076.273 4413.945)">
      <path id="Trazado_99401" data-name="Trazado 99401" d="M514.816,4130.891a27.071,27.071,0,0,1-43.211,21.744l-13.293,3.382,5.523-12.352a27.08,27.08,0,1,1,50.948-12.774Z" transform="translate(-457.736 -4103.666)" fill="#fff"/>
      <path id="Trazado_99402" data-name="Trazado 99402" d="M514.83,4130.893a27.209,27.209,0,0,1-4.014,14.218,24.665,24.665,0,0,1-4.736,5.758c-.479.405-.9.876-1.411,1.233l-1.5,1.127c-.495.373-1.054.673-1.574,1.006l-.811.494c-.267.155-.559.284-.812.422l-1.687.81-1.759.657a12.5,12.5,0,0,1-1.792.544c-.609.146-1.208.357-1.825.446a26.316,26.316,0,0,1-3.731.453,23.062,23.062,0,0,1-3.755,0,27.131,27.131,0,0,1-13.957-5.2l.243.049-13.244,3.455-.714.186.3-.681,5.491-12.36v.34a26.814,26.814,0,0,1-3.243-11.93,27.274,27.274,0,1,1,54.532-1.031Zm0,0a27.143,27.143,0,0,0-10.47-21.281,27.5,27.5,0,0,0-11.029-5.068,26.977,26.977,0,0,0-12.1.333,26.621,26.621,0,0,0-10.737,5.548,27.9,27.9,0,0,0-7.186,9.659,26.761,26.761,0,0,0,.892,23.4l.089.17-.073.171-5.555,12.335-.414-.488,13.285-3.323h.13l.113.08a26.765,26.765,0,0,0,13.641,5.28,23.543,23.543,0,0,0,3.706.056,26.818,26.818,0,0,0,3.69-.4c.617-.09,1.208-.284,1.817-.422a12.275,12.275,0,0,0,1.784-.52l1.752-.624,1.679-.812c.284-.137.568-.26.811-.405l.812-.479c.527-.333,1.086-.616,1.581-.982l1.5-1.11a16.769,16.769,0,0,0,1.411-1.216,30.849,30.849,0,0,0,2.6-2.676,29.616,29.616,0,0,0,2.157-3.042A27.141,27.141,0,0,0,514.83,4130.893Z" transform="translate(-457.75 -4103.668)" fill="#344154"/>
      <path id="Trazado_99403" data-name="Trazado 99403" d="M484.412,4144.828l-10.081-10.195,3.39-3.341,5.88,5.953,12.23-19.164,4.006,2.555Z" transform="translate(-457.34 -4103.311)" fill="#d9a171"/>
    </g>
    <path id="Trazado_132034" data-name="Trazado 132034" d="M485.665,4048.751a2.019,2.019,0,0,1,2.035,2v1.079a17.315,17.315,0,0,1,7.34,2.6,2.549,2.549,0,0,1,1.419,2.279,2.6,2.6,0,0,1-2.6,2.6h-.049a2.735,2.735,0,0,1-1.419-.43,17.517,17.517,0,0,0-4.867-2.084v9.1c7.2,1.8,10.283,4.688,10.283,9.732,0,5.215-4.055,8.67-10.089,9.238v2.872a2.019,2.019,0,0,1-2,2.035h-.033a2.059,2.059,0,0,1-2.083-2.035h0V4084.8a20.425,20.425,0,0,1-9.733-3.69,2.614,2.614,0,1,1,2.863-4.363,16.868,16.868,0,0,0,7.015,3.179v-9.335c-6.918-1.8-10.138-4.4-10.138-9.732,0-5.069,4.055-8.573,9.951-9.052v-1.021a2.06,2.06,0,0,1,2.083-2.036Zm-1.9,16.156v-8.387c-3.033.284-4.55,1.9-4.55,3.982S480.117,4063.722,483.767,4064.907Zm3.738,6.584v8.621c3.033-.332,4.7-1.849,4.7-4.12C492.2,4073.909,491.155,4072.627,487.505,4071.491Z" transform="translate(1338.693 378.636)" fill="#ebebeb"/>
    <path id="Trazado_132035" data-name="Trazado 132035" d="M485.665,4048.751a2.019,2.019,0,0,1,2.035,2v1.079a17.315,17.315,0,0,1,7.34,2.6,2.549,2.549,0,0,1,1.419,2.279,2.6,2.6,0,0,1-2.6,2.6h-.049a2.735,2.735,0,0,1-1.419-.43,17.517,17.517,0,0,0-4.867-2.084v9.1c7.2,1.8,10.283,4.688,10.283,9.732,0,5.215-4.055,8.67-10.089,9.238v2.872a2.019,2.019,0,0,1-2,2.035h-.033a2.059,2.059,0,0,1-2.083-2.035h0V4084.8a20.425,20.425,0,0,1-9.733-3.69,2.614,2.614,0,1,1,2.863-4.363,16.868,16.868,0,0,0,7.015,3.179v-9.335c-6.918-1.8-10.138-4.4-10.138-9.732,0-5.069,4.055-8.573,9.951-9.052v-1.021a2.06,2.06,0,0,1,2.083-2.036Zm-1.9,16.156v-8.387c-3.033.284-4.55,1.9-4.55,3.982S480.117,4063.722,483.767,4064.907Zm3.738,6.584v8.621c3.033-.332,4.7-1.849,4.7-4.12C492.2,4073.909,491.155,4072.627,487.505,4071.491Z" transform="translate(1535.514 516.437)" fill="#ebebeb"/>
    <g id="Grupo_77231" data-name="Grupo 77231" transform="translate(1930.727 4634.465)">
      <g id="Grupo_76764" data-name="Grupo 76764" transform="translate(17.39 0) rotate(20)">
        <g id="Grupo_74769" data-name="Grupo 74769" transform="translate(0 0)">
          <g id="Grupo_74760" data-name="Grupo 74760">
            <g id="Grupo_74747" data-name="Grupo 74747">
              <g id="Grupo_74746" data-name="Grupo 74746">
                <g id="Grupo_74745" data-name="Grupo 74745">
                  <g id="Grupo_74744" data-name="Grupo 74744">
                    <g id="Grupo_74728" data-name="Grupo 74728" transform="translate(0 0)">
                      <g id="Grupo_74727" data-name="Grupo 74727">
                        <g id="Grupo_74726" data-name="Grupo 74726">
                          <g id="Grupo_74725" data-name="Grupo 74725">
                            <path id="Trazado_110751" data-name="Trazado 110751" d="M50.528,21.426A25.42,25.42,0,1,1,21.429.32,25.42,25.42,0,0,1,50.528,21.426Z" fill="#d9a171"/>
                          </g>
                        </g>
                      </g>
                    </g>
                    <g id="Grupo_74731" data-name="Grupo 74731" transform="translate(0 0.32)" opacity="0.1">
                      <g id="Grupo_74730" data-name="Grupo 74730" transform="translate(0 0)">
                        <g id="Grupo_74729" data-name="Grupo 74729">
                          <path id="Trazado_110752" data-name="Trazado 110752" d="M21.429,0A25.416,25.416,0,0,0,.32,29.1s17.765-2.02,20.879-9.8S21.429,0,21.429,0Z" fill="#fff"/>
                        </g>
                      </g>
                    </g>
                    <g id="Grupo_74734" data-name="Grupo 74734" transform="translate(5.635 5.761)">
                      <g id="Grupo_74733" data-name="Grupo 74733" transform="translate(0 0)">
                        <g id="Grupo_74732" data-name="Grupo 74732">
                          <path id="Trazado_110753" data-name="Trazado 110753" d="M38.411,16.29A19.324,19.324,0,1,1,16.29.243,19.323,19.323,0,0,1,38.411,16.29Z" fill="#636363"/>
                        </g>
                      </g>
                    </g>
                    <g id="Grupo_74740" data-name="Grupo 74740" transform="translate(6.816 6.69)">
                      <g id="Grupo_74739" data-name="Grupo 74739" transform="translate(0 0)">
                        <g id="Grupo_74738" data-name="Grupo 74738">
                          <path id="Trazado_110755" data-name="Trazado 110755" d="M37.9,16.07A19.066,19.066,0,1,1,16.072.24,19.064,19.064,0,0,1,37.9,16.07Z" fill="#8e8e8e"/>
                        </g>
                      </g>
                    </g>
                  </g>
                </g>
              </g>
            </g>
            <g id="Grupo_74759" data-name="Grupo 74759" transform="translate(17.565 13.424)">
              <g id="Grupo_74751" data-name="Grupo 74751" transform="translate(0.914 0)">
                <g id="Grupo_74750" data-name="Grupo 74750" transform="translate(0)">
                  <g id="Grupo_74749" data-name="Grupo 74749">
                    <g id="Grupo_74748" data-name="Grupo 74748">
                      <path id="Trazado_110757" data-name="Trazado 110757" d="M7.9,10.583,7.128,5.766l.025,0A10.018,10.018,0,0,1,9.82,6.02a8.091,8.091,0,0,1,1.318.565l.042-.158.467-1.852.106-.427-1-.765-.382.252a9.176,9.176,0,0,0-3.65-.452L6.3.533,5.365,0l.106.664L4.341.844l.43,2.7C1.1,4.494-.326,6.9.062,9.334c.528,3.316,3.506,3.723,6.257,3.946l.761,4.773A9.246,9.246,0,0,1,2.017,17L1.326,19.58A10.581,10.581,0,0,0,7.489,20.63l.318,2-.928.165,1.032.484,1.956-.311-.425-2.674c3.686-.978,5.141-3.363,4.753-5.8C13.669,11.18,10.647,10.805,7.9,10.583Zm-2.037-.19C4.41,10.207,3.3,9.845,3.118,8.7c-.168-1.049.413-2.022,2.064-2.556ZM7.128,5.761Zm1.9,11.933-.671-4.225c1.5.178,2.635.56,2.82,1.729C11.339,16.225,10.728,17.153,9.027,17.694Z" fill="#d9a171"/>
                    </g>
                  </g>
                </g>
              </g>
              <g id="Grupo_74755" data-name="Grupo 74755" transform="translate(0.914 0)" opacity="0.3">
                <g id="Grupo_74754" data-name="Grupo 74754" transform="translate(0)">
                  <g id="Grupo_74753" data-name="Grupo 74753">
                    <g id="Grupo_74752" data-name="Grupo 74752">
                      <path id="Trazado_110758" data-name="Trazado 110758" d="M7.9,10.583,7.128,5.766l.025,0A10.018,10.018,0,0,1,9.82,6.02a8.091,8.091,0,0,1,1.318.565l.042-.158.467-1.852.106-.427-1-.765-.382.252a9.176,9.176,0,0,0-3.65-.452L6.3.533,5.365,0l.106.664L4.341.844l.43,2.7C1.1,4.494-.326,6.9.062,9.334c.528,3.316,3.506,3.723,6.257,3.946l.761,4.773A9.246,9.246,0,0,1,2.017,17L1.326,19.58A10.581,10.581,0,0,0,7.489,20.63l.318,2-.928.165,1.032.484,1.956-.311-.425-2.674c3.686-.978,5.141-3.363,4.753-5.8C13.669,11.18,10.647,10.805,7.9,10.583Zm-2.037-.19C4.41,10.207,3.3,9.845,3.118,8.7c-.168-1.049.413-2.022,2.064-2.556ZM7.128,5.761Zm1.9,11.933-.671-4.225c1.5.178,2.635.56,2.82,1.729C11.339,16.225,10.728,17.153,9.027,17.694Z" fill="#d9a171"/>
                    </g>
                  </g>
                </g>
              </g>
              <g id="Grupo_74758" data-name="Grupo 74758" transform="translate(0 0.005)">
                <g id="Grupo_74757" data-name="Grupo 74757" transform="translate(0 0)">
                  <g id="Grupo_74756" data-name="Grupo 74756">
                    <path id="Trazado_110759" data-name="Trazado 110759" d="M9.442,19.766l.425,2.672-1.956.314L7.489,20.1A10.593,10.593,0,0,1,1.326,19.05l.689-2.58a9.281,9.281,0,0,0,5.064,1.052l-.761-4.773C3.565,12.526.59,12.119.062,8.8-.326,6.365,1.1,3.961,4.768,3.01l-.43-2.7L6.3,0l.422,2.649a10.341,10.341,0,0,1,5.077.686L11.2,5.9a10.024,10.024,0,0,0-4.071-.674L7.9,10.049c2.753.222,5.773.6,6.3,3.916C14.585,16.4,13.128,18.785,9.442,19.766ZM5.859,9.859,5.183,5.613c-1.652.531-2.232,1.5-2.064,2.555C3.3,9.314,4.41,9.674,5.859,9.859Zm5.316,4.807c-.185-1.168-1.324-1.551-2.82-1.728l.672,4.225C10.729,16.622,11.341,15.694,11.175,14.667Z" fill="#d9a171"/>
                  </g>
                </g>
              </g>
            </g>
          </g>
          <g id="Grupo_74764" data-name="Grupo 74764" transform="translate(18.087 19.309)">
            <g id="Grupo_74763" data-name="Grupo 74763" transform="translate(0 0)">
              <g id="Grupo_74762" data-name="Grupo 74762">
                <g id="Grupo_74761" data-name="Grupo 74761">
                  <path id="Trazado_110760" data-name="Trazado 110760" d="M1.488,4.658a1.624,1.624,0,0,1-.642-.464A3.055,3.055,0,0,1,.021,2.475,3.038,3.038,0,0,1,.406.606,1.6,1.6,0,0,1,.917,0C.942.023.734.243.525.667A3.2,3.2,0,0,0,.209,2.45,3.231,3.231,0,0,0,.944,4.1C1.253,4.465,1.507,4.63,1.488,4.658Z" fill="#fff"/>
                </g>
              </g>
            </g>
          </g>
          <g id="Grupo_74768" data-name="Grupo 74768" transform="translate(22.393 14.409)">
            <g id="Grupo_74767" data-name="Grupo 74767" transform="translate(0 0)">
              <g id="Grupo_74766" data-name="Grupo 74766">
                <g id="Grupo_74765" data-name="Grupo 74765">
                  <path id="Trazado_110761" data-name="Trazado 110761" d="M.28,1.57A1.758,1.758,0,0,1,.063.8,1.753,1.753,0,0,1,.031,0a1.758,1.758,0,0,1,.22.77A1.735,1.735,0,0,1,.28,1.57Z" fill="#fff"/>
                </g>
              </g>
            </g>
          </g>
        </g>
      </g>
      <g id="Grupo_76765" data-name="Grupo 76765" transform="translate(41.703 32.585)">
        <path id="Trazado_9870" data-name="Trazado 9870" d="M389.887,2564.615a1.2,1.2,0,0,1-1.2-1.195v-14.859a1.2,1.2,0,0,1,1.2-1.195h2.88l-6.349-7.494-6.352,7.494h2.88a1.2,1.2,0,0,1,1.195,1.195v14.859a1.195,1.195,0,1,1-2.389,0v-13.664h-4.264a1.195,1.195,0,0,1-.911-1.967l8.93-10.538a1.194,1.194,0,0,1,.912-.423h0a1.194,1.194,0,0,1,.912.423l8.927,10.538a1.2,1.2,0,0,1-.913,1.967h-4.262v13.664A1.2,1.2,0,0,1,389.887,2564.615Z" transform="translate(-376.293 -2536.828)" fill="#344154"/>
      </g>
    </g>
  </g>
</svg>
