<svg xmlns="http://www.w3.org/2000/svg" width="234.587" height="213.484" viewBox="0 0 234.587 213.484">
  <g id="Grupo_77181" data-name="Grupo 77181" transform="translate(-31.911 -60.008)">
    <g id="Background_Complete" data-name="Background Complete" transform="translate(31.911 80.015)">
      <g id="Grupo_76804" data-name="Grupo 76804">
        <g id="Grupo_76769" data-name="Grupo 76769">
          <rect id="Rectángulo_30022" data-name="Rectángulo 30022" width="108.774" height="41.222" fill="#fafafa"/>
        </g>
        <g id="Grupo_76771" data-name="Grupo 76771" transform="translate(17.029 9.617)">
          <g id="Grupo_76770" data-name="Grupo 76770">
            <path id="Trazado_123982" data-name="Trazado 123982" d="M147.847,118.187c0,.074-18.485.133-41.283.133s-41.287-.06-41.287-.133,18.481-.133,41.287-.133S147.847,118.114,147.847,118.187Z" transform="translate(-65.277 -118.054)" fill="#ebebeb"/>
          </g>
        </g>
        <g id="Grupo_76773" data-name="Grupo 76773" transform="translate(17.029 14.495)">
          <g id="Grupo_76772" data-name="Grupo 76772">
            <path id="Trazado_123983" data-name="Trazado 123983" d="M147.847,127.744c0,.074-18.485.133-41.283.133s-41.287-.06-41.287-.133,18.481-.133,41.287-.133S147.847,127.67,147.847,127.744Z" transform="translate(-65.277 -127.611)" fill="#ebebeb"/>
          </g>
        </g>
        <g id="Grupo_76775" data-name="Grupo 76775" transform="translate(17.029 19.373)">
          <g id="Grupo_76774" data-name="Grupo 76774">
            <path id="Trazado_123984" data-name="Trazado 123984" d="M147.847,137.3c0,.073-18.485.133-41.283.133s-41.287-.06-41.287-.133,18.481-.133,41.287-.133S147.847,137.228,147.847,137.3Z" transform="translate(-65.277 -137.168)" fill="#ebebeb"/>
          </g>
        </g>
        <g id="Grupo_76777" data-name="Grupo 76777" transform="translate(17.029 24.25)">
          <g id="Grupo_76776" data-name="Grupo 76776">
            <path id="Trazado_123985" data-name="Trazado 123985" d="M147.847,146.858c0,.074-18.485.133-41.283.133s-41.287-.06-41.287-.133,18.481-.133,41.287-.133S147.847,146.784,147.847,146.858Z" transform="translate(-65.277 -146.725)" fill="#ebebeb"/>
          </g>
        </g>
        <g id="Grupo_76779" data-name="Grupo 76779" transform="translate(17.029 29.128)">
          <g id="Grupo_76778" data-name="Grupo 76778">
            <path id="Trazado_123986" data-name="Trazado 123986" d="M147.847,156.415c0,.074-18.485.133-41.283.133s-41.287-.06-41.287-.133,18.481-.133,41.287-.133S147.847,156.341,147.847,156.415Z" transform="translate(-65.277 -156.282)" fill="#ebebeb"/>
          </g>
        </g>
        <g id="Grupo_76781" data-name="Grupo 76781" transform="translate(16.365 14.028)">
          <g id="Grupo_76780" data-name="Grupo 76780">
            <path id="Trazado_123987" data-name="Trazado 123987" d="M140.02,136.247s-.057.076-.18.215a2.158,2.158,0,0,1-.694.44,3.28,3.28,0,0,1-3.014-.554,5.526,5.526,0,0,1-1.418-1.788c-.4-.74-.709-1.593-1.081-2.487a7.828,7.828,0,0,0-1.616-2.595,3.6,3.6,0,0,0-1.4-.856,3.718,3.718,0,0,0-1.727-.1,6.6,6.6,0,0,0-3.294,1.746c-.983.888-1.848,1.981-2.906,2.972a6.66,6.66,0,0,1-3.988,1.961,3.663,3.663,0,0,1-2.283-.609,5.451,5.451,0,0,1-1.59-1.833c-.821-1.417-1.237-3.065-2.3-4.359a3.744,3.744,0,0,0-2-1.383,2.774,2.774,0,0,0-2.348.564,5.3,5.3,0,0,0-1.543,2.054,12.966,12.966,0,0,0-.731,2.569,15.928,15.928,0,0,1-.724,2.666,6.373,6.373,0,0,1-.667,1.246,5.748,5.748,0,0,1-.975,1.038,6.16,6.16,0,0,1-2.519,1.258,5.988,5.988,0,0,1-2.778.04,6.262,6.262,0,0,1-2.454-1.211c-.725-.539-1.382-1.139-2.07-1.676a6.158,6.158,0,0,0-2.231-1.215,3.227,3.227,0,0,0-2.389.31,5.638,5.638,0,0,0-1.782,1.659,15.806,15.806,0,0,0-1.2,2.112,16.471,16.471,0,0,1-1.193,2.093,5.6,5.6,0,0,1-1.713,1.626,3.488,3.488,0,0,1-2.236.523,3.215,3.215,0,0,1-1.941-1.084,5.47,5.47,0,0,1-1.071-1.861,13.973,13.973,0,0,1-.488-2,9.442,9.442,0,0,0-1.148-3.594,4.025,4.025,0,0,0-2.654-1.974,2.954,2.954,0,0,0-1.529.19,4.07,4.07,0,0,0-1.227.808c-1.394,1.335-2.064,2.947-3.1,3.881a4.169,4.169,0,0,1-2.771,1.393,2.308,2.308,0,0,1-.808-.143c-.171-.072-.255-.116-.255-.116a2.83,2.83,0,0,0,1.062.206,4.154,4.154,0,0,0,2.7-1.413c1.007-.926,1.655-2.536,3.069-3.916a4.212,4.212,0,0,1,1.269-.847,3.111,3.111,0,0,1,1.614-.21,4.2,4.2,0,0,1,2.788,2.04,6.341,6.341,0,0,1,.771,1.733c.177.622.294,1.269.421,1.923a13.726,13.726,0,0,0,.488,1.963,5.255,5.255,0,0,0,1.033,1.783A2.993,2.993,0,0,0,81,142.453a3.262,3.262,0,0,0,2.086-.5,5.362,5.362,0,0,0,1.637-1.563,16.335,16.335,0,0,0,1.17-2.065,15.958,15.958,0,0,1,1.22-2.148,5.873,5.873,0,0,1,1.863-1.735,3.483,3.483,0,0,1,2.572-.337,6.4,6.4,0,0,1,2.329,1.259c.7.545,1.356,1.143,2.067,1.671A6,6,0,0,0,98.3,138.2a5.734,5.734,0,0,0,2.657-.04,5.905,5.905,0,0,0,2.411-1.2,5.441,5.441,0,0,0,.929-.988,6.111,6.111,0,0,0,.637-1.191,15.8,15.8,0,0,0,.712-2.622,13.172,13.172,0,0,1,.749-2.621,5.561,5.561,0,0,1,1.625-2.154,3.037,3.037,0,0,1,2.564-.608,3.99,3.99,0,0,1,2.139,1.475c1.106,1.352,1.521,3.021,2.319,4.4a5.227,5.227,0,0,0,1.512,1.757,3.428,3.428,0,0,0,2.135.574,6.444,6.444,0,0,0,3.852-1.889c1.045-.971,1.916-2.064,2.919-2.963a6.787,6.787,0,0,1,3.4-1.78,3.9,3.9,0,0,1,1.811.111,3.769,3.769,0,0,1,1.466.9,7.961,7.961,0,0,1,1.635,2.659c.367.9.672,1.752,1.055,2.484a5.451,5.451,0,0,0,1.369,1.765,3.24,3.24,0,0,0,2.933.586A2.259,2.259,0,0,0,140.02,136.247Z" transform="translate(-63.975 -126.695)" fill="#e0e0e0"/>
          </g>
        </g>
        <g id="Grupo_76783" data-name="Grupo 76783" transform="translate(15.69 10.262)">
          <g id="Grupo_76782" data-name="Grupo 76782">
            <path id="Trazado_123988" data-name="Trazado 123988" d="M144.6,131.5s-.1.011-.286.02c-.095,0-.211-.029-.351-.048a3.06,3.06,0,0,1-.461-.166,7.8,7.8,0,0,1-2.458-2.071q-.344-.4-.7-.859a9.771,9.771,0,0,0-.762-.941,4.047,4.047,0,0,0-2.43-1.107,3.418,3.418,0,0,0-1.483.187,3.815,3.815,0,0,0-1.322.892,31.2,31.2,0,0,0-2.174,2.812,6.447,6.447,0,0,1-1.392,1.352,4.3,4.3,0,0,1-1.9.712,8.522,8.522,0,0,1-4.191-.784c-1.37-.569-2.679-1.353-4.153-1.855a7.691,7.691,0,0,0-2.292-.46,4.991,4.991,0,0,0-2.314.506,25.906,25.906,0,0,0-4.017,3.046,8.21,8.21,0,0,1-2.325,1.274,8.732,8.732,0,0,1-2.665.462A9.823,9.823,0,0,1,101.621,133a12.832,12.832,0,0,1-4.014-4,36.256,36.256,0,0,1-2.443-5.11,10.414,10.414,0,0,0-1.42-2.325,6.179,6.179,0,0,0-2.092-1.616,3.738,3.738,0,0,0-2.522-.266,4.21,4.21,0,0,0-2.1,1.377,7.074,7.074,0,0,0-1.254,2.175,17.326,17.326,0,0,0-.648,2.405c-.172.807-.327,1.612-.548,2.395a10.484,10.484,0,0,1-.9,2.231,10.114,10.114,0,0,1-3.031,3.421,8.9,8.9,0,0,1-3.954,1.6,8.313,8.313,0,0,1-3.909-.453,7.694,7.694,0,0,1-4.713-4.624c-.326-.949-.49-1.862-.725-2.676a6.166,6.166,0,0,0-.941-2.091,3.345,3.345,0,0,0-2.726-1.4,2.114,2.114,0,0,0-1.035.376,1.739,1.739,0,0,1,1.03-.429,3.387,3.387,0,0,1,2.812,1.388,6.241,6.241,0,0,1,.981,2.12c.244.819.416,1.732.744,2.662a7.543,7.543,0,0,0,4.637,4.5,8.129,8.129,0,0,0,3.818.426,8.7,8.7,0,0,0,3.853-1.576,9.91,9.91,0,0,0,2.953-3.354,15.416,15.416,0,0,0,1.412-4.565,17.505,17.505,0,0,1,.654-2.441,7.314,7.314,0,0,1,1.3-2.255,4.461,4.461,0,0,1,2.222-1.46,4,4,0,0,1,2.694.278,6.438,6.438,0,0,1,2.186,1.684,10.65,10.65,0,0,1,1.46,2.383,36.28,36.28,0,0,0,2.426,5.078,12.579,12.579,0,0,0,3.928,3.916,9.568,9.568,0,0,0,5.147,1.431,8.462,8.462,0,0,0,2.585-.445,7.938,7.938,0,0,0,2.256-1.234,25.783,25.783,0,0,1,4.065-3.065,5.229,5.229,0,0,1,2.425-.524,7.928,7.928,0,0,1,2.363.478c1.5.515,2.817,1.311,4.162,1.873a8.342,8.342,0,0,0,4.081.784,4.1,4.1,0,0,0,1.819-.672,6.27,6.27,0,0,0,1.356-1.307,30.628,30.628,0,0,1,2.2-2.815,3.971,3.971,0,0,1,1.385-.92,3.57,3.57,0,0,1,1.552-.186,4.173,4.173,0,0,1,2.505,1.165,9.6,9.6,0,0,1,.765.961q.353.461.691.862a7.933,7.933,0,0,0,2.4,2.09A2.121,2.121,0,0,0,144.6,131.5Z" transform="translate(-62.654 -119.316)" fill="#e0e0e0"/>
          </g>
        </g>
        <g id="Grupo_76785" data-name="Grupo 76785" transform="translate(9.177 9.86)">
          <g id="Grupo_76784" data-name="Grupo 76784">
            <path id="Trazado_123989" data-name="Trazado 123989" d="M52.076,118.662a2.355,2.355,0,0,1-1.092.133,2.354,2.354,0,0,1-1.092-.133,2.358,2.358,0,0,1,1.092-.133A2.359,2.359,0,0,1,52.076,118.662Z" transform="translate(-49.892 -118.529)" fill="#e0e0e0"/>
          </g>
        </g>
        <g id="Grupo_76787" data-name="Grupo 76787" transform="translate(9.177 14.495)">
          <g id="Grupo_76786" data-name="Grupo 76786">
            <path id="Trazado_123990" data-name="Trazado 123990" d="M52.076,127.744a2.355,2.355,0,0,1-1.092.133,2.353,2.353,0,0,1-1.092-.133,2.358,2.358,0,0,1,1.092-.133A2.359,2.359,0,0,1,52.076,127.744Z" transform="translate(-49.892 -127.611)" fill="#e0e0e0"/>
          </g>
        </g>
        <g id="Grupo_76789" data-name="Grupo 76789" transform="translate(9.177 19.13)">
          <g id="Grupo_76788" data-name="Grupo 76788">
            <path id="Trazado_123991" data-name="Trazado 123991" d="M52.076,136.826a2.355,2.355,0,0,1-1.092.133,2.354,2.354,0,0,1-1.092-.133,2.365,2.365,0,0,1,1.092-.133A2.366,2.366,0,0,1,52.076,136.826Z" transform="translate(-49.892 -136.693)" fill="#e0e0e0"/>
          </g>
        </g>
        <g id="Grupo_76791" data-name="Grupo 76791" transform="translate(9.177 23.765)">
          <g id="Grupo_76790" data-name="Grupo 76790">
            <path id="Trazado_123992" data-name="Trazado 123992" d="M52.076,145.908a2.355,2.355,0,0,1-1.092.133,2.354,2.354,0,0,1-1.092-.133,2.365,2.365,0,0,1,1.092-.133A2.366,2.366,0,0,1,52.076,145.908Z" transform="translate(-49.892 -145.775)" fill="#e0e0e0"/>
          </g>
        </g>
        <g id="Grupo_76793" data-name="Grupo 76793" transform="translate(9.177 28.4)">
          <g id="Grupo_76792" data-name="Grupo 76792">
            <path id="Trazado_123993" data-name="Trazado 123993" d="M52.076,154.99a2.366,2.366,0,0,1-1.092.133,2.365,2.365,0,0,1-1.092-.133,2.354,2.354,0,0,1,1.092-.133A2.355,2.355,0,0,1,52.076,154.99Z" transform="translate(-49.892 -154.857)" fill="#e0e0e0"/>
          </g>
        </g>
        <g id="Grupo_76795" data-name="Grupo 76795" transform="translate(17.029 34.358)">
          <g id="Grupo_76794" data-name="Grupo 76794">
            <path id="Trazado_123994" data-name="Trazado 123994" d="M69.645,166.664a9.075,9.075,0,0,1-2.184.133,9.075,9.075,0,0,1-2.184-.133,9.086,9.086,0,0,1,2.184-.133A9.086,9.086,0,0,1,69.645,166.664Z" transform="translate(-65.277 -166.531)" fill="#e0e0e0"/>
          </g>
        </g>
        <g id="Grupo_76797" data-name="Grupo 76797" transform="translate(36.282 34.358)">
          <g id="Grupo_76796" data-name="Grupo 76796">
            <path id="Trazado_123995" data-name="Trazado 123995" d="M107.368,166.664a9.075,9.075,0,0,1-2.184.133,9.075,9.075,0,0,1-2.184-.133,9.087,9.087,0,0,1,2.184-.133A9.086,9.086,0,0,1,107.368,166.664Z" transform="translate(-103 -166.531)" fill="#e0e0e0"/>
          </g>
        </g>
        <g id="Grupo_76799" data-name="Grupo 76799" transform="translate(55.534 34.358)">
          <g id="Grupo_76798" data-name="Grupo 76798" transform="translate(0)">
            <path id="Trazado_123996" data-name="Trazado 123996" d="M145.09,166.664a17.968,17.968,0,0,1-4.367,0,18.031,18.031,0,0,1,4.367,0Z" transform="translate(-140.723 -166.531)" fill="#e0e0e0"/>
          </g>
        </g>
        <g id="Grupo_76801" data-name="Grupo 76801" transform="translate(74.787 34.358)">
          <g id="Grupo_76800" data-name="Grupo 76800">
            <path id="Trazado_123997" data-name="Trazado 123997" d="M182.813,166.664a17.968,17.968,0,0,1-4.367,0,18.031,18.031,0,0,1,4.367,0Z" transform="translate(-178.446 -166.531)" fill="#e0e0e0"/>
          </g>
        </g>
        <g id="Grupo_76803" data-name="Grupo 76803" transform="translate(94.039 34.358)">
          <g id="Grupo_76802" data-name="Grupo 76802">
            <path id="Trazado_123998" data-name="Trazado 123998" d="M220.536,166.664a17.968,17.968,0,0,1-4.367,0,18.031,18.031,0,0,1,4.367,0Z" transform="translate(-216.169 -166.531)" fill="#e0e0e0"/>
          </g>
        </g>
      </g>
    </g>
    <g id="Panel" transform="translate(148.05 60.007)">
      <g id="Grupo_76946" data-name="Grupo 76946">
        <g id="Grupo_76943" data-name="Grupo 76943">
          <g id="Grupo_76805" data-name="Grupo 76805" transform="translate(99.557 0.741)">
            <path id="Trazado_123999" data-name="Trazado 123999" d="M465.581,61.459s7.8.11,4.465,15.56-2.909,18.372-2.909,24.484a10.659,10.659,0,0,0,5.771,9.726H462.325l-7.784-36.063V61.459Z" transform="translate(-454.541 -61.459)" fill="#e0e0e0"/>
          </g>
          <g id="Grupo_76806" data-name="Grupo 76806" transform="translate(6.028 12.568)">
            <path id="Trazado_124000" data-name="Trazado 124000" d="M378.145,194.444H271.282l.952-104.55,100.653-5.261Z" transform="translate(-271.282 -84.634)" fill="#e0e0e0"/>
          </g>
          <g id="Grupo_76807" data-name="Grupo 76807" transform="translate(2.359 13.104)">
            <path id="Trazado_124001" data-name="Trazado 124001" d="M370.958,192.259H264.095l.952-104.55,103.761-2.026Z" transform="translate(-264.095 -85.683)" fill="#ebebeb"/>
          </g>
          <g id="Grupo_76811" data-name="Grupo 76811" transform="translate(0.227 11.85)">
            <g id="Grupo_76808" data-name="Grupo 76808" transform="translate(0.133 0.115)">
              <path id="Trazado_124002" data-name="Trazado 124002" d="M366.824,188.251H260.177V83.7l106.712-.249Z" transform="translate(-260.177 -83.451)" fill="#fafafa"/>
            </g>
            <g id="Grupo_76810" data-name="Grupo 76810">
              <g id="Grupo_76809" data-name="Grupo 76809">
                <path id="Trazado_124003" data-name="Trazado 124003" d="M366.7,188.141c0-.977-.02-41.94-.05-104.8l.115.115-106.545.267h-.167l.133-.133c-.007,38.246-.013,74.109-.018,104.55l-.115-.115,106.647.115-106.647.115h-.115v-.116c-.005-30.44-.011-66.3-.018-104.55v-.133h.3l106.545-.231h.115v.115C366.768,146.2,366.7,187.165,366.7,188.141Z" transform="translate(-259.916 -83.226)" fill="#263238"/>
              </g>
            </g>
          </g>
          <g id="Grupo_76812" data-name="Grupo 76812" transform="translate(0 0.362)">
            <path id="Trazado_124004" data-name="Trazado 124004" d="M366.544,72.038c-5.509-6.415.883-11.163,3.039-11.263l-101.548-.058A8.553,8.553,0,0,0,259.6,70.73a11.769,11.769,0,0,0,.412,1.59" transform="translate(-259.472 -60.717)" fill="#f5f5f5"/>
          </g>
          <g id="Grupo_76814" data-name="Grupo 76814" transform="translate(104.821 0.638)">
            <g id="Grupo_76813" data-name="Grupo 76813">
              <path id="Trazado_124005" data-name="Trazado 124005" d="M469.8,111.129a.666.666,0,0,1,.139-.011l.41-.011,1.595-.021,6.015-.037-.024.158a6.441,6.441,0,0,1-2.453-1.405,7.989,7.989,0,0,1-1.831-2.61,17.451,17.451,0,0,1-1.095-3.339c-.139-.6-.261-1.205-.375-1.829-.055-.312-.119-.624-.147-.951a7.862,7.862,0,0,1-.073-.981,36.345,36.345,0,0,1,.137-4.064c.1-1.39.257-2.813.425-4.266.348-2.906.785-5.931,1.3-9.032.211-1.325.48-2.633.7-3.915s.382-2.564.544-3.819.3-2.491.445-3.7c.065-.606.149-1.2.162-1.788a10.767,10.767,0,0,0-.1-1.741,10.451,10.451,0,0,0-.963-3.205,6.4,6.4,0,0,0-1.95-2.432,3.836,3.836,0,0,0-2.776-.62,5.1,5.1,0,0,0-2.472,1.027,6.094,6.094,0,0,0-1.543,1.91,8.216,8.216,0,0,0-.749,2.079,5.428,5.428,0,0,0,.406,3.457,11.506,11.506,0,0,0,1.124,1.953l.343.479a1.176,1.176,0,0,1,.112.167,1.076,1.076,0,0,1-.134-.151c-.086-.1-.208-.257-.365-.463a10.7,10.7,0,0,1-1.175-1.942,5.51,5.51,0,0,1-.457-3.53,8.317,8.317,0,0,1,.745-2.127,6.243,6.243,0,0,1,1.576-1.979,5.282,5.282,0,0,1,2.56-1.083,4.043,4.043,0,0,1,2.93.642,6.6,6.6,0,0,1,2.034,2.509,10.66,10.66,0,0,1,1,3.275,11.064,11.064,0,0,1,.1,1.781c-.013.606-.1,1.206-.16,1.81q-.2,1.817-.438,3.7c-.16,1.257-.331,2.535-.54,3.829s-.486,2.589-.7,3.916c-.514,3.1-.954,6.119-1.306,9.019-.17,1.45-.328,2.87-.433,4.255a36.4,36.4,0,0,0-.148,4.035,7.528,7.528,0,0,0,.068.96c.025.315.088.629.142.94.111.621.23,1.229.365,1.82a17.326,17.326,0,0,0,1.064,3.3,7.832,7.832,0,0,0,1.771,2.56,6.3,6.3,0,0,0,2.375,1.386l.5.161-.523,0-6.015-.038-1.595-.021-.41-.011A.623.623,0,0,1,469.8,111.129Z" transform="translate(-464.855 -61.257)" fill="#263238"/>
            </g>
          </g>
          <g id="Grupo_76816" data-name="Grupo 76816" transform="translate(42.681 3.615)">
            <g id="Grupo_76815" data-name="Grupo 76815">
              <path id="Trazado_124006" data-name="Trazado 124006" d="M344.41,67.091c.041.029-.262.435-.565,1.177a6.69,6.69,0,0,0-.383,1.346A6.914,6.914,0,0,0,343.722,73a6.689,6.689,0,0,0,.584,1.272c.412.686.774,1.042.737,1.076-.013.013-.11-.067-.277-.226a4.347,4.347,0,0,1-.619-.75,5.959,5.959,0,0,1-.657-1.292,6.562,6.562,0,0,1-.269-3.509,5.96,5.96,0,0,1,.452-1.376,4.346,4.346,0,0,1,.5-.837C344.312,67.174,344.4,67.08,344.41,67.091Z" transform="translate(-343.1 -67.09)" fill="#263238"/>
            </g>
          </g>
          <g id="Grupo_76818" data-name="Grupo 76818" transform="translate(38.775)">
            <g id="Grupo_76817" data-name="Grupo 76817">
              <path id="Trazado_124007" data-name="Trazado 124007" d="M338.127,60.008a10.9,10.9,0,0,0-1.349,1.648,6.747,6.747,0,0,0,1.7,9.116,10.934,10.934,0,0,0,1.852,1.05,2.017,2.017,0,0,1-.56-.154,6.116,6.116,0,0,1-1.4-.745,6.738,6.738,0,0,1-1.747-9.369,6.092,6.092,0,0,1,1.039-1.2A2,2,0,0,1,338.127,60.008Z" transform="translate(-335.446 -60.007)" fill="#263238"/>
            </g>
          </g>
          <g id="Grupo_76820" data-name="Grupo 76820" transform="translate(14.321 36.65)">
            <g id="Grupo_76819" data-name="Grupo 76819">
              <path id="Trazado_124008" data-name="Trazado 124008" d="M372.063,176.782s-.113.009-.334.014l-.98.013-3.77.025-13.863.042-45.735.039-19.724-.007h-.127v-.127c.019-13.066.036-24.3.047-32.286.016-3.979.028-7.147.037-9.328.009-1.08.016-1.914.02-2.49,0-.276.008-.489.011-.642s.011-.217.011-.217.007.074.011.217.006.366.011.642c.005.575.012,1.41.021,2.49.008,2.182.021,5.349.037,9.328.012,7.981.028,19.219.047,32.286l-.127-.126,19.724-.007,45.735.039,13.863.042,3.77.025.98.013C371.95,176.773,372.063,176.782,372.063,176.782Z" transform="translate(-287.531 -131.819)" fill="#263238"/>
            </g>
          </g>
          <g id="Grupo_76821" data-name="Grupo 76821" transform="translate(21.307 70.505)">
            <rect id="Rectángulo_30023" data-name="Rectángulo 30023" width="8.526" height="8.526" fill="#aed3f2"/>
          </g>
          <g id="Grupo_76822" data-name="Grupo 76822" transform="translate(33.807 64.41)">
            <rect id="Rectángulo_30024" data-name="Rectángulo 30024" width="8.526" height="14.621" fill="#344154"/>
          </g>
          <g id="Grupo_76823" data-name="Grupo 76823" transform="translate(46.356 57.486)">
            <rect id="Rectángulo_30025" data-name="Rectángulo 30025" width="8.526" height="21.545" fill="#aed3f2"/>
          </g>
          <g id="Grupo_76824" data-name="Grupo 76824" transform="translate(58.522 49.779)">
            <rect id="Rectángulo_30026" data-name="Rectángulo 30026" width="8.526" height="29.253" fill="#344154"/>
          </g>
          <g id="Grupo_76825" data-name="Grupo 76825" transform="translate(70.971 39.91)">
            <rect id="Rectángulo_30027" data-name="Rectángulo 30027" width="8.526" height="39.122" fill="#d9a171"/>
          </g>
          <g id="Grupo_76826" data-name="Grupo 76826" transform="translate(83.327 32.384)">
            <rect id="Rectángulo_30028" data-name="Rectángulo 30028" width="8.526" height="46.243" fill="#344154"/>
          </g>
          <g id="Grupo_76828" data-name="Grupo 76828" transform="translate(21.307 23.481)">
            <g id="Grupo_76827" data-name="Grupo 76827">
              <path id="Trazado_124009" data-name="Trazado 124009" d="M301.221,144.3a.644.644,0,0,1,.109-.084l.332-.229,1.3-.869,4.886-3.221,16.92-11.058.2-.128v.235c0,1.208,0,2.5,0,3.816l-.2-.108,6.667-4.471,23.528-15.719,7.147-4.738,1.951-1.277.511-.327a1.137,1.137,0,0,1,.179-.1,1.219,1.219,0,0,1-.164.126l-.5.349-1.923,1.318-7.1,4.809L331.578,128.4l-6.671,4.466-.2.136v-.244c0-1.316,0-2.608,0-3.816l.2.106-16.971,10.979-4.926,3.159-1.322.834-.344.211A.635.635,0,0,1,301.221,144.3Z" transform="translate(-301.221 -106.016)" fill="#263238"/>
            </g>
          </g>
          <g id="Grupo_76830" data-name="Grupo 76830" transform="translate(80.552 23.329)">
            <g id="Grupo_76829" data-name="Grupo 76829">
              <path id="Trazado_124010" data-name="Trazado 124010" d="M421.584,109.479a4.406,4.406,0,0,1-.09-1.051c-.023-.653-.039-1.56-.042-2.577l.132.132h-.326c-1.092,0-2.081-.015-2.8-.039a5.049,5.049,0,0,1-1.158-.094,5.051,5.051,0,0,1,1.158-.094c.716-.024,1.7-.039,2.8-.039h.458v.132c0,1.017-.019,1.924-.042,2.577A4.406,4.406,0,0,1,421.584,109.479Z" transform="translate(-417.304 -105.718)" fill="#263238"/>
            </g>
          </g>
          <g id="Grupo_76883" data-name="Grupo 76883" transform="translate(7.627 88.357)">
            <g id="Grupo_76832" data-name="Grupo 76832" transform="translate(20.38)">
              <g id="Grupo_76831" data-name="Grupo 76831">
                <path id="Trazado_124011" data-name="Trazado 124011" d="M326.119,233.265c0,.073-2.636.133-5.886.133s-5.886-.06-5.886-.133,2.635-.133,5.886-.133S326.119,233.192,326.119,233.265Z" transform="translate(-314.347 -233.132)" fill="#263238"/>
              </g>
            </g>
            <g id="Grupo_76834" data-name="Grupo 76834" transform="translate(25.974 1.406)">
              <g id="Grupo_76833" data-name="Grupo 76833">
                <path id="Trazado_124012" data-name="Trazado 124012" d="M325.44,238.643a7.2,7.2,0,0,1,0-2.758,7.23,7.23,0,0,1,0,2.758Z" transform="translate(-325.307 -235.886)" fill="#263238"/>
              </g>
            </g>
            <g id="Grupo_76836" data-name="Grupo 76836" transform="translate(8.927 5.409)">
              <g id="Grupo_76835" data-name="Grupo 76835">
                <path id="Trazado_124013" data-name="Trazado 124013" d="M323.508,243.863c0,.073-7.075.133-15.8.133s-15.8-.059-15.8-.133,7.074-.133,15.8-.133S323.508,243.789,323.508,243.863Z" transform="translate(-291.906 -243.73)" fill="#263238"/>
              </g>
            </g>
            <g id="Grupo_76838" data-name="Grupo 76838" transform="translate(9.006 5.648)">
              <g id="Grupo_76837" data-name="Grupo 76837">
                <path id="Trazado_124014" data-name="Trazado 124014" d="M292.194,248.016a13.745,13.745,0,0,1,0-3.818,13.8,13.8,0,0,1,0,3.818Z" transform="translate(-292.061 -244.198)" fill="#263238"/>
              </g>
            </g>
            <g id="Grupo_76840" data-name="Grupo 76840" transform="translate(20.247 5.754)">
              <g id="Grupo_76839" data-name="Grupo 76839">
                <path id="Trazado_124015" data-name="Trazado 124015" d="M314.22,247.693a10.242,10.242,0,0,1,0-3.287,10.211,10.211,0,0,1,0,3.287Z" transform="translate(-314.087 -244.406)" fill="#263238"/>
              </g>
            </g>
            <g id="Grupo_76842" data-name="Grupo 76842" transform="translate(31.807 5.648)">
              <g id="Grupo_76841" data-name="Grupo 76841">
                <path id="Trazado_124016" data-name="Trazado 124016" d="M336.869,247.8a12.308,12.308,0,0,1,0-3.606,12.269,12.269,0,0,1,0,3.606Z" transform="translate(-336.736 -244.198)" fill="#263238"/>
              </g>
            </g>
            <g id="Grupo_76844" data-name="Grupo 76844" transform="translate(40.608 5.542)">
              <g id="Grupo_76843" data-name="Grupo 76843">
                <path id="Trazado_124017" data-name="Trazado 124017" d="M354.115,247.7a13,13,0,0,1,0-3.712,13.046,13.046,0,0,1,0,3.712Z" transform="translate(-353.982 -243.99)" fill="#263238"/>
              </g>
            </g>
            <g id="Grupo_76846" data-name="Grupo 76846" transform="translate(5.427 10.393)">
              <g id="Grupo_76845" data-name="Grupo 76845">
                <path id="Trazado_124018" data-name="Trazado 124018" d="M292.685,253.629a54.989,54.989,0,0,1-7.636,0,54.989,54.989,0,0,1,7.636,0Z" transform="translate(-285.049 -253.496)" fill="#263238"/>
              </g>
            </g>
            <g id="Grupo_76848" data-name="Grupo 76848" transform="translate(16.987 10.393)">
              <g id="Grupo_76847" data-name="Grupo 76847">
                <path id="Trazado_124019" data-name="Trazado 124019" d="M313.53,253.629a32.112,32.112,0,0,1-5.832,0,32.112,32.112,0,0,1,5.832,0Z" transform="translate(-307.698 -253.496)" fill="#263238"/>
              </g>
            </g>
            <g id="Grupo_76850" data-name="Grupo 76850" transform="translate(28.97 10.711)">
              <g id="Grupo_76849" data-name="Grupo 76849">
                <path id="Trazado_124020" data-name="Trazado 124020" d="M337.435,254.252a36.813,36.813,0,0,1-6.257,0,36.948,36.948,0,0,1,6.257,0Z" transform="translate(-331.178 -254.119)" fill="#263238"/>
              </g>
            </g>
            <g id="Grupo_76852" data-name="Grupo 76852" transform="translate(38.62 10.181)">
              <g id="Grupo_76851" data-name="Grupo 76851">
                <path id="Trazado_124021" data-name="Trazado 124021" d="M356.768,253.213a41.959,41.959,0,0,1-6.681,0,42.108,42.108,0,0,1,6.681,0Z" transform="translate(-350.087 -253.08)" fill="#263238"/>
              </g>
            </g>
            <g id="Grupo_76861" data-name="Grupo 76861" transform="translate(2.584 12.01)">
              <g id="Grupo_76854" data-name="Grupo 76854" transform="translate(6.528)">
                <g id="Grupo_76853" data-name="Grupo 76853">
                  <path id="Trazado_124022" data-name="Trazado 124022" d="M292.4,258.892a4.741,4.741,0,0,1,0-2.227,4.723,4.723,0,0,1,0,2.227Z" transform="translate(-292.269 -256.665)" fill="#263238"/>
                </g>
              </g>
              <g id="Grupo_76856" data-name="Grupo 76856" transform="translate(0.133 2.094)">
                <g id="Grupo_76855" data-name="Grupo 76855">
                  <path id="Trazado_124023" data-name="Trazado 124023" d="M293.526,260.9c0,.073-3.087.133-6.893.133s-6.894-.06-6.894-.133,3.086-.133,6.894-.133S293.526,260.828,293.526,260.9Z" transform="translate(-279.739 -260.768)" fill="#263238"/>
                </g>
              </g>
              <g id="Grupo_76858" data-name="Grupo 76858" transform="translate(13.786 2.227)">
                <g id="Grupo_76857" data-name="Grupo 76857">
                  <path id="Trazado_124024" data-name="Trazado 124024" d="M306.624,264.21a9.562,9.562,0,0,1,0-3.181,9.6,9.6,0,0,1,0,3.181Z" transform="translate(-306.491 -261.029)" fill="#263238"/>
                </g>
              </g>
              <g id="Grupo_76860" data-name="Grupo 76860" transform="translate(0 2.227)">
                <g id="Grupo_76859" data-name="Grupo 76859">
                  <path id="Trazado_124025" data-name="Trazado 124025" d="M279.612,264.422a10.914,10.914,0,0,1,0-3.393,10.919,10.919,0,0,1,0,3.393Z" transform="translate(-279.479 -261.029)" fill="#263238"/>
                </g>
              </g>
            </g>
            <g id="Grupo_76872" data-name="Grupo 76872" transform="translate(25.561 12.01)">
              <g id="Grupo_76863" data-name="Grupo 76863" transform="translate(6.528)">
                <g id="Grupo_76862" data-name="Grupo 76862">
                  <path id="Trazado_124026" data-name="Trazado 124026" d="M337.422,258.892a4.724,4.724,0,0,1,0-2.227,4.737,4.737,0,0,1,0,2.227Z" transform="translate(-337.289 -256.665)" fill="#263238"/>
                </g>
              </g>
              <g id="Grupo_76865" data-name="Grupo 76865" transform="translate(0.133 2.094)">
                <g id="Grupo_76864" data-name="Grupo 76864">
                  <path id="Trazado_124027" data-name="Trazado 124027" d="M348.045,260.9c0,.073-5.213.133-11.642.133s-11.644-.06-11.644-.133,5.212-.133,11.644-.133S348.045,260.828,348.045,260.9Z" transform="translate(-324.759 -260.768)" fill="#263238"/>
                </g>
              </g>
              <g id="Grupo_76867" data-name="Grupo 76867" transform="translate(13.786 2.227)">
                <g id="Grupo_76866" data-name="Grupo 76866">
                  <path id="Trazado_124028" data-name="Trazado 124028" d="M351.644,264.21a9.564,9.564,0,0,1,0-3.181,9.595,9.595,0,0,1,0,3.181Z" transform="translate(-351.511 -261.029)" fill="#263238"/>
                </g>
              </g>
              <g id="Grupo_76869" data-name="Grupo 76869" transform="translate(23.762 2.227)">
                <g id="Grupo_76868" data-name="Grupo 76868">
                  <path id="Trazado_124029" data-name="Trazado 124029" d="M371.191,264.21a9.6,9.6,0,0,1,0-3.181,9.6,9.6,0,0,1,0,3.181Z" transform="translate(-371.058 -261.029)" fill="#263238"/>
                </g>
              </g>
              <g id="Grupo_76871" data-name="Grupo 76871" transform="translate(0 2.227)">
                <g id="Grupo_76870" data-name="Grupo 76870">
                  <path id="Trazado_124030" data-name="Trazado 124030" d="M324.632,264.422a10.914,10.914,0,0,1,0-3.393,10.872,10.872,0,0,1,0,3.393Z" transform="translate(-324.499 -261.029)" fill="#263238"/>
                </g>
              </g>
            </g>
            <g id="Grupo_76874" data-name="Grupo 76874" transform="translate(0 19.454)">
              <g id="Grupo_76873" data-name="Grupo 76873">
                <path id="Trazado_124031" data-name="Trazado 124031" d="M279.849,271.382a27.887,27.887,0,0,1-5.434,0,27.887,27.887,0,0,1,5.434,0Z" transform="translate(-274.415 -271.249)" fill="#263238"/>
              </g>
            </g>
            <g id="Grupo_76876" data-name="Grupo 76876" transform="translate(13.063 19.064)">
              <g id="Grupo_76875" data-name="Grupo 76875">
                <path id="Trazado_124032" data-name="Trazado 124032" d="M305.882,270.619a32.551,32.551,0,0,1-5.872,0,32.432,32.432,0,0,1,5.872,0Z" transform="translate(-300.01 -270.486)" fill="#263238"/>
              </g>
            </g>
            <g id="Grupo_76878" data-name="Grupo 76878" transform="translate(23.521 19.064)">
              <g id="Grupo_76877" data-name="Grupo 76877">
                <path id="Trazado_124033" data-name="Trazado 124033" d="M325.673,270.619a25.261,25.261,0,0,1-5.172,0,25.169,25.169,0,0,1,5.172,0Z" transform="translate(-320.501 -270.486)" fill="#263238"/>
              </g>
            </g>
            <g id="Grupo_76880" data-name="Grupo 76880" transform="translate(36.233 19.064)">
              <g id="Grupo_76879" data-name="Grupo 76879">
                <path id="Trazado_124034" data-name="Trazado 124034" d="M351.018,270.619a29.708,29.708,0,0,1-5.609,0,29.6,29.6,0,0,1,5.609,0Z" transform="translate(-345.409 -270.486)" fill="#263238"/>
              </g>
            </g>
            <g id="Grupo_76882" data-name="Grupo 76882" transform="translate(46.663 18.714)">
              <g id="Grupo_76881" data-name="Grupo 76881">
                <path id="Trazado_124035" data-name="Trazado 124035" d="M371.543,269.932a30.524,30.524,0,0,1-5.7,0,30.65,30.65,0,0,1,5.7,0Z" transform="translate(-365.846 -269.799)" fill="#263238"/>
              </g>
            </g>
          </g>
          <g id="Grupo_76899" data-name="Grupo 76899" transform="translate(62.772 86.979)">
            <g id="Grupo_76884" data-name="Grupo 76884">
              <path id="Trazado_124036" data-name="Trazado 124036" d="M418.469,252.725h-36V230.431h36Zm-35.978-.026h35.953V230.456H382.491Z" transform="translate(-382.465 -230.431)" fill="#263238"/>
            </g>
            <g id="Grupo_76886" data-name="Grupo 76886" transform="translate(3.837 6.567)">
              <g id="Grupo_76885" data-name="Grupo 76885">
                <path id="Trazado_124037" data-name="Trazado 124037" d="M413.452,252.844c-2.5-.946-5.364,1.67-7.81.6-1.423-.621-2.068-2.23-2.766-3.617s-1.9-2.85-3.443-2.69-2.817,1.966-4.321,1.531a2.9,2.9,0,0,1-1.66-2.283,5.179,5.179,0,0,0-1.125-2.689c-.723-.672-2.23-.492-2.343.488v11.8h28.135A49.377,49.377,0,0,0,413.452,252.844Z" transform="translate(-389.984 -243.299)" fill="#aed3f2"/>
              </g>
            </g>
            <g id="Grupo_76889" data-name="Grupo 76889" transform="translate(2.262 19.215)">
              <g id="Grupo_76888" data-name="Grupo 76888">
                <g id="Grupo_76887" data-name="Grupo 76887">
                  <path id="Trazado_124038" data-name="Trazado 124038" d="M417.359,268.127c0,.025-6.819.045-15.23.045s-15.231-.02-15.231-.045,6.818-.046,15.231-.046S417.359,268.1,417.359,268.127Z" transform="translate(-386.898 -268.081)" fill="#e0e0e0"/>
                </g>
              </g>
            </g>
            <g id="Grupo_76892" data-name="Grupo 76892" transform="translate(2.262 14.059)">
              <g id="Grupo_76891" data-name="Grupo 76891">
                <g id="Grupo_76890" data-name="Grupo 76890">
                  <path id="Trazado_124039" data-name="Trazado 124039" d="M417.359,258.024c0,.026-6.819.046-15.23.046s-15.231-.02-15.231-.046,6.818-.046,15.231-.046S417.359,258,417.359,258.024Z" transform="translate(-386.898 -257.978)" fill="#263238"/>
                </g>
              </g>
            </g>
            <g id="Grupo_76895" data-name="Grupo 76895" transform="translate(2.262 8.903)">
              <g id="Grupo_76894" data-name="Grupo 76894">
                <g id="Grupo_76893" data-name="Grupo 76893">
                  <path id="Trazado_124040" data-name="Trazado 124040" d="M417.359,247.921c0,.026-6.819.046-15.23.046s-15.231-.02-15.231-.046,6.818-.045,15.231-.045S417.359,247.9,417.359,247.921Z" transform="translate(-386.898 -247.876)" fill="#263238"/>
                </g>
              </g>
            </g>
            <g id="Grupo_76898" data-name="Grupo 76898" transform="translate(2.262 4.003)">
              <g id="Grupo_76897" data-name="Grupo 76897">
                <g id="Grupo_76896" data-name="Grupo 76896">
                  <path id="Trazado_124041" data-name="Trazado 124041" d="M417.359,238.32c0,.025-6.819.046-15.23.046s-15.231-.021-15.231-.046,6.818-.046,15.231-.046S417.359,238.294,417.359,238.32Z" transform="translate(-386.898 -238.274)" fill="#263238"/>
                </g>
              </g>
            </g>
          </g>
          <g id="Grupo_76919" data-name="Grupo 76919" transform="translate(11.305 19.529)">
            <g id="Grupo_76918" data-name="Grupo 76918">
              <g id="Grupo_76902" data-name="Grupo 76902">
                <g id="Grupo_76901" data-name="Grupo 76901">
                  <g id="Grupo_76900" data-name="Grupo 76900">
                    <path id="Trazado_124042" data-name="Trazado 124042" d="M284.769,98.279a.206.206,0,0,1,.05,0h.146a3.279,3.279,0,0,1,.56.051,3.074,3.074,0,0,1,.848.29,2.8,2.8,0,0,1,.9.776,3.244,3.244,0,0,1,.6,1.325,3.14,3.14,0,0,1-.209,1.662,4.917,4.917,0,0,1-.412.818,8.715,8.715,0,0,0-.466.824,7.22,7.22,0,0,0-.623,1.893l-.008.044h-.043l-1.334-.032-1.4-.035h-.049v-.051a3.994,3.994,0,0,0-.574-1.87c-.151-.283-.318-.549-.473-.818a7.844,7.844,0,0,1-.443-.793,2.6,2.6,0,0,1-.145-1.652,3.511,3.511,0,0,1,.575-1.324,2.608,2.608,0,0,1,.91-.755,3.3,3.3,0,0,1,.842-.287,3.559,3.559,0,0,1,.555-.067c.064,0,.112,0,.145,0a.211.211,0,0,1,.049.005.206.206,0,0,1-.049,0l-.144.009a4.061,4.061,0,0,0-.548.085,3.33,3.33,0,0,0-.825.3,2.563,2.563,0,0,0-.881.749,3.464,3.464,0,0,0-.551,1.3,2.529,2.529,0,0,0,.15,1.6,7.744,7.744,0,0,0,.442.782c.154.265.324.534.477.819a4.071,4.071,0,0,1,.59,1.919l-.049-.052,1.4.034,1.334.033-.052.044a7.271,7.271,0,0,1,.636-1.922,8.9,8.9,0,0,1,.473-.831,4.871,4.871,0,0,0,.409-.8,3.071,3.071,0,0,0,.214-1.615,3.2,3.2,0,0,0-.57-1.3,2.781,2.781,0,0,0-.875-.77,3.123,3.123,0,0,0-.829-.3,3.825,3.825,0,0,0-.554-.068l-.145-.01A.167.167,0,0,1,284.769,98.279Z" transform="translate(-281.621 -98.273)" fill="#263238"/>
                  </g>
                </g>
              </g>
              <g id="Grupo_76905" data-name="Grupo 76905" transform="translate(1.39 2.522)">
                <g id="Grupo_76904" data-name="Grupo 76904">
                  <g id="Grupo_76903" data-name="Grupo 76903">
                    <path id="Trazado_124043" data-name="Trazado 124043" d="M286.492,108.222s0-.014-.007-.042l-.015-.126c-.013-.113-.031-.276-.054-.485-.044-.421-.109-1.031-.139-1.788-.007-.189-.012-.388-.011-.6s0-.422.022-.645a1.808,1.808,0,0,1,.179-.669,1.026,1.026,0,0,1,.536-.495.691.691,0,0,1,.729.169.512.512,0,0,1,.142.376.655.655,0,0,1-.154.381.877.877,0,0,1-.335.249,1.693,1.693,0,0,1-.406.117,4.845,4.845,0,0,1-.855.065,5.048,5.048,0,0,1-.855-.076,1.617,1.617,0,0,1-.4-.134,1.061,1.061,0,0,1-.33-.256.785.785,0,0,1-.181-.369.609.609,0,0,1,.064-.4.544.544,0,0,1,.293-.263.488.488,0,0,1,.383.033.734.734,0,0,1,.277.255,1.01,1.01,0,0,1,.13.342,4.065,4.065,0,0,1,.04.691c.005.446.01.86.015,1.239.008.756.014,1.368.018,1.793,0,.21,0,.374,0,.487,0,.055,0,.1,0,.127s0,.043,0,.043,0-.015,0-.043l0-.127c0-.113-.006-.277-.011-.488-.007-.425-.018-1.037-.031-1.793-.006-.379-.013-.794-.02-1.238a4.049,4.049,0,0,0-.042-.684.958.958,0,0,0-.126-.329.683.683,0,0,0-.262-.241.448.448,0,0,0-.353-.031.5.5,0,0,0-.271.245.571.571,0,0,0-.06.372.75.75,0,0,0,.173.35,1.219,1.219,0,0,0,.709.375,4.933,4.933,0,0,0,.847.075,4.806,4.806,0,0,0,.848-.064,1.671,1.671,0,0,0,.4-.114.841.841,0,0,0,.32-.237.619.619,0,0,0,.145-.357.475.475,0,0,0-.131-.347.651.651,0,0,0-.687-.16.988.988,0,0,0-.516.475,1.774,1.774,0,0,0-.177.655c-.021.22-.022.435-.025.642s0,.4.008.594c.026.756.087,1.366.126,1.788.02.209.036.373.046.485l.011.127C286.492,108.207,286.492,108.222,286.492,108.222Z" transform="translate(-284.346 -103.214)" fill="#263238"/>
                  </g>
                </g>
              </g>
              <g id="Grupo_76908" data-name="Grupo 76908" transform="translate(1.695 7.513)">
                <g id="Grupo_76907" data-name="Grupo 76907">
                  <g id="Grupo_76906" data-name="Grupo 76906">
                    <path id="Trazado_124044" data-name="Trazado 124044" d="M285,113.01c.007.007.011.168.017.45q.006.489.013,1.171l-.01-.029.866,1.083-.046-.022,1.052-.017-.045.02.549-.618.275-.309-.015.04c.01-.616.02-1.2.03-1.731l.055.057-1.963-.058-.567-.023a1.514,1.514,0,0,1-.211-.016,1,1,0,0,1,.188-.01l.555-.007,2,0h.056v.057c-.006.532-.012,1.115-.018,1.732v.023l-.016.017-.275.309-.55.616-.018.02H286.9l-1.052.009h-.029l-.017-.022-.848-1.1-.01-.014v-.015q.022-.7.037-1.2A3.671,3.671,0,0,1,285,113.01Z" transform="translate(-284.942 -112.993)" fill="#263238"/>
                  </g>
                </g>
              </g>
              <g id="Grupo_76911" data-name="Grupo 76911" transform="translate(1.782 8.769)">
                <g id="Grupo_76910" data-name="Grupo 76910">
                  <g id="Grupo_76909" data-name="Grupo 76909">
                    <path id="Trazado_124045" data-name="Trazado 124045" d="M287.739,115.845a.631.631,0,0,1-.1-.046c-.062-.031-.153-.074-.268-.119a2.657,2.657,0,0,0-1.889-.018,2.908,2.908,0,0,0-.271.114.593.593,0,0,1-.1.044.521.521,0,0,1,.091-.059,2.218,2.218,0,0,1,.267-.127,2.524,2.524,0,0,1,1.911.018,2.245,2.245,0,0,1,.265.132A.459.459,0,0,1,287.739,115.845Z" transform="translate(-285.114 -115.455)" fill="#263238"/>
                  </g>
                </g>
              </g>
              <g id="Grupo_76914" data-name="Grupo 76914" transform="translate(1.799 8.349)">
                <g id="Grupo_76913" data-name="Grupo 76913">
                  <g id="Grupo_76912" data-name="Grupo 76912">
                    <path id="Trazado_124046" data-name="Trazado 124046" d="M287.771,115.021a.578.578,0,0,1-.1-.046c-.062-.031-.153-.074-.268-.119a2.662,2.662,0,0,0-1.889-.019c-.116.043-.208.084-.27.114a.628.628,0,0,1-.1.044.431.431,0,0,1,.091-.059,2.126,2.126,0,0,1,.267-.127,2.526,2.526,0,0,1,1.91.019,2.13,2.13,0,0,1,.265.132A.486.486,0,0,1,287.771,115.021Z" transform="translate(-285.147 -114.632)" fill="#263238"/>
                  </g>
                </g>
              </g>
              <g id="Grupo_76917" data-name="Grupo 76917" transform="translate(1.791 7.948)">
                <g id="Grupo_76916" data-name="Grupo 76916">
                  <g id="Grupo_76915" data-name="Grupo 76915">
                    <path id="Trazado_124047" data-name="Trazado 124047" d="M287.754,114.236a.577.577,0,0,1-.1-.046c-.062-.031-.153-.074-.268-.119a2.658,2.658,0,0,0-1.889-.018c-.116.042-.208.083-.271.113a.622.622,0,0,1-.1.044.462.462,0,0,1,.091-.059,2.2,2.2,0,0,1,.267-.127,2.526,2.526,0,0,1,1.91.019,2.208,2.208,0,0,1,.265.132A.485.485,0,0,1,287.754,114.236Z" transform="translate(-285.13 -113.847)" fill="#263238"/>
                  </g>
                </g>
              </g>
            </g>
          </g>
          <g id="Grupo_76934" data-name="Grupo 76934" transform="translate(25.084 38.555)">
            <g id="Grupo_76921" data-name="Grupo 76921" transform="translate(0 0.303)">
              <g id="Grupo_76920" data-name="Grupo 76920">
                <path id="Trazado_124048" data-name="Trazado 124048" d="M309,136.144s-1.03,9.414.294,14.569l12.579-.55s-2.7-9.287-1.041-13.4Z" transform="translate(-308.621 -136.144)" fill="#ebebeb"/>
              </g>
            </g>
            <g id="Grupo_76933" data-name="Grupo 76933" transform="translate(0.432)">
              <g id="Grupo_76923" data-name="Grupo 76923">
                <g id="Grupo_76922" data-name="Grupo 76922">
                  <path id="Trazado_124049" data-name="Trazado 124049" d="M309.467,135.551s.086,10.164.6,13.265l12.748-.6s-1.12-9.992-.689-12.662Z" transform="translate(-309.467 -135.551)" fill="#d9a171"/>
                </g>
              </g>
              <g id="Grupo_76926" data-name="Grupo 76926" transform="translate(2.186 4.256)">
                <g id="Grupo_76925" data-name="Grupo 76925">
                  <g id="Grupo_76924" data-name="Grupo 76924">
                    <path id="Trazado_124050" data-name="Trazado 124050" d="M322.3,143.9c0,.047-1.91.2-4.272.342s-4.28.219-4.283.172,1.91-.2,4.272-.342S322.3,143.856,322.3,143.9Z" transform="translate(-313.75 -143.889)" fill="#fff"/>
                  </g>
                </g>
              </g>
              <g id="Grupo_76929" data-name="Grupo 76929" transform="translate(2.189 6.408)">
                <g id="Grupo_76928" data-name="Grupo 76928">
                  <g id="Grupo_76927" data-name="Grupo 76927">
                    <path id="Trazado_124051" data-name="Trazado 124051" d="M322.312,148.121c0,.047-1.91.2-4.272.342s-4.28.219-4.283.173,1.91-.2,4.272-.342S322.309,148.075,322.312,148.121Z" transform="translate(-313.757 -148.108)" fill="#fff"/>
                  </g>
                </g>
              </g>
              <g id="Grupo_76932" data-name="Grupo 76932" transform="translate(3.703 8.513)">
                <g id="Grupo_76931" data-name="Grupo 76931">
                  <g id="Grupo_76930" data-name="Grupo 76930">
                    <path id="Trazado_124052" data-name="Trazado 124052" d="M321.6,152.254a3,3,0,0,1-.71.1c-.44.042-1.048.088-1.722.129s-1.283.067-1.725.079a3.021,3.021,0,0,1-.718-.017,3,3,0,0,1,.71-.1c.44-.042,1.049-.088,1.722-.129s1.283-.068,1.725-.079A3.023,3.023,0,0,1,321.6,152.254Z" transform="translate(-316.723 -152.232)" fill="#fff"/>
                  </g>
                </g>
              </g>
            </g>
          </g>
          <g id="Grupo_76936" data-name="Grupo 76936" transform="translate(21.278 21.918)">
            <g id="Grupo_76935" data-name="Grupo 76935">
              <path id="Trazado_124053" data-name="Trazado 124053" d="M334.469,103.086c0,.073-7.456.133-16.653.133s-16.654-.059-16.654-.133,7.455-.133,16.654-.133S334.469,103.013,334.469,103.086Z" transform="translate(-301.163 -102.953)" fill="#263238"/>
            </g>
          </g>
          <g id="Grupo_76938" data-name="Grupo 76938" transform="translate(21.018 24.954)">
            <g id="Grupo_76937" data-name="Grupo 76937">
              <path id="Trazado_124054" data-name="Trazado 124054" d="M313.143,109.034c0,.074-2.8.133-6.245.133s-6.245-.059-6.245-.133,2.8-.133,6.245-.133S313.143,108.961,313.143,109.034Z" transform="translate(-300.653 -108.901)" fill="#263238"/>
            </g>
          </g>
          <g id="Grupo_76940" data-name="Grupo 76940" transform="translate(35.329 24.954)">
            <g id="Grupo_76939" data-name="Grupo 76939">
              <path id="Trazado_124055" data-name="Trazado 124055" d="M333.508,109.034a21.9,21.9,0,0,1-4.814,0,21.817,21.817,0,0,1,4.814,0Z" transform="translate(-328.694 -108.901)" fill="#263238"/>
            </g>
          </g>
          <g id="Grupo_76942" data-name="Grupo 76942" transform="translate(107.065 11.965)">
            <g id="Grupo_76941" data-name="Grupo 76941">
              <path id="Trazado_124056" data-name="Trazado 124056" d="M471.953,128.591a.383.383,0,0,1-.021-.115c-.009-.093-.02-.2-.034-.341q-.038-.485-.1-1.314c-.08-1.166-.192-2.812-.331-4.834-.255-4.1-.6-9.736-.991-15.956-.356-6.224-.679-11.858-.914-15.964-.1-2.025-.187-3.672-.247-4.839q-.034-.831-.054-1.317c0-.137-.005-.249-.007-.342a.376.376,0,0,1,.007-.117.4.4,0,0,1,.02.116l.034.341q.038.485.1,1.313c.08,1.166.192,2.812.331,4.834.255,4.105.6,9.736.992,15.959.356,6.222.678,11.854.913,15.961.1,2.025.187,3.672.247,4.84q.034.83.054,1.317c0,.137.006.25.007.342A.409.409,0,0,1,471.953,128.591Z" transform="translate(-469.253 -83.451)" fill="#263238"/>
            </g>
          </g>
        </g>
        <g id="Grupo_76945" data-name="Grupo 76945" transform="translate(0.182 0.11)">
          <g id="Grupo_76944" data-name="Grupo 76944">
            <path id="Trazado_124057" data-name="Trazado 124057" d="M366.719,60.531s-.1.009-.3.013l-.868.011-3.338.017-12.276.015-40.5-.05L267.511,60.4l.021,0a10.089,10.089,0,0,0-5.331,3.323A9.838,9.838,0,0,0,260.129,68a10.263,10.263,0,0,0-.2,3c.031.343.063.6.093.778s.034.265.034.265a7.065,7.065,0,0,1-.178-1.038,10.068,10.068,0,0,1,2.211-7.376,10.218,10.218,0,0,1,5.4-3.408l.011,0h.011l41.929.05,40.5.128,12.276.069,3.338.032.868.015C366.618,60.522,366.719,60.531,366.719,60.531Z" transform="translate(-259.829 -60.223)" fill="#263238"/>
          </g>
        </g>
      </g>
    </g>
    <g id="Character_1" data-name="Character 1" transform="translate(91.398 89.059)">
      <g id="Grupo_77145" data-name="Grupo 77145" transform="translate(0 0)">
        <g id="Grupo_76965" data-name="Grupo 76965" transform="translate(2.749 149.944)">
          <g id="Grupo_76949" data-name="Grupo 76949" transform="translate(1.979)">
            <g id="Grupo_76948" data-name="Grupo 76948">
              <g id="Grupo_76947" data-name="Grupo 76947">
                <path id="Trazado_124058" data-name="Trazado 124058" d="M159.207,410.726l-1.474,27.312,9.893,2.39,1.97-26.68Z" transform="translate(-157.733 -410.726)" fill="#aa6550"/>
              </g>
            </g>
          </g>
          <g id="Grupo_76964" data-name="Grupo 76964" transform="translate(0 27.079)">
            <g id="Grupo_76952" data-name="Grupo 76952">
              <g id="Grupo_76951" data-name="Grupo 76951">
                <g id="Grupo_76950" data-name="Grupo 76950">
                  <path id="Trazado_124059" data-name="Trazado 124059" d="M155.541,463.785l-1.685,7.411H165.24l.487-4.825Z" transform="translate(-153.856 -463.785)" fill="#d9a171"/>
                </g>
              </g>
            </g>
            <g id="Grupo_76956" data-name="Grupo 76956" transform="translate(0.309 5.962)">
              <g id="Grupo_76955" data-name="Grupo 76955">
                <g id="Grupo_76954" data-name="Grupo 76954">
                  <g id="Grupo_76953" data-name="Grupo 76953">
                    <path id="Trazado_124060" data-name="Trazado 124060" d="M165.769,475.84a8.01,8.01,0,0,1-1.659.095c-1.025.011-2.44-.016-4-.074l-3.995-.17a9.289,9.289,0,0,1-1.654-.133,8.067,8.067,0,0,1,1.659-.09c1.025-.009,2.44.02,4,.078l3.994.166A9.427,9.427,0,0,1,165.769,475.84Z" transform="translate(-154.461 -475.467)" fill="#263238"/>
                  </g>
                </g>
              </g>
            </g>
            <g id="Grupo_76960" data-name="Grupo 76960" transform="translate(6.408 1.445)">
              <g id="Grupo_76959" data-name="Grupo 76959">
                <g id="Grupo_76958" data-name="Grupo 76958">
                  <g id="Grupo_76957" data-name="Grupo 76957">
                    <path id="Trazado_124061" data-name="Trazado 124061" d="M166.8,466.616a18.246,18.246,0,0,1-.322,4.779,18.243,18.243,0,0,1,.322-4.779Z" transform="translate(-166.411 -466.616)" fill="#263238"/>
                  </g>
                </g>
              </g>
            </g>
            <g id="Grupo_76963" data-name="Grupo 76963" transform="translate(0 6.053)" opacity="0.6">
              <g id="Grupo_76962" data-name="Grupo 76962">
                <g id="Grupo_76961" data-name="Grupo 76961">
                  <path id="Trazado_124062" data-name="Trazado 124062" d="M153.856,477H165.24l.109-1.076-11.288-.281-.205,1.229" transform="translate(-153.856 -475.646)" fill="#fff"/>
                </g>
              </g>
            </g>
          </g>
        </g>
        <g id="Grupo_77018" data-name="Grupo 77018" transform="translate(43.765 163.223)">
          <g id="Grupo_76969" data-name="Grupo 76969">
            <g id="Grupo_76968" data-name="Grupo 76968">
              <g id="Grupo_76967" data-name="Grupo 76967">
                <g id="Grupo_76966" data-name="Grupo 76966">
                  <path id="Trazado_124063" data-name="Trazado 124063" d="M234.221,436.745l2.4,18.1,8.757-.609-1.841-16.59Z" transform="translate(-234.221 -436.745)" fill="#aa6550"/>
                </g>
              </g>
            </g>
          </g>
          <g id="Grupo_77017" data-name="Grupo 77017" transform="translate(2.268 12.496)">
            <g id="Grupo_77004" data-name="Grupo 77004" transform="translate(0 2.846)">
              <g id="Grupo_76974" data-name="Grupo 76974" transform="translate(0 0.181)">
                <g id="Grupo_76973" data-name="Grupo 76973">
                  <g id="Grupo_76972" data-name="Grupo 76972">
                    <g id="Grupo_76971" data-name="Grupo 76971">
                      <g id="Grupo_76970" data-name="Grupo 76970">
                        <path id="Trazado_124064" data-name="Trazado 124064" d="M247.646,467.16h0s9.838,3.325,10,5.118l-18.814.549-.168-4.919.7.138A13.982,13.982,0,0,0,247.646,467.16Z" transform="translate(-238.665 -467.16)" fill="#d9a171"/>
                      </g>
                    </g>
                  </g>
                </g>
              </g>
              <g id="Grupo_76980" data-name="Grupo 76980" transform="translate(1.675 1.751)" opacity="0.6">
                <g id="Grupo_76979" data-name="Grupo 76979">
                  <g id="Grupo_76978" data-name="Grupo 76978">
                    <g id="Grupo_76977" data-name="Grupo 76977">
                      <g id="Grupo_76976" data-name="Grupo 76976">
                        <g id="Grupo_76975" data-name="Grupo 76975">
                          <path id="Trazado_124065" data-name="Trazado 124065" d="M242.474,470.272a.769.769,0,0,0-.505.892.739.739,0,0,0,.88.509.812.812,0,0,0,.531-.948.767.767,0,0,0-.974-.428" transform="translate(-241.948 -470.235)" fill="#fff"/>
                        </g>
                      </g>
                    </g>
                  </g>
                </g>
              </g>
              <g id="Grupo_76985" data-name="Grupo 76985" transform="translate(0.168 4.322)" opacity="0.6">
                <g id="Grupo_76984" data-name="Grupo 76984">
                  <g id="Grupo_76983" data-name="Grupo 76983">
                    <g id="Grupo_76982" data-name="Grupo 76982">
                      <g id="Grupo_76981" data-name="Grupo 76981">
                        <path id="Trazado_124066" data-name="Trazado 124066" d="M239,476.8l.008-1.526,18.035.044s.848.34.771.933Z" transform="translate(-238.995 -475.274)" fill="#fff"/>
                      </g>
                    </g>
                  </g>
                </g>
              </g>
              <g id="Grupo_76991" data-name="Grupo 76991" transform="translate(7.598)">
                <g id="Grupo_76990" data-name="Grupo 76990">
                  <g id="Grupo_76989" data-name="Grupo 76989">
                    <g id="Grupo_76988" data-name="Grupo 76988">
                      <g id="Grupo_76987" data-name="Grupo 76987">
                        <g id="Grupo_76986" data-name="Grupo 76986">
                          <path id="Trazado_124067" data-name="Trazado 124067" d="M255.238,466.881c0,.092-.459.147-.9.456s-.673.7-.758.668c-.085-.016.036-.569.579-.933S255.255,466.8,255.238,466.881Z" transform="translate(-253.553 -466.805)" fill="#263238"/>
                        </g>
                      </g>
                    </g>
                  </g>
                </g>
              </g>
              <g id="Grupo_76997" data-name="Grupo 76997" transform="translate(10.069 0.801)">
                <g id="Grupo_76996" data-name="Grupo 76996">
                  <g id="Grupo_76995" data-name="Grupo 76995">
                    <g id="Grupo_76994" data-name="Grupo 76994">
                      <g id="Grupo_76993" data-name="Grupo 76993">
                        <g id="Grupo_76992" data-name="Grupo 76992">
                          <path id="Trazado_124068" data-name="Trazado 124068" d="M259.605,468.409c.024.088-.37.256-.671.654s-.379.811-.471.81c-.086.017-.165-.52.218-1.006S259.6,468.321,259.605,468.409Z" transform="translate(-258.393 -468.374)" fill="#263238"/>
                        </g>
                      </g>
                    </g>
                  </g>
                </g>
              </g>
              <g id="Grupo_77003" data-name="Grupo 77003" transform="translate(12.349 1.559)">
                <g id="Grupo_77002" data-name="Grupo 77002">
                  <g id="Grupo_77001" data-name="Grupo 77001">
                    <g id="Grupo_77000" data-name="Grupo 77000">
                      <g id="Grupo_76999" data-name="Grupo 76999">
                        <g id="Grupo_76998" data-name="Grupo 76998">
                          <path id="Trazado_124069" data-name="Trazado 124069" d="M262.982,471.465c-.083.022-.225-.433,0-.943s.645-.723.686-.647-.217.352-.392.773S263.073,471.453,262.982,471.465Z" transform="translate(-262.861 -469.86)" fill="#263238"/>
                        </g>
                      </g>
                    </g>
                  </g>
                </g>
              </g>
            </g>
            <g id="Grupo_77010" data-name="Grupo 77010" transform="translate(6.184 1.429)">
              <g id="Grupo_77009" data-name="Grupo 77009">
                <g id="Grupo_77008" data-name="Grupo 77008">
                  <g id="Grupo_77007" data-name="Grupo 77007">
                    <g id="Grupo_77006" data-name="Grupo 77006">
                      <g id="Grupo_77005" data-name="Grupo 77005">
                        <path id="Trazado_124070" data-name="Trazado 124070" d="M253.675,465.475a1.769,1.769,0,0,1-.942.022,4.22,4.22,0,0,1-.995-.274,4.451,4.451,0,0,1-.55-.271,1.18,1.18,0,0,1-.291-.213.4.4,0,0,1-.056-.487.5.5,0,0,1,.4-.222,1.223,1.223,0,0,1,.355.039,3.326,3.326,0,0,1,1.477.728c.448.392.607.731.576.749s-.261-.25-.716-.571a3.745,3.745,0,0,0-.854-.449,3.448,3.448,0,0,0-.546-.151c-.2-.047-.37-.043-.418.047-.018.034-.02.048.023.1a.958.958,0,0,0,.214.156,4.992,4.992,0,0,0,.506.27,5.23,5.23,0,0,0,.921.323A6.4,6.4,0,0,1,253.675,465.475Z" transform="translate(-250.782 -464.027)" fill="#263238"/>
                      </g>
                    </g>
                  </g>
                </g>
              </g>
            </g>
            <g id="Grupo_77016" data-name="Grupo 77016" transform="translate(8.677)">
              <g id="Grupo_77015" data-name="Grupo 77015">
                <g id="Grupo_77014" data-name="Grupo 77014">
                  <g id="Grupo_77013" data-name="Grupo 77013">
                    <g id="Grupo_77012" data-name="Grupo 77012">
                      <g id="Grupo_77011" data-name="Grupo 77011">
                        <path id="Trazado_124071" data-name="Trazado 124071" d="M255.951,464.239a1.506,1.506,0,0,1-.275-.9,3.048,3.048,0,0,1,.322-1.614.777.777,0,0,1,.587-.493.439.439,0,0,1,.4.251,1.293,1.293,0,0,1,.107.342,2.1,2.1,0,0,1,.019.634,2.165,2.165,0,0,1-.374.986c-.353.5-.733.619-.742.588-.032-.045.283-.232.551-.708a2.172,2.172,0,0,0,.272-.894,1.922,1.922,0,0,0-.033-.544c-.035-.2-.115-.358-.189-.335-.093,0-.248.156-.321.318a3.17,3.17,0,0,0-.218.517,3.416,3.416,0,0,0-.155.946C255.893,463.883,256,464.224,255.951,464.239Z" transform="translate(-255.667 -461.228)" fill="#263238"/>
                      </g>
                    </g>
                  </g>
                </g>
              </g>
            </g>
          </g>
        </g>
        <g id="Grupo_77039" data-name="Grupo 77039" transform="translate(4.863 71.62)">
          <g id="Grupo_77028" data-name="Grupo 77028">
            <g id="Grupo_77021" data-name="Grupo 77021">
              <g id="Grupo_77020" data-name="Grupo 77020">
                <g id="Grupo_77019" data-name="Grupo 77019">
                  <path id="Trazado_124072" data-name="Trazado 124072" d="M166.653,257.26s-6.943,11.6-6.943,18.54L158,360.32l10.973,2.615,8.371-82.6s20.273,82.81,20.923,82.81,10.633-1.79,10.633-1.79L193.759,257.632Z" transform="translate(-157.998 -257.26)" fill="#344154"/>
                </g>
              </g>
            </g>
            <g id="Grupo_77024" data-name="Grupo 77024" transform="translate(4.541 20.809)">
              <g id="Grupo_77023" data-name="Grupo 77023">
                <g id="Grupo_77022" data-name="Grupo 77022">
                  <path id="Trazado_124073" data-name="Trazado 124073" d="M175.331,298.032a1.131,1.131,0,0,1-.021.213c-.022.155-.053.36-.091.621-.089.562-.216,1.362-.378,2.383-.339,2.067-.81,5.062-1.368,8.766-1.115,7.388-2.507,17.649-3.676,29.034s-1.878,21.7-2.284,29.181c-.2,3.74-.35,6.768-.437,8.861-.048,1.032-.086,1.841-.113,2.41-.015.263-.028.47-.037.626a1.151,1.151,0,0,1-.023.213,1.112,1.112,0,0,1-.008-.214c0-.157,0-.364.007-.627.013-.57.032-1.378.056-2.412.05-2.1.163-5.125.341-8.868.351-7.486,1.035-17.821,2.2-29.2s2.593-21.634,3.765-29.036c.585-3.7,1.088-6.691,1.463-8.753.186-1.017.332-1.813.434-2.374.051-.258.09-.462.12-.616A1.128,1.128,0,0,1,175.331,298.032Z" transform="translate(-166.896 -298.032)" fill="#455a64"/>
                </g>
              </g>
            </g>
            <g id="Grupo_77027" data-name="Grupo 77027" transform="translate(30.343 22.207)">
              <g id="Grupo_77026" data-name="Grupo 77026">
                <g id="Grupo_77025" data-name="Grupo 77025">
                  <path id="Trazado_124074" data-name="Trazado 124074" d="M217.453,300.772c.082-.014,3.43,18.534,7.475,41.425s7.261,41.467,7.179,41.482-3.429-18.531-7.476-41.43S217.37,300.787,217.453,300.772Z" transform="translate(-217.451 -300.772)" fill="#455a64"/>
                </g>
              </g>
            </g>
          </g>
          <g id="Grupo_77030" data-name="Grupo 77030" transform="translate(16.89 0.19)">
            <g id="Grupo_77029" data-name="Grupo 77029">
              <path id="Trazado_124075" data-name="Trazado 124075" d="M193.156,280.378a.83.83,0,0,1-.114-.21c-.066-.142-.164-.351-.28-.625a22.122,22.122,0,0,1-.814-2.384,24.225,24.225,0,0,1-.784-8.251c.055-.812.165-1.6.291-2.357s.331-1.473.524-2.15c.385-1.353.787-2.552,1.133-3.556s.645-1.809.858-2.363l.254-.635a.806.806,0,0,1,.107-.215.831.831,0,0,1-.056.233l-.207.651c-.2.6-.459,1.411-.777,2.388-.322,1.01-.7,2.213-1.075,3.562-.185.674-.372,1.386-.5,2.129s-.229,1.529-.283,2.332a25.593,25.593,0,0,0,.7,8.183c.257,1.026.54,1.834.729,2.4A6.33,6.33,0,0,1,193.156,280.378Z" transform="translate(-191.091 -257.633)" fill="#455a64"/>
            </g>
          </g>
          <g id="Grupo_77032" data-name="Grupo 77032" transform="translate(22.05 8.623)">
            <g id="Grupo_77031" data-name="Grupo 77031">
              <path id="Trazado_124076" data-name="Trazado 124076" d="M201.215,274.273a.974.974,0,0,1,.016.162c.007.122.015.269.025.447.018.415.042.973.071,1.669.051,1.45.122,3.468.207,5.88l-.07-.1,4.223,1.721-.116.009L209,281.97l.223-.135-.063.1.711-7.674.116.127-6.315-.059-1.8-.031-.483-.014a.948.948,0,0,1-.175-.013,5.2,5.2,0,0,1,.608-.027l1.773-.031,6.391-.059.128,0-.011.129c-.2,2.264-.432,4.886-.679,7.677l-.006.066-.057.035-.223.135-3.434,2.081-.056.034-.06-.025-4.212-1.749-.069-.029v-.074c-.038-2.444-.069-4.488-.091-5.956-.005-.685-.009-1.235-.012-1.644A4.543,4.543,0,0,1,201.215,274.273Z" transform="translate(-201.203 -274.155)" fill="#455a64"/>
            </g>
          </g>
          <g id="Grupo_77034" data-name="Grupo 77034" transform="translate(4.754 6.507)">
            <g id="Grupo_77033" data-name="Grupo 77033">
              <path id="Trazado_124077" data-name="Trazado 124077" d="M168.738,270.012a5.575,5.575,0,0,1-.072.569c-.059.388-.139.9-.237,1.546-.218,1.344-.519,3.207-.879,5.434l-.044-.111,3.19,2.366-.111-.021,3.878-1.079.2-.055-.092.091,2.04-6.954.086.146-5.73-1.367-1.632-.4c-.38-.1-.587-.152-.595-.163a4.607,4.607,0,0,1,.558.1l1.619.338,5.831,1.267.121.027-.035.12c-.592,2.053-1.278,4.432-2.009,6.963l-.02.071-.071.02-.2.055-3.88,1.071-.061.017-.05-.038-3.173-2.389-.057-.042.012-.068c.413-2.249.759-4.131,1.008-5.488l.291-1.51A4.109,4.109,0,0,1,168.738,270.012Z" transform="translate(-167.312 -270.011)" fill="#455a64"/>
            </g>
          </g>
          <g id="Grupo_77036" data-name="Grupo 77036" transform="translate(18.949 21.287)">
            <g id="Grupo_77035" data-name="Grupo 77035">
              <path id="Trazado_124078" data-name="Trazado 124078" d="M204.52,298.978a43.529,43.529,0,0,1-4.668,1.15,43.636,43.636,0,0,1-4.725.89,43.546,43.546,0,0,1,4.669-1.15A43.779,43.779,0,0,1,204.52,298.978Z" transform="translate(-195.127 -298.97)" fill="#455a64"/>
            </g>
          </g>
          <g id="Grupo_77038" data-name="Grupo 77038" transform="translate(6.809 19.842)">
            <g id="Grupo_77037" data-name="Grupo 77037">
              <path id="Trazado_124079" data-name="Trazado 124079" d="M179.231,297.958a4.227,4.227,0,0,1-1.2,0,19.778,19.778,0,0,1-2.853-.448,19.3,19.3,0,0,1-2.763-.844,4.3,4.3,0,0,1-1.077-.524,7.079,7.079,0,0,1,1.141.347c.7.226,1.668.513,2.759.761s2.088.419,2.814.52A7.3,7.3,0,0,1,179.231,297.958Z" transform="translate(-171.339 -296.138)" fill="#455a64"/>
            </g>
          </g>
        </g>
        <g id="Grupo_77073" data-name="Grupo 77073" transform="translate(4.665)">
          <g id="Grupo_77041" data-name="Grupo 77041" transform="translate(0 5.234)">
            <g id="Grupo_77040" data-name="Grupo 77040">
              <path id="Trazado_124080" data-name="Trazado 124080" d="M171.291,127.186c.379,1.093-.916,2.024-2.044,2.282s-2.493.421-3.01,1.456c-.448.9.006,2.037-.4,2.953-.776,1.744-3.908,1.38-4.522,3.187-.422,1.24.743,2.519.6,3.82-.126,1.121-1.152,1.884-2.053,2.563s-1.848,1.615-1.706,2.735c.164,1.293,1.742,2.187,1.6,3.483-.142,1.274-1.861,1.869-2.109,3.127-.293,1.493,1.576,2.453,2.177,3.851.459,1.068.176,2.444.951,3.31.795.887,2.2.713,3.369.466l11.618-2.463c-.785-1.836-.046-3.985,1.073-5.64s2.611-3.05,3.573-4.8,1.277-4.093.018-5.643" transform="translate(-157.61 -127.186)" fill="#263238"/>
            </g>
          </g>
          <g id="Grupo_77044" data-name="Grupo 77044" transform="translate(31.736 11.567)">
            <g id="Grupo_77043" data-name="Grupo 77043">
              <g id="Grupo_77042" data-name="Grupo 77042">
                <path id="Trazado_124081" data-name="Trazado 124081" d="M222.169,142.551a11.941,11.941,0,0,0-.38-1.835,1.846,1.846,0,0,0-.465-.754c-.229-.218-.528-.08-.717.234a5.673,5.673,0,0,0,0,4.71c.189.313.488.451.717.233a1.846,1.846,0,0,0,.465-.754,11.957,11.957,0,0,0,.38-1.834,1.4,1.4,0,0,1,.04.513,4.913,4.913,0,0,1-.218,1.392,1.988,1.988,0,0,1-.506.876.624.624,0,0,1-.618.144,1.017,1.017,0,0,1-.491-.416,5.695,5.695,0,0,1,0-5.019,1.019,1.019,0,0,1,.491-.416.625.625,0,0,1,.618.144,1.989,1.989,0,0,1,.506.876,4.911,4.911,0,0,1,.218,1.392A1.406,1.406,0,0,1,222.169,142.551Z" transform="translate(-219.793 -139.594)" fill="#263238"/>
              </g>
            </g>
          </g>
          <g id="Grupo_77061" data-name="Grupo 77061" transform="translate(11.651)">
            <g id="Grupo_77046" data-name="Grupo 77046" transform="translate(0 1.929)">
              <g id="Grupo_77045" data-name="Grupo 77045">
                <path id="Trazado_124082" data-name="Trazado 124082" d="M183.946,144c-2.1-3.552-2.7-8.282-3.235-12.375-.25-1.926-.69-4.668.665-5.873,1.451-1.291,1.59-3.281,3.258-4.276a5.122,5.122,0,0,1,5.5.061" transform="translate(-180.438 -120.71)" fill="#263238"/>
              </g>
            </g>
            <g id="Grupo_77060" data-name="Grupo 77060" transform="translate(2.193)">
              <g id="Grupo_77056" data-name="Grupo 77056">
                <g id="Grupo_77053" data-name="Grupo 77053" transform="translate(2.426 3.895)">
                  <g id="Grupo_77052" data-name="Grupo 77052">
                    <g id="Grupo_77051" data-name="Grupo 77051">
                      <g id="Grupo_77050" data-name="Grupo 77050">
                        <g id="Grupo_77049" data-name="Grupo 77049">
                          <g id="Grupo_77048" data-name="Grupo 77048">
                            <g id="Grupo_77047" data-name="Grupo 77047">
                              <path id="Trazado_124083" data-name="Trazado 124083" d="M194.2,158.47h0a5.7,5.7,0,0,0,6.146-5.447c.129-3.1.241-6.237.241-6.237s4.7-.427,5.057-5.078.23-15.392.23-15.392h0a16.211,16.211,0,0,0-16.386,1.005l.242,16.374-.026,8.809C189.728,155.46,191.255,158.236,194.2,158.47Z" transform="translate(-189.489 -124.561)" fill="#aa6550"/>
                            </g>
                          </g>
                        </g>
                      </g>
                    </g>
                  </g>
                </g>
                <g id="Grupo_77055" data-name="Grupo 77055">
                  <g id="Grupo_77054" data-name="Grupo 77054">
                    <path id="Trazado_124084" data-name="Trazado 124084" d="M198.7,132.279a2.384,2.384,0,0,0-3.177-.7,2.7,2.7,0,0,0-.911,3.379,3.563,3.563,0,0,0,2.277,1.732,1.787,1.787,0,0,1,1.393,1.928c-.137,1.167-2.081,1.6-2.961,2.564-1.368,1.5-4.363,2.127-6.379,2.359-1.982.229-1.743.249-2.891-1.384a6.248,6.248,0,0,1-1.121-3.78q-.091-5.145-.183-10.291a14.738,14.738,0,0,1,.245-3.691,4.958,4.958,0,0,1,1.956-3.048c1.134-.741,2.568-.8,3.858-1.214a31.857,31.857,0,0,0,4.494-2.348c1.51-.767,3.359-1.222,4.87-.458,1.085.548,1.81,1.635,2.865,2.238,1.5.86,3.55.672,4.274,2.886a3.748,3.748,0,0,1-.032,2.366,5.467,5.467,0,0,1-7.441,2.9,7.373,7.373,0,0,1-.1,3.255c-.173.514-.236,1.3-1.041,1.311" transform="translate(-184.735 -116.93)" fill="#263238"/>
                  </g>
                </g>
              </g>
              <g id="Grupo_77059" data-name="Grupo 77059" transform="translate(11.333 15.991)">
                <g id="Grupo_77058" data-name="Grupo 77058">
                  <g id="Grupo_77057" data-name="Grupo 77057">
                    <path id="Trazado_124085" data-name="Trazado 124085" d="M208.729,150.522c.019.007.018.088-.065.2a.694.694,0,0,1-.52.258,1.281,1.281,0,0,1-1.2-1.288,1.345,1.345,0,0,1,.344-.983,1.392,1.392,0,0,1,.73-.417c.479-.1.755.079.735.109-.012.053-.286-.022-.671.117a1.167,1.167,0,0,0-.806,1.16,1.084,1.084,0,0,0,.872,1.068C208.537,150.77,208.695,150.493,208.729,150.522Z" transform="translate(-206.941 -148.263)" fill="#995037"/>
                  </g>
                </g>
              </g>
            </g>
          </g>
          <g id="Grupo_77064" data-name="Grupo 77064" transform="translate(27.815 14.28)">
            <g id="Grupo_77063" data-name="Grupo 77063">
              <g id="Grupo_77062" data-name="Grupo 77062">
                <path id="Trazado_124086" data-name="Trazado 124086" d="M218.419,144.931a33.788,33.788,0,0,1-6.309,1.033,33.907,33.907,0,0,1,6.309-1.033Z" transform="translate(-212.11 -144.91)" fill="#263238"/>
              </g>
            </g>
          </g>
          <g id="Grupo_77066" data-name="Grupo 77066" transform="translate(14.397 19.486)">
            <g id="Grupo_77065" data-name="Grupo 77065">
              <path id="Trazado_124087" data-name="Trazado 124087" d="M186.955,165.388a1.352,1.352,0,0,0,1.617.649,3.868,3.868,0,0,0,1.563-1.06,4.094,4.094,0,0,1,1.549-1.083c1.241-.377,2.76.451,3.8-.319.95-.7.826-2.288,1.759-3.012.5-.384,1.186-.434,1.69-.806a2.191,2.191,0,0,0-.005-3.118,6.348,6.348,0,0,0-3.115-1.528l-10,4.261Z" transform="translate(-185.82 -155.111)" fill="#263238"/>
            </g>
          </g>
          <g id="Grupo_77069" data-name="Grupo 77069" transform="translate(3.977 11.695)">
            <g id="Grupo_77068" data-name="Grupo 77068">
              <g id="Grupo_77067" data-name="Grupo 77067">
                <path id="Trazado_124088" data-name="Trazado 124088" d="M188.834,139.847s-.026.025-.083.061a2.561,2.561,0,0,1-.264.148,5.317,5.317,0,0,1-1.095.4,12.646,12.646,0,0,1-1.816.288,18.332,18.332,0,0,0-2.386.33,4.493,4.493,0,0,0-2.469,1.348,13.633,13.633,0,0,0-1.448,3,3.88,3.88,0,0,1-1.164,1.465,6.086,6.086,0,0,1-1.741.858,10.3,10.3,0,0,0-3.6,1.526,2.583,2.583,0,0,0-.923,1.635,11.313,11.313,0,0,0,0,1.942,3.179,3.179,0,0,1-1.721,3.218c-1.046.615-2.142.942-3.016,1.5a3.533,3.533,0,0,0-1.076.993,2.614,2.614,0,0,0-.408,1.273,8.931,8.931,0,0,0,.325,2.365,6.176,6.176,0,0,1,.167,1.837,2.6,2.6,0,0,1-.333,1.118,1.309,1.309,0,0,1-.253.319,2.772,2.772,0,0,0,.469-1.445,6.322,6.322,0,0,0-.214-1.791,8.826,8.826,0,0,1-.374-2.415,2.827,2.827,0,0,1,.425-1.387,3.756,3.756,0,0,1,1.138-1.078c.908-.589,2.008-.926,3.006-1.526a2.906,2.906,0,0,0,1.569-2.972,11.368,11.368,0,0,1,0-1.995,2.886,2.886,0,0,1,1.024-1.82,10.414,10.414,0,0,1,3.706-1.578,5.831,5.831,0,0,0,1.661-.808,3.606,3.606,0,0,0,1.088-1.358,13.424,13.424,0,0,1,1.507-3.035,4.693,4.693,0,0,1,2.612-1.394,17.585,17.585,0,0,1,2.418-.289,13.736,13.736,0,0,0,1.8-.235A8.138,8.138,0,0,0,188.834,139.847Z" transform="translate(-165.403 -139.845)" fill="#455a64"/>
              </g>
            </g>
          </g>
          <g id="Grupo_77072" data-name="Grupo 77072" transform="translate(11.417 13.33)">
            <g id="Grupo_77071" data-name="Grupo 77071">
              <g id="Grupo_77070" data-name="Grupo 77070">
                <path id="Trazado_124089" data-name="Trazado 124089" d="M193.278,143.083c0,.033-.359,0-.973.14a4.421,4.421,0,0,0-2.242,1.34,4.045,4.045,0,0,0-.893,1.562,7.022,7.022,0,0,0-.183,2.088,5.457,5.457,0,0,1-.346,2.387,2.433,2.433,0,0,1-.873.982,10.556,10.556,0,0,1-1.153.617,3,3,0,0,0-.994.706,1.786,1.786,0,0,0-.39,1.071,5.884,5.884,0,0,1-.267,2.383,3.927,3.927,0,0,1-1.555,1.542c-.587.349-1.156.606-1.639.9a4.048,4.048,0,0,0-1.153.955,2.62,2.62,0,0,0-.5,1.006,2.334,2.334,0,0,0,.017.964.585.585,0,0,1-.1-.239,1.748,1.748,0,0,1-.031-.748,2.643,2.643,0,0,1,.477-1.086,4.108,4.108,0,0,1,1.176-1.035c.488-.31,1.057-.582,1.619-.929a3.718,3.718,0,0,0,1.436-1.449,5.838,5.838,0,0,0,.223-2.285,2.078,2.078,0,0,1,.455-1.241,3.267,3.267,0,0,1,1.089-.784,3.52,3.52,0,0,0,1.9-1.459,5.286,5.286,0,0,0,.333-2.257,7.1,7.1,0,0,1,.221-2.161,4.216,4.216,0,0,1,.976-1.634,4.375,4.375,0,0,1,2.375-1.31,3.1,3.1,0,0,1,.741-.056A.815.815,0,0,1,193.278,143.083Z" transform="translate(-179.98 -143.048)" fill="#455a64"/>
              </g>
            </g>
          </g>
        </g>
        <g id="Grupo_77074" data-name="Grupo 77074" transform="translate(19.807 27.579)">
          <path id="Trazado_124090" data-name="Trazado 124090" d="M200.647,173.855l-1.21-2.49-10.51-.4-1.649,3.232h13.2" transform="translate(-187.278 -170.969)" fill="#d9a171"/>
        </g>
        <g id="Grupo_77142" data-name="Grupo 77142" transform="translate(0 16.355)">
          <g id="Grupo_77101" data-name="Grupo 77101" transform="translate(35.206 16.27)">
            <g id="Grupo_77079" data-name="Grupo 77079">
              <g id="Grupo_77075" data-name="Grupo 77075">
                <path id="Trazado_124091" data-name="Trazado 124091" d="M251.541,201.173c-.076-.378,2.78-15.217,3.567-19.292a.862.862,0,0,0-.847-1.026H233.219a.862.862,0,0,0-.84.664l-4.309,18.165-10.62.792.373.7Z" transform="translate(-217.451 -180.855)" fill="#455a64"/>
              </g>
              <g id="Grupo_77076" data-name="Grupo 77076" transform="translate(11.329 0.998)">
                <path id="Trazado_124092" data-name="Trazado 124092" d="M261.5,200.826l3.4-17.99-20.685.125-4.543,17.891Z" transform="translate(-239.664 -182.823)" fill="#ebebeb"/>
                <path id="Trazado_124093" data-name="Trazado 124093" d="M239.649,200.851l0-.016,4.546-17.9h.01l20.7-.126,0,.016-3.406,18h-.011Zm4.569-17.891-4.537,17.866,21.8-.026,3.4-17.964Z" transform="translate(-239.649 -182.81)" fill="#263238"/>
              </g>
              <g id="Grupo_77078" data-name="Grupo 77078" transform="translate(6.112 18.993)">
                <g id="Grupo_77077" data-name="Grupo 77077">
                  <path id="Trazado_124094" data-name="Trazado 124094" d="M256.463,218.2c0,.073-6.053.133-13.518.133s-13.519-.059-13.519-.133,6.051-.133,13.519-.133S256.463,218.129,256.463,218.2Z" transform="translate(-229.427 -218.07)" fill="#263238"/>
                </g>
              </g>
            </g>
            <g id="Grupo_77100" data-name="Grupo 77100" transform="translate(15.234 2.96)">
              <g id="Grupo_77095" data-name="Grupo 77095" transform="translate(0 1.65)">
                <g id="Grupo_77086" data-name="Grupo 77086">
                  <g id="Grupo_77081" data-name="Grupo 77081">
                    <g id="Grupo_77080" data-name="Grupo 77080">
                      <path id="Trazado_124095" data-name="Trazado 124095" d="M263.788,199.862a1.037,1.037,0,0,1-.271.027l-.775.025-2.851.042c-2.407.025-5.732.039-9.406.039l-3.018,0H247.3l.041-.161,1.84-7.121c.232-.857.421-1.556.563-2.078a5.028,5.028,0,0,1,.233-.743,5.057,5.057,0,0,1-.146.765c-.122.527-.287,1.232-.488,2.1l-1.751,7.143-.126-.161,3.018,0c3.673,0,7,.015,9.406.039l2.851.042.775.025A1.056,1.056,0,0,1,263.788,199.862Z" transform="translate(-247.301 -189.889)" fill="#455a64"/>
                    </g>
                  </g>
                  <g id="Grupo_77082" data-name="Grupo 77082" transform="translate(1.503 7.555)">
                    <path id="Trazado_124096" data-name="Trazado 124096" d="M250.247,206.427l.387-1.735H253.3l-.34,1.735Z" transform="translate(-250.247 -204.692)" fill="#d9a171"/>
                  </g>
                  <g id="Grupo_77083" data-name="Grupo 77083" transform="translate(5.123 5.875)">
                    <path id="Trazado_124097" data-name="Trazado 124097" d="M257.34,204.815l.8-3.415h2.662l-.757,3.415Z" transform="translate(-257.34 -201.4)" fill="#344154"/>
                  </g>
                  <g id="Grupo_77084" data-name="Grupo 77084" transform="translate(8.743 7.555)">
                    <path id="Trazado_124098" data-name="Trazado 124098" d="M264.432,206.427l.387-1.735h2.662l-.34,1.735Z" transform="translate(-264.432 -204.692)" fill="#344154"/>
                  </g>
                  <g id="Grupo_77085" data-name="Grupo 77085" transform="translate(12.363 2.655)">
                    <path id="Trazado_124099" data-name="Trazado 124099" d="M271.525,201.726l1.525-6.635h2.662l-1.478,6.635Z" transform="translate(-271.525 -195.091)" fill="#aed3f2"/>
                  </g>
                </g>
                <g id="Grupo_77088" data-name="Grupo 77088" transform="translate(1.443 11.086)">
                  <g id="Grupo_77087" data-name="Grupo 77087">
                    <path id="Trazado_124100" data-name="Trazado 124100" d="M252.277,211.754a4.415,4.415,0,0,1-2.149-.02,4.4,4.4,0,0,1,2.149.02Z" transform="translate(-250.128 -211.61)" fill="#455a64"/>
                  </g>
                </g>
                <g id="Grupo_77090" data-name="Grupo 77090" transform="translate(4.952 11.081)">
                  <g id="Grupo_77089" data-name="Grupo 77089">
                    <path id="Trazado_124101" data-name="Trazado 124101" d="M259.152,211.744a4.417,4.417,0,0,1-2.149-.02,4.417,4.417,0,0,1,2.149.02Z" transform="translate(-257.003 -211.6)" fill="#455a64"/>
                  </g>
                </g>
                <g id="Grupo_77092" data-name="Grupo 77092" transform="translate(8.461 11.075)">
                  <g id="Grupo_77091" data-name="Grupo 77091">
                    <path id="Trazado_124102" data-name="Trazado 124102" d="M266.028,211.733a4.418,4.418,0,0,1-2.149-.02,4.418,4.418,0,0,1,2.149.02Z" transform="translate(-263.879 -211.589)" fill="#455a64"/>
                  </g>
                </g>
                <g id="Grupo_77094" data-name="Grupo 77094" transform="translate(11.97 11.069)">
                  <g id="Grupo_77093" data-name="Grupo 77093">
                    <path id="Trazado_124103" data-name="Trazado 124103" d="M272.9,211.722a4.416,4.416,0,0,1-2.149-.02,4.416,4.416,0,0,1,2.149.02Z" transform="translate(-270.755 -211.578)" fill="#455a64"/>
                  </g>
                </g>
              </g>
              <g id="Grupo_77097" data-name="Grupo 77097" transform="translate(3.001 0.737)">
                <g id="Grupo_77096" data-name="Grupo 77096">
                  <path id="Trazado_124104" data-name="Trazado 124104" d="M259.139,188.232a33.378,33.378,0,0,1-5.958,0,33.508,33.508,0,0,1,5.958,0Z" transform="translate(-253.181 -188.099)" fill="#455a64"/>
                </g>
              </g>
              <g id="Grupo_77099" data-name="Grupo 77099" transform="translate(3.185)">
                <g id="Grupo_77098" data-name="Grupo 77098">
                  <path id="Trazado_124105" data-name="Trazado 124105" d="M256.183,186.788a6.613,6.613,0,0,1-2.641,0,6.639,6.639,0,0,1,2.641,0Z" transform="translate(-253.542 -186.655)" fill="#455a64"/>
                </g>
              </g>
            </g>
          </g>
          <g id="Grupo_77102" data-name="Grupo 77102" transform="translate(46.245 35.589)">
            <path id="Trazado_124106" data-name="Trazado 124106" d="M243.4,230.648l12.177-8.815-.453-.737a5.88,5.88,0,0,0-2.846-2.388l-1.9.342-11.29,1.72Z" transform="translate(-239.08 -218.708)" fill="#d9a171"/>
          </g>
          <g id="Grupo_77103" data-name="Grupo 77103" transform="translate(6.883 33.103)">
            <path id="Trazado_124107" data-name="Trazado 124107" d="M162.343,226.236l10.117-4.02-2.258-8.38-8.245,2.8Z" transform="translate(-161.956 -213.837)" fill="#d9a171"/>
          </g>
          <g id="Grupo_77115" data-name="Grupo 77115">
            <g id="Grupo_77111" data-name="Grupo 77111" transform="translate(0 13.868)">
              <g id="Grupo_77104" data-name="Grupo 77104">
                <path id="Trazado_124108" data-name="Trazado 124108" d="M198.608,210.044c2.521-1.252,3.169-4.26,1.937-6.791l-10.483-22.4a4.045,4.045,0,0,0-1.054-1.446,11.854,11.854,0,0,0-8.671-2.969l-10.933-.287s-8.587,0-11.81,6.769c-.236.5-5.228,10.4-8.519,16.92a5.643,5.643,0,0,0,3.095,7.84h0a5.645,5.645,0,0,0,7.1-2.988l3.576-7.971,2.251,11.418-3.241,9.41,27.107.372-2.084-12.588-.658-8.975,5.5,11.336a5.127,5.127,0,0,0,6.895,2.354Z" transform="translate(-148.469 -176.147)" fill="#d9a171"/>
              </g>
              <g id="Grupo_77107" data-name="Grupo 77107" transform="translate(17.387 23.528)" opacity="0.2">
                <g id="Grupo_77106" data-name="Grupo 77106">
                  <g id="Grupo_77105" data-name="Grupo 77105">
                    <path id="Trazado_124109" data-name="Trazado 124109" d="M182.688,230.488c2.052,1.536,5.075,1.024,7.6.6a10.978,10.978,0,0,0,6.622-3.587,4.452,4.452,0,0,0,1.229-3.13,2.242,2.242,0,0,0-2.257-2.116c-1.31.158-1.941,1.626-2.572,2.785a10.157,10.157,0,0,1-10.583,4.97S182.323,230.215,182.688,230.488Z" transform="translate(-182.536 -222.247)"/>
                  </g>
                </g>
              </g>
              <g id="Grupo_77110" data-name="Grupo 77110" transform="translate(34.276 14.128)" opacity="0.2">
                <g id="Grupo_77109" data-name="Grupo 77109">
                  <g id="Grupo_77108" data-name="Grupo 77108">
                    <path id="Trazado_124110" data-name="Trazado 124110" d="M215.629,203.83c.639,5.157.353,4.764,1.429,9.848.529,2.5,1.172,5.11,2.9,7l-.854-10.766Z" transform="translate(-215.629 -203.83)"/>
                  </g>
                </g>
              </g>
            </g>
            <g id="Grupo_77114" data-name="Grupo 77114" transform="translate(8.822)">
              <g id="Grupo_77113" data-name="Grupo 77113">
                <g id="Grupo_77112" data-name="Grupo 77112">
                  <path id="Trazado_124111" data-name="Trazado 124111" d="M165.755,148.975" transform="translate(-165.755 -148.975)" fill="none" stroke="#839198" stroke-miterlimit="10" stroke-width="1"/>
                </g>
              </g>
            </g>
          </g>
          <g id="Grupo_77116" data-name="Grupo 77116" transform="translate(12.606 49.606)">
            <path id="Trazado_124112" data-name="Trazado 124112" d="M173.946,251.831l-.777-2.263,2.02-1.345,24.865-2.05,1.753,3.294-.755,2.737Z" transform="translate(-173.169 -246.172)" fill="#d9a171"/>
          </g>
          <g id="Grupo_77118" data-name="Grupo 77118" transform="translate(15.128 9.734)">
            <g id="Grupo_77117" data-name="Grupo 77117">
              <path id="Trazado_124113" data-name="Trazado 124113" d="M181.5,170.916a3.709,3.709,0,0,0-1.728,5.536,1.805,1.805,0,0,1,.474,1.027c-.048.918-1.532.943-2,1.735a1.425,1.425,0,0,0,.4,1.661,11.311,11.311,0,0,0,1.53,1.022,1.866,1.866,0,0,1,.939,1.495c.519-.014.825-.643.746-1.155a5.04,5.04,0,0,0-.637-1.411,1.481,1.481,0,0,1-.064-1.48c.339-.483,1.03-.5,1.581-.716a2.2,2.2,0,0,0,1.168-2.838c-.333-.746-1.11-1.5-.732-2.225.211-.4.7-.559,1.094-.779a2.846,2.846,0,0,0,.369-4.739" transform="translate(-178.111 -168.048)" fill="#263238"/>
            </g>
          </g>
          <g id="Grupo_77120" data-name="Grupo 77120" transform="translate(9.495 35.529)">
            <g id="Grupo_77119" data-name="Grupo 77119">
              <path id="Trazado_124114" data-name="Trazado 124114" d="M171.884,218.591a6.671,6.671,0,0,1-.551,1.273c-.377.768-.929,1.815-1.594,2.94s-1.32,2.112-1.812,2.812a6.686,6.686,0,0,1-.851,1.1,7.743,7.743,0,0,1,.695-1.2c.451-.725,1.077-1.724,1.74-2.844s1.238-2.148,1.657-2.893A7.742,7.742,0,0,1,171.884,218.591Z" transform="translate(-167.072 -218.59)" fill="#263238"/>
            </g>
          </g>
          <g id="Grupo_77122" data-name="Grupo 77122" transform="translate(10.792 39.83)">
            <g id="Grupo_77121" data-name="Grupo 77121">
              <path id="Trazado_124115" data-name="Trazado 124115" d="M170.743,227.017a4.344,4.344,0,0,1-1.122,3.5c-.065-.045.393-.743.7-1.708S170.663,227.016,170.743,227.017Z" transform="translate(-169.615 -227.017)" fill="#263238"/>
            </g>
          </g>
          <g id="Grupo_77124" data-name="Grupo 77124" transform="translate(42.402 20.234)">
            <g id="Grupo_77123" data-name="Grupo 77123">
              <path id="Trazado_124116" data-name="Trazado 124116" d="M240.782,208.555c-.066.031-2.187-4.406-4.735-9.91s-4.562-9.992-4.495-10.023,2.186,4.406,4.736,9.911S240.849,208.524,240.782,208.555Z" transform="translate(-231.551 -188.622)" fill="#263238"/>
            </g>
          </g>
          <g id="Grupo_77126" data-name="Grupo 77126" transform="translate(34.09 17.277)">
            <g id="Grupo_77125" data-name="Grupo 77125">
              <path id="Trazado_124117" data-name="Trazado 124117" d="M219.895,182.832c.016.042-.457.209-1.133.63a7.046,7.046,0,0,0-3.286,5.006c-.117.787-.083,1.287-.128,1.29a3.353,3.353,0,0,1-.059-1.312,6.572,6.572,0,0,1,3.378-5.146A3.332,3.332,0,0,1,219.895,182.832Z" transform="translate(-215.265 -182.828)" fill="#263238"/>
            </g>
          </g>
          <g id="Grupo_77128" data-name="Grupo 77128" transform="translate(11.401 22.709)">
            <g id="Grupo_77127" data-name="Grupo 77127">
              <path id="Trazado_124118" data-name="Trazado 124118" d="M176,216.728c-.072.016-1.291-5.178-2.723-11.6s-2.535-11.642-2.464-11.658,1.291,5.177,2.723,11.6S176.07,216.712,176,216.728Z" transform="translate(-170.809 -193.47)" fill="#263238"/>
            </g>
          </g>
          <g id="Grupo_77129" data-name="Grupo 77129" transform="translate(61.096 36.588)">
            <path id="Trazado_124119" data-name="Trazado 124119" d="M269.821,222.792l4.942-2.126H268.18l1.438,1.864" transform="translate(-268.18 -220.665)" fill="#aa6550"/>
          </g>
          <g id="Grupo_77131" data-name="Grupo 77131" transform="translate(50.22 36.966)">
            <g id="Grupo_77130" data-name="Grupo 77130">
              <path id="Trazado_124120" data-name="Trazado 124120" d="M249.232,223.7a8.575,8.575,0,0,1-1.2-1.127,8.67,8.67,0,0,1-1.162-1.165,5.784,5.784,0,0,1,2.36,2.292Z" transform="translate(-246.869 -221.406)" fill="#263238"/>
            </g>
          </g>
          <g id="Grupo_77133" data-name="Grupo 77133" transform="translate(34.179 27.667)">
            <g id="Grupo_77132" data-name="Grupo 77132">
              <path id="Trazado_124121" data-name="Trazado 124121" d="M224.73,221.345a4.683,4.683,0,0,1-.416-.687c-.254-.45-.607-1.109-1.036-1.926-.858-1.635-2-3.917-3.248-6.441s-2.394-4.8-3.242-6.439l-1-1.94a4.635,4.635,0,0,1-.344-.726,4.683,4.683,0,0,1,.434.676c.266.443.635,1.093,1.08,1.9.892,1.617,2.065,3.884,3.315,6.41l3.177,6.473.96,1.963A4.679,4.679,0,0,1,224.73,221.345Z" transform="translate(-215.438 -203.186)" fill="#263238"/>
            </g>
          </g>
          <g id="Grupo_77135" data-name="Grupo 77135" transform="translate(19.839 38.894)">
            <g id="Grupo_77134" data-name="Grupo 77134">
              <path id="Trazado_124122" data-name="Trazado 124122" d="M201.2,225.184c.009,0,.006.062-.008.178a3.936,3.936,0,0,1-.085.5,6.56,6.56,0,0,1-.675,1.751,9.917,9.917,0,0,1-4.576,4.062,19.954,19.954,0,0,1-5.976,1.492c-.783.088-1.418.139-1.857.168a3.4,3.4,0,0,1-.685.018,3.372,3.372,0,0,1,.674-.12l1.844-.253a21.739,21.739,0,0,0,5.889-1.546,10.146,10.146,0,0,0,4.523-3.913A9.829,9.829,0,0,0,201.2,225.184Z" transform="translate(-187.34 -225.183)" fill="#263238"/>
            </g>
          </g>
          <g id="Grupo_77137" data-name="Grupo 77137" transform="translate(13.209 52.027)">
            <g id="Grupo_77136" data-name="Grupo 77136">
              <path id="Trazado_124123" data-name="Trazado 124123" d="M189.389,250.931c.005.073-3.358.369-7.51.66s-7.524.468-7.529.395,3.357-.368,7.51-.66S189.384,250.858,189.389,250.931Z" transform="translate(-174.351 -250.915)" fill="#263238"/>
            </g>
          </g>
          <g id="Grupo_77139" data-name="Grupo 77139" transform="translate(32.568 50.027)">
            <g id="Grupo_77138" data-name="Grupo 77138">
              <path id="Trazado_124124" data-name="Trazado 124124" d="M212.3,247a12.291,12.291,0,0,1,.542,5.148c-.077,0-.11-1.159-.261-2.575S212.222,247.014,212.3,247Z" transform="translate(-212.281 -246.997)" fill="#263238"/>
            </g>
          </g>
          <g id="Grupo_77141" data-name="Grupo 77141" transform="translate(33.824 48.405)">
            <g id="Grupo_77140" data-name="Grupo 77140">
              <path id="Trazado_124125" data-name="Trazado 124125" d="M215.246,243.818a3.357,3.357,0,0,1,.226,1.027,13.014,13.014,0,0,1-.353,5.038,3.345,3.345,0,0,1-.366.986c-.08-.023.4-1.553.525-3.506S215.163,243.83,215.246,243.818Z" transform="translate(-214.743 -243.818)" fill="#263238"/>
            </g>
          </g>
        </g>
        <g id="Grupo_77144" data-name="Grupo 77144" transform="translate(22.372 30.007)">
          <g id="Grupo_77143" data-name="Grupo 77143">
            <path id="Trazado_124126" data-name="Trazado 124126" d="M203.135,176.362c0,.074-2.432,0-5.423-.171s-5.412-.364-5.408-.437,2.432,0,5.423.171S203.139,176.289,203.135,176.362Z" transform="translate(-192.304 -175.725)" fill="#263238"/>
          </g>
        </g>
      </g>
    </g>
    <g id="Icons" transform="translate(64.346 126.904)">
      <g id="Grupo_77170" data-name="Grupo 77170" transform="translate(0)">
        <g id="Grupo_77157" data-name="Grupo 77157" transform="translate(1.93)">
          <g id="Grupo_77156" data-name="Grupo 77156">
            <g id="Grupo_77155" data-name="Grupo 77155">
              <g id="Grupo_77154" data-name="Grupo 77154">
                <g id="Grupo_77153" data-name="Grupo 77153">
                  <g id="Grupo_77152" data-name="Grupo 77152">
                    <g id="Grupo_77151" data-name="Grupo 77151">
                      <g id="Grupo_77146" data-name="Grupo 77146" transform="translate(0.138 0.05)">
                        <path id="Trazado_124127" data-name="Trazado 124127" d="M110.378,193.033a8.037,8.037,0,0,1,2.063.545l1.516-1.27,2.6,1.982-.821,1.8a8,8,0,0,1,1.075,1.843l1.97.174.44,3.243-1.852.693a8.013,8.013,0,0,1-.545,2.063l1.27,1.517-1.982,2.6-1.8-.82a8.021,8.021,0,0,1-1.843,1.074l-.174,1.97-3.243.44-.693-1.853a8.022,8.022,0,0,1-2.063-.545l-1.516,1.271-2.6-1.982.821-1.8a8.042,8.042,0,0,1-1.075-1.843l-1.97-.174-.44-3.243,1.853-.692a7.975,7.975,0,0,1,.545-2.063l-1.271-1.516,1.982-2.6,1.8.821a8.031,8.031,0,0,1,1.843-1.075l.173-1.969,3.243-.44.693,1.852Zm-1.332,4.5A3.511,3.511,0,1,0,113,200.543,3.511,3.511,0,0,0,109.046,197.536Z" transform="translate(-99.516 -191.181)" fill="#aed3f2"/>
                      </g>
                      <g id="Grupo_77148" data-name="Grupo 77148" transform="translate(6.514 6.331)">
                        <g id="Grupo_77147" data-name="Grupo 77147">
                          <path id="Trazado_124128" data-name="Trazado 124128" d="M115.163,203.563a.681.681,0,0,1,.221-.047,2.736,2.736,0,0,1,.649-.014,3.494,3.494,0,0,1,2.153.99,3.611,3.611,0,0,1-.018,5.174,3.62,3.62,0,0,1-4.275.58,3.612,3.612,0,0,1-1.4-4.983,3.493,3.493,0,0,1,1.811-1.527,2.729,2.729,0,0,1,.629-.16.694.694,0,0,1,.226-.013c.006.03-.307.061-.814.276a3.5,3.5,0,0,0-1.678,1.523,3.417,3.417,0,0,0-.027,3.249A3.349,3.349,0,0,0,114.025,210a3.365,3.365,0,0,0,3.95-.536,3.345,3.345,0,0,0,.961-1.709,3.416,3.416,0,0,0-.892-3.124,3.5,3.5,0,0,0-2.023-1.021C115.475,203.539,115.165,203.593,115.163,203.563Z" transform="translate(-112.008 -203.489)" fill="#344154"/>
                        </g>
                      </g>
                      <g id="Grupo_77150" data-name="Grupo 77150">
                        <g id="Grupo_77149" data-name="Grupo 77149">
                          <path id="Trazado_124129" data-name="Trazado 124129" d="M110.245,192.986a.521.521,0,0,1-.052-.11l-.141-.346-.541-1.38.048.029-3.24.466.062-.065c-.049.6-.1,1.261-.162,1.971l0,.05-.047.02a7.976,7.976,0,0,0-1.818,1.071l-.044.035-.052-.023-1.8-.813.122-.031-1.973,2.611,0-.139,1.275,1.513.046.054-.027.066a7.915,7.915,0,0,0-.532,2.033l-.009.074-.07.026-1.851.7.081-.135c.14,1.019.291,2.117.446,3.242l-.119-.114,1.97.171.081.007.032.076a7.955,7.955,0,0,0,1.059,1.811l.051.065-.034.076-.82,1.8-.042-.168,2.605,1.98-.176,0,1.516-1.271.066-.055.079.033a7.911,7.911,0,0,0,2.025.535h0l.116.091v0l0,0,0,.007.006.014.011.029.022.059.043.116.087.233.174.464.344.923-.152-.09,3.244-.439-.121.127.175-1.97.008-.084.078-.032a7.906,7.906,0,0,0,1.813-1.055l.066-.051.075.035,1.8.822-.164.041,1.986-2.6,0,.163-1.268-1.519-.049-.059.03-.071a7.906,7.906,0,0,0,.54-2.03l.01-.074.069-.026,1.854-.688-.076.126c-.152-1.141-.294-2.219-.43-3.244l.1.093-1.969-.18-.062-.006-.023-.057a7.935,7.935,0,0,0-1.054-1.825l-.035-.045.023-.051.829-1.8.026.1-2.592-2,.08,0-1.528,1.257-.021.018-.025-.011a8.479,8.479,0,0,0-1.528-.481l-.389-.077a.554.554,0,0,1-.129-.029.737.737,0,0,1,.132.006c.087.009.219.025.395.055a7.646,7.646,0,0,1,1.554.443l-.046.007,1.5-1.285.038-.033.041.031,2.617,1.966.053.04-.028.062-.812,1.8-.011-.1a8.1,8.1,0,0,1,1.1,1.861l-.085-.062,1.971.167.086.007.012.086c.142,1.025.291,2.1.449,3.242l.013.093-.088.033-1.851.7.079-.1a8.134,8.134,0,0,1-.549,2.1l-.02-.13,1.273,1.514.067.08-.063.083-1.978,2.607-.065.086-.1-.045-1.8-.819.141-.016a8.161,8.161,0,0,1-1.875,1.095l.085-.116q-.085.975-.172,1.97l-.01.112-.111.015-3.243.441-.112.015-.04-.106-.345-.924-.174-.464-.087-.233-.044-.117-.021-.058-.011-.029-.005-.015,0-.007v-.006l.115.091h0a8.174,8.174,0,0,1-2.1-.554l.144-.022-1.517,1.27-.086.072-.089-.068-2.6-1.984-.088-.067.046-.1.823-1.8.016.141a8.2,8.2,0,0,1-1.091-1.876l.112.082-1.969-.176-.105-.01-.014-.1c-.151-1.126-.3-2.225-.435-3.244l-.013-.1.094-.035,1.854-.688-.079.1a8.127,8.127,0,0,1,.558-2.092l.018.12-1.267-1.52-.057-.069.054-.07,1.99-2.6.049-.065.073.034,1.8.828-.1.011a8.128,8.128,0,0,1,1.868-1.078l-.051.069c.067-.709.129-1.372.185-1.969l.006-.058.057-.008,3.246-.413.037,0,.012.034.49,1.38.123.36A.734.734,0,0,1,110.245,192.986Z" transform="translate(-99.245 -191.084)" fill="#344154"/>
                        </g>
                      </g>
                    </g>
                  </g>
                </g>
              </g>
            </g>
          </g>
        </g>
        <g id="Grupo_77169" data-name="Grupo 77169" transform="translate(0 22.592)">
          <g id="Grupo_77168" data-name="Grupo 77168">
            <g id="Grupo_77167" data-name="Grupo 77167">
              <g id="Grupo_77166" data-name="Grupo 77166">
                <g id="Grupo_77165" data-name="Grupo 77165">
                  <g id="Grupo_77164" data-name="Grupo 77164">
                    <g id="Grupo_77163" data-name="Grupo 77163">
                      <g id="Grupo_77158" data-name="Grupo 77158" transform="translate(0.087 0.031)">
                        <path id="Trazado_124130" data-name="Trazado 124130" d="M102.456,236.575a5.057,5.057,0,0,1,1.3.342l.952-.8,1.635,1.245-.515,1.13a5.055,5.055,0,0,1,.675,1.158l1.237.109.276,2.037-1.163.435a5.041,5.041,0,0,1-.342,1.3l.8.952-1.245,1.635-1.13-.515a5.041,5.041,0,0,1-1.158.675l-.109,1.237-2.037.277-.434-1.164a5.041,5.041,0,0,1-1.3-.342l-.952.8-1.636-1.245.515-1.13a5.075,5.075,0,0,1-.675-1.158l-1.237-.109-.277-2.037,1.163-.435a5.046,5.046,0,0,1,.342-1.3l-.8-.952,1.245-1.635,1.131.515a5.015,5.015,0,0,1,1.158-.675l.109-1.237,2.036-.276.435,1.163Zm-.837,2.828a2.205,2.205,0,1,0,2.481,1.889A2.206,2.206,0,0,0,101.619,239.4Z" transform="translate(-95.634 -235.412)" fill="none"/>
                      </g>
                      <g id="Grupo_77160" data-name="Grupo 77160" transform="translate(4.091 3.976)">
                        <g id="Grupo_77159" data-name="Grupo 77159">
                          <path id="Trazado_124131" data-name="Trazado 124131" d="M105.46,243.188a.43.43,0,0,1,.139-.03,1.7,1.7,0,0,1,.408-.009,2.195,2.195,0,0,1,1.352.621,2.269,2.269,0,0,1-.011,3.249,2.272,2.272,0,0,1-2.685.364,2.268,2.268,0,0,1-.877-3.129,2.194,2.194,0,0,1,1.138-.959,1.685,1.685,0,0,1,.4-.1.424.424,0,0,1,.142-.009c0,.019-.193.038-.511.173a2.2,2.2,0,0,0-1.053.957,2.145,2.145,0,0,0-.017,2.04,2.1,2.1,0,0,0,.868.874,2.114,2.114,0,0,0,2.481-.337,2.106,2.106,0,0,0,.6-1.073,2.145,2.145,0,0,0-.56-1.961,2.2,2.2,0,0,0-1.27-.642C105.657,243.173,105.462,243.207,105.46,243.188Z" transform="translate(-103.479 -243.142)" fill="#263238"/>
                        </g>
                      </g>
                      <g id="Grupo_77162" data-name="Grupo 77162">
                        <g id="Grupo_77161" data-name="Grupo 77161">
                          <path id="Trazado_124132" data-name="Trazado 124132" d="M102.372,236.545a.319.319,0,0,1-.033-.069l-.088-.217q-.122-.309-.34-.867l.031.018-2.035.293.039-.041c-.031.376-.065.792-.1,1.238l0,.031-.03.013a5.013,5.013,0,0,0-1.142.673l-.028.022-.033-.015-1.132-.511.077-.019-1.239,1.639,0-.087.8.95.029.034-.017.042a4.968,4.968,0,0,0-.334,1.277l-.006.046-.044.016-1.162.437.051-.085c.088.64.183,1.33.28,2.036l-.075-.071,1.237.108.051,0,.019.047a5,5,0,0,0,.665,1.137l.032.041-.021.047-.514,1.131-.027-.106,1.636,1.244-.11,0,.952-.8.041-.035.05.021a4.963,4.963,0,0,0,1.271.336h0l.072.057h0v0l0,0,0,.009.007.018.014.037.027.073.055.146.109.291.216.58-.095-.057,2.037-.276-.076.08q.055-.625.109-1.237l.005-.053.048-.02a4.952,4.952,0,0,0,1.139-.662l.041-.032.047.022,1.13.517-.1.026,1.247-1.634,0,.1-.8-.954-.031-.037.018-.044a4.962,4.962,0,0,0,.34-1.275l.006-.046.044-.016,1.164-.432-.047.079c-.095-.717-.185-1.393-.271-2.037l.062.059-1.237-.113-.039,0-.015-.036a5,5,0,0,0-.662-1.146l-.021-.028.014-.032.521-1.128.016.064-1.628-1.255h.05l-.959.789-.014.011-.016-.007a5.283,5.283,0,0,0-.959-.3l-.244-.048a.319.319,0,0,1-.081-.018.461.461,0,0,1,.083,0c.055.006.138.015.248.034a4.816,4.816,0,0,1,.975.278l-.029,0,.945-.806.025-.02.026.019,1.643,1.235.033.025-.017.039-.51,1.132-.007-.06a5.091,5.091,0,0,1,.688,1.169l-.053-.039,1.237.1.054,0,.008.054c.089.644.183,1.32.282,2.036l.008.059-.055.021-1.163.437.049-.062a5.088,5.088,0,0,1-.345,1.316l-.012-.082.8.951.042.05-.04.053-1.242,1.637-.041.054-.062-.028-1.131-.514.088-.01a5.128,5.128,0,0,1-1.177.687l.053-.073q-.053.612-.108,1.237l-.006.07-.07.01-2.037.277-.07.01-.025-.066-.217-.58-.109-.291-.055-.146-.028-.073-.014-.036-.007-.018,0-.009,0,0v0l.072.057h0a5.13,5.13,0,0,1-1.317-.348l.091-.014-.953.8-.054.045-.056-.043-1.635-1.246-.056-.042.029-.063.517-1.13.01.088a5.121,5.121,0,0,1-.685-1.178l.07.052-1.237-.111-.066-.006-.009-.065c-.095-.707-.187-1.4-.273-2.037l-.008-.063.059-.022,1.164-.432-.05.063a5.122,5.122,0,0,1,.351-1.315l.012.076-.8-.954-.036-.043.034-.044,1.25-1.631.031-.041.046.021,1.128.52-.06.007a5.09,5.09,0,0,1,1.174-.677l-.032.043.116-1.236,0-.037.036,0,2.039-.259.023,0,.007.021.308.867.077.226A.482.482,0,0,1,102.372,236.545Z" transform="translate(-95.464 -235.351)" fill="#263238"/>
                        </g>
                      </g>
                    </g>
                  </g>
                </g>
              </g>
            </g>
          </g>
        </g>
      </g>
      <g id="Grupo_77180" data-name="Grupo 77180" transform="translate(87.168 60.279)">
        <g id="Grupo_77173" data-name="Grupo 77173">
          <g id="Grupo_77172" data-name="Grupo 77172">
            <g id="Grupo_77171" data-name="Grupo 77171">
              <path id="Trazado_124133" data-name="Trazado 124133" d="M288.794,329.439a2.489,2.489,0,0,1-.433.029l-1.242.027-4.569.045-15.074.042h-1.217v-.142c.017-5.631.033-10.68.044-14.357.019-1.8.034-3.268.044-4.314.011-.487.019-.876.026-1.169a2.233,2.233,0,0,1,.028-.407,2.339,2.339,0,0,1,.028.407c.007.293.015.682.026,1.169.011,1.046.026,2.51.044,4.314.011,3.677.027,8.726.044,14.357l-.142-.142h1.074l15.074.042,4.569.045,1.242.027A2.493,2.493,0,0,1,288.794,329.439Z" transform="translate(-266.258 -309.193)" fill="#263238"/>
            </g>
          </g>
        </g>
        <g id="Grupo_77176" data-name="Grupo 77176" transform="translate(2.228 4.911)">
          <g id="Grupo_77175" data-name="Grupo 77175">
            <g id="Grupo_77174" data-name="Grupo 77174">
              <path id="Trazado_124134" data-name="Trazado 124134" d="M288.443,318.817a5.761,5.761,0,0,1-.668.638l-1.891,1.66c-1.6,1.392-3.833,3.3-6.307,5.394l-.375.317-.1.081-.092-.085-2.8-2.607.175,0-4.12,3.4-1.2.956a2.644,2.644,0,0,1-.447.32,2.608,2.608,0,0,1,.391-.385l1.147-1.014,4.053-3.477.088-.076.087.08,2.818,2.592-.188,0,.375-.317c2.473-2.094,4.723-3.977,6.361-5.33l1.949-1.591A5.687,5.687,0,0,1,288.443,318.817Z" transform="translate(-270.623 -318.816)" fill="#263238"/>
            </g>
          </g>
        </g>
        <g id="Grupo_77179" data-name="Grupo 77179" transform="translate(14.762 4.66)">
          <g id="Grupo_77178" data-name="Grupo 77178">
            <g id="Grupo_77177" data-name="Grupo 77177">
              <path id="Trazado_124135" data-name="Trazado 124135" d="M300.469,323.267a7.056,7.056,0,0,1-.1-1.4c-.025-.866-.042-2.066-.043-3.4l.142.142h-.242c-1.393,0-2.654-.016-3.567-.042a7.619,7.619,0,0,1-1.477-.1,7.673,7.673,0,0,1,1.477-.1c.913-.025,2.174-.041,3.567-.041h.384v.142c0,1.338-.018,2.539-.044,3.4A7.037,7.037,0,0,1,300.469,323.267Z" transform="translate(-295.183 -318.324)" fill="#263238"/>
            </g>
          </g>
        </g>
      </g>
    </g>
  </g>
</svg>
