<svg xmlns="http://www.w3.org/2000/svg" width="535.198" height="541.922" viewBox="0 0 535.198 541.922">
  <g id="Grupo_77229" data-name="Grupo 77229" transform="translate(-169.245 -1655.25)">
    <g id="freepik--background-complete--inject-493" transform="translate(169.245 1685.996)">
      <rect id="Rectángulo_5638" data-name="Rectángulo 5638" width="35.452" height="0.268" transform="translate(446.12 478.651)" fill="#ebebeb"/>
      <rect id="Rectángulo_5639" data-name="Rectángulo 5639" width="9.302" height="0.268" transform="translate(345.235 481.562)" fill="#ebebeb"/>
      <rect id="Rectángulo_5640" data-name="Rectángulo 5640" width="20.541" height="0.268" transform="translate(424.509 468.718)" fill="#ebebeb"/>
      <rect id="Rectángulo_5641" data-name="Rectángulo 5641" width="46.23" height="0.268" transform="translate(56.153 470.516)" fill="#ebebeb"/>
      <rect id="Rectángulo_5642" data-name="Rectángulo 5642" width="6.776" height="0.268" transform="translate(111.921 470.516)" fill="#ebebeb"/>
      <rect id="Rectángulo_5643" data-name="Rectángulo 5643" width="100.275" height="0.268" transform="translate(140.725 475.033)" fill="#ebebeb"/>
      <rect id="Rectángulo_5644" data-name="Rectángulo 5644" width="535.198" height="0.268" transform="translate(0 461.428)" fill="#ebebeb"/>
      <path id="Trazado_103769" data-name="Trazado 103769" d="M420.239,2072.043H213.556a6.113,6.113,0,0,1-6.1-6.112V1775.393a6.112,6.112,0,0,1,6.1-6.058H420.239a6.111,6.111,0,0,1,6.112,6.112h0v290.484A6.112,6.112,0,0,1,420.239,2072.043ZM213.556,1769.549a5.844,5.844,0,0,0-5.834,5.844v290.538a5.845,5.845,0,0,0,5.834,5.844H423.45c3.211,0,2.622-2.622,2.622-5.844V1775.393a5.853,5.853,0,0,0-5.834-5.844Z" transform="translate(-166.555 -1658.354)" fill="#ebebeb"/>
      <path id="Trazado_103770" data-name="Trazado 103770" d="M636.551,2072.043H429.857a6.123,6.123,0,0,1-6.112-6.112V1775.393a6.122,6.122,0,0,1,6.112-6.058H636.551a6.11,6.11,0,0,1,6.091,6.058v290.538A6.112,6.112,0,0,1,636.551,2072.043ZM429.857,1769.549a5.854,5.854,0,0,0-5.844,5.844v290.538a5.856,5.856,0,0,0,5.844,5.844H636.551a5.855,5.855,0,0,0,5.844-5.844V1775.393a5.854,5.854,0,0,0-5.844-5.844Z" transform="translate(-151.329 -1658.354)" fill="#ebebeb"/>
      <g id="freepik--freepik--Checklist--inject-38--inject-493" transform="translate(204.232 0)">
        <path id="Trazado_103771" data-name="Trazado 103771" d="M226.715,2070.56h206.95l13.615-281.835H247.652Z" transform="translate(-220.357 -1774.232)" opacity="0.2" style="isolation: isolate"/>
        <path id="Trazado_103772" data-name="Trazado 103772" d="M220.775,2070.56H432.157l13.626-281.835H248.07Z" transform="translate(-220.775 -1774.232)" fill="#aed3f2"/>
        <path id="Trazado_103773" data-name="Trazado 103773" d="M229.155,2064.7H422.7l13.027-267.128-182.813-.01Z" transform="translate(-220.185 -1773.609)" opacity="0.1" style="isolation: isolate"/>
        <path id="Trazado_103774" data-name="Trazado 103774" d="M435.746,1797.565A2116.394,2116.394,0,0,1,412.6,2060.487H273.078c-15.414-.46-44.133-1.124-44.133-1.124s22-184.044,23.988-261.8Z" transform="translate(-220.2 -1773.609)" fill="#fafafa"/>
        <path id="Trazado_103775" data-name="Trazado 103775" d="M372.264,1816.955h0q-.61,17.276-1.5,34.542h34.552q.9-17.277,1.5-34.542Zm30.2,31.534H373.933q.729-14.28,1.242-28.526H403.7Q403.178,1834.22,402.459,1848.489Z" transform="translate(-210.217 -1772.244)" fill="#aed3f2"/>
        <path id="Trazado_103776" data-name="Trazado 103776" d="M366.874,1869.185h0q-.6,17.276-1.5,34.552h34.542q.9-17.288,1.509-34.552Zm30.2,31.544H368.543q.706-14.269,1.242-28.537h28.526q-.535,14.278-1.242,28.537Z" transform="translate(-210.596 -1768.567)" fill="#aed3f2"/>
        <path id="Trazado_103777" data-name="Trazado 103777" d="M362.214,1919.675h0q-.6,17.265-1.5,34.542h34.563q.89-17.276,1.5-34.542Zm30.2,31.534H363.883q.707-14.28,1.242-28.526h28.526q-.523,14.246-1.242,28.526Z" transform="translate(-210.924 -1765.013)" fill="#aed3f2"/>
        <path id="Trazado_103778" data-name="Trazado 103778" d="M355.064,1973.445h0q-.6,17.277-1.5,34.552h34.552q.89-17.287,1.5-34.552Zm30.2,31.545H356.733q.706-14.269,1.242-28.537H386.5Q385.966,1990.711,385.259,2004.99Z" transform="translate(-211.427 -1761.227)" fill="#aed3f2"/>
        <path id="Trazado_103779" data-name="Trazado 103779" d="M263.992,1835.925h97.7q-.117,3.211-.246,6.423H263.735Z" transform="translate(-217.751 -1770.909)" fill="#e6e6e6"/>
        <path id="Trazado_103780" data-name="Trazado 103780" d="M284.755,1826.335h76.437c-.086,2.141-.193,4.281-.289,6.422H284.445C284.552,1830.617,284.648,1828.476,284.755,1826.335Z" transform="translate(-216.293 -1771.584)" fill="#e6e6e6"/>
        <path id="Trazado_103781" data-name="Trazado 103781" d="M255.622,1889.885h97.684q-.112,3.211-.246,6.422h-97.7C255.451,1894.188,255.547,1892.026,255.622,1889.885Z" transform="translate(-218.34 -1767.11)" fill="#e6e6e6"/>
        <path id="Trazado_103782" data-name="Trazado 103782" d="M276.385,1880.265h76.448c-.1,2.141-.2,4.282-.3,6.422H276.085C276.181,1884.557,276.256,1882.406,276.385,1880.265Z" transform="translate(-216.882 -1767.787)" fill="#e6e6e6"/>
        <path id="Trazado_103783" data-name="Trazado 103783" d="M249.263,1990.555h97.684c-.086,2.141-.161,4.282-.257,6.422h-97.7Q249.146,1993.787,249.263,1990.555Z" transform="translate(-218.789 -1760.023)" fill="#e6e6e6"/>
        <path id="Trazado_103784" data-name="Trazado 103784" d="M270.025,1980.935h76.437c-.086,2.141-.193,4.281-.289,6.422H269.715C269.822,1985.227,269.918,1983.086,270.025,1980.935Z" transform="translate(-217.33 -1760.701)" fill="#e6e6e6"/>
        <path id="Trazado_103785" data-name="Trazado 103785" d="M255.173,1937.605h97.684c-.086,2.141-.16,4.282-.257,6.422h-97.7Q255.056,1940.837,255.173,1937.605Z" transform="translate(-218.373 -1763.751)" fill="#e6e6e6"/>
        <path id="Trazado_103786" data-name="Trazado 103786" d="M275.925,1927.985h76.448c-.086,2.141-.193,4.281-.3,6.422H275.625C275.721,1932.277,275.828,1930.136,275.925,1927.985Z" transform="translate(-216.914 -1764.428)" fill="#e6e6e6"/>
        <path id="Trazado_103787" data-name="Trazado 103787" d="M290.585,1804.161H392.979l-.9-3.211c-2.312-8.049-3.382-13.38-10.875-13.38,0,0-25.112-1.424-25.807-3.6a12.747,12.747,0,0,0-12.235-8.788,14.386,14.386,0,0,0-13.08,8.788c-.9,2.141-28.248,3.6-28.248,3.6-7.546,0-7.011,5.352-10.051,13.38Z" transform="translate(-215.861 -1775.185)" fill="#e0e0e0"/>
      </g>
      <path id="Trazado_103788" data-name="Trazado 103788" d="M375.947,1836.724a4.208,4.208,0,0,0,1.07,3.115,4.036,4.036,0,0,0,3.008.685c4.282-.354,8.1-2.794,11.539-5.352a96.743,96.743,0,0,0,17.661-17.276q-9.772,6.593-20.038,12.438a30.574,30.574,0,0,1-6.637,3.051c-.942.268-2.226.289-2.6-.61-.46-1.071.921-2.687,0-3.415s-2.869.92-3.307,1.659C375.787,1832.41,375.894,1835.129,375.947,1836.724Z" transform="translate(-5.623 -1772.178)" fill="#6595bf"/>
      <path id="Trazado_103789" data-name="Trazado 103789" d="M368.8,1888.573a4.209,4.209,0,0,0,1.07,3.115,4.036,4.036,0,0,0,3.008.685c4.282-.364,8.1-2.793,11.539-5.352a97.119,97.119,0,0,0,17.661-17.276q-9.783,6.593-20.038,12.427a30.044,30.044,0,0,1-6.636,3.062c-.942.268-2.226.289-2.6-.621-.46-1.07.921-2.676,0-3.4s-2.869.92-3.307,1.649C368.637,1884.206,368.744,1886.914,368.8,1888.573Z" transform="translate(-6.126 -1768.528)" fill="#6595bf"/>
      <path id="Trazado_103790" data-name="Trazado 103790" d="M365.477,1940.313a4.289,4.289,0,0,0,1.07,3.126,4.011,4.011,0,0,0,3,.685c4.282-.364,8.1-2.793,11.539-5.352a97.113,97.113,0,0,0,17.662-17.276q-9.762,6.6-20.038,12.427a30.187,30.187,0,0,1-6.626,3.062c-.942.268-2.237.289-2.612-.621-.46-1.071.921-2.687,0-3.4s-2.869.91-3.308,1.648C365.317,1936,365.424,1938.718,365.477,1940.313Z" transform="translate(-6.36 -1764.885)" fill="#6595bf"/>
      <path id="Trazado_103795" data-name="Trazado 103795" d="M543.149,2067.958H503.812l-.707-4.624h40.761Z" transform="translate(-145.743 -1637.658)" fill="#fafafa"/>
      <path id="Trazado_103800" data-name="Trazado 103800" d="M521.606,1813.665a1.07,1.07,0,1,1-1.07-1.07A1.07,1.07,0,0,1,521.606,1813.665Z" transform="translate(-144.591 -1655.309)" fill="#e0e0e0"/>
      <path id="Trazado_103801" data-name="Trazado 103801" d="M520.638,1814.458l-4.6-4.335.45-.482,4.175,3.928,7.482-6.6.428.492Z" transform="translate(-144.832 -1655.705)" fill="#e0e0e0"/>
    </g>
    <g id="freepik--Desk--inject-493" transform="translate(390.183 1926.172)">
      <g id="freepik--Group--inject-493" transform="translate(0 88.837)">
        <path id="Trazado_103802" data-name="Trazado 103802" d="M415.675,1980.215v148.353h3.856l4.851-148.353Z" transform="translate(-386.233 -1975.752)" fill="#d9a171"/>
        <path id="Trazado_103803" data-name="Trazado 103803" d="M453.215,1984.214v137.44h3.856l4.85-137.44Z" transform="translate(-378.25 -1974.902)" fill="#d9a171"/>
        <path id="Trazado_103804" data-name="Trazado 103804" d="M453.215,1984.214v137.44h3.856l4.85-137.44Z" transform="translate(-378.25 -1974.902)" opacity="0.5" style="isolation: isolate"/>
        <path id="Trazado_103805" data-name="Trazado 103805" d="M607.892,1980.215v142.29h-3.856l-4.851-142.29Z" transform="translate(-347.213 -1975.752)" fill="#d9a171"/>
        <path id="Trazado_103806" data-name="Trazado 103806" d="M607.892,1980.215v142.29h-3.856l-4.851-142.29Z" transform="translate(-347.213 -1975.752)" opacity="0.5" style="isolation: isolate"/>
        <path id="Trazado_103807" data-name="Trazado 103807" d="M570.352,1984.214v142.594H566.5l-4.851-142.594Z" transform="translate(-355.195 -1974.902)" fill="#d9a171"/>
        <rect id="Rectángulo_5645" data-name="Rectángulo 5645" width="287.321" height="6.221" fill="#d9a171"/>
        <path id="Trazado_103808" data-name="Trazado 103808" d="M658.02,1988.31H409.94l-10.065-6.645h268.21Z" transform="translate(-389.592 -1975.444)" fill="#d9a171"/>
        <path id="Trazado_103809" data-name="Trazado 103809" d="M658.02,1988.31H409.94l-10.065-6.645h268.21Z" transform="translate(-389.592 -1975.444)" opacity="0.5" style="isolation: isolate"/>
      </g>
      <rect id="Rectángulo_5646" data-name="Rectángulo 5646" width="60.583" height="15.061" transform="translate(49.148 58.388)" fill="#d9a171"/>
      <rect id="Rectángulo_5647" data-name="Rectángulo 5647" width="60.583" height="15.061" transform="translate(49.342 58.449)" fill="#fff" opacity="0.6" style="isolation: isolate"/>
      <rect id="Rectángulo_5648" data-name="Rectángulo 5648" width="46.492" height="15.061" transform="translate(49.16 58.449)" fill="#fff" opacity="0.6" style="isolation: isolate"/>
      <path id="Trazado_103810" data-name="Trazado 103810" d="M432.182,1962.341l60.28,1.88-.061-1.528-60.256-.789Z" transform="translate(-382.731 -1890.808)" fill="#d9a171"/>
      <path id="Trazado_103811" data-name="Trazado 103811" d="M492.438,1957.118l-60.183-3.384v.5l60.183,4.026Z" transform="translate(-382.707 -1892.545)" fill="#d9a171"/>
      <path id="Trazado_103812" data-name="Trazado 103812" d="M492.438,1952.775l-60.183,1.37v.5l60.183-.728Z" transform="translate(-382.707 -1892.75)" fill="#d9a171"/>
      <path id="Trazado_103813" data-name="Trazado 103813" d="M492.58,1959.141l-60.2,2.935v-.449l60.2-3.492Z" transform="translate(-382.68 -1891.61)" fill="#d9a171"/>
      <rect id="Rectángulo_5649" data-name="Rectángulo 5649" width="60.583" height="15.061" transform="translate(53.368 74.043)" fill="#d9a171"/>
      <rect id="Rectángulo_5650" data-name="Rectángulo 5650" width="60.583" height="15.061" transform="translate(53.574 74.116)" fill="#fff" opacity="0.6" style="isolation: isolate"/>
      <rect id="Rectángulo_5651" data-name="Rectángulo 5651" width="46.492" height="15.061" transform="translate(53.513 74.104)" fill="#fff" opacity="0.6" style="isolation: isolate"/>
      <path id="Trazado_103814" data-name="Trazado 103814" d="M495.732,1974.815l-60.244.776-.073,1.528,60.28-1.868Z" transform="translate(-382.035 -1888.063)" fill="#d9a171"/>
      <path id="Trazado_103815" data-name="Trazado 103815" d="M435.735,1964.495l60.2.049v.5h-60.2Z" transform="translate(-381.967 -1890.257)" fill="#d9a171"/>
      <path id="Trazado_103816" data-name="Trazado 103816" d="M435.415,1971.17l60.2-4.026v-.509l-60.2,3.383Z" transform="translate(-382.035 -1889.802)" fill="#d9a171"/>
      <path id="Trazado_103817" data-name="Trazado 103817" d="M495.93,1965.675l-60.2,1.382v.5l60.2-.728Z" transform="translate(-381.967 -1890.007)" fill="#d9a171"/>
      <path id="Trazado_103818" data-name="Trazado 103818" d="M496.072,1972.051l-60.207,2.922v-.437l60.207-3.492Z" transform="translate(-381.94 -1888.865)" fill="#d9a171"/>
      <path id="Trazado_103819" data-name="Trazado 103819" d="M488.329,1903.275l-60.547.3-.1,14.758h60.644Z" transform="translate(-383.679 -1903.275)" fill="#d9a171"/>
      <rect id="Rectángulo_5652" data-name="Rectángulo 5652" width="60.583" height="15.061" transform="translate(44.067)" fill="#fff" opacity="0.6" style="isolation: isolate"/>
      <rect id="Rectángulo_5653" data-name="Rectángulo 5653" width="46.492" height="15.061" transform="translate(44.006)" fill="#fff" opacity="0.6" style="isolation: isolate"/>
      <path id="Trazado_103820" data-name="Trazado 103820" d="M475.992,1903.525H427.765v1.528h47.2Z" transform="translate(-383.662 -1903.221)" fill="#d9a171"/>
      <path id="Trazado_103821" data-name="Trazado 103821" d="M487.96,1908.615l-60.2.558v.449h60.2Z" transform="translate(-383.662 -1902.139)" fill="#d9a171"/>
      <path id="Trazado_103822" data-name="Trazado 103822" d="M427.765,1914.879l60.2-2.934v.437l-60.2,3.492Z" transform="translate(-383.662 -1901.432)" fill="#d9a171"/>
      <path id="Trazado_103823" data-name="Trazado 103823" d="M427.765,1909.695l60.2,1.2v.425l-60.2-.631Z" transform="translate(-383.662 -1901.91)" fill="#d9a171"/>
      <rect id="Rectángulo_5654" data-name="Rectángulo 5654" width="60.195" height="3.65" transform="translate(44.2 55.065)" fill="#d9a171"/>
      <rect id="Rectángulo_5655" data-name="Rectángulo 5655" width="60.195" height="3.626" transform="translate(44.2 55.102)" fill="#fff" opacity="0.6" style="isolation: isolate"/>
      <rect id="Rectángulo_5656" data-name="Rectángulo 5656" width="47.972" height="3.856" transform="translate(44.2 54.872)" fill="#fff" opacity="0.6" style="isolation: isolate"/>
      <path id="Trazado_103824" data-name="Trazado 103824" d="M427.877,1950.045l60.207.74-.012.23-60.207-.449Z" transform="translate(-383.641 -1893.33)" fill="#d9a171"/>
      <path id="Trazado_103825" data-name="Trazado 103825" d="M427.875,1949.465l60.195.618v.23l-60.195-.327Z" transform="translate(-383.639 -1893.453)" fill="#d9a171"/>
      <path id="Trazado_103826" data-name="Trazado 103826" d="M479.9,1916.671v9.579a.922.922,0,0,1,0,1.844H468.985v-13.339H479.9a.958.958,0,0,1,0,1.916Z" transform="translate(-374.897 -1900.834)" fill="#d9a171"/>
      <path id="Trazado_103827" data-name="Trazado 103827" d="M479.9,1916.671v9.579a.922.922,0,0,1,0,1.844H468.985v-13.339H479.9a.958.958,0,0,1,0,1.916Z" transform="translate(-374.897 -1900.834)" fill="#fff" opacity="0.3" style="isolation: isolate"/>
      <rect id="Rectángulo_5657" data-name="Rectángulo 5657" width="8.513" height="9.568" transform="translate(96.489 15.873)" fill="#d9a171"/>
      <rect id="Rectángulo_5658" data-name="Rectángulo 5658" width="8.513" height="9.568" transform="translate(96.489 15.873)" fill="#fff" opacity="0.6" style="isolation: isolate"/>
      <path id="Trazado_103828" data-name="Trazado 103828" d="M481.317,1915.6H434.3c-2.037,0-3.638,2.559-3.638,5.712s1.637,5.711,3.638,5.711h47.014Z" transform="translate(-383.045 -1900.655)" fill="#d9a171"/>
      <path id="Trazado_103829" data-name="Trazado 103829" d="M481.317,1915.6H434.3c-2.037,0-3.638,2.559-3.638,5.712s1.637,5.711,3.638,5.711h47.014Z" transform="translate(-383.045 -1900.655)" fill="#fff" opacity="0.9" style="isolation: isolate"/>
      <path id="Trazado_103830" data-name="Trazado 103830" d="M481.495,1928.124c-9.7,0-36.84.17-46.5,0-6.621-.121-6.973-12.818-.485-13.254,4.535-.315,9.192,0,13.727,0h33.263a.922.922,0,0,1,0,1.832H436.518c-2.122,0-3.638,0-4.45,2.522-.715,2.171-.485,6.585,2.425,7.058a5.369,5.369,0,0,0,.994,0h46.019a.922.922,0,0,1,0,1.843Z" transform="translate(-383.223 -1900.839)" fill="#d9a171"/>
      <g id="Grupo_59420" data-name="Grupo 59420" transform="translate(46.604 13.89)" opacity="0.2">
        <path id="Trazado_103831" data-name="Trazado 103831" d="M481.495,1928.124c-9.7,0-36.84.17-46.5,0-6.621-.121-6.973-12.818-.485-13.254,4.535-.315,9.192,0,13.727,0h33.263a.922.922,0,0,1,0,1.832H436.518c-2.122,0-3.638,0-4.45,2.522-.715,2.171-.485,6.585,2.425,7.058a5.369,5.369,0,0,0,.994,0h46.019a.922.922,0,0,1,0,1.843Z" transform="translate(-429.827 -1914.729)" fill="#fff"/>
      </g>
      <path id="Trazado_103832" data-name="Trazado 103832" d="M471.415,1927.323v8.864a.849.849,0,0,1,0,1.7h-10.15v-12.26h10.15a.849.849,0,0,1,0,1.7Z" transform="translate(-376.539 -1898.522)" fill="#d9a171"/>
      <path id="Trazado_103833" data-name="Trazado 103833" d="M471.415,1927.323v8.864a.849.849,0,0,1,0,1.7h-10.15v-12.26h10.15a.849.849,0,0,1,0,1.7Z" transform="translate(-376.539 -1898.522)" fill="#fff" opacity="0.3" style="isolation: isolate"/>
      <rect id="Rectángulo_5659" data-name="Rectángulo 5659" width="7.882" height="8.864" transform="translate(86.994 28.812)" fill="#d9a171"/>
      <rect id="Rectángulo_5660" data-name="Rectángulo 5660" width="7.882" height="8.864" transform="translate(86.994 28.812)" fill="#fff" opacity="0.6" style="isolation: isolate"/>
      <path id="Trazado_103834" data-name="Trazado 103834" d="M472.726,1926.335H429.192c-1.879,0-3.407,2.365-3.407,5.287s1.528,5.287,3.407,5.287h43.534Z" transform="translate(-384.083 -1898.371)" fill="#d9a171"/>
      <path id="Trazado_103835" data-name="Trazado 103835" d="M472.726,1926.335H429.192c-1.879,0-3.407,2.365-3.407,5.287s1.528,5.287,3.407,5.287h43.534Z" transform="translate(-384.083 -1898.371)" fill="#fff" opacity="0.9" style="isolation: isolate"/>
      <path id="Trazado_103836" data-name="Trazado 103836" d="M472.885,1937.919c-8.949,0-34.111.158-43.061,0-6.136-.109-6.463-11.859-.449-12.272,4.2-.291,8.488,0,12.708,0h30.8a.849.849,0,0,1,0,1.7H431.231c-1.964,0-3.359,0-4.123,2.341-.655,2-.449,6.063,2.243,6.536a5.714,5.714,0,0,0,.91,0h42.624a.849.849,0,0,1,0,1.7Z" transform="translate(-384.242 -1898.545)" fill="#aed3f2"/>
      <path id="Trazado_103837" data-name="Trazado 103837" d="M482.941,1937.7v10.563a1.018,1.018,0,0,1,0,2.025H470.815v-14.673h12.126a1.043,1.043,0,0,1,0,2.086Z" transform="translate(-374.508 -1896.398)" fill="#d9a171"/>
      <path id="Trazado_103838" data-name="Trazado 103838" d="M482.941,1937.7v10.563a1.018,1.018,0,0,1,0,2.025H470.815v-14.673h12.126a1.043,1.043,0,0,1,0,2.086Z" transform="translate(-374.508 -1896.398)" fill="#fff" opacity="0.3" style="isolation: isolate"/>
      <rect id="Rectángulo_5661" data-name="Rectángulo 5661" width="9.386" height="10.55" transform="translate(99.048 41.254)" fill="#d9a171"/>
      <rect id="Rectángulo_5662" data-name="Rectángulo 5662" width="9.386" height="10.55" transform="translate(99.048 41.254)" fill="#fff" opacity="0.6" style="isolation: isolate"/>
      <path id="Trazado_103839" data-name="Trazado 103839" d="M484.491,1936.455H432.675c-2.243,0-4.05,2.813-4.05,6.293s1.807,6.294,4.05,6.294h51.816Z" transform="translate(-383.479 -1896.22)" fill="#d9a171"/>
      <path id="Trazado_103840" data-name="Trazado 103840" d="M484.491,1936.455H432.675c-2.243,0-4.05,2.813-4.05,6.293s1.807,6.294,4.05,6.294h51.816Z" transform="translate(-383.479 -1896.22)" fill="#fff" opacity="0.9" style="isolation: isolate"/>
      <path id="Trazado_103841" data-name="Trazado 103841" d="M484.68,1950.254c-10.659,0-40.6.194-51.258,0-7.276-.134-7.688-14.115-.534-14.612,5-.339,10.125,0,15.121,0h36.67a1.019,1.019,0,0,1,0,2.025H435.107c-2.34,0-4,0-4.911,2.789-.776,2.425-.534,7.275,2.668,7.773a6.622,6.622,0,0,0,1.091,0H484.68a1.019,1.019,0,0,1,0,2.025Z" transform="translate(-383.668 -1896.425)" fill="#d9a171"/>
      <g id="Grupo_59421" data-name="Grupo 59421" transform="translate(44.07 39.066)" opacity="0.2">
        <path id="Trazado_103842" data-name="Trazado 103842" d="M484.68,1950.254c-10.659,0-40.6.194-51.258,0-7.276-.134-7.688-14.115-.534-14.612,5-.339,10.125,0,15.121,0h36.67a1.019,1.019,0,0,1,0,2.025H435.107c-2.34,0-4,0-4.911,2.789-.776,2.425-.534,7.275,2.668,7.773a6.622,6.622,0,0,0,1.091,0H484.68a1.019,1.019,0,0,1,0,2.025Z" transform="translate(-427.738 -1935.491)"/>
      </g>
      <path id="Trazado_103843" data-name="Trazado 103843" d="M560.419,1982.969l-70.43.315a3.262,3.262,0,0,1-3.331-3.191,3.206,3.206,0,0,1,.021-.447l3.735-45.037a4.025,4.025,0,0,1,3.917-3.638l70.43-.315a3.262,3.262,0,0,1,3.332,3.19,3.425,3.425,0,0,1-.022.448l-3.735,45.037A4.027,4.027,0,0,1,560.419,1982.969Z" transform="translate(-371.14 -1897.453)" fill="#344154"/>
      <g id="freepik--monitor-screen--inject-493" transform="translate(114.365 33.153)">
        <g id="freepik--PC--inject-493">
          <path id="Trazado_103844" data-name="Trazado 103844" d="M559.868,1978.811l-71.473.327,3.759-45.328,71.473-.315Z" transform="translate(-485.135 -1930.002)" fill="#d9a171"/>
          <path id="Trazado_103845" data-name="Trazado 103845" d="M559.469,1982.969l-70.43.315a3.25,3.25,0,0,1-3.332-3.165,3.384,3.384,0,0,1,.022-.473l3.735-45.037a4.025,4.025,0,0,1,3.917-3.638l70.43-.315a3.257,3.257,0,0,1,3.31,3.638l-3.735,45.037A4.027,4.027,0,0,1,559.469,1982.969Z" transform="translate(-485.706 -1930.606)" fill="#5e6178"/>
          <g id="Grupo_59422" data-name="Grupo 59422" transform="translate(2.739 2.971)" opacity="0.7">
            <path id="Trazado_103846" data-name="Trazado 103846" d="M559.426,1978.381l-71.46.315,3.759-45.316,71.473-.315Z" transform="translate(-487.965 -1933.065)" fill="#d9a171"/>
            <path id="Trazado_103847" data-name="Trazado 103847" d="M556.159,1978.392l-64.415.291a3.518,3.518,0,0,1-3.529-3.5c0-.1,0-.2.012-.3l3.177-38.283a3.517,3.517,0,0,1,3.492-3.226l64.4-.291a3.5,3.5,0,0,1,3.53,3.479,3.235,3.235,0,0,1-.013.329l-3.177,38.3A3.505,3.505,0,0,1,556.159,1978.392Z" transform="translate(-487.912 -1933.063)" fill="#344154" opacity="0.9" style="isolation: isolate"/>
          </g>
          <path id="Trazado_103848" data-name="Trazado 103848" d="M539.922,1930.689,526.2,1982.953l4.693-.024,13.581-52.264Z" transform="translate(-477.097 -1930.604)" fill="#fff" opacity="0.1" style="isolation: isolate"/>
          <path id="Trazado_103849" data-name="Trazado 103849" d="M545.9,1930.663l-13.727,52.265,9.313-.036,13.569-52.277Z" transform="translate(-475.825 -1930.615)" fill="#fff" opacity="0.1" style="isolation: isolate"/>
        </g>
      </g>
      <path id="Trazado_103850" data-name="Trazado 103850" d="M540.225,1973.585l23.768.206c.315,2.765-.909,3.759-2.425,3.747l-87.006-.133a3.47,3.47,0,0,1-3.456-3.468h0Z" transform="translate(-374.446 -1888.324)" fill="#d9a171"/>
      <path id="Trazado_103851" data-name="Trazado 103851" d="M540.225,1973.585l23.768.206c.315,2.765-.909,3.759-2.425,3.747l-87.006-.133a3.47,3.47,0,0,1-3.456-3.468h0Z" transform="translate(-374.446 -1888.324)" fill="#fff" opacity="0.2" style="isolation: isolate"/>
      <path id="Trazado_103852" data-name="Trazado 103852" d="M552.362,1973.783c.315,2.765-.909,3.759-2.425,3.747H525.8c1.977,0,4.5-1.916,4.5-3.9Z" transform="translate(-362.816 -1888.317)" fill="#fff" opacity="0.2" style="isolation: isolate"/>
      <path id="Trazado_103853" data-name="Trazado 103853" d="M551.645,1940.413a9.42,9.42,0,0,1,6.269-2.073,14.7,14.7,0,0,1,6.451,1.77q.28-4.366.521-8.731c.133-2.122-9.847-2.341-11.071-1.856C550.59,1930.772,552.179,1937.4,551.645,1940.413Z" transform="translate(-357.321 -1897.739)" fill="#d9a171"/>
      <path id="Trazado_103854" data-name="Trazado 103854" d="M551.645,1940.413a9.42,9.42,0,0,1,6.269-2.073,14.7,14.7,0,0,1,6.451,1.77q.28-4.366.521-8.731c.133-2.122-9.847-2.341-11.071-1.856C550.59,1930.772,552.179,1937.4,551.645,1940.413Z" transform="translate(-357.321 -1897.739)" fill="#fff" opacity="0.9" style="isolation: isolate"/>
      <path id="Trazado_103855" data-name="Trazado 103855" d="M550.645,1944.9a16.149,16.149,0,0,1,6.269-1.079,26.241,26.241,0,0,1,6.451.921c.182-1.5.352-3.019.521-4.535.134-1.1-9.846-1.212-11.071-.97C549.59,1939.888,551.179,1943.333,550.645,1944.9Z" transform="translate(-357.534 -1895.651)" fill="#d9a171"/>
      <path id="Trazado_103856" data-name="Trazado 103856" d="M550.645,1944.9a16.149,16.149,0,0,1,6.269-1.079,26.241,26.241,0,0,1,6.451.921c.182-1.5.352-3.019.521-4.535.134-1.1-9.846-1.212-11.071-.97C549.59,1939.888,551.179,1943.333,550.645,1944.9Z" transform="translate(-357.534 -1895.651)" fill="#fff" opacity="0.9" style="isolation: isolate"/>
      <path id="Trazado_103857" data-name="Trazado 103857" d="M550.245,1951.4a15.947,15.947,0,0,1,6.281-1.079,26.309,26.309,0,0,1,6.451.921c.17-1.516.34-3.02.521-4.535.121-1.1-9.846-1.212-11.083-.97C549.2,1946.389,550.791,1949.833,550.245,1951.4Z" transform="translate(-357.619 -1894.27)" fill="#d9a171"/>
      <path id="Trazado_103858" data-name="Trazado 103858" d="M550.245,1951.4a15.947,15.947,0,0,1,6.281-1.079,26.309,26.309,0,0,1,6.451.921c.17-1.516.34-3.02.521-4.535.121-1.1-9.846-1.212-11.083-.97C549.2,1946.389,550.791,1949.833,550.245,1951.4Z" transform="translate(-357.619 -1894.27)" fill="#fff" opacity="0.9" style="isolation: isolate"/>
      <path id="Trazado_103859" data-name="Trazado 103859" d="M541.451,1923.641a1.013,1.013,0,0,1,.206-.327.857.857,0,0,1,.606-.157l7.943-.121a28.236,28.236,0,0,0-2.583,11.6c-1.953-.084-8.731,0-8.731,0C537.582,1932.554,540.6,1925.678,541.451,1923.641Z" transform="translate(-360.102 -1899.073)" fill="#d9a171"/>
      <path id="Trazado_103860" data-name="Trazado 103860" d="M541.451,1923.641a1.013,1.013,0,0,1,.206-.327.857.857,0,0,1,.606-.157l7.943-.121a28.236,28.236,0,0,0-2.583,11.6c-1.953-.084-8.731,0-8.731,0C537.582,1932.554,540.6,1925.678,541.451,1923.641Z" transform="translate(-360.102 -1899.073)" fill="#fff" opacity="0.9" style="isolation: isolate"/>
      <path id="Trazado_103861" data-name="Trazado 103861" d="M530.261,1922.844a.889.889,0,0,1,.206-.339.915.915,0,0,1,.594-.158l7.955-.121a28.236,28.236,0,0,0-2.583,11.6c-1.952-.085-8.731,0-8.731,0C526.392,1931.756,529.412,1924.881,530.261,1922.844Z" transform="translate(-362.481 -1899.245)" fill="#d9a171"/>
      <path id="Trazado_103862" data-name="Trazado 103862" d="M530.261,1922.844a.889.889,0,0,1,.206-.339.915.915,0,0,1,.594-.158l7.955-.121a28.236,28.236,0,0,0-2.583,11.6c-1.952-.085-8.731,0-8.731,0C526.392,1931.756,529.412,1924.881,530.261,1922.844Z" transform="translate(-362.481 -1899.245)" fill="#fff" opacity="0.9" style="isolation: isolate"/>
      <path id="Trazado_103863" data-name="Trazado 103863" d="M520.9,1922.791a1.265,1.265,0,0,1,.133-.327.456.456,0,0,1,.388-.158h5.008a42.614,42.614,0,0,0-1.831,11.568c-1.213-.109-5.505,0-5.505,0C518.308,1931.655,520.333,1924.767,520.9,1922.791Z" transform="translate(-364.28 -1899.229)" fill="#d9a171"/>
      <path id="Trazado_103864" data-name="Trazado 103864" d="M520.9,1922.791a1.265,1.265,0,0,1,.133-.327.456.456,0,0,1,.388-.158h5.008a42.614,42.614,0,0,0-1.831,11.568c-1.213-.109-5.505,0-5.505,0C518.308,1931.655,520.333,1924.767,520.9,1922.791Z" transform="translate(-364.28 -1899.229)" fill="#fff" opacity="0.9" style="isolation: isolate"/>
      <g id="Grupo_59423" data-name="Grupo 59423" transform="translate(117.201 32.523)" opacity="0.2">
        <path id="Trazado_103865" data-name="Trazado 103865" d="M492.508,1931.38a12.485,12.485,0,0,1-1.383,4.693,33.385,33.385,0,0,1-3.08,5.226c5.966.122,10.477.4,12.721.073a15.264,15.264,0,0,0,2.668-11.277c-3.529,1.042-7.821.218-11.471,1.1Z" transform="translate(-488.045 -1930.095)"/>
      </g>
      <path id="Trazado_103866" data-name="Trazado 103866" d="M492.81,1930.035a13.686,13.686,0,0,1-2.037,4.572,35.851,35.851,0,0,1-3.808,4.959,76.316,76.316,0,0,0,12.781.157c2.837-3.055,4.087-6.062,3.917-9.616C499.431,1930.108,492.81,1930.035,492.81,1930.035Z" transform="translate(-371.074 -1897.585)" fill="#d9a171"/>
      <g id="Grupo_59424" data-name="Grupo 59424" transform="translate(115.891 32.45)" opacity="0.9">
        <path id="Trazado_103867" data-name="Trazado 103867" d="M492.81,1930.035a13.686,13.686,0,0,1-2.037,4.572,35.851,35.851,0,0,1-3.808,4.959,76.316,76.316,0,0,0,12.781.157c2.837-3.055,4.087-6.062,3.917-9.616C499.431,1930.108,492.81,1930.035,492.81,1930.035Z" transform="translate(-486.965 -1930.035)" fill="#fff"/>
      </g>
      <g id="Grupo_59425" data-name="Grupo 59425" transform="translate(133.595 31.274)" opacity="0.2">
        <path id="Trazado_103868" data-name="Trazado 103868" d="M506.027,1930.508a15.307,15.307,0,0,1-1.382,5.25,39.318,39.318,0,0,1-3.08,5.858c5.978.121,10.477.436,12.721.072a18.7,18.7,0,0,0,2.668-12.623c-3.529,1.213-7.821.243-11.459,1.213Z" transform="translate(-501.565 -1929.065)"/>
      </g>
      <path id="Trazado_103869" data-name="Trazado 103869" d="M506.268,1929a15.906,15.906,0,0,1-2.037,5.106,41.042,41.042,0,0,1-3.8,5.566,69.16,69.16,0,0,0,12.769.17,15.034,15.034,0,0,0,3.917-10.769C512.913,1929.078,506.268,1929,506.268,1929Z" transform="translate(-368.21 -1897.804)" fill="#d9a171"/>
      <g id="Grupo_59426" data-name="Grupo 59426" transform="translate(132.225 31.201)" opacity="0.9">
        <path id="Trazado_103870" data-name="Trazado 103870" d="M506.268,1929a15.906,15.906,0,0,1-2.037,5.106,41.042,41.042,0,0,1-3.8,5.566,69.16,69.16,0,0,0,12.769.17,15.034,15.034,0,0,0,3.917-10.769C512.913,1929.078,506.268,1929,506.268,1929Z" transform="translate(-500.435 -1929.005)" fill="#fff"/>
      </g>
      <path id="Trazado_103871" data-name="Trazado 103871" d="M603.489,1980.733H583.735l6.2-19.936.9-2.923H595.3Z" transform="translate(-350.498 -1891.665)" fill="#344154"/>
      <path id="Trazado_103872" data-name="Trazado 103872" d="M595.22,1957.875l-.9,2.923-6.2,19.936-18.262-.267-5.869-19.669-.909-2.923Z" transform="translate(-354.889 -1891.665)" fill="#e0e0e0"/>
      <path id="Trazado_103873" data-name="Trazado 103873" d="M597.406,1957.875l-.9,2.923-6.2,19.936-37.507-.545,7.991-22.313Z" transform="translate(-357.074 -1891.665)" fill="#d9a171"/>
      <path id="Trazado_103874" data-name="Trazado 103874" d="M597.406,1957.875l-.9,2.923-6.2,19.936-37.507-.545,7.991-22.313Z" transform="translate(-357.074 -1891.665)" fill="#fff" opacity="0.8" style="isolation: isolate"/>
      <path id="Trazado_103875" data-name="Trazado 103875" d="M596.185,1957.875l-.9,2.923H558.545l1.031-2.923Z" transform="translate(-355.854 -1891.665)" fill="#6595bf"/>
      <path id="Trazado_103876" data-name="Trazado 103876" d="M564.689,1969.517h-8.234l2.874-8.112,7.882.084Zm-7.276-.667H564.2l2.1-6.694-6.5-.073Z" transform="translate(-356.298 -1890.914)" fill="#d9a171"/>
      <path id="Trazado_103877" data-name="Trazado 103877" d="M572.239,1969.517h-8.234l2.874-8.112,7.882.084Zm-7.276-.667h6.791l2.086-6.694-6.488-.073Z" transform="translate(-354.693 -1890.914)" fill="#d9a171"/>
      <path id="Trazado_103878" data-name="Trazado 103878" d="M579.839,1969.517H571.6l2.874-8.112,7.87.084Zm-7.276-.667h6.791l2.1-6.694-6.488-.073Z" transform="translate(-353.077 -1890.914)" fill="#d9a171"/>
      <path id="Trazado_103879" data-name="Trazado 103879" d="M587.43,1969.517h-8.185l2.874-8.112,7.87.084Zm-7.276-.667h6.791l2.1-6.694-6.488-.073Z" transform="translate(-351.452 -1890.914)" fill="#d9a171"/>
      <path id="Trazado_103880" data-name="Trazado 103880" d="M562.281,1976.617h-8.246l2.874-8.112,7.882.085Zm-7.276-.667H561.8l2.1-6.694-6.5-.073Z" transform="translate(-356.813 -1889.405)" fill="#d9a171"/>
      <path id="Trazado_103881" data-name="Trazado 103881" d="M569.869,1976.617h-8.234l2.874-8.112,7.882.085Zm-7.276-.667h6.791l2.086-6.694-6.488-.073Z" transform="translate(-355.197 -1889.405)" fill="#d9a171"/>
      <path id="Trazado_103882" data-name="Trazado 103882" d="M577.467,1976.617h-8.222l2.874-8.112,7.87.085Zm-7.276-.667h6.791l2.1-6.694-6.487-.073Z" transform="translate(-353.579 -1889.405)" fill="#d9a171"/>
      <path id="Trazado_103883" data-name="Trazado 103883" d="M585.069,1976.617h-8.234l2.874-8.112,7.87.085Zm-7.276-.667h6.815l2.1-6.694-6.488-.073Z" transform="translate(-351.965 -1889.405)" fill="#d9a171"/>
      <path id="Trazado_103884" data-name="Trazado 103884" d="M563.534,1969.047a22.873,22.873,0,0,0-1.031-4.136c-.267-.691-2.983-4.935-3.517-2.34-.158.764,1.455,2.619,1.892,3.238A28.44,28.44,0,0,0,563.534,1969.047Z" transform="translate(-355.762 -1890.843)" fill="#d9a171"/>
      <path id="Trazado_103885" data-name="Trazado 103885" d="M557.863,1967.134c-.085.255-.06.643.206.655a.461.461,0,0,0,.267-.1c1.661-1.091,2.91-2.764,4.681-3.638a4.951,4.951,0,0,0,2.219-1.455,2.664,2.664,0,0,0-1.431.23C561.525,1963.678,558.748,1964.611,557.863,1967.134Z" transform="translate(-356.008 -1890.664)" fill="#d9a171"/>
      <path id="Trazado_103886" data-name="Trazado 103886" d="M578.694,1969.207a21.857,21.857,0,0,0-1.031-4.135c-.267-.691-2.971-4.935-3.517-2.34-.158.764,1.455,2.619,1.892,3.238A28.373,28.373,0,0,0,578.694,1969.207Z" transform="translate(-352.539 -1890.81)" fill="#d9a171"/>
      <path id="Trazado_103887" data-name="Trazado 103887" d="M573.021,1967.334c-.085.254,0,.642.206.655a.457.457,0,0,0,.267-.1c1.661-1.091,2.91-2.765,4.681-3.637a5.053,5.053,0,0,0,2.219-1.455,2.558,2.558,0,0,0-1.431.23C576.683,1963.83,573.906,1964.763,573.021,1967.334Z" transform="translate(-352.783 -1890.623)" fill="#d9a171"/>
      <path id="Trazado_103888" data-name="Trazado 103888" d="M567.584,1965a9.285,9.285,0,0,1,3.9,3.832,17.182,17.182,0,0,0-2.425-6.063C567.244,1960.029,565.207,1963.667,567.584,1965Z" transform="translate(-354.161 -1890.836)" fill="#d9a171"/>
      <path id="Trazado_103889" data-name="Trazado 103889" d="M581.924,1965a9.282,9.282,0,0,1,3.9,3.832,17.174,17.174,0,0,0-2.425-6.063C581.584,1960.029,579.547,1963.667,581.924,1965Z" transform="translate(-351.112 -1890.836)" fill="#d9a171"/>
      <path id="Trazado_103890" data-name="Trazado 103890" d="M568.923,1963.787a5.806,5.806,0,0,0-2.8,2.426c-.218.376-.34.921,0,1.212s.958-.073,1.322-.437c.825-.824,4.366-2.862,4.341-3.892A5.425,5.425,0,0,0,568.923,1963.787Z" transform="translate(-354.288 -1890.556)" fill="#d9a171"/>
      <path id="Trazado_103891" data-name="Trazado 103891" d="M584.323,1963.787a5.811,5.811,0,0,0-2.8,2.426c-.206.376-.339.921,0,1.212s.946-.073,1.31-.437c.825-.825,4.366-2.862,4.341-3.893A5.458,5.458,0,0,0,584.323,1963.787Z" transform="translate(-351.013 -1890.556)" fill="#d9a171"/>
      <path id="Trazado_103892" data-name="Trazado 103892" d="M563.2,1971.731c-.643-4.05-5.469-4.269-7.482-1.115a5.967,5.967,0,0,0-.837,2.619,4.128,4.128,0,0,0,.145,1.758,3.337,3.337,0,0,0,3.407,2,5.689,5.689,0,0,0,3.638-1.977,3.958,3.958,0,0,0,1.1-2A3.5,3.5,0,0,0,563.2,1971.731Zm-1.467,2.813a3.547,3.547,0,0,1-1.213,1.128,3.861,3.861,0,0,1-2.9.667,3.069,3.069,0,0,1-2.316-2.255c-.255-1.82,1.358-4.681,3.747-4.681C562.424,1969.4,563.018,1972.41,561.733,1974.544Z" transform="translate(-356.641 -1889.417)" fill="#344154"/>
    </g>
    <g id="freepik--Chair--inject-493" transform="translate(398.987 1985.269)">
      <path id="Trazado_103893" data-name="Trazado 103893" d="M429.459,1949.623l26.76,81.6H397.7l-10.115-85.974h35.837A6.346,6.346,0,0,1,429.459,1949.623Z" transform="translate(-383.617 -1945.245)" fill="#344154"/>
      <path id="Trazado_103894" data-name="Trazado 103894" d="M437.593,2016.085h57.962c2.676,0,4.838,2.772,4.838,6.2v4.281c0,3.426-2.141,6.2-4.838,6.2h-89l-4.656-16.163Z" transform="translate(-382.61 -1940.258)" fill="#344154"/>
      <g id="Grupo_59427" data-name="Grupo 59427" transform="translate(19.285 75.827)" opacity="0.2">
        <path id="Trazado_103895" data-name="Trazado 103895" d="M437.593,2016.085h57.962c2.676,0,4.838,2.772,4.838,6.2v4.281c0,3.426-2.141,6.2-4.838,6.2h-89l-4.656-16.163Z" transform="translate(-401.895 -2016.085)" fill="#fff"/>
      </g>
      <path id="Trazado_103896" data-name="Trazado 103896" d="M392.727,1950.039l7.493,65.551a10.3,10.3,0,0,0,10.233,9.109h40.375a4.849,4.849,0,0,1,4.849,4.849v3.382a4.849,4.849,0,0,1-4.849,4.849H401.986a10.3,10.3,0,0,1-10.244-9.281l-7.846-79.391a3.49,3.49,0,0,1,3.119-3.825,3.53,3.53,0,0,1,.36-.017h0A5.352,5.352,0,0,1,392.727,1950.039Z" transform="translate(-383.878 -1945.243)" fill="#344154"/>
      <path id="Trazado_103897" data-name="Trazado 103897" d="M392.727,1950.039l7.493,65.551a10.3,10.3,0,0,0,10.233,9.109h40.375a4.849,4.849,0,0,1,4.849,4.849v3.382a4.849,4.849,0,0,1-4.849,4.849H401.986a10.3,10.3,0,0,1-10.244-9.281l-7.846-79.391a3.49,3.49,0,0,1,3.119-3.825,3.53,3.53,0,0,1,.36-.017h0A5.352,5.352,0,0,1,392.727,1950.039Z" transform="translate(-383.878 -1945.243)" fill="#fff" opacity="0.3" style="isolation: isolate"/>
      <path id="Trazado_103898" data-name="Trazado 103898" d="M406.857,2104.761a4.656,4.656,0,1,1-4.656-4.656,4.656,4.656,0,0,1,4.656,4.656Z" transform="translate(-382.916 -1934.343)" fill="#d9a171"/>
      <path id="Trazado_103899" data-name="Trazado 103899" d="M471.135,2104.761a4.656,4.656,0,1,0,4.656-4.656,4.656,4.656,0,0,0-4.656,4.656Z" transform="translate(-377.735 -1934.343)" fill="#d9a171"/>
      <path id="Trazado_103900" data-name="Trazado 103900" d="M434.455,2103.371a4.656,4.656,0,1,0,4.656-4.656,4.657,4.657,0,0,0-4.656,4.656Z" transform="translate(-380.318 -1934.441)" fill="#d9a171"/>
      <path id="Trazado_103901" data-name="Trazado 103901" d="M486.527,2097.536a2.14,2.14,0,0,1-2.077,1.873l-44.1-.685-41.285,1.07a2.142,2.142,0,0,1-2.077-1.873,2.323,2.323,0,0,1,1.616-2.73l22.553-4.977a34.292,34.292,0,0,1,7.086-.749h24.234a34.352,34.352,0,0,1,7.086.749l25.336,4.6A2.331,2.331,0,0,1,486.527,2097.536Z" transform="translate(-382.959 -1935.093)" fill="#344154"/>
      <g id="Grupo_59428" data-name="Grupo 59428" transform="translate(13.975 154.373)" opacity="0.3">
        <path id="Trazado_103902" data-name="Trazado 103902" d="M486.527,2097.536a2.14,2.14,0,0,1-2.077,1.873l-44.1-.685-41.285,1.07a2.142,2.142,0,0,1-2.077-1.873,2.323,2.323,0,0,1,1.616-2.73l22.553-4.977a34.292,34.292,0,0,1,7.086-.749h24.234a34.352,34.352,0,0,1,7.086.749l25.336,4.6A2.331,2.331,0,0,1,486.527,2097.536Z" transform="translate(-396.934 -2089.465)" fill="#fff"/>
      </g>
      <rect id="Rectángulo_5663" data-name="Rectángulo 5663" width="14.996" height="42.452" transform="translate(49.888 111.92)" fill="#344154"/>
      <rect id="Rectángulo_5664" data-name="Rectángulo 5664" width="10.693" height="19.749" transform="translate(52.05 92.161)" fill="#344154"/>
      <path id="Trazado_103903" data-name="Trazado 103903" d="M432.505,2037.146,443.2,2040.2v-8.853H432.505Z" transform="translate(-380.455 -1939.184)" opacity="0.3" style="isolation: isolate"/>
      <path id="Trazado_103904" data-name="Trazado 103904" d="M406.857,2104.761a4.656,4.656,0,1,1-4.656-4.656,4.656,4.656,0,0,1,4.656,4.656Z" transform="translate(-382.916 -1934.343)" fill="#344154"/>
      <path id="Trazado_103905" data-name="Trazado 103905" d="M471.135,2104.761a4.656,4.656,0,1,0,4.656-4.656,4.656,4.656,0,0,0-4.656,4.656Z" transform="translate(-377.735 -1934.343)" fill="#344154"/>
      <path id="Trazado_103906" data-name="Trazado 103906" d="M434.455,2103.371a4.656,4.656,0,1,0,4.656-4.656,4.657,4.657,0,0,0-4.656,4.656Z" transform="translate(-380.318 -1934.441)" fill="#344154"/>
    </g>
    <g id="freepik--Character--inject-493" transform="translate(193.366 1817.593)">
      <path id="Trazado_103907" data-name="Trazado 103907" d="M264.821,1959.934s-9.72,12.335-8.154,33.417,43.4,9.141,43.4,9.141,18.183-26.386,29.47-29.3L319.5,1962.783C312.511,1963.2,307.317,1955.666,264.821,1959.934Z" transform="translate(-205.298 -1792.429)" fill="#d9a171"/>
      <g id="freepik--Character--inject-217--inject-493" transform="translate(0 29.24)">
        <path id="Trazado_103908" data-name="Trazado 103908" d="M295.415,1896.851c2.8,6.611,5.724,13,8.845,19.428s6.3,12.767,9.868,19.145l1.431,2.467a13.593,13.593,0,0,0,3.528,4,17.505,17.505,0,0,0,7.747,3.22,38.049,38.049,0,0,0,12.57-.235,87.315,87.315,0,0,0,21.365-6.735l-2.467-7.4-5.045.8c-1.7.259-3.4.407-5.082.654a95.706,95.706,0,0,1-9.93.716,29.955,29.955,0,0,1-8.573-.864,3.981,3.981,0,0,1-1.863-.962c0-.086.111,0,.111,0l-1.036-2.183c-2.837-6.242-5.674-12.742-8.487-19.12s-5.711-12.878-8.635-19.243Z" transform="translate(-196.208 -1837.571)" fill="#ffb573"/>
        <path id="Trazado_103909" data-name="Trazado 103909" d="M358.1,1930.953a6.8,6.8,0,0,0,2.467-1.1c2.652-2.467,1.085-6.636-1.406-9.276h0c-.1-.111-2.887-2.677-3-2.788-2.677-2.467-4.157.185-6.612,2.862l-4.934,5.342,3.022,6.4a39.287,39.287,0,0,0,8.228-.9C356.494,1931.372,357.271,1931.187,358.1,1930.953Z" transform="translate(-184.717 -1831.434)" fill="#ffb573"/>
        <path id="Trazado_103910" data-name="Trazado 103910" d="M316.138,1894.862c5.7,8.8,4.712,20.44,4.712,20.44l-13.717,2.973s-15.271-15.937-12.484-23.7C297.746,1886.017,310.106,1885.536,316.138,1894.862Z" transform="translate(-196.466 -1838.16)" fill="#6595bf"/>
        <path id="Trazado_103911" data-name="Trazado 103911" d="M307.094,1917.761l8.721-1.887a79.9,79.9,0,0,0-8.277-17.172c-5.169-7.66-8.869-9.868-12.977-7.7C293.266,1901.638,307.094,1917.761,307.094,1917.761Z" transform="translate(-196.427 -1837.646)" opacity="0.2" style="isolation: isolate"/>
        <path id="Trazado_103912" data-name="Trazado 103912" d="M276.331,1887.217c-1.406.136-15.568,3.578-12,16.974,14.8,52.525,5.317,48.109-1.073,72.781l54.684,2.849s-3.7-37.71-1.308-44.408c4.1-11.262,3.639-19.477-.53-30.777-4.6-12.471-6.378-15.852-6.378-15.852C304.518,1887.636,287.013,1883.208,276.331,1887.217Z" transform="translate(-203.719 -1838.73)" fill="#6595bf"/>
        <path id="Trazado_103913" data-name="Trazado 103913" d="M277.631,1926.481c-.765-6.636-11.805-31.788-9.622-34.86,1.7-.9,9.424.112,13.73,4.935C291.545,1919.525,277.631,1926.481,277.631,1926.481Z" transform="translate(-202.675 -1837.386)" opacity="0.2" style="isolation: isolate"/>
        <path id="Trazado_103914" data-name="Trazado 103914" d="M261.042,2095.46l-28.088,21.094c-1.147-.543-9.449-9.659-9.449-9.659l24.35-20.649Z" transform="translate(-213.003 -1791.86)" fill="#e29471"/>
        <path id="Trazado_103915" data-name="Trazado 103915" d="M232.655,2113.054a.384.384,0,0,1,0-.395.367.367,0,0,1,.395-.112c.234.074,5.859,1.949,6.994,4.232a1.749,1.749,0,0,1,.148,1.381,1.323,1.323,0,0,1-1.122,1.037c-1.012.147-2.467-1.037-3.7-2.468A25.261,25.261,0,0,1,232.655,2113.054Zm6.464,3.5a15.528,15.528,0,0,0-5.255-3.035c1.53,2.282,4.046,5.058,5.218,4.934.16,0,.37-.1.53-.58a1.066,1.066,0,0,0-.086-.826,3.423,3.423,0,0,0-.395-.555Z" transform="translate(-210.879 -1785.721)" fill="#d9a171"/>
        <path id="Trazado_103916" data-name="Trazado 103916" d="M232.645,2113.223a.37.37,0,0,1,.2-.3c.148-.085,3.355-2.467,5.773-2.084a2.615,2.615,0,0,1,1.678,1.123,1.232,1.232,0,0,1,.123,1.641c-1.049,1.32-5.773.826-7.562,0l-.123-.086Zm5.822-1.639a8.133,8.133,0,0,0-4.687,1.578c2.048.617,5.588.777,6.168,0,0-.074.21-.26-.148-.765l-.185-.123A1.772,1.772,0,0,0,238.467,2111.584Z" transform="translate(-210.868 -1786.125)" fill="#d9a171"/>
        <path id="Trazado_103917" data-name="Trazado 103917" d="M237.286,2112.3l-2.467-1.159a10.447,10.447,0,0,1-5.563-6.587l-.962-3.38a1.232,1.232,0,0,0-1.579-.309l-10.979,5.242c-1.061.593-.7,3.245-.617,3.343,4.823,7.328,16.308,22.2,20.3,26.953s9.2,1.431,7.994-.875c-5.4-10.313-5.526-15.814-5.354-20.687A3.7,3.7,0,0,0,237.286,2112.3Z" transform="translate(-214.992 -1788.484)" fill="#344154"/>
        <path id="Trazado_103918" data-name="Trazado 103918" d="M262.3,1990.505a32.717,32.717,0,0,0-.173,7.759c1.061,13.668,9.72,58.582,12.064,75.926a10.276,10.276,0,0,1-3.947,9.178c-7.919,6.822-21.933,16.036-37.809,38.6.2,9.868,1.16,11.1,10.115,14.667,0,0,45.013-33.959,52.007-43.915,10.3-14.679,10.535-76.863,11.1-93.072.333-9.2.617-20.169-6.341-26.09C295.445,1970.225,264.915,1965.291,262.3,1990.505Z" transform="translate(-210.917 -1818.822)" fill="#d9a171"/>
        <path id="Trazado_103919" data-name="Trazado 103919" d="M398.1,2068.932l12.558,32.887c-.839.925-10.646,9.3-11.978,6.168-4.1-9.462-22.3-40.411-22.3-40.411Z" transform="translate(-177.299 -1796.221)" fill="#e29471"/>
        <path id="Trazado_103920" data-name="Trazado 103920" d="M405.683,2095.528a.4.4,0,0,1-.407,0,.444.444,0,0,1-.1-.407c.1-.234,2.134-5.8,4.453-6.859a1.738,1.738,0,0,1,1.382-.1,1.294,1.294,0,0,1,1,1.147c.123,1.011-1.11,2.393-2.578,3.6A24.244,24.244,0,0,1,405.683,2095.528Zm3.7-6.34a15.411,15.411,0,0,0-3.146,5.157c2.319-1.469,5.181-3.9,5.095-5.071,0-.148-.1-.371-.567-.542a1.067,1.067,0,0,0-.826.061,3.584,3.584,0,0,0-.58.383Z" transform="translate(-170.575 -1791.436)" fill="#d9a171"/>
        <path id="Trazado_103921" data-name="Trazado 103921" d="M405.822,2095.637a.357.357,0,0,1-.3-.21c-.086-.148-2.344-3.429-1.9-5.834a2.6,2.6,0,0,1,1.172-1.641,1.233,1.233,0,0,1,1.641-.074c1.233,1.086.641,5.8-.21,7.562l-.086.123Zm-1.419-5.9a8.064,8.064,0,0,0,1.431,4.724c.678-2.01.95-5.551.148-6.168-.074,0-.259-.21-.777.123l-.123.185A1.736,1.736,0,0,0,404.4,2089.741Z" transform="translate(-170.948 -1791.544)" fill="#d9a171"/>
        <path id="Trazado_103922" data-name="Trazado 103922" d="M406.7,2093.388l-13.261,5.317a1.233,1.233,0,0,0-.753,1.418l1.8,12.027c.259,1.233,2.9,1.616,3.022,1.567,8.425-2.467,26-9.116,31.715-11.533s4.046-8.388,1.493-7.908c-11.447,2.146-16.739.666-21.353-.925A3.549,3.549,0,0,0,406.7,2093.388Z" transform="translate(-173.495 -1790.258)" fill="#344154"/>
        <path id="Trazado_103923" data-name="Trazado 103923" d="M347.4,2038.476c3.207,2.233,6.242,4.379,8.993,6.39,24.844,18.207,38.993,51.119,49.071,69.08,9.165,4.478,21.908-4.417,25.781-7.155,0,0-27.138-57.571-36.23-70.091-22.031-30.173-43.927-49.959-77.714-68.894a28.368,28.368,0,0,0-28.73.531,49.712,49.712,0,0,0-9.56,7.192c-1.234,1.332-3.479,8.968,6.908,19.354,9.313,9.325,39.61,28.471,61.431,43.632" transform="translate(-200.295 -1820.375)" fill="#d9a171"/>
        <path id="Trazado_103924" data-name="Trazado 103924" d="M291.969,1997.388c-2.171-3.861,1-16.913,1-16.913s42.36,40.979,44.408,49.342l-36.39-24.671Z" transform="translate(-197.19 -1816.564)" opacity="0.1" style="isolation: isolate"/>
        <path id="Trazado_103925" data-name="Trazado 103925" d="M361.724,2059.1a.648.648,0,0,1-.518-.272c-1.234-1.949-2.541-3.836-3.8-5.613a.62.62,0,1,1,1.012-.716c1.233,1.8,2.553,3.7,3.824,5.65a.6.6,0,0,1-.165.838l-.02.013A.534.534,0,0,1,361.724,2059.1Z" transform="translate(-181.756 -1799.803)" fill="#d9a171"/>
        <path id="Trazado_103926" data-name="Trazado 103926" d="M360.091,2054.013a.62.62,0,0,1-.493-.234,99.974,99.974,0,0,0-19.737-19.737c-2.578-1.888-5.514-3.972-8.98-6.378a.617.617,0,0,1,.7-1.011c3.479,2.467,6.415,4.5,9.005,6.4a101.031,101.031,0,0,1,19.959,19.909.6.6,0,0,1-.481,1Z" transform="translate(-187.98 -1805.801)" fill="#d9a171"/>
        <path id="Trazado_103927" data-name="Trazado 103927" d="M290.032,2068.015h-.185a.631.631,0,0,1-.407-.777c.358-1.1.691-2.319,1.024-3.614a.618.618,0,0,1,.751-.445h0a.6.6,0,0,1,.448.727l0,.013c-.333,1.32-.678,2.565-1.036,3.7A.631.631,0,0,1,290.032,2068.015Z" transform="translate(-197.609 -1797.253)" fill="#d9a171"/>
        <path id="Trazado_103928" data-name="Trazado 103928" d="M271.652,2091.943a.618.618,0,0,1-.395-1.1c10.461-8.7,16.887-14.728,19.133-17.91a17.068,17.068,0,0,0,1.234-1.986.628.628,0,0,1,.839-.259.615.615,0,0,1,.259.826,17.848,17.848,0,0,1-1.234,2.134c-2.294,3.269-8.808,9.375-19.342,18.145A.634.634,0,0,1,271.652,2091.943Z" transform="translate(-201.902 -1795.51)" fill="#d9a171"/>
        <path id="Trazado_103929" data-name="Trazado 103929" d="M286.463,1883.32c.962,3.96,4.564,6.674,8.03,8.808,2.7,1.653,5.674,3.232,8.832,3.121a9.241,9.241,0,0,0,8.439-9.978c-.014-.153-.03-.307-.051-.459a5.815,5.815,0,0,0,8.573,1.11c2.344-2.27,2.282-6.02,1.69-9.227a46.716,46.716,0,0,0-15.062-26.361c-1.8,2.356-5.378,1.912-7.007,1.48a7.272,7.272,0,0,1-1.665-.617h0a7.537,7.537,0,0,0-4.725.629h0c-2.282,2.973-3.109,6.846-3.861,10.559q-1.38,6.809-2.763,13.631A17.481,17.481,0,0,0,286.463,1883.32Z" transform="translate(-198.346 -1846.959)" fill="#344154"/>
        <path id="Trazado_103930" data-name="Trazado 103930" d="M285.208,1871.2c.247,6.563,0,16.036-5.082,19.663,0,0-.777,6.562,16.2,16.406,7.956-8.327,3.7-13.3,3.7-13.3-6.883-2.812-6.168-5.687-4.231-10.46Z" transform="translate(-199.78 -1842.088)" fill="#ffb573"/>
        <path id="Trazado_103931" data-name="Trazado 103931" d="M288.09,1875.215l6.168,7.4a20.038,20.038,0,0,0-1.16,3.429c-2.677-.815-6.6-3.8-6.723-6.847A8.633,8.633,0,0,1,288.09,1875.215Z" transform="translate(-198.319 -1841.149)" opacity="0.2" style="isolation: isolate"/>
        <path id="Trazado_103932" data-name="Trazado 103932" d="M278.909,1864.457c1.234,10.9,1.53,15.543,7.4,20.86,8.758,8.018,21.883,4.1,23.931-6.958,1.826-9.955-.518-26.176-11.46-29.9a14.964,14.964,0,0,0-19.823,16.036Z" transform="translate(-200.08 -1847.599)" fill="#ffb573"/>
        <path id="Trazado_103933" data-name="Trazado 103933" d="M297.675,1872.524c0,.912.444,1.653,1.036,1.677s1.086-.728,1.11-1.628-.444-1.665-1.036-1.677S297.675,1871.611,297.675,1872.524Z" transform="translate(-195.68 -1842.158)" fill="#344154"/>
        <path id="Trazado_103934" data-name="Trazado 103934" d="M293.145,1863.163c0,.888.567,1.591,1.147,1.566s1.012-.789.975-1.678-.568-1.592-1.135-1.566S293.157,1862.311,293.145,1863.163Z" transform="translate(-196.738 -1844.356)" fill="#344154"/>
        <path id="Trazado_103935" data-name="Trazado 103935" d="M301.307,1862.751c0,.9.567,1.592,1.135,1.566s1.024-.789.987-1.678-.567-1.59-1.147-1.554S301.232,1861.862,301.307,1862.751Z" transform="translate(-194.834 -1844.449)" fill="#344154"/>
        <path id="Trazado_103936" data-name="Trazado 103936" d="M301.9,1861.273l2.1-.728S302.993,1862.284,301.9,1861.273Z" transform="translate(-194.694 -1844.575)" fill="#344154"/>
        <path id="Trazado_103937" data-name="Trazado 103937" d="M298.855,1863.875a24.64,24.64,0,0,0,3.491,5.526,3.911,3.911,0,0,1-3.158.752Z" transform="translate(-195.404 -1843.798)" fill="#ed893e"/>
        <path id="Trazado_103938" data-name="Trazado 103938" d="M290.54,1859.907a.543.543,0,0,0,.617,0,6.164,6.164,0,0,1,4.86-.974.531.531,0,0,0,.629-.395.518.518,0,0,0-.378-.628h-.005a7.078,7.078,0,0,0-5.81,1.233.519.519,0,0,0,0,.728h0Z" transform="translate(-197.402 -1845.232)" fill="#344154"/>
        <path id="Trazado_103939" data-name="Trazado 103939" d="M304.448,1858.937a.545.545,0,0,0,.493-.222.517.517,0,0,0-.106-.725l0,0a5.091,5.091,0,0,0-4.762-.864.48.48,0,0,0-.317.6l.009.028h0a.506.506,0,0,0,.644.312l.01,0h0a4.175,4.175,0,0,1,3.7.74A.688.688,0,0,0,304.448,1858.937Z" transform="translate(-195.2 -1845.433)" fill="#344154"/>
        <path id="Trazado_103940" data-name="Trazado 103940" d="M293.725,1861.755l2.109-.74S294.835,1862.644,293.725,1861.755Z" transform="translate(-196.603 -1844.465)" fill="#344154"/>
      </g>
      <path id="Trazado_103941" data-name="Trazado 103941" d="M315.641,1854.317c-.1.136-4.268,1.986-9.449-1.048-.53-.309-1.147-.358-1.653-.629h0a7.555,7.555,0,0,0-4.737.629h0c-.37.209-4.8,2.01-5.354,9.868-.9,12.632-6.612,9.5-7.4,9.227-1.924-.7-2.948-2.221-4.934-1.961a3.2,3.2,0,0,1-1.086,0c1.234,3.626,2.553,7.081,4.132,7.858,11.509,5.563,8.1,15.42,5.058,16.987-2.183,1.134-11.349,2.035-18.109-5.453-2.072,1.888-5.44,1.444-7.969.136h0a9.005,9.005,0,0,1-4.206-11.1,21.07,21.07,0,0,1,7.66-10.079c2.467-1.69,5.317-2.924,7.093-5.316a9.588,9.588,0,0,0,1.234-2.283c.481-1.233,1.061-2.529,1.628-3.774a3,3,0,0,0,.173-.592,17.49,17.49,0,0,1,4.613-7.314c3.158-3.084,10.017-5.478,15.678-5.613C304.526,1843.635,313.075,1848.3,315.641,1854.317Z" transform="translate(-204.628 -1819.235)" fill="#344154"/>
      <path id="Trazado_103942" data-name="Trazado 103942" d="M273.655,1859.643c.086-.9.123-1.677.136-2A15.89,15.89,0,0,0,273.655,1859.643Z" transform="translate(-201.29 -1816.012)" fill="#344154"/>
      <path id="Trazado_103943" data-name="Trazado 103943" d="M276.915,1869.194a7.9,7.9,0,0,0,4.219,4.268c2.566,1.036,4.169-1.233,3.7-3.775-.419-2.332-2.233-5.687-4.934-5.662a3.54,3.54,0,0,0-3.406,3.67v.031A3.377,3.377,0,0,0,276.915,1869.194Z" transform="translate(-200.628 -1814.522)" fill="#ffb573"/>
      <path id="Trazado_103944" data-name="Trazado 103944" d="M305.4,1893.375c3.146-.568,6.291-1.875,8.006-4.552,4.934-7.7-3.294-27.607-13.261-37.908l-.407.518c9.869,10.14,18,29.606,13.187,37.143-3.318,5.169-12.656,4.935-15.666,4.366l-.111.6A25.908,25.908,0,0,0,305.4,1893.375Z" transform="translate(-195.804 -1817.584)" fill="#344154"/>
      <path id="Trazado_103945" data-name="Trazado 103945" d="M274.015,1864.144l.6-.111c-.752-4.083.666-8.561,3.972-12.619,3.577-4.379,8.771-7.4,12.915-7.4,4.762-.086,11.6,1.628,15.37,5.6l.444-.42c-3.9-4.12-10.929-5.884-15.826-5.8-4.318.074-9.7,3.158-13.372,7.66C274.681,1855.213,273.225,1859.876,274.015,1864.144Z" transform="translate(-201.255 -1819.342)" fill="#344154"/>
      <path id="Trazado_103946" data-name="Trazado 103946" d="M259.505,1877.15a77.424,77.424,0,0,0,9.868,7.093,21.811,21.811,0,0,0,10.658,3.7,12.652,12.652,0,0,0,2.652-.2,10.415,10.415,0,0,0,7.241-4.687,8.027,8.027,0,0,0,.728-6.168,6.4,6.4,0,0,0-3.121-4.046l-.271.531a5.876,5.876,0,0,1,2.825,3.7,7.4,7.4,0,0,1-.679,5.7,10.451,10.451,0,0,1-9.252,4.613,21.27,21.27,0,0,1-10.362-3.6,77.418,77.418,0,0,1-10.1-7.241Z" transform="translate(-204.595 -1812.463)" fill="#344154"/>
      <path id="Trazado_103947" data-name="Trazado 103947" d="M265.645,1894.776c1.085,8.154,10.115,43.076,11.953,47.06.259.543.518,1.1.827,1.653s.6,1.122.987,1.714l.567.913c.271.382.543.789.826,1.122a21.11,21.11,0,0,0,1.727,1.9,25.091,25.091,0,0,0,7.007,4.515,54.16,54.16,0,0,0,13,3.763,109.3,109.3,0,0,0,24.893,1.233l.432-8.635-5.637-1.234c-1.887-.419-3.762-.9-5.625-1.332-3.7-.925-7.4-1.9-10.88-3.071-3.306-1-8.573-2.468-11.6-4.1a10.727,10.727,0,0,1-2.763-2.221,2.182,2.182,0,0,1-.222-.345.333.333,0,0,1,0-.1l-.185-.358c-.148-.3-.284-.6-.407-.913s-9.239-37.364-10.485-44.9Z" transform="translate(-203.161 -1808.119)" fill="#ffb573"/>
      <path id="Trazado_103948" data-name="Trazado 103948" d="M314.865,1941.02a35.995,35.995,0,0,1,6-5.946,7.256,7.256,0,0,1,3.479-1.554c4-.616,8.215-1.233,8.363,6.107h0c0,.185.938,3.293.95,3.466.345,4.034-3.528,4.651-7.562,5l-10.769.74Z" transform="translate(-191.665 -1798.372)" fill="#ffb573"/>
      <path id="Trazado_103949" data-name="Trazado 103949" d="M287.132,1895.632c3.8,12.4-.777,12.25-.321,19.811l-15.161,3.775s-8.327-7.007-9.585-15.876a14.134,14.134,0,0,1,16.6-15.641A10.618,10.618,0,0,1,287.132,1895.632Z" transform="translate(-204.022 -1809.048)" fill="#6595bf"/>
      <rect id="Rectángulo_5665" data-name="Rectángulo 5665" width="4.749" height="1.369" transform="matrix(0.975, -0.221, 0.221, 0.975, 75.927, 104.198)" fill="#d9a171"/>
      <rect id="Rectángulo_5666" data-name="Rectángulo 5666" width="5.132" height="1.369" transform="translate(68.456 106.592) rotate(-18.49)" fill="#d9a171"/>
      <rect id="Rectángulo_5667" data-name="Rectángulo 5667" width="4.268" height="1.234" transform="translate(121.132 105.415) rotate(-12.46)" fill="#d9a171"/>
      <path id="Trazado_103950" data-name="Trazado 103950" d="M367.562,1925.455a10.6,10.6,0,0,0-.308,13.483l.308.395v2.146H298.655v-18.5h68.907Z" transform="translate(-195.451 -1800.754)" fill="#d9a171"/>
      <path id="Trazado_103951" data-name="Trazado 103951" d="M360.235,1925.455a10.6,10.6,0,0,0-.308,13.483l.308.395v2.146h-30.21v-18.5h30.21Z" transform="translate(-188.124 -1800.754)" opacity="0.1" style="isolation: isolate"/>
      <path id="Trazado_103952" data-name="Trazado 103952" d="M359.283,1938.468l.308.395H332.675v-13.878h26.941a10.6,10.6,0,0,0-.308,13.483Z" transform="translate(-187.505 -1800.285)" fill="#344154"/>
      <path id="Trazado_103953" data-name="Trazado 103953" d="M359.283,1938.468l.308.395H332.675v-13.878h26.941a10.6,10.6,0,0,0-.308,13.483Z" transform="translate(-187.505 -1800.285)" fill="#fff" opacity="0.9" style="isolation: isolate"/>
      <path id="Trazado_103954" data-name="Trazado 103954" d="M329.456,1931.566a3.7,3.7,0,1,1-3.7-3.7h0A3.7,3.7,0,0,1,329.456,1931.566Z" transform="translate(-189.986 -1799.612)" fill="#fff"/>
      <path id="Trazado_103955" data-name="Trazado 103955" d="M328.473,1931.414a2.9,2.9,0,1,1-2.9-2.9,2.9,2.9,0,0,1,2.9,2.9Z" transform="translate(-189.841 -1799.46)" fill="#344154"/>
      <rect id="Rectángulo_5668" data-name="Rectángulo 5668" width="16.073" height="10.251" transform="translate(105.067 126.304)" fill="#fff"/>
      <rect id="Rectángulo_5669" data-name="Rectángulo 5669" width="6.92" height="10.251" transform="translate(121.893 126.304)" fill="#fff"/>
      <path id="Trazado_103956" data-name="Trazado 103956" d="M332.675,1936.7v-1.234a3.7,3.7,0,1,0,0-7.327V1926.9a4.934,4.934,0,0,1,1.206,9.795A4.987,4.987,0,0,1,332.675,1936.7Z" transform="translate(-187.505 -1799.846)" fill="#344154"/>
      <rect id="Rectángulo_5670" data-name="Rectángulo 5670" width="24.684" height="0.617" transform="translate(145.17 128.746)" fill="#fff"/>
      <rect id="Rectángulo_5671" data-name="Rectángulo 5671" width="24.684" height="0.617" transform="translate(145.17 129.474)" fill="#fff"/>
      <rect id="Rectángulo_5672" data-name="Rectángulo 5672" width="24.684" height="0.617" transform="translate(145.17 130.189)" fill="#fff"/>
      <rect id="Rectángulo_5673" data-name="Rectángulo 5673" width="24.684" height="0.617" transform="translate(145.17 130.917)" fill="#fff"/>
      <rect id="Rectángulo_5674" data-name="Rectángulo 5674" width="24.684" height="0.617" transform="translate(145.17 131.645)" fill="#fff"/>
      <rect id="Rectángulo_5675" data-name="Rectángulo 5675" width="24.684" height="0.617" transform="translate(145.17 132.373)" fill="#fff"/>
      <rect id="Rectángulo_5676" data-name="Rectángulo 5676" width="24.684" height="0.617" transform="translate(145.17 133.101)" fill="#fff"/>
      <rect id="Rectángulo_5677" data-name="Rectángulo 5677" width="24.684" height="0.617" transform="translate(145.17 133.828)" fill="#fff"/>
      <rect id="Rectángulo_5678" data-name="Rectángulo 5678" width="24.684" height="0.617" transform="translate(145.17 134.544)" fill="#fff"/>
      <path id="Trazado_103957" data-name="Trazado 103957" d="M373.652,1910.2a10.6,10.6,0,0,0-.308,13.483l.308.395v2.147H304.745v-18.565h68.907Z" transform="translate(-194.029 -1804.332)" fill="#6595bf"/>
      <path id="Trazado_103958" data-name="Trazado 103958" d="M366.325,1910.2a10.6,10.6,0,0,0-.308,13.483l.308.395v2.147h-30.21v-18.565h30.21Z" transform="translate(-186.702 -1804.332)" opacity="0.1" style="isolation: isolate"/>
      <path id="Trazado_103959" data-name="Trazado 103959" d="M365.4,1923.2l.308.4H338.765v-13.878h26.941A10.6,10.6,0,0,0,365.4,1923.2Z" transform="translate(-186.083 -1803.851)" fill="#344154"/>
      <path id="Trazado_103960" data-name="Trazado 103960" d="M365.4,1923.2l.308.4H338.765v-13.878h26.941A10.6,10.6,0,0,0,365.4,1923.2Z" transform="translate(-186.083 -1803.851)" fill="#fff" opacity="0.9" style="isolation: isolate"/>
      <path id="Trazado_103961" data-name="Trazado 103961" d="M335.546,1916.3a3.7,3.7,0,1,1-3.7-3.7A3.7,3.7,0,0,1,335.546,1916.3Z" transform="translate(-188.563 -1803.178)" fill="#fff"/>
      <path id="Trazado_103962" data-name="Trazado 103962" d="M334.563,1916.144a2.9,2.9,0,1,1-2.9-2.9,2.9,2.9,0,0,1,2.9,2.9Z" transform="translate(-188.419 -1803.027)" fill="#344154"/>
      <rect id="Rectángulo_5679" data-name="Rectángulo 5679" width="16.073" height="10.251" transform="translate(112.579 107.455)" fill="#fff"/>
      <rect id="Rectángulo_5680" data-name="Rectángulo 5680" width="6.92" height="10.251" transform="translate(129.405 107.455)" fill="#fff"/>
      <path id="Trazado_103963" data-name="Trazado 103963" d="M338.765,1921.42v-1.234a3.7,3.7,0,0,0,0-7.327v-1.234a4.934,4.934,0,0,1,0,9.795Z" transform="translate(-186.083 -1803.405)" fill="#344154"/>
      <rect id="Rectángulo_5681" data-name="Rectángulo 5681" width="24.684" height="0.617" transform="translate(152.682 109.91)" fill="#fff"/>
      <rect id="Rectángulo_5682" data-name="Rectángulo 5682" width="24.684" height="0.617" transform="translate(152.682 110.637)" fill="#fff"/>
      <rect id="Rectángulo_5683" data-name="Rectángulo 5683" width="24.684" height="0.617" transform="translate(152.682 111.353)" fill="#fff"/>
      <rect id="Rectángulo_5684" data-name="Rectángulo 5684" width="24.684" height="0.617" transform="translate(152.682 112.081)" fill="#fff"/>
      <rect id="Rectángulo_5685" data-name="Rectángulo 5685" width="24.684" height="0.617" transform="translate(152.682 112.809)" fill="#fff"/>
      <rect id="Rectángulo_5686" data-name="Rectángulo 5686" width="24.684" height="0.617" transform="translate(152.682 113.536)" fill="#fff"/>
      <rect id="Rectángulo_5687" data-name="Rectángulo 5687" width="24.684" height="0.617" transform="translate(152.682 114.264)" fill="#fff"/>
      <rect id="Rectángulo_5688" data-name="Rectángulo 5688" width="24.684" height="0.617" transform="translate(152.682 114.98)" fill="#fff"/>
      <rect id="Rectángulo_5689" data-name="Rectángulo 5689" width="24.684" height="0.617" transform="translate(152.682 115.707)" fill="#fff"/>
      <path id="Trazado_103964" data-name="Trazado 103964" d="M332.735,1841.313a150.509,150.509,0,0,0,42.558-.247,2.89,2.89,0,0,0,2.171-1.036c.642-1.061-.259-2.344-1-3.331a16.31,16.31,0,0,1-2.9-12.8,68,68,0,0,1-37.92,17.27Z" transform="translate(-187.491 -1823.895)" fill="#d9a171"/>
      <path id="Trazado_103965" data-name="Trazado 103965" d="M332.735,1841.313a150.509,150.509,0,0,0,42.558-.247,2.89,2.89,0,0,0,2.171-1.036c.642-1.061-.259-2.344-1-3.331a16.31,16.31,0,0,1-2.9-12.8,68,68,0,0,1-37.92,17.27Z" transform="translate(-187.491 -1823.895)" fill="#fff" opacity="0.4" style="isolation: isolate"/>
      <rect id="Rectángulo_5690" data-name="Rectángulo 5690" width="61.629" height="15.321" transform="translate(113.319 88.063)" fill="#d9a171"/>
      <rect id="Rectángulo_5691" data-name="Rectángulo 5691" width="61.629" height="15.321" transform="translate(113.529 88.125)" fill="#fff" opacity="0.6" style="isolation: isolate"/>
      <rect id="Rectángulo_5692" data-name="Rectángulo 5692" width="47.295" height="15.321" transform="translate(113.332 88.125)" fill="#fff" opacity="0.6" style="isolation: isolate"/>
      <path id="Trazado_103966" data-name="Trazado 103966" d="M307.11,1906.2l61.333,1.912-.074-1.554-61.283-.8Z" transform="translate(-193.482 -1804.776)" fill="#d9a171"/>
      <path id="Trazado_103967" data-name="Trazado 103967" d="M368.419,1901.026l-61.234-3.441v.518l61.234,4.095Z" transform="translate(-193.459 -1806.684)" fill="#d9a171"/>
      <path id="Trazado_103968" data-name="Trazado 103968" d="M368.419,1896.625l-61.234,1.406v.494l61.234-.74Z" transform="translate(-193.459 -1806.909)" fill="#d9a171"/>
      <path id="Trazado_103969" data-name="Trazado 103969" d="M368.562,1903.009l-61.246,2.985v-.457l61.246-3.553Z" transform="translate(-193.428 -1805.656)" fill="#d9a171"/>
      <path id="Trazado_103970" data-name="Trazado 103970" d="M306.985,1895.445l61.234.049V1896H306.985Z" transform="translate(-193.506 -1807.184)" fill="#d9a171"/>
      <rect id="Rectángulo_5693" data-name="Rectángulo 5693" width="61.629" height="15.321" transform="translate(117.748 42.422)" fill="#d9a171"/>
      <rect id="Rectángulo_5694" data-name="Rectángulo 5694" width="61.629" height="15.321" transform="translate(117.945 42.496)" fill="#fff" opacity="0.6" style="isolation: isolate"/>
      <rect id="Rectángulo_5695" data-name="Rectángulo 5695" width="47.295" height="15.321" transform="translate(117.76 42.496)" fill="#fff" opacity="0.6" style="isolation: isolate"/>
      <path id="Trazado_103971" data-name="Trazado 103971" d="M310.69,1869.209l61.333,1.9-.074-1.554-61.283-.79Z" transform="translate(-192.646 -1813.416)" fill="#d9a171"/>
      <path id="Trazado_103972" data-name="Trazado 103972" d="M372,1864.039l-61.234-3.454v.518L372,1865.2Z" transform="translate(-192.623 -1815.326)" fill="#d9a171"/>
      <path id="Trazado_103973" data-name="Trazado 103973" d="M372,1859.625l-61.234,1.407v.505L372,1860.8Z" transform="translate(-192.623 -1815.55)" fill="#d9a171"/>
      <path id="Trazado_103974" data-name="Trazado 103974" d="M372.142,1866.019l-61.246,2.972v-.444l61.246-3.553Z" transform="translate(-192.592 -1814.296)" fill="#d9a171"/>
      <rect id="Rectángulo_5696" data-name="Rectángulo 5696" width="61.629" height="15.321" transform="translate(116.983 72.52)" fill="#d9a171"/>
      <rect id="Rectángulo_5697" data-name="Rectángulo 5697" width="61.629" height="15.321" transform="translate(117.18 72.582)" fill="#fff" opacity="0.6" style="isolation: isolate"/>
      <rect id="Rectángulo_5698" data-name="Rectángulo 5698" width="47.295" height="15.321" transform="translate(117.119 72.595)" fill="#fff" opacity="0.6" style="isolation: isolate"/>
      <path id="Trazado_103975" data-name="Trazado 103975" d="M371.182,1893.165l-61.283.8-.074,1.554,61.32-1.912Z" transform="translate(-192.842 -1807.717)" fill="#d9a171"/>
      <path id="Trazado_103976" data-name="Trazado 103976" d="M310.145,1882.845l61.234.049v.506H310.145Z" transform="translate(-192.767 -1810.127)" fill="#d9a171"/>
      <path id="Trazado_103977" data-name="Trazado 103977" d="M309.825,1889.6l61.234-4.095v-.506l-61.234,3.441Z" transform="translate(-192.842 -1809.625)" fill="#d9a171"/>
      <path id="Trazado_103978" data-name="Trazado 103978" d="M371.379,1884.035l-61.234,1.394v.506l61.234-.74Z" transform="translate(-192.767 -1809.849)" fill="#d9a171"/>
      <path id="Trazado_103979" data-name="Trazado 103979" d="M371.522,1890.418l-61.246,2.985v-.456l61.246-3.553Z" transform="translate(-192.737 -1808.597)" fill="#d9a171"/>
      <path id="Trazado_103980" data-name="Trazado 103980" d="M369.736,1870.975l-61.6.309-.086,15.012h61.69Z" transform="translate(-193.258 -1812.899)" fill="#d9a171"/>
      <rect id="Rectángulo_5699" data-name="Rectángulo 5699" width="61.629" height="15.321" transform="translate(114.849 58.075)" fill="#fff" opacity="0.6" style="isolation: isolate"/>
      <rect id="Rectángulo_5700" data-name="Rectángulo 5700" width="47.295" height="15.321" transform="translate(114.787 58.075)" fill="#fff" opacity="0.6" style="isolation: isolate"/>
      <path id="Trazado_103981" data-name="Trazado 103981" d="M357.186,1871.225H308.115v1.567h48.01Z" transform="translate(-193.242 -1812.841)" fill="#d9a171"/>
      <path id="Trazado_103982" data-name="Trazado 103982" d="M369.362,1876.315l-61.246.568v.456h61.246Z" transform="translate(-193.242 -1811.652)" fill="#d9a171"/>
      <path id="Trazado_103983" data-name="Trazado 103983" d="M308.115,1882.63l61.246-2.985v.444l-61.246,3.565Z" transform="translate(-193.242 -1810.874)" fill="#d9a171"/>
      <path id="Trazado_103984" data-name="Trazado 103984" d="M308.115,1877.395l61.246,1.222v.432l-61.246-.641Z" transform="translate(-193.242 -1811.4)" fill="#d9a171"/>
      <rect id="Rectángulo_5701" data-name="Rectángulo 5701" width="61.234" height="7.71" transform="translate(130.972 24.745)" fill="#d9a171"/>
      <rect id="Rectángulo_5702" data-name="Rectángulo 5702" width="61.234" height="7.71" transform="translate(130.972 24.745)" fill="#fff" opacity="0.6" style="isolation: isolate"/>
      <rect id="Rectángulo_5703" data-name="Rectángulo 5703" width="48.787" height="7.71" transform="translate(130.972 24.745)" fill="#fff" opacity="0.6" style="isolation: isolate"/>
      <path id="Trazado_103985" data-name="Trazado 103985" d="M382.429,1848.395l-61.234.3v.234h61.234Z" transform="translate(-190.187 -1818.173)" fill="#d9a171"/>
      <path id="Trazado_103986" data-name="Trazado 103986" d="M321.2,1846.349l61.234-1.554v.235l-61.234,1.85Z" transform="translate(-190.187 -1819.014)" fill="#d9a171"/>
      <path id="Trazado_103987" data-name="Trazado 103987" d="M321.035,1845.715l61.234.629v.234l-61.234-.345Z" transform="translate(-190.224 -1818.799)" fill="#d9a171"/>
      <rect id="Rectángulo_5704" data-name="Rectángulo 5704" width="61.234" height="3.713" transform="translate(122.411 21.352)" fill="#d9a171"/>
      <rect id="Rectángulo_5705" data-name="Rectángulo 5705" width="61.234" height="3.688" transform="translate(122.411 21.377)" fill="#fff" opacity="0.6" style="isolation: isolate"/>
      <rect id="Rectángulo_5706" data-name="Rectángulo 5706" width="48.8" height="3.923" transform="translate(122.411 21.155)" fill="#fff" opacity="0.6" style="isolation: isolate"/>
      <path id="Trazado_103988" data-name="Trazado 103988" d="M314.245,1843.789l61.234-1.554v.235l-61.234,1.85Z" transform="translate(-191.81 -1819.611)" fill="#d9a171"/>
      <path id="Trazado_103989" data-name="Trazado 103989" d="M314.245,1841.985l61.234.629v.234l-61.234-.333Z" transform="translate(-191.81 -1819.671)" fill="#d9a171"/>
      <rect id="Rectángulo_5707" data-name="Rectángulo 5707" width="61.234" height="3.713" transform="translate(128.11 17.553)" fill="#d9a171"/>
      <rect id="Rectángulo_5708" data-name="Rectángulo 5708" width="61.234" height="3.688" transform="translate(128.11 17.578)" fill="#fff" opacity="0.6" style="isolation: isolate"/>
      <rect id="Rectángulo_5709" data-name="Rectángulo 5709" width="48.787" height="3.923" transform="translate(128.11 17.356)" fill="#fff" opacity="0.6" style="isolation: isolate"/>
      <path id="Trazado_103990" data-name="Trazado 103990" d="M318.88,1839.485l61.246.74-.012.247-61.259-.457Z" transform="translate(-190.733 -1820.254)" fill="#d9a171"/>
      <path id="Trazado_103991" data-name="Trazado 103991" d="M318.875,1838.9l61.221.629v.234l-61.221-.333Z" transform="translate(-190.729 -1820.389)" fill="#d9a171"/>
      <rect id="Rectángulo_5710" data-name="Rectángulo 5710" width="61.234" height="9.93" transform="translate(126.839 32.467)" fill="#d9a171"/>
      <rect id="Rectángulo_5711" data-name="Rectángulo 5711" width="61.234" height="9.93" transform="translate(126.839 32.467)" fill="#fff" opacity="0.6" style="isolation: isolate"/>
      <rect id="Rectángulo_5712" data-name="Rectángulo 5712" width="47.245" height="9.93" transform="translate(126.839 32.467)" fill="#fff" opacity="0.6" style="isolation: isolate"/>
      <path id="Trazado_103992" data-name="Trazado 103992" d="M378.729,1852.832l-61.234-.346v-.271h61.234Z" transform="translate(-191.051 -1817.281)" fill="#d9a171"/>
      <path id="Trazado_103993" data-name="Trazado 103993" d="M317.835,1854l61.234,1.788v-.271l-61.234-2.121Z" transform="translate(-190.971 -1817.006)" fill="#d9a171"/>
      <path id="Trazado_103994" data-name="Trazado 103994" d="M378.411,1850.215H320.655l1.283,1.234h56.472Z" transform="translate(-190.313 -1817.748)" fill="#d9a171"/>
      <path id="Trazado_103995" data-name="Trazado 103995" d="M318.005,1857.214l61.234-.74v-.259l-61.234.382Z" transform="translate(-190.932 -1816.347)" fill="#d9a171"/>
    </g>
    <g id="freepik--speech-bubble--inject-11" transform="translate(273.702 1731.045)">
      <path id="Trazado_99401" data-name="Trazado 99401" d="M543,4144.408A40.573,40.573,0,0,1,478.235,4177l-19.923,5.068,8.278-18.512a40.586,40.586,0,1,1,76.359-19.145Z" transform="translate(-457.449 -4103.605)" fill="#fff"/>
      <path id="Trazado_99402" data-name="Trazado 99402" d="M543.3,4144.472a40.775,40.775,0,0,1-6.016,21.308,46.076,46.076,0,0,1-3.221,4.584,45.438,45.438,0,0,1-3.878,4.046c-.717.608-1.35,1.313-2.115,1.848l-2.248,1.69c-.742.558-1.58,1.008-2.359,1.508l-1.215.74c-.4.231-.839.426-1.216.633l-2.528,1.214-2.637.985a18.778,18.778,0,0,1-2.686.815c-.912.218-1.811.535-2.735.668a39.552,39.552,0,0,1-5.592.679,34.59,34.59,0,0,1-5.627,0,40.658,40.658,0,0,1-20.918-7.791l.364.074-19.849,5.178-1.07.279.45-1.022,8.229-18.523v.509a40.19,40.19,0,0,1-4.861-17.879,40.877,40.877,0,1,1,81.729-1.544Zm0,0a40.679,40.679,0,0,0-15.692-31.895,41.2,41.2,0,0,0-16.53-7.6,40.43,40.43,0,0,0-18.137.5,39.908,39.908,0,0,0-16.092,8.315,41.818,41.818,0,0,0-10.769,14.477,40.107,40.107,0,0,0,1.336,35.078l.134.256-.109.256-8.326,18.487-.62-.73,19.911-4.981h.2l.169.12a40.118,40.118,0,0,0,20.445,7.914,35.228,35.228,0,0,0,5.555.083,40.273,40.273,0,0,0,5.531-.593c.925-.136,1.811-.426,2.723-.633a18.416,18.416,0,0,0,2.674-.779l2.626-.935,2.516-1.216c.425-.206.851-.389,1.215-.608l1.216-.717c.789-.5,1.628-.923,2.37-1.472l2.248-1.665a24.993,24.993,0,0,0,2.115-1.823,46.171,46.171,0,0,0,3.89-4.011,44.281,44.281,0,0,0,3.233-4.559A40.676,40.676,0,0,0,543.3,4144.472Z" transform="translate(-457.75 -4103.668)" fill="#344154"/>
      <path id="Trazado_99403" data-name="Trazado 99403" d="M489.44,4158.167l-15.109-15.279,5.081-5.008,8.812,8.922,18.33-28.722,6,3.829Z" transform="translate(-448.865 -4095.945)" fill="#d9a171"/>
    </g>
    <path id="Trazado_123978" data-name="Trazado 123978" d="M492.2,4048.752a3.026,3.026,0,0,1,3.05,3v1.617a25.961,25.961,0,0,1,11,3.9,3.82,3.82,0,0,1,2.127,3.416,3.9,3.9,0,0,1-3.9,3.9h-.074a4.1,4.1,0,0,1-2.127-.646,26.249,26.249,0,0,0-7.294-3.124v13.639c10.794,2.7,15.412,7.026,15.412,14.586,0,7.816-6.077,12.994-15.12,13.845v4.3a3.026,3.026,0,0,1-3,3.051h-.049a3.087,3.087,0,0,1-3.122-3.051h0v-4.413a30.6,30.6,0,0,1-14.587-5.53,3.917,3.917,0,1,1,4.291-6.539,25.277,25.277,0,0,0,10.514,4.764v-13.99c-10.368-2.7-15.194-6.6-15.194-14.586,0-7.6,6.077-12.849,14.914-13.565V4051.8a3.087,3.087,0,0,1,3.122-3.052Zm-2.844,24.213v-12.57c-4.546.425-6.819,2.845-6.819,5.968S483.886,4071.189,489.357,4072.965Zm5.6,9.869v12.921c4.546-.5,7.039-2.771,7.039-6.174C502,4086.457,500.43,4084.535,494.96,4082.833Z" transform="translate(133.163 -2162.285)" fill="#ebebeb"/>
    <path id="Trazado_123979" data-name="Trazado 123979" d="M492.2,4048.752a3.026,3.026,0,0,1,3.05,3v1.617a25.961,25.961,0,0,1,11,3.9,3.82,3.82,0,0,1,2.127,3.416,3.9,3.9,0,0,1-3.9,3.9h-.074a4.1,4.1,0,0,1-2.127-.646,26.249,26.249,0,0,0-7.294-3.124v13.639c10.794,2.7,15.412,7.026,15.412,14.586,0,7.816-6.077,12.994-15.12,13.845v4.3a3.026,3.026,0,0,1-3,3.051h-.049a3.087,3.087,0,0,1-3.122-3.051h0v-4.413a30.6,30.6,0,0,1-14.587-5.53,3.917,3.917,0,1,1,4.291-6.539,25.277,25.277,0,0,0,10.514,4.764v-13.99c-10.368-2.7-15.194-6.6-15.194-14.586,0-7.6,6.077-12.849,14.914-13.565V4051.8a3.087,3.087,0,0,1,3.122-3.052Zm-2.844,24.213v-12.57c-4.546.425-6.819,2.845-6.819,5.968S483.886,4071.189,489.357,4072.965Zm5.6,9.869v12.921c4.546-.5,7.039-2.771,7.039-6.174C502,4086.457,500.43,4084.535,494.96,4082.833Z" transform="translate(-280.518 -2149.179)" fill="#ebebeb"/>
    <path id="Trazado_123980" data-name="Trazado 123980" d="M492.2,4048.752a3.026,3.026,0,0,1,3.05,3v1.617a25.961,25.961,0,0,1,11,3.9,3.82,3.82,0,0,1,2.127,3.416,3.9,3.9,0,0,1-3.9,3.9h-.074a4.1,4.1,0,0,1-2.127-.646,26.249,26.249,0,0,0-7.294-3.124v13.639c10.794,2.7,15.412,7.026,15.412,14.586,0,7.816-6.077,12.994-15.12,13.845v4.3a3.026,3.026,0,0,1-3,3.051h-.049a3.087,3.087,0,0,1-3.122-3.051h0v-4.413a30.6,30.6,0,0,1-14.587-5.53,3.917,3.917,0,1,1,4.291-6.539,25.277,25.277,0,0,0,10.514,4.764v-13.99c-10.368-2.7-15.194-6.6-15.194-14.586,0-7.6,6.077-12.849,14.914-13.565V4051.8a3.087,3.087,0,0,1,3.122-3.052Zm-2.844,24.213v-12.57c-4.546.425-6.819,2.845-6.819,5.968S483.886,4071.189,489.357,4072.965Zm5.6,9.869v12.921c4.546-.5,7.039-2.771,7.039-6.174C502,4086.457,500.43,4084.535,494.96,4082.833Z" transform="translate(-121.505 -2393.501)" fill="#ebebeb"/>
  </g>
</svg>
