<svg xmlns="http://www.w3.org/2000/svg" width="377.941" height="435.5" viewBox="0 0 377.941 435.5"><g transform="translate(-270.633 -6665.5)"><g transform="translate(508.411 6706.291)"><g transform="translate(8.222 100.685)"><g transform="translate(43.101 42.402)"><path d="M173.62,376.228a17.54,17.54,0,0,1,5.507,1.722A23.179,23.179,0,0,1,190.1,389.06a23.461,23.461,0,0,1,2.241,10.728,23.85,23.85,0,0,1-3.692,12.031,23.866,23.866,0,0,1-10.537,9.054,23.764,23.764,0,0,1-27.626-6.2,23.866,23.866,0,0,1-5.662-12.689,23.848,23.848,0,0,1,1.8-12.456,23.472,23.472,0,0,1,6.61-8.744,23.184,23.184,0,0,1,14.667-5.356,17.585,17.585,0,0,1,5.716.795c-.025.163-2.036-.407-5.7-.275a23.225,23.225,0,0,0-14.074,5.561,22.746,22.746,0,0,0-7.8,20.319,22.741,22.741,0,0,0,5.427,11.986,22.564,22.564,0,0,0,26.111,5.856,22.735,22.735,0,0,0,10.025-8.519,22.758,22.758,0,0,0,1.631-21.7,23.215,23.215,0,0,0-10.35-11.04C175.636,376.731,173.573,376.386,173.62,376.228Z" transform="translate(-144.628 -375.433)" fill="#263238"/></g><path d="M209.53,368.243a4.785,4.785,0,0,1-.05-.816c-.015-.61-.033-1.426-.058-2.484-.032-2.277-.077-5.559-.136-9.817l.167.207-21.214-4.63.38-.185c-1.691,3.6-3.568,7.595-5.579,11.873l-.1.213-.24.01a53.078,53.078,0,0,0-13.83,2.455l-.252.08-.19-.188-9.327-9.234.59.063q-8.651,5.51-18.313,11.663l.213-.62c1.371,3.825,2.88,8.038,4.426,12.356l.113.315-.228.247a52.756,52.756,0,0,0-8.046,11.463l-.16.31-.352,0-13.119.047.58-.465c-1.484,6.657-3.085,13.836-4.725,21.194l-.341-.7c3.693,1.749,7.748,3.67,11.855,5.618l.348.163.015.385a52.945,52.945,0,0,0,2.411,13.777l.118.373-.277.278-9.257,9.306.09-.811c3.682,5.806,7.628,12.028,11.628,18.337l-.783-.27,12.364-4.4.382-.135.3.275a52.607,52.607,0,0,0,11.416,8.043l.007,0,0,0c.162.265-.356-.59.363.593v.4l0,.413,0,.826,0,1.649.007,3.29q.007,3.283.013,6.54l-.521-.65q10.74,2.411,21.189,4.758l-.743.361,5.632-11.848.172-.36.4-.015a52.571,52.571,0,0,0,13.777-2.389l.375-.118.278.277q4.713,4.7,9.294,9.267l-.79-.086q9.4-5.942,18.352-11.6l-.252.724q-2.232-6.295-4.386-12.369l-.122-.343.247-.267a52.615,52.615,0,0,0,8.081-11.431l.163-.311h.348c4.5,0,8.859-.005,13.119-.007l-.541.435c1.688-7.45,3.282-14.483,4.8-21.179l.28.575-11.838-5.657-.263-.127-.01-.288a53.025,53.025,0,0,0-2.369-13.834l-.08-.257.188-.186c3.375-3.368,6.417-6.4,9.291-9.269l-.053.49-11.541-18.393.353.122L221.175,376.6l-.125.043-.1-.088a55.2,55.2,0,0,0-8.426-6.49l-2.256-1.359a5.365,5.365,0,0,1-.743-.46,6.934,6.934,0,0,1,.8.362c.518.266,1.3.67,2.316,1.269a51.466,51.466,0,0,1,8.6,6.364l-.218-.045,12.336-4.481.223-.081.13.2,11.7,18.292.17.266-.223.225c-2.854,2.886-5.874,5.94-9.229,9.331l.108-.441a53.75,53.75,0,0,1,2.491,14.06l-.275-.415,11.866,5.6.368.173-.088.4c-1.489,6.7-3.054,13.74-4.713,21.2l-.1.433h-.446c-4.258.018-8.619.035-13.117.052l.511-.312a53.773,53.773,0,0,1-8.228,11.713l.125-.607q2.169,6.07,4.416,12.359l.165.461-.415.265-18.328,11.638-.43.273-.361-.36-9.307-9.252.65.158a53.833,53.833,0,0,1-14.117,2.465l.566-.375q-2.781,5.87-5.621,11.854l-.227.478-.516-.117-21.19-4.746-.521-.117,0-.533q0-3.256-.013-6.54l-.007-3.29-.005-1.649,0-.827v-.62l0-.1v-.09c.72,1.181.2.326.358.59l0,0,0,0a53.849,53.849,0,0,1-11.706-8.251l.676.14c-4.246,1.509-8.461,3.009-12.368,4.4l-.5.177-.285-.448c-3.995-6.312-7.935-12.539-11.613-18.348l-.28-.441.37-.371,9.267-9.294-.157.65a54.072,54.072,0,0,1-2.447-14.115l.362.55L119.2,412.728l-.45-.215.11-.483c1.658-7.355,3.275-14.53,4.776-21.184l.1-.465.476,0,13.117-.007-.51.31A53.81,53.81,0,0,1,145.091,379l-.115.56c-1.529-4.325-3.024-8.543-4.378-12.373l-.142-.4.356-.223q9.666-6.095,18.367-11.578l.323-.205.268.268c3.255,3.26,6.384,6.394,9.276,9.287l-.441-.107a53.67,53.67,0,0,1,14.064-2.4l-.338.223,5.674-11.828.118-.247.263.062c8.618,1.984,15.741,3.627,21.159,4.874l.168.038,0,.17c-.038,4.221-.068,7.475-.09,9.731-.018,1.073-.035,1.9-.045,2.517A6.548,6.548,0,0,1,209.53,368.243Z" transform="translate(-118.755 -349.98)" fill="#263238"/></g></g><g transform="translate(262.411 6577.315)"><g transform="translate(8.222 100.685)"><g transform="translate(43.101 42.402)"><path d="M173.62,376.228a17.54,17.54,0,0,1,5.507,1.722A23.179,23.179,0,0,1,190.1,389.06a23.461,23.461,0,0,1,2.241,10.728,23.85,23.85,0,0,1-3.692,12.031,23.866,23.866,0,0,1-10.537,9.054,23.764,23.764,0,0,1-27.626-6.2,23.866,23.866,0,0,1-5.662-12.689,23.848,23.848,0,0,1,1.8-12.456,23.472,23.472,0,0,1,6.61-8.744,23.184,23.184,0,0,1,14.667-5.356,17.585,17.585,0,0,1,5.716.795c-.025.163-2.036-.407-5.7-.275a23.225,23.225,0,0,0-14.074,5.561,22.746,22.746,0,0,0-7.8,20.319,22.741,22.741,0,0,0,5.427,11.986,22.564,22.564,0,0,0,26.111,5.856,22.735,22.735,0,0,0,10.025-8.519,22.758,22.758,0,0,0,1.631-21.7,23.215,23.215,0,0,0-10.35-11.04C175.636,376.731,173.573,376.386,173.62,376.228Z" transform="translate(-144.628 -375.433)" fill="#263238"/></g><path d="M209.53,368.243a4.785,4.785,0,0,1-.05-.816c-.015-.61-.033-1.426-.058-2.484-.032-2.277-.077-5.559-.136-9.817l.167.207-21.214-4.63.38-.185c-1.691,3.6-3.568,7.595-5.579,11.873l-.1.213-.24.01a53.078,53.078,0,0,0-13.83,2.455l-.252.08-.19-.188-9.327-9.234.59.063q-8.651,5.51-18.313,11.663l.213-.62c1.371,3.825,2.88,8.038,4.426,12.356l.113.315-.228.247a52.756,52.756,0,0,0-8.046,11.463l-.16.31-.352,0-13.119.047.58-.465c-1.484,6.657-3.085,13.836-4.725,21.194l-.341-.7c3.693,1.749,7.748,3.67,11.855,5.618l.348.163.015.385a52.945,52.945,0,0,0,2.411,13.777l.118.373-.277.278-9.257,9.306.09-.811c3.682,5.806,7.628,12.028,11.628,18.337l-.783-.27,12.364-4.4.382-.135.3.275a52.607,52.607,0,0,0,11.416,8.043l.007,0,0,0c.162.265-.356-.59.363.593v.4l0,.413,0,.826,0,1.649.007,3.29q.007,3.283.013,6.54l-.521-.65q10.74,2.411,21.189,4.758l-.743.361,5.632-11.848.172-.36.4-.015a52.571,52.571,0,0,0,13.777-2.389l.375-.118.278.277q4.713,4.7,9.294,9.267l-.79-.086q9.4-5.942,18.352-11.6l-.252.724q-2.232-6.295-4.386-12.369l-.122-.343.247-.267a52.615,52.615,0,0,0,8.081-11.431l.163-.311h.348c4.5,0,8.859-.005,13.119-.007l-.541.435c1.688-7.45,3.282-14.483,4.8-21.179l.28.575-11.838-5.657-.263-.127-.01-.288a53.025,53.025,0,0,0-2.369-13.834l-.08-.257.188-.186c3.375-3.368,6.417-6.4,9.291-9.269l-.053.49-11.541-18.393.353.122L221.175,376.6l-.125.043-.1-.088a55.2,55.2,0,0,0-8.426-6.49l-2.256-1.359a5.365,5.365,0,0,1-.743-.46,6.934,6.934,0,0,1,.8.362c.518.266,1.3.67,2.316,1.269a51.466,51.466,0,0,1,8.6,6.364l-.218-.045,12.336-4.481.223-.081.13.2,11.7,18.292.17.266-.223.225c-2.854,2.886-5.874,5.94-9.229,9.331l.108-.441a53.75,53.75,0,0,1,2.491,14.06l-.275-.415,11.866,5.6.368.173-.088.4c-1.489,6.7-3.054,13.74-4.713,21.2l-.1.433h-.446c-4.258.018-8.619.035-13.117.052l.511-.312a53.773,53.773,0,0,1-8.228,11.713l.125-.607q2.169,6.07,4.416,12.359l.165.461-.415.265-18.328,11.638-.43.273-.361-.36-9.307-9.252.65.158a53.833,53.833,0,0,1-14.117,2.465l.566-.375q-2.781,5.87-5.621,11.854l-.227.478-.516-.117-21.19-4.746-.521-.117,0-.533q0-3.256-.013-6.54l-.007-3.29-.005-1.649,0-.827v-.62l0-.1v-.09c.72,1.181.2.326.358.59l0,0,0,0a53.849,53.849,0,0,1-11.706-8.251l.676.14c-4.246,1.509-8.461,3.009-12.368,4.4l-.5.177-.285-.448c-3.995-6.312-7.935-12.539-11.613-18.348l-.28-.441.37-.371,9.267-9.294-.157.65a54.072,54.072,0,0,1-2.447-14.115l.362.55L119.2,412.728l-.45-.215.11-.483c1.658-7.355,3.275-14.53,4.776-21.184l.1-.465.476,0,13.117-.007-.51.31A53.81,53.81,0,0,1,145.091,379l-.115.56c-1.529-4.325-3.024-8.543-4.378-12.373l-.142-.4.356-.223q9.666-6.095,18.367-11.578l.323-.205.268.268c3.255,3.26,6.384,6.394,9.276,9.287l-.441-.107a53.67,53.67,0,0,1,14.064-2.4l-.338.223,5.674-11.828.118-.247.263.062c8.618,1.984,15.741,3.627,21.159,4.874l.168.038,0,.17c-.038,4.221-.068,7.475-.09,9.731-.018,1.073-.035,1.9-.045,2.517A6.548,6.548,0,0,1,209.53,368.243Z" transform="translate(-118.755 -349.98)" fill="#263238"/></g></g><g transform="translate(-687.182 1122.283)"><g transform="translate(1010.749 5543.217)"><path d="M226.715,2110.444H462.952l15.542-321.719H250.615Z" transform="translate(-219.457 -1772.18)" opacity="0.2" style="isolation:isolate"/><path d="M220.775,2110.444H462.07l15.554-321.719H251.933Z" transform="translate(-220.775 -1772.18)" fill="#344154"/><path d="M229.155,2102.507H450.094l14.87-304.931-208.683-.012Z" transform="translate(-218.916 -1770.219)" opacity="0.1" style="isolation:isolate"/><path d="M465.01,1797.565a2415.9,2415.9,0,0,1-26.417,300.129H279.323c-17.595-.526-50.378-1.283-50.378-1.283s25.109-210.089,27.382-298.846Z" transform="translate(-218.963 -1770.219)" fill="#fafafa"/><path d="M372.476,1816.955h0q-.7,19.721-1.711,39.43h39.442q1.026-19.721,1.711-39.43Zm34.469,36H374.382q.832-16.3,1.417-32.563h32.563Q407.765,1836.664,406.945,1852.951Z" transform="translate(-187.497 -1765.917)" fill="#344154"/><path d="M367.086,1869.185h0q-.684,19.721-1.711,39.442H404.8q1.026-19.734,1.723-39.442Zm34.469,36.009H368.992q.806-16.289,1.417-32.575h32.563q-.61,16.3-1.417,32.575Z" transform="translate(-188.693 -1754.328)" fill="#344154"/><path d="M362.426,1919.675h0q-.684,19.708-1.711,39.429h39.454q1.015-19.72,1.711-39.429Zm34.469,36H364.332q.806-16.3,1.417-32.563h32.563q-.6,16.262-1.417,32.563Z" transform="translate(-189.727 -1743.126)" fill="#344154"/><path d="M355.276,1973.445h0q-.684,19.722-1.711,39.442h39.442q1.015-19.734,1.711-39.442Zm34.469,36.009H357.182q.806-16.288,1.417-32.575h32.563Q390.552,1993.154,389.745,2009.453Z" transform="translate(-191.313 -1731.196)" fill="#344154"/><path d="M264.028,1835.925h111.52q-.134,3.666-.281,7.331H263.735Z" transform="translate(-211.244 -1761.708)" fill="#e6e6e6"/><path d="M284.8,1826.335h87.254c-.1,2.444-.22,4.887-.33,7.331H284.445C284.567,1831.222,284.677,1828.779,284.8,1826.335Z" transform="translate(-206.649 -1763.836)" fill="#e6e6e6"/><path d="M255.658,1889.885H367.166q-.128,3.666-.281,7.331H255.365C255.463,1894.8,255.573,1892.329,255.658,1889.885Z" transform="translate(-213.101 -1749.736)" fill="#e6e6e6"/><path d="M276.427,1880.265h87.266c-.11,2.444-.232,4.887-.342,7.331H276.085C276.195,1885.165,276.28,1882.709,276.427,1880.265Z" transform="translate(-208.504 -1751.87)" fill="#e6e6e6"/><path d="M249.3,1990.555H360.808c-.1,2.444-.183,4.888-.293,7.332H248.995Q249.167,1994.244,249.3,1990.555Z" transform="translate(-214.514 -1727.4)" fill="#e6e6e6"/><path d="M270.069,1980.935h87.254c-.1,2.443-.22,4.887-.33,7.331H269.715C269.837,1985.835,269.947,1983.391,270.069,1980.935Z" transform="translate(-209.917 -1729.535)" fill="#e6e6e6"/><path d="M255.21,1937.6H366.718c-.1,2.444-.183,4.888-.293,7.331H254.905Q255.077,1941.295,255.21,1937.6Z" transform="translate(-213.203 -1739.148)" fill="#e6e6e6"/><path d="M275.967,1927.985h87.266c-.1,2.444-.22,4.888-.342,7.331H275.625C275.735,1932.885,275.857,1930.441,275.967,1927.985Z" transform="translate(-208.606 -1741.282)" fill="#e6e6e6"/><path d="M290.585,1808.261H407.469l-1.026-3.666c-2.639-9.188-3.861-15.273-12.414-15.273,0,0-28.665-1.625-29.459-4.106a14.551,14.551,0,0,0-13.966-10.031,16.422,16.422,0,0,0-14.931,10.031c-1.026,2.444-32.245,4.106-32.245,4.106-8.614,0-8,6.109-11.473,15.273Z" transform="translate(-205.287 -1775.184)" fill="#e0e0e0"/></g><path d="M375.952,1839.388a4.8,4.8,0,0,0,1.222,3.556,4.609,4.609,0,0,0,3.433.782c4.887-.4,9.25-3.189,13.172-6.109a110.427,110.427,0,0,0,20.161-19.721q-11.155,7.526-22.873,14.2a34.912,34.912,0,0,1-7.576,3.482c-1.075.305-2.541.33-2.969-.7-.525-1.222,1.051-3.067,0-3.9s-3.275,1.051-3.776,1.894C375.769,1834.464,375.891,1837.568,375.952,1839.388Z" transform="translate(824.394 3777.509)" fill="#6595bf"/><path d="M368.8,1891.238a4.8,4.8,0,0,0,1.222,3.555,4.607,4.607,0,0,0,3.433.782c4.887-.415,9.25-3.189,13.172-6.109a110.865,110.865,0,0,0,20.161-19.721q-11.167,7.525-22.873,14.186a34.315,34.315,0,0,1-7.576,3.495c-1.075.305-2.541.33-2.969-.709-.525-1.222,1.051-3.055,0-3.886s-3.275,1.051-3.776,1.882C368.619,1886.252,368.741,1889.344,368.8,1891.238Z" transform="translate(822.807 3789.013)" fill="#6595bf"/><path d="M365.482,1942.975a4.895,4.895,0,0,0,1.222,3.568,4.58,4.58,0,0,0,3.421.782c4.887-.415,9.25-3.189,13.172-6.11a110.857,110.857,0,0,0,20.161-19.721q-11.144,7.538-22.873,14.186a34.467,34.467,0,0,1-7.563,3.495c-1.075.305-2.554.33-2.981-.708-.525-1.222,1.051-3.067,0-3.886s-3.275,1.039-3.776,1.882C365.3,1938.051,365.421,1941.155,365.482,1942.975Z" transform="translate(822.071 3800.493)" fill="#6595bf"/><path d="M365.482,1942.975a4.895,4.895,0,0,0,1.222,3.568,4.58,4.58,0,0,0,3.421.782c4.887-.415,9.25-3.189,13.172-6.11a110.857,110.857,0,0,0,20.161-19.721q-11.144,7.538-22.873,14.186a34.467,34.467,0,0,1-7.563,3.495c-1.075.305-2.554.33-2.981-.708-.525-1.222,1.051-3.067,0-3.886s-3.275,1.039-3.776,1.882C365.3,1938.051,365.421,1941.155,365.482,1942.975Z" transform="translate(815.856 3863.847)" fill="#6595bf"/><g transform="translate(1003.682 5602.734)"><path d="M264.742,1959.921s-9.628,12.219-8.076,33.1,42.985,9.054,42.985,9.054,18.01-26.136,29.191-29.019l-9.934-10.313C311.98,1963.159,306.836,1955.693,264.742,1959.921Z" transform="translate(-205.783 -1794.003)" fill="#d9a171"/><g transform="translate(0 28.963)"><path d="M295.415,1896.791c2.774,6.549,5.669,12.879,8.761,19.245s6.244,12.646,9.775,18.963l1.417,2.444a13.464,13.464,0,0,0,3.495,3.959,17.343,17.343,0,0,0,7.673,3.189,37.694,37.694,0,0,0,12.451-.232,86.518,86.518,0,0,0,21.163-6.672l-2.444-7.331-5,.794c-1.686.256-3.372.4-5.034.648a94.707,94.707,0,0,1-9.836.708,29.662,29.662,0,0,1-8.492-.855,3.944,3.944,0,0,1-1.845-.953c0-.086.11,0,.11,0l-1.026-2.163c-2.81-6.183-5.621-12.622-8.406-18.939s-5.657-12.756-8.553-19.061Z" transform="translate(-197.148 -1838.072)" fill="#ffb573"/><path d="M357.97,1930.819a6.733,6.733,0,0,0,2.444-1.088c2.627-2.443,1.075-6.573-1.393-9.188h0c-.1-.11-2.859-2.652-2.969-2.762-2.651-2.443-4.118.184-6.549,2.835l-4.888,5.291,2.994,6.341a38.956,38.956,0,0,0,8.15-.892C356.382,1931.234,357.151,1931.051,357.97,1930.819Z" transform="translate(-186.232 -1832.242)" fill="#ffb573"/><path d="M315.931,1894.8c5.645,8.712,4.668,20.246,4.668,20.246l-13.587,2.945s-15.127-15.787-12.365-23.473C297.713,1886.036,309.956,1885.56,315.931,1894.8Z" transform="translate(-197.393 -1838.632)" fill="#6595bf"/><path d="M306.975,1917.5l8.639-1.87a79.138,79.138,0,0,0-8.2-17.008c-5.12-7.588-8.785-9.775-12.854-7.625C293.277,1901.53,306.975,1917.5,306.975,1917.5Z" transform="translate(-197.356 -1838.143)" opacity="0.2" style="isolation:isolate"/><path d="M276.207,1887.2c-1.393.135-15.42,3.543-11.889,16.813,14.662,52.027,5.266,47.653-1.063,72.09l54.166,2.823s-3.666-37.353-1.3-43.988c4.057-11.156,3.6-19.293-.525-30.486-4.558-12.353-6.317-15.7-6.317-15.7C304.127,1887.617,286.788,1883.23,276.207,1887.2Z" transform="translate(-204.283 -1839.174)" fill="#6595bf"/><path d="M277.537,1926.148c-.758-6.573-11.693-31.487-9.531-34.53,1.686-.892,9.335.11,13.6,4.888C291.32,1919.257,277.537,1926.148,277.537,1926.148Z" transform="translate(-203.292 -1837.897)" opacity="0.2" style="isolation:isolate"/><path d="M260.686,2095.372l-27.822,20.894c-1.136-.538-9.359-9.567-9.359-9.567l24.12-20.454Z" transform="translate(-213.103 -1794.65)" fill="#e29471"/><path d="M232.655,2113.049a.38.38,0,0,1,0-.391.365.365,0,0,1,.391-.11c.232.074,5.8,1.93,6.928,4.191a1.733,1.733,0,0,1,.147,1.369,1.309,1.309,0,0,1-1.112,1.026c-1,.146-2.444-1.026-3.666-2.444A25.015,25.015,0,0,1,232.655,2113.049Zm6.4,3.47a15.381,15.381,0,0,0-5.205-3.006c1.515,2.261,4.008,5.01,5.169,4.887.159,0,.367-.1.525-.573a1.057,1.057,0,0,0-.086-.819,3.378,3.378,0,0,0-.391-.55Z" transform="translate(-211.085 -1788.817)" fill="#d9a171"/><path d="M232.645,2113.2a.368.368,0,0,1,.2-.293c.147-.084,3.324-2.444,5.718-2.064a2.586,2.586,0,0,1,1.662,1.112,1.22,1.22,0,0,1,.122,1.625c-1.039,1.308-5.718.818-7.49,0l-.122-.086Zm5.767-1.624a8.052,8.052,0,0,0-4.643,1.564c2.028.611,5.535.769,6.109,0,0-.074.208-.258-.147-.758l-.183-.122A1.757,1.757,0,0,0,238.412,2111.576Z" transform="translate(-211.075 -1789.202)" fill="#d9a171"/><path d="M237.075,2112.191l-2.444-1.149a10.347,10.347,0,0,1-5.511-6.525l-.953-3.348a1.221,1.221,0,0,0-1.564-.306l-10.875,5.193c-1.051.587-.7,3.214-.611,3.311,4.778,7.259,16.153,21.994,20.112,26.7s9.115,1.417,7.918-.867c-5.352-10.216-5.474-15.665-5.3-20.491A3.659,3.659,0,0,0,237.075,2112.191Z" transform="translate(-214.992 -1791.442)" fill="#344154"/><path d="M262.016,1990.318a32.413,32.413,0,0,0-.171,7.685c1.051,13.539,9.628,58.027,11.95,75.207a10.177,10.177,0,0,1-3.91,9.09c-7.844,6.757-21.725,15.884-37.45,38.233.2,9.774,1.149,11,10.019,14.528,0,0,44.586-33.638,51.514-43.5,10.2-14.541,10.435-76.135,11-92.19.33-9.116.611-19.978-6.28-25.843C294.848,1970.23,264.607,1965.343,262.016,1990.318Z" transform="translate(-211.121 -1820.262)" fill="#d9a171"/><path d="M397.892,2068.919l12.439,32.575c-.831.916-10.545,9.212-11.864,6.109-4.057-9.373-22.091-40.029-22.091-40.029Z" transform="translate(-179.185 -1798.792)" fill="#e29471"/><path d="M405.678,2095.457a.4.4,0,0,1-.4,0,.44.44,0,0,1-.1-.4c.1-.232,2.114-5.743,4.411-6.794a1.72,1.72,0,0,1,1.369-.1,1.281,1.281,0,0,1,.99,1.137c.122,1-1.1,2.37-2.554,3.568A24.032,24.032,0,0,1,405.678,2095.457Zm3.666-6.28a15.27,15.27,0,0,0-3.116,5.108c2.3-1.454,5.132-3.862,5.046-5.022,0-.147-.1-.367-.562-.538a1.057,1.057,0,0,0-.819.061,3.516,3.516,0,0,0-.574.379Z" transform="translate(-172.798 -1794.246)" fill="#d9a171"/><path d="M405.8,2095.561a.353.353,0,0,1-.293-.208c-.086-.147-2.322-3.4-1.882-5.779a2.575,2.575,0,0,1,1.161-1.625,1.221,1.221,0,0,1,1.625-.074c1.222,1.076.635,5.743-.208,7.491l-.085.122Zm-1.405-5.841a7.987,7.987,0,0,0,1.417,4.68c.672-1.991.941-5.5.147-6.109-.073,0-.257-.208-.77.122l-.122.184A1.72,1.72,0,0,0,404.4,2089.72Z" transform="translate(-173.152 -1794.349)" fill="#d9a171"/><path d="M406.571,2093.385l-13.135,5.267a1.221,1.221,0,0,0-.745,1.405l1.784,11.913c.257,1.222,2.871,1.6,2.994,1.552,8.345-2.444,25.757-9.03,31.414-11.424s4.008-8.309,1.479-7.833c-11.339,2.126-16.581.66-21.151-.916A3.517,3.517,0,0,0,406.571,2093.385Z" transform="translate(-175.572 -1793.127)" fill="#344154"/><path d="M346.743,2037.772c3.177,2.212,6.183,4.338,8.908,6.33,24.608,18.035,38.623,50.634,48.606,68.425,9.078,4.435,21.7-4.375,25.537-7.087,0,0-26.881-57.025-35.886-69.427-21.823-29.887-43.511-49.486-76.978-68.241a28.1,28.1,0,0,0-28.457.525A49.284,49.284,0,0,0,279,1975.42c-1.222,1.319-3.446,8.883,6.842,19.171,9.225,9.237,39.234,28.2,60.849,43.218" transform="translate(-201.03 -1821.737)" fill="#d9a171"/><path d="M291.962,1997.227c-2.15-3.824.99-16.752.99-16.752s41.959,40.59,43.987,48.875l-36.045-24.437Z" transform="translate(-198.081 -1818.117)" opacity="0.1" style="isolation:isolate"/><path d="M361.682,2059.04a.641.641,0,0,1-.513-.269c-1.222-1.93-2.517-3.8-3.763-5.56a.614.614,0,0,1,1-.708c1.222,1.784,2.529,3.666,3.788,5.6a.6.6,0,0,1-.164.83l-.02.013A.529.529,0,0,1,361.682,2059.04Z" transform="translate(-183.419 -1802.194)" fill="#d9a171"/><path d="M359.812,2053.753a.614.614,0,0,1-.489-.232,99.038,99.038,0,0,0-19.55-19.55c-2.554-1.87-5.462-3.935-8.9-6.317a.611.611,0,0,1,.7-1c3.446,2.444,6.354,4.46,8.92,6.342a100.085,100.085,0,0,1,19.77,19.72.6.6,0,0,1-.477.99Z" transform="translate(-189.332 -1807.892)" fill="#d9a171"/><path d="M290.026,2067.969h-.183a.625.625,0,0,1-.4-.77c.354-1.087.684-2.3,1.014-3.58a.612.612,0,0,1,.744-.441h0a.6.6,0,0,1,.444.721l0,.012c-.33,1.307-.672,2.541-1.026,3.665A.626.626,0,0,1,290.026,2067.969Z" transform="translate(-198.479 -1799.772)" fill="#d9a171"/><path d="M271.646,2091.741a.612.612,0,0,1-.391-1.088c10.361-8.613,16.727-14.589,18.951-17.741a16.854,16.854,0,0,0,1.222-1.968.622.622,0,0,1,.831-.256.609.609,0,0,1,.257.818,17.63,17.63,0,0,1-1.222,2.114c-2.273,3.238-8.724,9.286-19.159,17.973A.625.625,0,0,1,271.646,2091.741Z" transform="translate(-202.558 -1798.117)" fill="#d9a171"/><path d="M286.461,1883.008c.953,3.922,4.521,6.611,7.954,8.724,2.676,1.638,5.621,3.2,8.749,3.092a9.154,9.154,0,0,0,8.359-9.883c-.013-.151-.029-.3-.05-.454a5.759,5.759,0,0,0,8.492,1.1c2.322-2.248,2.26-5.963,1.674-9.14a46.274,46.274,0,0,0-14.919-26.112c-1.784,2.334-5.327,1.895-6.94,1.467a7.222,7.222,0,0,1-1.65-.611h0a7.464,7.464,0,0,0-4.68.623h0c-2.26,2.945-3.079,6.781-3.824,10.459q-1.367,6.745-2.737,13.5A17.314,17.314,0,0,0,286.461,1883.008Z" transform="translate(-199.179 -1846.991)" fill="#344154"/><path d="M285.16,1871.195c.244,6.5,0,15.884-5.034,19.477,0,0-.77,6.5,16.043,16.251,7.881-8.248,3.666-13.172,3.666-13.172-6.818-2.786-6.109-5.633-4.191-10.361Z" transform="translate(-200.541 -1842.363)" fill="#ffb573"/><path d="M288.073,1875.215l6.109,7.331a19.877,19.877,0,0,0-1.149,3.4c-2.651-.807-6.537-3.763-6.659-6.782A8.553,8.553,0,0,1,288.073,1875.215Z" transform="translate(-199.154 -1841.471)" opacity="0.2" style="isolation:isolate"/><path d="M278.908,1864.3c1.222,10.8,1.515,15.4,7.331,20.662,8.675,7.942,21.676,4.056,23.7-6.892,1.808-9.861-.513-25.928-11.351-29.618a14.822,14.822,0,0,0-19.635,15.884Z" transform="translate(-200.827 -1847.599)" fill="#ffb573"/><path d="M297.675,1872.508c0,.9.44,1.637,1.026,1.661s1.075-.721,1.1-1.613-.44-1.649-1.026-1.662S297.675,1871.6,297.675,1872.508Z" transform="translate(-196.646 -1842.43)" fill="#344154"/><path d="M293.145,1863.147c0,.88.562,1.576,1.136,1.552s1-.782.965-1.662-.562-1.576-1.124-1.552S293.157,1862.3,293.145,1863.147Z" transform="translate(-197.651 -1844.518)" fill="#344154"/><path d="M301.306,1862.735c0,.892.562,1.576,1.124,1.552s1.014-.782.978-1.662-.562-1.576-1.136-1.539S301.233,1861.855,301.306,1862.735Z" transform="translate(-195.842 -1844.607)" fill="#344154"/><path d="M301.895,1861.266l2.077-.721S302.982,1862.268,301.895,1861.266Z" transform="translate(-195.71 -1844.726)" fill="#344154"/><path d="M298.855,1863.875a24.418,24.418,0,0,0,3.458,5.474,3.876,3.876,0,0,1-3.128.745Z" transform="translate(-196.385 -1843.988)" fill="#ed893e"/><path d="M290.537,1859.886a.538.538,0,0,0,.611,0,6.1,6.1,0,0,1,4.814-.965.525.525,0,0,0,.623-.391.514.514,0,0,0-.374-.622h0a7.01,7.01,0,0,0-5.755,1.221.515.515,0,0,0,0,.721h0Z" transform="translate(-198.282 -1845.35)" fill="#344154"/><path d="M304.4,1858.917a.539.539,0,0,0,.489-.22.513.513,0,0,0-.105-.718l0,0a5.044,5.044,0,0,0-4.716-.855.475.475,0,0,0-.314.6l.009.028h0a.5.5,0,0,0,.638.309l.01,0h0a4.136,4.136,0,0,1,3.666.733A.673.673,0,0,0,304.4,1858.917Z" transform="translate(-196.19 -1845.541)" fill="#344154"/><path d="M293.725,1861.748l2.089-.733S294.825,1862.628,293.725,1861.748Z" transform="translate(-197.523 -1844.622)" fill="#344154"/></g><path d="M315.107,1854.218c-.1.135-4.228,1.967-9.36-1.039-.525-.305-1.136-.354-1.637-.623h0a7.483,7.483,0,0,0-4.692.623h0c-.366.208-4.753,1.991-5.3,9.775-.892,12.512-6.549,9.408-7.331,9.14-1.906-.7-2.92-2.2-4.888-1.943a3.168,3.168,0,0,1-1.075,0c1.222,3.592,2.529,7.014,4.093,7.783,11.4,5.511,8.028,15.273,5.01,16.826-2.163,1.124-11.241,2.016-17.937-5.4-2.053,1.87-5.388,1.43-7.893.135h0a8.92,8.92,0,0,1-4.166-11,20.873,20.873,0,0,1,7.588-9.983c2.444-1.674,5.266-2.9,7.026-5.266a9.489,9.489,0,0,0,1.222-2.26c.477-1.222,1.051-2.5,1.613-3.739a2.975,2.975,0,0,0,.171-.587,17.326,17.326,0,0,1,4.57-7.245c3.128-3.055,9.922-5.426,15.53-5.56C304.1,1843.637,312.566,1848.255,315.107,1854.218Z" transform="translate(-205.147 -1819.468)" fill="#344154"/><path d="M273.655,1859.625c.085-.892.122-1.662.134-1.979A15.738,15.738,0,0,0,273.655,1859.625Z" transform="translate(-201.976 -1816.407)" fill="#344154"/><path d="M276.911,1869.145a7.825,7.825,0,0,0,4.179,4.228c2.541,1.027,4.13-1.222,3.666-3.739-.415-2.309-2.212-5.633-4.887-5.609a3.507,3.507,0,0,0-3.374,3.635v.031A3.345,3.345,0,0,0,276.911,1869.145Z" transform="translate(-201.346 -1814.991)" fill="#ffb573"/><path d="M305.319,1892.972c3.116-.562,6.232-1.857,7.93-4.509,4.887-7.625-3.262-27.345-13.135-37.548l-.4.513c9.775,10.044,17.827,29.325,13.062,36.791-3.287,5.12-12.536,4.888-15.518,4.325l-.11.6A25.653,25.653,0,0,0,305.319,1892.972Z" transform="translate(-196.764 -1817.9)" fill="#344154"/><path d="M274.013,1863.947l.6-.11c-.745-4.044.66-8.48,3.934-12.5,3.543-4.338,8.688-7.331,12.793-7.331,4.716-.085,11.486,1.613,15.224,5.548l.44-.416c-3.861-4.081-10.826-5.828-15.677-5.742-4.277.073-9.6,3.128-13.245,7.587C274.672,1855.1,273.231,1859.72,274.013,1863.947Z" transform="translate(-201.942 -1819.569)" fill="#344154"/><path d="M259.505,1877.109a76.713,76.713,0,0,0,9.775,7.026,21.605,21.605,0,0,0,10.557,3.666,12.479,12.479,0,0,0,2.627-.2,10.316,10.316,0,0,0,7.172-4.642,7.951,7.951,0,0,0,.721-6.11,6.339,6.339,0,0,0-3.091-4.008l-.269.525a5.821,5.821,0,0,1,2.8,3.666,7.326,7.326,0,0,1-.672,5.645,10.352,10.352,0,0,1-9.164,4.569,21.076,21.076,0,0,1-10.264-3.567,76.685,76.685,0,0,1-10.007-7.173Z" transform="translate(-205.115 -1813.035)" fill="#344154"/><path d="M265.645,1894.744c1.075,8.076,10.019,42.667,11.84,46.615.257.537.513,1.087.819,1.637s.6,1.112.978,1.7l.562.9c.269.378.538.782.819,1.112a20.941,20.941,0,0,0,1.711,1.881,24.859,24.859,0,0,0,6.94,4.472,53.665,53.665,0,0,0,12.879,3.727,108.253,108.253,0,0,0,24.657,1.222l.428-8.553-5.584-1.222c-1.869-.415-3.727-.892-5.572-1.32-3.666-.916-7.331-1.882-10.777-3.042-3.275-.99-8.492-2.444-11.486-4.057a10.621,10.621,0,0,1-2.737-2.2,2.159,2.159,0,0,1-.22-.342.331.331,0,0,1,0-.1l-.183-.354c-.147-.293-.281-.6-.4-.9s-9.152-37.01-10.386-44.476Z" transform="translate(-203.753 -1808.908)" fill="#ffb573"/><path d="M314.865,1940.946a35.646,35.646,0,0,1,5.938-5.889,7.181,7.181,0,0,1,3.446-1.539c3.959-.611,8.138-1.222,8.284,6.048h0c0,.183.929,3.262.941,3.433.342,4-3.495,4.606-7.49,4.948l-10.667.733Z" transform="translate(-192.833 -1799.649)" fill="#ffb573"/><path d="M286.893,1895.554c3.763,12.28-.77,12.133-.318,19.623l-15.017,3.739s-8.248-6.94-9.494-15.726a14,14,0,0,1,16.446-15.493A10.518,10.518,0,0,1,286.893,1895.554Z" transform="translate(-204.571 -1809.791)" fill="#6595bf"/><rect width="4.704" height="1.356" transform="matrix(0.975, -0.221, 0.221, 0.975, 75.207, 103.211)" fill="#d9a171"/><rect width="5.083" height="1.356" transform="translate(67.808 105.582) rotate(-18.49)" fill="#d9a171"/><rect width="4.228" height="1.222" transform="translate(119.984 104.416) rotate(-12.46)" fill="#d9a171"/><path d="M366.909,1925.431a10.5,10.5,0,0,0-.305,13.355l.305.391v2.126H298.655v-18.328h68.254Z" transform="translate(-196.429 -1801.912)" fill="#d9a171"/><path d="M359.949,1925.431a10.5,10.5,0,0,0-.305,13.355l.305.391v2.126H330.025v-18.328h29.924Z" transform="translate(-189.469 -1801.912)" opacity="0.1" style="isolation:isolate"/><path d="M359.031,1938.34l.305.391H332.675v-13.746h26.686a10.5,10.5,0,0,0-.305,13.355Z" transform="translate(-188.881 -1801.466)" fill="#344154"/><path d="M359.031,1938.34l.305.391H332.675v-13.746h26.686a10.5,10.5,0,0,0-.305,13.355Z" transform="translate(-188.881 -1801.466)" fill="#fff" opacity="0.9" style="isolation:isolate"/><path d="M329.386,1931.531a3.666,3.666,0,1,1-3.666-3.666h0A3.665,3.665,0,0,1,329.386,1931.531Z" transform="translate(-191.237 -1800.827)" fill="#fff"/><path d="M328.418,1931.387a2.871,2.871,0,1,1-2.871-2.872,2.872,2.872,0,0,1,2.871,2.872Z" transform="translate(-191.1 -1800.683)" fill="#344154"/><rect width="15.921" height="10.154" transform="translate(104.071 125.107)" fill="#fff"/><rect width="6.855" height="10.154" transform="translate(120.738 125.107)" fill="#fff"/><path d="M332.675,1936.6v-1.222a3.665,3.665,0,1,0,0-7.258V1926.9a4.887,4.887,0,1,1,0,9.7Z" transform="translate(-188.881 -1801.049)" fill="#344154"/><rect width="24.45" height="0.611" transform="translate(143.794 127.526)" fill="#fff"/><rect width="24.45" height="0.611" transform="translate(143.794 128.247)" fill="#fff"/><rect width="24.45" height="0.611" transform="translate(143.794 128.956)" fill="#fff"/><rect width="24.45" height="0.611" transform="translate(143.794 129.677)" fill="#fff"/><rect width="24.45" height="0.611" transform="translate(143.794 130.398)" fill="#fff"/><rect width="24.45" height="0.611" transform="translate(143.794 131.119)" fill="#fff"/><rect width="24.45" height="0.611" transform="translate(143.794 131.84)" fill="#fff"/><rect width="24.45" height="0.611" transform="translate(143.794 132.56)" fill="#fff"/><rect width="24.45" height="0.611" transform="translate(143.794 133.269)" fill="#fff"/><path d="M373,1910.172a10.5,10.5,0,0,0-.305,13.355l.305.392v2.126H304.745v-18.389H373Z" transform="translate(-195.078 -1805.311)" fill="#6595bf"/><path d="M366.039,1910.172a10.5,10.5,0,0,0-.306,13.355l.306.392v2.126H336.115v-18.389h29.924Z" transform="translate(-188.118 -1805.311)" opacity="0.1" style="isolation:isolate"/><path d="M365.145,1923.07l.305.391H338.765v-13.746h26.686A10.5,10.5,0,0,0,365.145,1923.07Z" transform="translate(-187.53 -1804.854)" fill="#344154"/><path d="M365.145,1923.07l.305.391H338.765v-13.746h26.686A10.5,10.5,0,0,0,365.145,1923.07Z" transform="translate(-187.53 -1804.854)" fill="#fff" opacity="0.9" style="isolation:isolate"/><path d="M335.476,1916.26a3.666,3.666,0,1,1-3.666-3.666A3.666,3.666,0,0,1,335.476,1916.26Z" transform="translate(-189.886 -1804.215)" fill="#fff"/><path d="M334.508,1916.116a2.871,2.871,0,1,1-2.871-2.872,2.872,2.872,0,0,1,2.871,2.872Z" transform="translate(-189.748 -1804.071)" fill="#344154"/><rect width="15.921" height="10.154" transform="translate(111.513 106.437)" fill="#fff"/><rect width="6.855" height="10.154" transform="translate(128.179 106.437)" fill="#fff"/><path d="M338.765,1921.327V1920.1a3.666,3.666,0,0,0,0-7.258v-1.222a4.888,4.888,0,0,1,0,9.7Z" transform="translate(-187.53 -1804.43)" fill="#344154"/><rect width="24.45" height="0.611" transform="translate(151.236 108.868)" fill="#fff"/><rect width="24.45" height="0.611" transform="translate(151.236 109.589)" fill="#fff"/><rect width="24.45" height="0.611" transform="translate(151.236 110.298)" fill="#fff"/><rect width="24.45" height="0.611" transform="translate(151.236 111.019)" fill="#fff"/><rect width="24.45" height="0.611" transform="translate(151.236 111.74)" fill="#fff"/><rect width="24.45" height="0.611" transform="translate(151.236 112.461)" fill="#fff"/><rect width="24.45" height="0.611" transform="translate(151.236 113.182)" fill="#fff"/><rect width="24.45" height="0.611" transform="translate(151.236 113.89)" fill="#fff"/><rect width="24.45" height="0.611" transform="translate(151.236 114.611)" fill="#fff"/><path d="M332.735,1841.148a149.07,149.07,0,0,0,42.154-.244,2.863,2.863,0,0,0,2.151-1.026c.635-1.051-.257-2.322-.99-3.3a16.156,16.156,0,0,1-2.871-12.683A67.358,67.358,0,0,1,335.619,1841Z" transform="translate(-188.868 -1823.895)" fill="#d9a171"/><path d="M332.735,1841.148a149.07,149.07,0,0,0,42.154-.244,2.863,2.863,0,0,0,2.151-1.026c.635-1.051-.257-2.322-.99-3.3a16.156,16.156,0,0,1-2.871-12.683A67.358,67.358,0,0,1,335.619,1841Z" transform="translate(-188.868 -1823.895)" fill="#fff" opacity="0.4" style="isolation:isolate"/><rect width="61.045" height="15.176" transform="translate(112.246 87.229)" fill="#d9a171"/><rect width="61.045" height="15.176" transform="translate(112.453 87.29)" fill="#fff" opacity="0.6" style="isolation:isolate"/><rect width="46.847" height="15.176" transform="translate(112.258 87.29)" fill="#fff" opacity="0.6" style="isolation:isolate"/><path d="M307.11,1906.195l60.751,1.894-.073-1.539-60.7-.794Z" transform="translate(-194.559 -1805.733)" fill="#d9a171"/><path d="M367.839,1900.994l-60.654-3.409v.513l60.654,4.057Z" transform="translate(-194.536 -1807.545)" fill="#d9a171"/><path d="M367.839,1896.625l-60.654,1.393v.489l60.654-.733Z" transform="translate(-194.536 -1807.759)" fill="#d9a171"/><path d="M367.981,1903l-60.666,2.957v-.452l60.666-3.519Z" transform="translate(-194.508 -1806.569)" fill="#d9a171"/><path d="M306.985,1895.445l60.654.049v.5H306.985Z" transform="translate(-194.581 -1808.021)" fill="#d9a171"/><rect width="61.045" height="15.176" transform="translate(116.632 42.02)" fill="#d9a171"/><rect width="61.045" height="15.176" transform="translate(116.828 42.093)" fill="#fff" opacity="0.6" style="isolation:isolate"/><rect width="46.847" height="15.176" transform="translate(116.644 42.093)" fill="#fff" opacity="0.6" style="isolation:isolate"/><path d="M310.69,1869.2l60.751,1.882-.073-1.539-60.7-.782Z" transform="translate(-193.764 -1813.94)" fill="#d9a171"/><path d="M371.419,1864.006l-60.654-3.422v.513l60.654,4.057Z" transform="translate(-193.742 -1815.754)" fill="#d9a171"/><path d="M371.419,1859.624l-60.654,1.393v.5l60.654-.733Z" transform="translate(-193.742 -1815.967)" fill="#d9a171"/><path d="M371.561,1866.009l-60.666,2.945v-.44l60.666-3.519Z" transform="translate(-193.713 -1814.776)" fill="#d9a171"/><rect width="61.045" height="15.176" transform="translate(115.875 71.833)" fill="#d9a171"/><rect width="61.045" height="15.176" transform="translate(116.07 71.894)" fill="#fff" opacity="0.6" style="isolation:isolate"/><rect width="46.847" height="15.176" transform="translate(116.009 71.907)" fill="#fff" opacity="0.6" style="isolation:isolate"/><path d="M370.6,1893.164l-60.7.794-.073,1.54,60.739-1.894Z" transform="translate(-193.951 -1808.526)" fill="#d9a171"/><path d="M310.145,1882.845l60.654.049v.5H310.145Z" transform="translate(-193.88 -1810.816)" fill="#d9a171"/><path d="M309.825,1889.552l60.654-4.056v-.5l-60.654,3.409Z" transform="translate(-193.951 -1810.339)" fill="#d9a171"/><path d="M370.8,1884.035l-60.654,1.381v.5l60.654-.733Z" transform="translate(-193.88 -1810.552)" fill="#d9a171"/><path d="M370.941,1890.409l-60.666,2.957v-.452l60.666-3.519Z" transform="translate(-193.851 -1809.362)" fill="#d9a171"/><path d="M369.151,1870.975l-61.02.306-.086,14.87h61.106Z" transform="translate(-194.346 -1813.449)" fill="#d9a171"/><rect width="61.045" height="15.176" transform="translate(113.761 57.525)" fill="#fff" opacity="0.6" style="isolation:isolate"/><rect width="46.847" height="15.176" transform="translate(113.7 57.525)" fill="#fff" opacity="0.6" style="isolation:isolate"/><path d="M356.721,1871.225H308.115v1.552H355.67Z" transform="translate(-194.33 -1813.394)" fill="#d9a171"/><path d="M368.781,1876.314l-60.666.562v.452h60.666Z" transform="translate(-194.33 -1812.265)" fill="#d9a171"/><path d="M308.115,1882.6l60.666-2.957v.44l-60.666,3.531Z" transform="translate(-194.33 -1811.526)" fill="#d9a171"/><path d="M308.115,1877.395l60.666,1.21v.428l-60.666-.635Z" transform="translate(-194.33 -1812.025)" fill="#d9a171"/><rect width="60.654" height="7.637" transform="translate(129.731 24.51)" fill="#d9a171"/><rect width="60.654" height="7.637" transform="translate(129.731 24.51)" fill="#fff" opacity="0.6" style="isolation:isolate"/><rect width="48.325" height="7.637" transform="translate(129.731 24.51)" fill="#fff" opacity="0.6" style="isolation:isolate"/><path d="M381.849,1848.395l-60.654.293v.232h60.654Z" transform="translate(-191.428 -1818.459)" fill="#d9a171"/><path d="M321.2,1846.334l60.654-1.54v.232L321.2,1846.86Z" transform="translate(-191.428 -1819.258)" fill="#d9a171"/><path d="M321.035,1845.715l60.654.623v.232l-60.654-.342Z" transform="translate(-191.463 -1819.054)" fill="#d9a171"/><rect width="60.654" height="3.678" transform="translate(121.251 21.15)" fill="#d9a171"/><rect width="60.654" height="3.653" transform="translate(121.251 21.175)" fill="#fff" opacity="0.6" style="isolation:isolate"/><rect width="48.337" height="3.886" transform="translate(121.251 20.955)" fill="#fff" opacity="0.6" style="isolation:isolate"/><path d="M314.245,1843.774l60.654-1.539v.232l-60.654,1.833Z" transform="translate(-192.97 -1819.826)" fill="#d9a171"/><path d="M314.245,1841.985l60.654.623v.232l-60.654-.329Z" transform="translate(-192.97 -1819.881)" fill="#d9a171"/><rect width="60.654" height="3.678" transform="translate(126.896 17.387)" fill="#d9a171"/><rect width="60.654" height="3.653" transform="translate(126.896 17.411)" fill="#fff" opacity="0.6" style="isolation:isolate"/><rect width="48.325" height="3.886" transform="translate(126.896 17.191)" fill="#fff" opacity="0.6" style="isolation:isolate"/><path d="M318.88,1839.485l60.666.733-.012.244-60.678-.452Z" transform="translate(-191.947 -1820.436)" fill="#d9a171"/><path d="M318.875,1838.9l60.641.623v.232l-60.641-.33Z" transform="translate(-191.943 -1820.565)" fill="#d9a171"/><rect width="60.654" height="9.836" transform="translate(125.637 32.159)" fill="#d9a171"/><rect width="60.654" height="9.836" transform="translate(125.637 32.159)" fill="#fff" opacity="0.6" style="isolation:isolate"/><rect width="46.798" height="9.836" transform="translate(125.637 32.159)" fill="#fff" opacity="0.6" style="isolation:isolate"/><path d="M378.149,1852.825l-60.654-.342v-.269h60.654Z" transform="translate(-192.249 -1817.612)" fill="#d9a171"/><path d="M317.835,1853.994l60.654,1.771v-.269l-60.654-2.1Z" transform="translate(-192.173 -1817.35)" fill="#d9a171"/><path d="M377.863,1850.215H320.655l1.271,1.222h55.937Z" transform="translate(-191.548 -1818.055)" fill="#d9a171"/><path d="M318.005,1857.2l60.654-.733v-.257l-60.654.379Z" transform="translate(-192.136 -1816.724)" fill="#d9a171"/></g></g></g></svg>