<svg xmlns="http://www.w3.org/2000/svg" width="475.804" height="443.21" viewBox="0 0 475.804 443.21"><g transform="translate(-914.568 -7790.739)"><g transform="translate(906.346 7696.487)"><g transform="translate(8.222 100.685)"><g transform="translate(54.49 53.606)"><path d="M181.281,376.438a22.174,22.174,0,0,1,6.963,2.178,29.3,29.3,0,0,1,13.875,14.045,29.66,29.66,0,0,1,2.833,13.563,30.152,30.152,0,0,1-4.667,15.21,30.172,30.172,0,0,1-13.321,11.447,30.043,30.043,0,0,1-34.925-7.833,30.172,30.172,0,0,1-7.159-16.042,30.15,30.15,0,0,1,2.277-15.747,29.674,29.674,0,0,1,8.357-11.055,29.31,29.31,0,0,1,18.542-6.771,22.232,22.232,0,0,1,7.226,1c-.032.206-2.574-.514-7.207-.348a29.361,29.361,0,0,0-17.792,7.03,28.756,28.756,0,0,0-9.856,25.688,28.75,28.75,0,0,0,6.862,15.153,28.526,28.526,0,0,0,33.011,7.4,28.742,28.742,0,0,0,12.674-10.77,28.771,28.771,0,0,0,2.062-27.434A29.349,29.349,0,0,0,187.948,379.2C183.829,377.074,181.222,376.638,181.281,376.438Z" transform="translate(-144.628 -375.433)" fill="#263238"/></g><path d="M233.515,373.069a6.047,6.047,0,0,1-.063-1.032c-.019-.771-.042-1.8-.074-3.14-.04-2.879-.1-7.028-.172-12.411l.211.261L206.6,350.894l.48-.234c-2.138,4.547-4.511,9.6-7.053,15.01l-.126.27-.3.013a67.1,67.1,0,0,0-17.485,3.1l-.318.1-.24-.238L169.76,357.246l.746.08q-10.937,6.966-23.152,14.745l.269-.783c1.733,4.836,3.641,10.162,5.6,15.621l.143.4-.288.312A66.7,66.7,0,0,0,142.9,402.11l-.2.392-.444,0-16.585.059.733-.588c-1.876,8.416-3.9,17.491-5.973,26.794l-.432-.883c4.669,2.212,9.8,4.64,14.987,7.1l.44.206.019.486a66.935,66.935,0,0,0,3.048,17.417l.149.472-.35.352-11.7,11.764.114-1.026c4.654,7.34,9.644,15.206,14.7,23.182l-.99-.341,15.631-5.568.482-.171.375.348a66.508,66.508,0,0,0,14.433,10.168l.008,0,0,0c.2.335-.451-.746.459.75v.506l0,.522,0,1.045,0,2.085.008,4.159q.009,4.151.017,8.268l-.659-.821q13.578,3.048,26.787,6.015l-.939.457q3.6-7.563,7.121-14.978l.217-.455.5-.019a66.465,66.465,0,0,0,17.417-3.02l.474-.15.352.35q5.958,5.945,11.75,11.716l-1-.109q11.878-7.513,23.2-14.667l-.318.916q-2.821-7.958-5.545-15.638l-.154-.434.312-.337a66.517,66.517,0,0,0,10.217-14.452l.206-.394h.44c5.689,0,11.2-.007,16.585-.009l-.685.55c2.133-9.418,4.149-18.31,6.065-26.775l.354.727-14.966-7.152-.333-.16-.013-.364a67.036,67.036,0,0,0-2.995-17.489l-.1-.324.238-.236c4.267-4.259,8.113-8.094,11.746-11.718l-.067.619-14.591-23.253.447.154-15.665,5.463-.158.055-.12-.112a69.788,69.788,0,0,0-10.652-8.205l-2.852-1.718a6.783,6.783,0,0,1-.939-.582,8.766,8.766,0,0,1,1.009.457c.655.337,1.645.846,2.927,1.6a65.064,65.064,0,0,1,10.878,8.045l-.276-.057c4.256-1.546,9.366-3.4,15.6-5.665l.282-.1.164.257c4.181,6.535,9.063,14.168,14.793,23.125l.215.337-.282.285c-3.608,3.648-7.426,7.51-11.668,11.8l.137-.558a67.951,67.951,0,0,1,3.149,17.775l-.348-.525,15,7.081.465.219-.112.508c-1.883,8.471-3.86,17.371-5.958,26.8l-.12.548H278.8c-5.383.023-10.9.044-16.583.065l.647-.394a67.982,67.982,0,0,1-10.4,14.808l.158-.767q2.742,7.674,5.583,15.625l.208.583-.524.335L234.72,509.964l-.543.346-.457-.455-11.767-11.7.821.2a68.056,68.056,0,0,1-17.847,3.117l.716-.474q-3.516,7.42-7.106,14.987l-.287.6-.653-.147-26.789-6-.659-.148,0-.674q-.006-4.117-.017-8.268l-.008-4.159-.006-2.085,0-1.045v-.784l0-.13v-.114c.91,1.493.251.413.453.745l0,0-.006,0a68.079,68.079,0,0,1-14.8-10.431l.855.177c-5.368,1.908-10.7,3.8-15.636,5.562l-.632.223-.36-.567c-5.05-7.98-10.031-15.853-14.682-23.2l-.354-.558.468-.47,11.716-11.75-.2.821a68.359,68.359,0,0,1-3.094-17.845l.457.7c-5.189-2.473-10.309-4.911-14.972-7.131l-.569-.272.139-.611c2.1-9.3,4.141-18.369,6.038-26.781l.133-.588.6,0c5.773,0,11.444-.006,16.583-.009l-.644.392a68.028,68.028,0,0,1,10.444-14.77l-.145.708c-1.933-5.467-3.823-10.8-5.535-15.642l-.179-.5.451-.282q12.22-7.705,23.22-14.637l.409-.259.339.339c4.115,4.121,8.07,8.083,11.727,11.741l-.558-.135a67.851,67.851,0,0,1,17.78-3.035l-.428.282,7.173-14.953.15-.312.333.078c10.895,2.508,19.9,4.585,26.749,6.162l.213.048,0,.215c-.049,5.337-.086,9.45-.114,12.3-.023,1.356-.044,2.4-.057,3.182A8.277,8.277,0,0,1,233.515,373.069Z" transform="translate(-118.755 -349.98)" fill="#263238"/></g></g><g transform="translate(1215.346 7747.009)"><g transform="translate(8.222 100.685)"><g transform="translate(54.49 53.606)"><path d="M181.281,376.438a22.174,22.174,0,0,1,6.963,2.178,29.3,29.3,0,0,1,13.875,14.045,29.66,29.66,0,0,1,2.833,13.563,30.152,30.152,0,0,1-4.667,15.21,30.172,30.172,0,0,1-13.321,11.447,30.043,30.043,0,0,1-34.925-7.833,30.172,30.172,0,0,1-7.159-16.042,30.15,30.15,0,0,1,2.277-15.747,29.674,29.674,0,0,1,8.357-11.055,29.31,29.31,0,0,1,18.542-6.771,22.232,22.232,0,0,1,7.226,1c-.032.206-2.574-.514-7.207-.348a29.361,29.361,0,0,0-17.792,7.03,28.756,28.756,0,0,0-9.856,25.688,28.75,28.75,0,0,0,6.862,15.153,28.526,28.526,0,0,0,33.011,7.4,28.742,28.742,0,0,0,12.674-10.77,28.771,28.771,0,0,0,2.062-27.434A29.349,29.349,0,0,0,187.948,379.2C183.829,377.074,181.222,376.638,181.281,376.438Z" transform="translate(-144.628 -375.433)" fill="#263238"/></g><path d="M233.515,373.069a6.047,6.047,0,0,1-.063-1.032c-.019-.771-.042-1.8-.074-3.14-.04-2.879-.1-7.028-.172-12.411l.211.261L206.6,350.894l.48-.234c-2.138,4.547-4.511,9.6-7.053,15.01l-.126.27-.3.013a67.1,67.1,0,0,0-17.485,3.1l-.318.1-.24-.238L169.76,357.246l.746.08q-10.937,6.966-23.152,14.745l.269-.783c1.733,4.836,3.641,10.162,5.6,15.621l.143.4-.288.312A66.7,66.7,0,0,0,142.9,402.11l-.2.392-.444,0-16.585.059.733-.588c-1.876,8.416-3.9,17.491-5.973,26.794l-.432-.883c4.669,2.212,9.8,4.64,14.987,7.1l.44.206.019.486a66.935,66.935,0,0,0,3.048,17.417l.149.472-.35.352-11.7,11.764.114-1.026c4.654,7.34,9.644,15.206,14.7,23.182l-.99-.341,15.631-5.568.482-.171.375.348a66.508,66.508,0,0,0,14.433,10.168l.008,0,0,0c.2.335-.451-.746.459.75v.506l0,.522,0,1.045,0,2.085.008,4.159q.009,4.151.017,8.268l-.659-.821q13.578,3.048,26.787,6.015l-.939.457q3.6-7.563,7.121-14.978l.217-.455.5-.019a66.465,66.465,0,0,0,17.417-3.02l.474-.15.352.35q5.958,5.945,11.75,11.716l-1-.109q11.878-7.513,23.2-14.667l-.318.916q-2.821-7.958-5.545-15.638l-.154-.434.312-.337a66.517,66.517,0,0,0,10.217-14.452l.206-.394h.44c5.689,0,11.2-.007,16.585-.009l-.685.55c2.133-9.418,4.149-18.31,6.065-26.775l.354.727-14.966-7.152-.333-.16-.013-.364a67.036,67.036,0,0,0-2.995-17.489l-.1-.324.238-.236c4.267-4.259,8.113-8.094,11.746-11.718l-.067.619-14.591-23.253.447.154-15.665,5.463-.158.055-.12-.112a69.788,69.788,0,0,0-10.652-8.205l-2.852-1.718a6.783,6.783,0,0,1-.939-.582,8.766,8.766,0,0,1,1.009.457c.655.337,1.645.846,2.927,1.6a65.064,65.064,0,0,1,10.878,8.045l-.276-.057c4.256-1.546,9.366-3.4,15.6-5.665l.282-.1.164.257c4.181,6.535,9.063,14.168,14.793,23.125l.215.337-.282.285c-3.608,3.648-7.426,7.51-11.668,11.8l.137-.558a67.951,67.951,0,0,1,3.149,17.775l-.348-.525,15,7.081.465.219-.112.508c-1.883,8.471-3.86,17.371-5.958,26.8l-.12.548H278.8c-5.383.023-10.9.044-16.583.065l.647-.394a67.982,67.982,0,0,1-10.4,14.808l.158-.767q2.742,7.674,5.583,15.625l.208.583-.524.335L234.72,509.964l-.543.346-.457-.455-11.767-11.7.821.2a68.056,68.056,0,0,1-17.847,3.117l.716-.474q-3.516,7.42-7.106,14.987l-.287.6-.653-.147-26.789-6-.659-.148,0-.674q-.006-4.117-.017-8.268l-.008-4.159-.006-2.085,0-1.045v-.784l0-.13v-.114c.91,1.493.251.413.453.745l0,0-.006,0a68.079,68.079,0,0,1-14.8-10.431l.855.177c-5.368,1.908-10.7,3.8-15.636,5.562l-.632.223-.36-.567c-5.05-7.98-10.031-15.853-14.682-23.2l-.354-.558.468-.47,11.716-11.75-.2.821a68.359,68.359,0,0,1-3.094-17.845l.457.7c-5.189-2.473-10.309-4.911-14.972-7.131l-.569-.272.139-.611c2.1-9.3,4.141-18.369,6.038-26.781l.133-.588.6,0c5.773,0,11.444-.006,16.583-.009l-.644.392a68.028,68.028,0,0,1,10.444-14.77l-.145.708c-1.933-5.467-3.823-10.8-5.535-15.642l-.179-.5.451-.282q12.22-7.705,23.22-14.637l.409-.259.339.339c4.115,4.121,8.07,8.083,11.727,11.741l-.558-.135a67.851,67.851,0,0,1,17.78-3.035l-.428.282,7.173-14.953.15-.312.333.078c10.895,2.508,19.9,4.585,26.749,6.162l.213.048,0,.215c-.049,5.337-.086,9.45-.114,12.3-.023,1.356-.044,2.4-.057,3.182A8.277,8.277,0,0,1,233.515,373.069Z" transform="translate(-118.755 -349.98)" fill="#263238"/></g></g><g transform="translate(858.941 6510.884)"><g transform="translate(63.421 1280.354)"><path d="M364.008,1287.76h0a6.136,6.136,0,0,1-8.318-2.427l-3.4-6.2L145.711,1392.3l132.622,242.115,206.594-113.157-72.2-131.809a6.125,6.125,0,0,1,2.427-8.307h0a6.125,6.125,0,0,0,2.431-8.314l0,0-45.265-82.635A6.124,6.124,0,0,0,364.008,1287.76Z" transform="translate(-54.078 -1279.13)" fill="#d9a171" stroke="#2e353a" stroke-linecap="round" stroke-linejoin="round" stroke-width="1"/><rect width="178.121" height="238.574" transform="translate(152.427 77.372) rotate(-19.62)" fill="#fff" stroke="#2e353a" stroke-linecap="round" stroke-linejoin="round" stroke-width="1"/><rect width="178.121" height="87.891" transform="translate(152.436 77.381) rotate(-19.62)" fill="#fff" stroke="#2e353a" stroke-linecap="round" stroke-linejoin="round" stroke-width="1"/><circle cx="26.87" cy="26.87" r="26.87" transform="translate(265.958 53.071)" fill="#344154" stroke="#2e353a" stroke-linecap="round" stroke-linejoin="round" stroke-width="1"/><path d="M336.9,1376.687a26.813,26.813,0,0,0,16.224-16.113c-4.666-10.445-16.068-15.89-26.335-12.249s-15.645,15.1-12.65,26.135A26.828,26.828,0,0,0,336.9,1376.687Z" transform="translate(-35.05 -1271.402)" fill="#fff" stroke="#2e353a" stroke-linecap="round" stroke-linejoin="round" stroke-width="1"/><circle cx="13.619" cy="13.619" r="13.619" transform="matrix(0.749, -0.662, 0.662, 0.749, 271.806, 73.761)" fill="#fff" stroke="#2e353a" stroke-linecap="round" stroke-linejoin="round" stroke-width="1"/><rect width="62.336" height="7.16" transform="translate(177.694 101.588) rotate(-19.62)" fill="#fff" stroke="#2e353a" stroke-linecap="round" stroke-linejoin="round" stroke-width="1"/><rect width="62.336" height="7.16" transform="translate(183.478 117.793) rotate(-19.62)" fill="#fff" stroke="#2e353a" stroke-linecap="round" stroke-linejoin="round" stroke-width="1"/><rect width="62.336" height="3.586" transform="translate(188.278 131.279) rotate(-19.62)" fill="#344154"/><rect width="62.336" height="3.586" transform="translate(191.166 139.383) rotate(-19.62)" fill="#344154"/><rect width="62.336" height="3.586" transform="translate(205.842 180.552) rotate(-19.62)" fill="#344154"/><rect width="62.336" height="3.586" transform="translate(208.482 187.983) rotate(-19.62)" fill="#344154"/><rect width="62.336" height="3.586" transform="translate(211.134 195.403) rotate(-19.62)" fill="#344154"/><rect width="62.336" height="3.586" transform="translate(285.479 152.159) rotate(-19.62)" fill="#344154"/><rect width="62.336" height="3.586" transform="translate(288.131 159.59) rotate(-19.62)" fill="#344154"/><rect width="62.336" height="3.586" transform="translate(290.772 167.014) rotate(-19.62)" fill="#344154"/><line y1="50.51" x2="141.742" transform="translate(202.073 123.802)" fill="none" stroke="#2e353a" stroke-linecap="round" stroke-linejoin="round" stroke-width="1"/><rect width="62.336" height="3.586" transform="translate(219.556 219.022) rotate(-19.62)" fill="#344154"/><rect width="62.336" height="3.586" transform="translate(222.197 226.457) rotate(-19.62)" fill="#344154"/><rect width="62.336" height="3.586" transform="translate(224.849 233.877) rotate(-19.62)" fill="#344154"/><rect width="62.336" height="3.586" transform="translate(299.194 190.632) rotate(-19.62)" fill="#344154"/><rect width="62.336" height="3.586" transform="translate(301.846 198.063) rotate(-19.62)" fill="#344154"/><rect width="62.336" height="3.586" transform="translate(304.487 205.487) rotate(-19.62)" fill="#344154"/><line y1="50.51" x2="141.742" transform="translate(215.781 162.275)" fill="none" stroke="#2e353a" stroke-linecap="round" stroke-linejoin="round" stroke-width="1"/><rect width="147.61" height="35.822" transform="translate(229.455 248.956) rotate(-19.62)" fill="#344154" stroke="#2e353a" stroke-linecap="round" stroke-linejoin="round" stroke-width="1"/><rect width="178.121" height="238.574" transform="translate(134.54 101.669) rotate(-23.21)" fill="#fff" stroke="#2e353a" stroke-linecap="round" stroke-linejoin="round" stroke-width="1"/><rect width="178.121" height="87.891" transform="translate(134.549 101.673) rotate(-23.21)" fill="#fff" stroke="#2e353a" stroke-linecap="round" stroke-linejoin="round" stroke-width="1"/><circle cx="26.87" cy="26.87" r="26.87" transform="translate(247.945 68.597)" fill="#344154" stroke="#2e353a" stroke-linecap="round" stroke-linejoin="round" stroke-width="1"/><path d="M322.188,1390.032a26.814,26.814,0,0,0,15.177-17.1c-5.3-10.122-17.026-14.854-27.036-10.556s-14.665,16.046-10.991,26.87A26.835,26.835,0,0,0,322.188,1390.032Z" transform="translate(-36.779 -1269.859)" fill="#fff" stroke="#2e353a" stroke-linecap="round" stroke-linejoin="round" stroke-width="1"/><circle cx="13.619" cy="13.619" r="13.619" transform="matrix(0.731, -0.682, 0.682, 0.731, 253.461, 89.879)" fill="#fff" stroke="#2e353a" stroke-linecap="round" stroke-linejoin="round" stroke-width="1"/><rect width="62.336" height="7.16" transform="translate(161.269 124.264) rotate(-23.21)" fill="#fff" stroke="#2e353a" stroke-linecap="round" stroke-linejoin="round" stroke-width="1"/><rect width="62.336" height="7.16" transform="translate(168.049 140.066) rotate(-23.21)" fill="#fff" stroke="#2e353a" stroke-linecap="round" stroke-linejoin="round" stroke-width="1"/><rect width="62.336" height="3.586" transform="translate(173.7 153.231) rotate(-23.21)" fill="#344154"/><rect width="62.336" height="3.586" transform="translate(177.087 161.134) rotate(-23.21)" fill="#344154"/><rect width="62.336" height="3.586" transform="translate(194.317 201.303) rotate(-23.21)" fill="#344154"/><rect width="62.336" height="3.586" transform="translate(197.424 208.545) rotate(-23.21)" fill="#344154"/><rect width="62.336" height="3.586" transform="translate(200.52 215.803) rotate(-23.21)" fill="#344154"/><rect width="62.336" height="3.586" transform="translate(272.014 167.998) rotate(-23.21)" fill="#344154"/><rect width="62.336" height="3.586" transform="translate(275.116 175.23) rotate(-23.21)" fill="#344154"/><rect width="62.336" height="3.586" transform="translate(278.233 182.483) rotate(-23.21)" fill="#344154"/><line y1="59.296" x2="138.301" transform="translate(190.158 136.018)" fill="none" stroke="#2e353a" stroke-linecap="round" stroke-linejoin="round" stroke-width="1"/><rect width="62.336" height="3.586" transform="translate(210.407 238.847) rotate(-23.21)" fill="#344154"/><rect width="62.336" height="3.586" transform="translate(213.521 246.079) rotate(-23.21)" fill="#344154"/><rect width="62.336" height="3.586" transform="translate(216.627 253.332) rotate(-23.21)" fill="#344154"/><rect width="62.336" height="3.586" transform="translate(288.121 205.527) rotate(-23.21)" fill="#344154"/><rect width="62.336" height="3.586" transform="translate(291.223 212.759) rotate(-23.21)" fill="#344154"/><rect width="62.336" height="3.586" transform="translate(294.319 220.016) rotate(-23.21)" fill="#344154"/><line y1="59.296" x2="138.301" transform="translate(206.249 173.555)" fill="none" stroke="#2e353a" stroke-linecap="round" stroke-linejoin="round" stroke-width="1"/><rect width="147.61" height="35.822" transform="translate(222.165 268.099) rotate(-23.21)" fill="#344154" stroke="#2e353a" stroke-linecap="round" stroke-linejoin="round" stroke-width="1"/><rect width="178.121" height="238.574" transform="matrix(0.839, -0.544, 0.544, 0.839, 111.409, 127.007)" fill="#fff" stroke="#2e353a" stroke-linecap="round" stroke-linejoin="round" stroke-width="1"/><rect width="178.121" height="87.891" transform="matrix(0.839, -0.544, 0.544, 0.839, 111.415, 127.016)" fill="#fff" stroke="#2e353a" stroke-linecap="round" stroke-linejoin="round" stroke-width="1"/><circle cx="26.87" cy="26.87" r="26.87" transform="translate(221.708 70.171)" fill="#344154" stroke="#2e353a" stroke-linecap="round" stroke-linejoin="round" stroke-width="1"/><rect width="62.336" height="7.16" transform="matrix(0.839, -0.544, 0.544, 0.839, 141.58, 144.73)" fill="#fff" stroke="#2e353a" stroke-linecap="round" stroke-linejoin="round" stroke-width="1"/><rect width="62.336" height="7.16" transform="matrix(0.839, -0.544, 0.544, 0.839, 150.939, 159.154)" fill="#fff" stroke="#2e353a" stroke-linecap="round" stroke-linejoin="round" stroke-width="1"/><rect width="62.248" height="3.581" transform="matrix(0.841, -0.541, 0.541, 0.841, 157.73, 172.372)" fill="#344154"/><rect width="62.336" height="3.586" transform="matrix(0.839, -0.544, 0.544, 0.839, 163.431, 178.377)" fill="#344154"/><rect width="62.336" height="3.586" transform="matrix(0.839, -0.544, 0.544, 0.839, 187.235, 215.036)" fill="#344154"/><rect width="62.336" height="3.586" transform="matrix(0.839, -0.544, 0.544, 0.839, 191.526, 221.657)" fill="#344154"/><rect width="62.336" height="3.586" transform="matrix(0.839, -0.544, 0.544, 0.839, 195.817, 228.278)" fill="#344154"/><rect width="62.336" height="3.586" transform="matrix(0.839, -0.544, 0.544, 0.839, 258.154, 168.995)" fill="#344154"/><rect width="62.336" height="3.586" transform="matrix(0.839, -0.544, 0.544, 0.839, 262.454, 175.61)" fill="#344154"/><rect width="62.336" height="3.586" transform="matrix(0.839, -0.544, 0.544, 0.839, 266.745, 182.231)" fill="#344154"/><line y1="81.945" x2="126.208" transform="translate(182.141 127.845)" fill="none" stroke="#2e353a" stroke-linecap="round" stroke-linejoin="round" stroke-width="1"/><rect width="62.336" height="3.586" transform="matrix(0.839, -0.544, 0.544, 0.839, 209.477, 249.305)" fill="#344154"/><rect width="62.336" height="3.586" transform="matrix(0.839, -0.544, 0.544, 0.839, 213.762, 255.917)" fill="#344154"/><rect width="62.336" height="3.586" transform="matrix(0.839, -0.544, 0.544, 0.839, 218.063, 262.521)" fill="#344154"/><rect width="62.336" height="3.586" transform="matrix(0.839, -0.544, 0.544, 0.839, 280.396, 203.265)" fill="#344154"/><rect width="62.336" height="3.586" transform="matrix(0.839, -0.544, 0.544, 0.839, 284.69, 209.87)" fill="#344154"/><rect width="62.336" height="3.586" transform="matrix(0.839, -0.544, 0.544, 0.839, 288.97, 216.491)" fill="#344154"/><line y1="81.934" x2="126.208" transform="translate(204.378 162.108)" fill="none" stroke="#2e353a" stroke-linecap="round" stroke-linejoin="round" stroke-width="1"/><rect width="147.61" height="35.822" transform="matrix(0.839, -0.544, 0.544, 0.839, 226.047, 276.141)" fill="#344154" stroke="#2e353a" stroke-linecap="round" stroke-linejoin="round" stroke-width="1"/><path d="M153.785,1387.011,74.591,1325.7l47.125,88.4c1.114,2.138-1.837,2.539-4.844.646h0c-3.04-1.9-6.035-1.481-4.844.679l24.442,44.43a5.559,5.559,0,0,0,1.5,1.615l11.937,9a5.315,5.315,0,0,1,1.526,1.659l49.452,93.926,85.53,63.071Z" transform="translate(-62.153 -1273.843)" fill="#d9a171" stroke="#2e353a" stroke-linecap="round" stroke-linejoin="round" stroke-width="1"/><path d="M153.785,1387.011,74.591,1325.7l47.125,88.4c1.114,2.138-1.837,2.539-4.844.646h0c-3.04-1.9-6.035-1.481-4.844.679l24.442,44.43a5.559,5.559,0,0,0,1.5,1.615l11.937,9a5.315,5.315,0,0,1,1.526,1.659l49.452,93.926,85.53,63.071Z" transform="translate(-62.153 -1273.843)" fill="#344154" stroke="#2e353a" stroke-linecap="round" stroke-linejoin="round" stroke-width="1" opacity="0.25" style="isolation:isolate"/></g><g transform="translate(321.323 1453.399)"><path d="M436.661,1455.107a209.421,209.421,0,0,1,5.846,21.625c1.57,8.607,4.855,26.524,4.855,26.524s-8.262.468-8.407,1.815,10.9,6.681,12.549,6.158,2.595-34.141,1.6-41.78-6.269-17.817-6.681-20.11-1.314-6.759-1.314-6.759Z" transform="translate(-338.949 -1276.618)" fill="#ffbf9d" stroke="#2e353a" stroke-linecap="round" stroke-linejoin="round" stroke-width="1"/><path d="M451.272,1505.041c.412-.123.779-2.227,1.113-5.568-3.24,2.383-5.568,0-5.568,0l.3-2.383s-8.262.468-8.407,1.815S449.624,1505.553,451.272,1505.041Z" transform="translate(-338.716 -1270.429)" fill="#d9a171" stroke="#2e353a" stroke-linecap="round" stroke-linejoin="round" stroke-width="1"/><path d="M434.017,1364.881s-13.117-13.519-15.066-14.476-2.628,1.114-2.071,2.283,13.9,18.852,16.157,21.157S434.017,1364.881,434.017,1364.881Z" transform="translate(-341.216 -1287.11)" fill="#ffbf9d" stroke="#2e353a" stroke-linecap="round" stroke-linejoin="round" stroke-width="1"/><path d="M403.484,1328.99,385.9,1341.662l20.8,30.01,16.079-13.529Z" transform="translate(-344.711 -1289.514)" fill="#344154" stroke="#2e353a" stroke-linecap="round" stroke-linejoin="round" stroke-width="1"/><path d="M403.318,1331.92l-14.877,10.724,17.6,25.4,13.607-11.447Z" transform="translate(-344.423 -1289.181)" fill="#d9a171" stroke="#2e353a" stroke-linecap="round" stroke-linejoin="round" stroke-width="1"/><path d="M421.547,1353.318a24.281,24.281,0,0,0-2.093-4.031c-1.448-2.227-2.372-3.419-4.922-3.274a27.821,27.821,0,0,1-5.657-.412c-1.459-.156-1.481,1.949-.713,2.673s5.011.546,5.011.546c-.434-.568-.111.356,2.695,4.22.791,1.114,3.563,1.3,4.187,1.37" transform="translate(-342.241 -1287.629)" fill="#ffbf9d" stroke="#2e353a" stroke-linecap="round" stroke-linejoin="round" stroke-width="1"/><path d="M437.312,1309.46a50.922,50.922,0,0,0-1.3,8.374c0,2.672,1.448,5.167-.356,6.3s-1.047,3.563-.167,4.655.423,14.91,7.427,15.01,13.741-3.508,15.166-7.36,4.955-14.821.512-19.988S441.41,1302.556,437.312,1309.46Z" transform="translate(-339.188 -1292.021)" fill="#ffbf9d" stroke="#2e353a" stroke-linecap="round" stroke-linejoin="round" stroke-width="1"/><path d="M437.3,1320.69l1.1,2.027-1.336.045" transform="translate(-338.903 -1290.456)" fill="none" stroke="#2e353a" stroke-linecap="round" stroke-linejoin="round" stroke-width="1"/><path d="M437.071,1317.77s2.093,0,2.227,3.474" transform="translate(-338.902 -1290.787)" fill="none" stroke="#2e353a" stroke-linecap="round" stroke-linejoin="round" stroke-width="1"/><path d="M447.121,1339.184a54.911,54.911,0,0,1,0,9.353,3.275,3.275,0,0,1-.59,1.4,56.443,56.443,0,0,1,11.135-5.935l1.114-.423a117.971,117.971,0,0,1-.846-14.242Z" transform="translate(-337.828 -1289.474)" fill="#fff" stroke="#2e353a" stroke-linecap="round" stroke-linejoin="round" stroke-width="1"/><path d="M420.985,1458.837s-.6,15.088.668,20.244,5.957,47.8,5.757,51.657-.356,5.434-.356,5.434-11.592,1.693-12.772,2.026-1.57,1.882,4.844,3.719,11.347,4.655,12.717,2.528,3.229-10.022,3.775-15.779c1.281-13.362,3.474-28.373,2.16-35.121s-4.733-15.144-4.265-17.371,7.706-26.725,7.706-26.725Z" transform="translate(-341.568 -1275.838)" fill="#ffbf9d" stroke="#2e353a" stroke-linecap="round" stroke-linejoin="round" stroke-width="1"/><path d="M431.842,1535.6a16.377,16.377,0,0,0,1.436-4.644c-3.4,1.793-7.572-.746-7.572-.746l1.347-2.884s-11.592,1.693-12.772,2.027-1.57,1.882,4.844,3.719S430.473,1537.73,431.842,1535.6Z" transform="translate(-341.568 -1266.996)" fill="#d9a171" stroke="#2e353a" stroke-linecap="round" stroke-linejoin="round" stroke-width="1"/><path d="M450.393,1339.184a54.892,54.892,0,0,1,0,9.353c-.468,4.287-19.877,16.859-19.387,21.592s2.773,11.325,1.492,16.859-8.385,24.8-9.8,31.657-6.793,59.017-4.365,61.311,12.249,1.325,17.193-1.47,15.155-13.362,16.057-18.607,1.915-17.494,2.572-20.433,5.768-10.022,5.2-23.139,4.165-28.952,5.278-39.163,0-24.052-1.771-29.587-1.681-18.217-1.681-18.217Z" transform="translate(-341.1 -1289.474)" fill="#6595bf" stroke="#2e353a" stroke-linecap="round" stroke-linejoin="round" stroke-width="1"/><path d="M451.564,1453.325c.913-5.245,1.915-17.493,2.572-20.433s5.768-10.022,5.2-23.139c-.323-7.193.969-15.211,2.383-22.683-3.708,3.519-13.362,11.715-23.663,12.672-7.449.7-9.877-1.47-10.579-3.5-2.06,6.214-4.109,12.505-4.8,15.846-1.425,6.859-6.793,59.017-4.365,61.311s12.249,1.325,17.193-1.47S450.663,1458.57,451.564,1453.325Z" transform="translate(-341.102 -1282.92)" fill="#344154" stroke="#2e353a" stroke-linecap="round" stroke-linejoin="round" stroke-width="1"/><line x1="15.033" y2="26.19" transform="translate(93.325 155.195)" fill="none" stroke="#fff" stroke-linecap="round" stroke-linejoin="round" stroke-width="0.5"/><line x1="6.871" y2="13.741" transform="translate(94.617 171.942)" fill="none" stroke="#fff" stroke-linecap="round" stroke-linejoin="round" stroke-width="0.5"/><path d="M497.28,1361.822c-2.906-12.594-11.135-16.948-18.4-21.3-3.341-1.993-4.454-5.4-4.61-8.519l-.367,3.341a20.7,20.7,0,0,1,0-4.755c.122-.735.278-1.526.456-2.383a19.576,19.576,0,0,0-.111,3.753l.746-6.971v.078c1.114-6.247,1.615-14.565-4.933-23.284-8.741-11.647-26.224-7.538-26.224-7.538s-11.659-.278-12.383,6.325,3.619,12.75,9.487,14.064c0,0,1.191,2.539,2.55,6.336a5.567,5.567,0,0,0-1.392,2.082s1.938.969,2.906,7.26-8.719,17.917-7.795,25.611,9.2,7.795,8.708,12.1-6.291,3.341-5.8,8.708c.345,3.819,6.926,8.641,11.135,12.138A88.653,88.653,0,0,0,451.18,1400a25.731,25.731,0,0,0-3.819,14.031c.289,7.171,6.915,9.721,13.207,8.04a30.022,30.022,0,0,0,5.033-1.871c5.924,2.383,20.333.546,27.259-11,7.26-12.1.479-15.979,0-24.687S500.186,1374.4,497.28,1361.822Z" transform="translate(-339.548 -1293.539)" fill="#a66d58" stroke="#2e353a" stroke-linecap="round" stroke-linejoin="round" stroke-width="1"/><path d="M439.2,1303.66a52.355,52.355,0,0,0,12.661,12.015c9.2,5.813,2.906,23.239-4.354,30.978s-5.813,15.011,2.416,18.874,22.75,8.229,14.476,22.271-9.2,25.166,2.906,28.562" transform="translate(-338.66 -1292.39)" fill="none" stroke="#fff" stroke-linecap="round" stroke-linejoin="round" stroke-width="0.5"/><path d="M436.661,1300.09s.668,1.113,1.893,2.728" transform="translate(-338.949 -1292.795)" fill="none" stroke="#fff" stroke-linecap="round" stroke-linejoin="round" stroke-width="0.5"/><path d="M473.731,1403.46a6.126,6.126,0,0,0,4.71-.79" transform="translate(-334.74 -1281.149)" fill="none" stroke="#fff" stroke-linecap="round" stroke-linejoin="round" stroke-width="0.5"/><path d="M465.751,1355.67c7.505,2.695,15.589,4.966,16.491,12.65,1.459,12.583-15.489,18.4-15.489,28.551,0,4.777,1.815,8.162,4.187,10.111" transform="translate(-335.646 -1286.485)" fill="none" stroke="#fff" stroke-linecap="round" stroke-linejoin="round" stroke-width="0.5"/><path d="M450.571,1314.45s11.614,4.354,14.476,11.614-15,17.917-9.2,27.115c1.793,2.828,5,4.6,8.641,6.069" transform="translate(-337.369 -1291.164)" fill="none" stroke="#fff" stroke-linecap="round" stroke-linejoin="round" stroke-width="0.5"/><path d="M465.111,1305.27s10.022,10.233,5.445,21.647-6.681,16.569-3.341,19.576,21.057,4.3,25.377,17.995" transform="translate(-335.719 -1292.207)" fill="none" stroke="#fff" stroke-linecap="round" stroke-linejoin="round" stroke-width="0.5"/><path d="M432.475,1396.091s-10.133-7.483-14.921-15.768-8.819-15.322-8.719-16.224.59-5.412-.813-7.16-6.191-3.875-6.815-4.4-1.926.935-.479,2.227,2.884,2.828,2.884,2.828l-9.309-2.383a2.229,2.229,0,0,0,.178,2.528c1.024,1.024,3.953,1.336,4.053,2.494s3.062,3.341,4.32,4.343a4.37,4.37,0,0,0,1.926,1.114s5.334,17.917,9.086,25.4,9.465,15.589,13.44,16.7,8.853-5.879,8.853-5.879Z" transform="translate(-343.793 -1286.852)" fill="#ffbf9d" stroke="#2e353a" stroke-linecap="round" stroke-linejoin="round" stroke-width="1"/><path d="M446.5,1359.438s-5.423,3.741-7.115,8.8-10.334,17.338-11.581,20.4a17.879,17.879,0,0,1-2.294,4.287s1.114,6.681,5.724,10.2,6.035,3.173,6.035,3.173,16.7-27.148,19.4-33.462S453.683,1356.343,446.5,1359.438Z" transform="translate(-340.214 -1286.122)" fill="#aed3f2" stroke="#2e353a" stroke-linecap="round" stroke-linejoin="round" stroke-width="1"/></g></g></g></svg>