<svg xmlns="http://www.w3.org/2000/svg" width="462.39" height="220" viewBox="0 0 462.39 220">
  <g id="Grupo_71755" data-name="Grupo 71755" transform="translate(-277.876 -1349.223)">
    <g id="freepik--background-complete--inject-49" transform="translate(277.876 1349.223)">
      <path id="Trazado_104349" data-name="Trazado 104349" d="M954.86,1433.852c.327-2.368-3.022-4.32-5.545-4.525a13.979,13.979,0,0,1-3.582-.311c-2.462-.854-3.449-4.037-5.85-5.052-1.8-.754-3.882-.083-5.606.793s-3.46,1.98-5.407,2.107c-1.691.105-3.527-.521-4.991.3-1.109.616-1.664,1.891-2.7,2.64a6.4,6.4,0,0,1-3.527.954,10.02,10.02,0,0,0-3.638.593,2.866,2.866,0,0,0-1.819,2.917Z" transform="translate(-560.432 -1382.372)" fill="#aed3f2"/>
      <path id="Trazado_104350" data-name="Trazado 104350" d="M790.818,1376.619a12.954,12.954,0,0,0-13.364-9.971c-2,.178-4.015.832-5.978.388-2.922-.655-4.791-3.532-5.889-6.338s-1.824-5.856-3.832-8.085c-2.773-3.078-7.4-3.815-11.49-3.183a22.1,22.1,0,0,0-13.752,7.969c-1.492,1.858-2.911,4.126-5.24,4.614-1.791.372-3.582-.438-5.384-.737a9.915,9.915,0,0,0-9.826,4.436c-1.769,2.85-2.107,6.654-4.714,8.789-3.061,2.479-7.553,1.347-11.457,1.891a12.82,12.82,0,0,0-10.3,17.063l8.872.893c-2.551-2.024-1.453-6.471,1.242-8.318s6.194-1.8,9.427-1.725q37.209.943,74.429.322c1.824-.033,3.782-.105,5.262-1.181C790.89,1382.015,791.323,1379.093,790.818,1376.619Z" transform="translate(-460.941 -1349.223)" fill="#f2e9e4"/>
      <g id="Grupo_56625" data-name="Grupo 56625" transform="translate(47.174 98.054)">
        <rect id="Rectángulo_7801" data-name="Rectángulo 7801" width="35.041" height="111.044" transform="translate(2.917 10.902)" fill="#aed3f2"/>
        <rect id="Rectángulo_7802" data-name="Rectángulo 7802" width="17.518" height="110.739" transform="translate(20.434 10.902)" fill="#839eb6"/>
        <rect id="Rectángulo_7803" data-name="Rectángulo 7803" width="12.372" height="10.902" transform="translate(6.921)" fill="#aed3f2"/>
        <rect id="Rectángulo_7804" data-name="Rectángulo 7804" width="2.95" height="10.902" transform="translate(16.342)" fill="#839eb6"/>
        <path id="Trazado_104351" data-name="Trazado 104351" d="M362.946,1545.194v-.638H401.93v.638" transform="translate(-362.946 -1534.292)" fill="#e0e0e0"/>
        <rect id="Rectángulo_7805" data-name="Rectángulo 7805" width="2.967" height="6.255" transform="translate(9.832 15.66)" fill="#fafafa"/>
        <path id="Trazado_104352" data-name="Trazado 104352" d="M385.724,1569.889c0,.067-3.921.122-8.756.122s-8.762-.055-8.762-.122,3.92-.122,8.762-.122S385.724,1569.822,385.724,1569.889Z" transform="translate(-365.289 -1545.523)" fill="#e0e0e0"/>
        <rect id="Rectángulo_7806" data-name="Rectángulo 7806" width="2.967" height="6.255" transform="translate(27.505 15.66)" fill="#e0e0e0"/>
        <path id="Trazado_104353" data-name="Trazado 104353" d="M417.594,1569.889c0,.067-3.921.122-8.756.122s-8.762-.055-8.762-.122,3.921-.122,8.762-.122S417.594,1569.822,417.594,1569.889Z" transform="translate(-379.487 -1545.523)" fill="#e0e0e0"/>
        <rect id="Rectángulo_7807" data-name="Rectángulo 7807" width="2.967" height="6.255" transform="translate(27.505 28.076)" fill="#e0e0e0"/>
        <path id="Trazado_104354" data-name="Trazado 104354" d="M417.594,1592.273c0,.067-3.921.122-8.756.122s-8.762-.055-8.762-.122,3.921-.116,8.762-.116S417.594,1592.212,417.594,1592.273Z" transform="translate(-379.487 -1555.497)" fill="#e0e0e0"/>
        <rect id="Rectángulo_7808" data-name="Rectángulo 7808" width="2.967" height="6.255" transform="translate(27.505 40.863)" fill="#e0e0e0"/>
        <path id="Trazado_104355" data-name="Trazado 104355" d="M417.594,1615.349c0,.067-3.921.116-8.756.116s-8.762-.05-8.762-.116,3.921-.122,8.762-.122S417.594,1615.3,417.594,1615.349Z" transform="translate(-379.487 -1565.774)" fill="#e0e0e0"/>
        <rect id="Rectángulo_7809" data-name="Rectángulo 7809" width="2.967" height="6.255" transform="translate(27.505 53.656)" fill="#e0e0e0"/>
        <path id="Trazado_104356" data-name="Trazado 104356" d="M417.594,1638.414c0,.066-3.921.122-8.756.122s-8.762-.055-8.762-.122,3.921-.116,8.762-.116S417.594,1638.336,417.594,1638.414Z" transform="translate(-379.487 -1576.051)" fill="#e0e0e0"/>
        <rect id="Rectángulo_7810" data-name="Rectángulo 7810" width="2.967" height="6.255" transform="translate(27.505 66.083)" fill="#e0e0e0"/>
        <path id="Trazado_104357" data-name="Trazado 104357" d="M417.594,1660.824c0,.067-3.921.122-8.756.122s-8.762-.055-8.762-.122,3.921-.117,8.762-.117S417.594,1660.757,417.594,1660.824Z" transform="translate(-379.487 -1586.034)" fill="#e0e0e0"/>
        <rect id="Rectángulo_7811" data-name="Rectángulo 7811" width="2.967" height="6.255" transform="translate(27.505 78.554)" fill="#e0e0e0"/>
        <rect id="Rectángulo_7812" data-name="Rectángulo 7812" width="2.967" height="6.255" transform="translate(27.505 91.198)" fill="#e0e0e0"/>
        <path id="Trazado_104358" data-name="Trazado 104358" d="M417.594,1683.319c0,.067-3.921.116-8.756.116s-8.762-.05-8.762-.116,3.921-.122,8.762-.122S417.594,1683.253,417.594,1683.319Z" transform="translate(-379.487 -1596.053)" fill="#e0e0e0"/>
        <rect id="Rectángulo_7813" data-name="Rectángulo 7813" width="2.967" height="6.255" transform="translate(9.832 28.264)" fill="#fafafa"/>
        <path id="Trazado_104359" data-name="Trazado 104359" d="M385.724,1592.624c0,.067-3.921.122-8.756.122s-8.762-.055-8.762-.122,3.92-.116,8.762-.116S385.724,1592.557,385.724,1592.624Z" transform="translate(-365.289 -1555.653)" fill="#e0e0e0"/>
        <rect id="Rectángulo_7814" data-name="Rectángulo 7814" width="2.967" height="6.255" transform="translate(9.832 40.869)" fill="#fafafa"/>
        <path id="Trazado_104360" data-name="Trazado 104360" d="M385.724,1615.359c0,.061-3.921.116-8.756.116s-8.762-.055-8.762-.116,3.92-.122,8.762-.122S385.724,1615.309,385.724,1615.359Z" transform="translate(-365.289 -1565.779)" fill="#e0e0e0"/>
        <rect id="Rectángulo_7815" data-name="Rectángulo 7815" width="2.967" height="6.255" transform="translate(9.832 53.473)" fill="#fafafa"/>
        <path id="Trazado_104361" data-name="Trazado 104361" d="M385.724,1638.089c0,.067-3.921.116-8.756.116s-8.762-.05-8.762-.116,3.92-.122,8.762-.122S385.724,1638.022,385.724,1638.089Z" transform="translate(-365.289 -1575.904)" fill="#e0e0e0"/>
        <rect id="Rectángulo_7816" data-name="Rectángulo 7816" width="2.967" height="6.255" transform="translate(9.832 66.083)" fill="#fafafa"/>
        <path id="Trazado_104362" data-name="Trazado 104362" d="M385.724,1660.824c0,.067-3.921.122-8.756.122s-8.762-.055-8.762-.122,3.92-.117,8.762-.117S385.724,1660.757,385.724,1660.824Z" transform="translate(-365.289 -1586.034)" fill="#e0e0e0"/>
        <rect id="Rectángulo_7817" data-name="Rectángulo 7817" width="2.967" height="6.255" transform="translate(9.832 78.687)" fill="#fafafa"/>
        <path id="Trazado_104363" data-name="Trazado 104363" d="M385.724,1683.553c0,.067-3.921.122-8.756.122s-8.762-.055-8.762-.122,3.92-.116,8.762-.116S385.724,1683.487,385.724,1683.553Z" transform="translate(-365.289 -1596.16)" fill="#e0e0e0"/>
        <rect id="Rectángulo_7818" data-name="Rectángulo 7818" width="2.967" height="6.255" transform="translate(9.832 91.292)" fill="#fafafa"/>
      </g>
      <g id="Grupo_56626" data-name="Grupo 56626" transform="translate(82.026 98.054)">
        <rect id="Rectángulo_7819" data-name="Rectángulo 7819" width="35.041" height="111.044" transform="translate(2.917 10.902)" fill="#aed3f2"/>
        <rect id="Rectángulo_7820" data-name="Rectángulo 7820" width="17.518" height="110.739" transform="translate(20.44 10.902)" fill="#839eb6"/>
        <rect id="Rectángulo_7821" data-name="Rectángulo 7821" width="12.372" height="10.902" transform="translate(6.921)" fill="#aed3f2"/>
        <rect id="Rectángulo_7822" data-name="Rectángulo 7822" width="2.95" height="10.902" transform="translate(16.342)" fill="#839eb6"/>
        <path id="Trazado_104364" data-name="Trazado 104364" d="M425.8,1545.194v-.638H464.78v.638" transform="translate(-425.796 -1534.292)" fill="#e0e0e0"/>
        <rect id="Rectángulo_7823" data-name="Rectángulo 7823" width="2.967" height="6.255" transform="translate(9.832 15.654)" fill="#fafafa"/>
        <path id="Trazado_104365" data-name="Trazado 104365" d="M448.579,1569.889c0,.061-3.926.116-8.762.116s-8.762-.055-8.762-.116,3.921-.122,8.762-.122S448.579,1569.822,448.579,1569.889Z" transform="translate(-428.139 -1545.523)" fill="#e0e0e0"/>
        <rect id="Rectángulo_7824" data-name="Rectángulo 7824" width="2.967" height="6.255" transform="translate(27.505 15.654)" fill="#e0e0e0"/>
        <path id="Trazado_104366" data-name="Trazado 104366" d="M480.443,1569.889c0,.061-3.92.116-8.756.116s-8.762-.055-8.762-.116,3.921-.122,8.762-.122S480.443,1569.822,480.443,1569.889Z" transform="translate(-442.337 -1545.523)" fill="#e0e0e0"/>
        <rect id="Rectángulo_7825" data-name="Rectángulo 7825" width="2.967" height="6.255" transform="translate(27.505 28.07)" fill="#e0e0e0"/>
        <path id="Trazado_104367" data-name="Trazado 104367" d="M480.443,1592.279c0,.066-3.92.116-8.756.116s-8.762-.05-8.762-.116,3.921-.122,8.762-.122S480.443,1592.229,480.443,1592.279Z" transform="translate(-442.337 -1555.497)" fill="#e0e0e0"/>
        <rect id="Rectángulo_7826" data-name="Rectángulo 7826" width="2.967" height="6.255" transform="translate(27.505 40.863)" fill="#e0e0e0"/>
        <path id="Trazado_104368" data-name="Trazado 104368" d="M480.443,1615.344c0,.067-3.92.122-8.756.122s-8.762-.055-8.762-.122,3.921-.117,8.762-.117S480.443,1615.26,480.443,1615.344Z" transform="translate(-442.337 -1565.774)" fill="#e0e0e0"/>
        <rect id="Rectángulo_7827" data-name="Rectángulo 7827" width="2.967" height="6.255" transform="translate(27.505 53.656)" fill="#e0e0e0"/>
        <path id="Trazado_104369" data-name="Trazado 104369" d="M480.443,1638.409c0,.067-3.92.117-8.756.117s-8.762-.05-8.762-.117,3.921-.122,8.762-.122S480.443,1638.342,480.443,1638.409Z" transform="translate(-442.337 -1576.047)" fill="#e0e0e0"/>
        <rect id="Rectángulo_7828" data-name="Rectángulo 7828" width="2.967" height="6.255" transform="translate(27.505 66.078)" fill="#e0e0e0"/>
        <path id="Trazado_104370" data-name="Trazado 104370" d="M480.443,1660.819c0,.067-3.92.116-8.756.116s-8.762-.05-8.762-.116,3.921-.122,8.762-.122S480.443,1660.753,480.443,1660.819Z" transform="translate(-442.337 -1586.03)" fill="#e0e0e0"/>
        <rect id="Rectángulo_7829" data-name="Rectángulo 7829" width="2.967" height="6.255" transform="translate(27.505 78.554)" fill="#e0e0e0"/>
        <rect id="Rectángulo_7830" data-name="Rectángulo 7830" width="2.967" height="6.255" transform="translate(27.505 91.192)" fill="#e0e0e0"/>
        <path id="Trazado_104371" data-name="Trazado 104371" d="M480.443,1683.314c0,.067-3.92.122-8.756.122s-8.762-.055-8.762-.122,3.921-.116,8.762-.116S480.443,1683.247,480.443,1683.314Z" transform="translate(-442.337 -1596.053)" fill="#e0e0e0"/>
        <rect id="Rectángulo_7831" data-name="Rectángulo 7831" width="2.967" height="6.255" transform="translate(9.832 28.259)" fill="#fafafa"/>
        <path id="Trazado_104372" data-name="Trazado 104372" d="M448.579,1592.619c0,.067-3.926.116-8.762.116s-8.762-.05-8.762-.116,3.921-.122,8.762-.122S448.579,1592.552,448.579,1592.619Z" transform="translate(-428.139 -1555.649)" fill="#e0e0e0"/>
        <rect id="Rectángulo_7832" data-name="Rectángulo 7832" width="2.967" height="6.255" transform="translate(9.832 40.869)" fill="#fafafa"/>
        <path id="Trazado_104373" data-name="Trazado 104373" d="M448.579,1615.354c0,.067-3.926.122-8.762.122s-8.762-.055-8.762-.122,3.921-.117,8.762-.117S448.579,1615.265,448.579,1615.354Z" transform="translate(-428.139 -1565.779)" fill="#e0e0e0"/>
        <rect id="Rectángulo_7833" data-name="Rectángulo 7833" width="2.967" height="6.255" transform="translate(9.832 53.473)" fill="#fafafa"/>
        <path id="Trazado_104374" data-name="Trazado 104374" d="M448.579,1638.083c0,.067-3.926.122-8.762.122s-8.762-.055-8.762-.122,3.921-.116,8.762-.116S448.579,1638.017,448.579,1638.083Z" transform="translate(-428.139 -1575.904)" fill="#e0e0e0"/>
        <rect id="Rectángulo_7834" data-name="Rectángulo 7834" width="2.967" height="6.255" transform="translate(9.832 66.078)" fill="#fafafa"/>
        <path id="Trazado_104375" data-name="Trazado 104375" d="M448.579,1660.819c0,.067-3.926.116-8.762.116s-8.762-.05-8.762-.116,3.921-.122,8.762-.122S448.579,1660.753,448.579,1660.819Z" transform="translate(-428.139 -1586.03)" fill="#e0e0e0"/>
        <rect id="Rectángulo_7835" data-name="Rectángulo 7835" width="2.967" height="6.255" transform="translate(9.832 78.682)" fill="#fafafa"/>
        <path id="Trazado_104376" data-name="Trazado 104376" d="M448.579,1683.549c0,.067-3.926.117-8.762.117s-8.762-.05-8.762-.117,3.921-.122,8.762-.122S448.579,1683.482,448.579,1683.549Z" transform="translate(-428.139 -1596.155)" fill="#e0e0e0"/>
        <rect id="Rectángulo_7836" data-name="Rectángulo 7836" width="2.967" height="6.255" transform="translate(9.832 91.292)" fill="#fafafa"/>
      </g>
      <g id="Grupo_56627" data-name="Grupo 56627" transform="translate(0 122.47)">
        <path id="Trazado_104377" data-name="Trazado 104377" d="M337.408,1680.495h-51.56l-.222-81.488h51.56Z" transform="translate(-281.329 -1582.965)" fill="#839eb6"/>
        <rect id="Rectángulo_7837" data-name="Rectángulo 7837" width="25.78" height="81.488" transform="translate(30.078 16.042)" fill="#e0e0e0"/>
        <rect id="Rectángulo_7838" data-name="Rectángulo 7838" width="18.205" height="16.042" transform="translate(10.181)" fill="#839eb6"/>
        <rect id="Rectángulo_7839" data-name="Rectángulo 7839" width="4.342" height="16.042" transform="translate(24.05)" fill="#e0e0e0"/>
        <rect id="Rectángulo_7840" data-name="Rectángulo 7840" width="57.366" height="0.937" transform="translate(0 15.105)" fill="#e0e0e0"/>
        <rect id="Rectángulo_7841" data-name="Rectángulo 7841" width="4.364" height="9.205" transform="translate(14.473 23.041)" fill="#fff"/>
        <path id="Trazado_104378" data-name="Trazado 104378" d="M311.376,1634.595c0,.094-5.773.172-12.893.172s-12.887-.078-12.887-.172,5.767-.177,12.887-.177S311.376,1634.517,311.376,1634.595Z" transform="translate(-281.315 -1598.739)" fill="#e0e0e0"/>
        <rect id="Rectángulo_7842" data-name="Rectángulo 7842" width="4.364" height="9.205" transform="translate(40.48 23.041)" fill="#aed3f2"/>
        <path id="Trazado_104379" data-name="Trazado 104379" d="M358.3,1634.595c0,.094-5.773.172-12.887.172s-12.893-.078-12.893-.172,5.773-.177,12.893-.177S358.3,1634.517,358.3,1634.595Z" transform="translate(-302.217 -1598.739)" fill="#839eb6"/>
        <rect id="Rectángulo_7843" data-name="Rectángulo 7843" width="4.364" height="9.205" transform="translate(40.48 41.312)" fill="#aed3f2"/>
        <path id="Trazado_104380" data-name="Trazado 104380" d="M358.3,1667.539c0,.1-5.773.177-12.887.177s-12.893-.078-12.893-.177,5.773-.172,12.893-.172S358.3,1667.445,358.3,1667.539Z" transform="translate(-302.217 -1613.417)" fill="#839eb6"/>
        <rect id="Rectángulo_7844" data-name="Rectángulo 7844" width="4.364" height="9.205" transform="translate(40.48 60.133)" fill="#aed3f2"/>
        <path id="Trazado_104381" data-name="Trazado 104381" d="M358.3,1701.455c0,.094-5.773.172-12.887.172s-12.893-.078-12.893-.172,5.773-.177,12.893-.177S358.3,1701.371,358.3,1701.455Z" transform="translate(-302.217 -1628.523)" fill="#839eb6"/>
        <rect id="Rectángulo_7845" data-name="Rectángulo 7845" width="4.364" height="9.205" transform="translate(40.48 78.954)" fill="#aed3f2"/>
        <path id="Trazado_104382" data-name="Trazado 104382" d="M358.3,1735.454c0,.1-5.773.177-12.887.177s-12.893-.078-12.893-.177,5.773-.177,12.893-.177S358.3,1735.344,358.3,1735.454Z" transform="translate(-302.217 -1643.669)" fill="#839eb6"/>
        <rect id="Rectángulo_7846" data-name="Rectángulo 7846" width="4.364" height="9.205" transform="translate(14.473 41.59)" fill="#fff"/>
        <path id="Trazado_104383" data-name="Trazado 104383" d="M311.376,1668.044c0,.094-5.773.172-12.893.172s-12.887-.078-12.887-.172,5.767-.177,12.887-.177S311.376,1667.945,311.376,1668.044Z" transform="translate(-281.315 -1613.64)" fill="#e0e0e0"/>
        <rect id="Rectángulo_7847" data-name="Rectángulo 7847" width="4.364" height="9.205" transform="translate(14.473 60.138)" fill="#fff"/>
        <path id="Trazado_104384" data-name="Trazado 104384" d="M311.376,1701.455c0,.094-5.773.177-12.893.177s-12.887-.083-12.887-.177,5.767-.177,12.887-.177S311.376,1701.377,311.376,1701.455Z" transform="translate(-281.315 -1628.523)" fill="#e0e0e0"/>
        <rect id="Rectángulo_7848" data-name="Rectángulo 7848" width="4.364" height="9.205" transform="translate(14.473 78.687)" fill="#fff"/>
        <path id="Trazado_104385" data-name="Trazado 104385" d="M311.376,1734.945c0,.1-5.773.177-12.893.177s-12.887-.078-12.887-.177,5.767-.177,12.887-.177S311.376,1734.85,311.376,1734.945Z" transform="translate(-281.315 -1643.442)" fill="#e0e0e0"/>
      </g>
      <path id="Trazado_104386" data-name="Trazado 104386" d="M786.253,1627.454h-51.56l-.222-81.488h51.56Z" transform="translate(-481.277 -1436.867)" fill="#839eb6"/>
      <rect id="Rectángulo_7849" data-name="Rectángulo 7849" width="25.78" height="81.488" transform="translate(278.974 109.1)" fill="#e0e0e0"/>
      <rect id="Rectángulo_7850" data-name="Rectángulo 7850" width="18.205" height="16.042" transform="translate(259.083 93.058)" fill="#839eb6"/>
      <rect id="Rectángulo_7851" data-name="Rectángulo 7851" width="4.342" height="16.042" transform="translate(272.947 93.058)" fill="#e0e0e0"/>
      <rect id="Rectángulo_7852" data-name="Rectángulo 7852" width="57.366" height="0.937" transform="translate(248.897 108.168)" fill="#e0e0e0"/>
      <rect id="Rectángulo_7853" data-name="Rectángulo 7853" width="4.364" height="9.205" transform="translate(263.37 116.098)" fill="#fff"/>
      <path id="Trazado_104387" data-name="Trazado 104387" d="M760.251,1581.554c0,.094-5.773.177-12.893.177s-12.887-.083-12.887-.177,5.767-.177,12.887-.177S760.251,1581.455,760.251,1581.554Z" transform="translate(-481.277 -1452.641)" fill="#e0e0e0"/>
      <rect id="Rectángulo_7854" data-name="Rectángulo 7854" width="4.364" height="9.205" transform="translate(289.377 116.098)" fill="#aed3f2"/>
      <path id="Trazado_104388" data-name="Trazado 104388" d="M807.141,1581.554c0,.094-5.767.177-12.887.177s-12.893-.083-12.893-.177,5.773-.177,12.893-.177S807.141,1581.455,807.141,1581.554Z" transform="translate(-502.165 -1452.641)" fill="#839eb6"/>
      <rect id="Rectángulo_7855" data-name="Rectángulo 7855" width="4.364" height="9.205" transform="translate(289.377 134.37)" fill="#aed3f2"/>
      <path id="Trazado_104389" data-name="Trazado 104389" d="M807.141,1614.5c0,.094-5.767.172-12.887.172s-12.893-.078-12.893-.172,5.773-.177,12.893-.177S807.141,1614.4,807.141,1614.5Z" transform="translate(-502.165 -1467.32)" fill="#839eb6"/>
      <rect id="Rectángulo_7856" data-name="Rectángulo 7856" width="4.364" height="9.205" transform="translate(289.377 153.19)" fill="#aed3f2"/>
      <path id="Trazado_104390" data-name="Trazado 104390" d="M807.141,1648.445c0,.094-5.767.177-12.887.177s-12.893-.083-12.893-.177,5.773-.177,12.893-.177S807.141,1648.345,807.141,1648.445Z" transform="translate(-502.165 -1482.439)" fill="#839eb6"/>
      <rect id="Rectángulo_7857" data-name="Rectángulo 7857" width="4.364" height="9.205" transform="translate(289.377 172.011)" fill="#aed3f2"/>
      <path id="Trazado_104391" data-name="Trazado 104391" d="M807.141,1682.389c0,.1-5.767.178-12.887.178s-12.893-.078-12.893-.178,5.773-.172,12.893-.172S807.141,1682.295,807.141,1682.389Z" transform="translate(-502.165 -1497.563)" fill="#839eb6"/>
      <rect id="Rectángulo_7858" data-name="Rectángulo 7858" width="4.364" height="9.205" transform="translate(263.37 134.647)" fill="#fff"/>
      <path id="Trazado_104392" data-name="Trazado 104392" d="M760.251,1615c0,.094-5.773.177-12.893.177s-12.887-.083-12.887-.177,5.767-.177,12.887-.177S760.251,1614.9,760.251,1615Z" transform="translate(-481.277 -1467.542)" fill="#e0e0e0"/>
      <rect id="Rectángulo_7859" data-name="Rectángulo 7859" width="4.364" height="9.205" transform="translate(263.37 153.196)" fill="#fff"/>
      <path id="Trazado_104393" data-name="Trazado 104393" d="M760.251,1648.455c0,.1-5.773.177-12.893.177s-12.887-.078-12.887-.177,5.767-.178,12.887-.178S760.251,1648.36,760.251,1648.455Z" transform="translate(-481.277 -1482.443)" fill="#e0e0e0"/>
      <rect id="Rectángulo_7860" data-name="Rectángulo 7860" width="4.364" height="9.205" transform="translate(263.37 171.745)" fill="#fff"/>
      <path id="Trazado_104394" data-name="Trazado 104394" d="M760.251,1681.889c0,.1-5.773.177-12.893.177s-12.887-.078-12.887-.177,5.767-.172,12.887-.172S760.251,1681.806,760.251,1681.889Z" transform="translate(-481.277 -1497.34)" fill="#e0e0e0"/>
      <rect id="Rectángulo_7861" data-name="Rectángulo 7861" width="35.041" height="111.044" transform="translate(381.507 108.229)" fill="#aed3f2"/>
      <rect id="Rectángulo_7862" data-name="Rectángulo 7862" width="17.518" height="110.739" transform="translate(399.024 108.229)" fill="#839eb6"/>
      <rect id="Rectángulo_7863" data-name="Rectángulo 7863" width="12.372" height="10.902" transform="translate(385.51 97.327)" fill="#aed3f2"/>
      <rect id="Rectángulo_7864" data-name="Rectángulo 7864" width="2.95" height="10.902" transform="translate(394.932 97.327)" fill="#839eb6"/>
      <path id="Trazado_104395" data-name="Trazado 104395" d="M960.591,1543.889v-.632H999.58v.632" transform="translate(-582.007 -1435.659)" fill="#e0e0e0"/>
      <rect id="Rectángulo_7865" data-name="Rectángulo 7865" width="2.967" height="6.255" transform="translate(388.422 112.987)" fill="#fafafa"/>
      <path id="Trazado_104396" data-name="Trazado 104396" d="M983.379,1568.583c0,.067-3.921.122-8.756.122s-8.761-.056-8.761-.122,3.92-.116,8.761-.116S983.379,1568.517,983.379,1568.583Z" transform="translate(-584.355 -1446.89)" fill="#e0e0e0"/>
      <rect id="Rectángulo_7866" data-name="Rectángulo 7866" width="2.967" height="6.255" transform="translate(406.094 112.987)" fill="#e0e0e0"/>
      <path id="Trazado_104397" data-name="Trazado 104397" d="M1015.249,1568.583c0,.067-3.921.122-8.756.122s-8.761-.056-8.761-.122,3.92-.116,8.761-.116S1015.249,1568.517,1015.249,1568.583Z" transform="translate(-598.552 -1446.89)" fill="#e0e0e0"/>
      <rect id="Rectángulo_7867" data-name="Rectángulo 7867" width="2.967" height="6.255" transform="translate(406.094 125.403)" fill="#e0e0e0"/>
      <path id="Trazado_104398" data-name="Trazado 104398" d="M1015.249,1590.933c0,.067-3.921.122-8.756.122s-8.761-.056-8.761-.122,3.92-.116,8.761-.116S1015.249,1590.889,1015.249,1590.933Z" transform="translate(-598.552 -1456.846)" fill="#e0e0e0"/>
      <rect id="Rectángulo_7868" data-name="Rectángulo 7868" width="2.967" height="6.255" transform="translate(406.094 138.196)" fill="#e0e0e0"/>
      <path id="Trazado_104399" data-name="Trazado 104399" d="M1015.249,1614.039c0,.067-3.921.116-8.756.116s-8.761-.05-8.761-.116,3.92-.122,8.761-.122S1015.249,1613.978,1015.249,1614.039Z" transform="translate(-598.552 -1467.137)" fill="#e0e0e0"/>
      <rect id="Rectángulo_7869" data-name="Rectángulo 7869" width="2.967" height="6.255" transform="translate(406.094 150.983)" fill="#e0e0e0"/>
      <path id="Trazado_104400" data-name="Trazado 104400" d="M1015.249,1637.109c0,.061-3.921.116-8.756.116s-8.761-.055-8.761-.116,3.92-.122,8.761-.122S1015.249,1637.043,1015.249,1637.109Z" transform="translate(-598.552 -1477.414)" fill="#e0e0e0"/>
      <rect id="Rectángulo_7870" data-name="Rectángulo 7870" width="2.967" height="6.255" transform="translate(406.094 163.41)" fill="#e0e0e0"/>
      <path id="Trazado_104401" data-name="Trazado 104401" d="M1015.249,1659.514c0,.067-3.921.122-8.756.122s-8.761-.055-8.761-.122,3.92-.116,8.761-.116S1015.249,1659.447,1015.249,1659.514Z" transform="translate(-598.552 -1487.397)" fill="#e0e0e0"/>
      <rect id="Rectángulo_7871" data-name="Rectángulo 7871" width="2.967" height="6.255" transform="translate(406.094 175.887)" fill="#e0e0e0"/>
      <rect id="Rectángulo_7872" data-name="Rectángulo 7872" width="2.967" height="6.255" transform="translate(406.094 188.525)" fill="#e0e0e0"/>
      <path id="Trazado_104402" data-name="Trazado 104402" d="M1015.249,1682.009c0,.067-3.921.116-8.756.116s-8.761-.05-8.761-.116,3.92-.122,8.761-.122S1015.249,1681.965,1015.249,1682.009Z" transform="translate(-598.552 -1497.416)" fill="#e0e0e0"/>
      <rect id="Rectángulo_7873" data-name="Rectángulo 7873" width="2.967" height="6.255" transform="translate(388.422 125.592)" fill="#fafafa"/>
      <path id="Trazado_104403" data-name="Trazado 104403" d="M983.379,1591.313c0,.067-3.921.122-8.756.122s-8.761-.055-8.761-.122,3.92-.116,8.761-.116S983.379,1591.252,983.379,1591.313Z" transform="translate(-584.355 -1457.016)" fill="#e0e0e0"/>
      <rect id="Rectángulo_7874" data-name="Rectángulo 7874" width="2.967" height="6.255" transform="translate(388.422 138.196)" fill="#fafafa"/>
      <path id="Trazado_104404" data-name="Trazado 104404" d="M983.379,1614.049c0,.067-3.921.117-8.756.117s-8.761-.05-8.761-.117,3.92-.122,8.761-.122S983.379,1613.983,983.379,1614.049Z" transform="translate(-584.355 -1467.141)" fill="#e0e0e0"/>
      <rect id="Rectángulo_7875" data-name="Rectángulo 7875" width="2.967" height="6.255" transform="translate(388.422 150.806)" fill="#fafafa"/>
      <path id="Trazado_104405" data-name="Trazado 104405" d="M983.379,1636.779c0,.067-3.921.122-8.756.122s-8.761-.056-8.761-.122,3.92-.122,8.761-.122S983.379,1636.712,983.379,1636.779Z" transform="translate(-584.355 -1477.267)" fill="#e0e0e0"/>
      <rect id="Rectángulo_7876" data-name="Rectángulo 7876" width="2.967" height="6.255" transform="translate(388.422 163.41)" fill="#fafafa"/>
      <path id="Trazado_104406" data-name="Trazado 104406" d="M983.379,1659.514c0,.067-3.921.122-8.756.122s-8.761-.055-8.761-.122,3.92-.116,8.761-.116S983.379,1659.447,983.379,1659.514Z" transform="translate(-584.355 -1487.397)" fill="#e0e0e0"/>
      <rect id="Rectángulo_7877" data-name="Rectángulo 7877" width="2.967" height="6.255" transform="translate(388.422 176.015)" fill="#fafafa"/>
      <path id="Trazado_104407" data-name="Trazado 104407" d="M983.379,1682.244c0,.067-3.921.122-8.756.122s-8.761-.055-8.761-.122,3.92-.117,8.761-.117S983.379,1682.183,983.379,1682.244Z" transform="translate(-584.355 -1497.522)" fill="#e0e0e0"/>
      <rect id="Rectángulo_7878" data-name="Rectángulo 7878" width="2.967" height="6.255" transform="translate(388.422 188.619)" fill="#fafafa"/>
      <rect id="Rectángulo_7879" data-name="Rectángulo 7879" width="25.869" height="81.976" transform="translate(415.272 137.203)" fill="#aed3f2"/>
      <rect id="Rectángulo_7880" data-name="Rectángulo 7880" width="12.932" height="81.748" transform="translate(428.203 137.203)" fill="#839eb6"/>
      <rect id="Rectángulo_7881" data-name="Rectángulo 7881" width="9.133" height="8.046" transform="translate(418.227 129.152)" fill="#aed3f2"/>
      <rect id="Rectángulo_7882" data-name="Rectángulo 7882" width="2.179" height="8.046" transform="translate(425.181 129.152)" fill="#839eb6"/>
      <path id="Trazado_104408" data-name="Trazado 104408" d="M1022.861,1596.268v-.471h28.78v.471" transform="translate(-609.747 -1459.065)" fill="#e0e0e0"/>
      <rect id="Rectángulo_7883" data-name="Rectángulo 7883" width="2.19" height="4.619" transform="translate(420.379 140.714)" fill="#fafafa"/>
      <path id="Trazado_104409" data-name="Trazado 104409" d="M1039.683,1614.5c0,.05-2.895.089-6.466.089s-6.466-.039-6.466-.089,2.895-.089,6.466-.089S1039.683,1614.446,1039.683,1614.5Z" transform="translate(-611.479 -1467.355)" fill="#e0e0e0"/>
      <rect id="Rectángulo_7884" data-name="Rectángulo 7884" width="2.19" height="4.619" transform="translate(433.427 140.714)" fill="#e0e0e0"/>
      <path id="Trazado_104410" data-name="Trazado 104410" d="M1063.2,1614.5c0,.05-2.895.089-6.466.089s-6.466-.039-6.466-.089,2.895-.089,6.466-.089S1063.2,1614.446,1063.2,1614.5Z" transform="translate(-621.957 -1467.355)" fill="#e0e0e0"/>
      <rect id="Rectángulo_7885" data-name="Rectángulo 7885" width="2.19" height="4.619" transform="translate(433.427 149.88)" fill="#e0e0e0"/>
      <path id="Trazado_104411" data-name="Trazado 104411" d="M1063.2,1631.026c0,.05-2.895.089-6.466.089s-6.466-.039-6.466-.089,2.895-.089,6.466-.089S1063.2,1630.987,1063.2,1631.026Z" transform="translate(-621.957 -1474.719)" fill="#e0e0e0"/>
      <rect id="Rectángulo_7886" data-name="Rectángulo 7886" width="2.19" height="4.619" transform="translate(433.427 159.318)" fill="#e0e0e0"/>
      <path id="Trazado_104412" data-name="Trazado 104412" d="M1063.2,1648.056c0,.044-2.895.089-6.466.089s-6.466-.044-6.466-.089,2.895-.089,6.466-.089S1063.2,1648,1063.2,1648.056Z" transform="translate(-621.957 -1482.305)" fill="#e0e0e0"/>
      <rect id="Rectángulo_7887" data-name="Rectángulo 7887" width="2.19" height="4.619" transform="translate(433.427 168.762)" fill="#e0e0e0"/>
      <path id="Trazado_104413" data-name="Trazado 104413" d="M1063.2,1665.08c0,.05-2.895.089-6.466.089s-6.466-.039-6.466-.089,2.895-.083,6.466-.083S1063.2,1665.014,1063.2,1665.08Z" transform="translate(-621.957 -1489.891)" fill="#e0e0e0"/>
      <rect id="Rectángulo_7888" data-name="Rectángulo 7888" width="2.19" height="4.619" transform="translate(433.427 177.933)" fill="#e0e0e0"/>
      <path id="Trazado_104414" data-name="Trazado 104414" d="M1063.2,1681.626c0,.044-2.895.083-6.466.083s-6.466-.039-6.466-.083,2.895-.089,6.466-.089S1063.2,1681.576,1063.2,1681.626Z" transform="translate(-621.957 -1497.26)" fill="#e0e0e0"/>
      <rect id="Rectángulo_7889" data-name="Rectángulo 7889" width="2.19" height="4.619" transform="translate(433.427 187.144)" fill="#e0e0e0"/>
      <rect id="Rectángulo_7890" data-name="Rectángulo 7890" width="2.19" height="4.619" transform="translate(433.427 196.477)" fill="#e0e0e0"/>
      <path id="Trazado_104415" data-name="Trazado 104415" d="M1063.2,1698.226c0,.05-2.895.089-6.466.089s-6.466-.039-6.466-.089,2.895-.089,6.466-.089S1063.2,1698.181,1063.2,1698.226Z" transform="translate(-621.957 -1504.655)" fill="#e0e0e0"/>
      <rect id="Rectángulo_7891" data-name="Rectángulo 7891" width="2.19" height="4.619" transform="translate(420.379 150.019)" fill="#fafafa"/>
      <path id="Trazado_104416" data-name="Trazado 104416" d="M1039.683,1631.276c0,.05-2.895.089-6.466.089s-6.466-.039-6.466-.089,2.895-.089,6.466-.089S1039.683,1631.226,1039.683,1631.276Z" transform="translate(-611.479 -1474.83)" fill="#e0e0e0"/>
      <rect id="Rectángulo_7892" data-name="Rectángulo 7892" width="2.19" height="4.619" transform="translate(420.379 159.324)" fill="#fafafa"/>
      <path id="Trazado_104417" data-name="Trazado 104417" d="M1039.683,1648.056c0,.05-2.895.089-6.466.089s-6.466-.039-6.466-.089,2.895-.089,6.466-.089S1039.683,1648,1039.683,1648.056Z" transform="translate(-611.479 -1482.305)" fill="#e0e0e0"/>
      <rect id="Rectángulo_7893" data-name="Rectángulo 7893" width="2.19" height="4.619" transform="translate(420.379 168.629)" fill="#fafafa"/>
      <path id="Trazado_104418" data-name="Trazado 104418" d="M1039.683,1664.84c0,.05-2.895.089-6.466.089s-6.466-.039-6.466-.089,2.895-.083,6.466-.083S1039.683,1664.8,1039.683,1664.84Z" transform="translate(-611.479 -1489.785)" fill="#e0e0e0"/>
      <rect id="Rectángulo_7894" data-name="Rectángulo 7894" width="2.19" height="4.619" transform="translate(420.379 177.933)" fill="#fafafa"/>
      <path id="Trazado_104419" data-name="Trazado 104419" d="M1039.683,1681.626c0,.044-2.895.083-6.466.083s-6.466-.039-6.466-.083,2.895-.089,6.466-.089S1039.683,1681.576,1039.683,1681.626Z" transform="translate(-611.479 -1497.26)" fill="#e0e0e0"/>
      <rect id="Rectángulo_7895" data-name="Rectángulo 7895" width="2.19" height="4.619" transform="translate(420.379 187.238)" fill="#fafafa"/>
      <path id="Trazado_104420" data-name="Trazado 104420" d="M1039.683,1698.406c0,.044-2.895.088-6.466.088s-6.466-.044-6.466-.088,2.895-.089,6.466-.089S1039.683,1698.356,1039.683,1698.406Z" transform="translate(-611.479 -1504.735)" fill="#e0e0e0"/>
      <rect id="Rectángulo_7896" data-name="Rectángulo 7896" width="2.19" height="4.619" transform="translate(420.379 196.549)" fill="#fafafa"/>
      <path id="Trazado_104421" data-name="Trazado 104421" d="M1025.42,1462.937c.477-3.466-4.436-6.322-8.1-6.615-1.752-.144-3.577.128-5.24-.455-3.6-1.253-5.035-5.906-8.551-7.386-2.623-1.109-5.651-.122-8.2,1.159s-5.063,2.895-7.908,3.078c-2.473.155-5.163-.76-7.325.449-1.614.9-2.462,2.773-3.948,3.882a9.1,9.1,0,0,1-5.157,1.4,14.343,14.343,0,0,0-5.318.87c-1.647.754-3,2.49-2.662,4.264Z" transform="translate(-583.065 -1393.225)" fill="#aed3f2"/>
      <path id="Trazado_104422" data-name="Trazado 104422" d="M463.929,1438.78c.477-3.466-4.436-6.322-8.1-6.615-1.752-.144-3.577.128-5.235-.455-3.6-1.253-5.041-5.906-8.556-7.386-2.623-1.109-5.651-.122-8.2,1.159s-5.063,2.895-7.908,3.078c-2.473.155-5.163-.76-7.325.449-1.614.9-2.462,2.773-3.948,3.854a9.373,9.373,0,0,1-5.157,1.4,14.454,14.454,0,0,0-5.318.865c-1.647.754-3,2.49-2.662,4.264Z" transform="translate(-332.937 -1382.464)" fill="#aed3f2"/>
      <path id="Trazado_104423" data-name="Trazado 104423" d="M838.943,1450.768c.41-3.017-3.848-5.5-7.048-5.756-1.525-.122-3.111.111-4.553-.394-3.133-1.109-4.386-5.14-7.442-6.427-2.285-.965-4.913-.105-7.131,1.009s-4.4,2.518-6.876,2.673c-2.157.139-4.492-.66-6.377.394-1.4.782-2.135,2.4-3.432,3.355a8.259,8.259,0,0,1-4.486,1.214,13.081,13.081,0,0,0-4.625.76,3.656,3.656,0,0,0-2.318,3.71Z" transform="translate(-503.612 -1388.669)" fill="#aed3f2"/>
    </g>
    <g id="freepik--Floor--inject-49" transform="translate(343.08 1568.319)">
      <g id="Grupo_56628" data-name="Grupo 56628" transform="translate(0)" opacity="0.3">
        <path id="Trazado_104424" data-name="Trazado 104424" d="M792.647,1744.471c0,.078-88.918.144-198.582.144s-198.6-.067-198.6-.144,88.9-.144,198.6-.144S792.647,1744.388,792.647,1744.471Z" transform="translate(-395.461 -1744.327)"/>
      </g>
    </g>
    <g id="freepik--Factory--inject-49" transform="translate(357.285 1394.203)">
      <path id="Trazado_104425" data-name="Trazado 104425" d="M837,1574.829v-58.6h4.092v-8.185h57.294v8.185h3.776v58.6Z" transform="translate(-606.36 -1464.955)" fill="#5e6178"/>
      <path id="Trazado_104426" data-name="Trazado 104426" d="M900.339,1522.751c0,.078-14.179.144-31.669.144s-31.669-.067-31.669-.144,14.179-.144,31.669-.144S900.339,1522.668,900.339,1522.751Z" transform="translate(-606.359 -1471.441)" fill="#344154"/>
      <rect id="Rectángulo_7897" data-name="Rectángulo 7897" width="53.75" height="5.945" transform="translate(236.42 55.169)" fill="#fff"/>
      <path id="Trazado_104427" data-name="Trazado 104427" d="M855.66,1535.772a30.712,30.712,0,0,1,0-5.945,30.686,30.686,0,0,1,0,5.945Z" transform="translate(-614.599 -1474.658)" fill="#e0e0e0"/>
      <path id="Trazado_104428" data-name="Trazado 104428" d="M864.281,1535.772a30.712,30.712,0,0,1,0-5.945,30.712,30.712,0,0,1,0,5.945Z" transform="translate(-618.44 -1474.658)" fill="#e0e0e0"/>
      <path id="Trazado_104429" data-name="Trazado 104429" d="M872.911,1535.772a30.712,30.712,0,0,1,0-5.945,30.712,30.712,0,0,1,0,5.945Z" transform="translate(-622.285 -1474.658)" fill="#e0e0e0"/>
      <path id="Trazado_104430" data-name="Trazado 104430" d="M881.542,1535.772a30.712,30.712,0,0,1,0-5.945,30.712,30.712,0,0,1,0,5.945Z" transform="translate(-626.129 -1474.658)" fill="#e0e0e0"/>
      <path id="Trazado_104431" data-name="Trazado 104431" d="M890.17,1535.772a30.712,30.712,0,0,1,0-5.945,30.725,30.725,0,0,1,0,5.945Z" transform="translate(-629.972 -1474.658)" fill="#e0e0e0"/>
      <path id="Trazado_104432" data-name="Trazado 104432" d="M898.792,1535.772a30.7,30.7,0,0,1,0-5.945,30.725,30.725,0,0,1,0,5.945Z" transform="translate(-633.814 -1474.658)" fill="#e0e0e0"/>
      <path id="Trazado_104433" data-name="Trazado 104433" d="M907.461,1535.772a30.712,30.712,0,0,1,0-5.945,30.712,30.712,0,0,1,0,5.945Z" transform="translate(-637.676 -1474.658)" fill="#e0e0e0"/>
      <path id="Trazado_104434" data-name="Trazado 104434" d="M916.05,1535.772a30.712,30.712,0,0,1,0-5.945,30.712,30.712,0,0,1,0,5.945Z" transform="translate(-641.501 -1474.658)" fill="#e0e0e0"/>
      <path id="Trazado_104435" data-name="Trazado 104435" d="M924.68,1535.772a30.712,30.712,0,0,1,0-5.945,30.725,30.725,0,0,1,0,5.945Z" transform="translate(-645.345 -1474.658)" fill="#e0e0e0"/>
      <path id="Trazado_104436" data-name="Trazado 104436" d="M933.3,1535.772a30.725,30.725,0,0,1,0-5.945,30.712,30.712,0,0,1,0,5.945Z" transform="translate(-649.187 -1474.658)" fill="#e0e0e0"/>
      <rect id="Rectángulo_7898" data-name="Rectángulo 7898" width="53.75" height="5.945" transform="translate(236.42 65.467)" fill="#fff"/>
      <path id="Trazado_104437" data-name="Trazado 104437" d="M855.66,1554.342a30.711,30.711,0,0,1,0-5.944,30.685,30.685,0,0,1,0,5.944Z" transform="translate(-614.599 -1482.93)" fill="#e0e0e0"/>
      <path id="Trazado_104438" data-name="Trazado 104438" d="M864.281,1554.342a30.711,30.711,0,0,1,0-5.944,30.711,30.711,0,0,1,0,5.944Z" transform="translate(-618.44 -1482.93)" fill="#e0e0e0"/>
      <path id="Trazado_104439" data-name="Trazado 104439" d="M872.911,1554.342a30.711,30.711,0,0,1,0-5.944,30.711,30.711,0,0,1,0,5.944Z" transform="translate(-622.285 -1482.93)" fill="#e0e0e0"/>
      <path id="Trazado_104440" data-name="Trazado 104440" d="M881.542,1554.342a30.711,30.711,0,0,1,0-5.944,30.711,30.711,0,0,1,0,5.944Z" transform="translate(-626.129 -1482.93)" fill="#e0e0e0"/>
      <path id="Trazado_104441" data-name="Trazado 104441" d="M890.17,1554.342a30.711,30.711,0,0,1,0-5.944,30.724,30.724,0,0,1,0,5.944Z" transform="translate(-629.972 -1482.93)" fill="#e0e0e0"/>
      <path id="Trazado_104442" data-name="Trazado 104442" d="M898.792,1554.342a30.7,30.7,0,0,1,0-5.944,30.724,30.724,0,0,1,0,5.944Z" transform="translate(-633.814 -1482.93)" fill="#e0e0e0"/>
      <path id="Trazado_104443" data-name="Trazado 104443" d="M907.461,1554.342a30.711,30.711,0,0,1,0-5.944,30.711,30.711,0,0,1,0,5.944Z" transform="translate(-637.676 -1482.93)" fill="#e0e0e0"/>
      <path id="Trazado_104444" data-name="Trazado 104444" d="M916.05,1554.342a30.711,30.711,0,0,1,0-5.944,30.711,30.711,0,0,1,0,5.944Z" transform="translate(-641.501 -1482.93)" fill="#e0e0e0"/>
      <path id="Trazado_104445" data-name="Trazado 104445" d="M924.68,1554.342a30.711,30.711,0,0,1,0-5.944,30.724,30.724,0,0,1,0,5.944Z" transform="translate(-645.345 -1482.93)" fill="#e0e0e0"/>
      <path id="Trazado_104446" data-name="Trazado 104446" d="M933.3,1554.342a30.724,30.724,0,0,1,0-5.944,30.711,30.711,0,0,1,0,5.944Z" transform="translate(-649.187 -1482.93)" fill="#e0e0e0"/>
      <rect id="Rectángulo_7899" data-name="Rectángulo 7899" width="53.75" height="5.945" transform="translate(236.42 75.759)" fill="#fff"/>
      <path id="Trazado_104447" data-name="Trazado 104447" d="M855.675,1572.9a30.774,30.774,0,0,1,0-5.945A30.667,30.667,0,0,1,855.675,1572.9Z" transform="translate(-614.614 -1491.198)" fill="#e0e0e0"/>
      <path id="Trazado_104448" data-name="Trazado 104448" d="M864.3,1572.9a30.774,30.774,0,0,1,0-5.945A30.667,30.667,0,0,1,864.3,1572.9Z" transform="translate(-618.454 -1491.198)" fill="#e0e0e0"/>
      <path id="Trazado_104449" data-name="Trazado 104449" d="M872.925,1572.9a30.774,30.774,0,0,1,0-5.945A30.667,30.667,0,0,1,872.925,1572.9Z" transform="translate(-622.299 -1491.198)" fill="#e0e0e0"/>
      <path id="Trazado_104450" data-name="Trazado 104450" d="M881.555,1572.9a30.774,30.774,0,0,1,0-5.945A30.667,30.667,0,0,1,881.555,1572.9Z" transform="translate(-626.143 -1491.198)" fill="#e0e0e0"/>
      <path id="Trazado_104451" data-name="Trazado 104451" d="M890.185,1572.9a30.764,30.764,0,0,1,0-5.945A30.667,30.667,0,0,1,890.185,1572.9Z" transform="translate(-629.988 -1491.198)" fill="#e0e0e0"/>
      <path id="Trazado_104452" data-name="Trazado 104452" d="M898.805,1572.9a30.774,30.774,0,0,1,0-5.945A30.677,30.677,0,0,1,898.805,1572.9Z" transform="translate(-633.828 -1491.198)" fill="#e0e0e0"/>
      <path id="Trazado_104453" data-name="Trazado 104453" d="M907.475,1572.9a30.774,30.774,0,0,1,0-5.945A30.7,30.7,0,0,1,907.475,1572.9Z" transform="translate(-637.69 -1491.198)" fill="#e0e0e0"/>
      <path id="Trazado_104454" data-name="Trazado 104454" d="M916.065,1572.9a30.774,30.774,0,0,1,0-5.945A30.677,30.677,0,0,1,916.065,1572.9Z" transform="translate(-641.516 -1491.198)" fill="#e0e0e0"/>
      <path id="Trazado_104455" data-name="Trazado 104455" d="M924.7,1572.9a30.774,30.774,0,0,1,0-5.945A30.677,30.677,0,0,1,924.7,1572.9Z" transform="translate(-645.361 -1491.198)" fill="#e0e0e0"/>
      <path id="Trazado_104456" data-name="Trazado 104456" d="M933.315,1572.9a30.764,30.764,0,0,1,0-5.945A30.677,30.677,0,0,1,933.315,1572.9Z" transform="translate(-649.201 -1491.198)" fill="#e0e0e0"/>
      <rect id="Rectángulo_7900" data-name="Rectángulo 7900" width="53.75" height="5.945" transform="translate(236.42 86.056)" fill="#fff"/>
      <path id="Trazado_104457" data-name="Trazado 104457" d="M855.675,1591.472a30.773,30.773,0,0,1,0-5.944A30.666,30.666,0,0,1,855.675,1591.472Z" transform="translate(-614.614 -1499.471)" fill="#e0e0e0"/>
      <path id="Trazado_104458" data-name="Trazado 104458" d="M864.3,1591.472a30.773,30.773,0,0,1,0-5.944A30.666,30.666,0,0,1,864.3,1591.472Z" transform="translate(-618.454 -1499.471)" fill="#e0e0e0"/>
      <path id="Trazado_104459" data-name="Trazado 104459" d="M872.925,1591.472a30.773,30.773,0,0,1,0-5.944A30.666,30.666,0,0,1,872.925,1591.472Z" transform="translate(-622.299 -1499.471)" fill="#e0e0e0"/>
      <path id="Trazado_104460" data-name="Trazado 104460" d="M881.555,1591.472a30.773,30.773,0,0,1,0-5.944A30.666,30.666,0,0,1,881.555,1591.472Z" transform="translate(-626.143 -1499.471)" fill="#e0e0e0"/>
      <path id="Trazado_104461" data-name="Trazado 104461" d="M890.185,1591.472a30.763,30.763,0,0,1,0-5.944A30.666,30.666,0,0,1,890.185,1591.472Z" transform="translate(-629.988 -1499.471)" fill="#e0e0e0"/>
      <path id="Trazado_104462" data-name="Trazado 104462" d="M898.805,1591.472a30.773,30.773,0,0,1,0-5.944A30.676,30.676,0,0,1,898.805,1591.472Z" transform="translate(-633.828 -1499.471)" fill="#e0e0e0"/>
      <path id="Trazado_104463" data-name="Trazado 104463" d="M907.475,1591.472a30.773,30.773,0,0,1,0-5.944A30.7,30.7,0,0,1,907.475,1591.472Z" transform="translate(-637.69 -1499.471)" fill="#e0e0e0"/>
      <path id="Trazado_104464" data-name="Trazado 104464" d="M916.065,1591.472a30.773,30.773,0,0,1,0-5.944A30.676,30.676,0,0,1,916.065,1591.472Z" transform="translate(-641.516 -1499.471)" fill="#e0e0e0"/>
      <path id="Trazado_104465" data-name="Trazado 104465" d="M924.7,1591.472a30.773,30.773,0,0,1,0-5.944A30.676,30.676,0,0,1,924.7,1591.472Z" transform="translate(-645.361 -1499.471)" fill="#e0e0e0"/>
      <path id="Trazado_104466" data-name="Trazado 104466" d="M933.315,1591.472a30.763,30.763,0,0,1,0-5.944A30.676,30.676,0,0,1,933.315,1591.472Z" transform="translate(-649.201 -1499.471)" fill="#e0e0e0"/>
      <rect id="Rectángulo_7901" data-name="Rectángulo 7901" width="53.75" height="5.945" transform="translate(236.42 96.348)" fill="#fff"/>
      <path id="Trazado_104467" data-name="Trazado 104467" d="M855.675,1610.032a30.771,30.771,0,0,1,0-5.944A30.665,30.665,0,0,1,855.675,1610.032Z" transform="translate(-614.614 -1507.739)" fill="#e0e0e0"/>
      <path id="Trazado_104468" data-name="Trazado 104468" d="M864.3,1610.032a30.771,30.771,0,0,1,0-5.944A30.665,30.665,0,0,1,864.3,1610.032Z" transform="translate(-618.454 -1507.739)" fill="#e0e0e0"/>
      <path id="Trazado_104469" data-name="Trazado 104469" d="M872.925,1610.032a30.771,30.771,0,0,1,0-5.944A30.665,30.665,0,0,1,872.925,1610.032Z" transform="translate(-622.299 -1507.739)" fill="#e0e0e0"/>
      <path id="Trazado_104470" data-name="Trazado 104470" d="M881.555,1610.032a30.771,30.771,0,0,1,0-5.944A30.665,30.665,0,0,1,881.555,1610.032Z" transform="translate(-626.143 -1507.739)" fill="#e0e0e0"/>
      <path id="Trazado_104471" data-name="Trazado 104471" d="M890.185,1610.032a30.762,30.762,0,0,1,0-5.944A30.665,30.665,0,0,1,890.185,1610.032Z" transform="translate(-629.988 -1507.739)" fill="#e0e0e0"/>
      <path id="Trazado_104472" data-name="Trazado 104472" d="M898.805,1610.032a30.771,30.771,0,0,1,0-5.944A30.674,30.674,0,0,1,898.805,1610.032Z" transform="translate(-633.828 -1507.739)" fill="#e0e0e0"/>
      <path id="Trazado_104473" data-name="Trazado 104473" d="M907.475,1610.032a30.771,30.771,0,0,1,0-5.944A30.694,30.694,0,0,1,907.475,1610.032Z" transform="translate(-637.69 -1507.739)" fill="#e0e0e0"/>
      <path id="Trazado_104474" data-name="Trazado 104474" d="M916.065,1610.032a30.771,30.771,0,0,1,0-5.944A30.674,30.674,0,0,1,916.065,1610.032Z" transform="translate(-641.516 -1507.739)" fill="#e0e0e0"/>
      <path id="Trazado_104475" data-name="Trazado 104475" d="M924.7,1610.032a30.771,30.771,0,0,1,0-5.944A30.674,30.674,0,0,1,924.7,1610.032Z" transform="translate(-645.361 -1507.739)" fill="#e0e0e0"/>
      <path id="Trazado_104476" data-name="Trazado 104476" d="M933.315,1610.032a30.762,30.762,0,0,1,0-5.944A30.674,30.674,0,0,1,933.315,1610.032Z" transform="translate(-649.201 -1507.739)" fill="#e0e0e0"/>
      <rect id="Rectángulo_7902" data-name="Rectángulo 7902" width="156.327" height="66.599" transform="translate(168.474 107.655)" fill="#5e6178"/>
      <rect id="Rectángulo_7903" data-name="Rectángulo 7903" width="103.164" height="14.39" transform="translate(210.18 119.794)" fill="#fff"/>
      <rect id="Rectángulo_7904" data-name="Rectángulo 7904" width="58.841" height="28.275" transform="translate(225.163 145.984)" fill="#344154"/>
      <g id="Grupo_56629" data-name="Grupo 56629" transform="translate(203.908 142.84)" opacity="0.3">
        <path id="Trazado_104477" data-name="Trazado 104477" d="M802.665,1693.628a2.294,2.294,0,0,1,0-.4c0-.277,0-.643-.028-1.109,0-.97-.033-2.318-.055-3.971l.105.1-13.763.044.144-.144h0v5.429l-.139-.139,9.826.061,2.872.039h.782a1.154,1.154,0,0,1,.283,0,1.332,1.332,0,0,1-.25,0h-.749l-2.845.039-9.921.061h-.139v-5.568h0l.144-.144,13.763.044h.1v.1c0,1.664-.044,3.044-.056,4.031,0,.444,0,.8-.028,1.07A2.727,2.727,0,0,1,802.665,1693.628Z" transform="translate(-788.791 -1687.927)"/>
      </g>
      <g id="Grupo_56630" data-name="Grupo 56630" transform="translate(305.583 110.322)" opacity="0.3">
        <path id="Trazado_104478" data-name="Trazado 104478" d="M986,1635.015a3.923,3.923,0,0,1,0-.394v-1.109c0-.97-.033-2.318-.055-3.97l.1.1-13.758.044.144-.144h0v5.423l-.139-.133,9.821.061,2.878.039h.067l-2.85.039-9.915.061h-.139v-5.568h0c-.033.028.272-.277.144-.144l13.758.044h.105v.1c-.028,1.664-.044,3.044-.055,4.031v1.07A1.4,1.4,0,0,1,986,1635.015Z" transform="translate(-972.146 -1629.286)"/>
      </g>
      <g id="Grupo_56631" data-name="Grupo 56631" transform="translate(210.54 137.356)" opacity="0.3">
        <rect id="Rectángulo_7905" data-name="Rectángulo 7905" width="13.758" height="5.462"/>
      </g>
      <path id="Trazado_104479" data-name="Trazado 104479" d="M903.283,1658.911c0,.078-23.1.144-51.571.144s-51.571-.067-51.571-.144,23.091-.144,51.571-.144S903.283,1658.839,903.283,1658.911Z" transform="translate(-589.939 -1532.097)" fill="#5e6178"/>
      <path id="Trazado_104480" data-name="Trazado 104480" d="M810.535,1660.935c-.083,0-.144-3.627-.144-8.1s.061-8.1.144-8.1.144,3.627.144,8.1S810.613,1660.935,810.535,1660.935Z" transform="translate(-594.505 -1525.847)" fill="#5e6178"/>
      <path id="Trazado_104481" data-name="Trazado 104481" d="M821.765,1660.935c-.078,0-.144-3.627-.144-8.1s.067-8.1.144-8.1.144,3.627.144,8.1S821.848,1660.935,821.765,1660.935Z" transform="translate(-599.508 -1525.847)" fill="#5e6178"/>
      <path id="Trazado_104482" data-name="Trazado 104482" d="M833.475,1660.935c-.078,0-.144-3.627-.144-8.1s.067-8.1.144-8.1.144,3.627.144,8.1S833.569,1660.935,833.475,1660.935Z" transform="translate(-604.725 -1525.847)" fill="#5e6178"/>
      <path id="Trazado_104483" data-name="Trazado 104483" d="M845.235,1660.935c-.083,0-.144-3.627-.144-8.1s.061-8.1.144-8.1.144,3.627.144,8.1S845.313,1660.935,845.235,1660.935Z" transform="translate(-609.963 -1525.847)" fill="#5e6178"/>
      <path id="Trazado_104484" data-name="Trazado 104484" d="M856.965,1660.935c-.078,0-.144-3.627-.144-8.1s.067-8.1.144-8.1.144,3.627.144,8.1S857.043,1660.935,856.965,1660.935Z" transform="translate(-615.189 -1525.847)" fill="#5e6178"/>
      <path id="Trazado_104485" data-name="Trazado 104485" d="M868.7,1660.935c-.078,0-.144-3.627-.144-8.1s.067-8.1.144-8.1.144,3.627.144,8.1S868.778,1660.935,868.7,1660.935Z" transform="translate(-620.414 -1525.847)" fill="#5e6178"/>
      <path id="Trazado_104486" data-name="Trazado 104486" d="M880.475,1660.935c-.083,0-.144-3.627-.144-8.1s.061-8.1.144-8.1.144,3.627.144,8.1S880.531,1660.935,880.475,1660.935Z" transform="translate(-625.662 -1525.847)" fill="#5e6178"/>
      <path id="Trazado_104487" data-name="Trazado 104487" d="M892.165,1660.935c-.083,0-.144-3.627-.144-8.1s.061-8.1.144-8.1.144,3.627.144,8.1S892.243,1660.935,892.165,1660.935Z" transform="translate(-630.869 -1525.847)" fill="#5e6178"/>
      <path id="Trazado_104488" data-name="Trazado 104488" d="M903.9,1660.935c-.078,0-.144-3.627-.144-8.1s.067-8.1.144-8.1.144,3.627.144,8.1S903.978,1660.935,903.9,1660.935Z" transform="translate(-636.095 -1525.847)" fill="#5e6178"/>
      <path id="Trazado_104489" data-name="Trazado 104489" d="M915.625,1660.935c-.078,0-.144-3.627-.144-8.1s.067-8.1.144-8.1.144,3.627.144,8.1S915.708,1660.935,915.625,1660.935Z" transform="translate(-641.32 -1525.847)" fill="#5e6178"/>
      <path id="Trazado_104490" data-name="Trazado 104490" d="M927.365,1660.935c-.083,0-.144-3.627-.144-8.1s.061-8.1.144-8.1.144,3.627.144,8.1S927.426,1660.935,927.365,1660.935Z" transform="translate(-646.55 -1525.847)" fill="#5e6178"/>
      <path id="Trazado_104491" data-name="Trazado 104491" d="M939.1,1660.935c-.078,0-.144-3.627-.144-8.1s.067-8.1.144-8.1.144,3.627.144,8.1S939.173,1660.935,939.1,1660.935Z" transform="translate(-651.776 -1525.847)" fill="#5e6178"/>
      <path id="Trazado_104492" data-name="Trazado 104492" d="M950.825,1660.935c-.078,0-.144-3.627-.144-8.1s.067-8.1.144-8.1.144,3.627.144,8.1S950.908,1660.935,950.825,1660.935Z" transform="translate(-657.001 -1525.847)" fill="#5e6178"/>
      <path id="Trazado_104493" data-name="Trazado 104493" d="M962.565,1660.935c-.083,0-.144-3.627-.144-8.1s.061-8.1.144-8.1.144,3.627.144,8.1S962.643,1660.935,962.565,1660.935Z" transform="translate(-662.231 -1525.847)" fill="#5e6178"/>
      <path id="Trazado_104494" data-name="Trazado 104494" d="M974.3,1660.935c-.078,0-.144-3.627-.144-8.1s.067-8.1.144-8.1.144,3.627.144,8.1S974.4,1660.935,974.3,1660.935Z" transform="translate(-667.456 -1525.847)" fill="#5e6178"/>
      <path id="Trazado_104495" data-name="Trazado 104495" d="M986.025,1660.935c-.078,0-.144-3.627-.144-8.1s.067-8.1.144-8.1.144,3.627.144,8.1S986.108,1660.935,986.025,1660.935Z" transform="translate(-672.682 -1525.847)" fill="#5e6178"/>
      <rect id="Rectángulo_7906" data-name="Rectángulo 7906" width="9.033" height="6.965" transform="translate(264.911 160.33)" fill="#d9a171"/>
      <g id="Grupo_56632" data-name="Grupo 56632" transform="translate(264.911 160.33)" opacity="0.3">
        <rect id="Rectángulo_7907" data-name="Rectángulo 7907" width="9.033" height="6.965"/>
      </g>
      <path id="Trazado_104496" data-name="Trazado 104496" d="M911.011,1726.374V1722.9C911.011,1724.816,911.017,1726.374,911.011,1726.374Z" transform="translate(-639.329 -1559.124)" fill="#344154"/>
      <rect id="Rectángulo_7908" data-name="Rectángulo 7908" width="0.693" height="0.782" transform="translate(272.486 165.709)" fill="#aed3f2"/>
      <rect id="Rectángulo_7909" data-name="Rectángulo 7909" width="1.026" height="1.486" transform="translate(267.667 160.346)" fill="#344154"/>
      <rect id="Rectángulo_7910" data-name="Rectángulo 7910" width="1.026" height="1.486" transform="translate(267.667 165.792)" fill="#344154"/>
      <path id="Trazado_104497" data-name="Trazado 104497" d="M914.951,1719.467" transform="translate(-641.084 -1559.137)" fill="#344154"/>
      <rect id="Rectángulo_7911" data-name="Rectángulo 7911" width="9.033" height="6.965" transform="translate(272.431 160.324)" fill="#d9a171"/>
      <path id="Trazado_104498" data-name="Trazado 104498" d="M924.591,1726.354v0Z" transform="translate(-645.378 -1559.115)" fill="#344154"/>
      <rect id="Rectángulo_7912" data-name="Rectángulo 7912" width="0.693" height="0.782" transform="translate(280.006 165.703)" fill="#aed3f2"/>
      <g id="Grupo_56633" data-name="Grupo 56633" transform="translate(275.187 160.341)" opacity="0.5">
        <rect id="Rectángulo_7913" data-name="Rectángulo 7913" width="1.026" height="1.486" fill="#fff"/>
      </g>
      <g id="Grupo_56634" data-name="Grupo 56634" transform="translate(275.187 165.781)" opacity="0.5">
        <rect id="Rectángulo_7914" data-name="Rectángulo 7914" width="1.026" height="1.486" fill="#fff"/>
      </g>
      <path id="Trazado_104499" data-name="Trazado 104499" d="M928.5,1719.457" transform="translate(-647.12 -1559.133)" fill="#344154"/>
      <rect id="Rectángulo_7915" data-name="Rectángulo 7915" width="9.033" height="6.965" transform="translate(272.936 153.354)" fill="#d9a171"/>
      <path id="Trazado_104500" data-name="Trazado 104500" d="M925.481,1713.794v-3.471C925.481,1712.236,925.487,1713.794,925.481,1713.794Z" transform="translate(-645.775 -1553.52)" fill="#344154"/>
      <rect id="Rectángulo_7916" data-name="Rectángulo 7916" width="0.693" height="0.782" transform="translate(280.51 158.738)" fill="#aed3f2"/>
      <rect id="Rectángulo_7917" data-name="Rectángulo 7917" width="1.026" height="1.486" transform="translate(275.692 153.376)" fill="#344154"/>
      <rect id="Rectángulo_7918" data-name="Rectángulo 7918" width="1.026" height="1.486" transform="translate(275.692 158.816)" fill="#344154"/>
      <path id="Trazado_104501" data-name="Trazado 104501" d="M929.421,1706.887" transform="translate(-647.53 -1553.533)" fill="#344154"/>
      <rect id="Rectángulo_7919" data-name="Rectángulo 7919" width="9.033" height="6.965" transform="translate(272.73 167.289)" fill="#d9a171"/>
      <g id="Grupo_56635" data-name="Grupo 56635" transform="translate(272.73 167.289)" opacity="0.3">
        <rect id="Rectángulo_7920" data-name="Rectángulo 7920" width="9.033" height="6.965"/>
      </g>
      <path id="Trazado_104502" data-name="Trazado 104502" d="M925.111,1738.924v-3.471C925.111,1737.366,925.117,1738.924,925.111,1738.924Z" transform="translate(-645.61 -1564.714)" fill="#344154"/>
      <rect id="Rectángulo_7921" data-name="Rectángulo 7921" width="0.693" height="0.782" transform="translate(280.305 172.674)" fill="#aed3f2"/>
      <rect id="Rectángulo_7922" data-name="Rectángulo 7922" width="1.026" height="1.486" transform="translate(275.486 167.311)" fill="#344154"/>
      <rect id="Rectángulo_7923" data-name="Rectángulo 7923" width="1.026" height="1.486" transform="translate(275.486 172.751)" fill="#344154"/>
      <path id="Trazado_104503" data-name="Trazado 104503" d="M929.051,1732.027" transform="translate(-647.365 -1564.732)" fill="#344154"/>
      <rect id="Rectángulo_7924" data-name="Rectángulo 7924" width="9.033" height="6.965" transform="translate(263.259 167.289)" fill="#d9a171"/>
      <path id="Trazado_104504" data-name="Trazado 104504" d="M908.031,1738.924v-3.471C908.031,1737.366,908.037,1738.924,908.031,1738.924Z" transform="translate(-638.001 -1564.714)" fill="#344154"/>
      <rect id="Rectángulo_7925" data-name="Rectángulo 7925" width="0.693" height="0.782" transform="translate(270.834 172.674)" fill="#aed3f2"/>
      <g id="Grupo_56636" data-name="Grupo 56636" transform="translate(266.015 167.311)" opacity="0.5">
        <rect id="Rectángulo_7926" data-name="Rectángulo 7926" width="1.026" height="1.486" fill="#fff"/>
      </g>
      <g id="Grupo_56637" data-name="Grupo 56637" transform="translate(266.015 172.751)" opacity="0.5">
        <rect id="Rectángulo_7927" data-name="Rectángulo 7927" width="1.026" height="1.486" fill="#fff"/>
      </g>
      <path id="Trazado_104505" data-name="Trazado 104505" d="M911.961,1732.027" transform="translate(-639.752 -1564.732)" fill="#344154"/>
      <rect id="Rectángulo_7928" data-name="Rectángulo 7928" width="2.113" height="28.78" transform="translate(253.433 145.43)" fill="#5e6178"/>
      <path id="Trazado_104506" data-name="Trazado 104506" d="M907.279,1624.361c0,.083-26.235.144-58.591.144s-58.6-.061-58.6-.144,26.235-.144,58.6-.144S907.279,1624.284,907.279,1624.361Z" transform="translate(-585.462 -1516.706)" fill="#344154"/>
      <path id="Trazado_104507" data-name="Trazado 104507" d="M675.707,1430.418l-4.885,90h29.961l-4.841-90Z" transform="translate(-532.331 -1430.374)" fill="#e0e0e0"/>
      <path id="Trazado_104508" data-name="Trazado 104508" d="M699.918,1435.753H679.1l.294-5.335h20.312Z" transform="translate(-536.02 -1430.374)" fill="#d9a171"/>
      <path id="Trazado_104509" data-name="Trazado 104509" d="M700.083,1463.2H677.541l.383-7.148H699.7Z" transform="translate(-535.325 -1441.791)" fill="#d9a171"/>
      <path id="Trazado_104510" data-name="Trazado 104510" d="M700.234,1489.666H676.1l.388-7.148h23.429Z" transform="translate(-534.683 -1453.583)" fill="#d9a171"/>
      <path id="Trazado_104511" data-name="Trazado 104511" d="M700.38,1516.146H674.661l.388-7.148H700Z" transform="translate(-534.042 -1465.379)" fill="#d9a171"/>
      <path id="Trazado_104512" data-name="Trazado 104512" d="M700.536,1542.677l-27.3-.061.355-7.148h26.567Z" transform="translate(-533.405 -1477.171)" fill="#d9a171"/>
      <path id="Trazado_104513" data-name="Trazado 104513" d="M700.688,1569.218l-28.9-.122.388-7.148H700.3Z" transform="translate(-532.763 -1488.967)" fill="#d9a171"/>
      <path id="Trazado_104514" data-name="Trazado 104514" d="M675.582,1430.382h5.285l14.972-.044h.078v.078c1.07,19.719,2.861,52.525,4.9,89.994v.155H670.591v-.15c1.425-25.78,2.667-48.294,3.555-64.37.449-8.013.815-14.418,1.059-18.854.128-2.218.227-3.882.294-5.046.033-.555.061-1,.083-1.3a2.067,2.067,0,0,0,0-.432v.455c0,.3-.039.738-.061,1.314-.061,1.165-.15,2.872-.261,5.08-.227,4.436-.555,10.841-.981,18.854-.854,16.054-2.052,38.534-3.421,64.281l-.144-.15h29.944l-.144.15c-1.991-37.469-3.732-70.286-4.78-90l.083.072-14.906-.044h-4.98Z" transform="translate(-532.228 -1430.338)" fill="#344154"/>
      <path id="Trazado_104515" data-name="Trazado 104515" d="M698.388,1448.219H674.111a2.286,2.286,0,0,1-2.29-2.279v-.011h0a2.285,2.285,0,0,1,2.279-2.29h24.288a2.29,2.29,0,0,1,2.29,2.29h0a2.285,2.285,0,0,1-2.279,2.29Z" transform="translate(-532.776 -1436.263)" fill="#e0e0e0"/>
      <path id="Trazado_104516" data-name="Trazado 104516" d="M698.281,1447.964a4.022,4.022,0,0,0,.621-.116,2.23,2.23,0,0,0-.6-4.375h-2.03l-22.253.044a2.146,2.146,0,0,0-.782,4.142,3.808,3.808,0,0,0,1.453.15h4.386l9.982.033,6.743.044h0l-6.743.044H673.921a2.272,2.272,0,0,1-.787-.161,2.429,2.429,0,0,1-.7-4.115,2.482,2.482,0,0,1,1.58-.588l22.253.044h2.03a2.364,2.364,0,0,1,2.041,3.494,2.3,2.3,0,0,1-1.431,1.109A1.735,1.735,0,0,1,698.281,1447.964Z" transform="translate(-532.669 -1436.009)" fill="#344154"/>
      <path id="Trazado_104517" data-name="Trazado 104517" d="M421.5,1642.3V1538.49l48.577-23.523V1539l51.649-24.033v24.543h103.3V1642.3Z" transform="translate(-421.266 -1468.038)" fill="#d9a171"/>
      <rect id="Rectángulo_7929" data-name="Rectángulo 7929" width="168.892" height="27.848" transform="translate(12.746 100.591)" fill="#fff"/>
      <path id="Trazado_104518" data-name="Trazado 104518" d="M618.83,1636.731c0,.078-39.421.144-88.037.144s-88.042-.044-88.042-.144,39.41-.144,88.042-.144S618.83,1636.654,618.83,1636.731Z" transform="translate(-430.732 -1522.216)" fill="#d9a171"/>
      <path id="Trazado_104519" data-name="Trazado 104519" d="M462.151,1637.995a2.7,2.7,0,0,1,0,.366v1.059h-.116c-.05-2.457-.083-8-.083-14.418,0-4.364.028-8.318.039-11.218,0-1.409.033-2.556.044-3.4v-.926a1.255,1.255,0,0,1,.033-.322,2.08,2.08,0,0,1,0,.322v.926c0,.843.028,1.991.044,3.4,0,2.906,0,6.854.044,11.218,0,6.432-.039,11.978-.089,14.418h-.116v-1.059A1.611,1.611,0,0,1,462.151,1637.995Z" transform="translate(-439.285 -1509.988)" fill="#d9a171"/>
      <path id="Trazado_104520" data-name="Trazado 104520" d="M484.193,1637.555a1.561,1.561,0,0,1,.033.366v1.059H484.1c-.05-2.457-.083-8-.083-14.418,0-4.364.033-8.318.044-11.218,0-1.408.033-2.556.044-3.4v-.926a1.485,1.485,0,0,1,0-.322,1.1,1.1,0,0,1,.028.322v.926c0,.843,0,1.991.05,3.4,0,2.906,0,6.854.039,11.218,0,6.433-.033,11.978-.083,14.418h-.122a9.708,9.708,0,0,1,.033-1.059A1.49,1.49,0,0,1,484.193,1637.555Z" transform="translate(-449.117 -1509.792)" fill="#d9a171"/>
      <path id="Trazado_104521" data-name="Trazado 104521" d="M506.223,1638.515a1.759,1.759,0,0,1,0,.349c0,.261,0,.588.028,1h-.116c-.05-2.323-.083-7.564-.083-13.647,0-4.12,0-7.852.039-10.6,0-1.325.033-2.412.044-3.211v-.871a1.121,1.121,0,0,1,.033-.3,1.884,1.884,0,0,1,0,.3c0,.227,0,.516.028.871,0,.8,0,1.885.044,3.211,0,2.773,0,6.483.044,10.6,0,6.1-.039,11.323-.089,13.647h-.116v-1A1.465,1.465,0,0,1,506.223,1638.515Z" transform="translate(-458.93 -1510.919)" fill="#d9a171"/>
      <path id="Trazado_104522" data-name="Trazado 104522" d="M528.265,1636.679a1.558,1.558,0,0,1,.033.366c0,.272,0,.621.028,1.059H528.2c-.05-2.462-.083-8-.083-14.418,0-4.359.033-8.318.044-11.213,0-1.408.033-2.562.044-3.4a8.936,8.936,0,0,1,.028-.926,1.484,1.484,0,0,1,0-.322,1.105,1.105,0,0,1,.028.322v.926c0,.837.028,1.991.05,3.4,0,2.906,0,6.854.039,11.213,0,6.438-.033,11.978-.083,14.418h-.122a9.6,9.6,0,0,1,.033-1.059A1.473,1.473,0,0,1,528.265,1636.679Z" transform="translate(-468.762 -1509.404)" fill="#d9a171"/>
      <path id="Trazado_104523" data-name="Trazado 104523" d="M550.273,1638.05a1.607,1.607,0,0,1,.028.338v.987h-.116c-.05-2.285-.083-7.436-.083-13.414,0-4.048.028-7.713.039-10.42,0-1.3.033-2.373.05-3.161v-.854a1.05,1.05,0,0,1,.033-.3,1.745,1.745,0,0,1,.028.3v.854c0,.787.028,1.858.044,3.161,0,2.706.028,6.372.044,10.42,0,5.978-.039,11.129-.089,13.414h-.116v-.987A1.38,1.38,0,0,1,550.273,1638.05Z" transform="translate(-478.553 -1510.919)" fill="#d9a171"/>
      <path id="Trazado_104524" data-name="Trazado 104524" d="M572.293,1637.023a1.653,1.653,0,0,1,.033.377v1.109h-.116c-.055-2.551-.089-8.318-.089-14.972,0-4.531.033-8.629.044-11.645,0-1.458.033-2.656.044-3.527v-.959a1.645,1.645,0,0,1,.028-.338,1.242,1.242,0,0,1,0,.338c0,.249,0,.554.028.959,0,.871.028,2.069.05,3.527,0,3.016,0,7.115.039,11.645,0,6.682-.033,12.438-.083,14.972h-.116V1637.4A1.512,1.512,0,0,1,572.293,1637.023Z" transform="translate(-488.363 -1509.066)" fill="#d9a171"/>
      <path id="Trazado_104525" data-name="Trazado 104525" d="M594.323,1637.683a1.589,1.589,0,0,1,0,.333c0,.255,0,.554.028.97h-.116c-.05-2.251-.083-7.331-.083-13.226,0-4.015,0-7.647.039-10.281,0-1.281.039-2.335.05-3.111v-.848a1.047,1.047,0,0,1,.033-.294,1.183,1.183,0,0,1,0,.294c0,.227,0,.5.028.848,0,.776.028,1.83.044,3.111,0,2.634.044,6.266.044,10.281,0,5.895-.039,10.974-.089,13.226h-.117c0-.394,0-.715.028-.97A1.356,1.356,0,0,1,594.323,1637.683Z" transform="translate(-498.176 -1510.919)" fill="#d9a171"/>
      <path id="Trazado_104526" data-name="Trazado 104526" d="M616.365,1638.981a1.374,1.374,0,0,1,.033.344c0,.261,0,.593.028,1h-.116c-.05-2.318-.089-7.547-.089-13.619,0-4.115.033-7.835.044-10.586,0-1.32.033-2.406.044-3.205a7.981,7.981,0,0,1,.028-.871,1.327,1.327,0,0,1,0-.3,1.086,1.086,0,0,1,.033.3v.871c0,.8,0,1.885.05,3.205,0,2.773,0,6.471.039,10.586,0,6.072-.033,11.3-.083,13.619h-.117c0-.4,0-.737.028-1A1.285,1.285,0,0,1,616.365,1638.981Z" transform="translate(-508.008 -1511.146)" fill="#d9a171"/>
      <path id="Trazado_104527" data-name="Trazado 104527" d="M638.373,1638.737a1.253,1.253,0,0,1,.028.344v.987h-.116c-.05-2.3-.083-7.481-.083-13.5,0-4.081,0-7.763.039-10.492,0-1.309.039-2.385.05-3.177a7.89,7.89,0,0,1,.028-.865,1.026,1.026,0,0,1,.028-.3,1.259,1.259,0,0,1,.028.3v.865c0,.793.028,1.869.044,3.177,0,2.723,0,6.41.044,10.492,0,6.017-.033,11.2-.089,13.5h-.116c0-.4,0-.732.028-.987A1.413,1.413,0,0,1,638.373,1638.737Z" transform="translate(-517.8 -1511.146)" fill="#d9a171"/>
      <path id="Trazado_104528" data-name="Trazado 104528" d="M660.415,1638.533a1.334,1.334,0,0,1,.033.338c0,.261,0,.582.028.981h-.116c-.05-2.279-.089-7.414-.089-13.375,0-4.042.033-7.7.044-10.4,0-1.3.033-2.362.044-3.15a7.644,7.644,0,0,1,.028-.854,1.8,1.8,0,0,1,.028-.3,1.025,1.025,0,0,1,.033.3v.854c0,.787,0,1.852.05,3.15,0,2.7,0,6.355.039,10.4,0,5.961-.033,11.091-.083,13.375h-.117c0-.4,0-.721.028-.981A1.653,1.653,0,0,1,660.415,1638.533Z" transform="translate(-527.631 -1511.164)" fill="#d9a171"/>
      <path id="Trazado_104529" data-name="Trazado 104529" d="M682.453,1638.249a1.236,1.236,0,0,1,0,.338l.033.97h-.122c-.05-2.257-.083-7.347-.083-13.253,0-4.026,0-7.669.039-10.3,0-1.286.039-2.34.05-3.122a7.589,7.589,0,0,1,.028-.849.954.954,0,0,1,.028-.294,1.183,1.183,0,0,1,0,.294c0,.227,0,.51.028.849,0,.782.028,1.835.044,3.122.028,2.634.044,6.277.044,10.3,0,5.906-.033,11-.083,13.253h-.122c0-.394,0-.715.028-.97A1.362,1.362,0,0,1,682.453,1638.249Z" transform="translate(-537.436 -1511.146)" fill="#d9a171"/>
      <path id="Trazado_104530" data-name="Trazado 104530" d="M704.475,1638.005a1.314,1.314,0,0,1,.033.333c0,.255,0,.554.028.965h-.116c-.05-2.218-.089-7.281-.089-13.137,0-3.981,0-7.591.044-10.2,0-1.275.033-2.318.044-3.094a7.329,7.329,0,0,1,.028-.837,1.788,1.788,0,0,1,.028-.294,1.011,1.011,0,0,1,.033.294v.837c0,.776.028,1.819.05,3.094,0,2.612.039,6.222.039,10.2,0,5.856-.033,10.9-.083,13.137H704.4c0-.394,0-.71.028-.965A1.6,1.6,0,0,1,704.475,1638.005Z" transform="translate(-547.259 -1511.146)" fill="#d9a171"/>
      <path id="Trazado_104531" data-name="Trazado 104531" d="M726.475,1637.811a1.22,1.22,0,0,1,.028.333c0,.249,0,.554.033.954h-.122c-.05-2.218-.083-7.209-.083-13.037,0-3.954,0-7.536.039-10.131,0-1.259.039-2.3.05-3.067a7.4,7.4,0,0,1,.028-.837.928.928,0,0,1,0-.288,1.171,1.171,0,0,1,.028.288c0,.227,0,.5.028.837,0,.765.028,1.808.044,3.067.028,2.6.044,6.177.044,10.131,0,5.812-.033,10.819-.083,13.037h-.122v-.954A1.355,1.355,0,0,1,726.475,1637.811Z" transform="translate(-557.059 -1511.146)" fill="#d9a171"/>
      <g id="Grupo_56638" data-name="Grupo 56638" transform="translate(50.193 89.578)" opacity="0.3">
        <path id="Trazado_104532" data-name="Trazado 104532" d="M520.707,1676.559h-9.116V1596.43a4.553,4.553,0,0,1,4.553-4.553h0a4.552,4.552,0,0,1,4.558,4.547v.006Z" transform="translate(-511.591 -1591.877)"/>
      </g>
      <g id="Grupo_56639" data-name="Grupo 56639" transform="translate(73.926 89.578)" opacity="0.3">
        <path id="Trazado_104533" data-name="Trazado 104533" d="M558.938,1591.877h0a4.552,4.552,0,0,1,4.553,4.553v80.129h-9.1V1596.43a4.553,4.553,0,0,1,4.553-4.553Z" transform="translate(-554.391 -1591.877)"/>
      </g>
      <path id="Trazado_104534" data-name="Trazado 104534" d="M511.756,1672.568h-9.105v-85.1a4.553,4.553,0,0,1,4.553-4.553h0a4.558,4.558,0,0,1,4.553,4.553Z" transform="translate(-457.416 -1498.308)" fill="#5e6178"/>
      <path id="Trazado_104535" data-name="Trazado 104535" d="M553.086,1672.568h-9.105v-85.1a4.558,4.558,0,0,1,4.553-4.553h0a4.552,4.552,0,0,1,4.553,4.553Z" transform="translate(-475.827 -1498.308)" fill="#5e6178"/>
      <g id="Grupo_56640" data-name="Grupo 56640" transform="translate(0.79 46.929)" opacity="0.3">
        <path id="Trazado_104536" data-name="Trazado 104536" d="M422.5,1538.49l48.022-19.885v-3.638Z" transform="translate(-422.501 -1514.967)"/>
      </g>
      <g id="Grupo_56641" data-name="Grupo 56641" transform="translate(50.531 47.411)" opacity="0.3">
        <path id="Trazado_104537" data-name="Trazado 104537" d="M512.2,1539.171l49.93-19.7v-3.638Z" transform="translate(-512.201 -1515.837)"/>
      </g>
      <rect id="Rectángulo_7930" data-name="Rectángulo 7930" width="56.678" height="1.109" transform="translate(0 69.951) rotate(-25.99)" fill="#344154"/>
      <rect id="Rectángulo_7931" data-name="Rectángulo 7931" width="56.967" height="1.109" transform="matrix(0.907, -0.422, 0.422, 0.907, 48.579, 70.474)" fill="#344154"/>
      <g id="Grupo_56642" data-name="Grupo 56642" transform="translate(0.147 83.134)" opacity="0.3">
        <path id="Trazado_104538" data-name="Trazado 104538" d="M435.188,1585.946v-1.508c0-.97-.033-2.312-.055-3.971l.1.1-13.758.044.144-.144h0v5.429l-.139-.139,9.821.067,2.878.039h1.059a1.273,1.273,0,0,1-.244,0h-.754l-2.845.039-9.915.067h-.139V1580.4h0l.144-.144,13.758.044h.105v.1l-.05,4.031v1.07A1.519,1.519,0,0,1,435.188,1585.946Z" transform="translate(-421.341 -1580.257)"/>
      </g>
      <g id="Grupo_56643" data-name="Grupo 56643" transform="translate(6.446 77.927)" opacity="0.3">
        <rect id="Rectángulo_7932" data-name="Rectángulo 7932" width="13.758" height="5.462"/>
      </g>
      <g id="Grupo_56644" data-name="Grupo 56644" transform="translate(101.891 157.591)" opacity="0.3">
        <path id="Trazado_104539" data-name="Trazado 104539" d="M618.668,1720.222a2.131,2.131,0,0,1,0-.394v-1.109c0-.97-.033-2.318-.055-3.97l.105.1-13.763.044.144-.144h0v5.423l-.139-.133,9.826.061,2.872.039h.067l-2.845.039-9.921.061h-.139v-5.568h0l.144-.144,13.763.044h.1v.1c0,1.664-.044,3.044-.055,4.031,0,.438,0,.8-.028,1.07A2.486,2.486,0,0,1,618.668,1720.222Z" transform="translate(-604.821 -1714.527)"/>
      </g>
      <g id="Grupo_56645" data-name="Grupo 56645" transform="translate(108.185 152.389)" opacity="0.3">
        <rect id="Rectángulo_7933" data-name="Rectángulo 7933" width="13.758" height="5.462"/>
      </g>
      <g id="Grupo_56646" data-name="Grupo 56646" transform="translate(18.737 140.696)" opacity="0.3">
        <path id="Trazado_104540" data-name="Trazado 104540" d="M468.716,1689.781v-1.5c0-.965-.033-2.312-.055-3.965l.1.1-13.758.044.144-.144h0v5.451l-.139-.138,9.821.066,2.878.039h1.059a1.273,1.273,0,0,1-.244,0h-.754l-2.845.033-9.915.067h-.139v-5.59h0c-.033.028.272-.277.144-.15l13.758.044h.105v.105c0,1.664-.039,3.044-.05,4.026v1.076A1.966,1.966,0,0,1,468.716,1689.781Z" transform="translate(-454.866 -1684.061)"/>
      </g>
      <g id="Grupo_56647" data-name="Grupo 56647" transform="translate(76.727 74.068)" opacity="0.3">
        <path id="Trazado_104541" data-name="Trazado 104541" d="M573.315,1569.569v-1.508c0-.97-.033-2.318-.055-3.97l.1.1-13.758.044.144-.144h0v5.451l-.133-.139,9.821.061,2.845.055h.776a1.52,1.52,0,0,1,.283,0,1.331,1.331,0,0,1-.25,0h-.749l-2.845.039-9.915.061h-.139v-5.568h0l.144-.144,13.758.044h.1v.1c0,1.663-.039,3.044-.055,4.031v1.07A3.214,3.214,0,0,1,573.315,1569.569Z" transform="translate(-559.441 -1563.907)"/>
      </g>
      <g id="Grupo_56648" data-name="Grupo 56648" transform="translate(159.629 82.424)" opacity="0.3">
        <path id="Trazado_104542" data-name="Trazado 104542" d="M722.788,1584.55v-1.509c0-.97-.033-2.312-.055-3.97l.1.1-13.758.044.144-.144h0v5.479l-.139-.139,9.821.067,2.878.039h1.059a1.294,1.294,0,0,1-.244,0h-.754l-2.845.039-9.915.067h-.139v-5.5h0l.144-.144,13.758.044h.105v.1c0,1.663-.039,3.05-.055,4.031v1.07A2.06,2.06,0,0,1,722.788,1584.55Z" transform="translate(-708.941 -1578.977)"/>
      </g>
      <g id="Grupo_56649" data-name="Grupo 56649" transform="translate(181.311 133.879)" opacity="0.3">
        <path id="Trazado_104543" data-name="Trazado 104543" d="M761.915,1677.335a2.133,2.133,0,0,1,0-.394c0-.277,0-.643-.028-1.109,0-.97-.028-2.318-.05-3.97l.1.1-13.763.044.144-.144h0v5.473l-.139-.139,9.826.067,2.878.039h1.059a1.548,1.548,0,0,1-.25,0h-.749l-2.845.039-9.921.061h-.139v-5.49h0l.144-.144,13.763.039h.1v.1c0,1.664-.044,3.045-.055,4.026v1.076A2.91,2.91,0,0,1,761.915,1677.335Z" transform="translate(-748.041 -1671.767)"/>
      </g>
      <g id="Grupo_56650" data-name="Grupo 56650" transform="translate(107.969 88.968)" opacity="0.3">
        <rect id="Rectángulo_7934" data-name="Rectángulo 7934" width="13.758" height="5.462"/>
      </g>
      <g id="Grupo_56651" data-name="Grupo 56651" transform="translate(173.475 77.195)" opacity="0.3">
        <rect id="Rectángulo_7935" data-name="Rectángulo 7935" width="13.758" height="5.462"/>
      </g>
      <rect id="Rectángulo_7936" data-name="Rectángulo 7936" width="30.294" height="30.294" transform="translate(132.784 143.96)" fill="#344154"/>
    </g>
    <g id="freepik--Truck--inject-49" transform="translate(660.708 1537.321)">
      <rect id="Rectángulo_7937" data-name="Rectángulo 7937" width="11.285" height="3.538" transform="translate(49.758 24.211)" fill="#5e6178"/>
      <path id="Trazado_104544" data-name="Trazado 104544" d="M1043.761,1729.207v4.675h3.854l1.542-2.24h28.137v-2.434Z" transform="translate(-1001.889 -1706.593)" fill="#344154"/>
      <path id="Trazado_104545" data-name="Trazado 104545" d="M1030.1,1702.273a.283.283,0,0,0-.3-.266h0c-1.525.061-8.756.394-10.242,1.109-1.137.554-2.385,2.59-3.261,3.965a21.45,21.45,0,0,0-2.307,4.3,19.951,19.951,0,0,0-.366,3.882l.4,5.174h6.555l.654-1.708a2.883,2.883,0,0,1,2.689-1.852h6.516v-8.568Z" transform="translate(-988.462 -1694.476)" fill="#d9a171"/>
      <path id="Trazado_104546" data-name="Trazado 104546" d="M1019.143,1705.027a20,20,0,0,0-2.484,3.394,24.515,24.515,0,0,0-2.218,4.031.566.566,0,0,0,0,.061.964.964,0,0,0,.6-.355,24.871,24.871,0,0,1,2.606-4.991C1018.311,1706.058,1018.987,1705.393,1019.143,1705.027Z" transform="translate(-988.827 -1695.822)" fill="#5e6178"/>
      <path id="Trazado_104547" data-name="Trazado 104547" d="M1028.494,1704.347a39.207,39.207,0,0,0-6.471.738c-1.514.516-3.205,4.519-3.288,4.691l-1.148,2.928a.133.133,0,0,0,.089.166.147.147,0,0,0,.033.006h2.956a.958.958,0,0,0,.327-.061l7.763-2.895a.9.9,0,0,0,.582-.843v-3.915a.815.815,0,0,0-.815-.816Z" transform="translate(-990.226 -1695.518)" fill="#344154"/>
      <path id="Trazado_104548" data-name="Trazado 104548" d="M1018.191,1712.815s1.109-2.457,1.464-3.261c.555-1.22,1.858-3.71,2.734-3.97a38.117,38.117,0,0,1,6.394-.726h0a.554.554,0,0,1,.555.554v3.976a.472.472,0,0,1-.311.449l-5.745.71a1.614,1.614,0,0,0-1.142.71l-.993,1.519a.567.567,0,0,1-.183.033Z" transform="translate(-990.498 -1695.746)" fill="#5e6178"/>
      <path id="Trazado_104549" data-name="Trazado 104549" d="M1025.423,1711.091l-1.952,2.174,1.109-7.209.266-.089-.555,5.346a.156.156,0,0,0,.216.161Z" transform="translate(-992.85 -1696.24)" fill="#344154"/>
      <path id="Trazado_104550" data-name="Trazado 104550" d="M1013.391,1726.619c0-.094.028-.172.072-.177l1.048-.094c.089,0,.166.155.177.349l.044.8c0,.133-.028.238-.089.249l-1.065.183c-.05,0-.094-.061-.1-.155Z" transform="translate(-988.36 -1705.319)" fill="#839eb6"/>
      <rect id="Rectángulo_7938" data-name="Rectángulo 7938" width="7.542" height="3.022" transform="translate(25.032 25.054)" fill="#344154"/>
      <path id="Trazado_104551" data-name="Trazado 104551" d="M1028.351,1733.941a4.126,4.126,0,1,0,4.187-4.065,4.126,4.126,0,0,0-4.187,4.065Z" transform="translate(-995.024 -1706.891)" fill="#344154"/>
      <path id="Trazado_104552" data-name="Trazado 104552" d="M1028.351,1737.187h0a4.126,4.126,0,1,0,8.251.117h0Z" transform="translate(-995.024 -1710.148)" fill="#344154"/>
      <path id="Trazado_104553" data-name="Trazado 104553" d="M1030.591,1734.943a2.9,2.9,0,1,0,2.944-2.856h-.005a2.894,2.894,0,0,0-2.938,2.85Z" transform="translate(-996.021 -1707.876)" fill="#fafafa"/>
      <path id="Trazado_104554" data-name="Trazado 104554" d="M1033.51,1732.087a2.9,2.9,0,0,0-2.939,2.856l5.795.083A2.9,2.9,0,0,0,1033.51,1732.087Z" transform="translate(-996.013 -1707.876)" fill="#e0e0e0"/>
      <path id="Trazado_104555" data-name="Trazado 104555" d="M1032.591,1735.868a1.94,1.94,0,1,0,0-.006Z" transform="translate(-996.913 -1708.785)" fill="#344154"/>
      <rect id="Rectángulo_7939" data-name="Rectángulo 7939" width="1.714" height="4.103" rx="0.857" transform="translate(28.425 11.445)" fill="#344154"/>
      <path id="Trazado_104556" data-name="Trazado 104556" d="M1018.164,1716.924h-.083V1712.6a.782.782,0,0,1,.782-.782h.205v.083h-.205a.7.7,0,0,0-.7.7Z" transform="translate(-990.449 -1698.847)" fill="#344154"/>
      <path id="Trazado_104557" data-name="Trazado 104557" d="M1019.1,1717.33l-.239-4.065a.484.484,0,0,1,.139-.377.489.489,0,0,1,.372-.161v.083a.443.443,0,0,0-.311.133.457.457,0,0,0-.117.322l.244,4.059Z" transform="translate(-990.795 -1699.252)" fill="#344154"/>
      <rect id="Rectángulo_7940" data-name="Rectángulo 7940" width="1.159" height="1.342" transform="translate(27.416 17.7)" fill="#344154"/>
      <rect id="Rectángulo_7941" data-name="Rectángulo 7941" width="0.471" height="0.089" transform="translate(27.677 15.15)" fill="#344154"/>
      <path id="Trazado_104558" data-name="Trazado 104558" d="M1021.621,1703.948h.1l.305-.033,1.17-.139,4.364-.493.715-.078a1.186,1.186,0,0,1,.372,0,1.489,1.489,0,0,1,.36.139,1.321,1.321,0,0,1,.555.555,1.194,1.194,0,0,1,.122.394.791.791,0,0,1,0,.205v12.144h-4.531a5.113,5.113,0,0,0-.776.039,3.159,3.159,0,0,0-.743.211,3.077,3.077,0,0,0-1.636,1.692,3.127,3.127,0,0,0-.161.554v.521h-5.806v-6.721a1.639,1.639,0,0,1,.033-.4,4.064,4.064,0,0,1,.488-1.486c.233-.444.466-.876.688-1.287.438-.832.848-1.6,1.214-2.29l.993-1.858c.072-.133.139-.266.211-.388a1.394,1.394,0,0,1,.1-.183.9.9,0,0,1,.116-.167,2.366,2.366,0,0,1,.521-.488,2.639,2.639,0,0,1,.893-.388,2.426,2.426,0,0,1,.333-.05h-.083l-.25.05a2.674,2.674,0,0,0-.887.388,2.478,2.478,0,0,0-.516.488l-.116.161c-.033.061-.061.122-.1.183l-.205.394-.987,1.858q-.554,1.048-1.214,2.29c-.216.416-.444.848-.682,1.292a4.1,4.1,0,0,0-.482,1.475,3.2,3.2,0,0,0,0,.4v6.749h5.678v-.532a2.942,2.942,0,0,1,.067-.294,2.986,2.986,0,0,1,.1-.283,3.1,3.1,0,0,1,1.664-1.719,3.341,3.341,0,0,1,.76-.211,5.265,5.265,0,0,1,.782-.039h4.5v-11.883a2.4,2.4,0,0,0,0-.41,1.1,1.1,0,0,0-.122-.377,1.254,1.254,0,0,0-.555-.555,1.141,1.141,0,0,0-.349-.133,1.333,1.333,0,0,0-.366-.028l-.715.078-4.364.483-1.17.128-.3.033Z" transform="translate(-989.536 -1695.004)" fill="#344154"/>
      <path id="Trazado_104559" data-name="Trazado 104559" d="M1036.3,1720.892h.067a.655.655,0,0,0,.177-.072.465.465,0,0,0,.177-.233.417.417,0,0,0,0-.189.437.437,0,0,0-.05-.2.452.452,0,0,0-.388-.238h-1.869a.439.439,0,0,0-.438.394.486.486,0,0,0,.05.294.465.465,0,0,0,.216.194.7.7,0,0,0,.283.033h-.144a.628.628,0,0,1-.15-.033.517.517,0,0,1-.239-.211.557.557,0,0,1-.061-.322.47.47,0,0,1,.155-.305.49.49,0,0,1,.327-.128h1.869a.472.472,0,0,1,.466.471.448.448,0,0,1-.027.194.471.471,0,0,1-.194.244.454.454,0,0,1-.183.061Z" transform="translate(-997.507 -1702.437)" fill="#344154"/>
      <path id="Trazado_104560" data-name="Trazado 104560" d="M1036.726,1719.756h-.738q-.369.018-.738,0a5.094,5.094,0,0,1,.738,0A5.311,5.311,0,0,1,1036.726,1719.756Z" transform="translate(-998.098 -1702.377)" fill="#fff"/>
      <path id="Trazado_104561" data-name="Trazado 104561" d="M1027.039,1734.219l-.688-.05c.183-2.462.444-3.937.81-4.508a2.734,2.734,0,0,1,2.152-1.42,10.125,10.125,0,0,1,2.129-.067h.172c1.436.055,4.436,0,4.475,0v.688c-.033,0-3.061.05-4.514,0h-.172a9.471,9.471,0,0,0-1.985.056,2.062,2.062,0,0,0-1.691,1.109C1027.593,1730.3,1027.271,1731.186,1027.039,1734.219Z" transform="translate(-994.133 -1706.121)" fill="#344154"/>
      <rect id="Rectángulo_7942" data-name="Rectángulo 7942" width="33.92" height="22.586" transform="translate(42.333)" fill="#6595bf"/>
      <path id="Trazado_104562" data-name="Trazado 104562" d="M1078.391,1710.984v-21.627h-33.15v21.627h0v-21.627h33.194C1078.4,1702.555,1078.391,1710.834,1078.391,1710.984Z" transform="translate(-1002.548 -1688.841)" fill="#344154"/>
      <path id="Trazado_104563" data-name="Trazado 104563" d="M1033.178,1707.717l-.033.028-.094.067-.355.244c-.3.205-.721.482-1.187.782s-.893.555-1.2.749l-.366.222-.105.055h-.033l.1-.066.36-.233,1.2-.76,1.192-.771.36-.227.1-.067Z" transform="translate(-995.67 -1697.02)" fill="#fafafa"/>
      <path id="Trazado_104564" data-name="Trazado 104564" d="M1030.528,1708.417l-.033.028-.094.067-.355.244c-.3.205-.715.482-1.187.782s-.893.555-1.2.749l-.366.222-.105.055h-.033l.033-.028.094-.067.36-.227,1.2-.765,1.192-.771.36-.227.1-.061Z" transform="translate(-994.489 -1697.332)" fill="#fafafa"/>
      <path id="Trazado_104565" data-name="Trazado 104565" d="M1020.033,1711.378a.153.153,0,0,0-.028-.072.917.917,0,0,1-.055-.216,3,3,0,0,1-.089-.71,1.539,1.539,0,0,1,.161-.7,1.073,1.073,0,0,1,.122-.183c.033-.039.056-.056.061-.056a2.192,2.192,0,0,0-.155.255,1.668,1.668,0,0,0-.144.687,3.8,3.8,0,0,0,.078.7C1020.016,1711.267,1020.038,1711.378,1020.033,1711.378Z" transform="translate(-991.242 -1697.786)" fill="#fafafa"/>
      <path id="Trazado_104566" data-name="Trazado 104566" d="M1013.851,1721.991v-.36a5.659,5.659,0,0,1,.05-.86c.05-.333.061-.643.089-.859a.584.584,0,0,1,.033-.261.077.077,0,0,0,0-.094v.355c0,.233-.044.554-.072.859s-.044.632-.061.865v.261A.1.1,0,0,1,1013.851,1721.991Z" transform="translate(-988.565 -1702.295)" fill="#fafafa"/>
      <path id="Trazado_104567" data-name="Trazado 104567" d="M1028.986,1726.957a4.1,4.1,0,0,0-.422.116,3.717,3.717,0,0,0-.444.177,4.152,4.152,0,0,0-.493.3,3.825,3.825,0,0,0-.438.383,3.1,3.1,0,0,0-.3.366c-.155.222-.227.372-.239.366l.05-.105c0-.033.039-.078.067-.122a1.781,1.781,0,0,1,.094-.155,3.174,3.174,0,0,1,.3-.377,3.424,3.424,0,0,1,.438-.394,3.535,3.535,0,0,1,.5-.3,2.594,2.594,0,0,1,.449-.172l.177-.05h.139Z" transform="translate(-994.267 -1705.591)" fill="#fafafa"/>
      <path id="Trazado_104568" data-name="Trazado 104568" d="M1046.017,1706.049v-2.1c0-1.3-.055-3.089-.089-5.063s-.067-3.771-.078-5.068v-2.091a.147.147,0,0,0,0-.039v2.141c0,1.3.055,3.089.089,5.068s.067,3.765.078,5.063v2.091Z" transform="translate(-1002.82 -1689.879)" fill="#fafafa"/>
      <path id="Trazado_104569" data-name="Trazado 104569" d="M1083.331,1733.941a4.126,4.126,0,1,0,4.187-4.065,4.126,4.126,0,0,0-4.187,4.065Z" transform="translate(-1019.516 -1706.891)" fill="#344154"/>
      <path id="Trazado_104570" data-name="Trazado 104570" d="M1083.331,1737.187h0a4.126,4.126,0,1,0,8.251.117h0Z" transform="translate(-1019.516 -1710.148)" fill="#344154"/>
      <path id="Trazado_104571" data-name="Trazado 104571" d="M1085.591,1734.943a2.974,2.974,0,1,0,0-.017Z" transform="translate(-1020.523 -1707.876)" fill="#fafafa"/>
      <path id="Trazado_104572" data-name="Trazado 104572" d="M1088.49,1732.087a2.9,2.9,0,0,0-2.939,2.856l5.789.083a2.894,2.894,0,0,0-2.849-2.939Z" transform="translate(-1020.505 -1707.876)" fill="#e0e0e0"/>
      <path id="Trazado_104573" data-name="Trazado 104573" d="M1087.591,1735.868a1.988,1.988,0,1,0,0-.006Z" transform="translate(-1021.413 -1708.785)" fill="#344154"/>
      <path id="Trazado_104574" data-name="Trazado 104574" d="M1080.976,1734.653s-.632-5.856,5.434-5.856c5.6,0,5.473,5.035,5.423,5.817h-.882s.449-4.963-4.542-4.963-4.553,5.063-4.553,5.063Z" transform="translate(-1018.459 -1706.411)" fill="#5e6178"/>
      <path id="Trazado_104575" data-name="Trazado 104575" d="M1084.474,1729.883h-.05l-.139.044a4.714,4.714,0,0,0-.494.194,3.94,3.94,0,0,0-1.375,1.048,4,4,0,0,0-.793,1.536,3.637,3.637,0,0,0-.105.521v.139a.38.38,0,0,1,0,.05v-.05a.767.767,0,0,1,0-.144,3.3,3.3,0,0,1,.089-.521,3.911,3.911,0,0,1,.793-1.558,3.95,3.95,0,0,1,1.4-1.053,3.7,3.7,0,0,1,.5-.177l.144-.033Z" transform="translate(-1018.707 -1706.892)" fill="#fafafa"/>
      <rect id="Rectángulo_7943" data-name="Rectángulo 7943" width="11.285" height="3.538" transform="translate(24.727 24.211)" fill="#5e6178"/>
      <path id="Trazado_104576" data-name="Trazado 104576" d="M998.621,1729.207v4.675h3.854l1.542-2.24h28.142v-2.434Z" transform="translate(-981.78 -1706.593)" fill="#344154"/>
      <path id="Trazado_104577" data-name="Trazado 104577" d="M984.956,1702.273a.283.283,0,0,0-.3-.266h0c-1.525.061-8.756.394-10.242,1.109-1.137.554-2.385,2.59-3.261,3.965a21.439,21.439,0,0,0-2.307,4.3,19.951,19.951,0,0,0-.366,3.882l.4,5.174h6.555l.654-1.708a2.883,2.883,0,0,1,2.69-1.852h6.516v-8.568Z" transform="translate(-968.353 -1694.476)" fill="#6595bf"/>
      <path id="Trazado_104578" data-name="Trazado 104578" d="M974,1705.027a20,20,0,0,0-2.484,3.394,24.973,24.973,0,0,0-2.218,4.031.509.509,0,0,0,0,.061.964.964,0,0,0,.6-.355,25.288,25.288,0,0,1,2.606-4.991C973.171,1706.058,973.847,1705.393,974,1705.027Z" transform="translate(-968.718 -1695.822)" fill="#5e6178"/>
      <path id="Trazado_104579" data-name="Trazado 104579" d="M983.358,1704.346a39.293,39.293,0,0,0-6.471.738c-1.508.516-3.205,4.519-3.288,4.691l-1.142,2.928a.133.133,0,0,0,.089.166.141.141,0,0,0,.033.006h2.956a.948.948,0,0,0,.327-.061l7.763-2.895a.9.9,0,0,0,.582-.843v-3.915a.814.814,0,0,0-.814-.816Z" transform="translate(-970.122 -1695.518)" fill="#344154"/>
      <path id="Trazado_104580" data-name="Trazado 104580" d="M973.051,1712.815s1.109-2.457,1.464-3.261c.555-1.22,1.858-3.71,2.734-3.97a38.232,38.232,0,0,1,6.394-.726h.028a.554.554,0,0,1,.527.554v3.976a.472.472,0,0,1-.31.449l-5.745.71a1.614,1.614,0,0,0-1.142.71l-.993,1.519a.567.567,0,0,1-.183.033Z" transform="translate(-970.389 -1695.746)" fill="#aed3f2"/>
      <path id="Trazado_104581" data-name="Trazado 104581" d="M980.283,1711.091l-1.952,2.174,1.109-7.209.266-.089-.554,5.346a.161.161,0,0,0,.151.17.157.157,0,0,0,.065-.009Z" transform="translate(-972.741 -1696.24)" fill="#344154"/>
      <path id="Trazado_104582" data-name="Trazado 104582" d="M968.251,1726.619c0-.094.028-.172.072-.177l1.048-.094c.089,0,.166.155.177.349l.05.8c0,.133-.033.238-.094.249l-1.065.183c-.05,0-.094-.061-.1-.155Z" transform="translate(-968.251 -1705.319)" fill="#839eb6"/>
      <rect id="Rectángulo_7944" data-name="Rectángulo 7944" width="7.542" height="3.022" transform="translate(0 25.054)" fill="#344154"/>
      <path id="Trazado_104583" data-name="Trazado 104583" d="M983.211,1733.941a4.126,4.126,0,1,0,4.187-4.065A4.126,4.126,0,0,0,983.211,1733.941Z" transform="translate(-974.915 -1706.891)" fill="#344154"/>
      <path id="Trazado_104584" data-name="Trazado 104584" d="M983.211,1737.187h0a4.126,4.126,0,1,0,8.251.117h0Z" transform="translate(-974.915 -1710.148)" fill="#344154"/>
      <path id="Trazado_104585" data-name="Trazado 104585" d="M985.431,1734.943a2.9,2.9,0,1,0,2.944-2.856h0a2.894,2.894,0,0,0-2.938,2.85Z" transform="translate(-975.904 -1707.876)" fill="#fafafa"/>
      <path id="Trazado_104586" data-name="Trazado 104586" d="M988.37,1732.087a2.9,2.9,0,0,0-2.939,2.856l5.795.083A2.9,2.9,0,0,0,988.37,1732.087Z" transform="translate(-975.904 -1707.876)" fill="#e0e0e0"/>
      <path id="Trazado_104587" data-name="Trazado 104587" d="M987.471,1735.868a1.769,1.769,0,1,0,1.8-1.741h-.005A1.769,1.769,0,0,0,987.471,1735.868Z" transform="translate(-976.813 -1708.785)" fill="#344154"/>
      <rect id="Rectángulo_7945" data-name="Rectángulo 7945" width="1.714" height="4.103" rx="0.857" transform="translate(3.394 11.445)" fill="#344154"/>
      <path id="Trazado_104588" data-name="Trazado 104588" d="M973.024,1716.924h-.083V1712.6a.782.782,0,0,1,.782-.782h.205v.083h-.205a.7.7,0,0,0-.7.7Z" transform="translate(-970.34 -1698.847)" fill="#344154"/>
      <path id="Trazado_104589" data-name="Trazado 104589" d="M973.958,1717.316l-.238-4.065a.511.511,0,0,1,.464-.553l.046,0v.083a.443.443,0,0,0-.311.133.428.428,0,0,0-.111.322l.238,4.059Z" transform="translate(-970.686 -1699.239)" fill="#344154"/>
      <rect id="Rectángulo_7946" data-name="Rectángulo 7946" width="1.159" height="1.342" transform="translate(2.385 17.7)" fill="#344154"/>
      <rect id="Rectángulo_7947" data-name="Rectángulo 7947" width="0.471" height="0.089" transform="translate(2.645 15.15)" fill="#344154"/>
      <path id="Trazado_104590" data-name="Trazado 104590" d="M976.481,1703.948h.1l.305-.033,1.17-.139,4.364-.493.715-.078a1.186,1.186,0,0,1,.372,0,1.487,1.487,0,0,1,.36.139,1.321,1.321,0,0,1,.555.555,1.194,1.194,0,0,1,.122.394,1.13,1.13,0,0,1,0,.205v12.094h-4.536a5.115,5.115,0,0,0-.776.039,3.157,3.157,0,0,0-.743.211,3.077,3.077,0,0,0-1.636,1.691,3.145,3.145,0,0,0-.161.554v.521h-5.8v-6.671a3.274,3.274,0,0,1,.028-.4,4.057,4.057,0,0,1,.488-1.486c.233-.444.466-.876.688-1.287.438-.832.848-1.6,1.214-2.29l.993-1.858.211-.388a1.38,1.38,0,0,1,.1-.183.9.9,0,0,1,.116-.167,2.37,2.37,0,0,1,.521-.488,2.639,2.639,0,0,1,.893-.388,2.414,2.414,0,0,1,.333-.05h-.083l-.25.05a2.675,2.675,0,0,0-.887.388,2.481,2.481,0,0,0-.516.488,1.619,1.619,0,0,0-.111.161c-.039.061-.067.122-.1.183l-.211.394c-.288.554-.615,1.164-.987,1.858l-1.2,2.285-.688,1.292a4.1,4.1,0,0,0-.482,1.475v7.148h5.723v-.532a3.694,3.694,0,0,1,.166-.554,3.092,3.092,0,0,1,1.664-1.719,3.231,3.231,0,0,1,.754-.211,5.3,5.3,0,0,1,.782-.039h4.514v-11.889a1.954,1.954,0,0,0,0-.41,1.233,1.233,0,0,0-.116-.377,1.3,1.3,0,0,0-.555-.555,1.141,1.141,0,0,0-.349-.133,1.328,1.328,0,0,0-.366-.028l-.715.078-4.364.482-1.17.128-.305.033Z" transform="translate(-969.427 -1695.004)" fill="#344154"/>
      <path id="Trazado_104591" data-name="Trazado 104591" d="M991.156,1720.892h.067a.592.592,0,0,0,.177-.072.465.465,0,0,0,.177-.233.417.417,0,0,0,0-.189.437.437,0,0,0-.05-.2.452.452,0,0,0-.388-.238h-1.869a.45.45,0,0,0-.3.116.471.471,0,0,0-.01.667.48.48,0,0,0,.138.1.7.7,0,0,0,.283.033h-.144a.692.692,0,0,1-.15-.033.518.518,0,0,1-.239-.211.558.558,0,0,1-.061-.322.471.471,0,0,1,.155-.305.491.491,0,0,1,.327-.128h1.869a.482.482,0,0,1,.416.261.487.487,0,0,1,.05.211.436.436,0,0,1-.028.194.465.465,0,0,1-.194.244.446.446,0,0,1-.183.061Z" transform="translate(-977.398 -1702.437)" fill="#344154"/>
      <path id="Trazado_104592" data-name="Trazado 104592" d="M991.586,1719.756h-.738q-.369.018-.738,0a5.094,5.094,0,0,1,.738,0A5.311,5.311,0,0,1,991.586,1719.756Z" transform="translate(-977.989 -1702.377)" fill="#fff"/>
      <path id="Trazado_104593" data-name="Trazado 104593" d="M981.919,1734.219l-.688-.05c.183-2.462.444-3.937.81-4.508a2.734,2.734,0,0,1,2.151-1.42,10.126,10.126,0,0,1,2.129-.067h.172c1.436.055,4.436,0,4.475,0v.688c-.033,0-3.061.05-4.514,0h-.172a9.471,9.471,0,0,0-1.985.056,2.069,2.069,0,0,0-1.691,1.109C982.456,1730.3,982.14,1731.186,981.919,1734.219Z" transform="translate(-974.033 -1706.121)" fill="#344154"/>
      <rect id="Rectángulo_7948" data-name="Rectángulo 7948" width="33.92" height="22.586" transform="translate(17.301)" fill="#6595bf"/>
      <path id="Trazado_104594" data-name="Trazado 104594" d="M1033.251,1710.984v-21.627H1000.1v21.627h0v-21.627H1033.3C1033.262,1702.555,1033.256,1710.834,1033.251,1710.984Z" transform="translate(-982.439 -1688.841)" fill="#344154"/>
      <path id="Trazado_104595" data-name="Trazado 104595" d="M988.038,1707.717l-.033.028-.094.067-.355.244c-.3.205-.721.482-1.187.782s-.893.555-1.2.749l-.366.222-.105.055h-.033l.1-.066c.089-.055.216-.133.361-.233l1.2-.76,1.192-.771.36-.227.1-.067Z" transform="translate(-975.561 -1697.02)" fill="#fafafa"/>
      <path id="Trazado_104596" data-name="Trazado 104596" d="M985.388,1708.417l-.033.028-.094.067-.355.244c-.3.205-.715.482-1.181.782s-.9.555-1.209.749l-.366.222-.1.055h-.039l.033-.028.094-.067.36-.227,1.2-.765,1.192-.771.36-.227.1-.061Z" transform="translate(-974.381 -1697.332)" fill="#fafafa"/>
      <path id="Trazado_104597" data-name="Trazado 104597" d="M974.893,1711.378a.153.153,0,0,0-.028-.072.923.923,0,0,1-.055-.216,3.322,3.322,0,0,1-.089-.71,1.539,1.539,0,0,1,.161-.7,1.073,1.073,0,0,1,.122-.183l.061-.056a2.429,2.429,0,0,0-.15.255,1.564,1.564,0,0,0-.15.687,3.8,3.8,0,0,0,.078.7C974.876,1711.267,974.9,1711.378,974.893,1711.378Z" transform="translate(-971.133 -1697.786)" fill="#fafafa"/>
      <path id="Trazado_104598" data-name="Trazado 104598" d="M968.711,1721.991v-.36a5.659,5.659,0,0,1,.05-.86c.05-.333.061-.643.089-.859a.584.584,0,0,1,.033-.261.078.078,0,0,0,0-.094v.355c0,.233-.044.554-.072.859s-.044.632-.061.865v.261C968.75,1721.969,968.717,1721.991,968.711,1721.991Z" transform="translate(-968.456 -1702.295)" fill="#fafafa"/>
      <path id="Trazado_104599" data-name="Trazado 104599" d="M983.846,1726.957a4.1,4.1,0,0,0-.422.116,3.7,3.7,0,0,0-.443.177,4.164,4.164,0,0,0-.494.3,3.833,3.833,0,0,0-.438.383,3.1,3.1,0,0,0-.3.366c-.155.222-.227.372-.238.366l.05-.105c0-.033.039-.078.067-.122s.061-.105.094-.155a3.2,3.2,0,0,1,.3-.377,3.433,3.433,0,0,1,.438-.394,3.535,3.535,0,0,1,.5-.3,2.594,2.594,0,0,1,.449-.172l.177-.05h.139Z" transform="translate(-974.158 -1705.591)" fill="#fafafa"/>
      <path id="Trazado_104600" data-name="Trazado 104600" d="M1000.877,1706.049v-2.1c0-1.3-.055-3.089-.089-5.063s-.067-3.771-.078-5.068v-2.091a.158.158,0,0,0,0-.039v2.141c0,1.3.055,3.089.089,5.068s.067,3.765.078,5.063v2.063A.212.212,0,0,0,1000.877,1706.049Z" transform="translate(-982.711 -1689.879)" fill="#fafafa"/>
      <path id="Trazado_104601" data-name="Trazado 104601" d="M1038.191,1733.941a4.126,4.126,0,1,0,4.187-4.065,4.126,4.126,0,0,0-4.187,4.065Z" transform="translate(-999.407 -1706.891)" fill="#344154"/>
      <path id="Trazado_104602" data-name="Trazado 104602" d="M1038.191,1737.187h0a4.126,4.126,0,1,0,8.251.117h0Z" transform="translate(-999.407 -1710.148)" fill="#344154"/>
      <path id="Trazado_104603" data-name="Trazado 104603" d="M1040.411,1734.943a2.9,2.9,0,1,0,2.944-2.856h0a2.889,2.889,0,0,0-2.939,2.839Z" transform="translate(-1000.396 -1707.876)" fill="#fafafa"/>
      <path id="Trazado_104604" data-name="Trazado 104604" d="M1043.35,1732.087a2.9,2.9,0,0,0-2.939,2.856l5.795.083A2.9,2.9,0,0,0,1043.35,1732.087Z" transform="translate(-1000.396 -1707.876)" fill="#e0e0e0"/>
      <path id="Trazado_104605" data-name="Trazado 104605" d="M1042.451,1735.868a1.739,1.739,0,1,0,0-.006Z" transform="translate(-1001.305 -1708.785)" fill="#344154"/>
      <path id="Trazado_104606" data-name="Trazado 104606" d="M1035.836,1734.653s-.632-5.856,5.434-5.856c5.6,0,5.473,5.035,5.423,5.817h-.882s.449-4.963-4.542-4.963-4.553,5.063-4.553,5.063Z" transform="translate(-998.35 -1706.411)" fill="#5e6178"/>
      <path id="Trazado_104607" data-name="Trazado 104607" d="M1039.346,1729.887h-.05l-.139.044a4.769,4.769,0,0,0-.494.194,3.942,3.942,0,0,0-1.375,1.048,3.994,3.994,0,0,0-.782,1.564,3.621,3.621,0,0,0-.105.521v.139a.341.341,0,0,1,0,.05v-.194a4.121,4.121,0,0,1,.089-.521,3.913,3.913,0,0,1,.793-1.558,3.957,3.957,0,0,1,1.4-1.054,3.688,3.688,0,0,1,.5-.177l.144-.033Z" transform="translate(-998.61 -1706.896)" fill="#fafafa"/>
    </g>
  </g>
</svg>
