<svg xmlns="http://www.w3.org/2000/svg" width="1234" height="396.889" viewBox="0 0 1234 396.889">
  <g id="Grupo_77927" data-name="Grupo 77927" transform="translate(-183 -17808.77)">
    <path id="Trazado_138530" data-name="Trazado 138530" d="M0,0H1232.958V347.794H0Z" transform="translate(183 17857.863)" fill="#f6f6f6"/>
    <path id="Trazado_138531" data-name="Trazado 138531" d="M0,0H616.982V64.528H0Z" transform="translate(800.018 17808.77)" fill="#d9a171"/>
    <path id="Trazado_138532" data-name="Trazado 138532" d="M0,0H616.982V64.528H0Z" transform="translate(183 17808.77)" fill="#aed3f2"/>
    <path id="Trazado_138533" data-name="Trazado 138533" d="M0,0H614.9V69.905H0Z" transform="translate(801.061 18004.355)" fill="#5e6178"/>
    <path id="Trazado_138534" data-name="Trazado 138534" d="M259.166,17.217h-4.88L253.358,20H250.4l5.028-13.508h2.579L263.062,20H260.1Zm-4.128-2.254h3.377l-1.7-5.056Zm13.285,3.062a1.759,1.759,0,0,0,1.206-.408,1.43,1.43,0,0,0,.482-1.085h2.514a3.439,3.439,0,0,1-.557,1.869,3.673,3.673,0,0,1-1.5,1.317,4.689,4.689,0,0,1-2.1.469,4.358,4.358,0,0,1-3.4-1.368,5.415,5.415,0,0,1-1.243-3.781V14.86a5.353,5.353,0,0,1,1.234-3.7,4.307,4.307,0,0,1,3.386-1.382,4.222,4.222,0,0,1,3.02,1.072,3.794,3.794,0,0,1,1.155,2.853h-2.514a1.842,1.842,0,0,0-.482-1.273,1.793,1.793,0,0,0-2.639.193,3.958,3.958,0,0,0-.478,2.216v.279a4.008,4.008,0,0,0,.473,2.23A1.635,1.635,0,0,0,268.322,18.024Zm8.943-10.53V9.962h1.716v1.967h-1.716v5.01a1.2,1.2,0,0,0,.213.8,1.072,1.072,0,0,0,.816.241,4.276,4.276,0,0,0,.789-.065v2.032a5.52,5.52,0,0,1-1.624.241,2.56,2.56,0,0,1-2.876-2.848V11.929h-1.466V9.962h1.466V7.494ZM283.305,20h-2.69V9.962h2.69ZM280.457,7.364a1.32,1.32,0,0,1,.4-.993,1.739,1.739,0,0,1,2.194,0,1.313,1.313,0,0,1,.408.993,1.316,1.316,0,0,1-.413,1,1.72,1.72,0,0,1-2.18,0A1.316,1.316,0,0,1,280.457,7.364Zm8.813,9.361,1.865-6.763h2.8L290.551,20H287.99L284.6,9.962h2.8Zm5.288-1.837a5.953,5.953,0,0,1,.575-2.663,4.211,4.211,0,0,1,1.656-1.809,4.831,4.831,0,0,1,2.51-.64,4.571,4.571,0,0,1,3.317,1.243,4.989,4.989,0,0,1,1.433,3.377l.019.687a5.247,5.247,0,0,1-1.29,3.706,5,5,0,0,1-6.926,0,5.339,5.339,0,0,1-1.294-3.785Zm2.681.19a3.752,3.752,0,0,0,.538,2.188,1.933,1.933,0,0,0,3.062.009,4.106,4.106,0,0,0,.547-2.393,3.715,3.715,0,0,0-.547-2.174,1.779,1.779,0,0,0-1.54-.771,1.75,1.75,0,0,0-1.521.767A4.175,4.175,0,0,0,297.24,15.079Z" transform="translate(214.481 17831.574)" fill="#12263f"/>
    <path id="Trazado_138535" data-name="Trazado 138535" d="M251.968,15.241V20h-2.783V6.492h5.27a6.1,6.1,0,0,1,2.677.557,4.1,4.1,0,0,1,1.777,1.582,4.41,4.41,0,0,1,.622,2.333,3.878,3.878,0,0,1-1.359,3.131,5.661,5.661,0,0,1-3.762,1.146Zm0-2.254h2.486a2.445,2.445,0,0,0,1.684-.52,1.89,1.89,0,0,0,.58-1.484,2.228,2.228,0,0,0-.584-1.6,2.183,2.183,0,0,0-1.614-.631h-2.551ZM266.979,20a2.978,2.978,0,0,1-.269-.9,3.244,3.244,0,0,1-2.533,1.085,3.564,3.564,0,0,1-2.445-.854,2.745,2.745,0,0,1-.969-2.152,2.837,2.837,0,0,1,1.183-2.449,5.837,5.837,0,0,1,3.419-.863H266.6v-.575a1.654,1.654,0,0,0-.357-1.113,1.405,1.405,0,0,0-1.127-.417,1.6,1.6,0,0,0-1.062.325,1.1,1.1,0,0,0-.385.891h-2.681a2.693,2.693,0,0,1,.538-1.614,3.557,3.557,0,0,1,1.521-1.164,5.545,5.545,0,0,1,2.208-.422,4.381,4.381,0,0,1,2.946.932,3.262,3.262,0,0,1,1.09,2.621v4.351a4.8,4.8,0,0,0,.4,2.162V20Zm-2.217-1.865a2.309,2.309,0,0,0,1.095-.264,1.737,1.737,0,0,0,.742-.71V15.436h-1q-2.013,0-2.143,1.392l-.009.158a1.073,1.073,0,0,0,.353.826A1.369,1.369,0,0,0,264.762,18.135Zm12.023-.909a.864.864,0,0,0-.487-.775,5.533,5.533,0,0,0-1.563-.506q-3.581-.751-3.581-3.043a2.758,2.758,0,0,1,1.109-2.231,4.472,4.472,0,0,1,2.9-.9,4.813,4.813,0,0,1,3.057.9,2.836,2.836,0,0,1,1.146,2.338h-2.681a1.3,1.3,0,0,0-.371-.951,1.57,1.57,0,0,0-1.16-.376,1.6,1.6,0,0,0-1.048.306.966.966,0,0,0-.371.779.826.826,0,0,0,.422.719,4.342,4.342,0,0,0,1.424.473,11.631,11.631,0,0,1,1.688.45,2.774,2.774,0,0,1,2.125,2.7,2.618,2.618,0,0,1-1.178,2.222,5.083,5.083,0,0,1-3.043.849,5.309,5.309,0,0,1-2.24-.45A3.759,3.759,0,0,1,271.4,18.5a2.867,2.867,0,0,1-.557-1.693h2.542a1.4,1.4,0,0,0,.529,1.095,2.1,2.1,0,0,0,1.317.38,1.941,1.941,0,0,0,1.164-.292A.909.909,0,0,0,276.785,17.226ZM283.947,20h-2.69V9.962h2.69ZM281.1,7.364a1.32,1.32,0,0,1,.4-.993,1.739,1.739,0,0,1,2.194,0,1.313,1.313,0,0,1,.408.993,1.316,1.316,0,0,1-.413,1,1.72,1.72,0,0,1-2.18,0A1.316,1.316,0,0,1,281.1,7.364Zm8.813,9.361,1.865-6.763h2.8L291.193,20h-2.561L285.246,9.962h2.8Zm5.288-1.837a5.953,5.953,0,0,1,.575-2.663,4.211,4.211,0,0,1,1.656-1.809,4.831,4.831,0,0,1,2.51-.64,4.571,4.571,0,0,1,3.317,1.243,4.989,4.989,0,0,1,1.433,3.377l.019.687a5.247,5.247,0,0,1-1.29,3.706,5,5,0,0,1-6.926,0,5.339,5.339,0,0,1-1.294-3.785Zm2.681.19a3.752,3.752,0,0,0,.538,2.188,1.933,1.933,0,0,0,3.062.009,4.106,4.106,0,0,0,.547-2.393,3.715,3.715,0,0,0-.547-2.174,1.779,1.779,0,0,0-1.54-.771,1.75,1.75,0,0,0-1.521.767A4.175,4.175,0,0,0,297.882,15.079Z" transform="translate(828.846 17831.574)" fill="#12263f"/>
    <path id="Trazado_138536" data-name="Trazado 138536" d="M73.532,12.819h.946a3.151,3.151,0,0,0,1.985-.524,1.834,1.834,0,0,0,.659-1.526,1.881,1.881,0,0,0-.552-1.494,2.586,2.586,0,0,0-1.73-.482H73.532Zm6.494-2.152a4.146,4.146,0,0,1-1.368,3.349,5.852,5.852,0,0,1-3.892,1.16H73.532V20H70.656V6.437h4.333A5.763,5.763,0,0,1,78.742,7.5,3.873,3.873,0,0,1,80.027,10.667ZM88.951,20,88.4,18.59H88.33a4.179,4.179,0,0,1-1.47,1.248,4.752,4.752,0,0,1-1.971.348,3.188,3.188,0,0,1-2.352-.854,3.278,3.278,0,0,1-.858-2.431,2.737,2.737,0,0,1,1.155-2.435,6.693,6.693,0,0,1,3.484-.867l1.8-.056v-.455A1.411,1.411,0,0,0,86.5,11.511a7.356,7.356,0,0,0-2.922.751l-.937-1.911a8.432,8.432,0,0,1,3.971-.937,4.946,4.946,0,0,1,3.2.909,3.36,3.36,0,0,1,1.113,2.765V20Zm-.835-4.806-1.095.037a3.506,3.506,0,0,0-1.837.445,1.4,1.4,0,0,0-.6,1.243q0,1.2,1.373,1.2a2.175,2.175,0,0,0,1.573-.566,1.988,1.988,0,0,0,.589-1.5ZM98.21,17.931a6.134,6.134,0,0,0,1.781-.325v2.106a6.351,6.351,0,0,1-2.6.473,3.179,3.179,0,0,1-2.472-.858,3.735,3.735,0,0,1-.775-2.574v-5H92.792v-1.2l1.559-.946.816-2.189h1.809V9.628h2.9v2.125h-2.9v5a1.1,1.1,0,0,0,.339.891A1.336,1.336,0,0,0,98.21,17.931Zm9.667-8.5a4.563,4.563,0,0,1,.956.083l-.213,2.653a3.242,3.242,0,0,0-.835-.093,3,3,0,0,0-2.111.7,2.515,2.515,0,0,0-.756,1.948V20h-2.83V9.628h2.143l.417,1.744h.139a3.9,3.9,0,0,1,1.3-1.406A3.214,3.214,0,0,1,107.877,9.433ZM110.6,6.947q0-1.382,1.54-1.382t1.54,1.382a1.348,1.348,0,0,1-.385,1.025,1.618,1.618,0,0,1-1.155.366Q110.6,8.338,110.6,6.947ZM113.546,20h-2.83V9.628h2.83ZM125.8,20h-2.83V13.942a3.052,3.052,0,0,0-.376-1.684,1.322,1.322,0,0,0-1.183-.561,1.713,1.713,0,0,0-1.577.8,5.233,5.233,0,0,0-.492,2.625V20h-2.83V9.628h2.162l.38,1.327h.158a2.875,2.875,0,0,1,1.206-1.118,3.916,3.916,0,0,1,1.809-.4,3.259,3.259,0,0,1,3.154,1.521h.25a2.8,2.8,0,0,1,1.229-1.123,4.1,4.1,0,0,1,1.832-.4,3.617,3.617,0,0,1,2.667.9,3.972,3.972,0,0,1,.9,2.9V20h-2.839V13.942a3.052,3.052,0,0,0-.376-1.684,1.322,1.322,0,0,0-1.183-.561,1.765,1.765,0,0,0-1.554.742A4.211,4.211,0,0,0,125.8,14.8Zm11.625-5.2a4.353,4.353,0,0,0,.506,2.329,1.808,1.808,0,0,0,1.647.789,1.779,1.779,0,0,0,1.628-.784,4.416,4.416,0,0,0,.5-2.333,4.284,4.284,0,0,0-.5-2.31,2.13,2.13,0,0,0-3.275,0A4.28,4.28,0,0,0,137.426,14.8Zm7.171,0a5.574,5.574,0,0,1-1.336,3.961,4.844,4.844,0,0,1-3.72,1.429,5.2,5.2,0,0,1-2.635-.654,4.352,4.352,0,0,1-1.753-1.879,6.313,6.313,0,0,1-.612-2.857,5.543,5.543,0,0,1,1.327-3.952,4.872,4.872,0,0,1,3.729-1.41,5.234,5.234,0,0,1,2.635.649,4.335,4.335,0,0,1,1.753,1.865A6.254,6.254,0,0,1,144.6,14.8ZM156.509,20h-2.83V13.942a2.91,2.91,0,0,0-.4-1.684,1.451,1.451,0,0,0-1.271-.561,1.911,1.911,0,0,0-1.716.793,4.919,4.919,0,0,0-.529,2.63V20h-2.83V9.628H149.1l.38,1.327h.158a2.99,2.99,0,0,1,1.3-1.136,4.439,4.439,0,0,1,1.888-.385,3.627,3.627,0,0,1,2.746.979,3.928,3.928,0,0,1,.937,2.825ZM159.3,6.947q0-1.382,1.54-1.382t1.54,1.382A1.348,1.348,0,0,1,162,7.972a1.618,1.618,0,0,1-1.155.366Q159.3,8.338,159.3,6.947ZM162.252,20h-2.83V9.628h2.83Zm5.223-5.2a4.353,4.353,0,0,0,.506,2.329,1.808,1.808,0,0,0,1.647.789,1.779,1.779,0,0,0,1.628-.784,4.416,4.416,0,0,0,.5-2.333,4.284,4.284,0,0,0-.5-2.31,2.13,2.13,0,0,0-3.275,0A4.28,4.28,0,0,0,167.475,14.8Zm7.171,0a5.574,5.574,0,0,1-1.336,3.961,4.844,4.844,0,0,1-3.72,1.429,5.2,5.2,0,0,1-2.635-.654,4.352,4.352,0,0,1-1.753-1.879,6.313,6.313,0,0,1-.612-2.857,5.543,5.543,0,0,1,1.327-3.952,4.872,4.872,0,0,1,3.729-1.41,5.234,5.234,0,0,1,2.635.649,4.335,4.335,0,0,1,1.753,1.865A6.254,6.254,0,0,1,174.646,14.8Z" transform="translate(988.902 18026.137)" fill="#fff"/>
    <path id="Trazado_138537" data-name="Trazado 138537" d="M1220.775,0H0" transform="translate(189.786 17934.449)" fill="none" stroke="#5e6178" stroke-width="2" stroke-dasharray="4"/>
    <path id="Trazado_138538" data-name="Trazado 138538" d="M605.9,0H0" transform="translate(189.785 18004.355)" fill="none" stroke="#5e6178" stroke-width="2" stroke-dasharray="4"/>
    <path id="Trazado_138539" data-name="Trazado 138539" d="M605.9,0H0" transform="translate(189.785 18074.262)" fill="none" stroke="#5e6178" stroke-width="2" stroke-dasharray="4"/>
    <path id="Trazado_138540" data-name="Trazado 138540" d="M1220.775,0H0" transform="translate(189.786 18144.166)" fill="none" stroke="#5e6178" stroke-width="2" stroke-dasharray="4"/>
    <path id="Trazado_138541" data-name="Trazado 138541" d="M0,0H1232.958V56H0Z" transform="translate(183 17874.297)" fill="#fff"/>
    <path id="Trazado_138542" data-name="Trazado 138542" d="M0,0H612.682V60.753H0Z" transform="translate(183 18008.508)" fill="#fff"/>
    <path id="Trazado_138543" data-name="Trazado 138543" d="M0,0H1232.958V56.753H0Z" transform="translate(183 18145.166)" fill="#fff"/>
    <path id="Trazado_138544" data-name="Trazado 138544" d="M8.719,13.085H3.173V17.62H9.615V19H1.485V6.2H9.527v1.38H3.173v4.122H8.719ZM12.1,19V10.747H10.6V9.49h1.5V8.515A3.238,3.238,0,0,1,12.92,6.15a3.088,3.088,0,0,1,2.312-.835,4.293,4.293,0,0,1,1.116.148L16.26,6.774a4.67,4.67,0,0,0-.879-.079,1.586,1.586,0,0,0-1.222.463,1.877,1.877,0,0,0-.431,1.327V9.49h2.03v1.257h-2.03V19Zm9.4.176a4.155,4.155,0,0,1-3.146-1.27,4.714,4.714,0,0,1-1.213-3.4v-.3a5.707,5.707,0,0,1,.541-2.527,4.217,4.217,0,0,1,1.512-1.74,3.8,3.8,0,0,1,2.1-.628,3.562,3.562,0,0,1,2.883,1.222,5.289,5.289,0,0,1,1.028,3.5v.677H18.765a3.38,3.38,0,0,0,.822,2.272,2.583,2.583,0,0,0,2,.866,2.832,2.832,0,0,0,1.459-.352,3.666,3.666,0,0,0,1.046-.932l.993.773A3.993,3.993,0,0,1,21.5,19.176Zm-.2-8.525a2.169,2.169,0,0,0-1.652.716,3.482,3.482,0,0,0-.826,2.008h4.764v-.123a3.1,3.1,0,0,0-.668-1.92A2.042,2.042,0,0,0,21.3,10.65Zm9.606,7.2a2.342,2.342,0,0,0,1.521-.527A1.855,1.855,0,0,0,33.144,16h1.538a2.949,2.949,0,0,1-.562,1.556,3.7,3.7,0,0,1-1.384,1.178,3.994,3.994,0,0,1-1.833.439,3.918,3.918,0,0,1-3.089-1.3,5.163,5.163,0,0,1-1.147-3.546v-.272a5.725,5.725,0,0,1,.51-2.47,3.883,3.883,0,0,1,1.463-1.679,4.157,4.157,0,0,1,2.254-.6,3.814,3.814,0,0,1,2.659.958,3.424,3.424,0,0,1,1.129,2.487H33.144a2.241,2.241,0,0,0-.7-1.516,2.174,2.174,0,0,0-1.551-.593,2.276,2.276,0,0,0-1.92.892,4.19,4.19,0,0,0-.681,2.58v.308a4.106,4.106,0,0,0,.677,2.531A2.287,2.287,0,0,0,30.9,17.849ZM38.716,7.188v2.3h1.775v1.257H38.716v5.9a1.32,1.32,0,0,0,.237.858,1,1,0,0,0,.809.286,3.937,3.937,0,0,0,.773-.105V19a4.742,4.742,0,0,1-1.248.175,2.025,2.025,0,0,1-1.644-.659,2.832,2.832,0,0,1-.554-1.872v-5.9H35.358V9.49H37.09v-2.3ZM44.156,19H42.53V9.49h1.626ZM42.4,6.968A.971.971,0,0,1,42.64,6.3a.907.907,0,0,1,.716-.272.922.922,0,0,1,.721.272.96.96,0,0,1,.246.668.929.929,0,0,1-.246.659.938.938,0,0,1-.721.264.924.924,0,0,1-.716-.264A.938.938,0,0,1,42.4,6.968Zm7.5,9.826,2.355-7.3h1.661L50.5,19H49.263L45.817,9.49h1.661Zm5.019-2.637a5.617,5.617,0,0,1,.549-2.514,4.1,4.1,0,0,1,1.529-1.723,4.163,4.163,0,0,1,2.237-.606,4.01,4.01,0,0,1,3.142,1.345,5.174,5.174,0,0,1,1.2,3.577v.114a5.666,5.666,0,0,1-.532,2.492,4.038,4.038,0,0,1-1.521,1.718,4.211,4.211,0,0,1-2.272.615,4,4,0,0,1-3.133-1.345,5.147,5.147,0,0,1-1.2-3.56Zm1.635.193a4.068,4.068,0,0,0,.734,2.54,2.487,2.487,0,0,0,3.933-.013,4.449,4.449,0,0,0,.729-2.72,4.061,4.061,0,0,0-.743-2.536,2.361,2.361,0,0,0-1.973-.971,2.335,2.335,0,0,0-1.942.958A4.416,4.416,0,0,0,56.549,14.351ZM1.485,89V76.2H5.1a5.815,5.815,0,0,1,2.953.738,4.993,4.993,0,0,1,1.982,2.1,6.837,6.837,0,0,1,.708,3.129v.817a6.861,6.861,0,0,1-.7,3.173,4.915,4.915,0,0,1-2,2.092A6.185,6.185,0,0,1,5.027,89ZM3.173,77.583V87.62H4.948a3.863,3.863,0,0,0,3.037-1.214A5.016,5.016,0,0,0,9.07,82.949V82.2A5.1,5.1,0,0,0,8.046,78.81a3.644,3.644,0,0,0-2.9-1.227ZM16.98,89.176a4.155,4.155,0,0,1-3.146-1.27,4.714,4.714,0,0,1-1.213-3.4v-.3a5.707,5.707,0,0,1,.541-2.527,4.217,4.217,0,0,1,1.512-1.74,3.8,3.8,0,0,1,2.1-.628,3.562,3.562,0,0,1,2.883,1.222,5.289,5.289,0,0,1,1.028,3.5v.677H14.247a3.38,3.38,0,0,0,.822,2.272,2.583,2.583,0,0,0,2,.866,2.832,2.832,0,0,0,1.459-.352,3.666,3.666,0,0,0,1.046-.932l.993.773A3.993,3.993,0,0,1,16.98,89.176Zm-.2-8.525a2.169,2.169,0,0,0-1.652.716,3.482,3.482,0,0,0-.826,2.008h4.764v-.123a3.1,3.1,0,0,0-.668-1.92A2.042,2.042,0,0,0,16.778,80.65ZM28.441,88.06a3.454,3.454,0,0,1-2.786,1.116,2.956,2.956,0,0,1-2.316-.883,3.823,3.823,0,0,1-.8-2.615V79.49h1.626v6.144q0,2.162,1.758,2.162A2.434,2.434,0,0,0,28.4,86.407V79.49h1.626V89H28.477ZM32.1,84.166a5.571,5.571,0,0,1,1.037-3.52,3.529,3.529,0,0,1,5.361-.189V75.5h1.626V89H38.628l-.079-1.02a3.311,3.311,0,0,1-2.716,1.2,3.248,3.248,0,0,1-2.694-1.354A5.634,5.634,0,0,1,32.1,84.289Zm1.626.185a4.218,4.218,0,0,0,.668,2.531,2.159,2.159,0,0,0,1.846.914A2.372,2.372,0,0,0,38.5,86.407V82.039a2.39,2.39,0,0,0-2.241-1.345,2.17,2.17,0,0,0-1.863.923A4.644,4.644,0,0,0,33.724,84.351Zm8.49-.193a5.617,5.617,0,0,1,.549-2.514,4.1,4.1,0,0,1,1.529-1.723,4.163,4.163,0,0,1,2.237-.606,4.01,4.01,0,0,1,3.142,1.345,5.174,5.174,0,0,1,1.2,3.577v.114a5.666,5.666,0,0,1-.532,2.492,4.038,4.038,0,0,1-1.521,1.718,4.211,4.211,0,0,1-2.272.615,4,4,0,0,1-3.133-1.345,5.147,5.147,0,0,1-1.2-3.56Zm1.635.193a4.068,4.068,0,0,0,.734,2.54,2.487,2.487,0,0,0,3.933-.013,4.449,4.449,0,0,0,.729-2.72,4.061,4.061,0,0,0-.743-2.536,2.361,2.361,0,0,0-1.973-.971,2.335,2.335,0,0,0-1.942.958A4.416,4.416,0,0,0,43.849,84.351Zm13.658-3.4a4.873,4.873,0,0,0-.8-.062,2.143,2.143,0,0,0-2.171,1.362V89H52.91V79.49h1.582l.026,1.1a2.532,2.532,0,0,1,2.268-1.274,1.661,1.661,0,0,1,.721.123Zm5.44,8.227a4.155,4.155,0,0,1-3.146-1.27,4.714,4.714,0,0,1-1.213-3.4v-.3a5.707,5.707,0,0,1,.541-2.527,4.217,4.217,0,0,1,1.512-1.74,3.8,3.8,0,0,1,2.1-.628,3.562,3.562,0,0,1,2.883,1.222,5.289,5.289,0,0,1,1.028,3.5v.677H60.214a3.38,3.38,0,0,0,.822,2.272,2.583,2.583,0,0,0,2,.866,2.832,2.832,0,0,0,1.459-.352,3.666,3.666,0,0,0,1.046-.932l.993.773A3.993,3.993,0,0,1,62.947,89.176Zm-.2-8.525a2.169,2.169,0,0,0-1.652.716,3.482,3.482,0,0,0-.826,2.008H65.03v-.123a3.1,3.1,0,0,0-.668-1.92A2.042,2.042,0,0,0,62.745,80.65Zm11.329,5.827a1.2,1.2,0,0,0-.5-1.024,4.78,4.78,0,0,0-1.731-.628,8.186,8.186,0,0,1-1.96-.633,2.788,2.788,0,0,1-1.072-.879,2.1,2.1,0,0,1-.347-1.213,2.467,2.467,0,0,1,.989-1.978,3.861,3.861,0,0,1,2.527-.809,3.974,3.974,0,0,1,2.624.835,2.652,2.652,0,0,1,1.006,2.136H73.978a1.468,1.468,0,0,0-.567-1.151,2.124,2.124,0,0,0-1.428-.483,2.223,2.223,0,0,0-1.389.387,1.217,1.217,0,0,0-.5,1.011.986.986,0,0,0,.466.888,5.731,5.731,0,0,0,1.683.571,8.77,8.77,0,0,1,1.973.65,2.878,2.878,0,0,1,1.121.91,2.237,2.237,0,0,1,.365,1.3,2.434,2.434,0,0,1-1.02,2.043,4.277,4.277,0,0,1-2.646.769,4.789,4.789,0,0,1-2.021-.4,3.288,3.288,0,0,1-1.375-1.129,2.722,2.722,0,0,1-.5-1.569h1.626a1.683,1.683,0,0,0,.655,1.3,2.54,2.54,0,0,0,1.613.479,2.622,2.622,0,0,0,1.481-.374A1.148,1.148,0,0,0,74.074,86.478ZM3.3,159H1.608V146.2H3.3Zm4.368-9.51.053,1.2a3.465,3.465,0,0,1,2.848-1.371q3.015,0,3.041,3.4V159H11.979v-6.293a2.189,2.189,0,0,0-.47-1.521,1.884,1.884,0,0,0-1.437-.492,2.347,2.347,0,0,0-1.389.422,2.865,2.865,0,0,0-.932,1.107V159H6.126v-9.51Zm11.531,7.3,2.355-7.3h1.661L19.8,159H18.563l-3.445-9.51h1.661Zm9.527,2.382a4.155,4.155,0,0,1-3.146-1.27,4.714,4.714,0,0,1-1.213-3.4v-.3a5.707,5.707,0,0,1,.541-2.527,4.217,4.217,0,0,1,1.512-1.74,3.8,3.8,0,0,1,2.1-.628,3.562,3.562,0,0,1,2.883,1.222,5.289,5.289,0,0,1,1.028,3.5v.677H25.989a3.38,3.38,0,0,0,.822,2.272,2.583,2.583,0,0,0,2,.866,2.832,2.832,0,0,0,1.459-.352,3.666,3.666,0,0,0,1.046-.932l.993.773A3.993,3.993,0,0,1,28.723,159.176Zm-.2-8.525a2.169,2.169,0,0,0-1.652.716,3.482,3.482,0,0,0-.826,2.008h4.764v-.123a3.1,3.1,0,0,0-.668-1.92A2.042,2.042,0,0,0,28.521,150.65Zm7.33-1.16.053,1.2a3.465,3.465,0,0,1,2.848-1.371q3.015,0,3.041,3.4V159H40.166v-6.293a2.189,2.189,0,0,0-.47-1.521,1.884,1.884,0,0,0-1.437-.492,2.347,2.347,0,0,0-1.389.422,2.865,2.865,0,0,0-.932,1.107V159H34.313v-9.51Zm10.6-2.3v2.3h1.775v1.257H46.45v5.9a1.32,1.32,0,0,0,.237.858,1,1,0,0,0,.809.286,3.937,3.937,0,0,0,.773-.105V159a4.742,4.742,0,0,1-1.248.175,2.025,2.025,0,0,1-1.644-.659,2.832,2.832,0,0,1-.554-1.872v-5.9H43.093V149.49h1.731v-2.3ZM56,159a3.416,3.416,0,0,1-.229-1,3.628,3.628,0,0,1-2.707,1.178,3.357,3.357,0,0,1-2.307-.8,2.573,2.573,0,0,1-.9-2.017,2.688,2.688,0,0,1,1.129-2.307,5.325,5.325,0,0,1,3.177-.822H55.74v-.747a1.826,1.826,0,0,0-.51-1.358,2.049,2.049,0,0,0-1.5-.505,2.371,2.371,0,0,0-1.459.439,1.3,1.3,0,0,0-.589,1.063H50.045a2.244,2.244,0,0,1,.505-1.375,3.449,3.449,0,0,1,1.371-1.05,4.613,4.613,0,0,1,1.9-.387,3.759,3.759,0,0,1,2.575.822,2.964,2.964,0,0,1,.967,2.263v4.377a5.351,5.351,0,0,0,.334,2.083V159Zm-2.7-1.239a2.858,2.858,0,0,0,1.45-.4,2.392,2.392,0,0,0,.993-1.028v-1.951H54.466q-2.988,0-2.988,1.749a1.48,1.48,0,0,0,.51,1.2A1.959,1.959,0,0,0,53.3,157.761Zm11.215-6.812a4.873,4.873,0,0,0-.8-.062,2.143,2.143,0,0,0-2.171,1.362V159H59.915v-9.51H61.5l.026,1.1a2.532,2.532,0,0,1,2.268-1.274,1.661,1.661,0,0,1,.721.123ZM67.772,159H66.146v-9.51h1.626Zm-1.758-12.032a.971.971,0,0,1,.242-.668.907.907,0,0,1,.716-.272.922.922,0,0,1,.721.272.96.96,0,0,1,.246.668.929.929,0,0,1-.246.659.938.938,0,0,1-.721.264.924.924,0,0,1-.716-.264A.938.938,0,0,1,66.015,146.968Zm3.929,7.189a5.617,5.617,0,0,1,.549-2.514,4.1,4.1,0,0,1,1.529-1.723,4.163,4.163,0,0,1,2.237-.606,4.01,4.01,0,0,1,3.142,1.345,5.174,5.174,0,0,1,1.2,3.577v.114a5.666,5.666,0,0,1-.532,2.492,4.038,4.038,0,0,1-1.521,1.718,4.211,4.211,0,0,1-2.272.615,4,4,0,0,1-3.133-1.345,5.147,5.147,0,0,1-1.2-3.56Zm1.635.193a4.068,4.068,0,0,0,.734,2.54,2.487,2.487,0,0,0,3.933-.013,4.449,4.449,0,0,0,.729-2.72,4.061,4.061,0,0,0-.743-2.536,2.361,2.361,0,0,0-1.973-.971,2.335,2.335,0,0,0-1.942.958A4.416,4.416,0,0,0,71.578,154.351Zm14.6,2.127a1.2,1.2,0,0,0-.5-1.024,4.78,4.78,0,0,0-1.731-.628,8.186,8.186,0,0,1-1.96-.633,2.788,2.788,0,0,1-1.072-.879,2.1,2.1,0,0,1-.347-1.213,2.467,2.467,0,0,1,.989-1.978,3.861,3.861,0,0,1,2.527-.809,3.974,3.974,0,0,1,2.624.835,2.652,2.652,0,0,1,1.006,2.136H86.08a1.468,1.468,0,0,0-.567-1.151,2.124,2.124,0,0,0-1.428-.483,2.223,2.223,0,0,0-1.389.387,1.217,1.217,0,0,0-.5,1.011.986.986,0,0,0,.466.888,5.731,5.731,0,0,0,1.683.571,8.77,8.77,0,0,1,1.973.65,2.878,2.878,0,0,1,1.121.91,2.237,2.237,0,0,1,.365,1.3,2.434,2.434,0,0,1-1.02,2.043,4.277,4.277,0,0,1-2.646.769,4.789,4.789,0,0,1-2.021-.4,3.288,3.288,0,0,1-1.375-1.129,2.722,2.722,0,0,1-.5-1.569H81.87a1.683,1.683,0,0,0,.655,1.3,2.54,2.54,0,0,0,1.613.479,2.622,2.622,0,0,0,1.481-.374A1.148,1.148,0,0,0,86.177,156.478Zm-83,67.513V229H1.485V216.2h4.72A4.742,4.742,0,0,1,9.5,217.275a3.635,3.635,0,0,1,1.191,2.839,3.587,3.587,0,0,1-1.165,2.87,4.954,4.954,0,0,1-3.335,1.006Zm0-1.38H6.205a3.032,3.032,0,0,0,2.074-.638A2.334,2.334,0,0,0,9,220.127a2.411,2.411,0,0,0-.721-1.831,2.84,2.84,0,0,0-1.978-.713H3.173Zm14.01-1.661a4.873,4.873,0,0,0-.8-.062,2.143,2.143,0,0,0-2.171,1.362V229H12.586v-9.51h1.582l.026,1.1a2.532,2.532,0,0,1,2.268-1.274,1.661,1.661,0,0,1,.721.123Zm.888,3.208a5.617,5.617,0,0,1,.549-2.514,4.1,4.1,0,0,1,1.529-1.723,4.163,4.163,0,0,1,2.237-.606,4.01,4.01,0,0,1,3.142,1.345,5.174,5.174,0,0,1,1.2,3.577v.114a5.666,5.666,0,0,1-.532,2.492,4.038,4.038,0,0,1-1.521,1.718,4.211,4.211,0,0,1-2.272.615,4,4,0,0,1-3.133-1.345,5.147,5.147,0,0,1-1.2-3.56Zm1.635.193a4.068,4.068,0,0,0,.734,2.54,2.487,2.487,0,0,0,3.933-.013,4.449,4.449,0,0,0,.729-2.72,4.061,4.061,0,0,0-.743-2.536,2.361,2.361,0,0,0-1.973-.971,2.335,2.335,0,0,0-1.942.958A4.416,4.416,0,0,0,19.705,224.351Zm17.095,0a5.694,5.694,0,0,1-.993,3.5,3.183,3.183,0,0,1-2.689,1.327,3.488,3.488,0,0,1-2.725-1.1v4.579H28.767V219.49h1.485l.079,1.055a3.35,3.35,0,0,1,2.76-1.23,3.243,3.243,0,0,1,2.711,1.292,5.756,5.756,0,0,1,1,3.595Zm-1.626-.185a4.2,4.2,0,0,0-.686-2.54,2.208,2.208,0,0,0-1.881-.932A2.39,2.39,0,0,0,30.393,222v4.544a2.4,2.4,0,0,0,2.232,1.3,2.2,2.2,0,0,0,1.859-.927A4.587,4.587,0,0,0,35.174,224.166ZM40.632,229H39.006v-9.51h1.626Zm-1.758-12.032a.971.971,0,0,1,.242-.668.907.907,0,0,1,.716-.272.922.922,0,0,1,.721.272.96.96,0,0,1,.246.668.929.929,0,0,1-.246.659.938.938,0,0,1-.721.264.924.924,0,0,1-.716-.264A.938.938,0,0,1,38.874,216.968Zm8.306,12.208a4.155,4.155,0,0,1-3.146-1.27,4.714,4.714,0,0,1-1.213-3.4v-.3a5.707,5.707,0,0,1,.541-2.527,4.217,4.217,0,0,1,1.512-1.74,3.8,3.8,0,0,1,2.1-.628,3.562,3.562,0,0,1,2.883,1.222,5.289,5.289,0,0,1,1.028,3.5v.677H44.446a3.38,3.38,0,0,0,.822,2.272,2.583,2.583,0,0,0,2,.866,2.832,2.832,0,0,0,1.459-.352,3.666,3.666,0,0,0,1.046-.932l.993.773A3.993,3.993,0,0,1,47.18,229.176Zm-.2-8.525a2.169,2.169,0,0,0-1.652.716,3.482,3.482,0,0,0-.826,2.008h4.764v-.123a3.1,3.1,0,0,0-.668-1.92A2.042,2.042,0,0,0,46.978,220.65Zm5.4,3.516a5.571,5.571,0,0,1,1.037-3.52,3.529,3.529,0,0,1,5.361-.189V215.5H60.4V229H58.9l-.079-1.02a3.311,3.311,0,0,1-2.716,1.2,3.248,3.248,0,0,1-2.694-1.354,5.634,5.634,0,0,1-1.042-3.533Zm1.626.185a4.218,4.218,0,0,0,.668,2.531,2.159,2.159,0,0,0,1.846.914,2.372,2.372,0,0,0,2.259-1.389v-4.368a2.39,2.39,0,0,0-2.241-1.345,2.17,2.17,0,0,0-1.863.923A4.644,4.644,0,0,0,54,224.351ZM68.792,229a3.416,3.416,0,0,1-.229-1,3.628,3.628,0,0,1-2.707,1.178,3.357,3.357,0,0,1-2.307-.8,2.573,2.573,0,0,1-.9-2.017,2.688,2.688,0,0,1,1.129-2.307,5.325,5.325,0,0,1,3.177-.822h1.582v-.747a1.826,1.826,0,0,0-.51-1.358,2.049,2.049,0,0,0-1.5-.505,2.371,2.371,0,0,0-1.459.439,1.3,1.3,0,0,0-.589,1.063H62.842a2.244,2.244,0,0,1,.505-1.375,3.449,3.449,0,0,1,1.371-1.05,4.613,4.613,0,0,1,1.9-.387,3.759,3.759,0,0,1,2.575.822,2.964,2.964,0,0,1,.967,2.263v4.377a5.351,5.351,0,0,0,.334,2.083V229Zm-2.7-1.239a2.858,2.858,0,0,0,1.45-.4,2.392,2.392,0,0,0,.993-1.028v-1.951H67.263q-2.988,0-2.988,1.749a1.48,1.48,0,0,0,.51,1.2A1.959,1.959,0,0,0,66.094,227.761Zm6.223-3.595a5.571,5.571,0,0,1,1.037-3.52,3.529,3.529,0,0,1,5.361-.189V215.5h1.626V229H78.847l-.079-1.02a3.311,3.311,0,0,1-2.716,1.2,3.248,3.248,0,0,1-2.694-1.354,5.634,5.634,0,0,1-1.042-3.533Zm1.626.185a4.218,4.218,0,0,0,.668,2.531,2.159,2.159,0,0,0,1.846.914,2.372,2.372,0,0,0,2.259-1.389v-4.368a2.39,2.39,0,0,0-2.241-1.345,2.17,2.17,0,0,0-1.863.923A4.644,4.644,0,0,0,73.942,224.351Zm8.868,7.2-.923-.633a4.241,4.241,0,0,0,.861-2.373v-1.468H84.34v1.274a4,4,0,0,1-.435,1.775A4.156,4.156,0,0,1,82.811,231.549Zm16.075-7.2a5.694,5.694,0,0,1-.993,3.5,3.183,3.183,0,0,1-2.689,1.327,3.488,3.488,0,0,1-2.725-1.1v4.579H90.853V219.49h1.485l.079,1.055a3.35,3.35,0,0,1,2.76-1.23,3.243,3.243,0,0,1,2.711,1.292,5.756,5.756,0,0,1,1,3.595Zm-1.626-.185a4.2,4.2,0,0,0-.686-2.54,2.208,2.208,0,0,0-1.881-.932A2.39,2.39,0,0,0,92.479,222v4.544a2.4,2.4,0,0,0,2.232,1.3,2.2,2.2,0,0,0,1.859-.927A4.587,4.587,0,0,0,97.26,224.166ZM102.718,229h-1.626V215.5h1.626Zm8.473,0a3.416,3.416,0,0,1-.229-1,3.628,3.628,0,0,1-2.707,1.178,3.357,3.357,0,0,1-2.307-.8,2.573,2.573,0,0,1-.9-2.017,2.688,2.688,0,0,1,1.129-2.307,5.325,5.325,0,0,1,3.177-.822h1.582v-.747a1.826,1.826,0,0,0-.51-1.358,2.049,2.049,0,0,0-1.5-.505,2.371,2.371,0,0,0-1.459.439,1.3,1.3,0,0,0-.589,1.063H105.24a2.244,2.244,0,0,1,.505-1.375,3.449,3.449,0,0,1,1.371-1.05,4.613,4.613,0,0,1,1.9-.387,3.759,3.759,0,0,1,2.575.822,2.964,2.964,0,0,1,.967,2.263v4.377a5.351,5.351,0,0,0,.334,2.083V229Zm-2.7-1.239a2.858,2.858,0,0,0,1.45-.4,2.392,2.392,0,0,0,.993-1.028v-1.951h-1.274q-2.988,0-2.988,1.749a1.48,1.48,0,0,0,.51,1.2A1.959,1.959,0,0,0,108.492,227.761Zm8.156-8.271.053,1.2a3.465,3.465,0,0,1,2.848-1.371q3.015,0,3.041,3.4V229h-1.626v-6.293a2.189,2.189,0,0,0-.47-1.521,1.884,1.884,0,0,0-1.437-.492,2.347,2.347,0,0,0-1.389.422,2.865,2.865,0,0,0-.932,1.107V229H115.11v-9.51Zm10.6-2.3v2.3h1.775v1.257h-1.775v5.9a1.32,1.32,0,0,0,.237.858,1,1,0,0,0,.809.286,3.937,3.937,0,0,0,.773-.105V229a4.742,4.742,0,0,1-1.248.175,2.025,2.025,0,0,1-1.644-.659,2.832,2.832,0,0,1-.554-1.872v-5.9h-1.731V219.49h1.731v-2.3ZM136.793,229a3.416,3.416,0,0,1-.229-1,3.628,3.628,0,0,1-2.707,1.178,3.357,3.357,0,0,1-2.307-.8,2.573,2.573,0,0,1-.9-2.017,2.688,2.688,0,0,1,1.129-2.307,5.325,5.325,0,0,1,3.177-.822h1.582v-.747a1.826,1.826,0,0,0-.51-1.358,2.049,2.049,0,0,0-1.5-.505,2.371,2.371,0,0,0-1.459.439,1.3,1.3,0,0,0-.589,1.063h-1.635a2.244,2.244,0,0,1,.505-1.375,3.449,3.449,0,0,1,1.371-1.05,4.613,4.613,0,0,1,1.9-.387,3.759,3.759,0,0,1,2.575.822,2.964,2.964,0,0,1,.967,2.263v4.377a5.351,5.351,0,0,0,.334,2.083V229Zm-2.7-1.239a2.858,2.858,0,0,0,1.45-.4,2.392,2.392,0,0,0,.993-1.028v-1.951h-1.274q-2.988,0-2.988,1.749a1.48,1.48,0,0,0,.51,1.2A1.959,1.959,0,0,0,134.095,227.761Zm14.186-1.143,2.215-7.128h1.74l-3.823,10.978q-.888,2.373-2.821,2.373l-.308-.026-.606-.114v-1.318l.439.035a2.164,2.164,0,0,0,1.288-.334,2.417,2.417,0,0,0,.76-1.222l.36-.967-3.393-9.4h1.775Zm13.808,2.558a4.155,4.155,0,0,1-3.146-1.27,4.714,4.714,0,0,1-1.213-3.4v-.3a5.707,5.707,0,0,1,.541-2.527,4.217,4.217,0,0,1,1.512-1.74,3.8,3.8,0,0,1,2.1-.628,3.562,3.562,0,0,1,2.883,1.222,5.289,5.289,0,0,1,1.028,3.5v.677h-6.442a3.38,3.38,0,0,0,.822,2.272,2.583,2.583,0,0,0,2,.866,2.832,2.832,0,0,0,1.459-.352,3.666,3.666,0,0,0,1.046-.932l.993.773A3.993,3.993,0,0,1,162.088,229.176Zm-.2-8.525a2.169,2.169,0,0,0-1.652.716,3.482,3.482,0,0,0-.826,2.008h4.764v-.123a3.1,3.1,0,0,0-.668-1.92A2.042,2.042,0,0,0,161.886,220.65Zm5.4,3.516a5.582,5.582,0,0,1,1.028-3.546,3.629,3.629,0,0,1,5.423-.171l.07-.958H175.3v13.166h-1.626v-4.535a3.412,3.412,0,0,1-2.619,1.055,3.28,3.28,0,0,1-2.747-1.34,5.706,5.706,0,0,1-1.024-3.555Zm1.626.185a4.231,4.231,0,0,0,.69,2.566,2.195,2.195,0,0,0,1.859.932,2.435,2.435,0,0,0,2.215-1.283v-4.658a2.442,2.442,0,0,0-2.2-1.257,2.211,2.211,0,0,0-1.872.936A4.606,4.606,0,0,0,168.908,224.351Zm14.871,3.709a3.454,3.454,0,0,1-2.786,1.116,2.956,2.956,0,0,1-2.316-.883,3.823,3.823,0,0,1-.8-2.615V219.49H179.5v6.144q0,2.162,1.758,2.162a2.434,2.434,0,0,0,2.479-1.389V219.49h1.626V229h-1.547Zm5.818.94h-1.626v-9.51H189.6Zm-1.758-12.032a.971.971,0,0,1,.242-.668.907.907,0,0,1,.716-.272.922.922,0,0,1,.721.272.96.96,0,0,1,.246.668.929.929,0,0,1-.246.659.938.938,0,0,1-.721.264.924.924,0,0,1-.716-.264A.938.938,0,0,1,187.84,216.968Zm12.393,7.383a5.694,5.694,0,0,1-.993,3.5,3.183,3.183,0,0,1-2.689,1.327,3.488,3.488,0,0,1-2.725-1.1v4.579H192.2V219.49h1.485l.079,1.055a3.35,3.35,0,0,1,2.76-1.23,3.243,3.243,0,0,1,2.711,1.292,5.756,5.756,0,0,1,1,3.595Zm-1.626-.185a4.2,4.2,0,0,0-.686-2.54,2.208,2.208,0,0,0-1.881-.932,2.39,2.39,0,0,0-2.215,1.31v4.544a2.4,2.4,0,0,0,2.232,1.3,2.2,2.2,0,0,0,1.859-.927A4.587,4.587,0,0,0,198.606,224.166Zm3.261-.009a5.617,5.617,0,0,1,.549-2.514,4.1,4.1,0,0,1,1.529-1.723,4.163,4.163,0,0,1,2.237-.606,4.01,4.01,0,0,1,3.142,1.345,5.174,5.174,0,0,1,1.2,3.577v.114a5.666,5.666,0,0,1-.532,2.492,4.038,4.038,0,0,1-1.521,1.718,4.211,4.211,0,0,1-2.272.615,4,4,0,0,1-3.133-1.345,5.147,5.147,0,0,1-1.2-3.56Zm1.635.193a4.068,4.068,0,0,0,.734,2.54,2.487,2.487,0,0,0,3.933-.013,4.449,4.449,0,0,0,.729-2.72,4.061,4.061,0,0,0-.743-2.536,2.361,2.361,0,0,0-1.973-.971,2.335,2.335,0,0,0-1.942.958A4.416,4.416,0,0,0,203.5,224.351ZM10.775,288.339H6.855V299H4.219V288.339H.352V286.2H10.775Zm11.769,4.553a7.725,7.725,0,0,1-.668,3.313,5.03,5.03,0,0,1-1.912,2.2,5.288,5.288,0,0,1-2.852.773,5.324,5.324,0,0,1-2.839-.765,5.08,5.08,0,0,1-1.934-2.184,7.5,7.5,0,0,1-.694-3.265v-.633A7.685,7.685,0,0,1,12.327,289a5.072,5.072,0,0,1,1.925-2.206,5.3,5.3,0,0,1,2.843-.769,5.3,5.3,0,0,1,2.843.769A5.072,5.072,0,0,1,21.863,289a7.663,7.663,0,0,1,.681,3.318Zm-2.672-.58a5.385,5.385,0,0,0-.721-3.059,2.349,2.349,0,0,0-2.057-1.046,2.349,2.349,0,0,0-2.048,1.033,5.324,5.324,0,0,0-.729,3.028v.624a5.453,5.453,0,0,0,.721,3.041,2.342,2.342,0,0,0,2.074,1.081,2.321,2.321,0,0,0,2.039-1.042,5.421,5.421,0,0,0,.721-3.037Zm13.474-3.973h-3.92V299H26.789V288.339H22.922V286.2H33.346Zm7.673,8.024H36.4L35.517,299h-2.8l4.764-12.8H39.92L44.71,299h-2.8Zm-3.911-2.136h3.2l-1.608-4.79Zm11.435,2.654h5.6V299H45.905V286.2h2.637Z" transform="translate(239.954 17886.609)" fill="#12263f"/>
    <path id="Trazado_138545" data-name="Trazado 138545" d="M3.173,13.99V19H1.485V6.2h4.72A4.742,4.742,0,0,1,9.5,7.275a3.635,3.635,0,0,1,1.191,2.839,3.587,3.587,0,0,1-1.165,2.87A4.954,4.954,0,0,1,6.188,13.99Zm0-1.38H6.205a3.032,3.032,0,0,0,2.074-.638A2.334,2.334,0,0,0,9,10.127,2.411,2.411,0,0,0,8.279,8.3,2.84,2.84,0,0,0,6.3,7.583H3.173Zm14.01-1.661a4.873,4.873,0,0,0-.8-.062,2.143,2.143,0,0,0-2.171,1.362V19H12.586V9.49h1.582l.026,1.1a2.532,2.532,0,0,1,2.268-1.274,1.661,1.661,0,0,1,.721.123Zm.888,3.208a5.617,5.617,0,0,1,.549-2.514,4.1,4.1,0,0,1,1.529-1.723,4.163,4.163,0,0,1,2.237-.606,4.01,4.01,0,0,1,3.142,1.345,5.174,5.174,0,0,1,1.2,3.577v.114a5.666,5.666,0,0,1-.532,2.492,4.038,4.038,0,0,1-1.521,1.718,4.211,4.211,0,0,1-2.272.615,4,4,0,0,1-3.133-1.345,5.147,5.147,0,0,1-1.2-3.56Zm1.635.193a4.068,4.068,0,0,0,.734,2.54,2.487,2.487,0,0,0,3.933-.013,4.449,4.449,0,0,0,.729-2.72,4.061,4.061,0,0,0-.743-2.536,2.361,2.361,0,0,0-1.973-.971,2.335,2.335,0,0,0-1.942.958A4.416,4.416,0,0,0,19.705,14.351Zm12.067,2.443,2.355-7.3h1.661L32.379,19H31.14L27.694,9.49h1.661ZM41.3,19.176a4.155,4.155,0,0,1-3.146-1.27,4.714,4.714,0,0,1-1.213-3.4v-.3a5.707,5.707,0,0,1,.541-2.527,4.217,4.217,0,0,1,1.512-1.74,3.8,3.8,0,0,1,2.1-.628,3.562,3.562,0,0,1,2.883,1.222,5.289,5.289,0,0,1,1.028,3.5v.677H38.566a3.38,3.38,0,0,0,.822,2.272,2.583,2.583,0,0,0,2,.866,2.832,2.832,0,0,0,1.459-.352,3.666,3.666,0,0,0,1.046-.932l.993.773A3.993,3.993,0,0,1,41.3,19.176Zm-.2-8.525a2.169,2.169,0,0,0-1.652.716,3.482,3.482,0,0,0-.826,2.008h4.764v-.123a3.1,3.1,0,0,0-.668-1.92A2.042,2.042,0,0,0,41.1,10.65Zm9.738,8.525a4.155,4.155,0,0,1-3.146-1.27,4.714,4.714,0,0,1-1.213-3.4v-.3a5.707,5.707,0,0,1,.541-2.527,4.217,4.217,0,0,1,1.512-1.74,3.8,3.8,0,0,1,2.1-.628,3.562,3.562,0,0,1,2.883,1.222,5.289,5.289,0,0,1,1.028,3.5v.677H48.1a3.38,3.38,0,0,0,.822,2.272,2.583,2.583,0,0,0,2,.866,2.832,2.832,0,0,0,1.459-.352,3.666,3.666,0,0,0,1.046-.932l.993.773A3.993,3.993,0,0,1,50.836,19.176Zm-.2-8.525a2.169,2.169,0,0,0-1.652.716,3.482,3.482,0,0,0-.826,2.008h4.764v-.123a3.1,3.1,0,0,0-.668-1.92A2.042,2.042,0,0,0,50.634,10.65Zm5.4,3.516a5.571,5.571,0,0,1,1.037-3.52,3.529,3.529,0,0,1,5.361-.189V5.5h1.626V19H62.561l-.079-1.02a3.311,3.311,0,0,1-2.716,1.2,3.248,3.248,0,0,1-2.694-1.354,5.634,5.634,0,0,1-1.042-3.533Zm1.626.185a4.218,4.218,0,0,0,.668,2.531,2.159,2.159,0,0,0,1.846.914,2.372,2.372,0,0,0,2.259-1.389V12.039a2.39,2.39,0,0,0-2.241-1.345,2.17,2.17,0,0,0-1.863.923A4.644,4.644,0,0,0,57.656,14.351Zm8.49-.193a5.617,5.617,0,0,1,.549-2.514,4.1,4.1,0,0,1,1.529-1.723,4.163,4.163,0,0,1,2.237-.606A4.01,4.01,0,0,1,73.6,10.659a5.174,5.174,0,0,1,1.2,3.577v.114a5.666,5.666,0,0,1-.532,2.492,4.038,4.038,0,0,1-1.521,1.718,4.211,4.211,0,0,1-2.272.615,4,4,0,0,1-3.133-1.345,5.147,5.147,0,0,1-1.2-3.56Zm1.635.193a4.068,4.068,0,0,0,.734,2.54,2.487,2.487,0,0,0,3.933-.013,4.449,4.449,0,0,0,.729-2.72,4.061,4.061,0,0,0-.743-2.536,2.361,2.361,0,0,0-1.973-.971,2.335,2.335,0,0,0-1.942.958A4.416,4.416,0,0,0,67.781,14.351Zm13.658-3.4a4.873,4.873,0,0,0-.8-.062,2.143,2.143,0,0,0-2.171,1.362V19H76.843V9.49h1.582l.026,1.1a2.532,2.532,0,0,1,2.268-1.274,1.661,1.661,0,0,1,.721.123Zm5.44,8.227a4.155,4.155,0,0,1-3.146-1.27,4.714,4.714,0,0,1-1.213-3.4v-.3a5.707,5.707,0,0,1,.541-2.527,4.217,4.217,0,0,1,1.512-1.74,3.8,3.8,0,0,1,2.1-.628,3.562,3.562,0,0,1,2.883,1.222,5.289,5.289,0,0,1,1.028,3.5v.677H84.146a3.38,3.38,0,0,0,.822,2.272,2.583,2.583,0,0,0,2,.866,2.832,2.832,0,0,0,1.459-.352,3.666,3.666,0,0,0,1.046-.932l.993.773A3.993,3.993,0,0,1,86.88,19.176Zm-.2-8.525a2.169,2.169,0,0,0-1.652.716,3.482,3.482,0,0,0-.826,2.008h4.764v-.123a3.1,3.1,0,0,0-.668-1.92A2.042,2.042,0,0,0,86.678,10.65Zm11.329,5.827a1.2,1.2,0,0,0-.5-1.024,4.78,4.78,0,0,0-1.731-.628,8.186,8.186,0,0,1-1.96-.633,2.788,2.788,0,0,1-1.072-.879A2.1,2.1,0,0,1,92.4,12.1a2.467,2.467,0,0,1,.989-1.978,3.861,3.861,0,0,1,2.527-.809,3.974,3.974,0,0,1,2.624.835,2.652,2.652,0,0,1,1.006,2.136H97.91a1.468,1.468,0,0,0-.567-1.151,2.124,2.124,0,0,0-1.428-.483,2.223,2.223,0,0,0-1.389.387,1.217,1.217,0,0,0-.5,1.011.986.986,0,0,0,.466.888,5.731,5.731,0,0,0,1.683.571,8.77,8.77,0,0,1,1.973.65,2.878,2.878,0,0,1,1.121.91,2.237,2.237,0,0,1,.365,1.3,2.434,2.434,0,0,1-1.02,2.043,4.277,4.277,0,0,1-2.646.769,4.789,4.789,0,0,1-2.021-.4,3.288,3.288,0,0,1-1.375-1.129,2.722,2.722,0,0,1-.5-1.569H93.7a1.683,1.683,0,0,0,.655,1.3,2.54,2.54,0,0,0,1.613.479,2.622,2.622,0,0,0,1.481-.374A1.148,1.148,0,0,0,98.007,16.478Zm9.738-6.987.053,1.2a3.465,3.465,0,0,1,2.848-1.371q3.015,0,3.041,3.4V19h-1.626V12.707a2.189,2.189,0,0,0-.47-1.521,1.884,1.884,0,0,0-1.437-.492,2.347,2.347,0,0,0-1.389.422,2.865,2.865,0,0,0-.932,1.107V19h-1.626V9.49ZM122.01,19a3.416,3.416,0,0,1-.229-1,3.628,3.628,0,0,1-2.707,1.178,3.357,3.357,0,0,1-2.307-.8,2.573,2.573,0,0,1-.9-2.017A2.688,2.688,0,0,1,117,14.056a5.325,5.325,0,0,1,3.177-.822h1.582v-.747a1.826,1.826,0,0,0-.51-1.358,2.049,2.049,0,0,0-1.5-.505,2.371,2.371,0,0,0-1.459.439,1.3,1.3,0,0,0-.589,1.063H116.06a2.244,2.244,0,0,1,.505-1.375,3.449,3.449,0,0,1,1.371-1.05,4.613,4.613,0,0,1,1.9-.387,3.759,3.759,0,0,1,2.575.822,2.964,2.964,0,0,1,.967,2.263v4.377a5.351,5.351,0,0,0,.334,2.083V19Zm-2.7-1.239a2.858,2.858,0,0,0,1.45-.4,2.392,2.392,0,0,0,.993-1.028V14.386H120.48q-2.988,0-2.988,1.749a1.48,1.48,0,0,0,.51,1.2A1.959,1.959,0,0,0,119.312,17.761Zm10.433.088a2.342,2.342,0,0,0,1.521-.527A1.855,1.855,0,0,0,131.985,16h1.538a2.949,2.949,0,0,1-.562,1.556,3.7,3.7,0,0,1-1.384,1.178,3.994,3.994,0,0,1-1.833.439,3.918,3.918,0,0,1-3.089-1.3,5.163,5.163,0,0,1-1.147-3.546v-.272a5.725,5.725,0,0,1,.51-2.47,3.883,3.883,0,0,1,1.463-1.679,4.157,4.157,0,0,1,2.254-.6,3.814,3.814,0,0,1,2.659.958,3.424,3.424,0,0,1,1.129,2.487h-1.538a2.241,2.241,0,0,0-.7-1.516,2.174,2.174,0,0,0-1.551-.593,2.276,2.276,0,0,0-1.92.892,4.19,4.19,0,0,0-.681,2.58v.308a4.106,4.106,0,0,0,.677,2.531A2.287,2.287,0,0,0,129.744,17.849ZM137.118,19h-1.626V9.49h1.626ZM135.36,6.968A.971.971,0,0,1,135.6,6.3a.907.907,0,0,1,.716-.272.922.922,0,0,1,.721.272.96.96,0,0,1,.246.668.929.929,0,0,1-.246.659.938.938,0,0,1-.721.264.924.924,0,0,1-.716-.264A.938.938,0,0,1,135.36,6.968Zm3.929,7.189a5.617,5.617,0,0,1,.549-2.514,4.1,4.1,0,0,1,1.529-1.723,4.163,4.163,0,0,1,2.237-.606,4.01,4.01,0,0,1,3.142,1.345,5.174,5.174,0,0,1,1.2,3.577v.114a5.666,5.666,0,0,1-.532,2.492,4.038,4.038,0,0,1-1.521,1.718,4.211,4.211,0,0,1-2.272.615,4,4,0,0,1-3.133-1.345,5.147,5.147,0,0,1-1.2-3.56Zm1.635.193a4.068,4.068,0,0,0,.734,2.54,2.487,2.487,0,0,0,3.933-.013,4.449,4.449,0,0,0,.729-2.72,4.061,4.061,0,0,0-.743-2.536,2.361,2.361,0,0,0-1.973-.971,2.335,2.335,0,0,0-1.942.958A4.416,4.416,0,0,0,140.924,14.351Zm10.6-4.86.053,1.2a3.465,3.465,0,0,1,2.848-1.371q3.015,0,3.041,3.4V19h-1.626V12.707a2.189,2.189,0,0,0-.47-1.521,1.884,1.884,0,0,0-1.437-.492,2.347,2.347,0,0,0-1.389.422,2.865,2.865,0,0,0-.932,1.107V19h-1.626V9.49ZM165.788,19a3.416,3.416,0,0,1-.229-1,3.628,3.628,0,0,1-2.707,1.178,3.357,3.357,0,0,1-2.307-.8,2.573,2.573,0,0,1-.9-2.017,2.688,2.688,0,0,1,1.129-2.307,5.325,5.325,0,0,1,3.177-.822h1.582v-.747a1.826,1.826,0,0,0-.51-1.358,2.049,2.049,0,0,0-1.5-.505,2.371,2.371,0,0,0-1.459.439,1.3,1.3,0,0,0-.589,1.063h-1.635a2.244,2.244,0,0,1,.505-1.375,3.449,3.449,0,0,1,1.371-1.05,4.613,4.613,0,0,1,1.9-.387,3.759,3.759,0,0,1,2.575.822,2.964,2.964,0,0,1,.967,2.263v4.377a5.351,5.351,0,0,0,.334,2.083V19Zm-2.7-1.239a2.858,2.858,0,0,0,1.45-.4,2.392,2.392,0,0,0,.993-1.028V14.386h-1.274q-2.988,0-2.988,1.749a1.48,1.48,0,0,0,.51,1.2A1.959,1.959,0,0,0,163.09,17.761ZM171.475,19h-1.626V5.5h1.626Zm6.548.176a4.155,4.155,0,0,1-3.146-1.27,4.714,4.714,0,0,1-1.213-3.4v-.3a5.707,5.707,0,0,1,.541-2.527,4.217,4.217,0,0,1,1.512-1.74,3.8,3.8,0,0,1,2.1-.628,3.562,3.562,0,0,1,2.883,1.222,5.289,5.289,0,0,1,1.028,3.5v.677h-6.442a3.38,3.38,0,0,0,.822,2.272,2.583,2.583,0,0,0,2,.866,2.832,2.832,0,0,0,1.459-.352,3.666,3.666,0,0,0,1.046-.932l.993.773A3.993,3.993,0,0,1,178.022,19.176Zm-.2-8.525a2.169,2.169,0,0,0-1.652.716,3.482,3.482,0,0,0-.826,2.008h4.764v-.123a3.1,3.1,0,0,0-.668-1.92A2.042,2.042,0,0,0,177.82,10.65Zm11.329,5.827a1.2,1.2,0,0,0-.5-1.024,4.78,4.78,0,0,0-1.731-.628,8.186,8.186,0,0,1-1.96-.633,2.788,2.788,0,0,1-1.072-.879,2.1,2.1,0,0,1-.347-1.213,2.467,2.467,0,0,1,.989-1.978,3.861,3.861,0,0,1,2.527-.809,3.974,3.974,0,0,1,2.624.835,2.652,2.652,0,0,1,1.006,2.136h-1.635a1.468,1.468,0,0,0-.567-1.151,2.124,2.124,0,0,0-1.428-.483,2.223,2.223,0,0,0-1.389.387,1.217,1.217,0,0,0-.5,1.011.986.986,0,0,0,.466.888,5.731,5.731,0,0,0,1.683.571,8.77,8.77,0,0,1,1.973.65,2.878,2.878,0,0,1,1.121.91,2.237,2.237,0,0,1,.365,1.3,2.434,2.434,0,0,1-1.02,2.043,4.277,4.277,0,0,1-2.646.769,4.789,4.789,0,0,1-2.021-.4,3.288,3.288,0,0,1-1.375-1.129,2.722,2.722,0,0,1-.5-1.569h1.626a1.683,1.683,0,0,0,.655,1.3,2.54,2.54,0,0,0,1.613.479,2.622,2.622,0,0,0,1.481-.374A1.148,1.148,0,0,0,189.149,16.478ZM295.523,15.7a1.83,1.83,0,0,0-.567-1.362,5.071,5.071,0,0,0-1.912-1,6.128,6.128,0,0,1-2.729-1.49,3.286,3.286,0,0,1-.857-2.333,3.378,3.378,0,0,1,.839-2.364,3.567,3.567,0,0,1,2.307-1.1V4.129h1.31V6.063a3.387,3.387,0,0,1,2.3,1.239,4.454,4.454,0,0,1,.822,2.839h-1.617a3.061,3.061,0,0,0-.589-1.975,1.935,1.935,0,0,0-1.591-.732,2.2,2.2,0,0,0-1.6.541,2.015,2.015,0,0,0-.554,1.51,1.841,1.841,0,0,0,.584,1.431,5.384,5.384,0,0,0,1.925.969,8.1,8.1,0,0,1,2.092.959,3.365,3.365,0,0,1,1.107,1.217,3.519,3.519,0,0,1,.356,1.626,3.258,3.258,0,0,1-.892,2.391,3.956,3.956,0,0,1-2.5,1.072v1.679h-1.3V19.149a3.79,3.79,0,0,1-2.562-1.165,3.93,3.93,0,0,1-.927-2.755h1.626a2.586,2.586,0,0,0,.642,1.881,2.422,2.422,0,0,0,1.819.659,2.729,2.729,0,0,0,1.811-.554A1.87,1.87,0,0,0,295.523,15.7Zm11.408-6.161a2.972,2.972,0,0,1-.505,1.705,3.439,3.439,0,0,1-1.367,1.169,3.668,3.668,0,0,1,1.586,1.257,3.163,3.163,0,0,1,.584,1.872,3.344,3.344,0,0,1-1.121,2.646,4.913,4.913,0,0,1-5.906,0,3.36,3.36,0,0,1-1.112-2.641,3.257,3.257,0,0,1,.567-1.872,3.528,3.528,0,0,1,1.569-1.266,3.354,3.354,0,0,1-1.345-1.169,3.014,3.014,0,0,1-.492-1.7,3.308,3.308,0,0,1,1.037-2.566,4.4,4.4,0,0,1,5.462,0A3.3,3.3,0,0,1,306.932,9.543ZM305.6,15.511a2.359,2.359,0,0,0-.681-1.749,2.416,2.416,0,0,0-1.78-.677,2.288,2.288,0,0,0-2.426,2.426,2.271,2.271,0,0,0,.646,1.714,2.886,2.886,0,0,0,3.59,0A2.266,2.266,0,0,0,305.6,15.511Zm-2.443-8.147a2.1,2.1,0,0,0-1.551.593,2.179,2.179,0,0,0-.593,1.613,2.169,2.169,0,0,0,.584,1.578,2.322,2.322,0,0,0,3.12,0,2.169,2.169,0,0,0,.584-1.578,2.17,2.17,0,0,0-.606-1.591A2.068,2.068,0,0,0,303.161,7.363Zm6.319,10.784a1.018,1.018,0,0,1,.25-.7.954.954,0,0,1,.751-.281.983.983,0,0,1,.76.281,1,1,0,0,1,.259.7.944.944,0,0,1-.259.677,1,1,0,0,1-.76.272.9.9,0,0,1-1-.949Zm12.3-8.6a2.972,2.972,0,0,1-.505,1.705,3.439,3.439,0,0,1-1.367,1.169,3.668,3.668,0,0,1,1.586,1.257,3.163,3.163,0,0,1,.584,1.872,3.344,3.344,0,0,1-1.121,2.646,4.913,4.913,0,0,1-5.906,0,3.36,3.36,0,0,1-1.112-2.641,3.257,3.257,0,0,1,.567-1.872,3.528,3.528,0,0,1,1.569-1.266,3.354,3.354,0,0,1-1.345-1.169,3.014,3.014,0,0,1-.492-1.7,3.308,3.308,0,0,1,1.037-2.566,4.4,4.4,0,0,1,5.462,0A3.3,3.3,0,0,1,321.776,9.543Zm-1.327,5.968a2.359,2.359,0,0,0-.681-1.749,2.416,2.416,0,0,0-1.78-.677,2.288,2.288,0,0,0-2.426,2.426,2.271,2.271,0,0,0,.646,1.714,2.886,2.886,0,0,0,3.59,0A2.266,2.266,0,0,0,320.449,15.511Zm-2.443-8.147a2.1,2.1,0,0,0-1.551.593,2.179,2.179,0,0,0-.593,1.613,2.169,2.169,0,0,0,.584,1.578,2.322,2.322,0,0,0,3.12,0,2.169,2.169,0,0,0,.584-1.578,2.17,2.17,0,0,0-.606-1.591A2.068,2.068,0,0,0,318.006,7.363Zm14.142,6.179a7.436,7.436,0,0,1-.976,4.245,4.054,4.054,0,0,1-6.082.031,7.058,7.058,0,0,1-1.02-4.056V11.591a7.271,7.271,0,0,1,.976-4.192,4.127,4.127,0,0,1,6.1-.048,7.017,7.017,0,0,1,1,4.083Zm-1.626-2.224a5.958,5.958,0,0,0-.58-3.01,2,2,0,0,0-1.837-.945,1.97,1.97,0,0,0-1.819.94A5.817,5.817,0,0,0,325.7,11.2v2.6a6.053,6.053,0,0,0,.6,3.063,1.993,1.993,0,0,0,1.824.989,1.966,1.966,0,0,0,1.789-.932,5.834,5.834,0,0,0,.611-2.936Zm11.733,2.224a7.436,7.436,0,0,1-.976,4.245,4.054,4.054,0,0,1-6.082.031,7.058,7.058,0,0,1-1.02-4.056V11.591a7.271,7.271,0,0,1,.976-4.192,4.127,4.127,0,0,1,6.1-.048,7.017,7.017,0,0,1,1,4.083Zm-1.626-2.224a5.958,5.958,0,0,0-.58-3.01,2,2,0,0,0-1.837-.945,1.97,1.97,0,0,0-1.819.94A5.817,5.817,0,0,0,335.8,11.2v2.6a6.053,6.053,0,0,0,.6,3.063,1.993,1.993,0,0,0,1.824.989,1.966,1.966,0,0,0,1.789-.932,5.834,5.834,0,0,0,.611-2.936Zm3.911,6.829a1.018,1.018,0,0,1,.25-.7.954.954,0,0,1,.751-.281.983.983,0,0,1,.76.281,1,1,0,0,1,.259.7.944.944,0,0,1-.259.677,1,1,0,0,1-.76.272.9.9,0,0,1-1-.949Zm12.56-4.605a7.436,7.436,0,0,1-.976,4.245,4.054,4.054,0,0,1-6.082.031,7.058,7.058,0,0,1-1.02-4.056V11.591A7.271,7.271,0,0,1,350,7.4a4.127,4.127,0,0,1,6.1-.048,7.017,7.017,0,0,1,1,4.083Zm-1.626-2.224a5.958,5.958,0,0,0-.58-3.01,2,2,0,0,0-1.837-.945,1.97,1.97,0,0,0-1.819.94,5.817,5.817,0,0,0-.589,2.892v2.6a6.053,6.053,0,0,0,.6,3.063,1.993,1.993,0,0,0,1.824.989,1.966,1.966,0,0,0,1.789-.932,5.834,5.834,0,0,0,.611-2.936Zm11.733,2.224a7.436,7.436,0,0,1-.976,4.245,4.054,4.054,0,0,1-6.082.031,7.058,7.058,0,0,1-1.02-4.056V11.591a7.271,7.271,0,0,1,.976-4.192,4.127,4.127,0,0,1,6.1-.048,7.017,7.017,0,0,1,1,4.083Zm-1.626-2.224a5.958,5.958,0,0,0-.58-3.01,2,2,0,0,0-1.837-.945,1.97,1.97,0,0,0-1.819.94,5.817,5.817,0,0,0-.589,2.892v2.6a6.053,6.053,0,0,0,.6,3.063,1.993,1.993,0,0,0,1.824.989,1.966,1.966,0,0,0,1.789-.932,5.834,5.834,0,0,0,.611-2.936Zm11.733,2.224a7.436,7.436,0,0,1-.976,4.245,4.054,4.054,0,0,1-6.082.031,7.058,7.058,0,0,1-1.02-4.056V11.591a7.271,7.271,0,0,1,.976-4.192,4.127,4.127,0,0,1,6.1-.048,7.017,7.017,0,0,1,1,4.083Zm-1.626-2.224a5.958,5.958,0,0,0-.58-3.01,2,2,0,0,0-1.837-.945,1.97,1.97,0,0,0-1.819.94,5.817,5.817,0,0,0-.589,2.892v2.6a6.053,6.053,0,0,0,.6,3.063,1.993,1.993,0,0,0,1.824.989,1.966,1.966,0,0,0,1.789-.932,5.834,5.834,0,0,0,.611-2.936ZM10.327,77.583H6.214V89H4.535V77.583H.431V76.2h9.9Zm11.5,5.432A7.916,7.916,0,0,1,21.19,86.3a4.793,4.793,0,0,1-1.793,2.14,4.933,4.933,0,0,1-2.707.738,4.774,4.774,0,0,1-4.5-2.861,7.6,7.6,0,0,1-.664-3.186v-.923a7.822,7.822,0,0,1,.642-3.261,4.745,4.745,0,0,1,4.5-2.918,4.961,4.961,0,0,1,2.711.743,4.784,4.784,0,0,1,1.806,2.153,7.955,7.955,0,0,1,.633,3.283Zm-1.679-.826a5.738,5.738,0,0,0-.914-3.494,3.015,3.015,0,0,0-2.558-1.217,2.982,2.982,0,0,0-2.518,1.217,5.62,5.62,0,0,0-.945,3.379v.94a5.746,5.746,0,0,0,.927,3.467,3,3,0,0,0,2.553,1.261,2.983,2.983,0,0,0,2.531-1.191,5.714,5.714,0,0,0,.923-3.415Zm12.814-4.605H28.846V89H27.167V77.583h-4.1V76.2h9.9Zm8.271,8.068H35.868L34.664,89h-1.74l4.887-12.8h1.477l4.9,12.8H42.451Zm-4.852-1.38h4.351l-2.18-5.985ZM47.6,87.62h6.064V89H45.905V76.2h1.7Zm14.133-3.63V89H60.047V76.2h4.72a4.742,4.742,0,0,1,3.292,1.072,3.635,3.635,0,0,1,1.191,2.839,3.587,3.587,0,0,1-1.165,2.87,4.954,4.954,0,0,1-3.335,1.006Zm0-1.38h3.032a3.032,3.032,0,0,0,2.074-.638,2.334,2.334,0,0,0,.721-1.845,2.411,2.411,0,0,0-.721-1.831,2.84,2.84,0,0,0-1.978-.713H61.734Zm15.521,3.041H71.895L70.69,89H68.95l4.887-12.8h1.477l4.9,12.8H78.478ZM72.4,84.271h4.351l-2.18-5.985ZM85.7,83.3a7.935,7.935,0,0,1-3.16-1.534,2.93,2.93,0,0,1-.989-2.246,3.1,3.1,0,0,1,1.208-2.5,4.8,4.8,0,0,1,3.142-.989,5.243,5.243,0,0,1,2.351.51,3.866,3.866,0,0,1,1.6,1.406,3.6,3.6,0,0,1,.567,1.96h-1.7a2.34,2.34,0,0,0-.738-1.83,3,3,0,0,0-2.083-.666,3.074,3.074,0,0,0-1.947.55,1.836,1.836,0,0,0-.7,1.528,1.652,1.652,0,0,0,.664,1.325,6.509,6.509,0,0,0,2.259.991,10.481,10.481,0,0,1,2.5.99,3.788,3.788,0,0,1,1.336,1.261,3.219,3.219,0,0,1,.435,1.7,2.99,2.99,0,0,1-1.213,2.492,5.171,5.171,0,0,1-3.243.936,6.015,6.015,0,0,1-2.461-.505,4.142,4.142,0,0,1-1.762-1.384,3.378,3.378,0,0,1-.62-2h1.7a2.2,2.2,0,0,0,.857,1.833,3.608,3.608,0,0,0,2.29.672,3.317,3.317,0,0,0,2.048-.545,1.77,1.77,0,0,0,.712-1.485,1.738,1.738,0,0,0-.659-1.455A7.6,7.6,0,0,0,85.7,83.3ZM94.421,89H92.733V76.2h1.688Zm7.321-2.241L105.4,76.2h1.846L102.5,89H101L96.267,76.2H98.1Zm16.945-3.744a7.916,7.916,0,0,1-.633,3.283,4.793,4.793,0,0,1-1.793,2.14,4.948,4.948,0,0,1-7.2-2.123,7.6,7.6,0,0,1-.664-3.186v-.923a7.822,7.822,0,0,1,.642-3.261,4.745,4.745,0,0,1,4.5-2.918,4.961,4.961,0,0,1,2.711.743,4.784,4.784,0,0,1,1.806,2.153,7.955,7.955,0,0,1,.633,3.283Zm-1.679-.826a5.738,5.738,0,0,0-.914-3.494,3.015,3.015,0,0,0-2.558-1.217,2.982,2.982,0,0,0-2.518,1.217,5.62,5.62,0,0,0-.945,3.379v.94A5.746,5.746,0,0,0,111,86.482a3.249,3.249,0,0,0,5.084.07,5.714,5.714,0,0,0,.923-3.415ZM367.523,85.7a1.83,1.83,0,0,0-.567-1.362,5.071,5.071,0,0,0-1.912-1,6.128,6.128,0,0,1-2.729-1.49,3.286,3.286,0,0,1-.857-2.333,3.378,3.378,0,0,1,.839-2.364,3.567,3.567,0,0,1,2.307-1.1V74.129h1.31v1.934a3.387,3.387,0,0,1,2.3,1.239,4.454,4.454,0,0,1,.822,2.839h-1.617a3.061,3.061,0,0,0-.589-1.975,1.935,1.935,0,0,0-1.591-.732,2.2,2.2,0,0,0-1.6.541,2.015,2.015,0,0,0-.554,1.51,1.841,1.841,0,0,0,.584,1.431,5.384,5.384,0,0,0,1.925.969,8.1,8.1,0,0,1,2.092.959,3.365,3.365,0,0,1,1.107,1.217,3.519,3.519,0,0,1,.356,1.626,3.258,3.258,0,0,1-.892,2.391,3.956,3.956,0,0,1-2.5,1.072v1.679h-1.3V89.149a3.79,3.79,0,0,1-2.562-1.165,3.93,3.93,0,0,1-.927-2.755h1.626a2.586,2.586,0,0,0,.642,1.881,2.422,2.422,0,0,0,1.819.659,2.729,2.729,0,0,0,1.811-.554A1.87,1.87,0,0,0,367.523,85.7Zm11.408-6.161a2.972,2.972,0,0,1-.505,1.705,3.439,3.439,0,0,1-1.367,1.169,3.668,3.668,0,0,1,1.586,1.257,3.163,3.163,0,0,1,.584,1.872,3.344,3.344,0,0,1-1.121,2.646,4.913,4.913,0,0,1-5.906,0,3.36,3.36,0,0,1-1.112-2.641,3.257,3.257,0,0,1,.567-1.872,3.528,3.528,0,0,1,1.569-1.266,3.354,3.354,0,0,1-1.345-1.169,3.014,3.014,0,0,1-.492-1.7,3.308,3.308,0,0,1,1.037-2.566,4.4,4.4,0,0,1,5.462,0A3.3,3.3,0,0,1,378.932,79.543ZM377.6,85.511a2.359,2.359,0,0,0-.681-1.749,2.416,2.416,0,0,0-1.78-.677,2.288,2.288,0,0,0-2.426,2.426,2.271,2.271,0,0,0,.646,1.714,2.886,2.886,0,0,0,3.59,0A2.266,2.266,0,0,0,377.6,85.511Zm-2.443-8.147a2.1,2.1,0,0,0-1.551.593,2.455,2.455,0,0,0-.009,3.19,2.322,2.322,0,0,0,3.12,0,2.405,2.405,0,0,0-.022-3.168A2.068,2.068,0,0,0,375.161,77.363Zm6.319,10.784a1.018,1.018,0,0,1,.25-.7.954.954,0,0,1,.751-.281.983.983,0,0,1,.76.281,1,1,0,0,1,.259.7.944.944,0,0,1-.259.677,1,1,0,0,1-.76.272.9.9,0,0,1-1-.949Zm12.3-8.6a2.972,2.972,0,0,1-.505,1.705,3.439,3.439,0,0,1-1.367,1.169,3.668,3.668,0,0,1,1.586,1.257,3.163,3.163,0,0,1,.584,1.872,3.344,3.344,0,0,1-1.121,2.646,4.913,4.913,0,0,1-5.906,0,3.36,3.36,0,0,1-1.112-2.641,3.257,3.257,0,0,1,.567-1.872,3.528,3.528,0,0,1,1.569-1.266,3.354,3.354,0,0,1-1.345-1.169,3.014,3.014,0,0,1-.492-1.7,3.308,3.308,0,0,1,1.037-2.566,4.4,4.4,0,0,1,5.462,0A3.3,3.3,0,0,1,393.776,79.543Zm-1.327,5.968a2.359,2.359,0,0,0-.681-1.749,2.416,2.416,0,0,0-1.78-.677,2.288,2.288,0,0,0-2.426,2.426,2.271,2.271,0,0,0,.646,1.714,2.886,2.886,0,0,0,3.59,0A2.266,2.266,0,0,0,392.449,85.511Zm-2.443-8.147a2.1,2.1,0,0,0-1.551.593,2.455,2.455,0,0,0-.009,3.19,2.322,2.322,0,0,0,3.12,0,2.405,2.405,0,0,0-.022-3.168A2.068,2.068,0,0,0,390.006,77.363Zm14.142,6.179a7.436,7.436,0,0,1-.976,4.245,4.054,4.054,0,0,1-6.082.031,7.058,7.058,0,0,1-1.02-4.056V81.591a7.271,7.271,0,0,1,.976-4.192,4.127,4.127,0,0,1,6.1-.048,7.017,7.017,0,0,1,1,4.083Zm-1.626-2.224a5.958,5.958,0,0,0-.58-3.01,2,2,0,0,0-1.837-.945,1.97,1.97,0,0,0-1.819.94A5.817,5.817,0,0,0,397.7,81.2v2.6a6.053,6.053,0,0,0,.6,3.063,1.993,1.993,0,0,0,1.824.989,1.966,1.966,0,0,0,1.789-.932,5.834,5.834,0,0,0,.611-2.936Zm11.733,2.224a7.436,7.436,0,0,1-.976,4.245,4.054,4.054,0,0,1-6.082.031,7.058,7.058,0,0,1-1.02-4.056V81.591a7.271,7.271,0,0,1,.976-4.192,4.127,4.127,0,0,1,6.1-.048,7.017,7.017,0,0,1,1,4.083Zm-1.626-2.224a5.958,5.958,0,0,0-.58-3.01,2,2,0,0,0-1.837-.945,1.97,1.97,0,0,0-1.819.94A5.817,5.817,0,0,0,407.8,81.2v2.6a6.053,6.053,0,0,0,.6,3.063,1.993,1.993,0,0,0,1.824.989,1.966,1.966,0,0,0,1.789-.932,5.834,5.834,0,0,0,.611-2.936Zm3.911,6.829a1.018,1.018,0,0,1,.25-.7.954.954,0,0,1,.751-.281.983.983,0,0,1,.76.281,1,1,0,0,1,.259.7.944.944,0,0,1-.259.677,1,1,0,0,1-.76.272.9.9,0,0,1-1-.949Zm12.56-4.605a7.436,7.436,0,0,1-.976,4.245,4.054,4.054,0,0,1-6.082.031,7.058,7.058,0,0,1-1.02-4.056V81.591A7.271,7.271,0,0,1,422,77.4a4.127,4.127,0,0,1,6.1-.048,7.017,7.017,0,0,1,1,4.083Zm-1.626-2.224a5.958,5.958,0,0,0-.58-3.01,2,2,0,0,0-1.837-.945,1.97,1.97,0,0,0-1.819.94,5.817,5.817,0,0,0-.589,2.892v2.6a6.053,6.053,0,0,0,.6,3.063,1.993,1.993,0,0,0,1.824.989,1.966,1.966,0,0,0,1.789-.932,5.834,5.834,0,0,0,.611-2.936Zm11.733,2.224a7.436,7.436,0,0,1-.976,4.245,4.054,4.054,0,0,1-6.082.031,7.058,7.058,0,0,1-1.02-4.056V81.591a7.271,7.271,0,0,1,.976-4.192,4.127,4.127,0,0,1,6.1-.048,7.017,7.017,0,0,1,1,4.083Zm-1.626-2.224a5.958,5.958,0,0,0-.58-3.01,2,2,0,0,0-1.837-.945,1.97,1.97,0,0,0-1.819.94,5.817,5.817,0,0,0-.589,2.892v2.6a6.053,6.053,0,0,0,.6,3.063,1.993,1.993,0,0,0,1.824.989,1.966,1.966,0,0,0,1.789-.932,5.834,5.834,0,0,0,.611-2.936Zm11.733,2.224a7.436,7.436,0,0,1-.976,4.245,4.054,4.054,0,0,1-6.082.031,7.058,7.058,0,0,1-1.02-4.056V81.591a7.271,7.271,0,0,1,.976-4.192,4.127,4.127,0,0,1,6.1-.048,7.017,7.017,0,0,1,1,4.083Zm-1.626-2.224a5.958,5.958,0,0,0-.58-3.01,2,2,0,0,0-1.837-.945,1.97,1.97,0,0,0-1.819.94,5.817,5.817,0,0,0-.589,2.892v2.6a6.053,6.053,0,0,0,.6,3.063,1.993,1.993,0,0,0,1.824.989,1.966,1.966,0,0,0,1.789-.932,5.834,5.834,0,0,0,.611-2.936Z" transform="translate(837.323 17886.609)" fill="#12263f"/>
    <path id="Trazado_138546" data-name="Trazado 138546" d="M10.9,14.939a4.708,4.708,0,0,1-1.5,3.133,4.911,4.911,0,0,1-3.353,1.1A4.509,4.509,0,0,1,2.413,17.55,6.542,6.542,0,0,1,1.046,13.2v-1.23a7.291,7.291,0,0,1,.637-3.138A4.76,4.76,0,0,1,3.489,6.752,5.029,5.029,0,0,1,6.2,6.027a4.624,4.624,0,0,1,3.27,1.138A4.765,4.765,0,0,1,10.9,10.316H9.2a3.677,3.677,0,0,0-.954-2.222A2.885,2.885,0,0,0,6.2,7.407,3.019,3.019,0,0,0,3.661,8.6a5.492,5.492,0,0,0-.918,3.4v1.24a5.645,5.645,0,0,0,.87,3.316A2.812,2.812,0,0,0,6.047,17.8,3.247,3.247,0,0,0,8.2,17.159a3.536,3.536,0,0,0,1-2.219ZM18.817,19a3.416,3.416,0,0,1-.229-1,3.628,3.628,0,0,1-2.707,1.178,3.357,3.357,0,0,1-2.307-.8,2.573,2.573,0,0,1-.9-2.017A2.688,2.688,0,0,1,13.8,14.056a5.325,5.325,0,0,1,3.177-.822h1.582v-.747a1.826,1.826,0,0,0-.51-1.358,2.049,2.049,0,0,0-1.5-.505,2.371,2.371,0,0,0-1.459.439,1.3,1.3,0,0,0-.589,1.063H12.867a2.244,2.244,0,0,1,.505-1.375A3.449,3.449,0,0,1,14.744,9.7a4.613,4.613,0,0,1,1.9-.387,3.759,3.759,0,0,1,2.575.822,2.964,2.964,0,0,1,.967,2.263v4.377a5.351,5.351,0,0,0,.334,2.083V19Zm-2.7-1.239a2.858,2.858,0,0,0,1.45-.4,2.392,2.392,0,0,0,.993-1.028V14.386H17.288q-2.988,0-2.988,1.749a1.48,1.48,0,0,0,.51,1.2A1.959,1.959,0,0,0,16.119,17.761Zm14.651-3.41a5.694,5.694,0,0,1-.993,3.5,3.183,3.183,0,0,1-2.689,1.327,3.488,3.488,0,0,1-2.725-1.1v4.579H22.737V9.49h1.485l.079,1.055a3.35,3.35,0,0,1,2.76-1.23,3.243,3.243,0,0,1,2.711,1.292,5.756,5.756,0,0,1,1,3.595Zm-1.626-.185a4.2,4.2,0,0,0-.686-2.54,2.208,2.208,0,0,0-1.881-.932A2.39,2.39,0,0,0,24.363,12v4.544a2.4,2.4,0,0,0,2.232,1.3,2.2,2.2,0,0,0,1.859-.927A4.587,4.587,0,0,0,29.145,14.166ZM34.6,19H32.977V9.49H34.6ZM32.845,6.968a.971.971,0,0,1,.242-.668.907.907,0,0,1,.716-.272.922.922,0,0,1,.721.272.96.96,0,0,1,.246.668.929.929,0,0,1-.246.659.938.938,0,0,1-.721.264.924.924,0,0,1-.716-.264A.938.938,0,0,1,32.845,6.968Zm6.565.22v2.3h1.775v1.257H39.41v5.9a1.32,1.32,0,0,0,.237.858,1,1,0,0,0,.809.286,3.937,3.937,0,0,0,.773-.105V19a4.742,4.742,0,0,1-1.248.175,2.025,2.025,0,0,1-1.644-.659,2.832,2.832,0,0,1-.554-1.872v-5.9H36.053V9.49h1.731v-2.3ZM48.955,19a3.416,3.416,0,0,1-.229-1,3.628,3.628,0,0,1-2.707,1.178,3.357,3.357,0,0,1-2.307-.8,2.573,2.573,0,0,1-.9-2.017,2.688,2.688,0,0,1,1.129-2.307,5.325,5.325,0,0,1,3.177-.822H48.7v-.747a1.826,1.826,0,0,0-.51-1.358,2.049,2.049,0,0,0-1.5-.505,2.371,2.371,0,0,0-1.459.439,1.3,1.3,0,0,0-.589,1.063H43a2.244,2.244,0,0,1,.505-1.375A3.449,3.449,0,0,1,44.881,9.7a4.613,4.613,0,0,1,1.9-.387,3.759,3.759,0,0,1,2.575.822,2.964,2.964,0,0,1,.967,2.263v4.377a5.351,5.351,0,0,0,.334,2.083V19Zm-2.7-1.239a2.858,2.858,0,0,0,1.45-.4,2.392,2.392,0,0,0,.993-1.028V14.386H47.426q-2.988,0-2.988,1.749a1.48,1.48,0,0,0,.51,1.2A1.959,1.959,0,0,0,46.257,17.761ZM54.642,19H53.016V5.5h1.626Zm384.882-3.3a1.83,1.83,0,0,0-.567-1.362,5.071,5.071,0,0,0-1.912-1,6.128,6.128,0,0,1-2.729-1.49,3.286,3.286,0,0,1-.857-2.333,3.378,3.378,0,0,1,.839-2.364,3.567,3.567,0,0,1,2.307-1.1V4.129h1.31V6.063a3.387,3.387,0,0,1,2.3,1.239,4.454,4.454,0,0,1,.822,2.839h-1.617a3.061,3.061,0,0,0-.589-1.975,1.935,1.935,0,0,0-1.591-.732,2.2,2.2,0,0,0-1.6.541,2.015,2.015,0,0,0-.554,1.51,1.841,1.841,0,0,0,.584,1.431,5.384,5.384,0,0,0,1.925.969,8.1,8.1,0,0,1,2.092.959,3.365,3.365,0,0,1,1.107,1.217,3.519,3.519,0,0,1,.356,1.626,3.258,3.258,0,0,1-.892,2.391,3.956,3.956,0,0,1-2.5,1.072v1.679h-1.3V19.149a3.79,3.79,0,0,1-2.562-1.165,3.93,3.93,0,0,1-.927-2.755h1.626a2.586,2.586,0,0,0,.642,1.881,2.422,2.422,0,0,0,1.819.659,2.729,2.729,0,0,0,1.811-.554A1.87,1.87,0,0,0,439.523,15.7Zm4.395-3.12.65-6.381h6.557v1.5h-5.177l-.387,3.489a4.13,4.13,0,0,1,2.136-.554,3.531,3.531,0,0,1,2.777,1.156,4.53,4.53,0,0,1,1.028,3.125,4.372,4.372,0,0,1-1.068,3.116,3.892,3.892,0,0,1-2.984,1.138,4.045,4.045,0,0,1-2.769-.94,3.754,3.754,0,0,1-1.222-2.6H445a2.582,2.582,0,0,0,.782,1.657,2.432,2.432,0,0,0,1.67.558,2.194,2.194,0,0,0,1.78-.773,3.233,3.233,0,0,0,.646-2.136,2.968,2.968,0,0,0-.7-2.061,2.377,2.377,0,0,0-1.859-.778,2.681,2.681,0,0,0-1.67.466l-.431.352Zm9.563,5.563a1.018,1.018,0,0,1,.25-.7.954.954,0,0,1,.751-.281.983.983,0,0,1,.76.281,1,1,0,0,1,.259.7.944.944,0,0,1-.259.677,1,1,0,0,1-.76.272.9.9,0,0,1-1-.949Zm12.56-4.605a7.436,7.436,0,0,1-.976,4.245,4.054,4.054,0,0,1-6.082.031,7.058,7.058,0,0,1-1.02-4.056V11.591a7.271,7.271,0,0,1,.976-4.192,4.127,4.127,0,0,1,6.1-.048,7.017,7.017,0,0,1,1,4.083Zm-1.626-2.224a5.958,5.958,0,0,0-.58-3.01A2,2,0,0,0,462,7.363a1.97,1.97,0,0,0-1.819.94,5.817,5.817,0,0,0-.589,2.892v2.6a6.053,6.053,0,0,0,.6,3.063,1.993,1.993,0,0,0,1.824.989,1.966,1.966,0,0,0,1.789-.932,5.834,5.834,0,0,0,.611-2.936Zm11.733,2.224a7.436,7.436,0,0,1-.976,4.245,4.054,4.054,0,0,1-6.082.031,7.058,7.058,0,0,1-1.02-4.056V11.591a7.271,7.271,0,0,1,.976-4.192,4.127,4.127,0,0,1,6.1-.048,7.017,7.017,0,0,1,1,4.083Zm-1.626-2.224a5.958,5.958,0,0,0-.58-3.01,2,2,0,0,0-1.837-.945,1.97,1.97,0,0,0-1.819.94A5.817,5.817,0,0,0,469.7,11.2v2.6a6.053,6.053,0,0,0,.6,3.063,1.993,1.993,0,0,0,1.824.989,1.966,1.966,0,0,0,1.789-.932,5.834,5.834,0,0,0,.611-2.936Zm11.733,2.224a7.436,7.436,0,0,1-.976,4.245,4.054,4.054,0,0,1-6.082.031,7.058,7.058,0,0,1-1.02-4.056V11.591a7.271,7.271,0,0,1,.976-4.192,4.127,4.127,0,0,1,6.1-.048,7.017,7.017,0,0,1,1,4.083Zm-1.626-2.224a5.958,5.958,0,0,0-.58-3.01,2,2,0,0,0-1.837-.945,1.97,1.97,0,0,0-1.819.94A5.817,5.817,0,0,0,479.8,11.2v2.6a6.053,6.053,0,0,0,.6,3.063,1.993,1.993,0,0,0,1.824.989,1.966,1.966,0,0,0,1.789-.932,5.834,5.834,0,0,0,.611-2.936Zm3.911,6.829a1.018,1.018,0,0,1,.25-.7.954.954,0,0,1,.751-.281.983.983,0,0,1,.76.281,1,1,0,0,1,.259.7.944.944,0,0,1-.259.677,1,1,0,0,1-.76.272.9.9,0,0,1-1-.949Zm12.56-4.605a7.436,7.436,0,0,1-.976,4.245,4.054,4.054,0,0,1-6.082.031,7.058,7.058,0,0,1-1.02-4.056V11.591A7.271,7.271,0,0,1,494,7.4a4.127,4.127,0,0,1,6.1-.048,7.017,7.017,0,0,1,1,4.083Zm-1.626-2.224a5.958,5.958,0,0,0-.58-3.01,2,2,0,0,0-1.837-.945,1.97,1.97,0,0,0-1.819.94,5.817,5.817,0,0,0-.589,2.892v2.6a6.053,6.053,0,0,0,.6,3.063,1.993,1.993,0,0,0,1.824.989,1.966,1.966,0,0,0,1.789-.932,5.834,5.834,0,0,0,.611-2.936Zm11.733,2.224a7.436,7.436,0,0,1-.976,4.245,4.054,4.054,0,0,1-6.082.031,7.058,7.058,0,0,1-1.02-4.056V11.591a7.271,7.271,0,0,1,.976-4.192,4.127,4.127,0,0,1,6.1-.048,7.017,7.017,0,0,1,1,4.083Zm-1.626-2.224a5.958,5.958,0,0,0-.58-3.01,2,2,0,0,0-1.837-.945,1.97,1.97,0,0,0-1.819.94,5.817,5.817,0,0,0-.589,2.892v2.6a6.053,6.053,0,0,0,.6,3.063,1.993,1.993,0,0,0,1.824.989,1.966,1.966,0,0,0,1.789-.932,5.834,5.834,0,0,0,.611-2.936Zm11.733,2.224a7.436,7.436,0,0,1-.976,4.245,4.054,4.054,0,0,1-6.082.031,7.058,7.058,0,0,1-1.02-4.056V11.591a7.271,7.271,0,0,1,.976-4.192,4.127,4.127,0,0,1,6.1-.048,7.017,7.017,0,0,1,1,4.083Zm-1.626-2.224a5.958,5.958,0,0,0-.58-3.01,2,2,0,0,0-1.837-.945,1.97,1.97,0,0,0-1.819.94,5.817,5.817,0,0,0-.589,2.892v2.6a6.053,6.053,0,0,0,.6,3.063,1.993,1.993,0,0,0,1.824.989,1.966,1.966,0,0,0,1.789-.932,5.834,5.834,0,0,0,.611-2.936ZM10.775,78.339H6.855V89H4.219V78.339H.352V76.2H10.775Zm11.769,4.553a7.725,7.725,0,0,1-.668,3.313,5.03,5.03,0,0,1-1.912,2.2,5.288,5.288,0,0,1-2.852.773,5.324,5.324,0,0,1-2.839-.765,5.08,5.08,0,0,1-1.934-2.184,7.5,7.5,0,0,1-.694-3.265v-.633A7.685,7.685,0,0,1,12.327,79,5.072,5.072,0,0,1,14.251,76.8a5.3,5.3,0,0,1,2.843-.769,5.3,5.3,0,0,1,2.843.769A5.072,5.072,0,0,1,21.863,79a7.663,7.663,0,0,1,.681,3.318Zm-2.672-.58a5.385,5.385,0,0,0-.721-3.059,2.349,2.349,0,0,0-2.057-1.046,2.349,2.349,0,0,0-2.048,1.033,5.324,5.324,0,0,0-.729,3.028v.624a5.453,5.453,0,0,0,.721,3.041,2.342,2.342,0,0,0,2.074,1.081,2.321,2.321,0,0,0,2.039-1.042,5.421,5.421,0,0,0,.721-3.037Zm13.474-3.973h-3.92V89H26.789V78.339H22.922V76.2H33.346Zm7.673,8.024H36.4L35.517,89h-2.8l4.764-12.8H39.92L44.71,89h-2.8Zm-3.911-2.136h3.2L38.7,79.438Zm11.435,2.654h5.6V89H45.905V76.2h2.637Zm14.229-2.391V89H60.135V76.2h4.992a5.776,5.776,0,0,1,2.536.527,3.886,3.886,0,0,1,1.683,1.5,4.178,4.178,0,0,1,.589,2.21,3.674,3.674,0,0,1-1.288,2.966,5.363,5.363,0,0,1-3.564,1.085Zm0-2.136h2.355a2.316,2.316,0,0,0,1.6-.492,1.79,1.79,0,0,0,.549-1.406,2.111,2.111,0,0,0-.554-1.521,2.068,2.068,0,0,0-1.529-.6H62.771Zm14.634,4.008H72.782L71.9,89H69.1l4.764-12.8h2.443L81.1,89h-2.8Zm-3.911-2.136h3.2l-1.608-4.79ZM90.87,78.339H86.95V89H84.313V78.339H80.446V76.2H90.87Zm6.24,5.977h-2.1V89H92.373V76.2h4.755a5.375,5.375,0,0,1,3.5,1.011,3.488,3.488,0,0,1,1.23,2.856,3.937,3.937,0,0,1-.567,2.184,3.866,3.866,0,0,1-1.718,1.393l2.769,5.229V89H99.51Zm-2.1-2.136h2.127a2.178,2.178,0,0,0,1.538-.505,1.806,1.806,0,0,0,.545-1.393,1.933,1.933,0,0,0-.514-1.424,2.137,2.137,0,0,0-1.578-.519H95.01ZM106.664,89h-2.637V76.2h2.637Zm5.889-12.8,3.287,9.281,3.27-9.281h3.463V89h-2.646V85.5l.264-6.038L116.736,89h-1.811l-3.445-9.527.264,6.029V89h-2.637V76.2Zm22.834,6.688a7.725,7.725,0,0,1-.668,3.313,5.03,5.03,0,0,1-1.912,2.2,5.649,5.649,0,0,1-5.691.009,5.08,5.08,0,0,1-1.934-2.184,7.5,7.5,0,0,1-.694-3.265v-.633A7.685,7.685,0,0,1,125.169,79a5.072,5.072,0,0,1,1.925-2.206,5.64,5.64,0,0,1,5.687,0A5.072,5.072,0,0,1,134.706,79a7.663,7.663,0,0,1,.681,3.318Zm-2.672-.58a5.385,5.385,0,0,0-.721-3.059,2.546,2.546,0,0,0-4.1-.013,5.324,5.324,0,0,0-.729,3.028v.624a5.453,5.453,0,0,0,.721,3.041,2.524,2.524,0,0,0,4.113.04,5.421,5.421,0,0,0,.721-3.037ZM147.709,89h-2.637l-5.133-8.42V89H137.3V76.2h2.637l5.142,8.438V76.2h2.628Zm5.106,0h-2.637V76.2h2.637Zm12.955-6.108a7.725,7.725,0,0,1-.668,3.313,5.03,5.03,0,0,1-1.912,2.2,5.649,5.649,0,0,1-5.691.009,5.08,5.08,0,0,1-1.934-2.184,7.5,7.5,0,0,1-.694-3.265v-.633A7.685,7.685,0,0,1,155.553,79a5.072,5.072,0,0,1,1.925-2.206,5.64,5.64,0,0,1,5.687,0A5.072,5.072,0,0,1,165.089,79a7.663,7.663,0,0,1,.681,3.318Zm-2.672-.58a5.385,5.385,0,0,0-.721-3.059,2.546,2.546,0,0,0-4.1-.013,5.324,5.324,0,0,0-.729,3.028v.624a5.453,5.453,0,0,0,.721,3.041,2.524,2.524,0,0,0,4.113.04,5.421,5.421,0,0,0,.721-3.037ZM367.523,85.7a1.83,1.83,0,0,0-.567-1.362,5.071,5.071,0,0,0-1.912-1,6.128,6.128,0,0,1-2.729-1.49,3.286,3.286,0,0,1-.857-2.333,3.378,3.378,0,0,1,.839-2.364,3.567,3.567,0,0,1,2.307-1.1V74.129h1.31v1.934a3.387,3.387,0,0,1,2.3,1.239,4.454,4.454,0,0,1,.822,2.839h-1.617a3.061,3.061,0,0,0-.589-1.975,1.935,1.935,0,0,0-1.591-.732,2.2,2.2,0,0,0-1.6.541,2.015,2.015,0,0,0-.554,1.51,1.841,1.841,0,0,0,.584,1.431,5.384,5.384,0,0,0,1.925.969,8.1,8.1,0,0,1,2.092.959,3.365,3.365,0,0,1,1.107,1.217,3.519,3.519,0,0,1,.356,1.626,3.258,3.258,0,0,1-.892,2.391,3.956,3.956,0,0,1-2.5,1.072v1.679h-1.3V89.149a3.79,3.79,0,0,1-2.562-1.165,3.93,3.93,0,0,1-.927-2.755h1.626a2.586,2.586,0,0,0,.642,1.881,2.422,2.422,0,0,0,1.819.659,2.729,2.729,0,0,0,1.811-.554A1.87,1.87,0,0,0,367.523,85.7Zm4.395-3.12.65-6.381h6.557v1.5h-5.177l-.387,3.489a4.13,4.13,0,0,1,2.136-.554,3.531,3.531,0,0,1,2.777,1.156,4.53,4.53,0,0,1,1.028,3.125,4.372,4.372,0,0,1-1.068,3.116,3.892,3.892,0,0,1-2.984,1.138,4.045,4.045,0,0,1-2.769-.94,3.754,3.754,0,0,1-1.222-2.6H373a2.582,2.582,0,0,0,.782,1.657,2.432,2.432,0,0,0,1.67.558,2.194,2.194,0,0,0,1.78-.773,3.233,3.233,0,0,0,.646-2.136,2.968,2.968,0,0,0-.7-2.061,2.377,2.377,0,0,0-1.859-.778,2.681,2.681,0,0,0-1.67.466l-.431.352Zm9.563,5.563a1.018,1.018,0,0,1,.25-.7.954.954,0,0,1,.751-.281.983.983,0,0,1,.76.281,1,1,0,0,1,.259.7.944.944,0,0,1-.259.677,1,1,0,0,1-.76.272.9.9,0,0,1-1-.949Zm12.56-4.605a7.436,7.436,0,0,1-.976,4.245,4.054,4.054,0,0,1-6.082.031,7.058,7.058,0,0,1-1.02-4.056V81.591a7.271,7.271,0,0,1,.976-4.192,4.127,4.127,0,0,1,6.1-.048,7.017,7.017,0,0,1,1,4.083Zm-1.626-2.224a5.958,5.958,0,0,0-.58-3.01A2,2,0,0,0,390,77.363a1.97,1.97,0,0,0-1.819.94,5.817,5.817,0,0,0-.589,2.892v2.6a6.053,6.053,0,0,0,.6,3.063,1.993,1.993,0,0,0,1.824.989,1.966,1.966,0,0,0,1.789-.932,5.834,5.834,0,0,0,.611-2.936Zm11.733,2.224a7.436,7.436,0,0,1-.976,4.245,4.054,4.054,0,0,1-6.082.031,7.058,7.058,0,0,1-1.02-4.056V81.591a7.271,7.271,0,0,1,.976-4.192,4.127,4.127,0,0,1,6.1-.048,7.017,7.017,0,0,1,1,4.083Zm-1.626-2.224a5.958,5.958,0,0,0-.58-3.01,2,2,0,0,0-1.837-.945,1.97,1.97,0,0,0-1.819.94A5.817,5.817,0,0,0,397.7,81.2v2.6a6.053,6.053,0,0,0,.6,3.063,1.993,1.993,0,0,0,1.824.989,1.966,1.966,0,0,0,1.789-.932,5.834,5.834,0,0,0,.611-2.936Zm11.733,2.224a7.436,7.436,0,0,1-.976,4.245,4.054,4.054,0,0,1-6.082.031,7.058,7.058,0,0,1-1.02-4.056V81.591a7.271,7.271,0,0,1,.976-4.192,4.127,4.127,0,0,1,6.1-.048,7.017,7.017,0,0,1,1,4.083Zm-1.626-2.224a5.958,5.958,0,0,0-.58-3.01,2,2,0,0,0-1.837-.945,1.97,1.97,0,0,0-1.819.94A5.817,5.817,0,0,0,407.8,81.2v2.6a6.053,6.053,0,0,0,.6,3.063,1.993,1.993,0,0,0,1.824.989,1.966,1.966,0,0,0,1.789-.932,5.834,5.834,0,0,0,.611-2.936Zm3.911,6.829a1.018,1.018,0,0,1,.25-.7.954.954,0,0,1,.751-.281.983.983,0,0,1,.76.281,1,1,0,0,1,.259.7.944.944,0,0,1-.259.677,1,1,0,0,1-.76.272.9.9,0,0,1-1-.949Zm12.56-4.605a7.436,7.436,0,0,1-.976,4.245,4.054,4.054,0,0,1-6.082.031,7.058,7.058,0,0,1-1.02-4.056V81.591A7.271,7.271,0,0,1,422,77.4a4.127,4.127,0,0,1,6.1-.048,7.017,7.017,0,0,1,1,4.083Zm-1.626-2.224a5.958,5.958,0,0,0-.58-3.01,2,2,0,0,0-1.837-.945,1.97,1.97,0,0,0-1.819.94,5.817,5.817,0,0,0-.589,2.892v2.6a6.053,6.053,0,0,0,.6,3.063,1.993,1.993,0,0,0,1.824.989,1.966,1.966,0,0,0,1.789-.932,5.834,5.834,0,0,0,.611-2.936Zm11.733,2.224a7.436,7.436,0,0,1-.976,4.245,4.054,4.054,0,0,1-6.082.031,7.058,7.058,0,0,1-1.02-4.056V81.591a7.271,7.271,0,0,1,.976-4.192,4.127,4.127,0,0,1,6.1-.048,7.017,7.017,0,0,1,1,4.083Zm-1.626-2.224a5.958,5.958,0,0,0-.58-3.01,2,2,0,0,0-1.837-.945,1.97,1.97,0,0,0-1.819.94,5.817,5.817,0,0,0-.589,2.892v2.6a6.053,6.053,0,0,0,.6,3.063,1.993,1.993,0,0,0,1.824.989,1.966,1.966,0,0,0,1.789-.932,5.834,5.834,0,0,0,.611-2.936Zm11.733,2.224a7.436,7.436,0,0,1-.976,4.245,4.054,4.054,0,0,1-6.082.031,7.058,7.058,0,0,1-1.02-4.056V81.591a7.271,7.271,0,0,1,.976-4.192,4.127,4.127,0,0,1,6.1-.048,7.017,7.017,0,0,1,1,4.083Zm-1.626-2.224a5.958,5.958,0,0,0-.58-3.01,2,2,0,0,0-1.837-.945,1.97,1.97,0,0,0-1.819.94,5.817,5.817,0,0,0-.589,2.892v2.6a6.053,6.053,0,0,0,.6,3.063,1.993,1.993,0,0,0,1.824.989,1.966,1.966,0,0,0,1.789-.932,5.834,5.834,0,0,0,.611-2.936Z" transform="translate(837.323 18087.102)" fill="#12263f"/>
    <path id="Trazado_138547" data-name="Trazado 138547" d="M0,0V313.405" transform="translate(799.982 17883.033)" fill="none" stroke="#5e6178" stroke-width="2" stroke-dasharray="4"/>
    <path id="Trazado_138548" data-name="Trazado 138548" d="M74.519,15.7a1.83,1.83,0,0,0-.567-1.362,5.071,5.071,0,0,0-1.912-1,6.128,6.128,0,0,1-2.729-1.49,3.286,3.286,0,0,1-.857-2.333,3.378,3.378,0,0,1,.839-2.364,3.567,3.567,0,0,1,2.307-1.1V4.129h1.31V6.063a3.387,3.387,0,0,1,2.3,1.239,4.454,4.454,0,0,1,.822,2.839H74.414a3.061,3.061,0,0,0-.589-1.975,1.935,1.935,0,0,0-1.591-.732,2.2,2.2,0,0,0-1.6.541,2.015,2.015,0,0,0-.554,1.51,1.841,1.841,0,0,0,.584,1.431,5.384,5.384,0,0,0,1.925.969,8.1,8.1,0,0,1,2.092.959,3.365,3.365,0,0,1,1.107,1.217,3.519,3.519,0,0,1,.356,1.626,3.258,3.258,0,0,1-.892,2.391,3.956,3.956,0,0,1-2.5,1.072v1.679h-1.3V19.149a3.79,3.79,0,0,1-2.562-1.165,3.93,3.93,0,0,1-.927-2.755h1.626a2.586,2.586,0,0,0,.642,1.881,2.422,2.422,0,0,0,1.819.659,2.729,2.729,0,0,0,1.811-.554A1.87,1.87,0,0,0,74.519,15.7ZM86.551,19H78.167V17.831l4.43-4.922a10.524,10.524,0,0,0,1.358-1.815,3.029,3.029,0,0,0,.374-1.446A2.3,2.3,0,0,0,83.721,8,2.12,2.12,0,0,0,82.1,7.363a2.511,2.511,0,0,0-1.885.69,2.635,2.635,0,0,0-.672,1.92H77.921a3.774,3.774,0,0,1,1.138-2.856A4.219,4.219,0,0,1,82.1,6.027a4.054,4.054,0,0,1,2.821.936,3.193,3.193,0,0,1,1.037,2.492q0,1.89-2.408,4.5l-3.428,3.718h6.425Zm1.925-.853a1.018,1.018,0,0,1,.25-.7.954.954,0,0,1,.751-.281.983.983,0,0,1,.76.281,1,1,0,0,1,.259.7.944.944,0,0,1-.259.677,1,1,0,0,1-.76.272.9.9,0,0,1-1-.949Zm5.282-5.563.65-6.381h6.557v1.5H95.789L95.4,11.2a4.13,4.13,0,0,1,2.136-.554,3.531,3.531,0,0,1,2.777,1.156,4.53,4.53,0,0,1,1.028,3.125,4.372,4.372,0,0,1-1.068,3.116,3.892,3.892,0,0,1-2.984,1.138,4.045,4.045,0,0,1-2.769-.94,3.754,3.754,0,0,1-1.222-2.6H94.84a2.582,2.582,0,0,0,.782,1.657,2.432,2.432,0,0,0,1.67.558,2.194,2.194,0,0,0,1.78-.773,3.233,3.233,0,0,0,.646-2.136,2.968,2.968,0,0,0-.7-2.061A2.377,2.377,0,0,0,97.16,12.1a2.681,2.681,0,0,0-1.67.466l-.431.352Zm17.385.958a7.436,7.436,0,0,1-.976,4.245,4.054,4.054,0,0,1-6.082.031,7.058,7.058,0,0,1-1.02-4.056V11.591a7.271,7.271,0,0,1,.976-4.192,4.127,4.127,0,0,1,6.1-.048,7.017,7.017,0,0,1,1,4.083Zm-1.626-2.224a5.958,5.958,0,0,0-.58-3.01,2,2,0,0,0-1.837-.945,1.97,1.97,0,0,0-1.819.94,5.817,5.817,0,0,0-.589,2.892v2.6a6.053,6.053,0,0,0,.6,3.063,1.993,1.993,0,0,0,1.824.989,1.966,1.966,0,0,0,1.789-.932,5.834,5.834,0,0,0,.611-2.936Zm11.733,2.224a7.436,7.436,0,0,1-.976,4.245,4.054,4.054,0,0,1-6.082.031,7.058,7.058,0,0,1-1.02-4.056V11.591a7.271,7.271,0,0,1,.976-4.192,4.127,4.127,0,0,1,6.1-.048,7.017,7.017,0,0,1,1,4.083Zm-1.626-2.224a5.958,5.958,0,0,0-.58-3.01,2,2,0,0,0-1.837-.945,1.97,1.97,0,0,0-1.819.94A5.817,5.817,0,0,0,114.8,11.2v2.6a6.053,6.053,0,0,0,.6,3.063,1.993,1.993,0,0,0,1.824.989,1.966,1.966,0,0,0,1.789-.932,5.834,5.834,0,0,0,.611-2.936Zm3.911,6.829a1.018,1.018,0,0,1,.25-.7.954.954,0,0,1,.751-.281.983.983,0,0,1,.76.281,1,1,0,0,1,.259.7.944.944,0,0,1-.259.677,1,1,0,0,1-.76.272.9.9,0,0,1-1-.949Zm12.56-4.605a7.436,7.436,0,0,1-.976,4.245,4.054,4.054,0,0,1-6.082.031,7.058,7.058,0,0,1-1.02-4.056V11.591a7.271,7.271,0,0,1,.976-4.192,4.127,4.127,0,0,1,6.1-.048,7.017,7.017,0,0,1,1,4.083Zm-1.626-2.224a5.958,5.958,0,0,0-.58-3.01,2,2,0,0,0-1.837-.945,1.97,1.97,0,0,0-1.819.94,5.817,5.817,0,0,0-.589,2.892v2.6a6.053,6.053,0,0,0,.6,3.063,1.993,1.993,0,0,0,1.824.989,1.966,1.966,0,0,0,1.789-.932,5.835,5.835,0,0,0,.611-2.936ZM146.2,13.542a7.436,7.436,0,0,1-.976,4.245,4.054,4.054,0,0,1-6.082.031,7.058,7.058,0,0,1-1.02-4.056V11.591A7.271,7.271,0,0,1,139.1,7.4a4.127,4.127,0,0,1,6.1-.048,7.017,7.017,0,0,1,1,4.083Zm-1.626-2.224a5.958,5.958,0,0,0-.58-3.01,2,2,0,0,0-1.837-.945,1.97,1.97,0,0,0-1.819.94,5.817,5.817,0,0,0-.589,2.892v2.6a6.053,6.053,0,0,0,.6,3.063,1.993,1.993,0,0,0,1.824.989,1.966,1.966,0,0,0,1.789-.932,5.834,5.834,0,0,0,.611-2.936Zm11.733,2.224a7.436,7.436,0,0,1-.976,4.245,4.054,4.054,0,0,1-6.082.031,7.058,7.058,0,0,1-1.02-4.056V11.591a7.271,7.271,0,0,1,.976-4.192,4.127,4.127,0,0,1,6.1-.048,7.017,7.017,0,0,1,1,4.083Zm-1.626-2.224a5.958,5.958,0,0,0-.58-3.01,2,2,0,0,0-1.837-.945,1.97,1.97,0,0,0-1.819.94,5.817,5.817,0,0,0-.589,2.892v2.6a6.053,6.053,0,0,0,.6,3.063,1.993,1.993,0,0,0,1.824.989,1.966,1.966,0,0,0,1.789-.932,5.834,5.834,0,0,0,.611-2.936ZM74.519,85.7a1.83,1.83,0,0,0-.567-1.362,5.071,5.071,0,0,0-1.912-1,6.128,6.128,0,0,1-2.729-1.49,3.286,3.286,0,0,1-.857-2.333,3.378,3.378,0,0,1,.839-2.364,3.567,3.567,0,0,1,2.307-1.1V74.129h1.31v1.934a3.387,3.387,0,0,1,2.3,1.239,4.454,4.454,0,0,1,.822,2.839H74.414a3.061,3.061,0,0,0-.589-1.975,1.935,1.935,0,0,0-1.591-.732,2.2,2.2,0,0,0-1.6.541,2.015,2.015,0,0,0-.554,1.51,1.841,1.841,0,0,0,.584,1.431,5.384,5.384,0,0,0,1.925.969,8.1,8.1,0,0,1,2.092.959,3.365,3.365,0,0,1,1.107,1.217,3.519,3.519,0,0,1,.356,1.626,3.258,3.258,0,0,1-.892,2.391,3.956,3.956,0,0,1-2.5,1.072v1.679h-1.3V89.149a3.79,3.79,0,0,1-2.562-1.165,3.93,3.93,0,0,1-.927-2.755h1.626a2.586,2.586,0,0,0,.642,1.881,2.422,2.422,0,0,0,1.819.659,2.729,2.729,0,0,0,1.811-.554A1.87,1.87,0,0,0,74.519,85.7ZM86.551,89H78.167V87.831l4.43-4.922a10.524,10.524,0,0,0,1.358-1.815,3.029,3.029,0,0,0,.374-1.446A2.3,2.3,0,0,0,83.721,78a2.12,2.12,0,0,0-1.617-.642,2.511,2.511,0,0,0-1.885.69,2.635,2.635,0,0,0-.672,1.92H77.921a3.774,3.774,0,0,1,1.138-2.856,4.219,4.219,0,0,1,3.045-1.09,4.054,4.054,0,0,1,2.821.936,3.193,3.193,0,0,1,1.037,2.492q0,1.89-2.408,4.5l-3.428,3.718h6.425Zm1.925-.853a1.018,1.018,0,0,1,.25-.7.954.954,0,0,1,.751-.281.983.983,0,0,1,.76.281,1,1,0,0,1,.259.7.944.944,0,0,1-.259.677,1,1,0,0,1-.76.272.9.9,0,0,1-1-.949Zm12.56-4.605a7.436,7.436,0,0,1-.976,4.245,4.054,4.054,0,0,1-6.082.031,7.058,7.058,0,0,1-1.02-4.056V81.591a7.271,7.271,0,0,1,.976-4.192,4.127,4.127,0,0,1,6.1-.048,7.017,7.017,0,0,1,1,4.083ZM99.41,81.318a5.958,5.958,0,0,0-.58-3.01,2,2,0,0,0-1.837-.945,1.97,1.97,0,0,0-1.819.94,5.817,5.817,0,0,0-.589,2.892v2.6a6.053,6.053,0,0,0,.6,3.063,1.993,1.993,0,0,0,1.824.989,1.966,1.966,0,0,0,1.789-.932,5.834,5.834,0,0,0,.611-2.936Zm11.733,2.224a7.436,7.436,0,0,1-.976,4.245,4.054,4.054,0,0,1-6.082.031,7.058,7.058,0,0,1-1.02-4.056V81.591a7.271,7.271,0,0,1,.976-4.192,4.127,4.127,0,0,1,6.1-.048,7.017,7.017,0,0,1,1,4.083Zm-1.626-2.224a5.958,5.958,0,0,0-.58-3.01,2,2,0,0,0-1.837-.945,1.97,1.97,0,0,0-1.819.94,5.817,5.817,0,0,0-.589,2.892v2.6a6.053,6.053,0,0,0,.6,3.063,1.993,1.993,0,0,0,1.824.989,1.966,1.966,0,0,0,1.789-.932,5.834,5.834,0,0,0,.611-2.936Zm11.733,2.224a7.436,7.436,0,0,1-.976,4.245,4.054,4.054,0,0,1-6.082.031,7.058,7.058,0,0,1-1.02-4.056V81.591a7.271,7.271,0,0,1,.976-4.192,4.127,4.127,0,0,1,6.1-.048,7.017,7.017,0,0,1,1,4.083Zm-1.626-2.224a5.958,5.958,0,0,0-.58-3.01,2,2,0,0,0-1.837-.945,1.97,1.97,0,0,0-1.819.94A5.817,5.817,0,0,0,114.8,81.2v2.6a6.053,6.053,0,0,0,.6,3.063,1.993,1.993,0,0,0,1.824.989,1.966,1.966,0,0,0,1.789-.932,5.834,5.834,0,0,0,.611-2.936Zm3.911,6.829a1.018,1.018,0,0,1,.25-.7.954.954,0,0,1,.751-.281.983.983,0,0,1,.76.281,1,1,0,0,1,.259.7.944.944,0,0,1-.259.677,1,1,0,0,1-.76.272.9.9,0,0,1-1-.949Zm12.56-4.605a7.436,7.436,0,0,1-.976,4.245,4.054,4.054,0,0,1-6.082.031,7.058,7.058,0,0,1-1.02-4.056V81.591a7.271,7.271,0,0,1,.976-4.192,4.127,4.127,0,0,1,6.1-.048,7.017,7.017,0,0,1,1,4.083Zm-1.626-2.224a5.958,5.958,0,0,0-.58-3.01,2,2,0,0,0-1.837-.945,1.97,1.97,0,0,0-1.819.94,5.817,5.817,0,0,0-.589,2.892v2.6a6.053,6.053,0,0,0,.6,3.063,1.993,1.993,0,0,0,1.824.989,1.966,1.966,0,0,0,1.789-.932,5.835,5.835,0,0,0,.611-2.936ZM146.2,83.542a7.436,7.436,0,0,1-.976,4.245,4.054,4.054,0,0,1-6.082.031,7.058,7.058,0,0,1-1.02-4.056V81.591A7.271,7.271,0,0,1,139.1,77.4a4.127,4.127,0,0,1,6.1-.048,7.017,7.017,0,0,1,1,4.083Zm-1.626-2.224a5.958,5.958,0,0,0-.58-3.01,2,2,0,0,0-1.837-.945,1.97,1.97,0,0,0-1.819.94,5.817,5.817,0,0,0-.589,2.892v2.6a6.053,6.053,0,0,0,.6,3.063,1.993,1.993,0,0,0,1.824.989,1.966,1.966,0,0,0,1.789-.932,5.834,5.834,0,0,0,.611-2.936Zm11.733,2.224a7.436,7.436,0,0,1-.976,4.245,4.054,4.054,0,0,1-6.082.031,7.058,7.058,0,0,1-1.02-4.056V81.591a7.271,7.271,0,0,1,.976-4.192,4.127,4.127,0,0,1,6.1-.048,7.017,7.017,0,0,1,1,4.083Zm-1.626-2.224a5.958,5.958,0,0,0-.58-3.01,2,2,0,0,0-1.837-.945,1.97,1.97,0,0,0-1.819.94,5.817,5.817,0,0,0-.589,2.892v2.6a6.053,6.053,0,0,0,.6,3.063,1.993,1.993,0,0,0,1.824.989,1.966,1.966,0,0,0,1.789-.932,5.834,5.834,0,0,0,.611-2.936ZM74.519,155.7a1.83,1.83,0,0,0-.567-1.362,5.071,5.071,0,0,0-1.912-1,6.128,6.128,0,0,1-2.729-1.49,3.286,3.286,0,0,1-.857-2.333,3.378,3.378,0,0,1,.839-2.364,3.567,3.567,0,0,1,2.307-1.1v-1.925h1.31v1.934a3.387,3.387,0,0,1,2.3,1.239,4.454,4.454,0,0,1,.822,2.839H74.414a3.061,3.061,0,0,0-.589-1.975,1.935,1.935,0,0,0-1.591-.732,2.2,2.2,0,0,0-1.6.541,2.015,2.015,0,0,0-.554,1.51,1.841,1.841,0,0,0,.584,1.431,5.384,5.384,0,0,0,1.925.969,8.1,8.1,0,0,1,2.092.959,3.365,3.365,0,0,1,1.107,1.217,3.519,3.519,0,0,1,.356,1.626,3.258,3.258,0,0,1-.892,2.391,3.956,3.956,0,0,1-2.5,1.072v1.679h-1.3v-1.679a3.79,3.79,0,0,1-2.562-1.165,3.93,3.93,0,0,1-.927-2.755h1.626a2.586,2.586,0,0,0,.642,1.881,2.422,2.422,0,0,0,1.819.659,2.729,2.729,0,0,0,1.811-.554A1.87,1.87,0,0,0,74.519,155.7ZM86.551,159H78.167v-1.169l4.43-4.922a10.524,10.524,0,0,0,1.358-1.815,3.029,3.029,0,0,0,.374-1.446A2.3,2.3,0,0,0,83.721,148a2.12,2.12,0,0,0-1.617-.642,2.511,2.511,0,0,0-1.885.69,2.635,2.635,0,0,0-.672,1.92H77.921a3.774,3.774,0,0,1,1.138-2.856,4.219,4.219,0,0,1,3.045-1.09,4.054,4.054,0,0,1,2.821.936,3.193,3.193,0,0,1,1.037,2.492q0,1.89-2.408,4.5l-3.428,3.718h6.425Zm1.925-.853a1.018,1.018,0,0,1,.25-.7.954.954,0,0,1,.751-.281.983.983,0,0,1,.76.281,1,1,0,0,1,.259.7.944.944,0,0,1-.259.677,1,1,0,0,1-.76.272.9.9,0,0,1-1-.949Zm12.3-8.6a2.972,2.972,0,0,1-.505,1.705,3.439,3.439,0,0,1-1.367,1.169,3.668,3.668,0,0,1,1.586,1.257,3.163,3.163,0,0,1,.584,1.872,3.344,3.344,0,0,1-1.121,2.646,4.913,4.913,0,0,1-5.906,0,3.36,3.36,0,0,1-1.112-2.641,3.257,3.257,0,0,1,.567-1.872,3.528,3.528,0,0,1,1.569-1.266,3.354,3.354,0,0,1-1.345-1.169,3.014,3.014,0,0,1-.492-1.7,3.308,3.308,0,0,1,1.037-2.566,4.4,4.4,0,0,1,5.462,0A3.3,3.3,0,0,1,100.772,149.543Zm-1.327,5.968a2.359,2.359,0,0,0-.681-1.749,2.416,2.416,0,0,0-1.78-.677,2.288,2.288,0,0,0-2.426,2.426,2.271,2.271,0,0,0,.646,1.714,2.886,2.886,0,0,0,3.59,0A2.266,2.266,0,0,0,99.445,155.511ZM97,147.363a2.1,2.1,0,0,0-1.551.593,2.455,2.455,0,0,0-.009,3.19,2.322,2.322,0,0,0,3.12,0,2.405,2.405,0,0,0-.022-3.168A2.068,2.068,0,0,0,97,147.363Zm14.142,6.179a7.436,7.436,0,0,1-.976,4.245,4.054,4.054,0,0,1-6.082.031,7.058,7.058,0,0,1-1.02-4.056v-2.171a7.271,7.271,0,0,1,.976-4.192,4.127,4.127,0,0,1,6.1-.048,7.017,7.017,0,0,1,1,4.083Zm-1.626-2.224a5.958,5.958,0,0,0-.58-3.01,2,2,0,0,0-1.837-.945,1.97,1.97,0,0,0-1.819.94,5.817,5.817,0,0,0-.589,2.892v2.6a6.053,6.053,0,0,0,.6,3.063,1.993,1.993,0,0,0,1.824.989,1.966,1.966,0,0,0,1.789-.932,5.834,5.834,0,0,0,.611-2.936Zm11.733,2.224a7.436,7.436,0,0,1-.976,4.245,4.054,4.054,0,0,1-6.082.031,7.058,7.058,0,0,1-1.02-4.056v-2.171a7.271,7.271,0,0,1,.976-4.192,4.127,4.127,0,0,1,6.1-.048,7.017,7.017,0,0,1,1,4.083Zm-1.626-2.224a5.958,5.958,0,0,0-.58-3.01,2,2,0,0,0-1.837-.945,1.97,1.97,0,0,0-1.819.94,5.817,5.817,0,0,0-.589,2.892v2.6a6.053,6.053,0,0,0,.6,3.063,1.993,1.993,0,0,0,1.824.989,1.966,1.966,0,0,0,1.789-.932,5.834,5.834,0,0,0,.611-2.936Zm3.911,6.829a1.018,1.018,0,0,1,.25-.7.954.954,0,0,1,.751-.281.983.983,0,0,1,.76.281,1,1,0,0,1,.259.7.944.944,0,0,1-.259.677,1,1,0,0,1-.76.272.9.9,0,0,1-1-.949Zm12.56-4.605a7.436,7.436,0,0,1-.976,4.245,4.054,4.054,0,0,1-6.082.031,7.058,7.058,0,0,1-1.02-4.056v-2.171a7.271,7.271,0,0,1,.976-4.192,4.127,4.127,0,0,1,6.1-.048,7.017,7.017,0,0,1,1,4.083Zm-1.626-2.224a5.958,5.958,0,0,0-.58-3.01,2,2,0,0,0-1.837-.945,1.97,1.97,0,0,0-1.819.94,5.817,5.817,0,0,0-.589,2.892v2.6a6.053,6.053,0,0,0,.6,3.063,1.993,1.993,0,0,0,1.824.989,1.966,1.966,0,0,0,1.789-.932,5.835,5.835,0,0,0,.611-2.936Zm11.733,2.224a7.436,7.436,0,0,1-.976,4.245,4.054,4.054,0,0,1-6.082.031,7.058,7.058,0,0,1-1.02-4.056v-2.171a7.271,7.271,0,0,1,.976-4.192,4.127,4.127,0,0,1,6.1-.048,7.017,7.017,0,0,1,1,4.083Zm-1.626-2.224a5.958,5.958,0,0,0-.58-3.01,2,2,0,0,0-1.837-.945,1.97,1.97,0,0,0-1.819.94,5.817,5.817,0,0,0-.589,2.892v2.6a6.053,6.053,0,0,0,.6,3.063,1.993,1.993,0,0,0,1.824.989,1.966,1.966,0,0,0,1.789-.932,5.834,5.834,0,0,0,.611-2.936Zm11.733,2.224a7.436,7.436,0,0,1-.976,4.245,4.054,4.054,0,0,1-6.082.031,7.058,7.058,0,0,1-1.02-4.056v-2.171a7.271,7.271,0,0,1,.976-4.192,4.127,4.127,0,0,1,6.1-.048,7.017,7.017,0,0,1,1,4.083Zm-1.626-2.224a5.958,5.958,0,0,0-.58-3.01,2,2,0,0,0-1.837-.945,1.97,1.97,0,0,0-1.819.94,5.817,5.817,0,0,0-.589,2.892v2.6a6.053,6.053,0,0,0,.6,3.063,1.993,1.993,0,0,0,1.824.989,1.966,1.966,0,0,0,1.789-.932,5.834,5.834,0,0,0,.611-2.936ZM74.519,225.7a1.83,1.83,0,0,0-.567-1.362,5.071,5.071,0,0,0-1.912-1,6.128,6.128,0,0,1-2.729-1.49,3.286,3.286,0,0,1-.857-2.333,3.378,3.378,0,0,1,.839-2.364,3.567,3.567,0,0,1,2.307-1.1v-1.925h1.31v1.934a3.387,3.387,0,0,1,2.3,1.239,4.454,4.454,0,0,1,.822,2.839H74.414a3.061,3.061,0,0,0-.589-1.975,1.935,1.935,0,0,0-1.591-.732,2.2,2.2,0,0,0-1.6.541,2.015,2.015,0,0,0-.554,1.51,1.841,1.841,0,0,0,.584,1.431,5.384,5.384,0,0,0,1.925.969,8.1,8.1,0,0,1,2.092.959,3.365,3.365,0,0,1,1.107,1.217,3.519,3.519,0,0,1,.356,1.626,3.258,3.258,0,0,1-.892,2.391,3.956,3.956,0,0,1-2.5,1.072v1.679h-1.3v-1.679a3.79,3.79,0,0,1-2.562-1.165,3.93,3.93,0,0,1-.927-2.755h1.626a2.586,2.586,0,0,0,.642,1.881,2.422,2.422,0,0,0,1.819.659,2.729,2.729,0,0,0,1.811-.554A1.87,1.87,0,0,0,74.519,225.7Zm10.028-9.51v1.38h-.3a4.281,4.281,0,0,0-3.023,1.125,4.681,4.681,0,0,0-1.3,3.067,3.471,3.471,0,0,1,2.76-1.16,3.319,3.319,0,0,1,2.667,1.178,5.161,5.161,0,0,1-.079,6.205,3.707,3.707,0,0,1-2.887,1.187,3.653,3.653,0,0,1-2.979-1.411,5.591,5.591,0,0,1-1.143-3.634v-.624a8.424,8.424,0,0,1,1.507-5.4,5.536,5.536,0,0,1,4.487-1.912Zm-2.136,5.766a2.733,2.733,0,0,0-2.514,1.758v.6a4.2,4.2,0,0,0,.712,2.549,2.133,2.133,0,0,0,1.775.967,2.067,2.067,0,0,0,1.727-.809,3.884,3.884,0,0,0-.009-4.25A2.042,2.042,0,0,0,82.412,221.96Zm6.064,6.188a1.018,1.018,0,0,1,.25-.7.954.954,0,0,1,.751-.281.983.983,0,0,1,.76.281,1,1,0,0,1,.259.7.944.944,0,0,1-.259.677,1,1,0,0,1-.76.272.9.9,0,0,1-1-.949Zm5.282-5.563.65-6.381h6.557v1.5H95.789L95.4,221.2a4.13,4.13,0,0,1,2.136-.554,3.531,3.531,0,0,1,2.777,1.156,4.53,4.53,0,0,1,1.028,3.125,4.372,4.372,0,0,1-1.068,3.116,3.892,3.892,0,0,1-2.984,1.138,4.045,4.045,0,0,1-2.769-.94,3.754,3.754,0,0,1-1.222-2.6H94.84a2.582,2.582,0,0,0,.782,1.657,2.432,2.432,0,0,0,1.67.558,2.194,2.194,0,0,0,1.78-.773,3.233,3.233,0,0,0,.646-2.136,2.968,2.968,0,0,0-.7-2.061,2.377,2.377,0,0,0-1.859-.778,2.681,2.681,0,0,0-1.67.466l-.431.352Zm17.385.958a7.436,7.436,0,0,1-.976,4.245,4.054,4.054,0,0,1-6.082.031,7.058,7.058,0,0,1-1.02-4.056v-2.171a7.271,7.271,0,0,1,.976-4.192,4.127,4.127,0,0,1,6.1-.048,7.017,7.017,0,0,1,1,4.083Zm-1.626-2.224a5.958,5.958,0,0,0-.58-3.01,2,2,0,0,0-1.837-.945,1.97,1.97,0,0,0-1.819.94,5.817,5.817,0,0,0-.589,2.892v2.6a6.053,6.053,0,0,0,.6,3.063,1.993,1.993,0,0,0,1.824.989,1.966,1.966,0,0,0,1.789-.932,5.834,5.834,0,0,0,.611-2.936Zm11.733,2.224a7.436,7.436,0,0,1-.976,4.245,4.054,4.054,0,0,1-6.082.031,7.058,7.058,0,0,1-1.02-4.056v-2.171a7.271,7.271,0,0,1,.976-4.192,4.127,4.127,0,0,1,6.1-.048,7.017,7.017,0,0,1,1,4.083Zm-1.626-2.224a5.958,5.958,0,0,0-.58-3.01,2,2,0,0,0-1.837-.945,1.97,1.97,0,0,0-1.819.94,5.817,5.817,0,0,0-.589,2.892v2.6a6.053,6.053,0,0,0,.6,3.063,1.993,1.993,0,0,0,1.824.989,1.966,1.966,0,0,0,1.789-.932,5.834,5.834,0,0,0,.611-2.936Zm3.911,6.829a1.018,1.018,0,0,1,.25-.7.954.954,0,0,1,.751-.281.983.983,0,0,1,.76.281,1,1,0,0,1,.259.7.944.944,0,0,1-.259.677,1,1,0,0,1-.76.272.9.9,0,0,1-1-.949Zm12.56-4.605a7.436,7.436,0,0,1-.976,4.245,4.054,4.054,0,0,1-6.082.031,7.058,7.058,0,0,1-1.02-4.056v-2.171a7.271,7.271,0,0,1,.976-4.192,4.127,4.127,0,0,1,6.1-.048,7.017,7.017,0,0,1,1,4.083Zm-1.626-2.224a5.958,5.958,0,0,0-.58-3.01,2,2,0,0,0-1.837-.945,1.97,1.97,0,0,0-1.819.94,5.817,5.817,0,0,0-.589,2.892v2.6a6.053,6.053,0,0,0,.6,3.063,1.993,1.993,0,0,0,1.824.989,1.966,1.966,0,0,0,1.789-.932,5.835,5.835,0,0,0,.611-2.936Zm11.733,2.224a7.436,7.436,0,0,1-.976,4.245,4.054,4.054,0,0,1-6.082.031,7.058,7.058,0,0,1-1.02-4.056v-2.171a7.271,7.271,0,0,1,.976-4.192,4.127,4.127,0,0,1,6.1-.048,7.017,7.017,0,0,1,1,4.083Zm-1.626-2.224a5.958,5.958,0,0,0-.58-3.01,2,2,0,0,0-1.837-.945,1.97,1.97,0,0,0-1.819.94,5.817,5.817,0,0,0-.589,2.892v2.6a6.053,6.053,0,0,0,.6,3.063,1.993,1.993,0,0,0,1.824.989,1.966,1.966,0,0,0,1.789-.932,5.834,5.834,0,0,0,.611-2.936Zm11.733,2.224a7.436,7.436,0,0,1-.976,4.245,4.054,4.054,0,0,1-6.082.031,7.058,7.058,0,0,1-1.02-4.056v-2.171a7.271,7.271,0,0,1,.976-4.192,4.127,4.127,0,0,1,6.1-.048,7.017,7.017,0,0,1,1,4.083Zm-1.626-2.224a5.958,5.958,0,0,0-.58-3.01,2,2,0,0,0-1.837-.945,1.97,1.97,0,0,0-1.819.94,5.817,5.817,0,0,0-.589,2.892v2.6a6.053,6.053,0,0,0,.6,3.063,1.993,1.993,0,0,0,1.824.989,1.966,1.966,0,0,0,1.789-.932,5.834,5.834,0,0,0,.611-2.936ZM67.418,295.634a1.609,1.609,0,0,0-.4-1.147,3.625,3.625,0,0,0-1.358-.787,16.02,16.02,0,0,1-1.652-.716,5.264,5.264,0,0,1-1.191-.817,3.284,3.284,0,0,1-.773-1.085,3.643,3.643,0,0,1-.277-1.485,3.3,3.3,0,0,1,.949-2.435,4.005,4.005,0,0,1,2.522-1.107v-1.881h1.406v1.907a3.67,3.67,0,0,1,2.435,1.3,4.271,4.271,0,0,1,.879,2.791h-2.54a2.425,2.425,0,0,0-.435-1.578,1.437,1.437,0,0,0-1.165-.523,1.481,1.481,0,0,0-1.116.409,1.556,1.556,0,0,0-.4,1.129,1.487,1.487,0,0,0,.387,1.072,4.261,4.261,0,0,0,1.437.826,15.96,15.96,0,0,1,1.727.8,4.985,4.985,0,0,1,1.143.844,3.268,3.268,0,0,1,.712,1.072,3.686,3.686,0,0,1,.246,1.4,3.281,3.281,0,0,1-.932,2.426,4.086,4.086,0,0,1-2.566,1.1v1.749h-1.4v-1.74a4.228,4.228,0,0,1-2.791-1.279,4.122,4.122,0,0,1-.989-2.887h2.54a2.337,2.337,0,0,0,.5,1.6,1.812,1.812,0,0,0,1.428.558,1.745,1.745,0,0,0,1.222-.409A1.419,1.419,0,0,0,67.418,295.634ZM77.841,299H75.3v-9.791l-3.032.94v-2.065l5.3-1.9h.272Zm6.741-7.523h1.354a1.907,1.907,0,0,0,1.433-.483,1.771,1.771,0,0,0,.466-1.283,1.566,1.566,0,0,0-.461-1.2,1.788,1.788,0,0,0-1.27-.431,1.874,1.874,0,0,0-1.222.4,1.279,1.279,0,0,0-.492,1.042h-2.54a3.124,3.124,0,0,1,.541-1.8,3.6,3.6,0,0,1,1.512-1.244,5.045,5.045,0,0,1,2.14-.448,4.785,4.785,0,0,1,3.182.971,3.314,3.314,0,0,1,1.151,2.676,2.693,2.693,0,0,1-.536,1.617,3.483,3.483,0,0,1-1.406,1.134,3.18,3.18,0,0,1,1.613,1.16,3.147,3.147,0,0,1,.532,1.828,3.369,3.369,0,0,1-1.244,2.733,5,5,0,0,1-3.292,1.028,4.741,4.741,0,0,1-3.133-1.011,3.3,3.3,0,0,1-1.217-2.672h2.54a1.472,1.472,0,0,0,.541,1.178,2.255,2.255,0,0,0,2.751-.022,1.654,1.654,0,0,0,.514-1.27q0-1.916-2.109-1.916H84.583Zm7.98,6.275a1.279,1.279,0,0,1,.409-.984,1.588,1.588,0,0,1,2.057,0,1.279,1.279,0,0,1,.409.984,1.261,1.261,0,0,1-.4.971,1.614,1.614,0,0,1-2.065,0A1.261,1.261,0,0,1,92.563,297.752ZM105.9,289.6a2.977,2.977,0,0,1-.466,1.652,3.353,3.353,0,0,1-1.283,1.151,3.711,3.711,0,0,1,1.477,1.235,3.168,3.168,0,0,1,.545,1.85,3.354,3.354,0,0,1-1.16,2.694,5.533,5.533,0,0,1-6.319,0,3.346,3.346,0,0,1-1.169-2.689,3.188,3.188,0,0,1,.545-1.854,3.644,3.644,0,0,1,1.468-1.23,3.318,3.318,0,0,1-1.279-1.151,3,3,0,0,1-.461-1.652A3.317,3.317,0,0,1,98.882,287a5.014,5.014,0,0,1,5.919-.009A3.3,3.3,0,0,1,105.9,289.6Zm-2.276,5.7a1.843,1.843,0,0,0-.483-1.336,1.934,1.934,0,0,0-2.593,0,2.084,2.084,0,0,0-.009,2.659,1.983,1.983,0,0,0,2.615.018A1.835,1.835,0,0,0,103.62,295.309Zm-.264-5.581a1.758,1.758,0,0,0-.4-1.2,1.609,1.609,0,0,0-2.224-.013,1.748,1.748,0,0,0-.4,1.213,1.837,1.837,0,0,0,.4,1.23,1.565,1.565,0,0,0,2.228,0A1.85,1.85,0,0,0,103.356,289.728Zm13.14,3.981a6.483,6.483,0,0,1-1.1,4.061,4.39,4.39,0,0,1-6.416.026,6.293,6.293,0,0,1-1.134-3.955v-2.355a6.4,6.4,0,0,1,1.112-4.069,4.4,4.4,0,0,1,6.4-.013,6.273,6.273,0,0,1,1.134,3.951Zm-2.54-2.59a4.686,4.686,0,0,0-.435-2.318,1.47,1.47,0,0,0-1.358-.726,1.444,1.444,0,0,0-1.323.691,4.385,4.385,0,0,0-.453,2.16v3.114a4.919,4.919,0,0,0,.426,2.327,1.451,1.451,0,0,0,1.367.761,1.426,1.426,0,0,0,1.345-.73,4.8,4.8,0,0,0,.431-2.235Zm12.867,2.59a6.483,6.483,0,0,1-1.1,4.061,4.39,4.39,0,0,1-6.416.026,6.293,6.293,0,0,1-1.134-3.955v-2.355a6.4,6.4,0,0,1,1.112-4.069,4.4,4.4,0,0,1,6.4-.013,6.273,6.273,0,0,1,1.134,3.951Zm-2.54-2.59a4.686,4.686,0,0,0-.435-2.318,1.47,1.47,0,0,0-1.358-.726,1.444,1.444,0,0,0-1.323.691,4.385,4.385,0,0,0-.453,2.16v3.114a4.919,4.919,0,0,0,.426,2.327,1.451,1.451,0,0,0,1.367.761,1.426,1.426,0,0,0,1.345-.73,4.8,4.8,0,0,0,.431-2.235Zm4.491,6.633a1.279,1.279,0,0,1,.409-.984,1.588,1.588,0,0,1,2.057,0,1.279,1.279,0,0,1,.409.984,1.261,1.261,0,0,1-.4.971,1.614,1.614,0,0,1-2.065,0A1.261,1.261,0,0,1,128.774,297.752Zm13.605-4.043a6.483,6.483,0,0,1-1.1,4.061,4.39,4.39,0,0,1-6.416.026,6.293,6.293,0,0,1-1.134-3.955v-2.355a6.4,6.4,0,0,1,1.112-4.069,4.4,4.4,0,0,1,6.4-.013,6.273,6.273,0,0,1,1.134,3.951Zm-2.54-2.59a4.686,4.686,0,0,0-.435-2.318,1.47,1.47,0,0,0-1.358-.726,1.444,1.444,0,0,0-1.323.691,4.385,4.385,0,0,0-.453,2.16v3.114a4.919,4.919,0,0,0,.426,2.327,1.451,1.451,0,0,0,1.367.761,1.426,1.426,0,0,0,1.345-.73,4.8,4.8,0,0,0,.431-2.235Zm12.867,2.59a6.483,6.483,0,0,1-1.1,4.061,4.39,4.39,0,0,1-6.416.026,6.293,6.293,0,0,1-1.134-3.955v-2.355a6.4,6.4,0,0,1,1.112-4.069,4.4,4.4,0,0,1,6.4-.013,6.273,6.273,0,0,1,1.134,3.951Zm-2.54-2.59a4.686,4.686,0,0,0-.435-2.318,1.47,1.47,0,0,0-1.358-.726,1.444,1.444,0,0,0-1.323.691,4.385,4.385,0,0,0-.453,2.16v3.114a4.919,4.919,0,0,0,.426,2.327,1.451,1.451,0,0,0,1.367.761,1.426,1.426,0,0,0,1.345-.73,4.8,4.8,0,0,0,.431-2.235Zm12.867,2.59a6.483,6.483,0,0,1-1.1,4.061,4.39,4.39,0,0,1-6.416.026,6.293,6.293,0,0,1-1.134-3.955v-2.355a6.4,6.4,0,0,1,1.112-4.069,4.4,4.4,0,0,1,6.4-.013,6.273,6.273,0,0,1,1.134,3.951Zm-2.54-2.59a4.686,4.686,0,0,0-.435-2.318,1.47,1.47,0,0,0-1.358-.726,1.444,1.444,0,0,0-1.323.691,4.385,4.385,0,0,0-.453,2.16v3.114a4.919,4.919,0,0,0,.426,2.327,1.451,1.451,0,0,0,1.367.761,1.426,1.426,0,0,0,1.345-.73,4.8,4.8,0,0,0,.431-2.235Z" transform="translate(596.884 17886.609)" fill="#12263f"/>
  </g>
</svg>
